<?xml version="1.0" encoding="UTF-8"?>
<!DOCTYPE svg PUBLIC "-//W3C//DTD SVG 1.1//EN" "http://www.w3.org/Graphics/SVG/1.1/DTD/svg11.dtd">
<!-- Creator: CorelDRAW -->
<svg xmlns="http://www.w3.org/2000/svg" xml:space="preserve" width="4.30523in" height="4.28515in" style="shape-rendering:geometricPrecision; text-rendering:geometricPrecision; image-rendering:optimizeQuality; fill-rule:evenodd; clip-rule:evenodd"
viewBox="0 0 5.23471 5.2103"
 xmlns:xlink="http://www.w3.org/1999/xlink">
 <defs>
  <style type="text/css">
   <![CDATA[
    .str3 {stroke:#5F3A74;stroke-width:0.00364769}
    .str5 {stroke:#6F448A;stroke-width:0.00364769}
    .str1 {stroke:#84C225;stroke-width:0.00364769}
    .str2 {stroke:#DA251D;stroke-width:0.00364769}
    .str0 {stroke:white;stroke-width:0.00364769}
    .str4 {stroke:white;stroke-width:0.033777}
    .str6 {stroke:white;stroke-width:0.0506607}
    .fil27 {fill:none}
    .fil24 {fill:none;fill-rule:nonzero}
    .fil28 {fill:#00923F}
    .fil25 {fill:#5F3A74}
    .fil26 {fill:#6F448A}
    .fil20 {fill:#84C225}
    .fil22 {fill:#DA251D}
    .fil21 {fill:white}
    .fil11 {fill:#04A3F6}
    .fil19 {fill:#0E0F10}
    .fil3 {fill:#121D34}
    .fil7 {fill:#129B19}
    .fil8 {fill:#2C354B}
    .fil9 {fill:#304654}
    .fil1 {fill:#4F6977}
    .fil18 {fill:#5C2763}
    .fil6 {fill:#6FC575}
    .fil0 {fill:#76B1C5}
    .fil17 {fill:#9E40B9}
    .fil16 {fill:#A7C73F}
    .fil2 {fill:#AAABB0}
    .fil14 {fill:#B9B9B8}
    .fil5 {fill:#DC0C0C}
    .fil12 {fill:#E2B452}
    .fil15 {fill:#E4E4E3}
    .fil4 {fill:#EAD7D1}
    .fil10 {fill:#F07868}
    .fil13 {fill:#F9F8F6}
    .fil23 {fill:white;fill-rule:nonzero}
   ]]>
  </style>
 </defs>
 <g id="Layer_x0020_1">
  <metadata id="CorelCorpID_0Corel-Layer"/>
  <g id="_116543808">
   <polygon id="_113148320" class="fil0" points="2.48924,0.0121925 2.46483,0.0243993 2.45262,0.0366061 2.42823,0.0487986 2.41602,0.0610054 2.39162,0.0732122 2.37941,0.0854047 2.36721,0.0976115 2.35501,0.109818 2.34281,0.122011 2.3306,0.146424 2.31841,0.158617 2.3062,0.170824 2.29399,0.195223 2.2818,0.231829 2.26959,0.280642 2.26959,0.427071 2.2818,0.451471 2.29399,0.488077 2.3062,0.51249 2.31841,0.524683 2.3306,0.549097 2.34281,0.561289 2.35501,0.573496 2.36721,0.585703 2.37941,0.597895 2.39162,0.610102 2.41602,0.622309 2.42823,0.634501 2.45262,0.646708 2.46483,0.658915 2.50144,0.671107 2.53805,0.683314 2.70887,0.683314 2.74548,0.671107 2.76988,0.658915 2.79429,0.646708 2.81869,0.634501 2.8309,0.622309 2.8553,0.610102 2.8675,0.597895 2.8797,0.585703 2.8919,0.561289 2.90411,0.549097 2.9163,0.53689 2.92851,0.51249 2.94072,0.488077 2.95291,0.463678 2.96511,0.439278 2.96511,0.244036 2.95291,0.20743 2.94072,0.183031 2.92851,0.158617 2.9163,0.146424 2.90411,0.134218 2.8919,0.122011 2.8797,0.0976115 2.8553,0.0854047 2.84309,0.0732122 2.8309,0.0610054 2.81869,0.0487986 2.79429,0.0366061 2.78208,0.0243993 2.75769,0.0121925 2.70887,0 2.51363,0 "/>
   <polygon id="_113522432" class="fil1" points="3.9901,0.439278 3.97789,0.451471 3.95349,0.463678 3.94128,0.475884 3.91688,0.488077 3.90468,0.500284 3.89248,0.524683 3.88028,0.53689 3.86807,0.561289 3.85588,0.585703 3.84367,0.610102 3.84367,0.780926 3.85588,0.817532 3.86807,0.841946 3.88028,0.854138 3.89248,0.866345 3.90468,0.878552 3.91688,0.890744 3.92909,0.902951 3.94128,0.915158 3.95349,0.92735 3.97789,0.939557 3.9901,0.951764 4.0267,0.963956 4.18533,0.963956 4.22194,0.951764 4.24634,0.939557 4.25855,0.92735 4.27074,0.915158 4.28294,0.902951 4.29515,0.890744 4.30734,0.878552 4.31955,0.866345 4.33176,0.854138 4.34395,0.829739 4.35616,0.817532 4.36836,0.780926 4.36836,0.610102 4.35616,0.585703 4.34395,0.561289 4.33176,0.53689 4.31955,0.524683 4.30734,0.51249 4.29515,0.500284 4.28294,0.488077 4.27074,0.475884 4.25855,0.463678 4.23413,0.451471 4.20973,0.439278 4.18533,0.427071 4.0267,0.427071 "/>
   <path id="_113523584" class="fil2" d="M0.463678 0.53689l0 0.219637c0,0.028564 0.020249,0.0488129 0.0488129,0.0488129l0.244036 0c0.0281188,0 0.0366061,-0.00848734 0.0366061,-0.0366061l0 -0.256243c0,-0.0281188 -0.00848734,-0.0366061 -0.0366061,-0.0366061l-0.280642 0c-0.00637149,0.0273672 -0.0122068,0.0280422 -0.0122068,0.0610054z"/>
   <path id="_116314144" class="fil3" d="M0.463678 0.53689c0,-0.0329632 0.00583534,-0.0336382 0.0122068,-0.0610054l0.280642 0c0.0281188,0 0.0366061,0.00848734 0.0366061,0.0366061l0 0.256243c0,0.0281188 -0.00848734,0.0366061 -0.0366061,0.0366061l-0.244036 0c-0.028564,0 -0.0488129,-0.020249 -0.0488129,-0.0488129l0 -0.219637zm0.0366061 -0.183031l-0.0243993 0.0122068 -0.0243993 0.0121925 -0.0122068 0.0122068 -0.0122116 0.0122068 -0.0243993 0.0121925 -0.0122068 0.0122068 -0.0121925 0.0122068 -0.0122068 0.0121925 -0.0122068 0.0244137 -0.0121925 0.0243993 -0.0122068 0.0243993 -0.0122068 0.0366061 0 0.170838 0.0122068 0.0243993 0.0122068 0.0243993 0.0121925 0.0244137 0.0122068 0.0121925 0.0122068 0.0244137 0.0121925 0.0121925 0.0122068 0.0122068 0.0122068 0.0122068 0.0244041 0.0121925 0.0122068 0.0122068 0.0243993 0.0122068 0.0243993 0.0121925 0.0366061 0.0122068 0.183031 0 0.0366061 -0.0122068 0.0122068 -0.0121925 0.0243993 -0.0122068 0.0122068 -0.0122068 0.0122068 -0.0121925 0.0121925 -0.0122068 0.0122068 -0.0122068 0.0122068 -0.0121925 0.0121925 -0.0122068 0.0122068 -0.0122068 0.0122068 -0.0121925 0.0121925 -0.0244137 0.0122068 -0.0243993 0.0122068 -0.0366061 0 -0.158631 -0.0122068 -0.0366061 -0.0122068 -0.0243993 -0.0121925 -0.0243993 -0.0122068 -0.0122068 -0.0122068 -0.0243993 -0.0121925 -0.0122068 -0.0122068 -0.0122068 -0.0122068 -0.0121925 -0.0243993 -0.0122068 -0.0122068 -0.0122068 -0.0243993 -0.0121925 -0.0243993 -0.0122068 -0.0244137 -0.0122068 -0.195223 0 -0.0244137 0.0122068z"/>
   <path id="_113523200" class="fil4" d="M1.52526 0.915158l0 0.109823c0,0.028564 0.020249,0.0487986 0.0488129,0.0487986l0.231848 0c0.028564,0 0.0487986,-0.0202346 0.0487986,-0.0487986l0 -0.134237c0,-0.028564 -0.0202346,-0.0487986 -0.0487986,-0.0487986l-0.231848 0c-0.0375156,0 -0.0488129,0.0357445 -0.0488129,0.0732122z"/>
   <path id="_113523152" class="fil5" d="M1.52526 0.915158c0,-0.0374678 0.0112973,-0.0732122 0.0488129,-0.0732122l0.231848 0c0.028564,0 0.0487986,0.0202346 0.0487986,0.0487986l0 0.134237c0,0.028564 -0.0202346,0.0487986 -0.0487986,0.0487986l-0.231848 0c-0.028564,0 -0.0488129,-0.0202346 -0.0488129,-0.0487986l0 -0.109823zm0.0610198 -0.219637l-0.0244137 0.0121925 -0.0121925 0.0122068 -0.0122068 0.0122068 -0.0243993 0.0121925 -0.0122068 0.0122068 -0.0122068 0.0122068 -0.0121925 0.0121925 -0.0122068 0.0122068 -0.0122068 0.0243993 -0.0121925 0.0122068 -0.0122068 0.0122068 -0.0122068 0.0487986 0 0.170843 0.0122068 0.0366061 0.0122068 0.0243993 0.0121925 0.0122068 0.0122068 0.0243993 0.0122068 0.0122068 0.0121925 0.0121925 0.0122068 0.0122068 0.0122068 0.0122068 0.0121925 0.0121925 0.0244137 0.0122068 0.0121925 0.0122068 0.0122068 0.0121925 0.0488129 0.0122068 0.158617 0 0.0366109 -0.0122068 0.0244137 -0.0121925 0.0121925 -0.0122068 0.0244137 -0.0122068 0.0121925 -0.0121925 0.0122068 -0.0122068 0.0122068 -0.0122068 0.0121925 -0.0121925 0.0122068 -0.0122068 0.0122068 -0.0122068 0.0121925 -0.0243993 0.0122068 -0.0243993 0.0122068 -0.0366061 0 -0.170843 -0.0122068 -0.0366061 -0.0122068 -0.0243993 -0.0121925 -0.0243993 -0.0122068 -0.0122068 -0.0122068 -0.0243993 -0.0121925 -0.0122068 -0.0122068 -0.0122068 -0.0243993 -0.0121925 -0.0122068 -0.0122068 -0.0243993 -0.0122068 -0.0244137 -0.0121925 -0.0366109 -0.0122068 -0.170824 0 -0.0243993 0.0122068z"/>
   <path id="_116317072" class="fil6" d="M2.78208 1.33002l0.00125419 0.0121637 -0.000186693 0.223227 0.096544 -0.0279465c0.0239828,0.0126855 0.0359886,0.0243993 0.0732122,0.0243993l0.0244137 0c0.107066,0 0.195228,-0.0934469 0.195228,-0.195237 0,-0.0929442 -0.0817044,-0.195223 -0.170829,-0.195223l-0.0122068 0c-0.106635,0 -0.20743,0.0624894 -0.20743,0.158617z"/>
   <path id="_113522792" class="fil7" d="M2.78208 1.33002c0,-0.0961276 0.100795,-0.158617 0.20743,-0.158617l0.0122068 0c0.0891242,0 0.170829,0.102279 0.170829,0.195223 0,0.101791 -0.088162,0.195237 -0.195228,0.195237l-0.0244137 0c-0.0372236,0 -0.0492294,-0.0117138 -0.0732122,-0.0243993l-0.096544 0.0279465 0.000186693 -0.223227 -0.00125419 -0.0121637zm0.0366061 -0.280642l-0.0243993 0.0122068 -0.0122068 0.0121925 -0.0243993 0.0122068 -0.0122068 0.0122068 -0.0122068 0.0121925 -0.0121925 0.0122068 -0.0122068 0.0122068 -0.0122068 0.0121925 -0.0121925 0.0122068 -0.0122068 0.0122068 -0.0122068 0.0243993 -0.0121925 0.0243993 -0.0122068 0.0244137 -0.0122068 0.0366061 0 0.170824 0.0122068 0.0366061 0.0122068 0.0366061 0.0121925 0.0243993 0.0122068 0.0122068 0.0122068 0.0122068 0.0121925 0.0121925 0.0122068 0.0122068 0.0122068 0.0122068 0.0121925 0.0121925 0.0122068 0.0122068 0.0122068 0.0122068 0.0243993 0.0121925 0.0122068 0.0122068 0.0243993 0.0122116 0.0488129 0.0121925 0.183031 0 0.0366061 -0.0121925 0.0243993 -0.0122116 0.0122068 -0.0122068 0.0243993 -0.0121925 0.0122116 -0.0122068 0.0243993 -0.0122068 0.0122068 -0.0121925 0.0121925 -0.0122068 0.0122068 -0.0122068 0.0122068 -0.0121925 0.0121925 -0.0244137 0.0122068 -0.0243993 0.0122068 -0.0243993 0.0121925 -0.0366061 0.0122068 -0.0366061 0 -0.170838 -0.0122068 -0.0121925 -0.0121925 -0.0244137 -0.0122068 -0.0121925 -0.0122068 -0.0244137 -0.0121925 -0.0121925 -0.0122068 -0.0122068 -0.0122068 -0.0122068 -0.0121925 -0.0243993 -0.0244137 -0.0122068 -0.0121925 -0.0121925 -0.0122116 -0.0122068 -0.0243993 -0.0122068 -0.0122068 -0.0121925 -0.0243993 -0.0122068 -0.0366061 -0.0122068 -0.195237 0 -0.0366061 0.0122068z"/>
   <polygon id="_113523728" class="fil8" points="4.80764,1.07378 4.78323,1.08599 4.75883,1.09819 4.74662,1.11039 4.72222,1.12259 4.71002,1.1348 4.69782,1.14699 4.68562,1.17141 4.67341,1.1836 4.66122,1.1958 4.64901,1.20801 4.6368,1.23241 4.62461,1.26902 4.62461,1.43984 4.6368,1.47645 4.64901,1.50086 4.66122,1.53747 4.67341,1.54966 4.68562,1.56187 4.69782,1.57407 4.71002,1.58627 4.73443,1.59847 4.74662,1.61068 4.75883,1.62287 4.78323,1.63508 4.79544,1.64729 4.83204,1.65948 5.02728,1.65948 5.05168,1.64729 5.07608,1.63508 5.10049,1.62287 5.11268,1.61068 5.12489,1.59847 5.14929,1.58627 5.1615,1.57407 5.1737,1.56187 5.1859,1.53747 5.1981,1.52526 5.21031,1.50086 5.22251,1.47645 5.23471,1.43984 5.23471,1.28122 5.22251,1.24462 5.21031,1.2202 5.1981,1.1958 5.1859,1.17141 5.1737,1.1592 5.1615,1.14699 5.14929,1.1348 5.12489,1.12259 5.11268,1.11039 5.10049,1.09819 5.07608,1.08599 5.05168,1.07378 5.01507,1.06159 4.84425,1.06159 "/>
   <polygon id="_116314192" class="fil9" points="1.59847,1.62287 1.57407,1.63508 1.54967,1.64729 1.53747,1.65948 1.51307,1.67168 1.50086,1.69609 1.48865,1.7083 1.47646,1.7205 1.46425,1.73269 1.45205,1.75711 1.43986,1.7693 1.42765,1.79371 1.41544,1.83032 1.41544,2.00114 1.42765,2.03775 1.43986,2.06215 1.45205,2.07436 1.46425,2.09876 1.47646,2.11096 1.48865,2.13536 1.50086,2.14757 1.52526,2.15978 1.53747,2.17197 1.54967,2.18417 1.57407,2.19638 1.59847,2.20857 1.63508,2.22078 1.80592,2.22078 1.83032,2.20857 1.86693,2.19638 1.87913,2.18417 1.90353,2.17197 1.91574,2.15978 1.94014,2.14757 1.95235,2.13536 1.96454,2.11096 1.97674,2.09876 1.98895,2.07436 2.00114,2.04996 2.01335,2.02554 2.02556,1.98894 2.02556,1.84251 2.01335,1.80591 2.00114,1.78151 1.98895,1.75711 1.97674,1.73269 1.96454,1.7205 1.95235,1.7083 1.94014,1.6839 1.92793,1.67168 1.90353,1.65948 1.87913,1.64729 1.86693,1.63508 1.84253,1.63508 1.84253,1.61068 1.63508,1.61068 "/>
   <path id="_116544912" class="fil10" d="M0.170824 1.53747l-0.0121925 0.0121925 -0.0244137 0.0122068 -0.0121925 0.0122068 -0.0244137 0.0121925 -0.0121925 0.0122068 -0.0122068 0.0122068 -0.0122068 0.0121925 0 0.0244137 -0.0243993 0 -0.0122068 0.0243993 -0.0121925 0.0122116 -0.0122068 0.0487986 0 0.146424 0.0122068 0.0366061 0.0121925 0.0122068 0.0122068 0.0366061 0.0122068 0.0488129 0.0121925 0.0366061 0.0122068 0.0732122 0.0122068 0.0121925 0.0243993 0.0122068 0.0122068 0 0 -0.0243993 0 -0.0122068 0.0243993 -0.0122068 0.0122068 -0.0121925 0.0243993 -0.0122068 0.0122068 -0.0122068 0.0487986 0 0.0976259 0 0.0487986 0c0.141872,-0.0949883 0.102657,-0.0265487 0.207449,-0.183031l0 -0.158617 0 -0.0244137 -0.0122068 -0.0244041 -0.0122068 -0.0122068 -0.0121925 -0.0243993 -0.0122068 -0.0122068 -0.0122068 -0.0121925 -0.0121925 -0.0122068 -0.0244137 -0.0122068 -0.0121925 -0.0121925 -0.0244137 -0.0122068 -0.0366109 -0.0122068 -0.0121925 -0.0121925 -0.0122068 -0.0122068 -0.195237 0 -0.0366061 0.0122068z"/>
   <path id="_116544816" class="fil11" d="M3.91688 2.03775c0,0.0381475 0.072116,0.0610054 0.121867,0.0611059l0.0245573 0.0487124c-0.0148875,0.00835809 -0.0130589,0.0122068 -0.0366061,0.0122068l-0.0122068 0c-0.0542893,0 -0.00534707,-0.0345573 -0.0976115,-0.0366061 0.00432265,0.0518814 0.0305649,0.0732122 0.0854191,0.0732122l0.0243993 0c0.0411155,0 0.0854191,-0.021575 0.0854191,-0.0610198l0 -0.0243993c0,-0.0656153 -0.0980759,-0.0360748 -0.134232,-0.0854191 0.0061082,-0.0108521 0.00795598,-0.0243993 0.0244137,-0.0243993 0.0447919,0 0.0589709,0.0189086 0.0854047,0.0366061 0.000201054,-0.000229776 0.0122068,-0.0227574 0.0122068,-0.0243993 0,-0.0375156 -0.0357445,-0.0488129 -0.0732122,-0.0488129l-0.0243993 0c-0.0492916,0 -0.0854191,0.026563 -0.0854191,0.0732122z"/>
   <path id="_116317168" class="fil12" d="M0.59791 1.7205l0 0.158617c-0.104792,0.156482 -0.065577,0.0880423 -0.207449,0.183031l-0.0487986 0 0 0.0488129 0.0121925 0.0243993 0.0122068 0.0122068 0.0122068 0.0122068 0.0121925 0.0121925 0.0122068 0.0122068 0.0243993 0.0122068 0.0122116 0.0121925 0.0243993 0.0122068 0.0366061 0.0122068 0.0366061 0.0121925 0.134232 0 0.0610054 0 0.0243993 0.0122068 0.0122068 0.0122068 0.0122068 0.0121925 0.0243993 0 0 0.0244137 0.0243993 0 0 -0.0366061 -0.0121925 -0.0366061 0 -0.0488129 0.0121925 -0.0122068 0.0122068 -0.0121925 0.0122068 -0.0244137 0.0121925 -0.0121925 0.0122068 -0.0244137 0.0122068 -0.0121925 0.0121925 -0.0366061 0 -0.122025 -0.0121925 -0.0366061 -0.0122068 -0.0366061 -0.0122068 -0.0243993 -0.0121925 -0.0122068 -0.0122068 -0.0122068 -0.0122068 -0.0121925 -0.0121925 -0.0122068 -0.0122068 -0.0122068 -0.0122068 -0.0121925 -0.0243993 -0.0122068 -0.0243993 -0.0122068 -0.0366061 -0.0121925 -0.0610198 -0.0122068 -0.0366061 0 -0.0121925 0.0122068z"/>
   <path id="_116544720" class="fil13" d="M3.91688 2.03775c0,-0.0466492 0.0361274,-0.0732122 0.0854191,-0.0732122l0.0243993 0c0.0374678,0 0.0732122,0.0112973 0.0732122,0.0488129 0,0.00164194 -0.0120058,0.0241695 -0.0122068,0.0243993 -0.0264338,-0.0176975 -0.0406128,-0.0366061 -0.0854047,-0.0366061 -0.0164577,0 -0.0183055,0.0135472 -0.0244137,0.0243993 0.0361561,0.0493443 0.134232,0.0198038 0.134232,0.0854191l0 0.0243993c0,0.0394448 -0.0443036,0.0610198 -0.0854191,0.0610198l-0.0243993 0c-0.0548541,0 -0.0810964,-0.0213308 -0.0854191,-0.0732122 0.0922645,0.00204883 0.0433223,0.0366061 0.0976115,0.0366061l0.0122068 0c0.0235472,0 0.0217186,-0.00384874 0.0366061,-0.0122068l-0.0245573 -0.0487124c-0.0497512,-0.000100527 -0.121867,-0.0229584 -0.121867,-0.0611059zm-0.0243993 -0.146424c-0.102154,0.0436669 -0.0840261,0.20844 -0.0346195,0.290848 0.0385353,0.0642749 0.206942,0.128224 0.295558,0.0923794 0.0940835,-0.038047 0.0755052,-0.223529 0.0273864,-0.293299 -0.0481523,-0.06978 -0.192849,-0.130742 -0.288325,-0.0899284z"/>
   <polygon id="_116544624" class="fil14" points="0.463678,2.23299 0.463678,2.22078 0.451485,2.22078 0.451485,2.23299 "/>
   <path id="_116317096" class="fil11" d="M3.89248 1.89133c0.0954765,-0.0408139 0.240173,0.0201484 0.288325,0.0899284 0.0481188,0.0697704 0.0666971,0.255252 -0.0273864,0.293299 -0.0886168,0.035845 -0.257023,-0.0281044 -0.295558,-0.0923794 -0.0494065,-0.0824081 -0.0675349,-0.247181 0.0346195,-0.290848zm0 -0.158631l-0.0244137 0.0122068 -0.0243993 0.0122068 -0.0122116 0.0121925 -0.0121925 0.0122068 -0.0244137 0.0122068 -0.0121925 0.0121925 -0.0122068 0.0122068 -0.0122068 0.0122068 -0.0121925 0.0243993 -0.0122068 0.0122068 -0.0122068 0.0121925 -0.0121925 0.0122068 -0.0122068 0.0243993 -0.0122068 0.0244137 0 0.195223 0.0122068 0.0366061 0.0122068 0.0244137 0.0121925 0.0243993 0.0122068 0.0243993 0.0122068 0.0122068 0.0121925 0.0243993 0.0122068 0.0122068 0.0122068 0.0122068 0.0121925 0.0121925 0.0244137 0.0122068 0.0121925 0.0122068 0.0122116 0.0121925 0.0243993 0.0122116 0.0244137 0.0122068 0.0366061 0.0121925 0.195223 0 0.0366061 -0.0121925 0.0244137 -0.0122068 0.0243993 -0.0122116 0.0122068 -0.0121925 0.0243993 -0.0122068 0.0122068 -0.0122068 0.0121925 -0.0121925 0.0122068 -0.0122068 0.0122068 -0.0122068 0.0121925 -0.0121925 0.0122068 -0.0244137 0.0122068 -0.0121925 0.0121925 -0.0244137 0.0122068 -0.0243993 0.0122068 -0.0366061 0 -0.183031 -0.0122068 -0.0366061 -0.0122068 -0.0366061 -0.0121925 -0.0122068 -0.0122068 -0.0243993 -0.0122068 -0.0122068 -0.0121925 -0.0121925 -0.0122068 -0.0122068 -0.0122068 -0.0122068 -0.0121925 -0.0121925 -0.0122068 -0.0122068 -0.0243993 -0.0122068 -0.0122068 -0.0121925 -0.0243993 -0.0122068 -0.0244137 -0.0122068 -0.0243993 -0.0121925 -0.219637 0 -0.0243993 0.0121925z"/>
   <polygon id="_116544528" class="fil15" points="3.23357,2.55024 3.24576,2.55024 3.24576,2.51363 3.23357,2.51363 "/>
   <path id="_116544432" class="fil15" d="M4.07552 2.9407l0 0.0488129c0,0.0760988 0.153342,0.219642 0.20743,0.219642l0.0854191 0c0.0253232,0 0.0610054,-0.0357014 0.0610054,-0.0488129 0,-0.0507182 -0.0556727,-0.0610054 -0.109818,-0.0610054 -0.0043801,0.0183007 -0.00268072,0.0366061 -0.0243993,0.0366061 -0.0605171,0 -0.111791,-0.06742 -0.134232,-0.109823 0.00683104,-0.00982769 0.0244137,-0.0301197 0.0244137,-0.0366061 0,-0.0356104 -0.0164146,-0.0632649 -0.0244137,-0.0976115l-0.0366061 0c-0.028564,0 -0.0487986,0.0202346 -0.0487986,0.0487986z"/>
   <path id="_116317216" class="fil16" d="M2.74533 3.23347c0.0168167,0.0249881 0.0855627,0.112528 0.0855627,0.146511l0 0.475884c0,0.028114 -0.00848734,0.0366061 -0.0366061,0.0366061l-0.0366061 0 0 0.109818c0,0.0329584 -0.00583534,0.0336525 -0.0122068,0.0610198l-0.0366061 0c-0.0281188,0 -0.0366061,-0.00848734 -0.0366061,-0.0366061l0 -0.134232 -0.109818 0 0 0.122025c0,0.028564 -0.020249,0.0488129 -0.0488129,0.0488129 -0.0285688,0 -0.0488034,-0.020249 -0.0488034,-0.0488129l-0.000502634 -0.118914 -0.0849164 -0.015304 0 -0.122025c-0.0220202,0.0147391 -0.0214409,0.0243993 -0.0488129,0.0243993l-0.0121925 0c-0.028564,0 -0.0488129,-0.0202346 -0.0488129,-0.0487986l0 -0.280661c0,-0.028564 0.020249,-0.0487986 0.0488129,-0.0487986 0.0329489,0 0.0336382,0.00582098 0.0610054,0.0121925 0.00242222,-0.108377 0.0447057,-0.110034 0.0858547,-0.170939l-0.00742462 -0.0641936 0.0196027 0.0426186 0.109402 -0.0149163c0.0474439,-0.00712304 0.085735,0.0122068 0.140326,0.00609384l0.0366061 -0.0366061 0.0103208 0.00875062 -0.028765 0.0460748zm-0.670978 1.45215l1.06158 0 0 -2.07437 -1.06158 0 0 2.07437z"/>
   <polygon id="_116544336" class="fil17" points="0.634516,2.73327 0.610102,2.74548 0.585703,2.75767 0.573496,2.76988 0.549097,2.78208 0.53689,2.80648 0.524697,2.81869 0.51249,2.83088 0.500284,2.84309 0.488091,2.8553 0.475884,2.8797 0.463678,2.9041 0.451485,2.92851 0.451485,3.13594 0.463678,3.16034 0.475884,3.18476 0.488091,3.20916 0.500284,3.22136 0.51249,3.23356 0.524697,3.24576 0.53689,3.25797 0.549097,3.27016 0.561303,3.28237 0.573496,3.29457 0.59791,3.30677 0.610102,3.31897 0.634516,3.33118 0.658915,3.34337 0.854152,3.34337 0.890759,3.33118 0.915158,3.31897 0.927365,3.30677 0.951764,3.29457 0.963971,3.28237 0.98837,3.27016 1.00058,3.24576 1.01277,3.23356 1.02498,3.22136 1.03718,3.19695 1.04938,3.18476 1.06158,3.16034 1.07379,3.12374 1.07379,2.9407 1.06158,2.9041 1.04938,2.8797 1.03718,2.8553 1.02498,2.83088 1.00058,2.81869 0.98837,2.80648 0.976163,2.79428 0.963971,2.78208 0.951764,2.76988 0.939557,2.75767 0.927365,2.74548 0.915158,2.73327 0.866345,2.72106 0.671122,2.72106 "/>
   <path id="_116544264" class="fil18" d="M4.07552 2.9407c0,-0.028564 0.0202346,-0.0487986 0.0487986,-0.0487986l0.0366061 0c0.00799906,0.0343467 0.0244137,0.0620011 0.0244137,0.0976115 0,0.00648637 -0.0175826,0.0267784 -0.0244137,0.0366061 0.0224414,0.0424032 0.0737149,0.109823 0.134232,0.109823 0.0217186,0 0.0200192,-0.0183055 0.0243993,-0.0366061 0.0541457,0 0.109818,0.0102872 0.109818,0.0610054 0,0.0131116 -0.0356822,0.0488129 -0.0610054,0.0488129l-0.0854191 0c-0.0540882,0 -0.20743,-0.143543 -0.20743,-0.219642l0 -0.0488129zm0.0732122 -0.219637l-0.0366061 0.0122068 -0.0244137 0.0122068 0 0.0243993 -0.0243993 0 -0.0122068 0.0122068 -0.0243993 0.0121925 -0.0122068 0.0122068 0 0.0243993 -0.0243993 0 -0.0122068 0.0244137 -0.0121925 0.0366061 -0.0122068 0.0243993 0 0.219642 0.0122068 0.0243993 0.0121925 0.0366061 0.0122068 0.0244137 0.0243993 0 0 0.0243993 0.0122068 0.0122068 0.0122068 0.0121925 0.0243993 0.0122068 0.0122068 0.0122068 0.0121925 0.0121925 0.0244137 0.0122068 0.0243993 0.0122068 0.0122068 0.0121925 0.231829 0 0.0244137 -0.0121925 0.0243993 -0.0122068 0.0243993 -0.0122068 0.0122068 -0.0121925 0.0122068 -0.0122068 0.0243993 -0.0122068 0.0122068 -0.0121925 0.0121973 -0.0122068 0.0122068 -0.0243993 0.0122068 -0.0122068 0.0121925 -0.0122068 0.0122068 -0.0366061 0.0122068 -0.0243993 0 -0.207435 -0.0122068 -0.0366061 -0.0122068 -0.0366061 -0.0121925 -0.0122068 -0.0122068 -0.0122068 -0.0122068 -0.0243993 -0.0121973 -0.0122068 -0.0244137 -0.0121925 -0.0121925 -0.0122068 -0.0122068 -0.0122068 -0.0122068 -0.0121925 -0.0243993 -0.0122068 -0.0243993 -0.0122068 -0.0366061 -0.0121925 -0.195237 0 -0.0243993 0.0121925z"/>
   <path id="_116317048" class="fil13" d="M2.7741 3.18739l-0.0103208 -0.00875062 -0.0366061 0.0366061c-0.0545908,0.00611299 -0.092882,-0.0132169 -0.140326,-0.00609384l-0.109402 0.0149163 -0.0196027 -0.0426186 0.00742462 0.0641936c-0.041149,0.0609049 -0.0834325,0.0625612 -0.0858547,0.170939 -0.0273672,-0.00637149 -0.0280566,-0.0121925 -0.0610054,-0.0121925 -0.028564,0 -0.0488129,0.0202346 -0.0488129,0.0487986l0 0.280661c0,0.028564 0.020249,0.0487986 0.0488129,0.0487986l0.0121925 0c0.027372,0 0.0267928,-0.00966015 0.0488129,-0.0243993l0 0.122025 0.0849164 0.015304 0.000502634 0.118914c0,0.028564 0.0202346,0.0488129 0.0488034,0.0488129 0.028564,0 0.0488129,-0.020249 0.0488129,-0.0488129l0 -0.122025 0.109818 0 0 0.134232c0,0.0281188 0.00848734,0.0366061 0.0366061,0.0366061l0.0366061 0c0.00637149,-0.0273672 0.0122068,-0.0280613 0.0122068,-0.0610198l0 -0.109818 0.0366061 0c0.0281188,0 0.0366061,-0.00849212 0.0366061,-0.0366061l0 -0.475884c0,-0.0339829 -0.068746,-0.121523 -0.0855627,-0.146511l0.028765 -0.0460748z"/>
   <path id="_116544168" class="fil19" d="M2.07436 2.61125l1.06158 0 0 2.07437 -1.06158 0 0 -2.07437zm-0.0854047 -0.0487986l0 2.00114c0.0440547,0.0918336 -0.0341408,0.317248 0.195223,0.317248l0.866359 0c0.0961276,0 0.158622,-0.100781 0.158622,-0.20743l0 -2.09877c0,-0.104084 -0.10966,-0.170824 -0.219642,-0.170824l-0.793133 0c-0.155103,0 -0.158775,0.122973 -0.20743,0.158631z"/>
   <path id="_116544072" class="fil15" d="M2.09877 2.40382l-0.0244137 0.0122068 -0.0121925 0.0121925 -0.0122068 0.0122068 -0.0122068 0.0122068 -0.0121925 0.0121925 -0.0122068 0.0122068 -0.0122068 0.0243993 -0.0121925 0.0122068 0 0.0488129c0.048655,-0.0356583 0.0523266,-0.158631 0.20743,-0.158631l0.793133 0c0.109981,0 0.219642,0.0667402 0.219642,0.170824l0 2.09877c0,0.106649 -0.0624942,0.20743 -0.158622,0.20743l-0.866359 0c-0.229364,0 -0.151168,-0.225415 -0.195223,-0.317248l-0.0244137 0 -0.280647 0.0122068 -0.195237 0.0121925 -0.158617 0.0122068 -0.146424 0.0122068 -0.12203 0.0121925 -0.0976115 0.0122068 -0.0976259 0.0122068 -0.0854047 0.0121925 -0.0854191 0.0122068 -0.0610054 0.0122068 -0.0732122 0.0121925 -0.0488129 0.0122068 -0.0610054 0.0122068 -0.0366109 0.0121925 -0.0488129 0.0122068 -0.0366061 0.0122068 -0.0366061 0.0121925 -0.0243993 0.0122068 -0.0244137 0.0122068 -0.0243993 0.0121925 -0.0243993 0.0122068 -0.0122068 0.0122068 -0.0122068 0.0121925 0 0.0854191 0.0122068 0.0122068 0.0122068 0.0121925 0.0243993 0.0122068 0.0243993 0.0122068 0.0244137 0.0121925 0.0243993 0.0122068 0.0366061 0.0122068 0.0366061 0.0121925 0.0488129 0.0122068 0.0366109 0.0122068 0.0610054 0.0121925 0.0488129 0.0122068 0.0732122 0.0122068 0.0610054 0.0121973 0.0854191 0.0122068 0.0854047 0.0122068 0.0976259 0.0121925 0.0976115 0.0122068 0.12203 0.0122068 0.146424 0.0121925 0.158617 0.0122068 0.195237 0.0122068 0.280647 0.0121925 1.34224 0 0.280642 -0.0121925 0.195237 -0.0122068 0.158622 -0.0122068 0.146424 -0.0121925 0.122025 -0.0122068 0.0976115 -0.0122068 0.0976259 -0.0121925 0.0854047 -0.0122068 0.0854239 -0.0122068 0.0610054 -0.0121973 0.0732122 -0.0122068 0.0488129 -0.0122068 0.0610054 -0.0121925 0.0366061 -0.0122068 0.0488129 -0.0122068 0.0366061 -0.0121925 0.0366061 -0.0122068 0.0243993 -0.0122068 0.0244137 -0.0121925 0.0243993 -0.0122068 0.0243993 -0.0122068 0.0122068 -0.0121925 0.0122068 -0.0122068 0 -0.0854191 -0.0122068 -0.0121925 -0.0122068 -0.0122068 -0.0243993 -0.0122068 -0.0243993 -0.0121925 -0.0244137 -0.0122068 -0.0243993 -0.0122068 -0.0366061 -0.0121925 -0.0366061 -0.0122068 -0.0488129 -0.0122068 -0.0366061 -0.0121925 -0.0610054 -0.0122068 -0.0488129 -0.0122068 -0.0732122 -0.0121925 -0.0610054 -0.0122068 -0.0854239 -0.0122068 -0.0854047 -0.0121925 -0.0976259 -0.0122068 -0.0976115 -0.0122068 -0.122025 -0.0121925 -0.146424 -0.0122068 -0.158622 -0.0122068 -0.195237 -0.0121925 -0.280642 -0.0122068 -0.0732122 0 0 -1.98895 -0.0122068 -0.0487986 -0.0122068 -0.0244137 -0.0121925 -0.0243993 -0.0122068 -0.0122068 -0.0122068 -0.0121925 -0.0121925 -0.0122068 -0.0122116 -0.0122068 -0.0122068 -0.0121925 -0.0243993 -0.0122068 -0.0366061 -0.0122068 -0.951764 0 -0.0243993 0.0122068z"/>
   <rect id="_114324776" class="fil20" x="2.07436" y="2.57464" width="1.06158" height="2.11098"/>
   <path id="_114325136" class="fil21 str0" d="M2.37705 3.53521l0.478819 0 0 0.440307c0,0.0316085 -0.0258593,0.0574583 -0.0574583,0.0574583l-0.363878 0c-0.0316133,0 -0.0574822,-0.0258498 -0.0574822,-0.057463l0 -0.440303z"/>
   <path id="_116543880" class="fil21 str0" d="M2.47159 4.02458l0.0866637 0 0 0.1745c0,0.013619 -0.0122834,0.0247679 -0.0273002,0.0247679l-0.0319867 0c-0.0150647,0 -0.0273768,-0.0111824 -0.0273768,-0.0248445l0 -0.174424z"/>
   <path id="_116541840" class="fil21 str0" d="M2.67104 4.02647l0.0866589 0 0 0.174491c0,0.0136286 -0.0122738,0.0247631 -0.0273098,0.0247631l-0.0319723 0c-0.0150647,0 -0.0273768,-0.0111728 -0.0273768,-0.0248301l0 -0.174424z"/>
   <rect id="_114325352" class="fil21 str0" x="2.24781" y="3.49772" width="0.0920453" height="0.418196" rx="0.0239302" ry="0.0239302"/>
   <rect id="_116542536" class="fil21 str0" x="2.89823" y="3.4956" width="0.0920453" height="0.418196" rx="0.0239302" ry="0.0239302"/>
   <path id="_116543208" class="fil21 str0" d="M2.61539 3.24412c0.134356,0 0.243313,0.112312 0.243313,0.250805l-0.486626 0c0,-0.138492 0.108957,-0.250805 0.243313,-0.250805z"/>
   <rect id="_113522576" class="fil21 str0" transform="matrix(1.09988 -0.647227 0.647227 1.09988 2.41944 3.24257)" width="0.0142174" height="0.0586981"/>
   <rect id="_114465392" class="fil21 str0" transform="matrix(-1.09988 -0.647227 -0.647227 1.09988 2.7999 3.23349)" width="0.0142174" height="0.0586981"/>
   <ellipse id="_81029736" class="fil20 str1" cx="2.51303" cy="3.34763" rx="0.0202821" ry="0.0223103"/>
   <ellipse id="_114465728" class="fil20 str1" cx="2.69151" cy="3.34763" rx="0.0202821" ry="0.0223103"/>
   <polygon id="_113147720" class="fil22 str2" points="1.65987,0.876517 1.65987,1.03147 1.76588,0.95242 "/>
   <path id="_114465272" class="fil23" d="M1.62695 1.83673l0.0393922 0 0 -0.0202585c0,-0.0224989 0.00241743,-0.0393969 0.00724272,-0.0505171 0.00482529,-0.0111202 0.013619,-0.0201724 0.0264625,-0.0271566 0.0129345,-0.00697943 0.0292246,-0.0104309 0.04888,-0.0104309 0.0202585,0 0.0400001,0.00302059 0.059397,0.0090522l-0.0095692 0.0495693c-0.0112925,-0.00275731 -0.0221542,-0.00405458 -0.032585,-0.00405458 -0.0103447,0 -0.0176736,0.00233126 -0.0221542,0.00715655 -0.00448541,0.00483007 -0.00663956,0.0140546 -0.00663956,0.0276736l0 0.0189661 0.0530159 0 0 0.0557732 -0.0530159 0 0 0.212408 -0.0710342 0 0 -0.212408 -0.0393922 0 0 -0.0557732z"/>
   <path id="_1144652721" class="fil24 str0" d="M1.62695 1.83673l0.0393922 0 0 -0.0202585c0,-0.0224989 0.00241743,-0.0393969 0.00724272,-0.0505171 0.00482529,-0.0111202 0.013619,-0.0201724 0.0264625,-0.0271566 0.0129345,-0.00697943 0.0292246,-0.0104309 0.04888,-0.0104309 0.0202585,0 0.0400001,0.00302059 0.059397,0.0090522l-0.0095692 0.0495693c-0.0112925,-0.00275731 -0.0221542,-0.00405458 -0.032585,-0.00405458 -0.0103447,0 -0.0176736,0.00233126 -0.0221542,0.00715655 -0.00448541,0.00483007 -0.00663956,0.0140546 -0.00663956,0.0276736l0 0.0189661 0.0530159 0 0 0.0557732 -0.0530159 0 0 0.212408 -0.0710342 0 0 -0.212408 -0.0393922 0 0 -0.0557732z"/>
   <circle id="_114466016" class="fil25 str3" cx="0.622306" cy="0.640603" r="0.320842"/>
   <rect id="_113703352" class="fil21 str0" x="0.473367" y="0.485567" width="0.316761" height="0.304567" rx="0.0477311" ry="0.0477311"/>
   <rect id="_116542968" class="fil26 str0" x="0.492097" y="0.607153" width="0.280456" height="0.162913" rx="0.0477311" ry="0.0477311"/>
   <circle id="_113703136" class="fil26 str4" cx="0.63494" cy="0.637854" r="0.058867"/>
   <rect id="_113147792" class="fil26 str5" x="0.696458" y="0.520871" width="0.0538575" height="0.0496056"/>
   <path id="_114465440" class="fil23" d="M2.48322 0.243605l0 -0.045352 0.0569269 0 0 0.045352 -0.0569269 0zm0 0.210288l0 -0.18517 0.0569269 0 0 0.18517 -0.0569269 0z"/>
   <path id="_1144654401" class="fil23" d="M2.79426 0.453893l-0.0569221 0 0 -0.0945191c0,-0.02 -0.0012494,-0.0329154 -0.00366684,-0.0388081 -0.00242222,-0.00583056 -0.0064385,-0.0104165 -0.0119005,-0.0136908 -0.00546196,-0.00321207 -0.0120297,-0.00487794 -0.0197128,-0.00487794 -0.00988992,0 -0.0187411,0.00232169 -0.0265582,0.00696507 -0.00781237,0.00470083 -0.0132121,0.010833 -0.016113,0.0185113 -0.0029057,0.00767833 -0.00436095,0.021843 -0.00436095,0.0425564l0 0.0838633 -0.0569269 0 0 -0.18517 0.0528484 0 0 0.0272045c0.0188129,-0.0209527 0.0424654,-0.0314266 0.0709624,-0.0314266 0.012518,0 0.0240738,0.00196267 0.0344472,0.00583056 0.0103734,0.00393012 0.0182624,0.00887029 0.0235855,0.0149402 0.00532313,0.0060699 0.00906177,0.0129153 0.0111345,0.0205936 0.00214457,0.00767833 0.00318335,0.018631 0.00318335,0.0329154l0 0.115113z"/>
   <path id="_11446544012" class="fil24 str0" d="M2.48322 0.243605l0 -0.045352 0.0569269 0 0 0.045352 -0.0569269 0zm0 0.210288l0 -0.18517 0.0569269 0 0 0.18517 -0.0569269 0z"/>
   <path id="_114465440123" class="fil24 str0" d="M2.79426 0.453893l-0.0569221 0 0 -0.0945191c0,-0.02 -0.0012494,-0.0329154 -0.00366684,-0.0388081 -0.00242222,-0.00583056 -0.0064385,-0.0104165 -0.0119005,-0.0136908 -0.00546196,-0.00321207 -0.0120297,-0.00487794 -0.0197128,-0.00487794 -0.00988992,0 -0.0187411,0.00232169 -0.0265582,0.00696507 -0.00781237,0.00470083 -0.0132121,0.010833 -0.016113,0.0185113 -0.0029057,0.00767833 -0.00436095,0.021843 -0.00436095,0.0425564l0 0.0838633 -0.0569269 0 0 -0.18517 0.0528484 0 0 0.0272045c0.0188129,-0.0209527 0.0424654,-0.0314266 0.0709624,-0.0314266 0.012518,0 0.0240738,0.00196267 0.0344472,0.00583056 0.0103734,0.00393012 0.0182624,0.00887029 0.0235855,0.0149402 0.00532313,0.0060699 0.00906177,0.0129153 0.0111345,0.0205936 0.00214457,0.00767833 0.00318335,0.018631 0.00318335,0.0329154l0 0.115113z"/>
   <path id="_116543856" class="fil23" d="M5.00676 1.2708l0 0.0565487 -0.0484444 0 0 0.1081c0,0.0218957 0.000430829,0.034653 0.00137865,0.0382768 0.000947824,0.00361897 0.0030158,0.0065486 0.00629011,0.00896603 0.00327909,0.00232648 0.00732888,0.0035328 0.0119818,0.0035328 0.00663956,0 0.0161226,-0.00232648 0.0286214,-0.00681189l0.0060364 0.0550025c-0.0165534,0.0070656 -0.0351748,0.0106032 -0.0561227,0.0106032 -0.0127573,0 -0.0243083,-0.00215893 -0.0345669,-0.00638106 -0.0102585,-0.00430829 -0.0177597,-0.00991386 -0.022585,-0.0167257 -0.00482529,-0.0068071 -0.00810438,-0.0160316 -0.01,-0.0276688 -0.00146482,-0.00819054 -0.00224031,-0.0249163 -0.00224031,-0.0500001l0 -0.116894 -0.032585 0 0 -0.0565487 0.032585 0 0 -0.0533606 0.0712065 -0.0413788 0 0.0947393 0.0484444 0z"/>
   <polygon id="_114465512" class="fil21 str0" points="0.535784,2.89563 0.732175,2.89563 0.732175,2.92836 0.674262,2.93088 0.757355,3.02404 0.822817,2.96613 0.764909,2.96613 0.762391,2.93088 0.941156,2.93088 0.941156,2.97116 0.86814,2.97116 0.777498,3.05677 0.780016,3.12475 0.845478,3.12475 0.84296,3.17007 0.63398,3.17007 0.631462,3.12475 0.706996,3.12727 0.704478,3.04922 0.58362,2.92836 0.523194,2.9334 "/>
   <polygon id="_82969544" class="fil21 str0" points="0.926264,3.12398 0.942989,2.99829 0.987954,2.99724 0.942989,3.12294 "/>
   <rect id="_113148464" class="fil21 str0" x="0.925218" y="3.13969" width="0.0167266" height="0.0188526"/>
   <path id="_114464960" class="fil27 str4" d="M4.27393 2.96474c0.0337483,-0.00309718 0.0687125,0.0107612 0.0849308,0.0533223"/>
   <path id="_113522240" class="fil27 str4" d="M4.04738 0.748939c0.042226,-0.0312686 0.0990476,-0.042743 0.153078,-0.00376258"/>
   <path id="_113523104" class="fil27 str4" d="M4.27631 2.90805c0.0503879,-0.00145525 0.104136,0.0194065 0.132346,0.0764435"/>
   <path id="_114465680" class="fil27 str4" d="M4.01402 0.680121c0.0610485,-0.039756 0.143069,-0.0545238 0.220843,-0.00542366"/>
   <path id="_114465656" class="fil27 str4" d="M4.27176 2.85067c0.0694066,-0.00149833 0.143677,0.0275396 0.183102,0.105764"/>
   <path id="_82969064" class="fil27 str4" d="M3.96517 0.612768c0.0844904,-0.0541409 0.197971,-0.0742845 0.305549,-0.007506"/>
   <circle id="_116542224" class="fil21 str0" cx="4.12508" cy="0.815811" r="0.0369049"/>
   <polygon id="_114466184" class="fil28 str6" points="2.83028,1.22712 2.80859,1.25081 2.79582,1.27155 2.78641,1.2964 2.78303,1.31407 2.78315,1.56541 2.8797,1.53747 2.89741,1.54742 2.93578,1.56088 2.97732,1.56187 3.00618,1.55959 3.03262,1.55337 3.05634,1.54415 3.0799,1.53113 3.10483,1.51218 3.12213,1.49488 3.13938,1.47259 3.15141,1.45217 3.1599,1.43323 3.1673,1.4097 3.17217,1.37817 3.17176,1.3506 3.1655,1.31779 3.15553,1.2901 3.14178,1.26366 3.12264,1.23667 3.10296,1.21573 3.0851,1.20099 3.0626,1.18703 3.04508,1.17932 3.0212,1.17301 2.99562,1.17141 2.97472,1.17181 2.94716,1.17471 2.91184,1.18276 2.88316,1.19341 2.86073,1.20495 "/>
   <path id="_116547360" class="fil21 str0" d="M2.88624 1.29888l0.0153854 -0.0274534c0.00435616,-0.00335568 0.00871711,-0.00671136 0.0130781,-0.0100718 0.0186501,0.000995694 0.0349115,0.0257061 0.0392246,0.0485114l-0.0261513 0.02472 0 0.016472 0.0430733 0.0476018 0.0153806 0.0137243 0.0123026 0 0.0207708 -0.0274534c0.00640499,0.00152226 0.0120201,-0.00833894 0.0192293,-0.00112016 0.0106175,-0.0036812 0.0167257,0.0143897 0.0278842,0.0230877 0.00204883,0.00884157 0.00808523,0.0186358 0.000569652,0.0265439 -0.00908571,0.0189325 -0.0213739,0.0246051 -0.0392198,0.0283773l-0.0330733 -0.00274773c-0.0404453,-0.0246578 -0.0761132,-0.0569125 -0.104605,-0.105271 -0.00685976,-0.015462 -0.0105362,-0.0356631 -0.00384874,-0.0549211z"/>
   <ellipse id="_116543088" class="fil21 str0" cx="0.161576" cy="1.78075" rx="0.0390646" ry="0.0405153"/>
   <ellipse id="_116543376" class="fil21 str0" cx="0.306452" cy="1.77809" rx="0.0390646" ry="0.0405153"/>
   <ellipse id="_116543904" class="fil21 str0" cx="0.449997" cy="1.77664" rx="0.0390646" ry="0.0405153"/>
  </g>
 </g>
</svg>
