<?xml version="1.0" encoding="UTF-8"?>
<!DOCTYPE svg PUBLIC "-//W3C//DTD SVG 1.1//EN" "http://www.w3.org/Graphics/SVG/1.1/DTD/svg11.dtd">
<!-- Creator: CorelDRAW -->
<svg xmlns="http://www.w3.org/2000/svg" xml:space="preserve" width="4.76083in" height="5.60865in" style="shape-rendering:geometricPrecision; text-rendering:geometricPrecision; image-rendering:optimizeQuality; fill-rule:evenodd; clip-rule:evenodd"
viewBox="0 0 5.80347 6.83696"
 xmlns:xlink="http://www.w3.org/1999/xlink">
 <defs>
  <style type="text/css">
   <![CDATA[
    .str1 {stroke:#1F1A17;stroke-width:0.00365701}
    .str2 {stroke:#DA251D;stroke-width:0.00365701}
    .str0 {stroke:#1F1A17;stroke-width:0.0169317}
    .str3 {stroke:#DA251D;stroke-width:0.0169317}
    .fil8 {fill:none}
    .fil9 {fill:#1F1A17}
    .fil10 {fill:#DA251D}
    .fil3 {fill:#03DAAC}
    .fil7 {fill:#151E1D}
    .fil1 {fill:#444847}
    .fil2 {fill:#9DF7E2}
    .fil4 {fill:#E8C99B}
    .fil0 {fill:#EBE6E1}
    .fil5 {fill:#FB2D3F}
    .fil6 {fill:#FEFEFD}
   ]]>
  </style>
 </defs>
 <g id="Layer_x0020_1">
  <metadata id="CorelCorpID_0Corel-Layer"/>
  <g id="_114012352">
   <g>
    <path id="_113212912" class="fil0" d="M2.17829 0.445195l0 0.0318045c0,0.0224604 0.0331578,0.0476995 0.0556518,0.0476995 0.022494,0 0.0556518,-0.0252391 0.0556518,-0.0476995l0 -0.0318045c0,-0.0185346 -0.0212126,-0.0397472 -0.039752,-0.0397472l-0.0317997 0c-0.0185394,0 -0.039752,0.0212126 -0.039752,0.0397472z"/>
    <path id="_113213536" class="fil1" d="M0.405448 0.111299l-0.0476995 0.00795232 -0.0158998 0.00794752 -0.0238473 0.00795232 -0.0238521 0.00794752 -0.00795232 0.00795232 -0.0158998 0.00794752 -0.015895 0.00795232 -0.0159046 0.00794752 -0.00794752 0.00795232 -0.00795232 0.00794752 -0.015895 0.00795232 0 0.0158998 -0.0159046 0 0 0.0158998 -0.0158998 0 -0.00794752 0.00794752 -0.00795232 0.0158998 -0.00794752 0.00795232 -0.00795232 0.00794752 -0.00794752 0.0158998 -0.00795232 0.00795232 -0.00794752 0.0158998 -0.00795232 0.0158998 -0.00794752 0.00794752 -0.00795232 0.0238521 -0.00794752 0.0158998 -0.00795232 0.0397472 -0.00794752 0.0636041 0 0.0397472 0.00794752 0.0476995 0.00795232 0.039752 0.00794752 0.00794752 0.00795232 0.0317997 0.00794752 0.00795232 0.00795232 0.0238473 0.00794752 0.00795232 0.00795232 0.0158998 0.00794752 0.0158998 0.00795232 0.00794752 0.00794752 0.0158998 0.00795232 0.00795232 0.00794752 0.0158998 0.0158998 0 0 0.0158998 0.00795232 0.00794752 0.00795232 0.00795232 0.00794752 0.00794752 0.00794752 0.00795232 0.00795232 0.00794752 0.00794752 0.0158998 0.0159046 0.00795232 0.00794752 0.00794752 0.00794752 0.00795232 0.0158998 0.00795232 0.00795232 0.00794752 0.0158998 0.00794752 0.00795232 0.00795232 0.00794752 0.00794752 0.0158998 0.00795232 0.00795232 0.00795232 0.0158998 0.00794752 0.00794752 0.00794752 0.0158998 0.00795232 0.0158998 0c0.0375107,-0.013577 0.0389505,-0.108295 0.0556518,-0.143098 -0.0632058,0 -0.127203,-0.0368197 -0.127203,-0.095399 0,-0.0384514 0.0225804,-0.0715516 0.0636041,-0.0715516l0.00794752 0c0.0288817,0 0.0278835,0.00943048 0.0556518,0.0158998l0 -0.0238473c0,-0.0514861 -0.143098,-0.0330379 -0.143098,-0.190798l0 -0.0159046c0,-0.0505214 0.0568852,-0.0953654 0.0950006,-0.111692 0.0374052,-0.0160246 0.140411,0.000393536 0.199144,0.000393536 0.0905998,0 0.0984657,-0.033657 0.147509,-0.0449591l0.027394 0.0290593 0 -0.0158998 -0.00795232 -0.00794752 -0.00795232 -0.0158998 -0.00794752 -0.0158998 -0.0158998 0 0 -0.0158998 -0.00794752 -0.0158998 -0.00795232 -0.00795232 -0.00795232 -0.00794752 -0.00794752 -0.00795232 -0.0158998 -0.00794752 -0.00795232 -0.00795232 -0.0158998 -0.00794752 -0.00794752 -0.00795232 -0.00795232 -0.00794752 -0.0238473 -0.00795232 -0.0158998 -0.00794752 -0.0476995 -0.00795232 -0.039752 -0.00794752 -0.095399 0 -0.0317997 0.00794752z"/>
    <path id="_82452472" class="fil1" d="M2.21804 0.405448l0.0317997 0c0.0185394,0 0.039752,0.0212126 0.039752,0.0397472l0 0.0318045c0,0.0224604 -0.0331578,0.0476995 -0.0556518,0.0476995 -0.022494,0 -0.0556518,-0.0252391 -0.0556518,-0.0476995l0 -0.0318045c0,-0.0185346 0.0212126,-0.0397472 0.039752,-0.0397472zm-0.787044 -0.397496l-0.0238521 0.00794752 -0.0238473 0.00794752 -0.0158998 0.00795232 -0.0238521 0.00795232 -0.0238473 0.00794752 -0.00795232 0.00795232 -0.0158998 0.00794752 -0.00794752 0.00795232 -0.0158998 0.00794752 -0.0159046 0.00795232 -0.00794752 0.00794752 -0.00795232 0.00795232 -0.00794752 0.00794752 -0.00794752 0.00795232 -0.00795232 0.00794752 -0.00795232 0.00795232 -0.0158998 0.00794752 0 0.0158998 -0.0158998 0 -0.00794752 0.0158998 -0.00795232 0.00795232 -0.00794752 0.00794752 -0.00795232 0.0158998 -0.00794752 0.00795232 -0.00795232 0.0158998 -0.00794752 0.00794752 -0.00795232 0.0158998 -0.00794752 0.0158998 -0.00795232 0.0158998 -0.00794752 0.0238521 -0.00795232 0.0158998 -0.00794752 0.0317997 -0.00795232 0.0238521 -0.00794752 0.0635945 -0.00795232 0.564451 0 0.0158998 -0.0397472 0 0.055647 0.015895 0 0.850648 0 0.0158998 0.159003 -0.0238473 0 -0.635998 0 -0.4293 3.09253 0 0 0.4293 0 1.85234 0.158998 0.0238521 0 -0.628051 -0.00135338 -0.406672 0.0252055 -0.0305711 -0.00795232 -0.0635993 -0.00794752 -1.55819 -0.00795232 -0.055647 -0.00794752 -0.0318045 -0.00795232 -0.0238473 -0.00794752 -0.0317997 -0.00795232 -0.00795232 -0.00794752 -0.0238473 -0.00795232 -0.00795232 -0.00794752 -0.0158998 -0.00795232 -0.00794752 -0.00794752 -0.0158998 -0.00795232 -0.0158998 -0.00794752 -0.00795232 -0.00795232 -0.0158998 -0.0158998 0 0 -0.0158998 -0.00794752 -0.00794752 -0.00795232 -0.00795232 -0.00794752 -0.00794752 -0.00795232 -0.00795232 -0.00794752 -0.00794752 -0.0159046 0 0 -0.0158998 -0.015895 -0.00795232 -0.00795232 -0.00794752 -0.0158998 -0.00795232 -0.0158998 -0.00794752 -0.00795232 -0.00795232 -0.015895 -0.00794752 -0.00795232 -0.00795232 -0.0238521 -0.00794752 -0.0238473 -0.00795232 -0.0158998 -0.00795232 -0.0317997 -0.00794752 -0.0238521 -0.00794752 -0.0635993 -0.00795232 -2.53604 0 -0.0715468 0.00795232z"/>
    <path id="_82452448" class="fil2" d="M4.07833 1.14479c0.0178291,-0.00415133 0.0182754,-0.00794752 0.0397472,-0.00794752l0.0458326 -0.000158374 0.00981921 -0.134993 -0.095399 0 0 0.143098z"/>
    <path id="_82451920" class="fil2" d="M3.61723 1.10505c0,0.0214717 0.00379619,0.0219181 0.00795232,0.0397472l0.0874467 0 0 -0.151051 -0.095399 0 0 0.111304z"/>
    <polygon id="_82451584" class="fil2" points="3.95113,1.13685 4.03858,1.13685 4.03858,1.00169 3.95113,1.00169 "/>
    <polygon id="_113215720" class="fil2" points="3.74443,1.14479 3.83983,1.14479 3.83983,1.00169 3.74443,1.00169 "/>
    <polygon id="_113201776" class="fil2" points="3.38668,0.977847 3.36379,0.977986 3.35488,1.04939 3.35503,1.1511 3.48208,1.16069 3.48208,0.985794 3.45028,0.985794 3.45028,0.961947 3.38668,0.961947 "/>
    <path id="_113201704" class="fil3" d="M3.38668 0.961947l0.0635993 0 0 0.0238473 0.0317997 0 0 0.174898 -0.127055 -0.00958885 -0.000143977 -0.10171 0.00890256 -0.0714077 0.0228971 -0.000139178 0 -0.0158998zm0.357749 0.0397472l0.095399 0 0 0.143098 -0.095399 0 0 -0.143098zm0.206698 0l0.0874467 0 0 0.135151 -0.0874467 0 0 -0.135151zm-0.333901 -0.00795232l0.095399 0 0 0.151051 -0.0874467 0c-0.00415613,-0.0178291 -0.00795232,-0.0182754 -0.00795232,-0.0397472l0 -0.111304zm0.4611 0.00795232l0.095399 0 -0.00981921 0.134993 -0.0458326 0.000158374c-0.0214717,0 -0.0219181,0.00379619 -0.0397472,0.00794752l0 -0.143098zm-2.85403 0.24645l3.09253 0 0 -0.4293 -3.09253 0 0 0.4293z"/>
    <path id="_115061368" class="fil4" d="M0.405448 0.938095l-0.00794752 0.0794992 -0.00795232 0.0715516 -0.00795232 0.0317997 -0.00794752 0.0317997 0 0.00794752 0.00794752 0.0158998 -0.015895 0 0 0.0158998 -0.0158998 0 -0.00795232 0.00795232 -0.00795232 0.00794752 -0.00794752 0.00795232 -0.00794752 0.00794752 -0.0158998 0.00795232 0 0.0158998 0.0397472 -0.0238521c0.0453719,0.0240105 0.137613,0.0556518 0.206698,0.0556518l0.0794992 0c0.135708,0 0.187952,-0.155696 0.21465,-0.270297l-0.0476995 -0.00795232 -0.040587 -0.0043625 0.0246872 -0.00358982 0.0476995 -0.00794752 0.0158998 -0.00794752 0.0317997 -0.00795232 0.00795232 -0.00794752 0.0238473 -0.00795232 0.00795232 -0.00795232 0.00794752 -0.00794752 0.0158998 -0.00795232 0.00795232 -0.00794752 0.00794752 -0.00794752 0.00795232 -0.00795232 0.00794752 -0.0238521 0.00795232 -0.0794992 0 -0.0476995 -0.00795232 -0.055647 -0.00794752 -0.0238521 -0.00795232 -0.0317997 -0.00794752 -0.0238473 -0.00795232 -0.0317997 -0.00794752 -0.0317997 -0.00795232 -0.00795232 -0.00794752 -0.0317997 -0.00795232 -0.0158998 -0.00794752 -0.0238473 -0.00795232 -0.0159046 -0.00794752 -0.0158998 -0.00795232 -0.0238473 -0.00795232 -0.00795232 -0.00794752 -0.0158998 -0.00794752 -0.015895 -0.00795232 -0.0159046 -0.00794752 -0.0158998 -0.00795232 -0.00794752 -0.00795232 -0.0158998 -0.00794752 -0.0158998 -0.00794752 -0.0158998 -0.00795232 -0.00795232 -0.00794752 0 -0.027394 -0.0290593c-0.0490433,0.0113022 -0.0569092,0.0449591 -0.147509,0.0449591 -0.0587329,0 -0.161739,-0.0164181 -0.199144,-0.000393536 -0.0381154,0.016327 -0.0950006,0.0611709 -0.0950006,0.111692l0 0.0159046c0,0.15776 0.143098,0.139312 0.143098,0.190798l0 0.0238473c-0.0277683,-0.00646935 -0.0267701,-0.0158998 -0.0556518,-0.0158998l-0.00794752 0c-0.0410238,0 -0.0636041,0.0331003 -0.0636041,0.0715516 0,0.0585793 0.0639977,0.095399 0.127203,0.095399 -0.0167013,0.034804 -0.0181411,0.129521 -0.0556518,0.143098z"/>
    <path id="_114014920" class="fil2" d="M1.47074 1.84439l0.598065 -0.119102 0.00613341 -0.103495 -0.111299 -0.0158998 -0.254397 0c-0.158019,0 -0.238502,0.0812893 -0.238502,0.238497z"/>
    <path id="_114007480" class="fil5" d="M0.302102 1.24814l-0.0159046 0 -0.00794752 0.00794752 -0.00795232 0.00795232 -0.015895 0.00794752 -0.00795232 0.00795232 -0.00795232 0.00794752 -0.00794752 0.00795232 -0.0158998 0.00794752 0 0.0158998 -0.0158998 0 -0.00795232 0.00795232 -0.00794752 0.00794752 -0.00795232 0.00795232 -0.00794752 0.00794752 -0.00795232 0.00795232 -0.0158998 0.00794752 -0.00794752 0.00795232 -0.00795232 0.00794752 -0.00794752 0.00795232 -0.00795232 0.0158998 -0.00794752 0.00794752 -0.00795232 0.00795232 -0.00794752 0.00794752 -0.00795232 0.00795232 -0.00794752 0.0158998 -0.00795232 0.00795232 -0.00794752 0.015895 -0.00795232 0.00795232 -0.00794752 0.0158998 -0.00795232 0.0158998 -0.00794752 0.0158998 -0.00795232 0.0238521 -0.00794752 0.0158998 -0.00795232 0.0317997 0 0.151046 0.00795232 0.0238521 0.00794752 0.00794752 0.00795232 0.0158998 0.00794752 0.0158998 0.00795232 0.0158998 0.00794752 0.0158998 0.00795232 0.00795232 0.00794752 0.00794752 0.00795232 0.00795232 0.00794752 0.0158998 0.0158998 0 0 0.0158998 0.0158998 0.00794752 0.00795232 0.0159046 0.0158998 0 0 0.0158998 0.0158998 0.00794752 0.00794752 0.00794752 0.00795232 0.00795232 0.0158998 0.00795232 0.00794752 0.00794752 0.00795232 0.00795232 0.00795232 0.00794752 0.015895 0.00794752 0.00795232 0.00795232 0.0158998 0.00795232 0.00795232 0.00794752 0.00794752 0.00795232 0.0158998 0.00794752 0.00794752 0.00795232 0.0159046 0.00794752 0.00794752 0.00795232 0.00795232 0.00794752 0.00794752 0.0158998 0.0158998 0 0 0.0158998 0.00795232 0.0158998 0.00794752 0.00795232 0.00795232 0.0158998 0.00794752 0.00794752 0.00794752 0.0158998 0.00795232 0.0158998 0.00795232 0.0158998 0.00794752 0.0158998 0.00795232 0.00795232 0.00794752 0.0158998 0.00795232 0.0158998 0.00794752 0.00794752 0.00795232 0.0158998 0.00794752 0.0158998 0.00795232 0.0158998 0.00794752 0.00795232 0.00795232 0.0158998 0.00794752 0.0158998 0.00795232 0.00795232 0.00794752 0.015895 0.00795232 0.00795232 0.00794752 0.0158998 0.00795232 0.00795232 0.00794752 0.015895 0.00795232 0.00795232 0.00794752 0.0158998 0.00795232 0.0158998 0.00794752 0.00795232 0.00795232 0.015895 0.0158998 0 0 0.0159046 0.00794752 0.0158998 0.00795232 0.00794752 0.00794752 0.0158998 0.00795232 0.00795232 0.00794752 0.00794752 0.00795232 0.00795232 0.00794752 0.0158998 0.00795232 0.0158998 0.00794752 0.00794752 0.00795232 0.00795232 0.00794752 0.00794752 0.00795232 0.0158998 0.00794752 0.00795232 0.00795232 0.00794752 0.00794752 0.0238521 0.0158998 0 0 0.0158998 0.00795232 0.00794752 0.00795232 0.00795232 0.00794752 0.00794752 0.00794752 0.0158998 0.00795232 0.00795232 0.00794752 0.00794752 0.00795232 0.0158998 0.0158998 0 0 0.0158998 0.00795232 0.00795232 0.00794752 0.0158998 0.00794752 0.00794752 0.00795232 0.00795232 0.00795232 0.00794752 0.00794752 0.00795232 0.00795232 0.00795232 0.00794752 0.015895 0.00794752 0.00795232 0.00795232 0.00794752 0.00795232 0.00795232 0.00794752 0.0158998 0.0158998 0 0 0.0158998 0.00795232 0.00794752 0.00794752 0.00795232 0.00795232 0.00795232 0.00794752 0.0158998 0.00795232 0.00794752 0.00794752 0.00794752 0.00795232 0.00795232 0.00794752 0.00795232 0.00795232 0.00794752 0.00794752 0.0158998 0.00795232 0.00795232 0.00794752 0.00794752 0.00795232 0.00795232 0.00794752 0 0.0476995 0.0397472 0 -0.826796c-0.0335898,0.00782754 -0.0575091,0.0238521 -0.095399,0.0238521l-0.0158998 0c-0.0917036,0 -0.242625,-0.0672659 -0.316893,-0.0965076 -0.0724011,-0.0285074 -0.233506,-0.111707 -0.295253,-0.12609 0.0161302,-0.0692336 0.199206,-0.262076 0.254397,-0.310049 0.0349432,0.0184866 0.306762,0.184588 0.318174,0.183988l0.150873 -0.0249896 0 -0.0158998 0 -0.850648 -0.055647 -0.015895 -0.0158998 -0.00795232 -0.0476995 -0.00794752 -0.103351 0c-0.0266981,0.114601 -0.0789424,0.270297 -0.21465,0.270297l-0.0794992 0c-0.0690848,0 -0.161326,-0.0316413 -0.206698,-0.0556518l-0.0397472 0.0238521z"/>
    <polygon id="_115062016" class="fil2" points="2.34524,1.85234 2.34524,1.99544 3.70468,1.99544 3.70468,1.7966 2.34524,1.80464 2.41799,1.81153 2.41883,1.82744 "/>
    <path id="_114008320" class="fil4" d="M2.07494 1.62179l-0.00613341 0.103495 -0.598065 0.119102 -0.246445 0.039752 -0.159003 0.0238473 -0.150873 0.0249896c-0.0114126,0.000599903 -0.283231,-0.165501 -0.318174,-0.183988 -0.0551911,0.047973 -0.238267,0.240815 -0.254397,0.310049 0.0617468,0.0143833 0.222852,0.0975826 0.295253,0.12609 0.074268,0.0292417 0.225189,0.0965076 0.316893,0.0965076l0.0158998 0c0.0378899,0 0.0618092,-0.0160246 0.095399,-0.0238521l0.159003 -0.055647 0.246445 -0.0874515 0.731397 -0.254397 0.143098 -0.00795232 0.0735961 -0.0248936 -0.000839864 -0.0159094 -0.0727562 -0.00689649 -0.0397472 0c0.0422284,-0.0293425 0.114759,-0.0175892 0.119246,-0.0715468l-0.0559158 -0.00176611 -0.0712829 0.00971363c0.0300191,-0.0260886 0.0915932,-0.0275284 0.103351,-0.0715468 -0.00969923,-0.00544712 -0.00850423,-0.00795232 -0.0238521,-0.00795232l-0.00794752 0c-0.0630522,0 -0.0973235,0.0272356 -0.152903,0.0376019l0.127439 -0.109744 -0.0108414 -0.0170133 -0.186296 0.0891552c0.00207326,-0.0248648 0.00795232,-0.0282434 0.00795232,-0.055647l0 -0.079504c0,-0.0130107 -0.00476083,-0.0238473 -0.0158998,-0.0238473 -0.0408222,0 -0.0455686,0.0908349 -0.0635993,0.119251z"/>
    <path id="_114010096" class="fil2" d="M1.47074 2.11469c0,0.120955 0.0615357,0.24645 0.166951,0.24645l0.397496 0c0.0760389,0 0.154281,-0.101 0.165597,-0.168304 0.0112542,-0.0669492 0.00135338,-0.253164 0.00135338,-0.332543l-0.731397 0.254397z"/>
    <path id="_115061704" class="fil5" d="M4.59508 1.98749l-0.0158998 0 -0.00795232 0.00795232 -0.00794752 0.00794752 -0.00795232 0.00794752 -0.0158998 0.00795232 -0.00794752 0.00795232 -0.0158998 0.00794752 -0.00795232 0.00795232 -0.00794752 0.00794752 0 0.00795232 -0.0252055 0.0305711 0.00135338 0.406672c0.0951974,-0.0254167 0.113794,-0.0874467 0.278249,-0.0874467l0.0397472 0.00795232c0.0668388,0 0.0664165,-0.0018573 0.0715516,-0.0636041l-0.095399 0c-0.0996079,0 -0.166951,-0.0586897 -0.166951,-0.158998l0 -0.0317997c0,-0.0672515 0.0385618,-0.145335 0.0393584,-0.199413l-0.047306 0.0245144z"/>
    <path id="_114008992" class="fil4" d="M4.69842 1.79669l-0.00794752 0 -0.00795232 0.0317997 -0.00794752 0.0238473 -0.00794752 0.0238521 -0.00795232 0.0158998 -0.00795232 0.0238473 -0.00794752 0.00795232 -0.00795232 0.00795232 -0.00794752 0.0158998 -0.00795232 0.00794752 -0.00794752 0.00794752 -0.00795232 0.00795232 -0.00794752 0.00795232 0 0.00794752 0.047306 -0.0245144c-0.000796671,0.0540777 -0.0393584,0.132161 -0.0393584,0.199413l0 0.0317997c0,0.100309 0.0673427,0.158998 0.166951,0.158998l0.095399 0c-0.00513517,0.0617468 -0.00471284,0.0636041 -0.0715516,0.0636041 0,0.140253 0.0274564,0.238497 0.166951,0.238497l0.0558486 0.0018285 0.10315 -0.00978082c-0.0506846,-0.0352167 -0.0466389,-0.0105679 -0.105463,-0.0694304 -0.0229835,-0.0229979 -0.0535353,-0.0798687 -0.0535353,-0.121368 0,-0.0793936 0.044316,-0.168107 0.0715516,-0.222598 0.0144217,-0.0288529 0.0241017,-0.0724635 0.0600191,-0.0830794 0.0374531,-0.0110718 0.0989792,-0.00692528 0.0989792,-0.0520716l0 -0.00794752c0,-0.0178243 -0.00629178,-0.0174548 -0.0160054,-0.0333306l-0.084308 0.00831706 0.0287618 -0.10219c-0.0336858,-0.0702031 -0.0215149,-0.193903 -0.0806942,-0.22935 -0.040803,-0.0244425 -0.0773875,-0.0220908 -0.126829,-0.0321692 -0.0599999,-0.0122332 -0.0642664,-0.030859 -0.109053,-0.0602303l-0.104772 0.186603 0 -0.0317997z"/>
    <path id="_114008368" class="fil5" d="M4.86537 1.35149l-0.0317997 0.00795232 -0.0238473 0.00794752 -0.00795232 0.00795232 -0.0238473 0.00794752 -0.00795232 0.00795232 -0.0158998 0.00795232 -0.00795232 0.00794752 -0.00794752 0.00794752 -0.00795232 0.0477043 0 0.0794992 0.00795232 0.0238473 0.00794752 0.00795232 0.00795232 0.0238473 0 0.0158998 -0.00795232 0.0158998 -0.00794752 0.0158998 -0.00795232 0.0238521 -0.00794752 0.0238473 -0.00794752 0.0158998 -0.00795232 0.0317997 -0.00795232 0.0158998 0 0.039752 0 0.0317997 0.104772 -0.186603c0.0447864,0.0293713 0.0490529,0.047997 0.109053,0.0602303 0.0494416,0.0100784 0.0860261,0.00772675 0.126829,0.0321692 0.0591792,0.0354471 0.0470084,0.159147 0.0806942,0.22935l-0.0287618 0.10219 0.084308 -0.00831706c0.00971363,0.0158758 0.0160054,0.0155063 0.0160054,0.0333306l0 0.00794752c0,0.0451463 -0.0615261,0.0409998 -0.0989792,0.0520716 -0.0359174,0.0106159 -0.0455974,0.0542264 -0.0600191,0.0830794 -0.0272356,0.0544904 -0.0715516,0.143204 -0.0715516,0.222598 0,0.0414989 0.0305519,0.0983697 0.0535353,0.121368 0.0588241,0.0588625 0.0547783,0.0342137 0.105463,0.0694304l0.103351 0.00795232 0.0635993 0c0.00782754,0.0335898 0.0238521,0.0575091 0.0238521,0.095399l0 0.0476995c0,0.0989072 -0.0407982,0.168923 -0.088133,0.22302l0.00862901 0.0154775 0.0636041 0 0.0397472 -0.00794752 0.0635993 -0.00795232 0.0158998 -0.00794752 0.039752 -0.00795232 0.0238473 -0.00794752 0.0317997 -0.00795232 0.0238521 -0.00795232 0.0158998 -0.00794752 0.0238473 -0.00794752 0.00795232 -0.00795232 0.0238473 -0.00794752 0.0158998 -0.00795232 0.0158998 -0.00795232 0.0158998 -0.00794752 0.00795232 -0.00795232 0.0158998 -0.00794752 0.00795232 -0.00794752 0.015895 -0.00795232 0.00795232 -0.00795232 0.00794752 -0.00794752 0.0159046 -0.00795232 0.00794752 -0.00794752 0.00795232 -0.00794752 0.00794752 -0.00795232 0.00794752 -0.0158998 0.00795232 -0.00795232 0.00795232 -0.0238473 0.00794752 -0.00795232 0.00795232 -0.0317997 0.00794752 -0.055647 0 -0.119251 -0.00794752 -0.055647 -0.00795232 -0.0476995 -0.00794752 -0.0158998 -0.00795232 -0.0318045 -0.00795232 -0.015895 -0.00794752 -0.0238521 -0.00794752 -0.0158998 -0.00795232 -0.0158998 -0.00794752 -0.0158998 -0.00795232 -0.00795232 -0.00795232 -0.0158998 -0.00794752 -0.0158998 -0.00795232 -0.0158998 -0.00794752 -0.00794752 -0.00794752 -0.00795232 -0.00795232 -0.0158998 -0.00795232 -0.00794752 -0.00794752 -0.0158998 -0.00795232 -0.00795232 -0.00794752 -0.0158998 -0.00795232 -0.00794752 -0.00794752 -0.00795232 -0.00795232 -0.0158998 -0.00794752 -0.00794752 -0.00795232 -0.0158998 -0.00794752 -0.00795232 -0.00795232 -0.0158998 -0.00794752 -0.00794752 -0.00795232 -0.00795232 -0.00794752 -0.0158998 -0.00795232 -0.00794752 -0.00794752 -0.0158998 -0.00795232 -0.00795232 -0.00794752 -0.00794752 -0.00795232 -0.0158998 -0.00794752 -0.00795232 -0.00795232 -0.0158998 -0.00794752 -0.0158998 -0.00795232 -0.0158998 -0.00794752 -0.00794752 -0.00795232 -0.00795232 -0.00794752 -0.0158998 -0.00795232 -0.0158998 -0.00794752 -0.0158998 -0.00795232 -0.0158998 -0.00794752 -0.0238473 -0.00795232 -0.039752 -0.00794752 -0.0238521 -0.00795232 -0.0317997 -0.00794752 -0.0158998 -0.00795232 -0.0158998 -0.00794752 -0.00794752 -0.00795232 -0.0158998 -0.00794752 -0.00795232 -0.00795232 -0.00794752 -0.00794752 -0.00795232 -0.00795232 -0.00794752 -0.00794752 -0.00795232 -0.00795232 -0.00794752 -0.0158998 -0.00795232 -0.00794752 -0.00794752 -0.0158998 -0.00795232 -0.00795232 -0.00794752 -0.00795232 -0.00795232 -0.015895 -0.00794752 -0.00795232 -0.00795232 -0.0158998 -0.00794752 -0.0158998 -0.00795232 -0.00795232 -0.00794752 -0.00794752 -0.00795232 -0.00794752 -0.00794752 -0.0159046 0 0 -0.0158998 -0.0158998 -0.00795232 -0.00794752 -0.00794752 -0.00794752 -0.00795232 -0.00795232 -0.0158998 -0.00795232 -0.00795232 -0.00794752 -0.00794752 -0.00795232 -0.00794752 -0.00794752 -0.0158998 -0.00795232 -0.00795232 -0.00794752 -0.00795232 -0.00795232 -0.00794752 -0.00794752 -0.0158998 -0.00795232 -0.00794752 -0.00794752 -0.00795232 -0.00795232 -0.0158998 -0.00794752 -0.00795232 -0.00795232 -0.00794752 -0.00794752 -0.00794752 -0.00795232 -0.00795232 -0.00794752 -0.0238521 -0.0238521 -0.00794752 -0.0238473 -0.00795232 -0.0238521 -0.00794752 -0.055647 0 -0.0238521 0.00794752z"/>
    <path id="_115061608" class="fil2" d="M4.10218 3.25948c-0.0641944,-0.0308014 -0.156508,-0.0593712 -0.223697,-0.0863524 -0.0725307,-0.0291265 -0.23592,-0.00336906 -0.269198,-0.0487937l-0.0012094 -0.00900335 0.0727562 -0.00689649c-0.0366133,-0.0318285 -0.0664981,-0.00696367 -0.0794992,-0.0556518l0.0479682 -0.00176611 0.071782 0.00873459 -0.107863 -0.0547016 0.00401215 -0.00791392c0.00969923,-0.00545192 0.00850423,-0.00795232 0.0238521,-0.00795232l0.00794752 0c0.0485298,0 0.0858197,0.0283586 0.127424,0.0315453l-0.110061 -0.0956245 0.00923851 -0.0134954 0.156248 0.0696223 0 -0.103347c0,-0.0303935 -0.00244281,-0.00289393 0.00795232,-0.0238473 0.0439273,0.0117245 0.0623707,0.127741 0.0635417,0.183215l0.198803 0.0314301 0 -0.373648c-0.0188082,-0.0280851 -0.0333114,-0.0635993 -0.0794992,-0.0635993l-0.651893 0c-0.0439801,0 -0.079504,0.0458422 -0.079504,0.0874515l0 1.45484c0,0.0416045 0.0355239,0.0874467 0.079504,0.0874467l0.651893 0c0.126287,0 0.0794992,-0.332759 0.0794992,-0.461095 0,-0.180201 0,-0.360398 0,-0.540599z"/>
    <path id="_114007912" class="fil6" d="M4.48378 4.45992l0.00794752 0 0.00795232 -0.00794752 0.00794752 -0.00795232 0.00795232 -0.00795232 0.00794752 -0.015895 0.00795232 -0.00795232 0.00794752 -0.00794752 0.00795232 -0.00795232 0.00794752 -0.0158998 0.00795232 -0.00795232 0.00794752 -0.015895 0.00795232 -0.0159046 0.00794752 -0.00794752 0.00795232 -0.0158998 0.00794752 -0.00795232 0.00795232 -0.0158998 0.00794752 -0.0158998 0.00795232 -0.0158998 0.00794752 -0.0158998 0.00795232 -0.00794752 0.00794752 -0.0158998 0.00795232 -0.00795232 0.00795232 -0.0238473 0.00794752 -0.0158998 0.00794752 -0.0158998 0.00795232 -0.0158998 0.00794752 -0.0158998 0.00795232 -0.0158998 0.00795232 -0.0158998 0.00794752 -0.0238521 0.00794752 -0.0238473 0.00795232 -0.0158998 0.00794752 -0.0318045 0.00795232 -0.015895 0.00795232 -0.0318045 0.00794752 -0.0238473 0.00795232 -0.039752 0.00794752 -0.055647 0.00794752 -0.0476995 0 -0.18285 0 -0.0158998 0.00795232 -0.0635993 0.00795232 -0.0158998 0.00794752 -0.0317997 0.00795232 -0.00795232 0.00794752 -0.00794752 0.00795232 -0.0158998 0.00794752 -0.00794752 0.00795232 -0.0159046 0.00794752 -0.00794752 0.00795232 -0.00795232 0.00794752 -0.00794752 0.00795232 -0.00794752 0.00794752 -0.00795232 0.00795232 -0.0158998 0.00794752 -0.00795232 0.00795232 -0.00794752 0.00794752 -0.00794752 0.00795232 -0.00795232 0.00794752 -0.00795232 0.00795232 -0.00794752 0.00794752 -0.00795232 0.00795232 -0.00794752 0.00794752 -0.00795232 0.00795232 -0.00794752 0.00794752 -0.00795232 0.00795232 -0.00794752 0.00794752 -0.00795232 0.00795232 -0.00794752 0.00794752 -0.00795232 0.00795232 -0.00794752 0.0158998 -0.00795232 0 -0.0158998 0.0158998 0 0 -0.0158998 0.0158998 0 0.00794752 -0.00794752 0.00795232 -0.00795232 0.00794752 -0.00794752 0 -0.0158998 0.0158998 0 0 -0.0158998 0.0158998 0 0.00795232 -0.00795232 0 -0.0158998 0.0158998 0 0.00794752 -0.0158998 0.00795232 -0.00794752 0.00794752 -0.00795232 0.0159046 -0.00794752 0.00794752 -0.0158998 0.00794752 -0.00795232 0.0158998 -0.00794752 0 -0.00795232 -0.00862901 -0.0154775c0.0473348,-0.0540969 0.088133,-0.124113 0.088133,-0.22302l0 -0.0476995c0,-0.0378899 -0.0160246,-0.0618092 -0.0238521,-0.095399l-0.0635993 0 -0.103351 -0.00795232 -0.10315 0.00978082 -0.0558486 -0.0018285c-0.139494,0 -0.166951,-0.0982449 -0.166951,-0.238497l-0.0397472 -0.00795232c-0.0337961,0.0320588 -0.270297,0.273901 -0.270297,0.302097l-1.43977e-005 0.413516 0.206712 0.0237322c0.00785633,-0.0294144 0.185096,-0.180734 0.220601,-0.216647 0.038101,-0.0385474 0.196826,-0.196749 0.248446,-0.196749l0.00794752 0c0.0516301,0 0.079504,0.0510494 0.079504,0.103347l0 0.0317997c0,0.129622 -0.179203,0.261932 -0.256509,0.331794 -0.0581906,0.0525851 -0.263593,0.240604 -0.347689,0.240604 -0.0769412,0 -0.0998863,-0.0384322 -0.158998,-0.039752l0 1.04145 0 0.0158998z"/>
    <path id="_114011944" class="fil4" d="M4.47582 2.49628l0 0.628051 -0.158998 -0.0238521 -0.21465 -0.0317997 -0.198803 -0.0314301c-0.00117101,-0.0554742 -0.0196144,-0.171491 -0.0635417,-0.183215 -0.0103951,0.0209534 -0.00795232,-0.00654614 -0.00795232,0.0238473l0 0.103347 -0.156248 -0.0696223 -0.00923851 0.0134954 0.110061 0.0956245c-0.0416045,-0.00318669 -0.0788945,-0.0315453 -0.127424,-0.0315453l-0.00794752 0c-0.0153479,0 -0.0141529,0.0025004 -0.0238521,0.00795232l-0.00401215 0.00791392 0.107863 0.0547016 -0.071782 -0.00873459 -0.0479682 0.00176611c0.0130011,0.0486881 0.0428859,0.0238234 0.0794992,0.0556518l-0.0727562 0.00689649 0.0012094 0.00900335c0.0332778,0.0454247 0.196667,0.0196672 0.269198,0.0487937 0.0671891,0.0269812 0.159502,0.055551 0.223697,0.0863524l0.21465 0.079504 0.158787 0.055647 0.00816348 1.06529 0 -0.0158998 0 -1.04145c0.059112,0.00131979 0.0820571,0.039752 0.158998,0.039752 0.0840968,0 0.289499,-0.188019 0.347689,-0.240604 0.0773059,-0.0698623 0.256509,-0.202172 0.256509,-0.331794l0 -0.0317997c0,-0.0522971 -0.0278739,-0.103347 -0.079504,-0.103347l-0.00794752 0c-0.0516205,0 -0.210345,0.158202 -0.248446,0.196749 -0.0355047,0.0359126 -0.212745,0.187232 -0.220601,0.216647l-0.206712 -0.0237322 1.43977e-005 -0.413516c0,-0.0281954 0.236501,-0.270038 0.270297,-0.302097 -0.164455,0 -0.183052,0.06203 -0.278249,0.0874467z"/>
    <path id="_115061296" class="fil2" d="M2.37704 2.71889l0 1.45484c0,0.0416045 0.0355191,0.0874467 0.0794992,0.0874467l0.651898 0c0.0392913,0 0.0715468,-0.0322556 0.0715468,-0.0715468l0 -1.48664c0,-0.0392961 -0.0322556,-0.0715516 -0.0715468,-0.0715516l-0.651898 0c-0.0439801,0 -0.0794992,0.0458422 -0.0794992,0.0874515z"/>
    <path id="_114011320" class="fil2" d="M1.46279 2.71093l0 1.47074c0,0.0399727 0.0395264,0.0794992 0.0794992,0.0794992l0.651898 0c0.0392913,0 0.0715468,-0.0322556 0.0715468,-0.0715468l0 -1.48664c0,-0.0392961 -0.0322556,-0.0715516 -0.0715468,-0.0715516l-0.651898 0c-0.0399727,0 -0.0794992,0.0395312 -0.0794992,0.0794992z"/>
    <polygon id="_114009736" class="fil2" points="2.34524,4.95282 3.70468,4.95282 3.70468,4.74612 2.34524,4.74612 "/>
    <path id="_115060792" class="fil2" d="M1.47074 4.76997l0 0.325949c0,0.114111 0.0829354,0.222598 0.18285,0.222598l0.357749 0c0.105156,0 0.190798,-0.105401 0.190798,-0.21465l0 -0.317997c0,-0.112873 -0.0749015,-0.222598 -0.18285,-0.222598l-0.365696 0c-0.0978466,0 -0.18285,0.105535 -0.18285,0.206698z"/>
    <path id="_114007096" class="fil2" d="M1.46279 5.94657l0.802944 0c0,-0.106927 0.0374004,-0.325949 -0.0715468,-0.325949l-0.651898 0c-0.115992,0 -0.0794992,0.211627 -0.0794992,0.325949z"/>
    <path id="_114014488" class="fil6" d="M1.47074 4.76997c0,-0.101163 0.0850039,-0.206698 0.18285,-0.206698l0.365696 0c0.107949,0 0.18285,0.109725 0.18285,0.222598l0 0.317997c0,0.10925 -0.0856422,0.21465 -0.190798,0.21465l-0.357749 0c-0.0999151,0 -0.18285,-0.108486 -0.18285,-0.222598l0 -0.325949zm0.874495 -0.0238521l1.35944 0 0 0.206703 -1.35944 0 0 -0.206703zm-0.882443 -2.03519c0,-0.0399679 0.0395264,-0.0794992 0.0794992,-0.0794992l0.651898 0c0.0392913,0 0.0715468,0.0322556 0.0715468,0.0715516l0 1.48664c0,0.0392913 -0.0322556,0.0715468 -0.0715468,0.0715468l-0.651898 0c-0.0399727,0 -0.0794992,-0.0395264 -0.0794992,-0.0794992l0 -1.47074zm0.914243 0.00795232c0,-0.0416093 0.0355191,-0.0874515 0.0794992,-0.0874515l0.651898 0c0.0392913,0 0.0715468,0.0322556 0.0715468,0.0715516l0 1.48664c0,0.0392913 -0.0322556,0.0715468 -0.0715468,0.0715468l-0.651898 0c-0.0439801,0 -0.0794992,-0.0458422 -0.0794992,-0.0874467l0 -1.45484zm-1.15274 -0.834744l0.246445 -0.039752c0,-0.157208 0.080483,-0.238497 0.238502,-0.238497l0.254397 0 0.111299 0.0158998c0.0180307,-0.0284162 0.0227771,-0.119251 0.0635993,-0.119251 0.011139,0 0.0158998,0.0108366 0.0158998,0.0238473l0 0.079504c0,0.0274036 -0.00587905,0.0307822 -0.00795232,0.055647l0.186296 -0.0891552 0.0108414 0.0170133 -0.127439 0.109744c0.0555798,-0.0103663 0.0898511,-0.0376019 0.152903,-0.0376019l0.00794752 0c0.0153479,0 0.0141529,0.0025052 0.0238521,0.00795232 -0.0117581,0.0440185 -0.0733322,0.0454583 -0.103351,0.0715468l0.0712829 -0.00971363 0.0559158 0.00176611c-0.00448727,0.0539577 -0.077018,0.0422044 -0.119246,0.0715468l0.0397472 0 1.35944 -0.0080387 0 0.198841 -1.35944 0 0 -0.143103 -0.143098 0.00795232c0,0.0793792 0.0099008,0.265594 -0.00135338,0.332543 -0.0113166,0.0673043 -0.0895583,0.168304 -0.165597,0.168304l-0.397496 0c-0.105415,0 -0.166951,-0.125495 -0.166951,-0.24645l-0.246445 0.0874515 0 3.74443 0.238497 0c0,-0.114322 -0.0364933,-0.325949 0.0794992,-0.325949l0.651898 0c0.108947,0 0.0715468,0.219022 0.0715468,0.325949l0.111299 0c0,-0.113919 -0.035687,-0.325949 0.0794992,-0.325949l0.651898 0c0.108952,0 0.0715468,0.219022 0.0715468,0.325949l0.111299 0c0,-0.113617 -0.0348952,-0.325949 0.079504,-0.325949l0.651893 0c0.114399,0 0.0794992,0.212332 0.0794992,0.325949l0.21465 0 0 -2.60758 -0.21465 -0.079504c0,0.180201 0,0.360398 0,0.540599 0,0.128336 0.0467876,0.461095 -0.0794992,0.461095l-0.651893 0c-0.0439801,0 -0.079504,-0.0458422 -0.079504,-0.0874467l0 -1.45484c0,-0.0416093 0.0355239,-0.0874515 0.079504,-0.0874515l0.651893 0c0.0461877,0 0.060691,0.0355143 0.0794992,0.0635993l0 0.373648 0.21465 0.0317997 0 -1.85234 -3.09253 0 0 0.635998z"/>
    <path id="_115060720" class="fil2" d="M2.37704 5.94657l0.802944 0c0,-0.106927 0.0374052,-0.325949 -0.0715468,-0.325949l-0.651898 0c-0.115186,0 -0.0794992,0.21203 -0.0794992,0.325949z"/>
    <path id="_114008392" class="fil2" d="M3.29128 5.94657l0.810896 0c0,-0.113617 0.0349,-0.325949 -0.0794992,-0.325949l-0.651893 0c-0.114399,0 -0.079504,0.212332 -0.079504,0.325949z"/>
    <path id="_114007048" class="fil1" d="M2.52014 6.39177c0,-0.114932 0.106192,-0.24645 0.206703,-0.24645l0.0635993 0c0.11666,0 0.230545,0.114644 0.230545,0.222598l0 0.0158998c0,0.12226 -0.101513,0.254397 -0.206698,0.254397l-0.0556518 0c-0.130798,0 -0.238497,-0.116789 -0.238497,-0.246445zm-1.45484 -4.13398l0 0.826796 -0.0476995 -0.0397472 0 0.0158998 0.00795232 0.00794752 0.00794752 0.00795232 0.00795232 0.00794752 0.00794752 0.00795232 0.00795232 0.00794752 0 0.0476995 0 3.24358 0.00794752 0.0635993 0.00795232 0.0238473 0.00794752 0.0317997 0.00795232 0.0158998 0.00794752 0.0238521 0.00795232 0.00794752 0.00794752 0.0238521 0.00795232 0.0158998 0.00794752 0.00794752 0.00795232 0.0158998 0.00794752 0.00795232 0.00795232 0.00794752 0.00794752 0.0158998 0.00795232 0.00795232 0.00794752 0.0158998 0.00795232 0.00794752 0.00794752 0.00795232 0.00795232 0.00794752 0.00794752 0.00795232 0.0159046 0.00794752 0.00794752 0.00795232 0.00794752 0.00794752 0.00795232 0.00795232 0.0158998 0.00794752 0.00795232 0.00795232 0.00794752 0.00794752 0.0158998 0.00795232 0.0158998 0.00794752 0.0158998 0.00795232 0.0238473 0.00794752 0.00795232 0.00795232 0.0317997 0.00794752 0.0158998 0.00795232 0.039752 0.00795232 0.174898 0.00794752 0.0635993 0 0.635993 0 0.19875 0 1.59794 -0.00794752 0.0317997 -0.00795232 0.00795232 -0.00795232 0.0238521 -0.00794752 0.015895 -0.00795232 0.0158998 -0.00794752 0.0159046 -0.00795232 0.015895 -0.00794752 0.0158998 -0.00795232 0.00795232 -0.00794752 0.0158998 -0.00795232 0.00795232 -0.00794752 0.00794752 -0.00795232 0.00794752 -0.00794752 0.00795232 -0.00795232 0.0158998 -0.00794752 0 -0.0158998 0.0158998 0 0.00795232 -0.0158998 0.00794752 -0.00795232 0.00795232 -0.00794752 0.00794752 -0.00795232 0.00795232 -0.00794752 0.00794752 -0.00795232 0.00795232 -0.0158998 0.00794752 -0.00794752 0.00795232 -0.0158998 0.00794752 -0.0158998 0.00795232 -0.0158998 0.00794752 -0.0158998 0.00795232 -0.00795232 0.00794752 -0.0317997 0.00795232 -0.0317997 0.00794752 -0.00795232 0.00795232 -0.0715468 0.00794752 -1.83644 0.00795232 -0.079504 0 -0.015895 -0.00795232 -0.00795232 -0.00794752 0 -0.00816348 -1.06529 -0.158787 -0.055647 0 2.60758 -0.21465 0 -0.810896 0 -0.111299 0 -0.802944 0 -0.111299 0 -0.802944 0 -0.238497 0 0 -3.74443 -0.159003 0.055647z"/>
    <path id="_115060576" class="fil7" d="M2.52014 6.39177c0,0.129656 0.107699,0.246445 0.238497,0.246445l0.0556518 0c0.105185,0 0.206698,-0.132137 0.206698,-0.254397l0 -0.0158998c0,-0.107954 -0.113886,-0.222598 -0.230545,-0.222598l-0.0635993 0c-0.10051,0 -0.206703,0.131518 -0.206703,0.24645z"/>
   </g>
   <line id="_113211736" class="fil8 str0" x1="0.597129" y1="0.428427" x2="0.488633" y2= "0.499988" />
   <line id="_113193112" class="fil8 str0" x1="0.670999" y1="0.386875" x2="0.784112" y2= "0.326856" />
   <ellipse id="_113211520" class="fil9 str1" cx="0.592512" cy="0.521916" rx="0.016159" ry="0.0173108"/>
   <ellipse id="_113184664" class="fil9 str1" cx="0.777186" cy="0.430735" rx="0.016159" ry="0.0173108"/>
   <path id="_113201392" class="fil10 str2" d="M0.929744 0.660685c0.001219,0.00164133 0.00232762,0.00337865 0.00330187,0.00521676 0.0150984,0.0285458 -0.00713165,0.0699247 -0.0496384,0.0924043 -0.0425019,0.0224748 -0.0892128,0.0175604 -0.104311,-0.0109902 -0.000969443,-0.0018381 -0.00178051,-0.003729 -0.0024524,-0.00566788l0.1531 -0.0809629z"/>
   <line id="_113213560" class="fil8 str0" x1="4.71433" y1="1.80017" x2="4.81659" y2= "1.84581" />
   <line id="_113212504" class="fil8 str0" x1="4.91097" y1="1.87307" x2="5.02003" y2= "1.92131" />
   <ellipse id="_113213224" class="fil9 str1" cx="4.74319" cy="1.88356" rx="0.0178243" ry="0.0199216"/>
   <ellipse id="_59274896" class="fil9 str1" cx="4.92146" cy="1.95801" rx="0.0178243" ry="0.0199216"/>
   <polyline id="_113210680" class="fil8 str3" points="4.80611,1.95906 4.71592,2.05343 4.76626,2.08489 "/>
   <path id="_113184472" class="fil10 str2" d="M4.8044 2.16938c-0.0114318,0.0266021 -0.0547831,0.0335322 -0.0968148,0.0154727 -0.0420268,-0.0180547 -0.0668436,-0.0542696 -0.0554166,-0.0808717l0.152231 0.065399z"/>
   <polyline id="_113198104" class="fil8 str3" points="0.725705,0.486181 0.843037,0.572346 0.773371,0.623678 "/>
  </g>
 </g>
</svg>
