<?xml version="1.0" encoding="UTF-8"?>
<!DOCTYPE svg PUBLIC "-//W3C//DTD SVG 1.1//EN" "http://www.w3.org/Graphics/SVG/1.1/DTD/svg11.dtd">
<!-- Creator: CorelDRAW -->
<svg xmlns="http://www.w3.org/2000/svg" xml:space="preserve" width="7.6978in" height="8.04342in" style="shape-rendering:geometricPrecision; text-rendering:geometricPrecision; image-rendering:optimizeQuality; fill-rule:evenodd; clip-rule:evenodd"
viewBox="0 0 7.79786 8.14797"
 xmlns:xlink="http://www.w3.org/1999/xlink">
 <defs>
  <style type="text/css">
   <![CDATA[
    .fil0 {fill:#1A2B63}
    .fil9 {fill:#2E4C89}
    .fil11 {fill:#445EA0}
    .fil13 {fill:#5DC1D8}
    .fil14 {fill:#AAC0E7}
    .fil1 {fill:#B7092B}
    .fil12 {fill:#C3DCF2}
    .fil15 {fill:#D5E7F8}
    .fil5 {fill:#DB722C}
    .fil4 {fill:#EDF5FE}
    .fil6 {fill:#EF8319}
    .fil2 {fill:#EF9535}
    .fil10 {fill:#FE3745}
    .fil3 {fill:#FE9418}
    .fil7 {fill:#FEAD10}
    .fil17 {fill:#FEE2B8}
    .fil16 {fill:#FFC987}
    .fil8 {fill:#FFFEFD}
   ]]>
  </style>
 </defs>
 <g id="Layer_x0020_1">
  <metadata id="CorelCorpID_0Corel-Layer"/>
  <g id="_116976600">
   <path id="_116904224" class="fil0" d="M2.53033 0.286451l0 0.0318257c0,0.0383184 0.0571666,0.095485 0.095485,0.095485l0.938925 0c0.0742878,0 0.111394,-0.037106 0.111394,-0.111394 0,-0.0769799 -0.0503308,-0.127315 -0.127307,-0.127315l-0.9071 0c-0.0443246,0 -0.111398,0.0670732 -0.111398,0.111398z"/>
   <path id="_116904152" class="fil0" d="M2.14839 0.302368c0,0.0769719 0.0503348,0.127311 0.127315,0.127311l0.0318297 0c0.0383184,0 0.095477,-0.0571666 0.095477,-0.095485l0 -0.0477425c0,-0.0742918 -0.037106,-0.111398 -0.111394,-0.111398l-0.0477425 0c-0.0515672,0 -0.095485,0.0691551 -0.095485,0.127315z"/>
   <path id="_116899928" class="fil1" d="M7.12947 0.763868c0,-0.036452 0.00539601,-0.0184972 0.0159168,-0.0636554 0.0356902,-0.00831137 0.0365876,-0.0159128 0.0795682,-0.0159128l0.0477465 0c0.0372456,0 0.0636514,0.0264057 0.0636514,0.0636593l0 0.270538c0,0.0372456 -0.0264057,0.0636554 -0.0636514,0.0636554l-0.0318297 0c-0.048923,0 -0.0636554,-0.0466218 -0.0636554,-0.095485l0 -0.15914c-0.0285474,-0.0103374 -0.0477465,-0.0115498 -0.0477465,-0.0636593zm-0.0318297 -0.238709l-0.0318217 0.0159168 -0.0159168 0.0159128 -0.0318257 0.0159168 -0.0159128 0.0159089 -0.0159168 0.0159168 -0.0159128 0.0159128 -0.0159168 0.0159168 -0.0159089 0.0159128 -0.0159208 0.0318257 -0.0159089 0.0159128 -0.0159168 0.0318297 0 0.0477425c-0.00831137,0.0356942 -0.0159128,0.0365876 -0.0159128,0.0795682l0 0.0636593c0,0.153984 0.182782,0.334194 0.350106,0.334194l0.0477465 0c0.0878716,0 0.106433,-0.0317539 0.175053,-0.0477465l0.0159128 0 0.0318257 -0.0159089 0.0159168 -0.0159168 0.0159128 -0.0159128 0.0159128 -0.0159168 0.0159168 -0.0159089 0.0159089 -0.0318297 0.0159168 -0.0159128 0.0159128 -0.0318257 0.0159168 -0.0477465 0.0159128 -0.095485 0 -0.0477425 -0.0159128 -0.095485 -0.0159168 -0.0318257 -0.0159128 -0.0318297 -0.0159168 -0.0318217 -0.0159089 -0.0159168 -0.0159168 -0.0159128 -0.0159128 -0.0318297 -0.0318297 -0.0159168 -0.0159089 -0.0159089 -0.0159168 -0.0159168 -0.0318297 -0.0159128 -0.0318297 -0.0159168 -0.0477385 -0.0159128 -0.19097 0 -0.0636593 0.0159128z"/>
   <path id="_79603848" class="fil2" d="M1.28904 1.06624l0.334194 0 2.91226 0 0 -0.397845 0 0.381936 -2.91226 0 0 -0.381936c0,-0.0356862 0.0125907,-0.0349365 0.0318257,-0.0636593l-0.318281 0c-0.0752211,0.112327 -0.0477385,0.278965 -0.0477385,0.461504z"/>
   <path id="_81272440" class="fil3" d="M4.53549 0.668391l-0.0318297 -0.0636593 -2.84861 0c-0.019235,0.0287229 -0.0318257,0.0279731 -0.0318257,0.0636593l0 0.381936 2.91226 0 0 -0.381936z"/>
   <path id="_81272776" class="fil4" d="M7.33635 0.747959c0,-0.0372536 -0.0264057,-0.0636593 -0.0636514,-0.0636593l-0.0477465 0c-0.0429806,0 -0.043878,0.00760147 -0.0795682,0.0159128 -0.0105208,0.0451582 -0.0159168,0.0272034 -0.0159168,0.0636554 0,0.0521096 0.0191991,0.053322 0.0477465,0.0636593l0 0.15914c0,0.0488632 0.0147323,0.095485 0.0636554,0.095485l0.0318297 0c0.0372456,0 0.0636514,-0.0264097 0.0636514,-0.0636554l0 -0.270538z"/>
   <path id="_81273304" class="fil5" d="M5.31527 1.05033c-0.0219549,0.0327868 -0.0477385,0.0413056 -0.0477385,0.0795682l0 0.0318257c0,0.0569712 0.0196777,0.0688599 0.0477385,0.095485l1.2413 0.0159128c0.0277577,-0.0185889 0.0795682,-0.0514994 0.0795682,-0.095485l0 -0.0159128c0,-0.0948549 -0.0642336,-0.127315 -0.159144,-0.127315l-1.05032 0c-0.0548654,0 -0.0616214,0.0117731 -0.111402,0.0159208z"/>
   <path id="_81273160" class="fil5" d="M5.33119 1.41634c-0.0345018,0.0299911 -0.0636554,0.0449986 -0.0636554,0.111402 0,0.0663992 0.0291536,0.0814147 0.0636554,0.111398l1.57549 0c0.032384,-0.0216917 0.0795682,-0.0586941 0.0795682,-0.111398 0,-0.0628657 -0.0722618,-0.127311 -0.143228,-0.127311l-1.43226 0c-0.0429806,0 -0.043878,0.00759748 -0.0795682,0.0159089z"/>
   <path id="_81273136" class="fil6" d="M3.1828 2.0529l0 0.19097c-0.064114,0.0339275 -0.14235,0.0795682 -0.238713,0.0795682 -0.139981,0 -0.195692,-0.0315465 -0.286447,-0.0795682 -0.089742,-0.0600899 -0.206883,-0.20167 -0.206883,-0.35011l0 -0.095481c0,-0.199967 0.231769,-0.429679 0.413766,-0.429679l0.095485 0c0.193782,0 0.429675,0.218684 0.429675,0.413762l0 0.127315c0,0.138617 -0.106819,0.261928 -0.189383,0.318233l-0.0175001 -0.175009zm-0.859357 -0.206879c0,0.288724 0.262075,0.588815 0.54108,0.588815l0.127311 0c0.259738,0 0.53584,-0.310763 0.525889,-0.588336 -0.0103015,-0.287388 -0.251223,-0.589298 -0.525889,-0.589298l-0.127311 0c-0.279005,0 -0.54108,0.300091 -0.54108,0.588819z"/>
   <path id="_81273256" class="fil3" d="M5.36302 1.89376l-0.0491384 -0.0318576 0.0173087 -0.222764c-0.0345018,-0.0299831 -0.0636554,-0.0449986 -0.0636554,-0.111398 0,-0.0664032 0.0291536,-0.0814107 0.0636554,-0.111402l-0.0159168 -0.159136c-0.0280608,-0.0266251 -0.0477385,-0.0385139 -0.0477385,-0.095485l0 -0.0318257c0,-0.0382626 0.0257836,-0.0467814 0.0477385,-0.0795682l-0.00230517 -0.208801 0.0341348 -0.0458282 -0.318277 0c-0.019235,0.0287229 -0.0318297,0.0279771 -0.0318297,0.0636554l0 0.970755c0,0.0356823 0.0125947,0.0349325 0.0318297,0.0636554l0.334194 0z"/>
   <path id="_60364472" class="fil7" d="M5.3471 0.795698l-0.0341348 0.0458282 0.00230517 0.208801c0.0497805,-0.00414771 0.0565365,-0.0159208 0.111402,-0.0159208l1.05032 0c0.0949107,0 0.159144,0.0324598 0.159144,0.127315l0 0.0159128c0,0.0439856 -0.0518105,0.0768961 -0.0795682,0.095485l-1.2413 -0.0159128 0.0159168 0.159136c0.0356902,-0.00831137 0.0365876,-0.0159089 0.0795682,-0.0159089l1.43226 0c0.0709657,0 0.143228,0.064445 0.143228,0.127311 0,0.0527038 -0.0471842,0.0897062 -0.0795682,0.111398l-1.57549 0 -0.0173087 0.222764 0.0491384 0.0318576 1.67097 0.0159168 0.33419 0 0.0477425 -0.0159168 0.0159128 -0.0159128 0.0159168 -0.0159168 0 -0.652474c-0.0686206,0.0159926 -0.0871816,0.0477465 -0.175053,0.0477465l-0.0477465 0c-0.167324,0 -0.350106,-0.18021 -0.350106,-0.334194l0 -0.0636593c0,-0.0429806 0.00760147,-0.043874 0.0159128,-0.0795682l-1.19355 0 -0.35011 0.0159128z"/>
   <path id="_81273040" class="fil8" d="M2.65764 2.24387c0.090755,0.0480217 0.146466,0.0795682 0.286447,0.0795682 0.0963624,0 0.174599,-0.0456407 0.238713,-0.0795682l0 -0.19097c-0.00962348,-0.0360492 -0.0153026,-0.0636554 -0.0636554,-0.0636554l-0.111398 0c0.0101579,-0.0928807 0.143224,-0.0828505 0.143224,-0.222792l0 -0.0636593c0,-0.10526 -0.118321,-0.206879 -0.222792,-0.206879 -0.118202,0 -0.238713,0.0937581 -0.238713,0.206879l0 0.0636593c0,0.137963 0.11592,0.131446 0.143228,0.206879l-0.0636593 0c-0.0584149,0 -0.07692,0.0246589 -0.111394,0.0477425l0 0.222796z"/>
   <path id="_78317872" class="fil3" d="M2.65764 2.24387l0 -0.222796c0.0344738,-0.0230836 0.052979,-0.0477425 0.111394,-0.0477425l0.0636593 0c-0.0273071,-0.0754325 -0.143228,-0.0689158 -0.143228,-0.206879l0 -0.0636593c0,-0.113121 0.120511,-0.206879 0.238713,-0.206879 0.10447,0 0.222792,0.101619 0.222792,0.206879l0 0.0636593c0,0.139941 -0.133066,0.129911 -0.143224,0.222792l0.111398 0c0.0483527,0 0.0540319,0.0276062 0.0636554,0.0636554l0.0175001 0.175009c0.0825633,-0.0563051 0.189383,-0.179616 0.189383,-0.318233l0 -0.127315c0,-0.195078 -0.235893,-0.413762 -0.429675,-0.413762l-0.095485 0c-0.181997,0 -0.413766,0.229711 -0.413766,0.429679l0 0.095481c0,0.14844 0.117141,0.290021 0.206883,0.35011z"/>
   <path id="_81268128" class="fil9" d="M2.62581 5.95183c0,-0.151942 0.117005,-0.286455 0.270538,-0.286455l0.0477385 0c0.153529,0 0.270542,0.134513 0.270542,0.286455l0 0.0159128c0,0.125428 -0.118361,0.270538 -0.238713,0.270538l-0.0795682 0c-0.153533,0 -0.270538,-0.134509 -0.270538,-0.286451zm-0.095485 -5.66538c0,-0.0443246 0.0670732,-0.111398 0.111398,-0.111398l0.9071 0c0.0769759,0 0.127307,0.0503348 0.127307,0.127315 0,0.0742878 -0.037106,0.111394 -0.111394,0.111394l-0.938925 0c-0.0383184,0 -0.095485,-0.0571666 -0.095485,-0.095485l0 -0.0318257zm-0.381936 0.0159168c0,-0.0581596 0.0439178,-0.127315 0.095485,-0.127315l0.0477425 0c0.0742878,0 0.111394,0.037106 0.111394,0.111398l0 0.0477425c0,0.0383184 -0.0571586,0.095485 -0.095477,0.095485l-0.0318297 0c-0.0769799,0 -0.127315,-0.0503388 -0.127315,-0.127311zm-1.00258 -0.286455l-0.0318297 0.0159168 -0.0159168 0.0159089 -0.0159128 0.0318297 -0.0159168 0.0477465 0 1.43226 0.0159168 4.85376c0.0814586,0.121651 0.129261,0.095489 0.318281,0.095485 0.143224,0 0.286447,0 0.429679,0 0.286451,0 0.572898,0 0.859353,0 0.567602,0 1.1352,0 1.70279,0l-0.00233309 -0.148779 0.129648 -0.042187 -0.779785 -0.811615c-0.41907,0 -0.838132,0 -1.2572,0 -0.206883,0 -0.413766,0 -0.620645,0 -0.163795,0 -0.521542,0.0531983 -0.556993,-0.0795682l-0.0159128 -4.36044c0,-0.182539 -0.0274826,-0.349177 0.0477385,-0.461504l0.318281 0 2.84861 0 0.0318297 0.0636593 0 0.397845 0 2.48259 0.222792 0.0477385 0.0159208 -3.15097 0 -0.318277 -0.0159208 -0.0477465 -0.0159089 -0.0318297 -0.0159168 -0.0159089 -0.0159128 -0.0159168 -0.0318297 -0.0159128 -3.51699 0 -0.0159089 0.0159128z"/>
   <path id="_81268152" class="fil0" d="M3.46925 3.27828c-0.016543,-0.0312713 -0.0318257,-0.0469289 -0.0318257,-0.095485l0 -0.0636593c0,-0.0517227 0.0137871,-0.0120124 0.0318257,-0.0795642 -0.180354,0 -0.360715,0 -0.541073,0 -0.256851,0 -0.327513,-0.0524565 -0.419441,0.131056l0.0852434 0.107653 0.87527 0z"/>
   <path id="_81268176" class="fil0" d="M3.81936 3.27828c0.138964,0 0.286451,0.0333851 0.286451,-0.111398l0 -0.0318257c0,-0.107035 -0.173701,-0.095485 -0.286451,-0.095485 0.0180385,0.0675518 0.0318297,0.0278415 0.0318297,0.0795642l0 0.0636593c0,0.0485561 -0.0152867,0.0642137 -0.0318297,0.095485z"/>
   <path id="_116978592" class="fil10" d="M5.88818 3.45334c-0.0372536,0 -0.0636554,-0.0264057 -0.0636554,-0.0636554l0 -0.779789c0,-0.0449428 0.0365198,-0.0613941 0.0636554,-0.0795682 0.0975549,0.0227286 0.747959,0.388086 0.747959,0.445591l0 0.0318297c0,0.054343 -0.654393,0.445591 -0.747959,0.445591zm-0.52516 0.445591l2.03699 0c0.118018,-0.176238 0.0477465,-0.977691 0.0477465,-1.27312l0 -0.493338 -0.0159168 -0.0318257 -0.0159128 -0.0159128 -0.270538 0 -1.78237 0c-0.0219549,0.0327868 -0.0477465,0.0413136 -0.0477465,0.0795682l0 1.67097c0,0.0446317 0.0191074,0.0387691 0.0477465,0.0636554z"/>
   <path id="_116990520" class="fil3" d="M3.46925 3.03958c-0.0180385,0.0675518 -0.0318257,0.0278415 -0.0318257,0.0795642l0 0.0636593c0,0.0485561 0.0152827,0.0642137 0.0318257,0.095485 0.0300908,0.0449308 0.0852992,0.095485 0.15914,0.095485l0.0318297 0c0.0738372,0 0.12905,-0.0505542 0.15914,-0.095485 0.016543,-0.0312713 0.0318297,-0.0469289 0.0318297,-0.095485l0 -0.0636593c0,-0.0517227 -0.0137911,-0.0120124 -0.0318297,-0.0795642 -0.0508852,-0.034079 -0.0633283,-0.0795762 -0.143232,-0.0795762l-0.0636514 0c-0.0798992,0 -0.0923423,0.0454972 -0.143228,0.0795762z"/>
   <path id="_117935832" class="fil8" d="M5.88818 3.45334c0.0935667,0 0.747959,-0.391249 0.747959,-0.445591l0 -0.0318297c0,-0.0575056 -0.650404,-0.422863 -0.747959,-0.445591 -0.0271356,0.0181741 -0.0636554,0.0346254 -0.0636554,0.0795682l0 0.779789c0,0.0372496 0.0264018,0.0636554 0.0636554,0.0636554z"/>
   <path id="_116990592" class="fil6" d="M2.00517 3.46925c-0.019231,-0.0287229 -0.0318297,-0.0279731 -0.0318297,-0.0636593l0 -0.461504c0,-0.0429806 0.00759748,-0.043874 0.0159128,-0.0795682l0.334194 0 -0.49333 -0.0159168c-0.0271436,0.0181741 -0.0636554,0.0346254 -0.0636554,0.0795762l0 0.477413c0,0.0356862 0.0125947,0.0349365 0.0318257,0.0636593l0.206883 0z"/>
   <path id="_116990688" class="fil3" d="M2.00517 3.46925l0.350106 0c0.016543,-0.0312673 0.0318297,-0.0469289 0.0318297,-0.095481l0 -0.445591c0,-0.0483567 -0.0276062,-0.0540319 -0.0636593,-0.0636593l-0.334194 0c-0.00831536,0.0356942 -0.0159128,0.0365876 -0.0159128,0.0795682l0 0.461504c0,0.0356862 0.0125987,0.0349365 0.0318297,0.0636593z"/>
   <path id="_117937656" class="fil11" d="M2.00517 3.46925l-0.206883 0c-0.019231,-0.0287229 -0.0318257,-0.0279731 -0.0318257,-0.0636593l0 -0.477413c0,-0.0449508 0.0365118,-0.061402 0.0636554,-0.0795762l0.49333 0.0159168c0.0360532,0.00962747 0.0636593,0.0153026 0.0636593,0.0636593l0 0.445591c0,0.0485521 -0.0152867,0.0642137 -0.0318297,0.095481l-0.350106 0zm1.46409 -0.429675c0.0508852,-0.034079 0.0633283,-0.0795762 0.143228,-0.0795762l0.0636514 0c0.0799032,0 0.0923463,0.0454972 0.143232,0.0795762 0.11275,0 0.286451,-0.0115498 0.286451,0.095485l0 0.0318257c0,0.144783 -0.147487,0.111398 -0.286451,0.111398 -0.0300908,0.0449308 -0.0853032,0.095485 -0.15914,0.095485l-0.0318297 0c-0.0738412,0 -0.12905,-0.0505542 -0.15914,-0.095485l-0.87527 0 -0.0852434 -0.107653c0.0919276,-0.183512 0.16259,-0.131056 0.419441,-0.131056 0.180358,0 0.360719,0 0.541073,0zm-1.84602 -0.397853c-0.045206,0.0428849 -0.0795722,0.0859333 -0.0795722,0.175053l0 0.700217c0,0.112881 0.0372337,0.111833 0.0795722,0.175053 0.0356902,0.00831935 0.0365876,0.0159128 0.0795682,0.0159128l2.46667 0c0.0844019,0 0.127315,-0.127055 0.127315,-0.222792l0 -0.636566c0,-0.13626 -0.0301945,-0.168417 -0.111402,-0.223163l-2.56215 0.0162837z"/>
   <path id="_116990760" class="fil1" d="M5.36302 3.89893c-0.0286391,-0.0248862 -0.0477465,-0.0190236 -0.0477465,-0.0636554l0 -1.67097c0,-0.0382546 0.0257916,-0.0467814 0.0477465,-0.0795682l-0.302368 0c-0.0271356,0.0181741 -0.0636554,0.0346254 -0.0636554,0.0795682l0 1.67097c0,0.100554 0.263754,0.0636554 0.366023,0.0636554z"/>
   <path id="_116990832" class="fil12" d="M2.32344 1.84603c0,-0.288728 0.262075,-0.588819 0.54108,-0.588819l0.127311 0c0.274666,0 0.515588,0.301909 0.525889,0.589298 0.00995051,0.277573 -0.266151,0.588336 -0.525889,0.588336l-0.127311 0c-0.279005,0 -0.54108,-0.300091 -0.54108,-0.588815zm-0.700213 0.795698l2.56215 -0.0162837c0.0812073,0.0547458 0.111402,0.0869025 0.111402,0.223163l0 0.636566c0,0.0957363 -0.0429128,0.222792 -0.127315,0.222792l-2.46667 0c-0.0429806,0 -0.043878,-0.0075935 -0.0795682,-0.0159128l0 0.254621 2.72129 0c0,-0.31176 0.00802422,-0.270722 0.19097,-0.397845l0 -2.48259 -2.91226 0 0 1.57549z"/>
   <path id="_117918720" class="fil13" d="M1.78237 4.29678c0,0.0732031 0.0942527,0.111394 0.175053,0.111394l1.16173 0c0.247168,0 0.199692,-0.238709 0.0477425,-0.238709l-1.25721 0c-0.0769799,0 -0.127315,0.0503348 -0.127315,0.127315z"/>
   <path id="_116990928" class="fil13" d="M4.75828 3.59656c0.105834,0.158044 0.0795682,0.18222 0.0795682,0.429683 0,0.175053 0,0.350106 0,0.52516 0.0455769,-0.0524246 0.0923064,-0.095485 0.190974,-0.095485l0.0477385 0c0.102412,0 0.140356,0.0902286 0.19097,0.127311 0.0303859,-0.0574298 0.0904679,-0.127311 0.175053,-0.127311l0.0477385 0c0.142334,0 0.145497,0.0755481 0.2228,0.127311 0.0326353,-0.0616772 0.0817378,-0.127311 0.175053,-0.127311l0.0477465 0c0.320359,0 0.222792,0.515827 0.222792,0.827528 0,0.174539 -0.0259591,0.963054 0.0159128,1.05032l0.095485 0c0.019231,0.0287229 0.0318257,0.0279771 0.0318257,0.0636554l0 0.54108c0,0.0725251 -0.0828146,0.0795642 -0.159136,0.0795642l0 0.429683 0.0159128 0 0.0159128 -0.0159168 0.0318257 -0.0159128 0.0159168 -0.0159168 0.0159128 -0.0159089 0.0318297 -0.0159168 0.0159168 -0.0159128 0.0159089 -0.0159168 0.0159168 -0.0159128 0.0318297 -0.0159168 0.0159128 -0.0159089 0.0159168 -0.0159208 0.0159089 -0.0159089 0.0318297 -0.0159128 0.0159128 -0.0159168 0.0159168 -0.0159089 0.0159089 -0.0159168 0.0159168 -0.0159128 0.0159128 -0.0159168 0.0159168 -0.0159128 0.0318297 -0.0159168 0.0159089 -0.0159089 0.0159168 -0.0159208 0.0159128 -0.0159089 0.0159128 -0.0159168 0.0159168 -0.0159128 0.0159089 -0.0159168 0.0159168 -0.0159128 0.0159128 -0.0159089 0.0159168 -0.0159168 0.0159128 -0.0159128 0.0159168 -0.0159168 0.0159089 -0.0159089 0.0159208 -0.0159208 0.0159089 -0.0159089 0.0159168 -0.0318297 0.0159128 -0.0159168 0.0159168 -0.0159128 0.0159089 -0.0159168 0.0159128 -0.0159089 0.0159168 -0.0159168 0.0159128 -0.0159128 0.0159168 -0.0318297 0.0159089 -0.0159089 0.0159208 -0.0159168 0.0159089 -0.0159128 0.0159168 -0.0318297 0.0159128 -0.0159168 0.0159168 -0.0159089 0.0159128 -0.0159168 0.0159168 -0.0318297 0.0159089 -0.0159128 0.0159168 -0.0159089 0.0159128 -0.0318297 0.0159089 -0.0159168 0.0159208 -0.0318297 0.0159089 -0.0159089 0.0159168 -0.0159168 0.0159128 -0.0318297 0.0159168 -0.0318297 0.0159128 -0.0159089 0.0159168 -0.0318297 0.0159089 -0.0159128 0.0159168 -0.0318257 0.0159128 -0.0159168 0.0159168 -0.0318297 0.0159128 -0.0318297 0.0159089 -0.0318257 0.0159168 -0.0159128 0.0159128 -0.0318297 0.0159168 -0.0318257 0.0159128 -0.0318297 0.0159168 -0.0318297 0.0159089 -0.0318257 0.0159168 -0.0318297 0.0159128 -0.0318297 0.0159168 -0.0318257 0.0159128 -0.0318257 0.0159168 -0.0318257 0.0159089 -0.0477465 0.0159168 -0.0318297 0.0159128 -0.0318257 0.0159128 -0.0477425 0.0159168 -0.0477385 0.0159089 -0.0318297 0.0159168 -0.0477425 0.0159128 -0.0477425 0.0159168 -0.0477425 0.0159128 -0.0477425 0.0159168 -0.0477385 0.0159089 -0.0636554 0.0159168 -0.0477465 0.0159128 -0.0795682 0.0159168 -0.0636593 0.0159128 -0.0636554 0.0159089 -0.095477 0.0159168 -0.0795762 0.0159128 -0.127307 0.0159168 -0.143232 0 -0.700213 -0.0159168 -0.143224 -0.0159128 -0.127315 -0.0159168 -0.0795682 -0.0159089 -0.095485 -0.0159128 -0.0636554 -0.0159168 -0.0636593 -0.0159128 -0.0795682 -0.0159168 -0.0477465 -0.0159089 -0.0636474 -0.0159168 -0.0477465 -0.0159128 -0.0477385 -0.0159168 -0.0477465 -0.0159128 -0.0477425 -0.0159168 -0.0477385 -0.0159089 -0.0318297 -0.0159168 -0.0477425 -0.0159128 -0.0477425 -0.0159128 -0.0318257 -0.0159168 -0.0318297 -0.0159089 -0.0477385 -0.0159168 -0.0318297 -0.0159128 0c0,0.295428 0.0702717,1.09688 -0.0477465,1.27312l-2.03699 0c-0.102269,0 -0.366023,0.0368986 -0.366023,-0.0636554l0 -1.67097c0,-0.0449428 0.0365198,-0.0613941 0.0636554,-0.0795682l0.302368 0 1.78237 0 0 -0.0318297 -0.0159168 -0.0159089 -0.0159089 -0.0159168 -0.0159208 -0.0318297 -0.0159089 -0.0159128 -0.0159128 -0.0318257 -0.0159168 -0.0159168 -0.0159089 -0.0159128 -1.67097 -0.0159168 -0.334194 0c-0.019235,-0.0287229 -0.0318297,-0.0279731 -0.0318297,-0.0636554l0 -0.970755c0,-0.0356783 0.0125947,-0.0349325 0.0318297,-0.0636554l0.318277 0 0.35011 -0.0159128 -0.0159168 -0.0159168 -0.0318257 -0.0159089 -0.0318297 -0.0159168 -0.0318297 -0.0159128 -0.0318257 -0.0159168 -0.0318297 -0.0159128 -0.0318297 -0.0159089 -0.0477385 -0.0159168 -0.0318297 -0.0159128 -0.0318257 -0.0159168 -0.0477425 -0.0159128 -0.0477425 -0.0159168 -0.0318257 -0.0159089 -0.0477425 -0.0159168 -0.0477425 -0.0159128 -0.0477425 -0.0159168 -0.0477425 -0.0159128 -0.0477385 -0.0159168 -0.0636554 -0.0159089 -0.0477465 -0.0159168 -0.0795682 -0.0159128 -0.0477385 0 -0.0159208 3.15097z"/>
   <path id="_116977488" class="fil13" d="M1.78237 4.6628l0 0.0318297c0,0.0732031 0.0942527,0.111398 0.175053,0.111398l1.16173 0c0.103533,0 0.175053,-0.0401929 0.175053,-0.143228 0,-0.0383184 -0.0571626,-0.095485 -0.095481,-0.095485l-1.32087 0c-0.0383184,0 -0.095485,0.0571666 -0.095485,0.095485z"/>
   <path id="_117936240" class="fil3" d="M3.67613 4.36043l0 0.0477425c0,0.0982169 0.159144,0.212414 0.159144,0.286451 0,0.0107282 -0.159144,0.197846 -0.159144,0.238709l0 0.0636593c0,0.037106 0.0424622,0.0795682 0.0795762,0.0795682l0.0636554 0c0.0495452,0 0.286451,-0.334054 0.286451,-0.366019l0 -0.0318297c0,-0.078292 -0.235825,-0.397849 -0.302368,-0.397849l-0.0159128 0c-0.0536291,0 -0.111402,0.0281247 -0.111402,0.0795682z"/>
   <path id="_116977392" class="fil13" d="M1.78237 5.06065c0,0.0786549 0.0645726,0.143228 0.143228,0.143228l0.588819 0c0.0769639,0 0.143228,-0.0451981 0.143228,-0.127315 0,-0.0742918 -0.037114,-0.111398 -0.111402,-0.111398l-0.668387 0c-0.0383184,0 -0.095485,0.0571666 -0.095485,0.095485z"/>
   <path id="_116977320" class="fil4" d="M1.87785 4.96517l0.668387 0c0.0742878,0 0.111402,0.037106 0.111402,0.111398 0,0.0821166 -0.0662636,0.127315 -0.143228,0.127315l-0.588819 0c-0.0786549,0 -0.143228,-0.0645726 -0.143228,-0.143228 0,-0.0383184 0.0571666,-0.095485 0.095485,-0.095485zm-0.095485 -0.302368c0,-0.0383184 0.0571666,-0.095485 0.095485,-0.095485l1.32087 0c0.0383184,0 0.095481,0.0571666 0.095481,0.095485 0,0.103035 -0.07152,0.143228 -0.175053,0.143228l-1.16173 0c-0.0808005,0 -0.175053,-0.0381948 -0.175053,-0.111398l0 -0.0318297zm2.32345 0.0477465c0,0.0319653 -0.236906,0.366019 -0.286451,0.366019l-0.0636554 0c-0.037114,0 -0.0795762,-0.0424622 -0.0795762,-0.0795682l0 -0.0636593c0,-0.0408629 0.159144,-0.22798 0.159144,-0.238709 0,-0.0740366 -0.159144,-0.188234 -0.159144,-0.286451l0 -0.0477425c0,-0.0514435 0.0577728,-0.0795682 0.111402,-0.0795682l0.0159128 0c0.0665428,0 0.302368,0.319557 0.302368,0.397849l0 0.0318297zm-2.32345 -0.413762c0,-0.0769799 0.0503348,-0.127315 0.127315,-0.127315l1.25721 0c0.15195,0 0.199425,0.238709 -0.0477425,0.238709l-1.16173 0c-0.0808005,0 -0.175053,-0.0381908 -0.175053,-0.111394zm1.94151 1.19354c-0.00831536,-0.0356902 -0.0159168,-0.0365876 -0.0159168,-0.0795682l0 -0.0159089c0,-0.110636 0.155324,-0.270538 0.254625,-0.270538 0.0861567,0 0.124371,0.0297119 0.175053,0.0636554l0.206883 0.190966 0 -1.41635 -2.72129 0 0 1.46409c0,0.0356823 0.0125907,0.0349325 0.0318257,0.0636514l2.06882 0z"/>
   <path id="_117936072" class="fil14" d="M1.30495 5.42667l0 -1.48001 0.318281 0 0 -0.254621c-0.0423385,-0.0632206 -0.0795722,-0.0621718 -0.0795722,-0.175053l0 -0.700217c0,-0.0891199 0.0343662,-0.132168 0.0795722,-0.175053l0 -1.57549 -0.334194 0 0.0159128 4.36044z"/>
   <path id="_116977248" class="fil15" d="M1.30495 5.42667c0.0354509,0.132767 0.393199,0.0795682 0.556993,0.0795682 0.206879,0 0.413762,0 0.620645,0 0.41907,0 0.838132,0 1.2572,0l-0.0159128 -0.0159168 -2.06882 0c-0.019235,-0.0287189 -0.0318257,-0.0279691 -0.0318257,-0.0636514l0 -1.46409 2.72129 0 0 -0.0159168 -2.72129 0 -0.318281 0 0 1.48001z"/>
   <path id="_116977176" class="fil0" d="M2.62581 5.95183c0,0.151942 0.117005,0.286451 0.270538,0.286451l0.0795682 0c0.120351,0 0.238713,-0.14511 0.238713,-0.270538l0 -0.0159128c0,-0.151942 -0.117013,-0.286455 -0.270542,-0.286455l-0.0477385 0c-0.153533,0 -0.270538,0.134513 -0.270538,0.286455z"/>
   <path id="_117935784" class="fil16" d="M3.72388 5.49033l0.0159128 0.0159168 0.779785 0.811615 0.318277 0c-0.129839,-0.193893 -0.811607,-0.704452 -0.811607,-0.9071l0 -0.0159089c0,-0.0911898 0.0740127,-0.151064 0.111394,-0.206883 -0.0506818,-0.0339434 -0.0888966,-0.0636554 -0.175053,-0.0636554 -0.0993017,0 -0.254625,0.159902 -0.254625,0.270538l0 0.0159089c0,0.0429806 0.00760147,0.043878 0.0159168,0.0795682z"/>
   <path id="_116977080" class="fil17" d="M4.34452 3.94667l0 0.0159168 0 1.41635 -0.206883 -0.190966c-0.0373812,0.0558186 -0.111394,0.115693 -0.111394,0.206883l0 0.0159089c0,0.202647 0.681768,0.713206 0.811607,0.9071l0.0159208 0.0159128 1.32086 0c-0.0418719,-0.0872694 -0.0159128,-0.875785 -0.0159128,-1.05032 0,-0.3117 0.0975669,-0.827528 -0.222792,-0.827528l-0.0477465 0c-0.0933155,0 -0.142418,0.0656335 -0.175053,0.127311 -0.0773029,-0.0517626 -0.0804655,-0.127311 -0.2228,-0.127311l-0.0477385 0c-0.0845853,0 -0.144667,0.0698809 -0.175053,0.127311 -0.050614,-0.0370821 -0.0885576,-0.127311 -0.19097,-0.127311l-0.0477385 0c-0.0986676,0 -0.145397,0.0430604 -0.190974,0.095485 0,-0.175053 0,-0.350106 0,-0.52516 0,-0.247463 0.0262662,-0.271639 -0.0795682,-0.429683l-0.222792 -0.0477385c-0.182946,0.127123 -0.19097,0.0860849 -0.19097,0.397845z"/>
   <path id="_116976984" class="fil5" d="M5.80861 6.63614l0 0.0636554c0,0.0443246 0.0670732,0.111398 0.111398,0.111398l0.0636554 0c0.0443246,0 0.111398,-0.0670732 0.111398,-0.111398l0 -0.0636554c0,-0.0385099 -0.072888,-0.111398 -0.111398,-0.111398l-0.0636554 0c-0.0443246,0 -0.111398,0.0670692 -0.111398,0.111398z"/>
   <path id="_117936360" class="fil3" d="M5.80861 6.63614c0,-0.0443286 0.0670732,-0.111398 0.111398,-0.111398l0.0636554 0c0.0385099,0 0.111398,0.072888 0.111398,0.111398l0 0.0636554c0,0.0443246 -0.0670732,0.111398 -0.111398,0.111398l-0.0636554 0c-0.0443246,0 -0.111398,-0.0670732 -0.111398,-0.111398l0 -0.0636554zm-0.938929 0.381932l1.27312 0c0.0763218,0 0.159136,-0.00703914 0.159136,-0.0795642l0 -0.54108c0,-0.0356783 -0.0125947,-0.0349325 -0.0318257,-0.0636554l-0.095485 0 -1.32086 0 -0.111398 0c-0.019235,0.0287229 -0.0318297,0.0279771 -0.0318297,0.0636554l0 0.54108c0,0.0356783 0.0125947,0.0349325 0.0319134,0.0618288l0.127223 0.0177354z"/>
   <path id="_116976888" class="fil6" d="M4.39226 6.50882l-0.00311477 0.471511 0.162259 0.0377362 0.318277 0 -0.127223 -0.0177354c-0.0193187,-0.0268963 -0.0319134,-0.0261505 -0.0319134,-0.0618288l0 -0.54108c0,-0.0356783 0.0125947,-0.0349325 0.0318297,-0.0636554l0.111398 0 -0.0159208 -0.0159128 -0.318277 0 -0.129648 0.042187 0.00233309 0.148779z"/>
   <polygon id="_116976792" class="fil6" points="4.90151,8.02065 4.94926,8.02065 5.01291,8.00474 5.06065,7.98882 5.10839,7.97291 5.15614,7.957 5.20388,7.94108 5.25162,7.92517 5.28345,7.90926 5.33119,7.89334 5.37893,7.87743 5.41076,7.86151 5.44259,7.8456 5.49033,7.82969 5.52215,7.81377 5.55398,7.79786 5.58581,7.78194 5.61764,7.76603 5.64947,7.75011 5.6813,7.7342 5.71312,7.71829 5.74495,7.70237 5.77678,7.68646 5.80861,7.67054 5.82452,7.65464 5.85635,7.63872 5.88818,7.62281 5.92001,7.60689 5.93592,7.59098 5.96775,7.57506 5.98366,7.55915 6.01549,7.54323 6.0314,7.52732 6.06323,7.5114 6.09506,7.49549 6.11098,7.47957 6.12689,7.46367 6.1428,7.44775 6.1428,7.01807 4.86968,7.01807 4.86968,8.02065 "/>
   <polygon id="_117936144" class="fil5" points="4.5514,8.10023 4.59914,8.10023 4.69463,8.08431 4.75828,8.0684 4.82194,8.05248 4.90151,8.03657 4.90151,8.02065 4.86968,8.02065 4.86968,7.01807 4.5514,7.01807 "/>
   <path id="_116976696" class="fil13" d="M1.03441 1.57549l-0.0159089 0.0159089 -0.0159168 0.0318297 -0.0159128 0.0159168 -0.0159168 0.0159128 -0.0159089 0.0159168 -0.0159128 0.0159089 -0.0159168 0.0159168 -0.0159128 0.0159128 -0.0159168 0.0318297 -0.0159089 0.0159168 -0.0159208 0.0159089 -0.0159089 0.0159168 -0.0159168 0.0318257 -0.0159128 0.0159168 -0.0159168 0.0159089 -0.0159128 0.0159168 -0.0159168 0.0318297 -0.0159089 0.0159128 -0.0159168 0.0159168 -0.0159128 0.0318257 -0.0159089 0.0159128 -0.0159208 0.0318297 -0.0159089 0.0159168 -0.0159168 0.0159089 -0.0159128 0.0318297 -0.0159168 0.0318297 -0.0159128 0.0159089 -0.0159168 0.0318297 -0.0159089 0.0159168 -0.0159168 0.0318297 -0.0159128 0.0159089 -0.0159168 0.0318297 -0.0159128 0.0318297 -0.0159089 0.0318257 -0.0159168 0.0159128 -0.0159128 0.0318297 -0.0159168 0.0318257 -0.0159128 0.0318297 -0.0159168 0.0318297 -0.0159089 0.0318257 -0.0159168 0.0318297 -0.0159128 0.0318297 -0.0159168 0.0318257 -0.0159128 0.0318297 -0.0159168 0.0318297 -0.0159089 0.0477385 -0.0159168 0.0318297 -0.0159128 0.0318257 -0.0159128 0.0477425 -0.0159168 0.0477425 -0.0159089 0.0318297 -0.0159168 0.0477385 -0.0159128 0.0477425 -0.0159168 0.0477465 -0.0159128 0.0477385 -0.0159168 0.0477465 -0.0159089 0.0636474 -0.0159168 0.0477465 -0.0159128 0.0795682 -0.0159168 0.0636593 -0.0159128 0.0636554 -0.0159089 0.095485 -0.0159168 0.0795682 -0.0159128 0.127315 -0.0159168 0.143224 0 0.700213 0.0159168 0.143232 0.0159128 0.127307 0.0159168 0.0795762 0.0159089 0.095477 0.0159128 0.0636554 0.0159168 0.0636593 0.0159128 0.0795682 0.0159168 0.0477465 0.0159089 0.0636554 0.0159168 0.0477385 0.0159128 0.0477425 0.0159168 0.0477425 0.0159128 0.0477425 0.0159168 0.0477425 0.0159089 0.0318297 0.0159168 0.0477385 0.0159128 0.0477425 0.0159128 0.0318257 0.0159168 0.0318297 0.0159089 0.0477465 0.0159168 0.0318257 0.0159128 0.0318257 0.0159168 0.0318257 0.0159128 0.0318297 0.0159168 0.0318297 0.0159089 0.0318257 0.0159168 0.0318297 0.0159128 0.0318297 0.0159168 0.0318257 0.0159128 0.0318297 0.0159168 0.0159128 0.0159089 0.0318257 0.0159128 0.0318297 0.0159168 0.0318297 0.0159128 0.0159168 0.0159168 0.0318257 0.0159089 0.0159128 0.0159168 0.0318297 0.0159128 0.0159089 0.0159168 0.0318297 0.0159128 0.0318297 0.0159168 0.0159168 0.0159089 0.0159089 0.0159208 0.0318297 0.0159089 0.0159168 0.0159128 0.0318297 0.0159168 0.0159089 0.0159089 0.0159128 0.0159168 0.0318297 0.0159128 0.0159168 0.0159168 0.0159089 0.0159128 0.0159168 0.0159168 0.0318297 0.0159089 0.0159128 0.0159208 0.0159168 0.0159089 0.0159089 0.0159168 0.0318297 0.0159128 0.0159128 0.0159168 0.0159168 0.0159128 0.0159089 0.0159089 0.0159168 0.0159168 0.0159128 0.0159128 0.0159168 0.0159168 0.0318297 0.0159089 0.0159089 0.0159208 0.0159208 0.0159089 0.0159089 0.0159168 0.0159168 0.0159128 0.0159128 0.0159168 0.0159168 0.0159128 0.0159089 0.0159168 0.0159128 0.0159089 0.0159168 0.0159168 0.0159128 0.0159128 0.0159168 0.0159128 0.0159089 0.0159168 0.0159208 0.0159089 0.0159089 0.0318297 0.0159168 0.0159168 0.0159128 0.0159128 0.0159168 0.0159168 0.0159128 0.0159089 0.0159168 0.0159168 0.0159089 0.0159128 0.0159168 0.0318297 0.0159128 0.0159089 0.0159089 0.0159168 0.0159208 0.0159128 0.0159089 0.0318297 0.0159168 0.0159168 0.0159128 0.0159089 0.0159168 0.0159168 0.0159128 0.0318297 0.0159168 0.0159128 0.0159089 0.0159168 0.0159168 0.0318257 0.0159128 0.0159128 0.0159168 0.0318297 0.0159128 0.0159089 0.0159089 0.0159168 0.0159168 0.0318297 0.0159128 0.0318297 0.0159168 0.0159089 0.0159128 0.0318297 0.0159168 0.0159168 0.0159089 0.0318297 0.0159168 0.0159089 0.0159128 0.0318297 0.0159168 0.0318297 0.0159128 0.0318257 0.0159168 0.0159128 0.0159089 0.0318297 0.0159168 0.0318257 0.0159128 0.0318297 0.0159128 0.0318297 0.0159168 0.0318257 0.0159089 0.0318297 0.0159168 0.0318297 0.0159128 0.0318257 0.0159168 0.0318297 0.0159128 0.0318297 0.0159168 0.0477385 0.0159089 0.0318297 0.0159168 0.0318257 0.0159128 0.0477425 0.0159168 0.0477425 0.0159128 0.0318257 0.0159089 0.0477425 0.0159168 0.0477425 0.0159128 0.0477425 0.0159168 0.0477425 0.0159128 0.0477385 0.0159168 0.0636554 0.0159089 0.0477465 0.0159168 0.0795682 0.0159128 0.0636593 0.0159168 0.0636554 0.0159128 0.095485 0.0159168 0.0795682 0.0159089 0.127315 0.0159168 0.143224 0.0159128 0.700213 0 0.143224 -0.0159128 0.127315 -0.0159168 0.0318297 -0.0159089 0 -1.08216 -0.162259 -0.0377362 0.00311477 -0.471511c-0.567598,0 -1.13519,0 -1.70279,0 -0.286455,0 -0.572902,0 -0.859353,0 -0.143232,0 -0.286455,0 -0.429679,0 -0.18902,3.98818e-006 -0.236822,0.0261665 -0.318281,-0.095485l-0.0159168 -4.85376 -0.0159089 0 -0.0159208 0.0159128z"/>
  </g>
 </g>
</svg>
