<?xml version="1.0" encoding="UTF-8"?>
<!DOCTYPE svg PUBLIC "-//W3C//DTD SVG 1.1//EN" "http://www.w3.org/Graphics/SVG/1.1/DTD/svg11.dtd">
<!-- Creator: CorelDRAW -->
<svg xmlns="http://www.w3.org/2000/svg" xml:space="preserve" width="8.26242in" height="8.26242in" style="shape-rendering:geometricPrecision; text-rendering:geometricPrecision; image-rendering:optimizeQuality; fill-rule:evenodd; clip-rule:evenodd"
viewBox="0 0 9.08458 9.08458"
 xmlns:xlink="http://www.w3.org/1999/xlink">
 <defs>
  <style type="text/css">
   <![CDATA[
    .fil0 {fill:#2C2F38}
    .fil6 {fill:#4482C3}
    .fil3 {fill:#603E26}
    .fil1 {fill:#805333}
    .fil5 {fill:#95A5A5}
    .fil8 {fill:#B39145}
    .fil12 {fill:#BDC3C7}
    .fil10 {fill:#C03A2B}
    .fil4 {fill:#E57F25}
    .fil13 {fill:#E5E6E7}
    .fil11 {fill:#E64C3C}
    .fil9 {fill:#EFC419}
    .fil7 {fill:#F3D45A}
    .fil2 {fill:#FDD6AD}
   ]]>
  </style>
 </defs>
 <g id="Layer_x0020_1">
  <metadata id="CorelCorpID_0Corel-Layer"/>
  <g id="_117918816">
   <path id="_116979240" class="fil0" d="M2.50181 0.0177436l-0.0354872 0.0177393 -0.0177436 0.0177479 -0.0177436 0.0177393 -0.0177436 0.0354872 -0.0177393 0.0532351 -0.0177479 0.40809 0 0.461329c0.0749785,0.0174622 0.128357,0.0532308 0.212919,0.0532308l0.159692 0c0.180319,0 0.34299,-0.160978 0.443582,-0.248406l0 -0.0177436 -0.0177393 -0.0354872 -0.0177479 -0.0354872 -0.0177393 -0.0354872 -0.0177479 -0.0354872 -0.0177393 -0.0354872 -0.0177479 -0.0177393 -0.0177393 -0.0354872 -0.0177479 -0.0354872 -0.0177393 -0.0354872 -0.0177436 -0.0354829 -0.0177436 -0.0354872 -0.0177436 -0.0177479 -0.0177393 -0.0354872 -0.0177479 -0.0354872 -0.0177393 -0.0354872 -0.0177479 -0.0354872 -0.0177393 -0.0354829 -0.0177479 -0.0354872 -0.0177393 -0.0177393 -0.0177479 -0.0354872 -0.0177393 -0.0354872 -0.0177479 -0.0354872 -0.0177393 -0.0177479 -0.0177479 -0.0177393 -0.0177393 -0.0177479 -0.0177436 -0.0177393 -0.0354872 -0.0177436 -0.159688 0 -0.0354872 0.0177436z"/>
   <path id="_116976456" class="fil1" d="M6.06821 1.20654l0.0532351 0c0.0755326,0 0.124201,0.109795 0.124201,0.19518l0 0.248406c0,0.208924 -0.162861,0.6565 -0.33712,0.6565 -0.0877008,0 -0.159692,-0.0719917 -0.159692,-0.159688 0,-0.113756 0.19518,-0.282984 0.19518,-0.58553l0 -0.0887137c0,-0.126534 -0.0432747,-0.266154 0.124197,-0.266154zm-0.319376 -1.0646l-0.0177436 0.0354872 -0.0177436 0.212919 -0.0177393 0.0709744 -0.0177479 0.0709744 -0.0177393 0.0354829 -0.0177479 0.0532351 -0.0177393 0.0354872 -0.0177479 0.0354872 -0.0177393 0.0354872 -0.0177479 0.0354872 -0.0177393 0.0354829 -0.0177479 0.0177436 -0.0177393 0.0354829 -0.0177436 0.0354872 -0.0177436 0.0177479 -0.0177436 0.0354872 -0.0177436 0.0177393 -0.0177436 0.0354872 -0.0177393 0.0177479 -0.0177479 0.0177393 -0.0177393 0.0354872 -0.0177479 0.0177436 -0.0177393 0.0177436 -0.0177479 0.0354829 -0.0177393 0.0177479 -0.0177479 0.0177393 -0.0177393 0.0177479 -0.0177479 0.0354872 -0.0177393 0.0177393 -0.0177436 0.0177479 -0.0177436 0.0177393 -0.0177436 0.0177479 -0.0177393 0.0177393 -0.0177479 0.0177436 -0.0177393 0.0354872 -0.0177479 0.0177393 -0.0177393 0.0177479 -0.0177479 0.0177393 -0.0177393 0.0177479 -0.0177479 0.0177393 -0.0177393 0.0354872 -0.0177479 0.0177479 -0.0177393 0.0177393 -0.0177479 0.0354872 -0.0177393 0.0177479 -0.0177436 0.0354829 -0.0177436 0.0354872 -0.0177436 0.0354872 -0.0177393 0.0532265 -0.0177479 0.0532351 -0.0177393 0.0887137 0 0.212919 0.0177393 0.088718 0.0177479 0.0532265 0.0177393 0.0532351 0.0177436 0.0354872 0.0177436 0.0354872 0.0177436 0.0354872 0.0177393 0.0354829 0.0177479 0.0177436 0.0177393 0.0354829 0.0177479 0.0177479 0.0177393 0.0177393 0.0177479 0.0354872 0.0177393 0.0177479 0.0177479 0.0177393 0.0177393 0.0177479 0.0177479 0.0177393 0.0177393 0 1.08235 0.0709744 0.0177393 -0.0177393 0.0177479 -0.0177479 0.0177393 -0.0177393 0.0177436 -0.0354872 0.0177436 -0.0177479 0.0177436 -0.0354872 0.0177393 -0.0177393 0.0177479 -0.0177479 0.0177393 -0.0354872 0.0177479 -0.0354829 0.0177393 -0.0177436 0.0177479 -0.0354829 0.0177393 -0.0354872 0.0177479 -0.0354872 0.0177393 -0.0354872 0.0177479 -0.0354872 0.0177393 -0.0354872 0.0177436 -0.0532308 0.0177436 -0.0532265 0.0177436 -0.0532351 0.0177436 -0.0709744 0.0177436 -0.0887137 0.0177393 -0.159692 0 -0.177432 -0.0177393 -0.159688 -0.0177436 -0.088718 -0.0177436 -0.0709744 -0.0177436 -0.0709744 -0.0177436 -0.0532265 -0.0177436 -0.0532308 -0.0177393 -0.0354872 -0.0177479 -0.0532265 -0.0177393 -0.0354872 -0.0177479 -0.0354872 -0.0177393 -0.0354872 -0.0177479 -0.0354872 -0.0177393 -0.0354872 -0.0177479 -0.0354829 -0.0177393 -0.0177479 -0.0177479 -0.0354872 -0.0177393 -0.0354872 -0.0177436 -0.0177393 -0.0177436 -0.0354872 -0.0177436 -0.0177479 -0.0177393 -0.0354872 -0.0177479 -0.0177393 -0.0177393 -0.0177436 -0.0177479 -0.0354872 -0.0177393 -0.0177393 -0.0177479 -0.0177479 -0.0177393 -0.0354872 -0.0177479 -0.0177393 -0.0177393 -0.0177479 -0.0177479 -0.0177393 -0.0177393 -0.0354872 -0.0177479 -0.0177479 -0.0177393 -0.0177393 -0.0177436 -0.0177479 -0.0177436 -0.0177393 -0.0177436 -0.0177436 -0.0177393 -0.0177436 -0.0177479 -0.0177436 -0.0177393 -0.0177393 -0.0177479 -0.0177479 -0.0177393 -0.0177393 -0.0177479 -0.0177479 -0.0177393 -0.0177393 -0.106462 0 -0.0177436 0.0177393z"/>
   <path id="_117936696" class="fil2" d="M2.3776 1.02911l-0.0177393 0.0354872 -0.0177479 0.479073 0 0.301633c0.223182,0.0807834 0.0779481,0.301637 0.727479,0.301637 0.152918,-0.0733769 0.229736,-0.0747318 0.334241,-0.215793 0.121309,-0.16374 0.109427,-0.27576 0.18031,-0.387476l0 -0.0177479 -0.0177393 -0.0354872 -0.0177436 -0.0354872 -0.0177436 -0.0177393 -0.0177436 -0.0354872 -0.0177393 -0.0354872 -0.0177479 -0.0354872 -0.0177393 -0.0354829 -0.0177479 -0.0354872 -0.0177393 -0.0177479 -0.0177479 -0.0354872 -0.0177393 -0.0354872 -0.0177479 -0.0354872 -0.0177393 -0.0354829 -0.0177479 -0.0354872 -0.0177393 -0.0177436 -0.0177436 -0.0354829 -0.0177436 -0.0354872 -0.0177436 -0.0354872 -0.0177436 -0.0354872 -0.0177436 -0.0354872 -0.0177393 -0.0354872 -0.0177479 0c-0.100592,0.0874281 -0.263262,0.248406 -0.443582,0.248406l-0.159692 0c-0.0845624,0 -0.13794,-0.0357686 -0.212919,-0.0532308z"/>
   <path id="_116976384" class="fil3" d="M5.94402 1.56141c0,0.302546 -0.19518,0.471775 -0.19518,0.58553 0,0.0876964 0.0719917,0.159688 0.159692,0.159688 0.174259,0 0.33712,-0.447577 0.33712,-0.6565l0 -0.248406c0,-0.0853849 -0.0486683,-0.19518 -0.124201,-0.19518l-0.0532351 0c-0.167471,0 -0.124197,0.13962 -0.124197,0.266154l0 0.0887137z"/>
   <path id="_116976288" class="fil4" d="M8.74746 1.88079l-0.0354829 0.0177436 -0.0177479 0.0177436 -0.0354872 0.0177436 -0.0354872 0.0177393 -0.0177393 0.0177479 -0.0354872 0.0177393 -0.0177479 0.0177479 0 0.0177393c-0.0327558,0.0682733 -0.354863,0.853464 -0.354863,0.869428 0,0.0747275 0.0550489,0.114743 0.106457,0.141945 0.255739,0.122707 0.406432,-0.721947 0.550047,-0.887167l0 -0.0354829 -0.0177479 -0.0709744 -0.0177393 -0.0887224 -0.0177436 -0.0709701 -0.0177436 -0.0177393 -0.0177436 0 -0.0177436 0.0177393z"/>
   <polygon id="_117935952" class="fil5" points="5.12782,2.6615 5.11008,2.7857 5.09234,2.9099 5.07459,3.03411 5.05685,3.17606 5.0391,3.35349 5.0391,3.38898 6.22791,3.45995 6.24565,3.318 6.24565,2.82119 6.22791,2.69698 5.14556,2.62601 "/>
   <path id="_116976192" class="fil6" d="M5.02136 3.56641l-0.0177479 0.390355 0 0.33712 0.0177479 0.283893c0.17683,-0.0848524 0.618472,-0.22842 0.905301,-0.198612l0.212525 0.0211806 0.0177479 -0.0887137 0.0177393 -0.12421 0.0177479 -0.159684 0.0177393 -0.177436 0.0177479 -0.212919 0 -0.177432 -1.18881 -0.0709744 -0.0177393 0.177432z"/>
   <path id="_116976120" class="fil7" d="M8.48131 2.04048l-0.0177393 0.0177393 -0.0354872 0.0177479 -0.0177479 0.0177393 -0.0354872 0.0177479 -0.0354872 0.0177393 -0.0177393 0.0177436 -0.0354872 0.0177436 -0.0177479 0.0177436 -0.0354829 0.0177436 -0.0354872 0.0177436 -0.0177393 0.0177393 -0.0354872 0.0177479 -0.0177479 0.0177393 -0.0354872 0.0177479 -0.0354872 0.0177393 -0.0177393 0.0177479 -0.0354872 0.0177393 -0.0177479 0.0177479 -0.0354829 0.0177393 -0.0354872 0.0177479 -0.0177393 0.0177393 -0.0354872 0.0177436 -0.0177479 0.0177436 -0.0354872 0.0177436 -0.0354872 0.0177393 -0.0177393 0.0177479 -0.0354872 0.0177393 -0.0177436 0.0177479 -0.0354872 0.0177393 -0.0177436 0.0177479 -0.0177436 0.0177393 -0.0177393 0.106462 -0.0177479 0.141945 -0.0177393 0.106462 -0.0177479 0.0709744 -0.0177393 0.088718 -0.0177479 0.0532265 -0.0177393 0.0709744 -0.0177479 0.0532308 -0.0177393 0.0532265 -0.0177479 0.0532351 -0.0177393 0.0532265 -0.0177436 0.0354872 0 0.0532308c0.0177133,0.212863 0.273102,0.470706 0.461325,0.514556l0.425838 -1.01137c-0.0514084,-0.027202 -0.106457,-0.0672171 -0.106457,-0.141945 0,-0.0159645 0.322108,-0.801155 0.354863,-0.869428l-0.0354829 0 -0.0354872 0.0177479z"/>
   <path id="_117935736" class="fil8" d="M1.8453 3.77933l0 -0.0354872 -0.0177393 -0.0532351 -0.0177479 -0.0354872 -0.0177393 -0.0354872 -0.0177479 -0.0532265 -0.0177393 -0.0354872 -0.0177479 0c-0.0857139,0.00712948 -0.340159,0.129036 -0.43624,0.167034 -0.0915447,0.0361971 -0.379953,0.128097 -0.379953,0.223321l0 0.0532265c0,0.0858307 0.0561181,0.141949 0.141949,0.141949l0.0177436 0c0.0946571,0 0.743734,-0.284002 0.762962,-0.33712z"/>
   <path id="_116976048" class="fil9" d="M8.30387 3.03411l-0.425838 1.01137c0.0708922,0.0492613 0.184617,0.0709744 0.301641,0.0709744l0.0177393 0c0.198859,0 0.261276,-0.0381667 0.390351,-0.106462l0.0177479 -0.0177393 0.0177393 -0.0354872 0.0177479 -0.0354872 0.0177393 -0.0532351 0.0177479 -0.0354829 0.0177393 -0.0354872 0.0177479 -0.0354872 0.0177393 -0.0354872 0.0177436 -0.0354872 0.0177436 -0.0177393 0.0177436 -0.0354872 0.0177436 -0.0354872 0.0177436 -0.0177479 0.0177393 -0.0354829 0.0177479 -0.0177436 0.0177393 -0.0354829 0.0177479 -0.0177479 0.0177393 -0.0354872 0.0177479 -0.0177393 0.0177393 -0.0354872 0.0177479 -0.0177479 0.0177393 -0.0177393 0.0177479 -0.0354872 0.0177393 -0.0177436 0.0177436 -0.0177436 0.0177436 -0.0177436 0.0177436 -0.0354872 0.0177393 -0.0177393 0 -0.106462 -0.0177393 -0.0709744 -0.0177436 -0.088718 -0.0177436 -0.0709744 -0.0177436 -0.0709744 -0.0177393 -0.0709701 -0.0177479 -0.0887137 -0.0177393 -0.0709744 -0.0177479 -0.0709744 -0.0177393 -0.088718 -0.0177479 -0.0709744 -0.0177393 -0.0709744 -0.0177479 -0.0887137 -0.0177393 -0.0354872c-0.143615,0.16522 -0.294308,1.00987 -0.550047,0.887167z"/>
   <path id="_116975976" class="fil8" d="M2.09371 4.3826l0 -0.0354872 -0.0177393 -0.0532308 -0.0177479 -0.0354872 -0.0177393 -0.0532265 -0.0177479 -0.0354872 -0.0177393 -0.0354872 -0.0177479 -0.0354872c-0.132213,0.0307992 -0.550039,0.177462 -0.550039,0.319381 0,0.0876964 0.0719874,0.159688 0.159688,0.159688l0.0177436 0c0.0393788,0 0.44446,-0.171129 0.479069,-0.195175z"/>
   <path id="_117937752" class="fil8" d="M2.32438 4.95039l0 -0.0532308 -0.0177479 -0.0354872 -0.0177393 -0.0532265 -0.0177479 -0.0354872 -0.0177393 -0.0532351 -0.0177479 -0.0354872 -0.0177393 0c-0.138936,0.0323705 -0.316073,0.124101 -0.446105,0.174912 -0.120158,0.0469584 -0.370088,0.110487 -0.370088,0.25093l0 0.0532351c0,0.0427206 0.0637324,0.106457 0.106462,0.106457l0.0354872 0c0.100107,0 0.745257,-0.271015 0.780706,-0.319381z"/>
   <path id="_116975904" class="fil10" d="M2.34212 1.88079l0.0177479 0.0709701 0.0177393 0.0887224 0.0177479 0.0709744 0.0177393 0.0709701 0.0177436 0.0709744 0.0177436 0.0887137 0.0177436 0.0709744 0.0177393 0.0709701 0.0177479 0.0709744 0.0177393 0.0887224 0.0177479 0.0709701 0.0177393 0.0709744 0.0177479 0.0709744 0.0177393 0.0887137 0.0177479 0.0709744 0.0177393 0.0709701 0.0177479 0.0887224 0.0177393 0.0709701 0.0177479 0.0709744 0.0177393 0.0709744 0.0177436 0.0887137 0.0177436 0.0709744 0.0177436 0.0709701 0.0177393 0.0709744 0.0177479 0.0887224 0.0177393 0.0709701 0.0177479 0.0709744 0.0177393 0.0709744 0.0177479 0.0887137 0.0177393 0.0709701 0.0177479 0.0709744 0.0177393 0.0887224 0.0177479 0.0709701 0.0177393 0.0709744 0.0177479 0.0709744 0.0177393 0.0887137 0.0177436 0.0709701 0.0177436 0.0709744 0.0177436 0.0709744 0.0177393 0.088718 0.0177479 0.0709744 0.0177393 0.0709744 0.0177479 0.0709744 0.0177393 0.0887137 0.0177479 0.0709701 0.0177393 0.0354872c0.00864021,0.00414696 0.325744,0.0620485 0.383269,0.0780563 0.11805,0.032851 0.23213,0.084952 0.326462,0.134863l-0.798445 -3.38897c-0.649531,0 -0.504297,-0.220854 -0.727479,-0.301637l0 0.0354872z"/>
   <path id="_116966232" class="fil11" d="M3.0696 2.14694l0.798445 3.38897 0.177436 0.106462c0.0586115,-0.122149 0.0920598,-0.206482 0.159156,-0.319917 0.0474,-0.0801341 0.180514,-0.235879 0.195712,-0.301096l0 -0.0177479 -0.0177436 -0.0709701 -0.0177436 -0.0709744 -0.0177436 -0.0709744 -0.0177436 -0.0887137 -0.0177393 -0.0709744 -0.0177479 -0.0709701 -0.0177393 -0.0709744 -0.0177479 -0.088718 -0.0177393 -0.0709744 -0.0177479 -0.0709744 -0.0177393 -0.0887137 -0.0177479 -0.0709744 -0.0177393 -0.0709701 -0.0177479 -0.0709744 -0.0177393 -0.0887224 -0.0177436 -0.0709701 -0.0177436 -0.0709744 -0.0177436 -0.0709744 -0.0177393 -0.0887137 -0.0177479 -0.0709701 -0.0177393 -0.0709744 -0.0177479 -0.0887224 -0.0177393 -0.0709701 -0.0177479 -0.0709744 -0.0177393 -0.0709744 -0.0177479 -0.0887137 -0.0177393 -0.0709701 -0.0177479 -0.0709744 -0.0177393 -0.0887224 -0.0177479 -0.0709701 -0.0177393 -0.0709744 -0.0177436 -0.0709744 -0.0177436 -0.0887137 -0.0177436 -0.0709744 -0.0177393 -0.0709701 -0.0177479 -0.0709744 -0.0177393 -0.088718 -0.0177479 -0.0709744 -0.0177393 -0.0709744 -0.0177479 -0.0887137 -0.0177393 -0.0709744 -0.0177479 -0.0709701 -0.0177393 -0.0709744 -0.0177479 -0.0887224 -0.0177393 -0.0709701 -0.0177479 -0.0532265c-0.0708835,0.111717 -0.0590011,0.223737 -0.18031,0.387476 -0.104505,0.141061 -0.181323,0.142416 -0.334241,0.215793z"/>
   <path id="_117937824" class="fil12" d="M4.70198 5.64238c0,0.0648449 0.0489627,0.141945 0.106462,0.141945l0.0887137 0c0.0852247,0 0.189544,-0.350751 0.33367,-0.464779 0.0668881,-0.0529105 0.186596,-0.111981 0.272768,-0.135326 0.0990292,-0.0268427 0.280725,-0.0101596 0.280725,-0.127365l0 -0.0887224c0,-0.0574903 -0.0770996,-0.106457 -0.141945,-0.106457l-0.0177393 0c-0.434708,0 -0.922655,0.397147 -0.922655,0.780706z"/>
   <path id="_116966304" class="fil11" d="M7.38122 3.56641l-0.0177393 0.0532265 -0.0177479 0.0354872 -0.0177393 0.0532351 -0.0177479 0.0354872 -0.0177393 0.0354872 -0.0177479 0.0532265 -0.0177393 0.0354829 -0.0177479 0.0532351 -0.0177393 0.0354872 -0.0177479 0.0354872 -0.0177393 0.0532265 -0.0177479 0.0354872 -0.0177393 0.0532308 -0.0177436 0.0354872 -0.0177436 0.0532265 -0.0177436 0.0354872 -0.0177393 0.0354872 -0.0177479 0.0532308 -0.0177393 0.0354872 -0.0177479 0.0532265 -0.0177393 0.0354872 -0.0177479 0.0532351 -0.0177393 0.0354872 -0.0177479 0.0354872 -0.0177393 0.0532265 0 0.0354829c0.0347816,0.0519495 0.210001,0.164913 0.2795,0.235056 0.101419,0.102367 0.159125,0.168406 0.247991,0.284309 0.0741388,0.0967003 0.138754,0.221217 0.194297,0.338003 0.0433266,0.0911162 0.103241,0.333592 0.147633,0.384667l0.0177479 -0.0532265 0.0177393 -0.0354872 0.0177479 -0.0532351 0.0177393 -0.0354829 0.0177479 -0.0354872 0.0177393 -0.0532265 0.0177436 -0.0354872 0.0177436 -0.0532351 0.0177436 -0.0354872 0.0177393 -0.0532265 0.0177479 -0.0354872 0.0177393 -0.0354829 0.0177479 -0.0532351 0.0177393 -0.0354872 0.0177479 -0.0532265 0.0177393 -0.0354872 0.0177479 -0.0354872 0.0177393 -0.0532308 0.0177479 -0.0354872 0.0177393 -0.0532265 0.0177479 -0.0354872 0.0177393 -0.0532351 0.0177436 -0.0354829 0.0177436 -0.0354872 0.0177436 -0.0532265 0.0177393 -0.0354872 0.0177479 -0.0532351 0.0177393 -0.0354872 0.0177479 -0.0354872 0.0177393 -0.0532265 0.0177479 -0.0354829 0.0177393 -0.0532351 0.0177479 -0.0354872 0.0177393 -0.0354872 0.0177479 -0.0532265 0.0177393 -0.0354872 0.0177479 -0.0532308 0.0177393 -0.0354872 0.0177436 -0.0532265 0.0177436 -0.0354872 0.0177436 -0.0354872 0.0177393 -0.0532308 0.0177479 -0.0354872 0.0177393 -0.0354872 0 -0.0354872c-0.129075,0.0682949 -0.191492,0.106462 -0.390351,0.106462l-0.0177393 0c-0.117024,0 -0.230749,-0.0217131 -0.301641,-0.0709744 -0.188223,-0.0438504 -0.443612,-0.301693 -0.461325,-0.514556l-0.0177436 0 -0.0177436 0.0354872z"/>
   <path id="_116966400" class="fil13" d="M3.9745 7.61189l0 0.141945c0,0.0730652 0.0532351,0.123067 0.0532351,0.248406 0,0.0858221 -0.0561268,0.141949 -0.141949,0.141949 -0.178432,0 -0.230667,-0.307645 -0.230667,-0.496817l0 -0.0354829c0,-0.405545 0.438309,-0.869428 0.85168,-0.869428l0.159692 0c0.244644,0 0.630827,0.210001 0.674248,0.372611 0.115375,-0.00257562 0.166562,-0.0709701 0.319381,-0.0709701l0.0887137 0c0.267474,0 0.674244,0.299867 0.674244,0.550039 0,0.0580834 -0.0666457,0.124205 -0.141945,0.124205l-0.0532265 0c-0.0997347,0 -0.190314,-0.354863 -0.496817,-0.354863l-0.0709701 0c-0.172523,0 -0.258929,0.141945 -0.354868,0.141945 -0.142572,0 -0.283439,-0.461325 -0.638761,-0.461325l-0.124205 0c-0.252679,0 -0.567787,0.307238 -0.567787,0.567787zm-1.77433 -0.727484l-0.0177436 0c-0.0858264,0 -0.141945,-0.0561138 -0.141945,-0.141945l0 -0.124201c0,-0.24819 0.370434,-0.656505 0.621013,-0.656505l0.0177479 0c0.0858221,0 0.141945,0.0561181 0.141945,0.141945 0,0.1362 -0.244952,0.206612 -0.359716,0.33228 -0.141616,0.155069 -0.0649921,0.448425 -0.261302,0.448425zm2.50181 -1.24203c0,-0.383559 0.487947,-0.780706 0.922655,-0.780706l0.0177393 0c0.0648449,0 0.141945,0.048967 0.141945,0.106457l0 0.0887224c0,0.117206 -0.181696,0.100523 -0.280725,0.127365 -0.0861727,0.023345 -0.20588,0.0824154 -0.272768,0.135326 -0.144126,0.114028 -0.248445,0.464779 -0.33367,0.464779l-0.0887137 0c-0.057499,0 -0.106462,-0.0770996 -0.106462,-0.141945zm0.319381 -1.0646l-0.0354872 0 -0.0354872 0.0177479 -0.0354872 0.0177393 -0.0354829 0.0177436 -0.0177479 0.0177436 -0.0354872 0.0177436 -0.0354872 0.0177393 -0.0177393 0.0177479 -0.0177479 0.0177393 -0.0354872 0.0177479 -0.0177393 0.0177393 -0.0354872 0.0177479 -0.0177436 0.0177393 -0.0177436 0.0177479 -0.0177436 0.0177393 -0.0354872 0.0177479 -0.0177393 0.0177393 -0.0177479 0.0177479 -0.0177393 0.0177393 -0.0177479 0.0177436 -0.0177393 0.0177436 -0.0177479 0.0177436 -0.0177393 0.0177393 -0.0177479 0.0177479 -0.0177393 0.0177393 -0.0177436 0.0177479c-0.0151983,0.0652172 -0.148312,0.220962 -0.195712,0.301096 -0.0670959,0.113435 -0.100544,0.197768 -0.159156,0.319917l-0.177436 -0.106462c-0.0943324,-0.0499107 -0.208413,-0.102012 -0.326462,-0.134863 -0.057525,-0.0160078 -0.374629,-0.0739093 -0.383269,-0.0780563l-0.33712 0 -0.106462 0.0177479 -0.0709701 0.0177393 -0.0709744 0.0177479 -0.0532351 0.0177393c-0.0237346,0.0323921 -0.327224,0.17683 -0.397446,0.223563 -0.151827,0.101042 -0.20704,0.169861 -0.325701,0.295321 -0.146975,0.155403 -0.37694,0.591578 -0.37694,0.882843l-0.000995616 0.145901 -0.158688 -0.0394437 -0.0177479 -0.0177479 -0.301633 0 -0.0887224 0.0177479 -0.0709701 0.0177393 -0.0532265 0.0177479 -0.0532351 0.0177393 -0.0354872 0.0177479 -0.0354872 0.0177393 -0.0354872 0.0177479 -0.0354829 0.0177393 -0.0354872 0.0177479 -0.0177393 0.0177393 -0.0354872 0.0177479 -0.0177479 0.0177393 -0.0177393 0.0177436 -0.0177479 0.0177436 -0.0354872 0.0177436 -0.0177393 0.0177393 -0.0177479 0.0177479 -0.0177393 0.0177393 -0.0177479 0.0177479 -0.0177393 0.0177393 -0.0177436 0.0177479 -0.0177436 0.0354872 -0.0177436 0.0177393 -0.0177393 0.0177479 -0.0177479 0.0354872 -0.0177393 0.0177393 -0.0177479 0.0354872 -0.0177393 0.0177436 -0.0177479 0.0354872 -0.0177393 0.0354872 -0.0177479 0.0354872 -0.0177393 0.0532265 -0.0177479 0.0532308 -0.0177393 0.0532308 -0.0177436 0.088718 0 0.408094 0.0177436 0.0709701 0.0177393 0.0709744 0.0177479 0.0354872 0.0177393 0.0532351 0.0177479 0.0354872 0.0177393 0.0354829 0.0177479 0.0354872 0.0177393 0.0354872 0.0177479 0.0177393 0.0177393 0.0354872 0.0177479 0.0177479 0.0177393 0.0177393 0.0177436 0.0354872 0.0177436 0.0177479 0.0177436 0.0177393 0.0177393 0.0177436 0.0177479 0.0177436 0.0177393 0.0177436 0.0177479 0.0177436 0.0177393 0.0177436 0.0177479 0.0177393 0.0177393 0.0177479 0.0354872 0.0177393 0.0177479 0.0177479 0.0177393 0.0177393 0.0354872 0.0177479 0.0177436 0.0177393 0.0354872 0.0177479 0.0354872 0.0177393 0.0354872 0.0177479 0.0354872 0.0177393 0.0532265 0.0177436 0.0354872 0.0177436 0.0709744 0.0177436 0.088718 0.0177393 7.27477 0 0.0887094 -0.0177393 0.0532351 -0.0177436 0.0532265 -0.0177436 0.0532351 -0.0177436 0.0354872 -0.0177393 0.0354829 -0.0177479 0.0354872 -0.0177393 0.0354872 -0.0177479 0.0177393 -0.0177393 0.0354872 -0.0177479 0.0177479 -0.0177393 0.0354872 -0.0177479 0.0177393 -0.0177393 0.0177479 -0.0177479 0.0177393 -0.0177393 0.0177436 -0.0177436 0.0177436 -0.0177436 0.0177436 -0.0177436 0.0177436 -0.0177436 0.0177436 -0.0177436 0.0177393 -0.0177393 0.0177479 -0.0177479 0.0177393 -0.0177393 0.0177479 -0.0354872 0.0177393 -0.0177479 0.0177479 -0.0354872 0.0177393 -0.0177393 0.0177479 -0.0354872 0.0177393 -0.0354872 0.0177479 -0.0354829 0.0177393 -0.0354872 0.0177436 -0.0532351 0.0177436 -0.0532265 0.0177436 -0.0532351 0.0177393 -0.0887094 0 -0.390355 -0.0177393 -0.0709744 -0.0177436 -0.0709744 -0.0177436 -0.0532308 -0.0177436 -0.0532265 -0.0177393 -0.0354872 -0.0177479 -0.0354872 -0.0177393 -0.0354872 -0.0177479 -0.0177436 -0.0177393 -0.0354872 -0.0177479 -0.0177393 -0.0177393 -0.0354872 -0.0177479 -0.0177479 -0.0177393 -0.0177393 -0.0177479 -0.0354872 -0.0177393 -0.0177479 -0.0177436 -0.0177393 -0.0177436 -0.0177479 -0.0177436 -0.0177393 -0.0177436 -0.0177479 -0.0177436 -0.0177393 -0.0354872 -0.0177436 -0.0177393 -0.0177436 -0.0177479 -0.0177436 -0.0177393 -0.0177393 -0.0354872 -0.0177479 -0.0177479 -0.0177393 -0.0354872 -0.0177479 -0.0354829 -0.0177393 -0.0354872 -0.0177479 -0.0354872 -0.0177393 -0.0354872 -0.0177479 -0.0532265 -0.0177393 -0.0532351 -0.0177479 -0.0709701 -0.0177393 -0.0887137 -0.0177479 -0.301641 0 -0.0734029 0.0174276 0.0201764 -0.0706541 0.0177393 -0.0709701 0.0177479 -0.106462 0.0177393 -0.141945 0 -0.337129 -0.0177393 -0.141945 -0.0177479 -0.106462c-0.0443915,-0.0510751 -0.104306,-0.293551 -0.147633,-0.384667 -0.0555424,-0.116786 -0.120158,-0.241303 -0.194297,-0.338003 -0.0888652,-0.115903 -0.146572,-0.181942 -0.247991,-0.284309 -0.0694983,-0.0701433 -0.244718,-0.183107 -0.2795,-0.235056l-0.0177479 -0.0177393 -0.0354872 -0.0177436 -0.0177393 -0.0177436 -0.0354872 -0.0177436 -0.0354829 -0.0177393 -0.0354872 -0.0177479 -0.0354872 -0.0177393 -0.0354872 -0.0177479 -0.0354872 -0.0177393 -0.0532308 -0.0177479 -0.0354872 -0.0177393 -0.0532265 -0.0177479 -0.0532351 -0.0177393 -0.0709744 -0.0177479 -0.0709701 -0.0177393 -0.0887137 -0.0177436 -0.0887224 0 -0.212525 -0.0211806c-0.286828,-0.0298079 -0.728471,0.11376 -0.905301,0.198612z"/>
   <path id="_117936528" class="fil12" d="M2.20017 6.88441c0.196309,0 0.119686,-0.293356 0.261302,-0.448425 0.114764,-0.125668 0.359716,-0.19608 0.359716,-0.33228 0,-0.0858264 -0.0561224,-0.141945 -0.141945,-0.141945l-0.0177479 0c-0.250579,0 -0.621013,0.408315 -0.621013,0.656505l0 0.124201c0,0.0858307 0.0561181,0.141945 0.141945,0.141945l0.0177436 0z"/>
   <path id="_116966496" class="fil9" d="M1.36624 3.14057l-0.0354872 0.0177393 -0.0532308 0.0177479 -0.0354872 0.0177393 -0.0354872 0.0177479 -0.0532265 0.0177393 -0.0354872 0.0177436 -0.0532308 0.0177436 -0.0354872 0.0177436 -0.0532265 0.0177436 -0.0354872 0.0177436 -0.0354872 0.0177393 -0.0532351 0.0177479 -0.0354829 0.0177393 -0.0532265 0.0177479 -0.0354872 0.0177393 -0.0354872 0.0177479 -0.0532351 0.0177393 -0.0354872 0.0177479 -0.0532265 0.0177393 -0.0354872 0.0177479 -0.0532308 0.0177393 -0.0354872 0.0177436 -0.0354872 0.0177436 -0.0532265 0.0177436 -0.0354872 0.0177393 -0.0532308 0.0177479 -0.0354872 0.0177393 -0.0354872 0.0177479 -0.0532265 0.0177393 -0.0354872 0.0177479 -0.0354872 0.0177393 -0.0177479 0.0177479 -0.0177393 0.0177393 -0.0177436 0.0354872 0 0.124205 0.0177436 0.0532265 0.0177393 0.0354872 0.0177479 0.0354872 0.0177393 0.0532351 0.0177479 0.0354829 0.0177393 0.0532265 0.0177479 0.0354872 0.0177393 0.0354872 0.0177479 0.0532351 0.0177393 0.0354872 0.0177479 0.0532265 0.0177393 0.0354872 0.0177436 0.0532308 0.0177436 0.0354872 0.0177436 0.0354872 0.0177393 0.0532265 0.0177479 0.0354872 0.0177393 0.0532308 0.0177479 0.0354872 0.0177393 0.0354872 0.0177479 0.0532265 0.0177393 0.0354872 0.0177479 0.0532351 0.0177393 0.0354829 0.0177479 0.0532265 0.0177393 0.0354872 0.0177479 0.0354872 0.0177393 0.0532351 0.0177436 0.0354872 0.0177436 0.0532265 0.0177436 0.0354872 0.0177393 0.0354829 0.0177479 0.0532351 0.0177393 0.0354872 0.0177479 0.0532265 0.0177393 0.0354872 0.0177479 0.0354872 0.0177393 0.0532308 0.0177479 0.0354872 0.0177393 0.0532265 0.0177479 0.0354872 0.0177393 0.0532351 0.0177479 0.0354829 0.0177393 0.0354872 0.0177436 0.0532265 0.0177436 0.0354872 0.0177436 0.0532351 0.0177393 0.0354872 0.0177479 0.0354872 0.0177393 0.0532265 0.0177479 0.0354829 0.0177393 0.0532351 0.0177479 0.0354872 0.0177393 0.0354872 0.0177479 0.0532265 0.0177393 0.0354872 0.0177479 0.0532308 0.0177393 0.0354872 0.0177436 0.0532265 0.0177436 0.0354872 0.0177436 0.0354872 0.0177436 0.0532308 0.0177436 0.0354872 0.0177393 0.0532265 0.0177479 0.0354872 0.0177393 0.0354872 0.0177479 0.0532351 0.0177393 0.0354872 0.0177479 0.0532265 0.0177393 0.0354829 0.0177479 0.0177479 0.158688 0.0394437 0.000995616 -0.145901c0,-0.291265 0.229966,-0.72744 0.37694,-0.882843 0.11866,-0.125461 0.173873,-0.194279 0.325701,-0.295321 0.0702212,-0.0467333 0.373711,-0.191171 0.397446,-0.223563l0 -0.0177393 -0.0177393 -0.0532351 -0.0177479 -0.0354872 -0.0177393 -0.0532265 -0.0177436 -0.0354872 -0.0177436 -0.0354829 -0.0177436 -0.0532351 -0.0177393 -0.0354872 -0.0177479 -0.0532265 -0.0177393 -0.0354872 -0.0177479 -0.0354872 -0.0177393 0c-0.0354483,0.0483653 -0.680599,0.319381 -0.780706,0.319381l-0.0354872 0c-0.0427292,0 -0.106462,-0.0637367 -0.106462,-0.106457l0 -0.0532351c0,-0.140442 0.24993,-0.203971 0.370088,-0.25093 0.130032,-0.050811 0.307169,-0.142542 0.446105,-0.174912l0 -0.0354829 -0.0177436 -0.0532265 -0.0177436 -0.0354872 -0.0177436 -0.0532351 -0.0177436 -0.0354872 -0.0177436 -0.0532265 -0.0177393 -0.0354872 -0.0177479 0c-0.0346085,0.0240463 -0.43969,0.195175 -0.479069,0.195175l-0.0177436 0c-0.0877008,0 -0.159688,-0.0719917 -0.159688,-0.159688 0,-0.141919 0.417825,-0.288581 0.550039,-0.319381l0 -0.0177436 -0.0177393 -0.0354872 -0.0177479 -0.0532265 -0.0177393 -0.0354872 -0.0177436 -0.0354872 -0.0177436 -0.0532351 -0.0177436 -0.0354829 -0.0177393 -0.0532265 -0.0177479 0c-0.0192284,0.0531183 -0.668305,0.33712 -0.762962,0.33712l-0.0177436 0c-0.0858307,0 -0.141949,-0.0561181 -0.141949,-0.141949l0 -0.0532265c0,-0.0952242 0.288408,-0.187124 0.379953,-0.223321 0.0960813,-0.0379979 0.350526,-0.159905 0.43624,-0.167034l0 -0.0532308 -0.0177393 -0.0354872 -0.0177479 -0.0354872 -0.0177393 -0.0532265 -0.0177479 -0.0354872 -0.0177393 -0.0532308 -0.0177436 -0.0354872 -0.0177436 -0.0354872 -0.0177436 -0.0177393 -0.0177393 -0.0177479 -0.0177479 -0.0177393 -0.0354872 -0.0177479 -0.106462 0 -0.0532265 0.0177479z"/>
   <path id="_116966616" class="fil12" d="M3.9745 7.61189c0,-0.260548 0.315108,-0.567787 0.567787,-0.567787l0.124205 0c0.355322,0 0.496189,0.461325 0.638761,0.461325 0.0959384,0 0.182345,-0.141945 0.354868,-0.141945l0.0709701 0c0.306503,0 0.397082,0.354863 0.496817,0.354863l0.0532265 0c0.0752989,0 0.141945,-0.0661219 0.141945,-0.124205 0,-0.250172 -0.40677,-0.550039 -0.674244,-0.550039l-0.0887137 0c-0.152818,0 -0.204006,0.0683945 -0.319381,0.0709701 -0.0434218,-0.16261 -0.429604,-0.372611 -0.674248,-0.372611l-0.159692 0c-0.413371,0 -0.85168,0.463883 -0.85168,0.869428l0 0.0354829c0,0.189171 0.0522352,0.496817 0.230667,0.496817 0.0858221,0 0.141949,-0.0561268 0.141949,-0.141949 0,-0.125339 -0.0532351,-0.175341 -0.0532351,-0.248406l0 -0.141945z"/>
  </g>
 </g>
</svg>
