<?xml version="1.0" encoding="UTF-8"?>
<!DOCTYPE svg PUBLIC "-//W3C//DTD SVG 1.1//EN" "http://www.w3.org/Graphics/SVG/1.1/DTD/svg11.dtd">
<!-- Creator: CorelDRAW -->
<svg xmlns="http://www.w3.org/2000/svg" xml:space="preserve" width="7.02292in" height="6.6264in" style="shape-rendering:geometricPrecision; text-rendering:geometricPrecision; image-rendering:optimizeQuality; fill-rule:evenodd; clip-rule:evenodd"
viewBox="0 0 6.90912 6.51903"
 xmlns:xlink="http://www.w3.org/1999/xlink">
 <defs>
  <style type="text/css">
   <![CDATA[
    .fil16 {fill:#043575}
    .fil9 {fill:#0D2544}
    .fil15 {fill:#0E67AA}
    .fil12 {fill:#174682}
    .fil8 {fill:#18DCD8}
    .fil2 {fill:#1C355D}
    .fil10 {fill:#1C528E}
    .fil7 {fill:#23CCC2}
    .fil14 {fill:#24ABE2}
    .fil17 {fill:#3679BD}
    .fil11 {fill:#4394B8}
    .fil6 {fill:#628DD2}
    .fil0 {fill:#8CC3E3}
    .fil1 {fill:#C1D7EC}
    .fil18 {fill:#D2D0D0}
    .fil13 {fill:#EACE9E}
    .fil5 {fill:#F6CB4E}
    .fil4 {fill:#FDFFFF}
    .fil3 {fill:#FEB681}
   ]]>
  </style>
 </defs>
 <g id="Layer_x0020_1">
  <metadata id="CorelCorpID_0Corel-Layer"/>
  <g id="_117213848">
   <path id="_116910608" class="fil0" d="M2.46808 0.352582c0,0.0172861 0.00522109,0.0225034 0.0225072,0.0225034l0.825192 0c0.0175611,0 0.0300058,-0.0124446 0.0300058,-0.0300058l0 -0.0225072c0,-0.0172823 -0.00521722,-0.0225034 -0.0225034,-0.0225034l-0.855202 0 0 0.052513z"/>
   <polygon id="_116988912" class="fil1" points="2.39306,1.05024 4.10346,1.05024 4.10346,0.855202 2.39306,0.855202 "/>
   <path id="_116903960" class="fil1" d="M1.7104 0.907711l0 0.0300097c0,0.0243044 0.0326008,0.0450106 0.0600154,0.0450106 0.0370783,0 0.067514,-0.0304396 0.067514,-0.0675178l0 -0.00750241c0,-0.0245562 -0.0281776,-0.0525091 -0.0600116,-0.0525091l-0.0225072 0c-0.0233632,0 -0.0450106,0.0237312 -0.0450106,0.0525091z"/>
   <path id="_117218216" class="fil1" d="M2.17551 0.907711l0 0.00750241c0,0.0334529 0.0303776,0.0675178 0.0600116,0.0675178 0.0367452,0 0.0750203,-0.0259544 0.0750203,-0.0600154 0,-0.0309354 -0.0252146,-0.067514 -0.052513,-0.067514l-0.0225072 0c-0.0318339,0 -0.0600116,0.027953 -0.0600116,0.0525091z"/>
   <path id="_116931656" class="fil1" d="M1.94295 0.915213l0 0.00750241c0,0.0387089 0.0312336,0.0600154 0.0675178,0.0600154l0.00749854 0c0.02456,0 0.052513,-0.0281815 0.052513,-0.0600154l0 -0.00750241c0,-0.0274146 -0.0207023,-0.0600116 -0.0450106,-0.0600116l-0.0225034 0c-0.0362881,0 -0.0600154,0.0237273 -0.0600154,0.0600116z"/>
   <polygon id="_116904008" class="fil1" points="2.40056,1.2678 3.38329,1.2678 3.38329,1.17027 2.40056,1.17027 "/>
   <polygon id="_117217736" class="fil1" points="2.40056,1.51536 3.38329,1.51536 3.38329,1.41783 2.40056,1.41783 "/>
   <path id="_116900000" class="fil2" d="M4.80863 1.02024l-0.00750241 0.00750241 -0.00750241 0.015001 -0.00750241 0.0150048 -0.00750241 0.0150048 -0.00750241 0.067514 0 0.0150048 0.00750241 0.0750164 0.00750241 0.00750241 0.00750241 0.0225034 0.00750241 0.00750241c0.0425201,0.0113563 0.0841882,0.0975236 0.187541,0.0975236l0.0375121 0c0.035591,0 0.0541824,-0.008401 0.0825188,-0.0150048 -0.0013014,0.0583383 -0.0450106,0.0807487 -0.0450106,0.120031 0,0.0367529 0.0277361,0.0406223 0.0525091,0.052513l0.0450106 0c0.0561616,-0.0297192 0.127533,-0.112474 0.127533,-0.195047l0 -0.0300058c0,-0.0378916 -0.0150319,-0.0516803 -0.052513,-0.052513 0.00292428,-0.0351688 0.015001,-0.0370976 0.015001,-0.0750203l0 -0.015001c0,-0.0463507 -0.0498056,-0.0793118 -0.0808649,-0.0991775 -0.0496585,-0.0317642 -0.119403,-0.0323917 -0.136686,-0.0433567l-0.0375082 0 -0.0375082 0.00750241 -0.052513 0.00750241 -0.0450106 0 -0.015001 -0.00750241 -0.0150048 -0.00750241 -0.0150048 0 -0.00749854 0.00750241z"/>
   <path id="_116905712" class="fil3" d="M4.79362 1.2903l0 0.0450106c0,0.0840294 -0.052513,0.105917 -0.052513,0.202546 0,0.0406029 0.0731766,0.105026 0.120027,0.105026l0.0450106 0c0.0705738,0 0.110189,-0.0489845 0.157539,-0.0600154l0.015001 -0.00750241 0.00750241 -0.00749854 0.0150048 -0.00750241 0.00750241 -0.0150048 0.00749854 -0.00750241 0 -0.015001c-0.0247731,-0.0118908 -0.0525091,-0.0157601 -0.0525091,-0.052513 0,-0.0392821 0.0437092,-0.0616925 0.0450106,-0.120031 -0.0283364,0.00660383 -0.0469278,0.0150048 -0.0825188,0.0150048l-0.0375121 0c-0.103353,0 -0.145021,-0.0861674 -0.187541,-0.0975236l-0.00750241 0.0225072z"/>
   <polygon id="_117213224" class="fil1" points="2.40056,1.76291 3.38329,1.76291 3.38329,1.66539 2.40056,1.66539 "/>
   <polygon id="_116900864" class="fil1" points="3.51833,1.75541 4.10346,1.75541 4.10346,1.17027 3.51833,1.17027 "/>
   <path id="_116904728" class="fil1" d="M1.7104 1.86044l-0.0668943 0.150683 0.0461997 -0.0441159 0.0118249 0.0101827 -0.088654 0.130806 0.142534 0.150037 0.0450106 0.0300058c0.0666154,-0.01552 0.156276,-0.0534194 0.220026,-0.0800477 0.0652404,-0.0272481 0.102814,-0.129052 0.162566,-0.145005l0.00223097 0.0182428 0.0855554 -0.0589852 0.00579045 0.00576721 -0.0401032 0.0590897 0.0740558 -0.0391156 0 -0.877709 -0.600143 0 0 0.690164z"/>
   <path id="_117214256" class="fil2" d="M1.19278 1.33531l-0.0450106 0.00750241 -0.0225034 0.00749854 -0.0225072 0.00750241 -0.0300058 0.00750241 -0.0150048 0.00750241 -0.0225034 0.00750241 -0.0375121 0.00750241 -0.015001 0.00749854 -0.00750241 0.0150048 -0.00750241 0.0375082 0 0.0150048 -0.0150048 0 -0.00750241 0.00750241 -0.00749854 0.00750241 -0.0150048 0.00749854 -0.00750241 0.0150048 -0.00750241 0.00750241 -0.00750241 0.00750241 -0.00749854 0.00750241 0 0.157535 0.00749854 0.0150048 0.0150048 0 0 0.015001 0.00750241 0.0450106 0.0150048 0.00750241 0.0225034 0 0 0.0150048 0.00750241 0.0300058 0.00750241 0.00750241 0.00750241 0.00750241 0.00749854 0.00749854 0.00750241 0.00750241 0.00750241 0.00750241 0.00750241 0.00750241 0.00750241 0.00750241 0.00750241 0.00750241 0.00750241 0.00749854 0.00749854 0.00750241 0.00750241 0.00750241 0.00750241 0.00750241 0.0150048 0.00750241 0.00750241 0.00750241 0.015001 0.00749854 0.00750241 0.00750241 0.0150048 0.00750241 0.015001 0 0.0750203 0.0300058c0.0847072,0 0.0984571,-0.0875927 0.127529,-0.14253 -0.0121541,-0.0181537 -0.0375082,-0.0540701 -0.0375082,-0.0825188 0,-0.0173404 0.00838551,-0.0450106 0.0225034,-0.0450106 0.0424504,0 0.0307649,0.0179214 0.0636872,0.0370628l-0.0154425 -0.143278 0.0642798 -0.0363191 -0.00749854 -0.052513c0.0158337,-0.0036873 0.0600116,-0.0138855 0.0600116,-0.0300058 0,-0.0202608 -0.00358272,-0.0206868 -0.00735136,-0.03843l-0.0526602 -0.00658059c0.0085017,-0.0318456 0.015001,-0.0131263 0.015001,-0.0375082l0 -0.00750241c0,-0.0572964 -0.0845406,0.0111122 -0.0975198,-0.0375082l-0.0300097 0 0 -0.0150048 -0.067514 0 -0.052513 0.00750241z"/>
   <path id="_116900912" class="fil3" d="M1.20778 1.96546c-0.0197766,0.041974 0.125484,0.0563398 0.14296,-0.00913691l0.0295797 0.00913691 0 -0.0525091c0.0594422,-0.0138506 0.105022,-0.0305984 0.105022,-0.105026l0.00174682 -0.00766509 -0.00924923 -0.112362c0.0167207,-0.00446581 0.0225072,-0.00175457 0.0225072,-0.0225072 0,-0.0259079 -0.0236305,-0.0325272 -0.0422141,-0.0383642l-0.0253037 -0.0741604 -0.0642798 0.0363191 0.0154425 0.143278c-0.0329223,-0.0191414 -0.0212368,-0.0370628 -0.0636872,-0.0370628 -0.0141179,0 -0.0225034,0.0276702 -0.0225034,0.0450106 0,0.0284487 0.0253541,0.0643651 0.0375082,0.0825188 -0.0290723,0.0549377 -0.0428222,0.14253 -0.127529,0.14253z"/>
   <polygon id="_116918576" class="fil1" points="2.40056,2.00297 4.10346,2.00297 4.10346,1.91295 2.40056,1.91295 "/>
   <polygon id="_117217928" class="fil3" points="1.50785,2.01047 1.50785,2.02547 1.61288,2.10799 1.70153,1.97719 1.6897,1.967 1.6435,2.01112 1.7104,1.86044 1.68039,1.87544 1.67758,1.83558 1.63538,1.88294 1.63538,1.86044 1.62372,1.86302 1.59787,1.89044 1.59787,1.87544 1.58383,1.87597 "/>
   <polygon id="_116931944" class="fil1" points="2.40056,2.25053 4.10346,2.25053 4.10346,2.153 2.40056,2.153 "/>
   <path id="_116903648" class="fil4" d="M1.73291 4.21599l0.17254 -0.17254 2.18301 0c0.00906332,0.0135369 0.015001,0.0131844 0.015001,0.0300058l0 0.525122c0,0.0230611 -0.0219766,0.0300097 -0.0450106,0.0300097l-2.28803 0c-0.0202608,0 -0.020683,-0.00358272 -0.0438022,-0.00748305l0.00629397 -0.405115zm-0.00750241 -0.442604l1.2678 0 0 0.0975236 -1.2678 0 0 -0.0975236zm1.42533 -0.772683l0.952721 0 0 0.862704 -0.952721 0 0 -0.862704zm-1.42533 0.510122l1.2753 0 0 0.105022 -1.2753 0 0 -0.105022zm0 -0.255063l1.2678 0 0 0.105026 -1.2678 0 0 -0.105026zm0 -0.255059l1.2678 0 0 0.105026 -1.2678 0 0 -0.105026zm0 -0.255059l2.37806 0 0 0.105026 -2.37806 0 0 -0.105026zm0 -0.255059l2.37806 0 0 0.105022 -2.37806 0 0 -0.105022zm0.675159 -0.337581l1.7029 0 0 0.0975236 -1.7029 0 0 -0.0975236zm0 -0.240054l1.7029 0 0 0.0900212 -1.7029 0 0 -0.0900212zm0 -0.24756l0.982731 0 0 0.0975236 -0.982731 0 0 -0.0975236zm1.11776 -0.495117l0.585134 0 0 0.585138 -0.585134 0 0 -0.585138zm-1.11776 0.24756l0.982731 0 0 0.0975236 -0.982731 0 0 -0.0975236zm0 -0.24756l0.982731 0 0 0.0975236 -0.982731 0 0 -0.0975236zm-0.00750241 -0.31507l1.7104 0 0 0.195043 -1.7104 0 0 -0.195043zm-0.450106 0.0600116c0,-0.0362843 0.0237273,-0.0600116 0.0600154,-0.0600116l0.0225034 0c0.0243083,0 0.0450106,0.032597 0.0450106,0.0600116l0 0.00750241c0,0.0318339 -0.027953,0.0600154 -0.052513,0.0600154l-0.00749854 0c-0.0362843,0 -0.0675178,-0.0213065 -0.0675178,-0.0600154l0 -0.00750241zm0.232555 -0.00750241c0,-0.0245562 0.0281776,-0.0525091 0.0600116,-0.0525091l0.0225072 0c0.0272984,0 0.052513,0.0365786 0.052513,0.067514 0,0.034061 -0.0382751,0.0600154 -0.0750203,0.0600154 -0.029634,0 -0.0600116,-0.0340649 -0.0600116,-0.0675178l0 -0.00750241zm-0.465111 0c0,-0.028778 0.0216474,-0.0525091 0.0450106,-0.0525091l0.0225072 0c0.0318339,0 0.0600116,0.027953 0.0600116,0.0525091l0 0.00750241c0,0.0370783 -0.0304357,0.0675178 -0.067514,0.0675178 -0.0274146,0 -0.0600154,-0.0207062 -0.0600154,-0.0450106l0 -0.0300097zm-0.202546 1.10276l0.0759769 -0.134505 0.0140443 -0.00053063 0 0.0150048 0.0258459 -0.0274223 0.0116622 -0.00258343 0 0.0225034 0.0421948 -0.0473578 0.00281583 0.0398554 0.0300058 -0.015001 0 -0.690164 0.600143 0 0 0.877709 -0.0509289 0.070078 0.0568471 -0.0351339 0.00568588 0.00627073 -0.0484694 0.0578619 0.0443638 -0.016558c-0.0611038,0.0912529 -0.170325,0.115449 -0.255078,0.172521 -0.0421909,0.0284061 -0.228938,0.157555 -0.277543,0.157555 -0.0325311,0 -0.0231579,-0.0119334 -0.0600154,-0.015001 -0.00141372,0.0170034 -0.0161823,0.067514 -0.0300058,0.067514 -0.0274998,0 -0.0599535,-0.0369814 -0.0900212,-0.0450106l-0.00510102 0.0452391 0.0282164 0.637724 0.00797882 0.000600348 -0.0160932 0.0216009 0.0150048 0.262561 0.0071577 0.262879 -0.0521683 1.01992c0.00419856,0.00604221 0.0150048,0.0185217 0.0150048,0.0225072 0,0.0127041 -0.00999289,0.0280343 -0.0150048,0.0375082l-0.0225072 0 0 0.0225072 0.4201 0.00749854 0 0.0675178 2.31054 0 0 -4.2685 -2.79065 0 0 1.40283z"/>
   <path id="_117217784" class="fil3" d="M1.75541 2.25803c-0.0187192,0.0279569 -0.0600116,0.0899283 -0.0600116,0.135032l0 0.00750241c0,0.0186534 0.0187541,0.0282086 0.0300058,0.0450106 0.0368575,0.00306758 0.0274843,0.015001 0.0600154,0.015001 0.0486049,0 0.235352,-0.129148 0.277543,-0.157555 0.0847536,-0.0570718 0.193974,-0.0812678 0.255078,-0.172521l-0.0443638 0.016558 0.0484694 -0.0578619 -0.00568588 -0.00627073 -0.0568471 0.0351339 0.0509289 -0.070078 -0.0740558 0.0391156 0.0401032 -0.0590897 -0.00579045 -0.00576721 -0.0855554 0.0589852 -0.00223097 -0.0182428c-0.0597521,0.0159538 -0.0973261,0.117757 -0.162566,0.145005 -0.0637492,0.0266283 -0.15341,0.0645277 -0.220026,0.0800477l-0.0450106 -0.0300058z"/>
   <polygon id="_116912720" class="fil1" points="1.7254,2.59561 4.10346,2.59561 4.10346,2.49058 1.7254,2.49058 "/>
   <path id="_116905184" class="fil5" d="M1.13276 1.94295l0.0150048 0.00750241 0 0.00750241 -0.0225034 0.00749854 -0.00750241 0.00750241 -0.0225072 0.00750241 -0.00750241 0.00750241 -0.00749854 0.00750241 -0.0150048 0.00750241 -0.00750241 0.00750241 -0.00750241 0.00749854 -0.00750241 0.00750241 -0.00749854 0.00750241 -0.00750241 0.00750241 -0.00750241 0.00750241 -0.00750241 0.015001 -0.00750241 0.0150048 -0.00750241 0.00750241 -0.00750241 0.0300058 -0.00749854 0.00750241 -0.00750241 0.0300058 -0.00750241 0.0225072 -0.00750241 0.0225034 -0.00750241 0.0450106 -0.00750241 0.0450106 -0.00749854 0.0600154 0 0.34508 0 0.17254 0 0.322577 0.00749854 0.00750241c0.101637,0.023677 0.205761,0.0825188 0.330079,0.0825188l0.0225072 0c0.180093,0 0.216962,-0.034305 0.322573,-0.105026l0.0160932 -0.0216009 -0.00797882 -0.000600348 -0.0282164 -0.637724 0.00510102 -0.0452391c0.0300678,0.00802917 0.0625214,0.0450106 0.0900212,0.0450106 0.0138235,0 0.0285921,-0.0505106 0.0300058,-0.067514 -0.0112517,-0.016802 -0.0300058,-0.0263572 -0.0300058,-0.0450106l0 -0.00750241c0,-0.0451036 0.0412923,-0.107075 0.0600116,-0.135032l-0.142534 -0.150037 -0.105022 -0.0825188 -0.127529 -0.0600154 -0.0295797 -0.00913691c-0.0174759,0.0654767 -0.162737,0.0511109 -0.14296,0.00913691l-0.0750203 -0.0300058 0 0.00750241z"/>
   <path id="_117213032" class="fil6" d="M4.42604 2.62562l0.0225034 0 0.0150048 -0.00750241 0.0225072 -0.00750241 0.015001 -0.00750241 0.0300097 -0.00750241 0.00749854 -0.00750241 0.00750241 -0.00749854 0.0225072 -0.00750241 0.00750241 -0.00750241 0.00749854 -0.00750241 0.0225072 -0.00750241 0.00750241 -0.00750241 0.015001 -0.00749854 0.00750241 -0.00750241 0.00750241 -0.00750241 0.0150048 -0.00750241 0.00750241 -0.00750241 0.015001 -0.00750241 0.00750241 -0.00749854 0.0150048 -0.00750241 0.00750241 -0.00750241 0.00749854 -0.00750241 0.00750241 -0.00750241 0.0150048 -0.00749854 0.00750241 -0.00750241 0.00750241 -0.00750241 0.015001 -0.00750241 0.00750241 -0.00750241 0.00750241 -0.00750241 0.00750241 -0.00749854 0.00750241 -0.00750241 0.015001 -0.00750241 0.00750241 -0.00750241 0.00750241 -0.00750241 0.00750241 -0.00750241 0.00750241 -0.00749854 0.015001 -0.00750241 0.00750241 -0.0150048 0.0150048 -0.00750241 0 -0.015001 0.0150048 0 0.00749854 -0.00750241 0.00818797 -0.0149893 -0.00818797 0.0975081 -0.00749854 0.0450106 -0.00750241 0.0450106 -0.00750241 0.0225034 -0.00750241 0.0225072 -0.00750241 0.0375082 -0.00750241 0.0150048 -0.00749854 0.015001 -0.00750241 0.0300097 -0.00750241 0.015001 -0.00750241 0.0225072 -0.00750241 0.015001 -0.00750241 0.00750241 -0.00749854 0.0225072 -0.00750241 0.00750241 -0.00750241 0.015001 -0.00750241 0.0225072 -0.00750241 0.00750241 -0.00750241 0.0300058 0 0.0375082 0 0.0375082 0.00750241 0.00750241 0.0150203 -0.0301336 0.0819339 0.00794783 0.0155742 0.0221858 0 -0.0225034 0.015001 0 0.00750241 -0.0150048 0.00750241 -0.00750241 0.00750241 -0.00750241 0.00750241 -0.00750241 0.00749854 -0.00749854 0 -0.0150048 0.0150048 0 0.00750241 -0.0150048 0.00750241 -0.00750241 0.00750241 -0.00749854 0.00749854 -0.00750241 0.00750241 -0.0150048 0.00750241 -0.00750241 0.00750241 -0.00750241 0.00750241 -0.015001 0.00750241 -0.00750241 0.00749854 -0.0150048 0.00750241 -0.00750241 0.00750241 -0.00749854 0.00750241 -0.0150048 0.00750241 -0.0150048 0.00750241 -0.00750241 0.00749854 -0.015001 0.00750241 -0.00750241 0.00750241 -0.0150048 0.00750241 -0.015001 0.00750241 -0.00750241 0.00749854 -0.0225072 0.00750241 -0.015001 0.00750241 -0.0150048 0.00750241 -0.0150048 0.00750241 -0.015001 0.00750241 -0.0150048 0.00749854 -0.0225034 0.00750241 -0.00750241 0.00750241 -0.0300097 0.00750241 -0.015001 0.00750241 -0.0225072 0.00750241 -0.0225034 0.00749854 -0.0150048 0.000375702 -0.0236305 0.0146291 0.00862565 0.00750241 0c-0.0085017,-0.0318456 -0.0150048,-0.0131224 -0.0150048,-0.0375082l0 -0.015001c0,-0.0479388 0.0150048,-0.0570873 0.0150048,-0.105026l0 -0.105026c0,-0.075915 -0.00804079,-0.1377 -0.025478,-0.199571 -0.00843198,-0.0299167 -0.0645432,-0.166324 -0.0645432,-0.168012 0,-0.0347156 0.0122781,-0.0497592 0.0150048,-0.0825188l-0.00750241 0 -0.00750241 0.015001 -0.00750241 0.0225072 -0.00750241 0.00749854 -0.00750241 -0.00749854 -0.00749854 -0.0150048 -0.00750241 -0.00750241 -0.00750241 -0.00750241 -0.00750241 -0.015001 -0.00750241 -0.00750241 -0.00749854 -0.00750241 -0.00750241 -0.00750241c-0.04735,0.0110309 -0.0869652,0.0600154 -0.157539,0.0600154l-0.0450106 0c-0.0468504,0 -0.120027,-0.0644231 -0.120027,-0.105026 0,-0.0966289 0.052513,-0.118516 0.052513,-0.202546l-0.00750241 0 -0.0150048 0 -0.00749854 -0.00750241 -0.0150048 -0.00750241 -0.00750241 -0.00750241 -0.00750241 -0.00750241 -0.0150048 -0.00749854 -0.00749854 -0.00750241 -0.0150048 -0.00750241 -0.0150048 -0.00750241 -0.00750241 -0.00750241 -0.015001 -0.00750241 -0.00750241 -0.00749854 -0.00750241 -0.00750241 -0.0225034 -0.00750241 -0.00750241 -0.00750241 -0.00750241 -0.00750241 -0.0150048 -0.00750241 -0.00750241 -0.00749854 -0.015001 -0.00750241 -0.00750241 -0.00750241 -0.00750241 -0.00750241 -0.0150048 -0.00750241 -0.00749854 -0.00750241 -0.00750241 -0.00749854 -0.0150048 0 0 -0.0150048 -0.0150048 -0.00750241 -0.00749854 -0.0150048 -0.0150048 -0.00749854 -0.00750241 -0.00750241 -0.00750241 -0.00750241 -0.00750241 -0.00750241 -0.00749854 -0.00750241 -0.00750241 -0.00750241 -0.00750241 1.54537z"/>
   <polygon id="_116905832" class="fil1" points="1.7254,2.85067 4.10346,2.85067 4.10346,2.74564 1.7254,2.74564 "/>
   <path id="_116905544" class="fil3" d="M4.77862 2.87317c-0.00841262,0.0361022 -0.0225034,0.0470131 -0.0225034,0.0975236l0 0.0300058c0,0.0230146 0.0185062,0.0324343 0.0375082,0.0375082l0 -0.015001c0.0261984,0.00610418 0.0252611,0.015001 0.052513,0.015001 0.0202608,0 0.020683,-0.00357885 0.0359821,-0.00712671l0.0240294 0.082147 0 -0.0450106 -0.00749854 -0.0300097 0 -0.0375082 0.00749854 -0.015001 0 -0.105026 -0.00749854 -0.00750241 -0.00750241 0 -0.0155742 -0.0221858 -0.0819339 -0.00794783 -0.0150203 0.0301336z"/>
   <polygon id="_117218024" class="fil1" points="1.7254,3.10573 2.9932,3.10573 2.9932,3.0007 1.7254,3.0007 "/>
   <polygon id="_116900720" class="fil1" points="1.7254,3.36079 2.9932,3.36079 2.9932,3.25576 1.7254,3.25576 "/>
   <path id="_116906456" class="fil1" d="M5.88888 3.60835c0.0315396,-0.0211206 0.0600154,-0.0880459 0.0600154,-0.142534l0 -0.0150048c0,-0.0413117 -0.0400103,-0.140079 -0.0675178,-0.150037 -0.0019521,0.0234678 -0.00750241,0.0266516 -0.00750241,0.052513l-0.0022116 0.0527299 0.0172164 0.202333z"/>
   <polygon id="_117212984" class="fil1" points="1.7254,3.61585 3.0007,3.61585 3.0007,3.51082 1.7254,3.51082 "/>
   <path id="_116905760" class="fil7" d="M5.29624 0.660154l-0.0225034 0.00750241 -0.00750241 0.00750241 -0.00750241 0.00750241 -0.015001 0.00749854 -0.00750241 0.00750241 -0.00750241 0.00750241 -0.0150048 0.00750241 0 0.0150048 -0.015001 0 -0.00750241 0.00749854 0 0.0150048 -0.0150048 0 -0.00750241 0.0150048 -0.00750241 0.00750241 -0.00749854 0.00749854 -0.00750241 0.0150048 -0.00750241 0.00750241 -0.00750241 0.0150048 -0.00750241 0.015001 -0.00750241 0.0150048 -0.00749854 0.0225034 -0.00750241 0.0150048 -0.00750241 0.0150048 -0.00750241 0.0375082 -0.00750241 0.0375082 0 0.0300058 -0.0375082 0 -0.00750241 0.00750241c0.0172823,0.0109651 0.0870272,0.0115925 0.136686,0.0433567 0.0310593,0.0198657 0.0808649,0.0528268 0.0808649,0.0991775l0 0.015001c0,0.0379226 -0.0120767,0.0398515 -0.015001,0.0750203 0.0374811,0.000832741 0.052513,0.0146214 0.052513,0.052513l0 0.0300058c0,0.082573 -0.0713717,0.165328 -0.127533,0.195047l-0.00749854 0.0375082 0 0.052513c-0.00272674,0.0327596 -0.0150048,0.0478032 -0.0150048,0.0825188 0,0.00168872 0.0561112,0.138096 0.0645432,0.168012 0.0174372,0.0618707 0.025478,0.123656 0.025478,0.199571l0 0.105026c0,0.0479388 -0.0150048,0.0570873 -0.0150048,0.105026l0 0.015001c0,0.0243857 0.00650312,0.00566264 0.0150048,0.0375082l0 0.00750241 0.00750241 0.0150048 0.00750241 0.00750241 0.00749854 0.015001 0.00750241 0.00750241 0.00750241 0.0150048 0.00750241 0.00750241 0.00750241 0.015001 0.00750241 0.00750241 0.00749854 0.0150048 0.00750241 0.0150048 0.00750241 0.015001 0.00750241 0.00750241 0.00750241 0.0150048 0.00750241 0.0225034 0.00749854 0.0150048 0.00750241 0.0225034 0.00750241 0.0225072 0.00750241 0.0225034 0 0.127529 -0.00750241 0.0225072 -0.00750241 0.0225034 -0.00750241 0.0300097 -0.00749854 0.015001 -0.00750241 0.0225072 -0.00750241 0.0150048 -0.00750241 0.015001 -0.00750241 0.0300097 -0.00750241 0.015001 -0.00749854 0.0300097 -0.00750241 0.0225034 -0.00750241 0.0225072 0 0.112525 0.00750241 0.0150048 0.00750241 0.0225034 0.00749854 0.0225072 0.00750241 0.00749854 0.00750241 0.0225072 0.00750241 0.00750241 0.00750241 0.00750241 0.00750241 0.015001 0.00749854 0.00750241 0.00750241 0.00750241 0.00750241 0.0150048 0.00750241 0.015001 0.00750241 0.0150048 0.00750241 0.00750241 0.00749854 0.015001 0.00750241 0.0150048 0.00750241 0.0150048 0.00750241 0.015001 0.00750241 0.0150048 0.00750241 0.0150048 0.00749854 0.0300058 0.00750241 0.0150048 0.00750241 0.0225034 0.00750241 0.0450106 0 0.150037 -0.00750241 0.052513 -0.00750241 0.0225034 -0.00750241 0.0225072 0 0.0300058c-0.00277322,0.0333522 -0.0375082,0.0940571 -0.0375082,0.112525 0,0.016771 0.0450106,0.0931043 0.0450106,0.157539 0,0.0793776 -0.0388367,0.134803 -0.0449757,0.187576 -0.00437286,0.0376012 -0.00628622,0.199281 -0.0150358,0.21752l0.0225034 0 0 -0.0225072c0.0756516,-0.11297 0.0891652,-0.100661 0.215169,-0.159921 0.0884216,-0.0415867 0.147693,-0.114279 0.219933,-0.162656 0.170634,0 0.207283,-0.00867212 0.307634,-0.0824607 0.0462655,-0.0340184 0.151756,-0.171378 0.157477,-0.240112 -0.068765,0.00752178 -0.0631101,0.300069 -0.442604,0.300069 0.0287896,-0.0429965 0.079579,-0.0877786 0.112629,-0.134927 0.031803,-0.0453708 0.0686837,-0.0996965 0.0949131,-0.152647 0.0549377,-0.110933 0.109259,-0.221261 0.134544,-0.360569 0.0149661,-0.0824723 0.0243199,-0.123528 0.0333406,-0.21422 0.00631721,-0.0635672 0.0844515,-0.0610883 0.12727,-0.120286 0.0681608,-0.0942391 0.127452,-0.213856 0.127452,-0.375167l-0.0225072 0c0,0.169488 -0.091342,0.396447 -0.225053,0.427599 0.00391969,-0.0168252 0.00750241,-0.0172474 0.00750241,-0.0375082l0.0072158 -0.270846 -0.0522264 -0.456826c-0.000848234,-0.00781614 0.0750164,-0.10984 0.0750164,-0.165038l0 -0.127529c0,-0.0458124 -0.00943127,-0.137821 -0.0525091,-0.142534 0.0118908,0.0510489 0.0375082,0.127955 0.0375082,0.187545l0 0.0225034c0,0.0732734 -0.0329184,0.147744 -0.0675178,0.187545 -0.00128203,-0.0575985 -0.0236343,-0.105127 -0.0302033,-0.16484 -0.00401265,-0.0364702 -0.0167943,-0.0551817 -0.020927,-0.0765967 -0.0076496,-0.0396501 0.0126112,-0.0613207 -0.0312568,-0.0661583l0.0906448 0.47857 -0.00825769 0.00156478c-0.168481,-0.00375314 -0.27025,-0.235588 -0.315074,-0.247556 0.00452779,0.054407 0.0912374,0.139618 0.125643,0.174426 0.0565915,0.0572538 0.107021,0.0821896 0.199408,0.102973l0.0200323 0.375252 0 0.052513c0,0.0930927 -0.00387321,0.198665 -0.0180685,0.282001 -0.0138816,0.0814692 -0.0440655,0.19344 -0.0494493,0.258126 -0.0792421,-0.0211594 -0.112528,-0.287714 -0.112528,-0.405095l0 -0.0975236 -0.0225034 0 0 0.127529c0,0.116154 0.0444684,0.370244 0.120027,0.397593 -0.00570137,0.0685133 -0.0849357,0.217562 -0.11493,0.275161 -0.0497669,0.0955599 -0.109325,0.144715 -0.167141,0.22295 -0.0392085,0.0530553 -0.151938,0.14064 -0.209889,0.180205 -0.0941113,0.0642489 -0.156315,0.0552746 -0.243211,0.14688 0,-0.174213 0.181669,-0.148735 0.22068,-0.349457 0.0177354,-0.0912839 0.016527,-0.157024 0.061313,-0.223752 0.0491627,-0.0732579 0.0855941,-0.0708411 0.0855941,-0.199474l0.0235685 0.000170421 -0.01607 0.112358c0.0336621,-0.0178129 0.0947078,-0.051382 0.105026,-0.0900212l-0.0172164 -0.202333 0.0022116 -0.0527299c0,-0.0258614 0.00555031,-0.0290452 0.00750241,-0.052513l0.00750241 -0.015001c-0.0217287,-0.0324459 -0.0450106,-0.104449 -0.0450106,-0.157539l0 -0.0300058c0,-0.212004 0.0315434,-0.288764 -0.0499799,-0.452635 -0.0516377,-0.103798 -0.137565,-0.239252 -0.137565,-0.387561l0 -0.0225034c0,-0.121809 0.0311406,-0.196496 0.0724291,-0.280153 0.0486979,-0.098674 0.108555,-0.115329 0.190132,-0.169953 0,-0.0344406 -0.00252921,-0.079916 0.0225072,-0.0900212l0.00750241 -0.0675178 0 -0.187545 -0.00750241 -0.0750164 -0.00750241 -0.0225034 -0.00750241 -0.0225072 -0.00750241 -0.0300058 -0.00750241 -0.0150048 -0.00749854 -0.0300058 -0.00750241 -0.00750241 -0.00750241 -0.0150048 -0.00750241 -0.0300058 -0.00750241 -0.0150048 -0.00749854 -0.0225034 -0.00750241 -0.0225072 -0.00750241 -0.00750241 -0.00750241 -0.0300058 -0.00750241 -0.0150048 -0.00750241 -0.015001 -0.00749854 -0.0225072 -0.00750241 -0.015001 -0.00750241 -0.0150048 -0.00750241 -0.0150048 -0.00750241 -0.015001 -0.00750241 -0.0150048 -0.00749854 -0.0150048 -0.00750241 -0.00749854 -0.00750241 -0.0225072 -0.00750241 -0.00750241 -0.00750241 -0.015001 -0.00749854 -0.0150048 -0.00750241 -0.00750241 -0.00750241 -0.0150048 -0.00750241 -0.00749854 -0.00750241 -0.00750241 -0.00750241 -0.0150048 -0.00749854 -0.00750241 -0.00750241 -0.015001 -0.00750241 -0.00750241 -0.00750241 -0.00750241 -0.00750241 -0.00750241 -0.00750241 -0.015001 -0.015001 -0.00750241 -0.00750241 -0.00750241 -0.00750241 -0.00750241 -0.0150048 -0.00750241 -0.00749854 -0.00750241 -0.00750241 -0.00749854 -0.0150048 -0.00750241 -0.00750241 -0.00750241 -0.015001 -0.00750241 -0.0150048 -0.00750241 -0.00750241 -0.00750241 -0.0225034 -0.00749854 -0.0150048 -0.00750241 -0.00750241 -0.00750241 -0.0375082 -0.00750241 -0.0300058 -0.00750241 -0.0825227 0 -0.0450106 0.00750241z"/>
   <polygon id="_116906528" class="fil1" points="3.15074,3.86341 4.10346,3.86341 4.10346,3.0007 3.15074,3.0007 "/>
   <path id="_117214856" class="fil8" d="M4.52356 2.78315l-0.0150048 0.00750241 -0.0150048 0.00750241 -0.00749854 0.00750241 -0.00750241 0.00749854 -0.00750241 0.00750241 -0.00750241 0.00750241 -0.00750241 0.00750241 -0.00750241 0.0150048 -0.00749854 0.00749854 0 0.0150048c-0.00195597,0.0234678 -0.00750241,0.0266516 -0.00750241,0.052513l0 0.0225072c0,0.0600271 0.0188277,0.0833206 0.0225034,0.127529l0 0.0375082 0.00750241 0.015001 0.00750241 0.0150048 0.00750241 0.0300058 0.00750241 0.0150048 0.00749854 0.0150048 0.00750241 0.0225034 0.00750241 0.0225072 0.00750241 0.0375082 0.00750241 0.015001 0.00750241 0.0300097 0 0.052513 -0.00750241 0.0300058 -0.00750241 0.0225034 -0.00750241 0.0300097 -0.00750241 0.015001 0 0.0750203 0.00750241 0.0225034 0.00750241 0.0300097 0.00750241 0.00749854 0.00750241 0.0150048 0.00749854 0.0150048 0.0150048 0.00750241 0.00750241 0.015001 0.00750241 0.00750241 0.00750241 0.00750241 0.00749854 0.00750241 0.0150048 0.00750241 0.00750241 0.00749854 0.0150048 0.00750241 0.00749854 0.00750241 0.00750241 0.00750241 0.0150048 0.00750241 0.0225034 0.00750241 0.0225072 0.00749854 0.0150048 0.00750241 0.015001 0.00750241 0.0225072 0.00750241 0.0150048 0.00750241 0.015001 0.00750241 0.0300097 0.00749854 0.015001 0.00750241 0.0150048 0.00750241 0.0150048 0.00750241 0.00749854 0.00750241 0.0225072 0.00749854 0.00750241 0.00750241 0.00750241 0.00750241 0.015001 0.00750241 0.00750241 0.00750241 0.00750241 0.00750241 0.00750241 0.00749854 0.00749854 0.00750241 0.00750241 0.00750241 0.00750241 0.0150048 0.00750241 0.00750241 0.00750241 0.015001 0.00750241 0.0150048 0.00749854 0.0150048 0.00750241 0.105022c0.0197573,0.00797495 0.0185798,0.0416487 0.0348086,0.0702175 0.0129288,0.0227513 0.0303621,0.0422335 0.0477102,0.0573119l0.142534 0.0750203 0.134381 0.175193 -0.00671615 0.00587566 0.0298741 -0.00852881c0.00874959,-0.018239 0.010663,-0.179918 0.0150358,-0.21752 0.00613904,-0.0527725 0.0449757,-0.108198 0.0449757,-0.187576 0,-0.0644348 -0.0450106,-0.140768 -0.0450106,-0.157539 0,-0.0184675 0.034735,-0.0791723 0.0375082,-0.112525l-0.00749854 0 -0.00750241 0.0150048 -0.00750241 0.00750241 -0.00750241 0.0225034 -0.00750241 0.00750241 -0.00750241 0.015001 0 -0.0750164 -0.00749854 -0.0825188 -0.00750241 -0.105026 -0.00750241 -0.0375082 -0.00750241 -0.015001 -0.00750241 -0.0150048 -0.00750241 -0.00750241 -0.00749854 -0.0150048 -0.00750241 -0.00749854 -0.00750241 -0.00750241 -0.00750241 -0.00750241 -0.00750241 -0.00750241 -0.00750241 -0.00750241 -0.00749854 -0.00750241 -0.0150048 -0.00749854 -0.0150048 -0.00750241 -0.00750241 -0.00750241 -0.0300058 -0.00750241 -0.0225034 -0.00750241 -0.0375121 -0.00750241 -0.0225034 -0.00749854 -0.0150048 -0.00750241 -0.0225034 -0.00750241 -0.00750241 -0.00750241 -0.0150048 -0.00750241 -0.015001 -0.00750241 -0.00750241 -0.00750241 -0.0150048 -0.00749854 -0.00750241 -0.00750241 -0.00749854 -0.00750241 -0.0150048 -0.00750241 -0.00750241 -0.0150048 -0.0150048 0 0 -0.015001 -0.00749854 -0.0150048 -0.00750241 -0.00750241 -0.00750241 -0.015001 -0.00750241 -0.00750241 -0.00750241 -0.0225072 -0.00750241 -0.015001 -0.00749854 -0.0225072 -0.00750241 -0.0225034 -0.00750241 -0.0150048 -0.00750241 -0.0225034 -0.00750241 0 -0.0240294 -0.082147c-0.0152992,0.00354786 -0.0157214,0.00712671 -0.0359821,0.00712671 -0.0272519,0 -0.0263146,-0.00889677 -0.052513,-0.015001l0 0.015001c-0.019002,-0.00507391 -0.0375082,-0.0144936 -0.0375082,-0.0375082l0 -0.0300058c0,-0.0505106 0.0140907,-0.0614214 0.0225034,-0.0975236l-0.00750241 -0.00750241 0 -0.00750241 -0.00749854 -0.00749854 -0.00750241 -0.00750241 -0.00750241 -0.00750241 -0.0150048 -0.00750241 -0.00750241 -0.00750241 -0.0225034 -0.00750241 -0.00750241 -0.00749854 -0.0150048 -0.00750241 -0.0225034 -0.00750241 -0.0150048 -0.00750241 -0.0150048 -0.00750241 -0.0975198 0 -0.00750241 0.00750241z"/>
   <polygon id="_116906576" class="fil1" points="1.7254,3.87091 2.9932,3.87091 2.9932,3.77338 1.7254,3.77338 "/>
   <path id="_116905400" class="fil8" d="M5.88138 3.30077c0.0275076,0.00995803 0.0675178,0.108725 0.0675178,0.150037l0 0.0150048c0,0.0544884 -0.0284759,0.121414 -0.0600154,0.142534 -0.0103182,0.0386392 -0.0713639,0.0722083 -0.105026,0.0900212l0.01607 -0.112358 -0.0235685 -0.000170421c0,0.128633 -0.0364314,0.126216 -0.0855941,0.199474 -0.044786,0.0667277 -0.0435775,0.132468 -0.061313,0.223752 -0.039011,0.200722 -0.22068,0.175244 -0.22068,0.349457 0.0868955,-0.0916054 0.149099,-0.0826311 0.243211,-0.14688 0.057951,-0.0395649 0.170681,-0.12715 0.209889,-0.180205 0.0578154,-0.078235 0.117374,-0.12739 0.167141,-0.22295 0.0299942,-0.0575985 0.109228,-0.206648 0.11493,-0.275161 -0.0755586,-0.0273488 -0.120027,-0.281439 -0.120027,-0.397593l0 -0.127529 0.0225034 0 0 0.0975236c0,0.117382 0.0332864,0.383936 0.112528,0.405095 0.00538377,-0.0646865 0.0355677,-0.176657 0.0494493,-0.258126 0.0141953,-0.083336 0.0180685,-0.188908 0.0180685,-0.282001l0 -0.052513 -0.0200323 -0.375252c-0.0923877,-0.0207837 -0.142817,-0.0457194 -0.199408,-0.102973 -0.0344057,-0.0348086 -0.121115,-0.120019 -0.125643,-0.174426 0.0448247,0.0119682 0.146593,0.243803 0.315074,0.247556l0.00825769 -0.00156478 -0.0906448 -0.47857c0.043868,0.00483764 0.0236072,0.0265083 0.0312568,0.0661583 0.00413272,0.021415 0.0169143,0.0401265 0.020927,0.0765967 0.00656897,0.0597133 0.0289213,0.107242 0.0302033,0.16484 0.0345994,-0.0398011 0.0675178,-0.114271 0.0675178,-0.187545l0 -0.0225034c0,-0.0595894 -0.0256174,-0.136496 -0.0375082,-0.187545 0.0430779,0.0047137 0.0525091,0.0967219 0.0525091,0.142534l0 0.127529c0,0.0551972 -0.0758646,0.157221 -0.0750164,0.165038l0.0522264 0.456826 -0.0072158 0.270846c0,0.0202608 -0.00358272,0.020683 -0.00750241,0.0375082 0.133711,-0.0311523 0.225053,-0.258111 0.225053,-0.427599l0.0225072 0c0,0.161312 -0.0592911,0.280928 -0.127452,0.375167 -0.0428184,0.0591982 -0.120953,0.0567193 -0.12727,0.120286 -0.00902071,0.0906913 -0.0183745,0.131747 -0.0333406,0.21422 -0.0252843,0.139308 -0.0796061,0.249636 -0.134544,0.360569 -0.0262294,0.0529507 -0.0631101,0.107276 -0.0949131,0.152647 -0.0330501,0.0471486 -0.0838396,0.0919307 -0.112629,0.134927 0.379494,0 0.373839,-0.292548 0.442604,-0.300069 -0.00572074,0.068734 -0.111212,0.206094 -0.157477,0.240112 -0.100351,0.0737886 -0.136999,0.0824607 -0.307634,0.0824607 -0.0722393,0.0483764 -0.131511,0.121069 -0.219933,0.162656 -0.126003,0.0592602 -0.139517,0.0469511 -0.215169,0.159921l0 0.0225072c0.039836,-0.0106358 0.0215273,-0.061464 0.134927,-0.0901258 0.0930733,-0.023522 0.0907184,-0.0300987 0.157644,-0.0749157 0.0269653,-0.0402698 0.0799044,-0.0621728 0.135028,-0.0750164l0.345084 0 0.0300058 0 0.0225072 -0.00750241 0.0225034 -0.00750241 0.00750241 -0.00749854 0.0150048 -0.00750241 0.015001 -0.00750241 0.00750241 -0.00750241 0.00750241 -0.00750241 0.00750241 -0.00750241 0.00750241 -0.00749854 0.00749854 -0.0150048 0.00750241 -0.0150048 0.00750241 -0.00750241 0.00750241 -0.015001 0.00750241 -0.0150048 0.00750241 -0.00750241 0.00749854 -0.0300058 0.00750241 -0.0150048 0.00750241 -0.0300058 0.00750241 -0.0225034 0.00750241 -0.0375121 0.00750241 -0.0825188 0.00749854 -0.0525091 0.00750241 -0.0300097 0.00750241 -0.0450106 0.00750241 -0.015001 0.00750241 -0.0300097 0.00749854 -0.00750241 0.00750241 -0.015001 0.00750241 -0.0150048 0.00750241 -0.0150048 0.00750241 -0.00749854 0.00750241 -0.0150048 0.00749854 -0.00750241 0.00750241 -0.0150048 0.00750241 -0.00749854 0.00750241 -0.00750241 0.00750241 -0.00750241 0.00750241 -0.0150048 0.00749854 -0.00750241 0.00750241 -0.00749854 0.00750241 -0.00750241 0.00750241 -0.00750241 0.00750241 -0.00750241 0.00749854 -0.00750241 0.00750241 -0.015001 0.00750241 -0.00750241 0.00750241 -0.00750241 0.00750241 -0.00750241 0.00750241 -0.00750241 0.00749854 -0.015001 0.00750241 -0.00750241 0.00750241 -0.00750241 0 -0.0225072 0.0150048 0 0.00750241 -0.0225034 0.00749854 -0.0150048 0.00750241 -0.00750241 0.00750241 -0.0300058 0.00750241 -0.0150048 0.00750241 -0.0225034 0 -0.17254 -0.00750241 -0.0225072 -0.00750241 -0.0225034 -0.00750241 -0.0225072 -0.00750241 -0.0225034 -0.00749854 -0.0150048 -0.00750241 -0.0225034 -0.00750241 -0.00750241 -0.00750241 -0.0225034 -0.00750241 -0.00750241 -0.00750241 -0.0150048 -0.00749854 -0.0225072 -0.00750241 -0.015001 -0.00750241 -0.0150048 -0.00750241 -0.0150048 -0.00750241 -0.0225034 -0.00750241 -0.0225072 -0.00749854 -0.015001 -0.00750241 -0.0150048 -0.00750241 -0.0300058 -0.00750241 -0.0225072 -0.00750241 -0.0450106 -0.00749854 -0.0300058 -0.00750241 -0.052513 -0.00750241 -0.435101 -0.00750241 -0.0300058 -0.00750241 -0.0300097 -0.00750241 -0.0375082 -0.00749854 -0.015001 -0.00750241 -0.0300097 -0.00750241 -0.015001 -0.00750241 -0.00750241 -0.00750241 -0.0225072 -0.00750241 -0.0150048 -0.00749854 -0.00749854 -0.00750241 -0.0150048 -0.00750241 -0.0150048 -0.00750241 -0.00750241 -0.00750241 -0.015001 -0.015001 0 0 -0.0150048 -0.00750241 -0.00750241 -0.00750241 -0.00750241 -0.00750241 -0.00749854 -0.00750241 -0.00750241 -0.00749854 -0.00750241 -0.00750241 -0.00750241 -0.0150048 -0.00750241 -0.00750241 -0.00750241 -0.00750241 -0.00749854 -0.015001 -0.00750241 -0.00750241 -0.00750241 -0.00750241 -0.00750241 -0.0225034 -0.00750241 -0.0150048 -0.00749854 -0.0300058 -0.00750241 -0.0150048 -0.00750241 -0.0225072 -0.00750241 -0.067514 -0.00750241 -0.105026 0 -0.052513 0.00750241 -0.015001 0.00750241 -0.0150048 0 0.00750241 -0.052513 0 -0.0225034c-0.0250364,0.0101052 -0.0225072,0.0555806 -0.0225072,0.0900212 -0.0815776,0.0546239 -0.141434,0.0712787 -0.190132,0.169953 -0.0412884,0.0836575 -0.0724291,0.158345 -0.0724291,0.280153l0 0.0225034c0,0.148309 0.0859272,0.283763 0.137565,0.387561 0.0815234,0.163872 0.0499799,0.240631 0.0499799,0.452635l0 0.0300058c0,0.0530901 0.0232819,0.125093 0.0450106,0.157539l-0.00750241 0.015001z"/>
   <polygon id="_117218168" class="fil0" points="1.73291,4.21599 1.87711,4.22516 1.90545,4.19348 1.90545,4.04345 "/>
   <path id="_116906648" class="fil9" d="M5.69384 4.276c0.0204273,0.0129636 0.194699,0.0206171 0.240228,0.0373378 0.0318494,0.0116932 0.075121,0.0187076 0.106405,0.0286269 0.0306487,0.00972176 0.0853772,0.0375547 0.103469,0.0390614 0.00632883,-0.00463236 0.0300097,-0.0301491 0.0300097,-0.0375082 0,-0.0867445 -0.242161,-0.142534 -0.345084,-0.142534 -0.0551236,0.0128436 -0.108063,0.0347466 -0.135028,0.0750164z"/>
   <path id="_116906864" class="fil9" d="M4.73361 4.38103c0.0256871,-0.00213801 0.0752294,-0.0313537 0.107714,-0.0423226 0.0367297,-0.0123982 0.0821199,-0.0189361 0.123238,-0.0267949 0.0364431,-0.00696791 0.239868,-0.0327519 0.256662,-0.0434071l-0.142534 -0.0750203c-0.0924381,0 -0.367583,0.060852 -0.367583,0.142534 0,0.0268569 0.00927247,0.0324614 0.0225034,0.0450106z"/>
   <path id="_117211976" class="fil10" d="M4.73361 4.38103c0.0752914,0.0654457 0.425891,0.120027 0.577635,0.120027l0.0600154 0c0.226757,0 0.661851,-0.0236924 0.772679,-0.120027 -0.0180918,-0.00150668 -0.0728203,-0.0293396 -0.103469,-0.0390614 -0.0312839,-0.0099193 -0.0745555,-0.0169337 -0.106405,-0.0286269 -0.0455296,-0.0167207 -0.219801,-0.0243741 -0.240228,-0.0373378 -0.0669252,0.0448169 -0.0645703,0.0513937 -0.157644,0.0749157 -0.1134,0.0286618 -0.0950912,0.0794899 -0.134927,0.0901258l-0.0225034 0 -0.0298741 0.00852881 0.00671615 -0.00587566 -0.134381 -0.175193c-0.0167943,0.0106552 -0.220219,0.0364392 -0.256662,0.0434071 -0.041118,0.00785875 -0.0865082,0.0143967 -0.123238,0.0267949 -0.0324846,0.0109689 -0.0820269,0.0401846 -0.107714,0.0423226z"/>
   <path id="_117205976" class="fil11" d="M4.99617 4.08096l0 0.0300058 0 0.0225072 0.0150048 0.00749854 -0.0450106 0.00750241 -0.0225072 0.00750241 -0.0225034 0.00750241 -0.0450106 0.00750241 -0.0225034 0.00750241 -0.0225072 0.00749854 -0.0375082 0.00750241 -0.0150048 0.00750241 -0.0225034 0.00750241 -0.0150048 0.00750241 -0.00750241 0.00750241 -0.0225034 0.00749854 -0.00750241 0.00750241 -0.00750241 0.00750241 -0.0150048 0.00750241 -0.00750241 0.00750241 -0.015001 0.00750241 -0.00750241 0.00749854 -0.00750241 0.00750241 -0.00750241 0.00750241 -0.00750241 0.00750241 -0.00749854 0.00750241 -0.00750241 0.00750241 0 0.0825188 0.00750241 0.0450106 0.00749854 0.052513 0.00750241 0 -0.00750241 -0.120031c0.115391,0.132754 0.452631,0.180042 0.705169,0.180042l0.225053 0c0.212887,0 0.604825,-0.0563049 0.683053,-0.173179l0.0146098 0.00814149 0 -0.0900212 -0.00750241 -0.00750241 -0.00750241 -0.00750241 -0.00750241 -0.00750241 -0.00749854 -0.00749854 -0.00750241 -0.00750241 -0.00750241 -0.00750241 -0.0150048 -0.00750241 -0.015001 -0.00750241 -0.00750241 -0.00750241 -0.0225072 -0.00749854 0 -0.00750241 0.0225072 -0.00750241 0 -0.00750241 -0.345084 0c0.102923,0 0.345084,0.0557898 0.345084,0.142534 0,0.0073591 -0.0236808,0.0328758 -0.0300097,0.0375082 -0.110828,0.0963346 -0.545922,0.120027 -0.772679,0.120027l-0.0600154 0c-0.151745,0 -0.502344,-0.0545813 -0.577635,-0.120027 -0.0132309,-0.0125492 -0.0225034,-0.0181537 -0.0225034,-0.0450106 0,-0.0816822 0.275145,-0.142534 0.367583,-0.142534 -0.0173481,-0.0150784 -0.0347815,-0.0345607 -0.0477102,-0.0573119 -0.0162288,-0.0285688 -0.0150513,-0.0622425 -0.0348086,-0.0702175l0 0.0150048z"/>
   <path id="_117206960" class="fil1" d="M1.73291 4.21599l-0.00629397 0.405115c0.0231192,0.00390033 0.0235414,0.00748305 0.0438022,0.00748305l2.28803 0c0.023034,0 0.0450106,-0.00694854 0.0450106,-0.0300097l0 -0.525122c0,-0.0168214 -0.00593764,-0.0164689 -0.015001,-0.0300058l-2.18301 0 0 0.150033 -0.0283403 0.0316751 -0.1442 -0.00916789z"/>
   <path id="_120297896" class="fil12" d="M0.945219 3.19575l0 0.0225034 0.00750241 0.0675178 0.00750241 0.142534 0.00750241 0.0375082 0.00750241 0.0375082 0.00750241 0.052513 0.00749854 0.0225034 0.00750241 0.0750203 0.00750241 0.015001 0.00750241 0.0300097 0.00750241 0.0450106 0.00750241 0.0375082 0.00750241 0.0450106 0.00749854 0.202546 0.00750241 0.120027 0.00750241 0.225053 0.00750241 0.0900212 0.00750241 0.0900212 0.00750241 0.142534 0.00749854 0.067514 0.00750241 0c0.0860512,0 0.1646,0.0129559 0.217551,-0.0225034l0 -0.0375082 0 -0.0600154 0.00750241 -0.0975236 0.00750241 -0.0450106 0.00750241 -0.0525091 0.00750241 -0.105026 0.00749854 -0.0675178 0.00750241 -0.015001 0 0.232555 0.00750241 0.0975198 0.00750241 0.0600154 0.00750241 0.150037 0.0525091 0 0 -0.0225072 0.135032 0 0.0225072 0c0.00501194,-0.00947388 0.0150048,-0.0248041 0.0150048,-0.0375082 0,-0.00398554 -0.0108063,-0.016465 -0.0150048,-0.0225072l0.0521683 -1.01992 -0.0071577 -0.262879 -0.0150048 -0.262561c-0.105611,0.070721 -0.14248,0.105026 -0.322573,0.105026l-0.0225072 0c-0.124319,0 -0.228442,-0.0588418 -0.330079,-0.0825188z"/>
   <path id="_117205544" class="fil13" d="M1.34282 4.72611l-0.0225072 0.00750241 -0.00750241 0.00750241c-0.0529507,0.0354593 -0.131499,0.0225034 -0.217551,0.0225034l0 0.0300097 0.0375082 0.00750241 0 0.0225034c0,0.0111394 -0.0161978,0.0330966 -0.0225034,0.0450106 0.0181383,0.00870311 0.0328177,0.0150048 0.0600154,0.0150048l0.0750164 0c-0.00481828,-0.0201175 -0.00750241,-0.0141411 -0.00750241,-0.0300097 0,-0.0227939 0.013014,-0.0254664 0.0300058,-0.0300058l0 -0.0225034 0.112528 0 -0.00750241 -0.150037 0 0.0750164 -0.0300058 0z"/>
   <polygon id="_117215504" class="fil14" points="1.2678,4.82363 1.29805,4.8463 1.27632,4.88541 1.32666,4.8606 1.31272,4.89855 1.35666,4.86809 1.3436,4.90697 1.3802,4.87647 1.41783,4.89115 1.43283,4.80113 1.38032,4.80113 1.2678,4.80113 "/>
   <path id="_120297584" class="fil15" d="M4.63608 4.49355l0 0.0825188 0.00750241 0.00750241 0.0272054 0.0963539 -0.00734361 0.00507778 0.14518 0.0936117c0.189063,0.0440462 0.370837,0.0825188 0.607641,0.0825188l0.067514 0c0.166366,0 0.485573,-0.0386469 0.59264,-0.0900212l0.0300058 -0.00750241 0.0150048 0 0.00750241 -0.00749854 0.015001 -0.00750241 0.0150048 -0.00750241 0.00750241 -0.00750241 0.00750241 -0.00750241 0.015001 -0.00750241 0.00750241 -0.00749854 0.00750241 -0.00750241 0.0150048 -0.00750241 0.00750241 -0.0375082 0.00749854 -0.0375082 0.00750241 -0.0375082 0.00750241 -0.0900212 0.00750241 -0.052513 0 -0.052513 -0.0146098 -0.00814149c-0.0782273,0.116874 -0.470165,0.173179 -0.683053,0.173179l-0.225053 0c-0.252537,0 -0.589778,-0.0472881 -0.705169,-0.180042l0.00750241 0.120031z"/>
   <path id="_117191072" class="fil3" d="M1.43283 4.80113l-0.015001 0.0900212c0.0160971,0.011182 0.0247808,0.015001 0.052513,0.015001l0.0765463 -0.000383448 -0.0112749 -0.0400258 0.0322484 -0.0196023 0 -0.0450106 0 -0.0225072 -0.135032 0 0 0.0225072z"/>
   <path id="_117210704" class="fil12" d="M4.80863 4.77862l0.015001 0.105026c0.00032535,7.74643e-006 0.240038,0.0465986 0.256713,0.0508592 0.0579471,0.0148034 0.211803,0.0241572 0.283415,0.0241572l0.0975236 0c0.0940494,0 0.226819,-0.00407462 0.310748,-0.0193273 0.0625834,-0.0113718 0.249121,-0.0549609 0.281889,-0.0556891l0.0225072 -0.112528c-0.107067,0.0513743 -0.426274,0.0900212 -0.59264,0.0900212l-0.067514 0c-0.236804,0 -0.418578,-0.0384726 -0.607641,-0.0825188z"/>
   <path id="_120297488" class="fil16" d="M1.11026 4.86864c-0.012646,0.00878832 -0.0150048,0.00107675 -0.0150048,0.0225072l0 0.0450106c0,0.0172823 0.00522109,0.0225034 0.0225072,0.0225034l0.195256 0.00170034 0.0823058 -0.00920275c0.00453941,0.0169957 0.0072158,0.0300097 0.0300097,0.0300097l0.195043 0c0.0546394,0 0.112749,-0.00423729 0.135032,-0.0375121l0.00383448 -0.00716544 -0.0801561 -0.0392318 -0.0395649 0.0298082 0.0153534 -0.0395571 -0.0453592 0.0320586 0.0155664 -0.0404596 -0.0455761 0.0254548 0.0184404 -0.0360093 -0.0300832 -0.0224182 -0.0322484 0.0196023 0.0112749 0.0400258 -0.0765463 0.000383448c-0.0277322,0 -0.0364159,-0.00381899 -0.052513,-0.015001l-0.0376321 -0.0146795 -0.036598 0.0304977 0.0130605 -0.0388716 -0.0439416 0.0304512 0.0139358 -0.0379497 -0.0503363 0.0248118 0.0217249 -0.0391117 -0.0302498 -0.022666c-0.0169918,0.00453941 -0.0300058,0.00721192 -0.0300058,0.0300058 0,0.0158686 0.00268414,0.00989219 0.00750241,0.0300097l-0.0750164 0c-0.0271977,0 -0.0418772,-0.00630172 -0.0600154,-0.0150048z"/>
   <path id="_117190424" class="fil17" d="M2.91818 5.31875l-0.0375082 0c-0.074753,0 -0.142534,-0.0806519 -0.142534,-0.165038l0 -0.0375082c0,-0.0748537 0.0968923,-0.135032 0.187545,-0.135032 0.0781537,0 0.150033,0.0911212 0.150033,0.180042 0,0.073227 -0.0786146,0.157535 -0.157535,0.157535zm-0.450106 -5.01868l0.855202 0c0.0172861,0 0.0225034,0.00522109 0.0225034,0.0225034l0 0.0225072c0,0.0175611 -0.0124446,0.0300058 -0.0300058,0.0300058l-0.825192 0c-0.0172861,0 -0.0225072,-0.00521722 -0.0225072,-0.0225034l0 -0.052513zm-0.930218 -0.292567l-0.0375082 0.00750241 -0.0150048 0.00749854 -0.0225034 0.00750241 -0.00750241 0.00750241 -0.00750241 0.00750241 -0.00750241 0.00750241 -0.00750241 0.00750241 -0.00749854 0.00749854 -0.00750241 0.00750241 -0.00750241 0.00750241 -0.00750241 0.00750241 -0.00750241 0.0150048 -0.00749854 0.00749854 -0.00750241 0.00750241 -0.00750241 0.217551 0 0.225053 0 0.105026 0 0.270064 0 0.232552 -0.00750241 0.135032 -0.00750241 0.0300097 -0.00750241 0.00750241 -0.00749854 0c0.0129791,0.0486204 0.0975198,-0.0197882 0.0975198,0.0375082l0 0.00750241c0,0.0243819 -0.00649925,0.00566264 -0.015001,0.0375082l0.0526602 0.00658059c0.00376864,0.0177432 0.00735136,0.0181692 0.00735136,0.03843 0,0.0161203 -0.0441779,0.0263185 -0.0600116,0.0300058l0.00749854 0.052513 0.0253037 0.0741604c0.0185837,0.00583693 0.0422141,0.0124563 0.0422141,0.0383642 0,0.0207527 -0.00578658,0.0180414 -0.0225072,0.0225072l0.00924923 0.112362 -0.00174682 0.00766509c0,0.0744277 -0.04558,0.0911754 -0.105022,0.105026l0 0.0525091 0.127529 0.0600154 0 -0.015001 0 -1.40283 2.79065 0 0 4.2685 -2.31054 0 0 0.607641c0.0491666,-0.0235917 1.48188,-0.00750241 1.67289,-0.00750241 0.140036,0 0.280068,0 0.4201,0 0.1597,0 0.264881,0.00998514 0.322948,-0.0971479 0.0596785,-0.110096 -0.0103376,-0.755071 0.029634,-0.818065l0.00750241 -1.49285 0.00749854 0.00750241 0.00750241 0c-0.00367568,-0.0442089 -0.0225034,-0.0675024 -0.0225034,-0.127529l0 -0.0225072c0,-0.0258614 0.00554644,-0.0290452 0.00750241,-0.052513l-0.00750241 -0.232555 -0.00750241 -0.015001 0.00750241 -1.54537 0 -0.907711 -0.00750241 -0.0300058 -0.00750241 -0.0225072 -0.00750241 -0.0225034 -0.00749854 -0.00750241 -0.00750241 -0.0150048 -0.00750241 -0.00750241 -0.00750241 -0.00749854 -0.00750241 -0.00750241 -0.00750241 -0.00750241 -0.00749854 -0.00750241 -0.00750241 -0.00750241 -0.00750241 -0.00750241 -0.00750241 -0.00749854 -0.052513 -0.00750241 -0.360085 -0.00750241 -0.450102 0 -0.450106 0 -0.135032 0 -1.35032 0.00750241z"/>
   <path id="_117191144" class="fil14" d="M1.00523 4.80113l-0.00750241 0.00749854 -0.00750241 0.00750241 0 0.00750241c-0.0217055,0.0410251 -0.17254,0.217729 -0.17254,0.240058l0 0.585134c0,0.0701052 -0.00881543,0.0900251 0.0750203,0.0900251l0.877705 0c0.0244748,0 0.0247072,-0.00388096 0.0375082,-0.0150048l-0.00890064 -0.668726 0.188943 -0.246491 -0.4201 -0.00749854 0 0.0450106 0.0300832 0.0224182 -0.0184404 0.0360093 0.0455761 -0.0254548 -0.0155664 0.0404596 0.0453592 -0.0320586 -0.0153534 0.0395571 0.0395649 -0.0298082 0.0801561 0.0392318 -0.00383448 0.00716544c-0.0222826,0.0332748 -0.0803924,0.0375121 -0.135032,0.0375121l-0.195043 0c-0.0227939,0 -0.0254702,-0.013014 -0.0300097,-0.0300097l-0.0823058 0.00920275 -0.195256 -0.00170034c-0.0172861,0 -0.0225072,-0.00522109 -0.0225072,-0.0225034l0 -0.0450106c0,-0.0214305 0.00235879,-0.0137189 0.0150048,-0.0225072 0.00630559,-0.011914 0.0225034,-0.0338712 0.0225034,-0.0450106l0 -0.0225034 -0.0375082 -0.00750241 -0.0750164 0 -0.0150048 0.00750241z"/>
   <path id="_120297344" class="fil0" d="M2.91818 5.31875c0.0789206,0 0.157535,-0.0843082 0.157535,-0.157535 0,-0.0889212 -0.0718791,-0.180042 -0.150033,-0.180042 -0.0906525,0 -0.187545,0.0601781 -0.187545,0.135032l0 0.0375082c0,0.0843857 0.0677812,0.165038 0.142534,0.165038l0.0375082 0z"/>
   <path id="_117205160" class="fil15" d="M6.05392 4.88365c-0.0327674,0.000728164 -0.219305,0.0443173 -0.281889,0.0556891 -0.0839286,0.0152527 -0.216699,0.0193273 -0.310748,0.0193273l-0.0975236 0c-0.0716118,0 -0.225467,-0.00935381 -0.283415,-0.0241572 -0.0166742,-0.00426053 -0.256387,-0.0508514 -0.256713,-0.0508592 0,0.0573236 0.0258576,0.218991 0.0380969,0.276973 0.0133781,0.0633696 0.0152024,0.227753 0.0562391,0.258839 0.12103,0.0916906 0.283682,0.139343 0.490802,0.139343l0.0900212 0c0.073347,0 0.222539,-0.0234252 0.279925,-0.0426479 0.116065,-0.0388754 0.127863,-0.0726499 0.203708,-0.115453l0.0714956 -0.517055z"/>
   <polygon id="_117205040" class="fil11" points="1.80792,5.72384 1.98797,5.48378 1.98797,4.87614 1.98797,4.80862 1.79902,5.05512 "/>
   <path id="_120297248" class="fil18" d="M1.98797 5.48378l-0.180042 0.240058c-0.012801,0.0111239 -0.0130334,0.0150048 -0.0375082,0.0150048l-0.877705 0c-0.0838357,0 -0.0750203,-0.0199199 -0.0750203,-0.0900251l0 -0.585134c0,-0.0223291 0.150835,-0.199033 0.17254,-0.240058l-0.015001 0 -0.0300097 0.00750241 -0.015001 0.00750241 -0.0375082 0.00750241 -0.0150048 0.00749854 -0.0225072 0.00750241 -0.0300058 0.00750241 -0.0150048 0.00750241 -0.0300058 0.00750241 -0.0150048 0.00750241 -0.015001 0.00749854 -0.0300058 0.00750241 -0.0150048 0.00750241 -0.0150048 0.00750241 -0.0300058 0.00750241 -0.0150048 0.00750241 -0.0225034 0.00749854 -0.0150048 0.00750241 -0.015001 0.00750241 -0.0225072 0.00750241 -0.0150048 0.00750241 -0.015001 0.00750241 -0.0225072 0.00749854 -0.00750241 0.00750241 -0.0225034 0.00750241 -0.0150048 0.00750241 -0.00750241 0.00750241 -0.0225034 0.00750241 -0.00750241 0.00749854 -0.0150048 0.00750241 -0.0225034 0.00750241 -0.00750241 0.00750241 -0.0225034 0.00750241 -0.00750241 0.00750241 -0.00750241 0.00749854 -0.0225072 0.00750241 -0.00749854 0.00750241 -0.00750241 0.00750241 -0.0150048 0.00750241 -0.00750241 0.00750241 -0.0225034 0.00749854 -0.00750241 0.00750241 -0.00750241 0.00750241 -0.0150048 0.00750241 -0.00749854 0.00750241 -0.00750241 0.00750241 -0.0150048 0.00749854 0 0.0150048 -0.0150048 0 -0.00749854 0.00750241 -0.00750241 0.00750241 -0.0150048 0.00750241 -0.00750241 0.00749854 -0.00750241 0.00750241 -0.00749854 0.00750241 -0.00750241 0.00750241 -0.00750241 0.00750241 -0.00750241 0.00750241 -0.00750241 0.00749854 -0.00750241 0.00750241 -0.00749854 0.0150048 -0.00750241 0.00750241 -0.00750241 0.00750241 -0.00750241 0.00749854 -0.00750241 0.00750241 -0.00750241 0.0150048 -0.00749854 0.00750241 -0.00750241 0.00749854 -0.00750241 0.0225072 -0.00750241 0.00750241 -0.00750241 0.0225034 -0.00750241 0.0150048 -0.00749854 0.0150048 -0.00750241 0.0375082 0 0.127529 0.00750241 0.0375082 0.00749854 0.00750241 0.00750241 0.0225034 0.00750241 0.0225072 0.00750241 0.00750241 0.00750241 0.015001 0.00750241 0.0150048 0.00749854 0.00750241 0.00750241 0.0150048 0.0150048 0 0 0.015001 0.00750241 0.00750241 0.00750241 0.00750241 0.00749854 0.00750241 0.00750241 0.015001 0.00750241 0.00750241 0.0150048 0 0 0.0150048 0.015001 0.00750241 0.00750241 0.015001 0.0150048 0.00750241 0.00750241 0.00750241 0.00750241 0.00750241 0.015001 0.00750241 0.00750241 0.00750241 0.00750241 0.00749854 0.00750241 0.00750241 0.00750241 0.00750241 0.015001 0.00750241 0.00750241 0.00750241 0.0150048 0.00750241 0.015001 0.00749854 0.00750241 0.00750241 0.0150048 0.00750241 0.00750241 0.00750241 0.00750241 0.00750241 0.0225034 0.00750241 0.00750241 0.00749854 0.0150048 0.00750241 0.015001 0.00750241 0.00750241 0.00750241 0.0225072 0.00750241 0.00749854 0.00749854 0.00750241 0.00750241 0.0225072 0.00750241 0.015001 0.00750241 0.0225072 0.00750241 0.00750241 0.00750241 0.015001 0.00749854 0.0225072 0.00750241 0.0150048 0.00750241 0.00749854 0.00750241 0.0225072 0.00750241 0.0150048 0.00750241 0.0225034 0.00749854 0.0225034 0.00750241 0.00750241 0.00750241 0.0300097 0.00750241 0.015001 0.00750241 0.0150048 0.00749854 0.0300058 0.00750241 0.0150048 0.00750241 0.0225034 0.00750241 0.0225072 0.00750241 0.015001 0.00750241 0.0300097 0.00749854 0.0225034 0.00750241 0.0150048 0.00750241 0.0300058 0.00750241 0.0225072 0.00750241 0.0300058 0.00750241 0.0225072 0.00749854 0.015001 0.00750241 0.0375121 0.00750241 0.0225034 0.00750241 0.0225072 0.00750241 0.0375082 0.00750241 0.0225034 0.00749854 0.0375082 0.00750241 0.0300097 0.00750241 0.015001 0.00750241 0.0450106 0.00750241 0.0300097 0.00750241 0.0225034 0.00749854 0.052513 0.00750241 0.0225034 0.00750241 0.052513 0.00750241 0.0300058 0.00750241 0.0225072 0.00750241 0.052513 0.00749854 0.0375082 0.00750241 0.0300058 0.00750241 0.0600154 0.00750241 0.0300058 0.00750241 0.0675178 0.00750241 0.0375082 0.00749854 0.0300058 0.00750241 0.0750203 0.00750241 0.0375082 0.00750241 0.0750164 0.00750241 0.052513 0.00750241 0.0450106 0.00749854 0.0900212 0.00750241 0.0600116 0.00750241 0.0450106 0.00750241 0.120031 0.00750241 0.067514 0.00750241 0.135032 0.00749854 0.0975236 0.00750241 0.0975236 0.00750241 0.247556 0.00750241 0.735175 0 0.247556 -0.00750241 0.0975236 -0.00750241 0.0900212 -0.00750241 0.135032 -0.00749854 0.0750164 -0.00750241 0.112525 -0.00750241 0.052513 -0.00750241 0.052513 -0.00750241 0.0900212 -0.00750241 0.0450106 -0.00749854 0.052513 -0.00750241 0.0750164 -0.00750241 0.0450106 -0.00750241 0.0675178 -0.00750241 0.0375082 -0.00750241 0.0375082 -0.00749854 0.0600154 -0.00750241 0.0375082 -0.00750241 0.052513 -0.00750241 0.0375082 -0.00750241 0.0300058 -0.00750241 0.0600154 -0.00749854 0.0225034 -0.00750241 0.0300097 -0.00750241 0.0525091 -0.00750241 0.0225072 -0.00750241 0.052513 -0.00750241 0.0225034 -0.00749854 0.0225072 -0.00750241 0.0450106 -0.00750241 0.0225034 -0.00750241 0.0225072 -0.00750241 0.0450106 -0.00750241 0.015001 -0.00749854 0.0450106 -0.00750241 0.0150048 -0.00750241 0.0225034 -0.00750241 0.0375082 -0.00750241 0.0225072 -0.00750241 0.0225034 -0.00749854 0.0300097 -0.00750241 0.015001 -0.00750241 0.0375121 -0.00750241 0.015001 -0.00750241 0.0150048 -0.00750241 0.0375082 -0.00749854 0.0150048 -0.00750241 0.015001 -0.00750241 0.0300097 -0.00750241 0.0150048 -0.00750241 0.0300058 -0.00750241 0.0150048 -0.00749854 0.015001 -0.00750241 0.0225072 -0.00750241 0.015001 -0.00750241 0.0150048 -0.00750241 0.0225072 -0.00749854 0.015001 -0.00750241 0.0225072 -0.00750241 0.015001 -0.00750241 0.0150048 -0.00750241 0.0225072 -0.00750241 0.00749854 -0.00749854 0.0150048 -0.00750241 0.0225034 -0.00750241 0.00750241 -0.00750241 0.0225072 -0.00750241 0.00750241 -0.00750241 0.015001 -0.00749854 0.0150048 -0.00750241 0.0150048 -0.00750241 0.00749854 -0.00750241 0.0225072 -0.00750241 0.00750241 -0.00749854 0.015001 -0.00750241 0.00750241 -0.00750241 0.0150048 -0.00750241 0.015001 -0.00750241 0.00750241 -0.00750241 0.0150048 -0.00749854 0.00750241 -0.00750241 0.00750241 -0.00750241 0.015001 -0.00750241 0.00750241 -0.00750241 0.00750241 -0.00750241 0.0150048 -0.00749854 0.00749854 -0.00750241 0.0150048 -0.00750241 0.00750241 -0.0150048 0.0150048 -0.00750241 0.00749854 -0.00749854 0.00750241 -0.00750241 0.00750241 -0.00750241 0.00750241 -0.00750241 0.00750241 -0.00750241 0.00750241 -0.00750241 0.00749854 -0.00749854 0.00750241 -0.00750241 0.00750241 -0.0150048 0.0150048 -0.00750241 0.00750241 -0.015001 0.00749854 -0.00750241 0.00750241 -0.0150048 0.00750241 -0.0150048 0.00750241 -0.00750241 0.00750241 -0.00749854 0.00750241 -0.0225072 0.00749854 -0.00750241 0.00750241 -0.0300058 0.00750241 -0.0225072 0 -0.157535 -0.00750241 -0.0225034 -0.00750241 -0.0300097 -0.00749854 -0.00750241 -0.00750241 -0.0225034 -0.00750241 -0.0150048 -0.00750241 -0.00750241 -0.00750241 -0.015001 -0.00750241 -0.00750241 -0.00749854 -0.00750241 -0.00750241 -0.015001 -0.00750241 -0.00750241 -0.00750241 -0.00750241 -0.00750241 -0.00750241 -0.00750241 -0.00750241 -0.00749854 -0.00750241 -0.00750241 -0.015001 -0.0150048 -0.00750241 -0.00750241 -0.00750241 -0.00750241 -0.00750241 -0.00749854 -0.00750241 -0.00750241 -0.00749854 -0.00750241 -0.00750241 -0.00750241 -0.00750241 -0.00750241 -0.00750241 -0.015001 -0.00750241 -0.00750241 -0.00750241 -0.0150048 -0.00749854 -0.00750241 -0.00750241 -0.00750241 -0.00750241 -0.015001 -0.00750241 -0.00750241 -0.00750241 -0.00750241 -0.00750241 -0.0150048 -0.00749854 -0.00749854 -0.00750241 -0.0150048 -0.00750241 -0.0150048 -0.00750241 -0.00750241 -0.00750241 -0.015001 -0.00750241 -0.0150048 -0.00749854 -0.00750241 -0.00750241 -0.0225034 -0.00750241 -0.00750241 -0.00750241 -0.0150048 -0.00750241 -0.015001 -0.00750241 -0.00750241 -0.00749854 -0.0225072 -0.00750241 -0.015001 -0.00750241 -0.00750241 -0.00750241 -0.0225034 -0.00750241 -0.0150048 -0.00750241 -0.0225072 -0.00749854 -0.015001 -0.00750241 -0.00750241 -0.00750241 -0.0300058 -0.00750241 -0.0150048 -0.00750241 -0.00750241 -0.00750241 -0.0300058 -0.00749854 -0.0150048 -0.00750241 -0.0225034 -0.00750241 -0.0150048 -0.00750241 -0.0150048 -0.00750241 -0.0300058 -0.00750241 -0.0150048 -0.00749854 -0.0150048 -0.00750241 -0.0300058 -0.00750241 -0.0225034 -0.00750241 -0.0160312 -0.000135562 0.00852881 -0.0298702 0.00750241 -0.0300097 0.00749854 -0.0300058 0.0150048 -0.00750241 0 -0.00750241 -0.0300058 0.00750241 -0.0225072 0.112528 -0.0714956 0.517055c-0.0758453,0.0428029 -0.0876431,0.0765773 -0.203708,0.115453 -0.0573855,0.0192228 -0.206578,0.0426479 -0.279925,0.0426479l-0.0900212 0c-0.20712,0 -0.369772,-0.0476521 -0.490802,-0.139343 -0.0410367,-0.0310864 -0.042861,-0.195469 -0.0562391,-0.258839 -0.0122394,-0.057982 -0.0380969,-0.21965 -0.0380969,-0.276973l-0.015001 -0.105026 -0.14518 -0.0936117 0.00734361 -0.00507778 -0.0272054 -0.0963539 -0.0600154 -0.00750241 -0.0600116 -0.00750241 -0.0900212 -0.00750241c-0.0399716,0.0629939 0.0300445,0.707969 -0.029634,0.818065 -0.0580672,0.107133 -0.163248,0.0971479 -0.322948,0.0971479 -0.140032,0 -0.280064,0 -0.4201,0 -0.191007,0 -1.62372,-0.0160893 -1.67289,0.00750241z"/>
  </g>
 </g>
</svg>
