<?xml version="1.0" encoding="UTF-8"?>
<!DOCTYPE svg PUBLIC "-//W3C//DTD SVG 1.1//EN" "http://www.w3.org/Graphics/SVG/1.1/DTD/svg11.dtd">
<!-- Creator: CorelDRAW -->
<svg xmlns="http://www.w3.org/2000/svg" xml:space="preserve" width="5.47806in" height="4.60763in" style="shape-rendering:geometricPrecision; text-rendering:geometricPrecision; image-rendering:optimizeQuality; fill-rule:evenodd; clip-rule:evenodd"
viewBox="0 0 2.68269 2.25643"
 xmlns:xlink="http://www.w3.org/1999/xlink">
 <defs>
  <style type="text/css">
   <![CDATA[
    .str2 {stroke:#3BB3C2;stroke-width:0.00146915}
    .str5 {stroke:#838281;stroke-width:0.00146915}
    .str1 {stroke:#84C225;stroke-width:0.00146915}
    .str4 {stroke:#B74F8F;stroke-width:0.00146915}
    .str6 {stroke:#E77817;stroke-width:0.00146915}
    .str0 {stroke:white;stroke-width:0.00146915}
    .str3 {stroke:white;stroke-width:0.00680203}
    .fil20 {fill:none}
    .fil19 {fill:#3BB3C2}
    .fil22 {fill:#838281}
    .fil18 {fill:#84C225}
    .fil21 {fill:#B74F8F}
    .fil23 {fill:#E77817}
    .fil17 {fill:white}
    .fil4 {fill:#0F924C}
    .fil5 {fill:#44B3C9}
    .fil13 {fill:#6DB9C8}
    .fil16 {fill:#727272}
    .fil15 {fill:gray}
    .fil7 {fill:#85C32B}
    .fil8 {fill:#97C851}
    .fil12 {fill:#B1528C}
    .fil0 {fill:#D6F6F4}
    .fil2 {fill:#D82421}
    .fil10 {fill:#E47824}
    .fil14 {fill:#E4F9CA}
    .fil11 {fill:#E8D4D5}
    .fil9 {fill:#F8DAFF}
    .fil1 {fill:#FBE5D6}
    .fil3 {fill:#FDFDFD}
    .fil6 {fill:#FFFFDA}
   ]]>
  </style>
 </defs>
 <g id="Layer_x0020_1">
  <metadata id="CorelCorpID_0Corel-Layer"/>
  <g id="_82794088">
   <g>
    <polygon id="_82784568" class="fil0" points="1.19025,0.0893942 1.19642,0.0893942 1.19642,0.0832285 1.19025,0.0832285 "/>
    <polygon id="_82784184" class="fil0" points="1.20259,0.110973 1.20875,0.110973 1.20875,0.101724 1.20259,0.101724 "/>
    <polygon id="_81623592" class="fil1" points="1.23034,0.16954 1.23034,0.166459 1.22726,0.166459 1.22726,0.16954 "/>
    <polygon id="_81623424" class="fil2" points="0.934317,0.240439 1.07924,0.240439 1.07924,0.154127 0.934317,0.154127 "/>
    <polygon id="_133347480" class="fil0" points="1.39068,0.240439 1.58803,0.240439 1.58803,0.154127 1.39068,0.154127 "/>
    <path id="_133346808" class="fil3" d="M0.934317 0.154127l0.144927 0 0 0.0863114 -0.144927 0 0 -0.0863114zm-0.0277518 0.114055l0.197346 0 0 -0.144881 -0.197346 0 0 0.144881z"/>
    <polygon id="_133346304" class="fil3" points="1.88097,0.323667 2.04748,0.323667 2.04748,0.268183 1.88097,0.268183 "/>
    <polygon id="_133356360" class="fil1" points="1.5942,0.31442 1.5942,0.311339 1.58803,0.311339 1.58803,0.31442 "/>
    <polygon id="_133354560" class="fil0" points="1.20259,0.32675 1.20875,0.32675 1.20875,0.323667 1.20567,0.320586 1.20259,0.320586 "/>
    <path id="_133353552" class="fil4" d="M1.8933 0.335999l0.0555036 0 0 0.0215764 0.0400872 0 0 -0.0215764 0.0524188 0 0.00154434 0.0770646 -0.149554 0 0 -0.0770646zm-0.0123354 -0.0678159l0.166515 0 0 0.0554844 -0.166515 0 0 -0.0554844zm-0.00924868 0.0678159l0.00924868 0 0 0.0893923 0.16343 0c0.00710473,0 0.00925061,-0.00214202 0.00925061,-0.00924482l0 -0.0801475 0.00616579 0 0 -0.0801475 -0.188095 0 0 0.0801475z"/>
    <path id="_133354752" class="fil5" d="M1.39068 0.154127l0.197348 0 0 0.0863114 -0.197348 0 0 -0.0863114zm0.0740048 -0.138715l-0.0154164 0.00308289 -0.00925061 0.00308289 -0.0123335 0.00308289 -0.00616964 0.00308289 -0.00616579 0.00308289 -0.00616579 0.00308096 -0.00616771 0.00308289 -0.00616771 0.00308096 0 0.00616771 -0.00616771 0 -0.00308289 0.00308096 -0.00308289 0.00308289 -0.00616579 0.00308289 0 0.00616579 -0.00616964 0 -0.00308289 0.00616386 -0.00308289 0.00308289 -0.00308482 0.00308096 -0.00308289 0.00308482 -0.00308289 0.00308289 -0.00308289 0.00308096 -0.00308482 0.00616579 -0.00308482 0.00308289 -0.00308096 0.00616579 -0.00308482 0.00616386 -0.00308482 0.00308096 -0.00308096 0.0123316 -0.00308482 0.00924868 -0.00308482 0.00616386 -0.00308289 0.0215783 0 0.0400737 0.00308289 0.0184954 0.00308482 0.00924675 0.00308482 0.00924868 0.00308096 0.00616386 0.00308482 0.00924868 0.00308482 0.00616386 0.00308096 0.00308289 0.00308482 0.00616579 0.00308482 0.00616386 0.00308289 0.00308289 0.00308289 0.00616579 0.00308289 0.00308289 0.00616771 0 0 0.00616386 0.00308289 0.00308289 0.00308482 0.00308482 0.00308482 0.00308096 0.00308096 0.00308289 0.00308482 0.00308096 0.00616579 0.00308289 0.00616771 0.00308482 0.00308289 0.00308096 0.00616771 0.00308289 0.00308482 0.00308289 0.00616579 0.00308096 0.00616579 0.00308289 0.00616964 0.00308482 0.00925061 0.00308096 0.0154183 0.00308289 0.00925061 0.00308096 0.0585865 0 0.00616771 -0.00308096 0.0123316 -0.00308289 0.0123354 -0.00308096 0.00616771 -0.00308482 0.00616579 -0.00308289 0.00308482 -0.00308096 0.00616579 -0.00308289 0.00925061 -0.00308289 0 -0.00616579 0.00616771 0 0.00616771 -0.00308289 0 -0.00616386 0.00616771 0 0 -0.00616579 0.00925061 0 0.00308482 -0.00924675 0.00308096 -0.00308289 0.00308482 -0.00308096 0.00308289 -0.00616771 0.00308289 -0.00308096 0.00308482 -0.00616386 0.00308289 -0.00308482 0.00308289 -0.00616386 0.00308482 -0.00924675 0.00308289 -0.00308482 0.00308482 -0.0154125 0.00308096 -0.00616386 0.00308482 -0.0123316 0 -0.0616501 -0.00308482 -0.00924868 -0.00308096 -0.00924675 -0.00308482 -0.0123296 -0.00308289 -0.00308289 -0.00308482 -0.00924868 -0.00308289 -0.00616386 -0.00308289 -0.00308289 -0.00308482 -0.00616579 -0.00308289 -0.00616386 -0.00616771 0 0 -0.00616771 -0.00308096 -0.00308096 -0.00308482 -0.00308289 -0.00308482 -0.00924675 -0.00925061 -0.00308289 -0.00308289 -0.00308289 -0.00308482 -0.00308289 -0.00616579 -0.00308096 -0.00308482 -0.00308289 -0.00308096 -0.00308482 -0.00616964 -0.00308096 -0.00616579 -0.00308289 -0.00616771 -0.00308096 -0.00308289 -0.00308289 -0.00925061 -0.00308289 -0.00925253 -0.00308289 -0.0123316 -0.00308289 -0.00616771 -0.00308289 -0.00308482 0 -0.00308289 0 -0.0400853 -0.00308096 -0.00616771 0 -0.00308482 0.00308096z"/>
    <polygon id="_133355760" class="fil3" points="1.8933,0.413063 2.04285,0.413063 2.04131,0.335999 1.98889,0.335999 1.98889,0.357575 1.9488,0.357575 1.9488,0.335999 1.8933,0.335999 "/>
    <polygon id="_133355208" class="fil0" points="0.94665,0.43464 0.94665,0.431559 0.9374,0.431559 0.9374,0.43464 "/>
    <path id="_133356312" class="fil2" d="M0.906565 0.123302l0.197346 0 0 0.144881 -0.197346 0 0 -0.144881zm0.0370024 -0.120219l-0.00616771 0.00308096 -0.00925061 0.00308482 -0.00616771 0.00308289 -0.00616579 0.00308096 -0.00925061 0.00308289 -0.00308482 0.00308289 -0.00616579 0.00308289 -0.00308482 0 -0.00308289 -0.00308289 -0.00308289 0 0 0.00616579 0 0.00308289 -0.00616771 0.00308096 -0.00308482 0.00308289 -0.00616579 0.00308096 -0.00308482 0.00308482 -0.00308096 0.00308289 -0.00308482 0.00308096 -0.00616579 0.00308289 -0.00308482 0.00616579 -0.00616771 0.00308289 -0.00308289 0.00616386 -0.00308289 0.00308289 -0.00308482 0.00308096 -0.00308482 0.00308482 -0.00924868 0.00308289 0 0.00616386 0 0.00308289 -0.00616771 0.00308289 -0.00308289 0.0123296 -0.00308289 0.00308096 0 0.00616771 -0.00616771 0 -0.00308482 0.0123296 -0.00308096 0.00924675 -0.00308482 0 -0.00308482 0 0 0.0123316 0 0.00616386 -0.00308096 0.0184954 -0.00308482 0.00616579 0 0.0739817 0.00308482 0.00616386 0.00308096 0.0184974 0 0.00924675 0 0.00616386 0.00616964 0.00308482 0.00308096 0.00924482 0.00308482 0.00616771 0.00308289 0.00308096 0.00308482 0.00924675 0.00308289 0.00308289 0.00308289 0.00616579 -0.00308289 0.00308289 0 0.00616386 0.0123335 0 0 0.00924868 0.00616579 0.00308289 0.00308482 0.00308096 0.00308482 0.00616771 0.00616579 0.00308096 0.00308482 0.00308289 0.00308289 0.00308289 0.00308482 0.00616579 0.00616579 0 0 0.00924675 0.00925061 0.00308096 0.00616579 0.00308289 0.00308482 0.00308482 0.00616771 0.00308096 0.00308289 0.00308289 0.00616771 0.00308289 0.00616579 0.00308096 0.00308482 0.00308482 0.00925061 0.00308289 0.00616579 0.00308096 0.00616771 0.00308289 0.00925061 0.00308096 0.0123354 0.00308482 0.00616579 0.00308289 0.00616771 0.00308096 0.00616771 0 0.00925061 0 0.0616694 0 0.00925253 0 0.0154164 0 0.00308482 -0.00616386 0.0123335 -0.00308482 0.00925061 -0.00308096 0.00616771 -0.00308289 0.00924868 -0.00308096 0.00616964 -0.00308289 0.00308096 -0.00308482 0.00616964 -0.00308096 0.00308289 -0.00308289 0.00616579 -0.00308289 0.00308482 0 0.00308289 0 0.00308289 -0.00616579 0.00308482 -0.00308289 0.00616579 -0.00308096 0.00308482 -0.00308289 0.00308289 0.00308289 0.00616771 0 0 -0.00616386 0 -0.00616771 0.00925061 -0.00308096 0 -0.00924675 0.0123335 0 0.00308482 -0.00308482 0 -0.00616386 0 -0.00308289 0.00308096 -0.00616386 0.00308482 -0.00308482 0.00308482 -0.00616386 0.00308289 -0.00308289 0.00308289 -0.00616579 0.00308482 -0.00616386 0 -0.00616579 0.00616579 0 0 -0.00308096 0 -0.00308482 0.00308289 -0.00616386 0.00308482 -0.00924868 0.00308482 -0.00924675 0.00308096 -0.00924868 0.00308482 -0.00924675 0.00169087 -0.0188213 0.00139395 0.00957258 0.00308096 0 0 -0.0215764 -0.00308096 -0.0493205 -0.00308482 -0.0184954 0 -0.00924868 0.00308482 -0.00616579 0 -0.00616386 -0.00308482 -0.00308482 -0.00616579 0 -0.00308482 0.00616771 0 -0.0123316 -0.00308482 -0.00616386 -0.00308289 -0.00924868 -0.00308289 -0.00308289 -0.00308289 -0.00616386 -0.00308482 -0.00308482 -0.00308289 -0.00616386 -0.00308289 -0.00616386 -0.00308482 -0.00308289 -0.00308482 -0.00616579 -0.00308096 -0.00308289 0 -0.00616386 0 -0.00616579 -0.0123354 0 0 -0.00924675 -0.00308289 -0.00308289 -0.00925061 -0.00308289 0 -0.00308289 0 -0.00616386 -0.0123354 -0.00308289 -0.00308096 -0.00616579 -0.00616964 -0.00308289 -0.00925061 -0.00308096 -0.00308289 -0.00308289 -0.00616579 -0.00308289 -0.00616964 -0.00308289 -0.00308096 -0.00308289 -0.00616964 -0.00308289 -0.00924868 -0.00308096 -0.00616771 -0.00308289 -0.00925061 -0.00308482 0.00925061 0 0 -0.00616386 -0.0154183 0 -0.00308482 0.00308289 -0.0123316 -0.00308289 -0.101759 0 -0.0123335 0.00308289z"/>
    <polygon id="_133352856" class="fil6" points="2.11532,0.471631 2.12457,0.471631 2.12457,0.465467 2.11532,0.465467 "/>
    <path id="_133356456" class="fil7" d="M1.85322 0.493207l0.000512851 -0.00359382 0.00257004 0.00359382 -0.00308289 0zm0.0185012 -0.237356l0.188095 0 0 0.0801475 -0.00616579 0 0 0.0801475c0,0.0071028 -0.00214588,0.00924482 -0.00925061,0.00924482l-0.16343 0 0 -0.0893923 -0.00924868 0 0 -0.0801475zm0.0678371 -0.0924752l-0.0215841 0.00308289 -0.0123335 0.00308096 -0.00925061 0.00308289 -0.00616964 0.00308289 -0.0123316 0.00308289 0 0.00616579 -0.00925253 0 -0.00308289 0.00308096 -0.00308289 0.00308289 -0.00308482 0.00308482 -0.00616579 0.00308096 -0.00308482 0.00308289 -0.00616579 0.00308096 -0.00308482 0.00616579 -0.00308289 0.00308289 -0.00616771 0.00308289 -0.00308289 0.00616386 -0.00308482 0.00308289 -0.00308289 0.00308482 -0.00308289 0.00308096 -0.00308482 0.00308289 -0.00308096 0.00308096 -0.00308482 0.00924868 -0.00308482 0.00308289 -0.00308096 0.00924675 -0.00308482 0.00308482 -0.00308482 0.00308096 -0.00308289 0.00924675 -0.00308289 0.00308482 -0.00308289 0.0123277 -0.00308482 0.0154125 -0.00308289 0.00616771 0 0.0616501 0.00308289 0.0123296 0.00308482 0.0154125 0.00308289 0.00924675 0.00308289 0.00924868 0.00308289 0.00616386 0.00616964 0 0 0.00616771 0.00308096 0.00924675 0.00308482 0.00308096 0.00308482 0.00616771 0.00308096 0.00616386 0.00308482 0.00308096 0.00308289 0.00308482 0.00308289 0.00616386 0.00616771 0 0 0.00616579 0.00616771 0.00308096 0.00308289 0.00616771 0.00616964 0.00308096 0 0.00308289 0 0.00308096 0.00616579 0 0 0.00308482 0.00616579 0 0.00308482 0.00308289 0.00616579 0.00308096 0.00308482 0.00308289 0.00308289 0.00308289 0.0123354 0.00308096 0.00308096 0.00616771 0.0123354 0.00308096 0.0123335 0.00308289 0.00308482 0.00308096 0.0370024 0.00308482 0.0215841 0 0.0277537 -0.00308482 0.00925061 -0.00308096 0.0154164 -0.00308289 0.00925253 -0.00308096 0.00308096 -0.00308289 0.00308482 -0.00308482 0.00925061 -0.00308096 0.00308289 -0.00308289 0.00616771 -0.00308289 0.00616771 -0.00308096 0.00308289 -0.00308289 0.00308289 -0.00308482 0.00308482 0 0.00308096 0 0.00308482 -0.00308096 0.00308482 -0.00616386 0.00308096 -0.00308289 0.00308482 -0.00308482 0.00616771 -0.00308096 0.00308289 -0.00616579 0.00308482 -0.00308096 0 -0.00616771 0.00616771 0 0.00308096 -0.00616386 0.00308482 -0.00616386 0.00308482 -0.00308482 0.00308096 -0.00616386 0.00308482 -0.00308289 0.00308482 -0.00924868 0.00308096 -0.00616386 0.00308482 -0.00616386 0.00308289 -0.00924868 0.00308482 -0.00616386 0.00308289 -0.0154125 0.00308289 -0.0215802 0 -0.0246593 -0.00308289 -0.030827 -0.00308289 -0.0123296 -0.00308482 -0.00924675 -0.00308289 -0.00616386 -0.00308482 -0.00616771 0 -0.00924482 0 -0.00308482 -0.00616579 -0.00308289 -0.00308482 -0.00308096 -0.00308096 -0.00616579 -0.00308482 -0.00616579 -0.00308482 -0.00308289 -0.00308096 -0.00616386 -0.00308482 -0.00308096 -0.00308289 -0.00308482 -0.00308482 -0.00308289 -0.00308289 -0.00308096 -0.00308289 -0.00308289 -0.00308482 -0.00308289 -0.00308482 -0.00308289 -0.00308096 -0.00616579 -0.00925061 -0.00308096 -0.00308482 -0.00924868 -0.00308289 0 -0.00308289 0 -0.00616771 -0.00308289 -0.00308482 -0.00308096 -0.00925061 0 0 -0.00616579 -0.0123316 -0.00308289 -0.00308482 -0.00308289 -0.0123354 -0.00308289 -0.0123335 -0.00308096 -0.0185012 -0.00308289 -0.00308289 -0.00308289 -0.046255 0 -0.00308289 0.00308289z"/>
    <path id="_133353408" class="fil8" d="M2.44217 0.678161l0.178848 0 0 0.0863114 -0.178848 0 0 -0.0863114zm0.0493378 -0.141798l-0.00616771 0 -0.00308096 0 -0.00308482 0.00308289 -0.00616579 0.00308289 -0.00925061 0.00308096 -0.00308482 0.00308482 -0.00925061 0.00308289 -0.00308289 0.00308096 -0.00308482 0.00308289 -0.0123354 0.00308289 0 0.00924868 -0.00616579 0 0 0.00616386 -0.00925061 0 -0.00308289 0.00924868 -0.00616771 0.00308096 -0.00308289 0.00924868 -0.00616964 0.00308289 -0.00308096 0.00924675 -0.00308482 0.00308096 -0.00308289 0.00924868 -0.00616771 0.00308289 0 0.00308289 0 0.00616579 -0.00308289 0.0123316 -0.00308289 0.0154106 0 0.0493205 0.00308289 0.0123296 0.00308289 0.0123316 0 0.00616386 0 0.00616771 0.00616771 0.00308096 0.00308289 0.00924675 0.00308482 0.00308289 0 0.00308482 0 0.00308096 0.00308096 0.00308289 0.00616964 0.00308096 0.00308289 0.00924868 0.00616771 0.00308289 0.00308289 0.00924675 0.00925061 0 0 0.00616579 0.00308482 0.00308289 0.00308096 0.00308096 0.00616964 0.00308289 0.00308096 0.00308482 0.00308482 0.00308096 0.0123335 0 0 0.00616579 0.00925061 0.00308096 0.00616964 0.00308482 0.00925061 0.00308289 0.00924868 0.00308096 0.00616771 0.00308289 0.0647542 0 0.00925061 -0.00308289 0.00925061 -0.00308096 0.0123335 -0.00308289 0.00616964 -0.00308482 0.00616579 -0.00308096 0 -0.00616579 0.0123335 0 0.00308482 -0.00308096 0.00308289 -0.00308482 0.00616771 -0.00308289 0.00308096 -0.00308096 0.00308482 -0.00308289 0.00308482 -0.00308096 0.00616579 -0.00308482 0.00308482 -0.00616386 0.00308289 -0.00308289 0.00308482 -0.00616386 0.00616579 -0.00308482 0.00308482 -0.00924675 0.00308096 -0.00616579 0.00308482 -0.00308289 0.00308482 -0.00616386 0.00308096 -0.00616386 0.00308482 -0.0184974 0.00308482 -0.00616579 0 -0.0770607 -0.00308482 -0.00308482 -0.00308482 -0.0184954 -0.00308096 -0.00616386 -0.00308482 -0.00616771 -0.00308482 -0.00308096 -0.00308096 -0.00616386 -0.00308482 -0.00616579 -0.00308289 -0.00308289 -0.00308289 -0.00308289 -0.00308482 -0.00308289 -0.00308289 -0.00308096 -0.00308482 -0.00924868 -0.00616579 -0.00308289 -0.00308482 -0.00308096 -0.00308482 -0.00308289 -0.00616579 -0.00308289 -0.00308289 -0.00308289 -0.00616771 0 0 -0.00924675 -0.00616579 0 -0.00308482 0 -0.00616771 -0.00308289 -0.00308096 -0.00308482 -0.00925061 -0.00308096 -0.00616964 -0.00308289 -0.00616579 -0.00308289 -0.00925061 -0.00308096 -0.00308289 0 -0.00925061 0 -0.0493378 0 -0.0154183 0.00308096z"/>
    <polygon id="_133352736" class="fil9" points="2.40825,0.582603 2.41442,0.582603 2.41442,0.576437 2.40825,0.576437 "/>
    <polygon id="_133353528" class="fil10" points="0.48412,0.59185 0.567376,0.59185 0.567376,0.499375 0.48412,0.499375 "/>
    <path id="_133354680" class="fil1" d="M0.48412 0.499375l0.0832555 0 0 0.0924752 -0.0832555 0 0 -0.0924752zm-0.0154202 0.181871l0.114092 0 0 -0.200367 -0.114092 0 0 0.200367z"/>
    <path id="_133354968" class="fil10" d="M0.4687 0.480879l0.114092 0 0 0.200367 -0.114092 0 0 -0.200367zm0.0246689 -0.0893962l-0.0154183 0.00308289 -0.0185012 0.00308482 -0.00308289 0.00308096 -0.00616579 0.00308289 -0.00925061 0.00308289 -0.00925061 0.00308096 -0.00308482 0.00308482 -0.00308289 0.00308289 -0.00616771 0.00308096 -0.00308289 0.00308289 -0.00616964 0.00308096 0 0.00616771 -0.00925061 0 -0.00308096 0.00616386 -0.00308482 0.00308289 -0.00308289 0.00308096 -0.00308289 0.00308482 -0.00308482 0.00308289 0 0.00616386 -0.00616771 0 -0.00308289 0.00308096 -0.00308289 0.00616771 -0.00308482 0.00308096 -0.00308096 0.00308289 0 0.00924868 -0.00616964 0 -0.00308096 0.00924675 -0.00308482 0.00308096 -0.00308482 0.00616771 -0.00308289 0.00308096 -0.00308289 0.0123316 -0.00308482 0.00924675 -0.00308289 0.00308096 -0.00308482 0.00308482 0 0.0123296 0 0.00924868 0 0.0616482 0 0.00924868 0 0.00616579 0.00616771 0 0 0.00924868 0.00308482 0.0154125 0.00616579 0 0 0.00924675 0.00308482 0.00616579 0.00616579 0 0 0.0154125 0.00616964 0.00308289 0.00308096 0.00616386 0.00308482 0.00308289 0.00308289 0.00308289 0.00308289 0.00308289 0.00308482 0.00308289 0.00308289 0.00924868 0.00616771 0.00308096 0.00308289 0.00616386 0.00925061 0.00308289 0.00308482 0.00308289 0.00308096 0.00308289 0.00308482 0.00308289 0.00616771 0.00308289 0.00308289 0.00308096 0.00616771 0.00308289 0.00308482 0.00308482 0.00925061 0.00308096 0.00308096 0.00616579 0.0154183 0.00308096 0.00925061 0.00308289 0.00616964 0.00308482 0.00616579 0.00308096 0.00616579 0 0.00616771 0 0.00308289 0.00308289 0.0123354 0 0.0555036 -0.00308289 0.00616579 0 0.00308482 0.00308289 0.00925061 0 0 -0.00616386 0.00925253 -0.00308482 0.00308096 -0.00308289 0.0123354 -0.00308096 0.00616579 -0.00308289 0 -0.00616386 0.0123354 0 0.00308289 -0.00308482 0.00308482 -0.00308289 0.00308096 -0.00308096 0.00616964 -0.00308289 0.00308096 -0.00308289 0.00308482 -0.00308289 0.00308482 -0.00308289 0.00616579 -0.00308289 0.00308482 -0.00616386 0.00616771 -0.00308096 0.00308096 -0.00308482 0.00308482 -0.00308289 0 -0.00616386 0.00616579 0 0.00308482 -0.00616579 0.00308482 -0.00308289 0.00308096 -0.00616386 0.00308482 -0.00308289 0.00308289 -0.00616579 0.00308482 -0.00308289 0 -0.00308096 0.00308289 -0.00308289 0.00308289 -0.00616579 0.00308482 -0.00924675 0.00308289 -0.00308289 0 -0.00308096 0 -0.00308482 0.00308289 -0.0123296 0.00616579 -0.00308289 0 -0.00616579 0 -0.0184935 0 -0.0524034 -0.00308096 -0.0123316 -0.00308482 -0.0123316 -0.00308289 -0.0123277 -0.00308289 -0.00616579 -0.00308482 -0.00616579 -0.00308289 -0.00924868 -0.00616771 0 0 -0.0123277 -0.00616771 0 0 -0.00616579 -0.00308096 -0.00616579 -0.00308482 -0.00308096 -0.00308482 -0.00308289 -0.00308096 -0.00308482 -0.00308482 -0.00308096 -0.00308482 -0.00616386 -0.00308096 -0.00616771 -0.00616771 -0.00308096 -0.00308482 -0.00308289 -0.00616579 -0.00308289 -0.00308482 -0.00308096 -0.00308482 -0.00308289 -0.00308096 -0.00616579 -0.0123354 0 0 -0.0154125 -0.00616579 0 -0.000154241 0.00662658 -0.00601347 -0.00354562 -0.00308482 -0.00308096 -0.00616579 -0.00308289 -0.00308482 -0.00308289 -0.00308096 0 -0.00308482 0 -0.00616579 -0.00308096 -0.0123354 -0.00308482 -0.0185031 -0.00308289 -0.00616579 -0.00308096 -0.0493359 0 -0.0123354 0.00308096z"/>
    <polygon id="_133353696" class="fil0" points="2.23866,0.702822 2.24174,0.702822 2.24483,0.699739 2.24483,0.696657 2.24174,0.693574 2.23866,0.693574 "/>
    <polygon id="_133353360" class="fil11" points="2.13998,0.786051 2.18932,0.786051 2.18932,0.68741 2.13998,0.68741 "/>
    <polygon id="_133355976" class="fil3" points="2.44217,0.764473 2.62102,0.764473 2.62102,0.678161 2.44217,0.678161 "/>
    <polygon id="_133355256" class="fil6" points="0.407031,0.749062 0.416281,0.749062 0.416281,0.742894 0.407031,0.742894 "/>
    <polygon id="_133356000" class="fil6" points="0.644461,0.749062 0.653714,0.749062 0.653714,0.742894 0.644461,0.742894 "/>
    <polygon id="_133355568" class="fil6" points="0.59821,0.773721 0.604376,0.773721 0.604376,0.767557 0.59821,0.767557 "/>
    <polygon id="_133355496" class="fil11" points="2.04131,0.789134 2.09373,0.789134 2.09373,0.68741 2.04131,0.68741 "/>
    <polygon id="_133353240" class="fil1" points="0.339191,0.79838 0.339191,0.795298 0.333026,0.795298 0.333026,0.79838 "/>
    <polygon id="_133353912" class="fil0" points="2.22016,0.83229 2.22016,0.829206 2.21399,0.829206 2.21399,0.83229 "/>
    <path id="_133353576" class="fil12" d="M2.04131 0.68741l0.0524207 0 0 0.101724 -0.0524207 0 0 -0.101724zm0.0986738 0l0.0493378 0 0 0.098641 -0.0493378 0 0 -0.098641zm-0.0647542 -0.0708988l-0.00925061 0.00308289 -0.00925061 0.00308096 -0.00616771 0.00308289 -0.00308096 0.00308289 -0.00925061 0.00308289 0 0.00616579 -0.00616964 0 -0.00308289 0.00308096 -0.00308289 0.00308289 -0.00616771 0.00308482 -0.00308482 0.00616386 -0.00308096 0.00308096 -0.00308482 0.00308289 -0.00308482 0.00308289 -0.00308096 0.00616579 -0.00308482 0.00308289 -0.00308482 0.00308096 -0.00308096 0.00924868 -0.00308482 0.00308289 -0.00308289 0.00924675 -0.00308482 0.0123296 -0.00308289 0.00616771 0 0.0554844 0.00308289 0.00308289 0.00308482 0.0154125 0.00308289 0.00924675 0.00308482 0.00308482 0.00308096 0.00924482 0.00308482 0.00308289 0.00308482 0.00308482 0.00308096 0.00308096 0.00308482 0.00616579 0.00308482 0.00308096 0.00308096 0.00616771 0.00616771 0 0 0.00616386 0.00616771 0.00308096 0.00616771 0 0 0.00616771 0.00616579 0.00308096 0.00616964 0.00308289 0.00308096 0.00308289 0.00925061 0.00308096 0.00616771 0.00308482 0.00925061 0.00308289 0.0154164 0.00308096 0.0431701 0 0.0185031 -0.00308096 0.00925061 -0.00308289 0.00308482 -0.00308482 0.00924868 -0.00308096 0.00308289 -0.00308289 0.00616771 -0.00308289 0.00616771 -0.00308096 0 -0.00616771 0.00616771 0 0.00616579 -0.00308096 0 -0.00616386 0.00616579 0 0.00308482 -0.00308289 0.00308482 -0.00616579 0.00308289 -0.00308289 0.00308289 -0.00308289 0.00308482 -0.00308096 0.00308289 -0.00616771 0.00308482 -0.00616386 0.00308096 -0.00616579 0.00308482 -0.00616386 0.00308482 -0.00616579 0.00308096 0 0 -0.00616579 0 -0.00924675 0.00308482 -0.0123296 0 -0.030827 -0.00308482 -0.0123277 -0.00308096 -0.0123316 -0.00308482 -0.00924868 -0.00308482 -0.00616386 -0.00308096 -0.00616386 -0.00308482 -0.00308482 -0.00308289 -0.00616386 -0.00308482 -0.00616579 -0.00308289 -0.00308289 -0.00308289 -0.00616579 -0.00308482 -0.00308096 -0.00616579 0 0 -0.00616386 -0.00616964 -0.00308482 -0.00308096 -0.00616386 -0.00925061 0 0 -0.00616579 -0.00616771 -0.00308289 -0.00616771 -0.00308289 -0.00308289 -0.00308289 -0.00925061 -0.00308096 -0.00925061 -0.00308289 -0.0123354 -0.00308482 -0.0555036 0 -0.00925061 0.00308482z"/>
    <polygon id="_133352904" class="fil0" points="2.16774,0.869281 2.17082,0.869281 2.17082,0.863114 2.16774,0.863114 "/>
    <polygon id="_133354776" class="fil6" points="0.690716,0.897021 0.699967,0.897021 0.70305,0.893941 0.70305,0.890858 0.687632,0.890858 0.687632,0.893941 "/>
    <polygon id="_133355856" class="fil6" points="0.551955,0.897021 0.561206,0.897021 0.564291,0.893941 0.564291,0.890858 0.551955,0.890858 "/>
    <polygon id="_133356144" class="fil13" points="0.222016,0.78297 0.215851,0.786051 0.203515,0.789134 0.20043,0.795298 0.191182,0.79838 0.191182,0.804546 0.185014,0.804546 0.181931,0.807629 0.178846,0.81071 0.175763,0.813793 0.169596,0.816878 0.166515,0.823042 0.166515,0.829206 0.160345,0.829206 0.157262,0.835373 0.154179,0.844618 0.151095,0.847701 0.148012,0.85695 0.144927,0.866198 0.141844,0.878526 0.141844,0.918602 0.144927,0.927848 0.148012,0.940178 0.151095,0.946344 0.154179,0.95251 0.157262,0.958674 0.160345,0.964837 0.16343,0.967922 0.166515,0.971005 0.169596,0.977169 0.175763,0.977169 0.175763,0.983333 0.181931,0.983333 0.181931,0.989501 0.185014,0.992582 0.191182,0.992582 0.191182,0.998745 0.20043,1.00183 0.203515,1.00491 0.209681,1.00799 0.218932,1.01108 0.225101,1.01416 0.24052,1.01724 0.280605,1.01724 0.292938,1.01416 0.305272,1.01108 0.314524,1.00799 0.314524,1.00183 0.323775,1.00183 0.329941,0.998745 0.333026,0.995664 0.339191,0.992582 0.342274,0.989501 0.345359,0.986418 0.348442,0.983333 0.351525,0.980252 0.35461,0.977169 0.357695,0.971005 0.36386,0.967922 0.366945,0.958674 0.366945,0.95251 0.373111,0.95251 0.373111,0.949425 0.373111,0.946344 0.376194,0.934014 0.379277,0.927848 0.382362,0.909353 0.382362,0.884694 0.379277,0.866198 0.376194,0.860033 0.373111,0.850786 0.370026,0.841537 0.36386,0.841537 0.36386,0.83229 0.360776,0.829206 0.357695,0.823042 0.35461,0.816878 0.348442,0.813793 0.345359,0.81071 0.342274,0.807629 0.339191,0.801465 0.336107,0.801465 0.333026,0.79838 0.326856,0.795298 0.32069,0.792217 0.314524,0.789134 0.308357,0.786051 0.302189,0.78297 0.289856,0.779885 0.23435,0.779885 "/>
    <polygon id="_133352784" class="fil0" points="2.00431,1.01416 2.00431,1.01108 1.99814,1.01108 1.99814,1.01416 "/>
    <polygon id="_133349040" class="fil14" points="2.38358,1.1128 2.38975,1.1128 2.38975,1.10664 2.38358,1.10664 "/>
    <path id="_133354704" class="fil7" d="M0.579709 1.21452l-0.0524227 0 0 -0.101724c0,-0.0143097 0.0501553,-0.104807 0.0585885,-0.104807l0.101757 0c0.0280911,0 0.0332891,0.0216516 0.0427537,0.0404902 0.00843698,0.0167891 0.0312512,0.0292017 0.0312512,0.051985l0 0.110974 -0.0431701 0 0 -0.0184954c0,-0.0106272 -0.00227891,-0.0119363 -0.00308096,-0.0215783l-0.135676 0 0 0.0431547zm0 -0.317503l-0.00925253 0.00308482 -0.00308096 0.00308289 -0.00925061 0 -0.00616964 0 -0.00616579 0.00308096 -0.00308289 0.00616386 -0.00925061 0 -0.00308482 0 -0.00308482 0.00308289 0 0.00308482 -0.00616579 0.00308096 -0.00616579 0.00308289 -0.00308482 0.00308289 -0.00616579 0.00308096 -0.00308482 0.00308482 -0.00925061 0.00308289 0 0.00924675 -0.0123335 0 0 0.00924868 -0.00616579 0 -0.00308482 0.00308096 -0.00616771 0.00308289 -0.00308289 0.00924868 -0.00616771 0.00308096 -0.00308482 0.00924675 -0.00308096 0.00308482 -0.00308482 0.00308289 -0.00308482 0.00616386 -0.00308096 0.00308096 -0.00308482 0.00308482 -0.00308482 0.00924675 -0.00308096 0.00616386 -0.00308482 0.00308482 -0.00308289 0.00308289 0 0.00308096 0 0.00308289 -0.00308482 0.00616579 -0.00308289 0.00924675 -0.00308289 0.00616579 -0.00308482 0.00924675 -0.00308482 0.0184954 -0.00308096 0.0308251 0 0.0246612 0.00308096 0.0246612 0.00308482 0.0154125 0.00308482 0.0123316 0.00308289 0.00616386 0.00308289 0.00616386 0 0.00308289 0 0.00308289 0.00308482 0.0123296 0.00308289 0.00308482 0.00663044 0.000152313 -0.00354562 0.00601154 0 0.00308096 0.00616579 0.00308289 0.00308482 0.00308482 0.00308096 0.00616386 0.00308482 0.00616386 0.00308482 0.00308289 0.00308096 0.00308482 0.00308482 0.00924482 0.00616771 0.00308289 0.00308289 0.00308482 0.00308289 0.00308096 0.00308482 0.00308289 0.00308482 0.00308289 0.00616579 0 0 0.00616386 0.00308482 0.00308482 0.00308096 0.00308096 0.00616771 0.00308289 0.00308289 0.00308096 0.00308482 0.00308289 0.00616771 0.00308482 0.00308289 0.00308096 0.00616771 0.00308289 0.00308096 0.00616386 0.00925061 0.00308289 0.00308482 0.00308482 0.0123354 0.00308096 0.00308289 0.00308289 0.0154164 0.00308289 0.00616964 0.00308096 0.00924868 0.00308482 0.021586 0.00308289 0.0246689 0.00308096 0.024667 0 0.0308347 -0.00308096 0.0123354 -0.00308289 0.00616771 -0.00308482 0.00616579 -0.00308096 0.0154164 -0.00308289 0.00308482 0 0.00308482 0 0 -0.00616386 0.0123335 0 0 -0.00616771 0.00616771 0 0.00616771 -0.00308096 0 -0.00616579 0.00925061 0 0.00308096 -0.00308096 0.00308482 -0.00308482 0.00925061 -0.00308289 0.00308289 -0.00616386 0.00308482 -0.00308096 0.00308482 -0.00308482 0.00308096 -0.00308289 0.00925061 -0.00308096 0.00308482 -0.00308289 0.00308482 -0.00924868 0.00308096 -0.00308289 0.00308482 -0.00308096 0 -0.00616386 0.00616771 0 0.00308289 -0.00616771 0.00308289 -0.00308096 0.00308482 -0.00616579 0 -0.00924868 0.00616579 0 0.00308482 -0.00616386 0.00308096 -0.00616579 0.00308482 -0.00616386 0.00308482 -0.00308289 0.00308289 -0.0123316 0.00308289 -0.0123296 0.00308482 -0.00924675 0.00308289 -0.0154125 0.00308482 -0.0184954 0 -0.0554863 -0.00308482 -0.00616579 -0.00308289 -0.0215764 -0.00616771 0 0 -0.0154145 -0.00308289 -0.00924868 -0.00308482 -0.00616386 -0.00308482 -0.00616386 -0.00308096 -0.00924868 -0.00308482 -0.00308289 -0.00308289 -0.00924868 -0.00616771 0 0 -0.00616386 -0.00308289 -0.00616386 -0.00616771 0 0 -0.00616579 -0.00308289 -0.00616579 -0.00616579 0 0 -0.00616386 -0.00308482 -0.00616579 -0.00616579 -0.00308289 -0.00308482 -0.00924868 -0.00925061 -0.00308096 -0.00616771 0 0 -0.00924675 -0.00308289 0 -0.00308289 0 -0.00616964 0 0 -0.00616771 -0.00925061 -0.00308096 -0.00308096 -0.00616579 -0.00308482 0 -0.00308289 0 -0.00925061 0 0 -0.00616579 -0.00925061 -0.00308289 -0.00616964 -0.00308096 -0.00308096 -0.00308289 -0.0123354 -0.00308096 -0.00925061 -0.00308289 -0.0154183 -0.00308482 -0.0277499 -0.00308096 -0.0246689 0 -0.046253 0.00308096z"/>
    <polygon id="_133355832" class="fil6" points="1.97656,1.1313 1.97964,1.1313 1.98272,1.12821 1.98272,1.12205 1.97656,1.12205 "/>
    <path id="_133356792" class="fil6" d="M2.05981 1.1128l0.0277537 -0.00924675 0.000158097 0.0807741 0.0152583 -0.00371142 0 -0.0431547 0.0185031 0 0 0.0431547 0.0154164 0 0.00109511 -0.0788287 0.0266586 0.0140957c-0.00031041,-0.0138431 -0.0215995,-0.033908 -0.0339195,-0.033908l-0.0339195 0c-0.0141555,0 -0.0358977,0.0175488 -0.0370044,0.0308251z"/>
    <polygon id="_133354896" class="fil0" points="2.362,1.13746 2.36817,1.13746 2.36817,1.13438 2.36509,1.1313 2.362,1.1313 "/>
    <path id="_133354224" class="fil14" d="M0.579709 1.17137l0.135676 0c0.000802053,0.00964199 0.00308096,0.0109511 0.00308096,0.0215783l0 0.0184954 0.0431701 0 0 -0.110974c0,-0.0227833 -0.0228142,-0.0351959 -0.0312512,-0.051985 -0.00946462,-0.0188386 -0.0146625,-0.0404902 -0.0427537,-0.0404902l-0.101757 0c-0.00843313,0 -0.0585885,0.0904971 -0.0585885,0.104807l0 0.101724 0.0524227 0 0 -0.0431547z"/>
    <polygon id="_133353048" class="fil6" points="0.857229,1.1837 0.863395,1.1837 0.863395,1.17445 0.857229,1.17445 "/>
    <polygon id="_133355736" class="fil6" points="0.410111,1.20528 0.416281,1.20528 0.416281,1.2022 0.413196,1.19911 0.410111,1.19911 "/>
    <path id="_133355616" class="fil3" d="M2.52235 1.22069c0,0.00931616 0.00362852,0.00851989 0.0139164,0.0103554l-0.0234157 0.029942 -0.030586 -0.0341335 0.0184993 0 0 -0.0708988 -0.0277499 0c-0.00981937,0 -0.021586,0.0157075 -0.021586,0.0277422l0 0.00924868c-0.016149,0.0013419 -0.0339195,0.0106234 -0.0339195,0.0277441l0 0.0616482 0.197348 0 0 -0.0678159c0,-0.0144543 -0.0183605,-0.0186709 -0.0308366,-0.0215764 -0.0011973,-0.0143945 -0.00779881,-0.0262364 -0.0215841,-0.0277441 -0.00108354,-0.0130314 -0.0103303,-0.0246593 -0.0215841,-0.0246593l-0.0185012 0 0 0.0801475z"/>
    <path id="_133352928" class="fil5" d="M2.52235 1.14054l0.0185012 0c0.0112538,0 0.0205006,0.0116278 0.0215841,0.0246593 0.0137853,0.00150771 0.0203868,0.0133496 0.0215841,0.0277441 0.0124762,0.00290552 0.0308366,0.00712208 0.0308366,0.0215764l0 0.0678159 -0.197348 0 0 -0.0616482c0,-0.0171208 0.0177705,-0.0264022 0.0339195,-0.0277441l0 -0.00924868c0,-0.0120347 0.0117667,-0.0277422 0.021586,-0.0277422l0.0277499 0 0 0.0708988 -0.0184993 0 0.030586 0.0341335 0.0234157 -0.029942c-0.0102879,-0.00183547 -0.0139164,-0.0010392 -0.0139164,-0.0103554l0 -0.0801475zm-0.0524207 -0.0678159l-0.0123354 0.00308096 -0.00308289 0.00308289 -0.0123354 0.00308289 -0.00616579 0.00308289 -0.00616579 0.00308289 -0.00616771 0.00308289 -0.00308289 0.00308096 -0.00308482 0.00308289 -0.00616771 0.00308096 -0.00308289 0.00308482 -0.00616771 0.00308289 0 0.00616386 -0.00616579 0 -0.00308482 0.00308289 0 0.00616579 -0.00925061 0 -0.00308289 0.00924675 -0.00308289 0.00308289 -0.00308482 0.00616579 -0.00308289 0.00308289 -0.00308482 0.00308096 -0.00308096 0.00924868 -0.00308482 0.00308289 -0.00308482 0.00616386 -0.00308096 0.00924868 -0.00308482 0.00616386 -0.00308482 0.0123316 -0.00308096 0.0277441 0 0.0215764 0.00308096 0.0308251 0.00308482 0.0123296 0.00308482 0.00616579 0.00308096 0.0123316 0.00616964 0 0 0.00616386 0.00308096 0.00924675 0.00308482 0.00308482 0.00308289 0.00616386 0.00308482 0.00308289 0.00308289 0.00308096 0.00308289 0.00308482 0.00308482 0.00308289 0.00308289 0.00308096 0.00308289 0.00308289 0.00308482 0.00616386 0.00616579 0.00308482 0.00308482 0.00308096 0.00308289 0.00308289 0.00616771 0.00308289 0.00308289 0.00308096 0.00616771 0.00308482 0.00616771 0.00308289 0.00308096 0.00308096 0.00925061 0.00308289 0.00616964 0.00308096 0.00616579 0.00308289 0.0154183 0.00308482 0.0123354 0.00308096 0.0493359 0 0.0154183 -0.00308096 0.0154164 -0.00308482 0.00616771 -0.00308289 0.00925061 -0.00308096 0.00616579 -0.00308289 0.00925061 -0.00308096 0.00308482 -0.00616771 0.00925061 -0.00308096 0.00308289 -0.00308289 0 -0.00616386 0.00616771 0 0.00308289 -0.00308482 0.00308482 -0.00308289 0.00308289 -0.00308096 0.00308289 -0.00308289 0.00308482 -0.00308096 0.00308096 -0.00308289 0.00308482 -0.00308482 0.00308482 -0.00308096 0.00308289 -0.00616579 0.00308289 -0.00308096 0.00308482 -0.00616771 0.00308289 -0.00616386 0.00308482 -0.00616386 0.00308289 -0.00308482 0.00308289 -0.00924675 0.00308482 -0.00308096 0.00308096 -0.0154145 0.00308482 -0.0184935 0 -0.0493224 -0.00308482 -0.0154125 -0.00308096 -0.00924868 -0.00308482 -0.00616386 -0.00308289 -0.00924868 -0.00308289 -0.00924675 -0.00308482 -0.00308096 -0.00308289 -0.00616771 -0.00308482 -0.00308096 -0.00308289 -0.00308289 -0.00308289 -0.00924868 -0.00616964 -0.00308289 -0.00308096 -0.00308096 -0.00308482 -0.00616579 -0.00308289 -0.00308289 -0.00616771 0 0 -0.00616579 -0.00308289 -0.00308096 -0.00616771 -0.00308289 -0.00308289 -0.00616579 -0.00925061 -0.00308289 -0.00616579 -0.00308096 -0.00308482 -0.00308289 -0.00616771 -0.00308289 -0.00616771 -0.00308289 -0.00616579 -0.00308289 -0.00616771 -0.00308289 -0.0154164 -0.00308096 -0.0277537 -0.00308289 -0.0154164 0 -0.0339195 0.00308289z"/>
    <path id="_133356264" class="fil10" d="M2.05981 1.1128c0.00110668,-0.0132763 0.0228489,-0.0308251 0.0370044,-0.0308251l0.0339195 0c0.01232,0 0.0336091,0.0200648 0.0339195,0.033908l-0.0266586 -0.0140957 -0.00109511 0.0788287 -0.0154164 0 0 -0.0431547 -0.0185031 0 0 0.0431547 -0.0152583 0.00371142 -0.000158097 -0.0807741 -0.0277537 0.00924675zm0.00925253 -0.144879l-0.00616771 0.00308289 -0.00308482 0.00308096 -0.00616579 0.00308289 -0.00616579 0.00308289 -0.00308482 0.00308096 -0.00925061 0.00308482 -0.00308482 0.00308289 -0.00308289 0.00308096 -0.00616771 0.00308289 -0.00308289 0.00616579 -0.00308482 0.00308289 -0.00308096 0.00308096 -0.00616964 0.00308289 -0.00308096 0.00616386 0 0.00616771 -0.00616964 0 -0.00308096 0.00924482 -0.00308482 0.00308482 -0.00308289 0.0123296 -0.00308482 0.0123296 -0.00308289 0.00924868 0 0.0524034 0 0.00616386 0 0.00616579 0.00616771 0 0 0.00924868 0.00308289 0.00924868 0 0.00308096 0 0.00308289 0.00616579 0.00308096 0.00308482 0.00616579 0.00308482 0.00308289 0.00308096 0.00616579 0.00308482 0.00308096 0 0.00308289 0.00308482 0.00616579 0.00308096 0.00308289 0.00616771 0.00308096 0.00925061 0.00308289 0.00308482 0.00308289 0.00308482 0.00308289 0.00616579 0.00308289 0.00308482 0.00616386 0.0184993 0.00308289 0.00308482 0.00308482 0.0123316 0 0 0.00616386 0.0647562 0 0 -0.00616386 0.0123335 0 0.00308482 -0.00308482 0.00925061 -0.00308289 0.00616579 -0.00308096 0.00308482 -0.00308289 0.00616771 -0.00308289 0.00308289 0.00308289 0.00616771 0 0.00308096 -0.0123316 0.00308482 -0.00308096 0.00308482 -0.00308289 0.00308096 -0.00308096 0.00616964 -0.00308482 0.00308289 -0.00616386 0.00308289 -0.00308289 0.00616771 -0.00308289 0.00308482 -0.0123296 0.00308096 -0.00616386 0.00308482 -0.00616771 0.00308482 -0.00924675 0.00308096 -0.0154125 0.00308482 -0.0123316 0 -0.033908 -0.00308482 -0.00924868 -0.00308096 -0.0184935 -0.00308482 -0.00616579 -0.00308482 -0.00308096 -0.00308096 -0.00616771 -0.00308482 -0.00924482 -0.00616771 0 0 -0.00616771 -0.00308289 -0.00308096 -0.00308289 -0.00308289 -0.00308482 -0.00308289 -0.00308482 -0.00308096 -0.00308096 -0.00616771 -0.00616964 -0.00308096 -0.00308096 -0.00308289 -0.00308482 -0.00308096 -0.00308289 -0.00308289 -0.00616771 -0.00308482 -0.00308289 -0.00308096 -0.00925061 -0.00308289 -0.00616579 -0.00308289 -0.00308482 -0.00308096 -0.00616579 -0.00308289 -0.0185031 -0.00308482 -0.0493359 0 -0.0185012 0.00308482z"/>
    <polygon id="_133354728" class="fil6" points="0.481035,1.30392 0.487201,1.30392 0.487201,1.29775 0.481035,1.29775 "/>
    <path id="_133353936" class="fil15" d="M1.19642 1.39023l0 0.00924675c0,0.0584593 0.0606688,0.175706 0.114092,0.175706l0.0123335 0c0.0145044,0 0.0364337,-0.0180115 0.061681,-0.0180751 0.0190854,-5.20563e-005 0.0489677,0.0180751 0.0647446,0.0180751l0.00925061 0c0.0338135,0 0.0463379,-0.0232557 0.0624657,-0.0423623 0.00977695,-0.0115835 0.039291,-0.0480981 0.039291,-0.0655274 0,-0.017757 -0.0555036,-0.017892 -0.0555036,-0.0986429l0 -0.0123277c0,-0.028417 0.0292884,-0.0470936 0.0431701,-0.0678159 -0.0152217,-0.0227274 -0.0365146,-0.0431566 -0.0740048,-0.0431566l-0.0123335 0c-0.00691385,0 -0.00677118,0.00243894 -0.0123354,0.00616386 -0.0406078,0 -0.0548597,0.0184974 -0.0616713,0.0184974l-0.00308289 0c-0.000129177,0 -0.0378315,-0.0200706 -0.0401393,-0.0210944l-0.0400352 -0.00356682c-0.0284305,-0.00304433 -0.0716045,0.0273662 -0.0832863,0.0431219 -0.0214781,0.0289684 -0.0246361,0.0524381 -0.0246361,0.101759z"/>
    <polygon id="_133355808" class="fil6" points="0.647546,1.34708 0.647546,1.35016 0.650631,1.35324 0.659882,1.35324 0.659882,1.34399 0.650631,1.34399 "/>
    <polygon id="_133353288" class="fil1" points="0,1.35324 0.00308482,1.35324 0.00308482,1.34708 0,1.34708 "/>
    <polygon id="_133354488" class="fil5" points="0.114092,1.3964 0.20043,1.3964 0.20043,1.32242 0.114092,1.32242 "/>
    <polygon id="_133353216" class="fil1" points="2.59944,1.37174 2.59944,1.37482 2.6056,1.37482 2.6056,1.36865 2.60252,1.36865 "/>
    <path id="_133356552" class="fil5" d="M0.0647562 1.47346l0 -0.0585692c0,-0.00946462 0.00285539,-0.0184954 0.0123335,-0.0184954l0.021586 0 0 -0.0893942 0.11409 0 0 0.0893942 0.0246689 0c0.00947811,0 0.0123354,0.00903081 0.0123354,0.0184954l0 0.0616521c0,0.00947618 -0.00903467,0.0123296 -0.0185031,0.0123296l-0.151093 0c-0.00719149,0 -0.0154183,-0.0082249 -0.0154183,-0.0154125zm0.07092 -0.228109l-0.00616579 0.00308096 -0.0185012 0.00308289 -0.00616771 0.00308482 -0.00925061 0.00308096 -0.00616579 0.00308289 -0.00616964 0.00308096 -0.00616579 0.00308289 -0.00616771 0.00308482 0 0.00616386 -0.00616579 0 -0.00308482 0.00308289 -0.00616579 0.00308096 -0.00308482 0.00308289 -0.00308096 0.00308482 -0.00308482 0.00308096 -0.00308482 0.00308289 -0.00308289 0.00308096 -0.00308289 0.00308289 -0.00308482 0.00308482 -0.00308289 0.00308096 -0.00308482 0.00616579 -0.00308289 0.00308096 -0.00308289 0.00308289 -0.00308482 0.00616579 -0.00308096 0.00616579 -0.00308482 0.00616579 -0.00308482 0.00616386 -0.00308096 0.00308289 -0.00308482 0.0184954 -0.00308482 0.00616579 0 0.0739798 0.00308482 0.00616386 0.00308482 0.0123316 0.00308096 0.00924868 0.00308482 0.00616386 0.00308482 0.00616386 0.00308096 0.00308482 0.00308482 0.00924675 0.00308289 0.00308289 0.00308289 0.00308096 0.00308482 0.00308482 0.00308289 0.00616386 0.00616771 0 0 0.00616579 0.00616771 0 0 0.00616579 0.00308482 0.00308289 0.00616579 0.00308096 0.00308289 0.00308289 0.00308289 0.00308096 0.00308482 0.00308482 0.00308289 0.00308289 0.00616771 0.00308096 0.00616771 0.00308289 0.00308096 0.00308289 0.00616964 0.00308289 0.00925061 0.00308289 0.00616579 0.00308289 0.0123335 0.00308096 0.00925061 0.00308289 0.0678391 0 0.00925061 -0.00308289 0.0154164 -0.00308096 0.00308482 -0.00308289 0.00616771 -0.00308289 0.00616579 -0.00308289 0.00616964 -0.00308289 0.00308096 -0.00308289 0.0123354 -0.00308096 0.00308289 -0.00616771 0.00925061 -0.00308096 0.00308482 -0.00616386 0.00308289 -0.00308289 0.00308289 -0.00308289 0.00308482 -0.00308289 0.00308482 -0.00308289 0.00308096 -0.00308289 0.00308482 -0.00616386 0.00308289 -0.00308482 0 -0.00616386 0.00616771 0 0.00308289 -0.00308289 0 -0.00308096 0 -0.00308289 0.00308289 -0.00616579 0.00308482 -0.00308289 0.00308289 -0.00616386 0.00308482 -0.00924868 0.00308096 -0.0154125 0.00308482 -0.00924675 0.00308482 -0.00924868 0 -0.00924868 -0.00308482 -0.0462357 -0.00308482 -0.00308289 -0.00308096 -0.0184974 -0.00308482 -0.00924675 -0.00308289 -0.00616386 -0.00308482 -0.00616579 -0.00308289 -0.00616579 -0.00308289 -0.00616579 -0.00308482 -0.00308289 -0.00308289 -0.00308096 -0.00308289 -0.00308289 -0.00308482 -0.00616386 -0.00308096 -0.00308482 -0.00616964 0 0 -0.00616386 -0.00308289 -0.00308289 -0.00308289 -0.00308096 -0.00308482 -0.00308482 -0.00308289 -0.00308289 -0.00616771 -0.00308096 -0.00308289 -0.00308289 -0.00308482 -0.00308289 -0.00616579 -0.00308096 -0.00308482 -0.00308482 -0.00616579 -0.00308289 -0.00616771 -0.00308096 -0.00616579 -0.00308289 -0.0123354 -0.00308096 -0.00308482 -0.00308482 -0.0184993 -0.00308289 -0.046255 0 0 -0.00616386 -0.00308289 0 -0.00616771 0.00308289z"/>
    <path id="_133354368" class="fil3" d="M0.114092 1.32242l0.0863383 0 0 0.0739798 -0.0863383 0 0 -0.0739798zm-0.0493359 0.151044c0,0.00718763 0.00822683,0.0154125 0.0154183,0.0154125l0.151093 0c0.00946847,0 0.0185031,-0.00285346 0.0185031,-0.0123296l0 -0.0616521c0,-0.00946462 -0.00285732,-0.0184954 -0.0123354,-0.0184954l-0.0246689 0 0 -0.0893942 -0.11409 0 0 0.0893942 -0.021586 0c-0.00947811,0 -0.0123335,0.00903081 -0.0123335,0.0184954l0 0.0585692z"/>
    <path id="_133354848" class="fil3" d="M1.19642 1.39023c0,-0.0493205 0.00315809,-0.0727902 0.0246361,-0.101759 0.0116818,-0.0157557 0.0548558,-0.0461663 0.0832863,-0.0431219l0.0400352 0.00356682c0.00230783,0.00102377 0.0400101,0.0210944 0.0401393,0.0210944l0.00308289 0c0.00681167,0 0.0210635,-0.0184974 0.0616713,-0.0184974 0.00556425,-0.00372492 0.00542157,-0.00616386 0.0123354,-0.00616386l0.0123335 0c0.0374902,0 0.0587832,0.0204292 0.0740048,0.0431566 -0.0138817,0.0207223 -0.0431701,0.0393989 -0.0431701,0.0678159l0 0.0123277c0,0.080751 0.0555036,0.0808859 0.0555036,0.0986429 0,0.0174292 -0.029514,0.0539439 -0.039291,0.0655274 -0.0161278,0.0191066 -0.0286522,0.0423623 -0.0624657,0.0423623l-0.00925061 0c-0.0157769,0 -0.0456592,-0.0181272 -0.0647446,-0.0180751 -0.0252473,6.36244e-005 -0.0471765,0.0180751 -0.061681,0.0180751l-0.0123335 0c-0.0534233,0 -0.114092,-0.117246 -0.114092,-0.175706l0 -0.00924675zm-0.141844 0.656583l0.62596 0 0 -1.24843 -0.62596 0 0 1.24843z"/>
    <path id="_133356384" class="fil16" d="M1.05457 0.79838l0.62596 0 0 1.24843 -0.62596 0 0 -1.24843zm0.00925061 -0.206531l-0.0123335 0.00308289 -0.00616771 0.00308289 -0.00616771 0.00308289 -0.00616579 0.00308289 -0.00308482 0.00308096 -0.00308096 0.00308289 -0.00616964 0.00308096 -0.00308289 0.00308482 -0.00308289 0.00308289 -0.00616771 0.00308096 -0.00308289 0.00616579 -0.00308289 0.00308289 -0.00308482 0.00308289 -0.00308482 0.00308289 -0.00308096 0.00308096 -0.00308482 0.00616771 -0.00308482 0.00616386 -0.00308096 0.00308096 -0.00308482 0.00616579 -0.00308289 0.00924868 -0.00308289 0.00308096 -0.00308482 0.00924868 -0.00308289 0.0123296 -0.00308482 0.0154125 0 1.42106 0.00308482 0.0154125 0.00308289 0.0123296 0.00308482 0.00924868 0.00308289 0.00616386 0.00308289 0.00616579 0.00308482 0.00616386 0.00308096 0.00308289 0.00308482 0.00616579 0.00308482 0.00616579 0.00616579 0 0 0.00616386 0.00308482 0.00308482 0.00308289 0.00308096 0.00308289 0.00308289 0.00308289 0.00308096 0.00308482 0.00308289 0.00308289 0.00308289 0.00308289 0.00308289 0.00308482 0.00308289 0.00616579 0.00308289 0.00616964 0.00308096 0.00308096 0.00308289 0.00925253 0.00308482 0.00308289 0.00308096 0.0123335 0.00308289 0.0123354 0.00308096 0.588958 0 0.0123335 -0.00308096 0.00925253 -0.00308289 0.00616579 -0.00308096 0.00925061 -0.00308482 0.00308289 -0.00308289 0.00616771 -0.00308096 0.00616771 -0.00308289 0.00308289 -0.00308289 0.00308289 -0.00308289 0.00308482 -0.00308289 0.00308482 -0.00308289 0.00308096 -0.00308096 0.00308482 -0.00308289 0.00308289 -0.00308096 0.00308289 -0.00308482 0.00308482 -0.00616386 0.00308289 -0.00308289 0.00308289 -0.00308289 0.00308482 -0.00616579 0.00308289 -0.00616386 0.00308482 -0.00616386 0.00308096 -0.00924868 0.00308482 -0.00308289 0.00308482 -0.00924868 0.00308096 -0.0123277 0.00308482 -0.0154145 0 -1.41489 -0.00308482 -0.0154145 -0.00308096 -0.0123296 -0.00308482 -0.00924868 -0.00308482 -0.00616386 -0.00308096 -0.00924868 -0.00308482 -0.00616579 -0.00308289 -0.00308096 -0.00308482 -0.00616386 -0.00308289 -0.00308482 -0.00308289 -0.00616386 -0.00308482 -0.00308289 -0.00308289 -0.00308289 -0.00308289 -0.00308289 -0.00308482 -0.00308289 -0.00308096 -0.00308289 -0.00308482 -0.00308096 -0.00308482 -0.00308289 -0.00308289 -0.00308482 -0.00616771 -0.00308096 -0.00308289 -0.00308289 -0.00308482 -0.00308096 -0.00616579 -0.00308289 -0.00616579 -0.00308289 -0.00925061 -0.00308289 -0.00925253 -0.00308289 -0.00925061 -0.00308289 -0.595126 0 -0.00925061 0.00308289z"/>
   </g>
   <path id="_133341288" class="fil17 str0" d="M0.24764 0.840182c0.00585538,-0.0123991 0.0147107,-0.00732645 0.0175681,0l0.00557003 0.0467813c0.0131394,0.00676347 0.0262788,0.0135269 0.0394202,0.0202904 0.00773326,0.00581489 0.00161567,0.00902696 -0.001714,0.00845434l-0.0398501 -0.00225385 0.000429947 0.0287447 0.0308501 0.0231092c0.00367865,0.00201092 0.00368058,0.00911179 -0.00385603,0.00676347l-0.0349472 -0.0188463c-0.00928531,0.00601154 -0.0200417,0.0139607 -0.0293251,0.0199723 -0.00449227,0.00331811 -0.00843313,0.00130526 -0.00685601,-0.00676347l0.0205661 -0.0231072 -0.001714 -0.0270558 -0.0325641 0.0146548c-0.00942798,-0.000225578 -0.00643185,-0.00861822 -0.00385603,-0.0118361l0.0359921 -0.0293077 0.00428597 -0.0496001z"/>
   <polygon id="_133340952" class="fil17 str0" points="0.570372,0.988968 0.710991,0.988968 0.770604,1.08526 0.770604,1.21366 0.726277,1.21366 0.724748,1.16933 0.5678,1.16933 0.566994,1.21824 0.513817,1.21824 0.513817,1.09902 "/>
   <polygon id="_133341024" class="fil18 str1" points="0.595554,1.0175 0.684649,1.0175 0.715586,1.06576 0.576993,1.06576 "/>
   <rect id="_133341096" class="fil18 str1" x="0.558431" y="1.10412" width="0.0420729" height="0.0371232"/>
   <rect id="_133341576" class="fil18 str1" x="0.687124" y="1.10289" width="0.0420729" height="0.0371232"/>
   <ellipse id="_82795048" class="fil19 str2" cx="0.159524" cy="1.42208" rx="0.0137872" ry="0.0126092"/>
   <rect id="_133347216" class="fil19 str2" x="0.15652" y="1.42966" width="0.00610023" height="0.0392428"/>
   <rect id="_81295816" class="fil17 str0" x="1.38026" y="0.154127" width="0.21819" height="0.0955786"/>
   <rect id="_81647032" class="fil19 str2" x="1.39474" y="0.17054" width="0.0173779" height="0.0106198"/>
   <rect id="_81622944" class="fil19 str2" x="1.44872" y="0.169521" width="0.0173779" height="0.0106198"/>
   <rect id="_81296104" class="fil19 str2" x="1.50473" y="0.168756" width="0.0173779" height="0.0106198"/>
   <rect id="_81623712" class="fil19 str2" x="1.56354" y="0.169265" width="0.0173779" height="0.0106198"/>
   <rect id="_81623568" class="fil19 str2" x="1.5638" y="0.195792" width="0.0173779" height="0.0106198"/>
   <rect id="_81132136" class="fil19 str2" x="1.56354" y="0.222828" width="0.0173779" height="0.0106198"/>
   <rect id="_81296152" class="fil19 str2" x="1.44862" y="0.19535" width="0.0173779" height="0.0106198"/>
   <rect id="_81296728" class="fil19 str2" x="1.50438" y="0.193566" width="0.0173779" height="0.0106198"/>
   <rect id="_81622968" class="fil19 str2" x="1.50488" y="0.221111" width="0.0173779" height="0.0106198"/>
   <rect id="_81296536" class="fil19 str2" x="1.44785" y="0.222132" width="0.0173779" height="0.0106198"/>
   <rect id="_81132568" class="fil19 str2" x="1.39381" y="0.196214" width="0.0173779" height="0.0106198"/>
   <rect id="_81623520" class="fil19 str2" x="1.39347" y="0.223082" width="0.0173779" height="0.0106198"/>
   <path id="_81132088" class="fil20 str3" d="M1.38865 0.100025c0.0451309,-0.0466868 0.127609,-0.0588256 0.188612,0"/>
   <path id="_81651544" class="fil20 str3" d="M1.41985 0.119327c0.0325584,-0.0336824 0.0920607,-0.0424394 0.136071,0"/>
   <rect id="_81943744" class="fil17 str0" x="0.963615" y="0.282768" width="0.077869" height="0.026002"/>
   <rect id="_81647176" class="fil17 str0" x="0.934744" y="0.320092" width="0.133322" height="0.026002"/>
   <rect id="_82793872" class="fil17 str0" x="2.44051" y="0.62451" width="0.181711" height="0.0318585"/>
   <rect id="_82705928" class="fil21 str4" x="2.0523" y="0.703567" width="0.029194" height="0.0486843"/>
   <rect id="_82704680" class="fil21 str4" x="2.15006" y="0.702822" width="0.029194" height="0.0486843"/>
   <ellipse id="_82783824" class="fil17 str0" cx="2.1104" cy="1.04312" rx="0.017649" ry="0.0180288"/>
   <path id="_81132064" class="fil22 str5" d="M1.47842 1.07443c-0.0262094,0.00475834 -0.0509824,0.0171208 -0.0690633,0.0537202 -0.0126246,0.0237261 -0.0186188,0.0495249 -0.0184627,0.0804926 0.0304048,0.00186246 0.0511483,-0.0125282 0.0693911,-0.0389034 0.0159659,-0.0228604 0.0221143,-0.0609426 0.0181349,-0.0953094z"/>
   <rect id="_133340736" class="fil17 str0" x="0.457876" y="0.464184" width="0.125787" height="0.225246"/>
   <rect id="_132550784" class="fil23 str6" x="0.474974" y="0.484341" width="0.0924015" height="0.104524"/>
   <rect id="_82705448" class="fil23 str6" x="0.475995" y="0.611491" width="0.0178677" height="0.0168467"/>
   <rect id="_133347168" class="fil23 str6" x="0.475995" y="0.648118" width="0.0178677" height="0.0168467"/>
   <rect id="_82706000" class="fil23 str6" x="0.513732" y="0.610596" width="0.0178677" height="0.0168467"/>
   <rect id="_133347240" class="fil23 str6" x="0.513732" y="0.647223" width="0.0178677" height="0.0168467"/>
   <rect id="_132548408" class="fil23 str6" x="0.548774" y="0.610402" width="0.0178677" height="0.0168467"/>
   <rect id="_82707008" class="fil23 str6" x="0.548774" y="0.647028" width="0.0178677" height="0.0168467"/>
  </g>
 </g>
</svg>
