<?xml version="1.0" encoding="UTF-8"?>
<!DOCTYPE svg PUBLIC "-//W3C//DTD SVG 1.1//EN" "http://www.w3.org/Graphics/SVG/1.1/DTD/svg11.dtd">
<!-- Creator: CorelDRAW -->
<svg xmlns="http://www.w3.org/2000/svg" xml:space="preserve" width="4.83137in" height="4.35638in" style="shape-rendering:geometricPrecision; text-rendering:geometricPrecision; image-rendering:optimizeQuality; fill-rule:evenodd; clip-rule:evenodd"
viewBox="0 0 4.2107 3.79673"
 xmlns:xlink="http://www.w3.org/1999/xlink">
 <defs>
  <style type="text/css">
   <![CDATA[
    .str1 {stroke:#0093DD;stroke-width:0.0026146}
    .str3 {stroke:#1F1A17;stroke-width:0.0026146}
    .str2 {stroke:#F7C5B4;stroke-width:0.0026146}
    .str0 {stroke:#E77817;stroke-width:0.0060527}
    .fil11 {fill:none}
    .fil12 {fill:#0093DD}
    .fil14 {fill:#1F1A17}
    .fil13 {fill:#F7C5B4}
    .fil3 {fill:#183F5C}
    .fil10 {fill:#1DB1BB}
    .fil6 {fill:#44BEBC}
    .fil5 {fill:#7CD2AE}
    .fil9 {fill:#946733}
    .fil1 {fill:#94DA9D}
    .fil2 {fill:#B1E4B7}
    .fil0 {fill:#B2E4A2}
    .fil7 {fill:#D5DEDE}
    .fil8 {fill:#F5F4F4}
    .fil4 {fill:#FADDBA}
   ]]>
  </style>
 </defs>
 <g id="Layer_x0020_1">
  <metadata id="CorelCorpID_0Corel-Layer"/>
  <g id="_113211160">
   <g>
    <path id="_114010240" class="fil0" d="M2.50243 0.937746c0.0193933,-0.0305895 -0.0143734,-0.142949 0.022852,-0.142949l0.0685595 0 0 0.154385c0,0.021181 0.00557576,0.0258269 0.0130353,0.0343569l-0.00160925 -0.195889 0.017139 -0.00428904 0 0.0114363 0.0685595 0c0.0218467,0 0.00207933,-0.00175679 0.0171424,0.00571644 -0.00298517,-0.0128225 -0.00571301,-0.0131451 -0.00571301,-0.028589l0 -0.00571644c0,-0.0826001 0.0689644,-0.171541 0.137119,-0.171541l0.0628465 0c0.0676811,0 0.101698,0.0687208 0.131406,0.102923l0.199962 0 0.0685629 -0.0514617 0.000699972 -0.0168028 0.016439 -0.0346589c0.00696884,0.0039219 0.00611103,0.00571987 0.017139,0.00571987l0.70845 0 0 0.0857706c0,0.0746225 0.00576447,0.138258 0.00571301,0.205847 -7.89184e-005,0.10233 0.000521548,0.108671 -0.102841,0.10864 -0.142832,-4.4606e-005 -0.285664,0 -0.428496,0l-0.00571301 0.00571987c0.0952202,0 0.190444,0 0.285664,0 0.0476118,0 0.0952236,-3.43123e-006 0.142832,0 0.0678595,0 0.0850226,0.00940158 0.114267,-0.0343089l0 -0.160105 0.00571301 0 0 0.0457452 0.0799855 0 0 -0.028589 0.00571301 0 0 0.394537 0 0.789081 0 1.12644 0.00571301 -2.85327 -1.65114 0 0 0.651849z"/>
    <path id="_59274896" class="fil1" d="M3.30229 0.646129c0.0313478,-0.00730853 0.0584785,-0.0171527 0.0971245,-0.0171527l0.00571301 0c0.0571712,0 0.097351,0.0386769 0.11449,0.0798277 0.0143185,0.0343844 0.00260431,0.0332624 0.027268,0.0699148 0.0146823,0.0218158 0.0239294,0.0438237 0.0239294,0.0789767l0 0.0343089c0,0.0328198 -0.0384641,0.0841304 -0.0514205,0.10864 0.142832,0 0.285664,-4.4606e-005 0.428496,0 0.103363,3.08811e-005 0.102762,-0.00631004 0.102841,-0.10864 5.14685e-005,-0.0675885 -0.00571301,-0.131224 -0.00571301,-0.205847l0 -0.0857706 -0.70845 0c-0.011028,0 -0.0101702,-0.00179797 -0.017139,-0.00571987l-0.016439 0.0346589 -0.000699972 0.0168028z"/>
    <path id="_80644360" class="fil2" d="M2.70811 0.800514c0.0318144,0.0663635 0.0751475,0.145447 0.18154,0.130665 0.0740495,-0.0102903 0.149832,-0.0774395 0.149832,-0.16497l0 -0.0400253c0,-0.015444 -0.00272783,-0.0157665 -0.00571301,-0.0285925 -0.0297076,-0.0342025 -0.0637249,-0.102923 -0.131406,-0.102923l-0.0628465 0c-0.0681546,0 -0.137119,0.088941 -0.137119,0.171541l0 0.00571644c0,0.015444 0.00272783,0.0157665 0.00571301,0.028589z"/>
    <path id="_114010264" class="fil3" d="M1.67971 0.823386l-0.017139 0.00571987 -0.011426 0.00571644 -0.017139 0 -0.00571301 -0.00571644 -0.0171424 -0.00571987 -0.0571335 0 -0.022852 0.00571987 -0.011426 0.00571644 -0.017139 0.00571987 -0.0114294 0.00571644 -0.00571301 0.00571644 -0.00571301 0.00571987 -0.00571301 0.00571644 -0.00571301 0.00571987 -0.00571301 0.00571644 -0.00571301 0.00571987 -0.00571301 0.0114363 -0.00571301 0.00571644 -0.00571301 0.0114363 -0.00571301 0.00571644 -0.00571301 0.0171562 -0.00571644 0.0114363 -0.00571301 0.028589 -0.00571301 0.102923 -0.011426 0.00571644 -0.00571301 0.00571987 -0.00571301 0.00571644 -0.011426 0.00571987 0 0.0114329 0.00571301 0.00571987 0.011426 0.00571644 0.00571301 0.00571987 0.011426 0.00571644 0.0228555 0.00571987 0.028565 0.00571644 0.034278 0 0.0171424 -0.00571644 0.017139 -0.00571987 0.011426 -0.00571644 0.00571301 -0.00571987 0.00571301 -0.00571644 0.00571301 -0.00571987 0.00571644 -0.00571644 0.00571301 -0.0114363 0.00571301 -0.00571644 0.00571301 0 0.00571301 0.0114363 0.00571301 0.00571644 0.00571301 0.0114363 0.00571301 0.00571644 0.00571301 0.0114363 0.00571301 0.00571987 0.00571301 0.00571644 0.00571644 0.00571987 0.00571301 0.00571644 0.00571301 0.00571644 0.00571301 0.00571987 0.00571301 0.00571644 0.00571301 0.00571987 0.00571301 0.00571644 0.00571301 0c0.0369235,-0.00860897 0.0529645,-0.0333996 0.0685595,-0.062898 -0.0122324,-0.0182816 -0.028565,-0.0227525 -0.028565,-0.0514617l0.00102251 -0.0256656 0.0332555 0.0142328c0.0371054,-0.0196507 0.0984867,-0.0997117 0.108554,-0.142952 0.0208242,0.0152724 0.034278,0.10432 0.03458,0.142461l0.0111275 0.0062071 0 -0.0228726 0 -0.0171527 0 -0.120079 -0.00571644 -0.0114329 -0.00571301 -0.0114363 -0.00571301 -0.0114363 -0.00571301 -0.0114363 -0.00571301 -0.00571987 -0.00571301 -0.0114329 -0.00571301 -0.00571987 -0.017139 -0.00571644 -0.0171424 -0.00571987 -0.028565 -0.00571644 -0.102841 0 -0.011426 0.00571644z"/>
    <path id="_113208784" class="fil3" d="M3.30229 0.646129l-0.0685629 0.0514617c-0.00464589,0.0199698 -0.011426,0.0192561 -0.011426,0.0400253l0 0.00571987c0,0.0095354 0.0165111,0.0784655 0.0228555,0.0857706 0.00659483,-0.0283317 0.0167993,-0.062898 0.0514205,-0.062898l0.034278 0c0.0299204,0 0.0971245,0.0145004 0.0971245,0.0400253 0,0.0195786 -0.0219805,0.0694345 -0.022852,0.10864 0.0355407,-0.00949766 0.0330394,-0.0857671 0.0742725,-0.0857671 0.0137592,0 0.0342815,0.0205394 0.0342815,0.0343055l0 0.0171562c0,0.0501818 -0.0364226,0.117708 -0.0571335,0.148665l0 0.0171562 0.0158077 -0.00133475 0.0413258 -0.0386906 0.00571301 -0.00571987c0.0129563,-0.0245093 0.0514205,-0.07582 0.0514205,-0.10864l0 -0.0343089c0,-0.035153 -0.00924718,-0.0571609 -0.0239294,-0.0789767 -0.0246637,-0.0366524 -0.0129495,-0.0355304 -0.027268,-0.0699148 -0.017139,-0.0411508 -0.0573188,-0.0798277 -0.11449,-0.0798277l-0.00571301 0c-0.038646,0 -0.0657768,0.00984421 -0.0971245,0.0171527z"/>
    <path id="_113208880" class="fil4" d="M3.24516 0.829106c-0.00704776,0.014696 -0.0114294,0.0348476 -0.0114294,0.0571781l0 0.0686144c0,0.0264994 0.0106643,0.0172008 0.0114294,0.0514651 0.0479412,0.0906738 0.102838,0.0102319 0.102168,0.147481l0.116127 -0.0618274 -0.00690364 -0.0456286 0 -0.0171562c0.0207109,-0.0309566 0.0571335,-0.0984833 0.0571335,-0.148665l0 -0.0171562c0,-0.0137661 -0.0205222,-0.0343055 -0.0342815,-0.0343055 -0.0412331,0 -0.0387318,0.0762695 -0.0742725,0.0857671 0.000871534,-0.0392053 0.022852,-0.0890611 0.022852,-0.10864 0,-0.025525 -0.0672042,-0.0400253 -0.0971245,-0.0400253l-0.034278 0c-0.0346212,0 -0.0448256,0.0345663 -0.0514205,0.062898z"/>
    <path id="_114012352" class="fil1" d="M2.70811 0.800514c-0.0150631,-0.00747323 0.00470422,-0.00571644 -0.0171424,-0.00571644l-0.0685595 0 0 -0.0114363 -0.017139 0.00428904 0.00160925 0.195889c-0.0074595,-0.00853005 -0.0130353,-0.0131759 -0.0130353,-0.0343569l0 -0.154385 -0.0685595 0c-0.0372255,0 -0.00345868,0.112359 -0.022852,0.142949l0 0.348795 0.54325 -0.000301949 -0.00620024 -0.0111344 -0.0914149 0.00190777 -0.0685423 -0.000257343 -0.0800232 0.000730853 -0.0799478 -0.00181512 -0.154279 0.00515371 -0.0571301 0 0 -0.251592c0,-0.038272 0.285386,-0.0228692 0.34851,-0.0228692 0.129502,0 0.259003,0 0.388505,0 -0.000765165,-0.0342643 -0.0114294,-0.0249657 -0.0114294,-0.0514651l0 -0.0686144c0,-0.0223305 0.00438169,-0.0424821 0.0114294,-0.0571781 -0.00634435,-0.0073051 -0.0228555,-0.0762352 -0.0228555,-0.0857706l0 -0.00571987c0,-0.0207693 0.00678012,-0.0200556 0.011426,-0.0400253l-0.199962 0c0.00298517,0.012826 0.00571301,0.0131485 0.00571301,0.0285925l0 0.0400253c0,0.0875308 -0.0757822,0.15468 -0.149832,0.16497 -0.106392,0.0147818 -0.149725,-0.0643013 -0.18154,-0.130665z"/>
    <path id="_113208952" class="fil5" d="M3.51368 1.00636l-0.0413258 0.0386906 -0.0158077 0.00133475 0.00690364 0.0456286 -0.116127 0.0618274c0.000669091,-0.137249 -0.0542272,-0.0568075 -0.102168,-0.147481 -0.129502,0 -0.259003,0 -0.388505,0 -0.0631244,0 -0.34851,-0.0154028 -0.34851,0.0228692l0 0.251592 0.0571301 0 0.154279 -0.00515371 0.0799478 0.00181512 0.0800232 -0.000730853 0.0685423 0.000257343 0.0914149 -0.00190777c0.0108015,-0.016144 0.0306203,-0.0343055 0.0571301,-0.0343055l0.0228555 0c0.0245745,0 0.0309703,0.00666689 0.0514205,0.0114363l0 0.0228692 0.0217129 -0.000463217 0.0239912 -0.0624347 -0.022852 0 0 -0.0171527 0.022852 0c0.0199938,0 0.0457075,-0.0623421 0.097128,-0.0743343 -0.00189061,0.0227148 -0.00571301,0.013773 -0.00571301,0.0285925 0,0.0351736 0.0137558,0.0365701 0.00737029,0.0698325 -0.0058777,0.0306169 -0.0134504,0.0444311 -0.0175645,0.0654199l0.0216202 0.0134127 0.011426 -0.00571644c0.00306066,-0.137445 0.154903,-0.127721 0.159971,-0.188694l0.0514205 0 0 0.0171527 -0.034278 0c0.0162092,0.011275 0.0718569,0.0215996 0.098871,0.0325624 0.0273366,0.0110932 0.0717608,0.0412469 0.0953815,0.0417718l-0.00702374 0.00270724 0.0298758 0.0773435 0.022852 0 0.0399945 -0.00571644 0 0.0171527c0.0128122,0.00298861 0.0131348,0.00571987 0.028565,0.00571987l0.0421973 -0.00236412 0.0206492 -0.0205085 0 0.0228726 0.0399945 0c0.0172728,0 0.0157974,-0.00672865 0.0173209,-0.0204536l0.0233701 -0.00219599 -0.00641298 0.0226496 0.0628465 0 0 -0.0114363 0.097128 0c0.0154303,0 0.0157528,0.00273126 0.0279954,0.00569928l0.00628259 -0.0628808 0 -0.394537 -0.00571301 0 0 0.028589 -0.0799855 0 0 -0.0457452 -0.00571301 0 0 0.160105c-0.0292444,0.0437105 -0.0464074,0.0343089 -0.114267,0.0343089 -0.0476084,-3.43123e-006 -0.0952202,0 -0.142832,0 -0.0952202,0 -0.190444,0 -0.285664,0z"/>
    <path id="_113209048" class="fil6" d="M3.74792 1.27511l0 0.0171562 -0.0133029 0.000662228 0.0247289 0.073672 0.0171424 0 0 0.0171527 -0.0126407 0.000264205 0.0297797 0.148401 -0.011426 0 0.00337977 0.0283145 0.0251853 0.383379 0.00571301 -0.0628945 0.188539 0c0.0294812,0 0.0457075,0.0238059 0.0457075,0.0514617l0 0.41741c0,0.106965 -0.268604,0.0173209 -0.331371,0.0571815 0.0628465,0 0.125693,0 0.188539,0 0.0658111,0 0.136855,0.0137524 0.147711,-0.0408591 0.0061522,-0.0309566 0.00083379,-0.148096 0.00083379,-0.18786 0,-0.0304899 0.000161268,-0.0610245 -2.40186e-005,-0.091511 -0.000308811,-0.0513519 0.01145,-0.0470594 0.01145,-0.0857465l0.00571301 0 0 0.0686144 0.0679625 -2.05874e-005 0.00631004 -0.0571575 0 -0.789081 -0.00628259 0.0628808c-0.0122426,-0.00296802 -0.0125652,-0.00569928 -0.0279954,-0.00569928l-0.097128 0 0 0.0114363 -0.0628465 0 0.00641298 -0.0226496 -0.0233701 0.00219599c-0.00152347,0.0137249 -4.80373e-005,0.0204536 -0.0173209,0.0204536l-0.0399945 0 0 -0.0228726 -0.0206492 0.0205085 -0.0421973 0.00236412c-0.0154303,0 -0.0157528,-0.00273126 -0.028565,-0.00571987l0 -0.0171527 -0.0399945 0.00571644z"/>
    <path id="_114011368" class="fil7" d="M3.31943 1.29798c0.013272,0.0198394 0.022852,0.0217506 0.022852,0.0571815l0 0.583231c-0.029639,0.011975 0.000809771,0.0348957 -0.0742107,0.0343707 -0.0361824,-0.000253911 -0.0724231,-6.17622e-005 -0.108612,-6.17622e-005 -0.0742759,0 -0.148548,0 -0.222821,0 -0.0680036,0 -0.402281,-0.0145587 -0.434209,0.00571644l0.599896 0c0.00387729,0.0354652 0.0628053,0.0514617 0.102838,0.0514617l0.457064 -0.0400253c0.0467677,-0.0109045 0.137435,-0.00410376 0.148545,-0.0457452l-0.0251853 -0.383379 -0.00337977 -0.0283145 0.011426 0 -0.0297797 -0.148401 0.0126407 -0.000264205 0 -0.0171527 -0.0171424 0 -0.0247289 -0.073672 0.0133029 -0.000662228 0 -0.0171562 -0.022852 0 -0.0298758 -0.0773435 0.00702374 -0.00270724c-0.0236206,-0.000524979 -0.0680448,-0.0306787 -0.0953815,-0.0417718 -0.0270141,-0.0109628 -0.0826619,-0.0212874 -0.098871,-0.0325624l0.034278 0 0 -0.0171527 -0.0514205 0c-0.00506793,0.060973 -0.15691,0.0512489 -0.159971,0.188694l-0.011426 0.00571644z"/>
    <path id="_113209144" class="fil8" d="M1.5483 1.84119l0.00571301 -0.0228726 0.00571301 -0.028589 0.00571644 -0.0228726 0 -0.028589 0.011426 0 0 0.0171527 0.00571301 0.0114363 0.00571301 0.0228726 0.00571301 0.0114329 0.00571301 0.0228726 0.00571301 0.0285925 0.0055586 0.0579844 -0.0169846 -0.00652621 -0.017139 -0.00571644 -0.0228555 -0.00571644 -0.0120505 -2.74499e-005 0.00633749 -0.0514342zm0.999827 -1.83547l-0.017139 0.00571987 -0.011426 0.00571644 -0.00571301 0.00571987 -0.011426 0.00571644 -0.00571301 0.00571987 -0.00571301 0.00571644 -0.00571644 0.00571987 -0.00571301 0.00571644 -0.00571301 0.00571644 -0.00571301 0.00571987 -0.00571301 0.00571644 -0.00571301 0.0114363 -0.00571301 0.0114363 -0.00571301 0.0114363 -0.00571301 0.0114363 -0.00571301 0.0343089 0 1.13216 -0.548479 0 -0.028565 0.00571644 -0.00571301 0.00571987 -0.00571301 0.00571644 -0.00571301 0.00571987 -0.00571644 0.00571644 -0.00571301 0.0114363 -0.00571301 0.00571644 -0.011426 -0.00571644 -0.00571301 -0.00571644 -0.011426 -0.00571987 -0.00571301 -0.00571644 0 -0.0400253 0 -0.0400288 0.022852 0 0.017139 -0.00571644 0.00571301 -0.00571987 0.0114294 -0.00571644 0.00571301 -0.00571644 0.00571301 -0.00571987 0.00571301 -0.00571644 0.00571301 -0.00571987 0.00571301 -0.00571644 0.00571301 -0.00571987 0.00571301 -0.0114363 0.00571301 -0.00571644 0.00571644 -0.0114363 0 -0.0800507 -0.0111275 -0.0062071c-0.000301949,-0.0381416 -0.0137558,-0.127189 -0.03458,-0.142461 -0.0100672,0.0432404 -0.0714486,0.123301 -0.108554,0.142952l-0.0332555 -0.0142328 -0.00102251 0.0256656c0,0.0287091 0.0163327,0.03318 0.028565,0.0514617 -0.015595,0.0294983 -0.031636,0.054289 -0.0685595,0.062898l-0.00571301 0.102923 -0.00571301 0.00571987 -0.011426 0.00571644 -0.011426 0.00571987 -0.0114294 0.00571644 -0.011426 0.00571987 -0.011426 0.00571644 -0.00571301 0.00571644 -0.011426 0.00571987 -0.00571301 0.00571644 -0.00571301 0.00571987 -0.0114294 0.00571644 -0.00571301 0.00571987 -0.00571301 0.00571644 -0.00571301 0.00571987 -0.00571301 0.0114329 -0.00571301 0.00571987 -0.00571301 0.00571644 -0.00571301 0.0114363 -0.00571301 0.00571987 -0.00571301 0.00571644 -0.00571301 0.0114363 -0.00571644 0.0114363 -0.00571301 0.0171527 -0.00571301 0.0114363 -0.00571301 0.0228726 -0.00571301 0.0114363 -0.00571301 0.0171527 -0.00571301 0.0228726 -0.00571301 0.028589 -0.00571301 0.0400253 -0.00571301 0.0457452 -0.00571301 0.028589 -0.00571301 0.0400253 -0.00571301 0.0343089 -0.00571644 0.0228726 -0.00571301 0.0400253 -0.00571301 0.0571781 0 0.0571815 0 0.0228692 0 0.0114363 0.011426 0.00571987 0.0171424 0.00571644 0.028565 0.00571987 0.0514205 0.00571644 0.0457075 0.00571987 0.0178596 5.14685e-005 -0.00643356 0.034254 0 0.0857706 0.00571301 0.0171527 0.00571301 0 0.142832 0.0114363 0.0514205 0c0.0981539,0 0.12033,-0.0217986 0.188539,-0.0400253l0.00571301 0 0 -0.0343089 -0.00571301 -0.0457418 -0.00571301 -0.0171562 0 -0.0114329 0.028565 -0.00571987 0.102841 0 0.028565 0.00571987 0.017139 0.00571644 0.0399945 0 0.022852 -0.00571644 0.0285685 -0.00571987 0.199965 -0.00571644 0 1.38946 0.00571301 0.028589 0.00571301 0.0114363 0.00571301 0.0171562 0.00571301 0.0114329 0.00571301 0.00571987 0.00571301 0.00571644 0.00571301 0.00571987 0.00571301 0.0114363 0.0114294 0 0 0.0114329 0.011426 0.00571987 0.00571301 0.00571644 0.011426 0.00571987 0.011426 0.00571644 0.011426 0.00571987 0.0285685 0.00571644 0.34851 0.00571987 0.222817 0 0.0705839 -0.00579535 -0.0134504 -0.377309 -0.691308 0 -0.00571301 -1.16075c0.0319276,-0.0202752 0.366205,-0.00571644 0.434209,-0.00571644 0.0742725,0 0.148545,0 0.222821,0 0.0361892,0 0.0724299,-0.000192149 0.108612,6.17622e-005 0.0750205,0.000524979 0.0445717,-0.0223957 0.0742107,-0.0343707l0 -0.583231c0,-0.0354309 -0.00958001,-0.0373421 -0.022852,-0.0571815l-0.0216202 -0.0134127c0.00411405,-0.0209889 0.0116868,-0.034803 0.0175645,-0.0654199 0.00638553,-0.0332624 -0.00737029,-0.0346589 -0.00737029,-0.0698325 0,-0.0148195 0.0038224,-0.0058777 0.00571301,-0.0285925 -0.0514205,0.0119922 -0.0771341,0.0743343 -0.097128,0.0743343l-0.022852 0 0 0.0171527 0.022852 0 -0.0239912 0.0624347 -0.0217129 0.000463217 0 -0.0228692c-0.0204502,-0.00476942 -0.026846,-0.0114363 -0.0514205,-0.0114363l-0.0228555 0c-0.0265097,0 -0.0463285,0.0181615 -0.0571301,0.0343055l0.00620024 0.0111344 -0.54325 0.000301949 0 -0.348795 0 -0.651849 1.65114 0 -0.00571301 2.85327 -0.217104 0 0.0399945 0.377384 0.108551 0 0.0285685 -0.00571644 0.011426 -0.00571987 0.011426 -0.00571644 0.00571301 -0.00571987 0.011426 -0.00571644 0.00571301 -0.00571987 0.00571301 -0.00571644 0.00571644 -0.00571644 0.00571301 -0.00571987 0.00571301 -0.00571644 0.00571301 -0.0114363 0.00571301 -0.00571987 0.00571301 -0.00571644 0.00571301 -0.0171527 0.00571301 -0.0114363 0.00571301 -0.0114363 0 -3.2764 -0.00571301 -0.0114363 -0.00571301 -0.0171527 -0.00571301 -0.0114363 -0.00571301 -0.00571644 -0.00571301 -0.0114363 -0.00571301 -0.00571987 -0.00571301 -0.00571644 -0.00571301 -0.00571644 -0.00571644 -0.00571987 -0.00571301 -0.00571644 -0.011426 -0.00571987 -0.00571301 -0.00571644 -0.00571301 -0.00571987 -0.011426 -0.00571644 -0.0171424 -0.00571987 -0.022852 -0.00571644 -1.50831 0 -0.0228555 0.00571644z"/>
    <path id="_113209240" class="fil6" d="M2.50814 3.13916l0.114264 -0.360232c0,0.0603794 -0.0213972,0.246994 0.0228555,0.263025 -0.00593947,-0.0112339 -0.011426,-0.0168611 -0.011426,-0.0343055l0 -0.325926c0,-0.0161474 0.0131073,-0.0220594 0.022852,-0.028589l0.531337 0 0.017139 -0.62326c-0.0400322,0 -0.0989602,-0.0159964 -0.102838,-0.0514617l-0.599896 0 0.00571301 1.16075z"/>
    <path id="_114012424" class="fil4" d="M0.691308 2.18426c-0.0215173,0 -0.0108015,-0.00376063 -0.034278,-0.00571644 -0.00366799,0.0153342 -0.00571301,0.0107775 -0.00571301,0.0228726 0,0.0702305 -0.00380867,0.0743308 0.039991,0.0743308l0.0230819 -0.00142396 0.045481 0.00714383c0.0348888,-0.0233839 0.0909517,-0.028589 0.148545,-0.028589 -0.0173209,-0.0361275 -0.0261494,-0.0857706 -0.0857019,-0.0857706l-0.022852 0c-0.0324046,0 -0.0626921,0.0171527 -0.108554,0.0171527z"/>
    <path id="_113209336" class="fil9" d="M0.691308 2.18426c0.0458619,0 0.0761494,-0.0171527 0.108554,-0.0171527l0.022852 0c0.0595525,0 0.0683811,0.0496431 0.0857019,0.0857706 -0.0575933,0 -0.113656,0.00520518 -0.148545,0.028589l-0.045481 -0.00714383 -0.0230819 0.00142396c-0.0437997,0 -0.039991,-0.00410033 -0.039991,-0.0743308 0,-0.0120951 0.00204502,-0.00753842 0.00571301,-0.0228726 0.0234765,0.0019558 0.0127608,0.00571644 0.034278,0.00571644zm0.0457075 -0.160101l-0.022852 0.00571644 -0.017139 0 -0.0571335 -0.00571644 -0.0342815 0 -0.00571301 0.00571644 -0.00571301 0.0114363 0 0.091487 0.00571301 0.0114363 0.00571301 0.00571987 0.00571301 0.0114363 0.00571301 0.00571644 0.00571301 0.0114363 0.00571301 0.0114363 0.00571644 0.0171527 0.00571301 0.0228726 0.00571301 0.0514617 -0.011426 0 -0.00571644 0.00571644 0 0.0171562 0.00571644 0.0114329 0.00571301 0.0114363 0.00571301 0.0114363 0.00571301 0.00571987 0.00571301 0.00571644 0.00571301 0.0114363 0.00571301 0.00571644 0.00571301 0.00571987 0.00571301 0.0114363 0.00571301 0.0171527 0.00571301 0.00571987 0.00571644 0.0114363 0.00571301 0.0114329 0.00571301 0.0114363 0.00571301 0.00571987 0.00571301 0.00571644 0.00571301 0.00571987c0.0231711,0.00618995 0.0417238,0.0343055 0.0742725,0.0343055l0.028565 0c0.0591716,0 0.0971142,-0.0590927 0.125693,-0.0800507l0.00571301 0 0.00571301 -0.0114363 0.00571644 -0.0114363 0.00571301 -0.0114363 0.00571301 -0.0114363 0.00571301 -0.0228692 0 -0.171541 -0.00571301 -0.0343055 -0.00571301 -0.0171562 -0.00571301 -0.0228692 -0.00571644 -0.0114363 -0.00571301 -0.0114363 -0.00571301 -0.00571987 -0.00571301 -0.0114363 -0.00571301 -0.00571644 -0.00571301 -0.00571644 -0.011426 -0.00571987 -0.011426 -0.00571644 -0.017139 -0.00571987 -0.0171424 -0.00571644 -0.028565 -0.00571987 -0.0742725 0 -0.0399945 0.00571987z"/>
    <path id="_113209408" class="fil10" d="M3.71936 2.40726l0 0.00571644c0,0.0620127 0.0132686,0.157583 0.0216442,0.212774 0.0153479,0.101125 -0.0180003,0.126297 0.0397303,0.194675 0.0731814,0.0866798 0.120038,0.189946 0.150017,0.318734l0.217104 0 0 -1.12644 -0.00631004 0.0571575 -0.0679625 2.05874e-005 0 -0.0686144 -0.00571301 0c0,0.0386872 -0.0117588,0.0343947 -0.01145,0.0857465 0.000185287,0.0304865 2.40186e-005,0.0610211 2.40186e-005,0.091511 0,0.0397646 0.00531841,0.156903 -0.00083379,0.18786 -0.0108564,0.0546115 -0.0819001,0.0408591 -0.147711,0.0408591 -0.0628465,0 -0.125693,0 -0.188539,0z"/>
    <path id="_114011584" class="fil6" d="M3.81077 1.94411c-0.0111103,0.0416415 -0.101777,0.0348408 -0.148545,0.0457452 0.00496156,0.0213148 0.0318796,0.0819722 0.0435973,0.11647 0.0126201,0.0371465 0.0192492,0.0932507 0.0192492,0.140838l-0.00223373 0.0512455 -0.00347927 0.114576 0 -0.00571644c0.0627676,-0.0398606 0.331371,0.0497838 0.331371,-0.0571815l0 -0.41741c0,-0.0276557 -0.0162263,-0.0514617 -0.0457075,-0.0514617l-0.188539 0 -0.00571301 0.0628945z"/>
    <path id="_113209504" class="fil8" d="M0.725589 2.45873l0 0.00571644 0.00571301 0.00571987 0.00571301 0.0171527 -0.011426 0 -0.017139 0.00571644 -0.011426 0.00571987 -0.0114294 0.00571644 -0.011426 0.00571987 -0.011426 0.00571644 -0.00571301 0.00571987 -0.00571301 0.00571644 -0.011426 0.00571644 -0.00571301 0.00571987 -0.0114294 0.00571644 0 0.0114363 -0.011426 0 -0.00571301 0.00571987 -0.00571301 0.00571644 0 0.00571987c-0.00536302,0.0230407 -0.017139,0.0285685 -0.017139,0.0514617l0.00166072 0.0226427 0.0326173 0.280407 0 0.0343089 0.0036028 -0.00634435 0.0511425 0.0290763 -0.00531498 0.00606299 0.0305586 0.285691 0.017139 0c0.0218535,0 0.015245,-0.0187174 0.0416826,-0.0326139 0.0194482,-0.0102216 0.034604,-0.0154611 0.0531635,-0.026846 0.0338423,-0.0207658 0.0625205,-0.0380798 0.0959785,-0.0583276 0.0332075,-0.0200967 0.0645724,-0.0394969 0.0887729,-0.06554 0.0244578,-0.0263176 0.0467197,-0.0706354 0.0746259,-0.0854137 -0.0184189,-0.0791311 -0.0514205,-0.250755 -0.0514205,-0.343079 0,-0.125762 0.0900047,-0.142444 0.097128,-0.160105l0 -0.00571644 -0.011426 -0.00571987 -0.011426 -0.00571644 -0.0171424 -0.00571987 -0.022852 -0.00571644 -0.011426 -0.00571644 -0.0228555 -0.00571987 -0.017139 -0.00571644 -0.011426 -0.00571987 -0.011426 -0.00571644 -0.0114294 -0.00571987 -0.00571301 -0.0114363 -0.00571301 -0.0171527c-0.0285788,0.020958 -0.0665213,0.0800507 -0.125693,0.0800507l-0.028565 0c-0.0325487,0 -0.0511014,-0.0281155 -0.0742725,-0.0343055z"/>
    <path id="_113209600" class="fil3" d="M1.5883 2.1328l0 0.228719 0.00571301 0.102923 0 0.371668 -0.00571301 0.0400253 -0.00571301 0.0743343 -0.00571301 0.0743343 -0.00571301 0.091487 -0.000288224 0.0523195 -0.0111412 -0.00657768 -0.00571301 0 -0.034278 0.00571987 0 0.0114363 0.0462771 1.71562e-005 -0.00628602 0.0628808 -0.00571301 0.137229 0 0.0800541 0.00571301 0.142949 0.00571644 0.00571644 0.00571301 0.00571987 0.0121466 5.14685e-005 -0.00643356 0.034254 0 0.0114363c0.00962804,-0.00669777 0.011426,-0.000820065 0.011426,-0.0171527l-5.8331e-005 -0.0318624 0.0743308 0.0032734 0.022852 0 0.00571301 -0.00571987 0.00571301 -0.0171527 0.00571644 -0.0343089 0.00571301 -0.0457418 0.00571301 -0.0400253 0.00571301 -0.0228726 0.00571301 -0.0400253 0.00571301 -0.0400253 0.00571301 -0.0400288 0.00571301 -0.0228692 0.00571301 -0.0457452 0.00571301 -0.0400253 0.00571644 -0.028589 0.00571301 -0.0457452 0.00571301 -0.0514617 0.00571301 -0.0743343 0.00571301 -0.0400253 0.00571301 -0.062898 0.00571301 -0.0343055 0.00571301 -0.062898 0.00256999 -0.018014 0.00314301 0.0122941 0.00571301 0.0285925 0.00571301 0.0343055 0.00571301 0.0171562 0.00571301 0.0400253 0.00571301 0.0571781 0.00571644 0.0743343 0.00571301 0.0571781 0.00571301 0.0972069 0.00571301 0.148669 0.00571301 0.0686144 0.00571301 0.154385 0.00571301 0.00571644 0.00571301 0.00571987 0.011426 0.00571644 0.00571644 0.00571987 0.00571301 0 0 0.0114363 0 0.028589 0.011426 0 0 -0.0514617 0.0644935 0.0022303 0.038344 0.0549478 0 -0.0171527 -0.00571301 -0.00571987 -0.00571301 -0.00571644 -0.00571301 -0.0114363 -0.00571301 -0.00571644 0 -0.0114363 0.011426 -0.00571987 0.00571301 -0.0114363 0.00571301 -0.30877 0.00571301 -0.10864 0 -0.405977 -0.00571301 -0.0514617 -0.00571301 -0.0972034 -0.00571301 -0.0800541 -0.00571301 -0.0972034 -0.00571301 -0.0343089 -0.00571301 -0.0972034 -0.00571301 -0.0571815 -0.00571301 -0.091487 -0.00571301 -0.0514617c-0.0682095,0.0182267 -0.0903856,0.0400253 -0.188539,0.0400253l-0.0514205 0 -0.142832 -0.0114363z"/>
    <path id="_114011344" class="fil10" d="M3.3937 3.14488l0.325658 -0.00571644 -0.268525 -0.754772c-0.0132274,0.0568178 -0.125693,0.414778 -0.125693,0.41741 0,0.000120093 0.0535341,0.131855 0.0597618,0.137078l0.00879768 0.206001z"/>
    <path id="_113209672" class="fil10" d="M2.50814 3.13916l0.691308 0 -0.017139 -0.371668 -0.00131759 -0.0401695 0.0070306 -0.0741901 -0.531337 0c-0.00974471,0.00652964 -0.022852,0.0124417 -0.022852,0.028589l0 0.325926c0,0.0174444 0.00548654,0.0230716 0.011426,0.0343055 -0.0442526,-0.0160307 -0.0228555,-0.202645 -0.0228555,-0.263025l-0.114264 0.360232z"/>
    <path id="_113209744" class="fil7" d="M0.599896 2.57309l-0.00571301 0 -0.00571301 0.00571644 -0.00571301 0.0114363 -0.00571301 0.0114363 -0.00571301 0.00571644 -0.00571301 0.0171562 -0.00571301 0.0171527 -0.00571644 0.0171527 -0.00571301 0.0285925 -0.00571301 0.131512 0 0.0743343 0 0.00571644 -3.08811e-005 0.0464006 -0.0456732 -0.00637523 -0.0514205 -0.00571644 -0.0628465 -0.00571987 -0.0742725 -0.00571644 -0.0742725 -0.00571987 -0.0399945 -0.00571644 -0.114267 0 -0.00571301 0.00571644 -0.00571301 0.00571987 -0.00571301 0.0171527 0 0.0228726 0.00571301 0.0457452 0.00571301 0.0686144 0.00571301 0.0514617 0.00571301 0.0571781 0.00571301 0.0343089 0.00571301 0.0514617c0.0186042,0.0075144 0.0171424,0.0545292 0.0171424,0.0800507 0.0248078,0.0370813 0.0639445,0.0297522 0.11998,0.0343089 0.0467403,0.00379838 0.099921,0.00962461 0.148699,0.0112785 0.0893253,0.00302635 0.19312,0.0287469 0.28551,0.0287469l0.0342815 0c0.0216477,0 0.230071,-0.198826 0.258516,-0.227299 0.071078,-0.0711329 0.157257,-0.201547 0.284247,-0.201547l0 -0.0343089 -0.00571301 -0.0686144 -0.00571301 -0.0514617 -0.00571301 -0.0285925 -0.00571644 -0.0514617 -0.00571301 -0.0457418 -0.00571301 -0.0457452 -0.00571301 -0.0228726 -0.00571301 -0.0400253 -0.00571301 -0.0514617 -0.00571301 -0.0114363 -0.011426 -0.00571644 -0.00571301 -0.00571987 -0.00571644 -0.00571644 -0.00571301 -0.00571644 -0.011426 -0.00571987 -0.00571301 -0.00571644 -0.017139 -0.00571987 -0.011426 0c-0.00712324,0.0176606 -0.097128,0.0343432 -0.097128,0.160105 0,0.0923242 0.0330016,0.263948 0.0514205,0.343079 -0.0279062,0.0147783 -0.0501681,0.0590961 -0.0746259,0.0854137 -0.0242005,0.0260431 -0.0555654,0.0454433 -0.0887729,0.06554 -0.033458,0.0202477 -0.0621362,0.0375617 -0.0959785,0.0583276 -0.0185595,0.0113848 -0.0337153,0.0166243 -0.0531635,0.026846 -0.0264377,0.0138965 -0.0198291,0.0326139 -0.0416826,0.0326139l-0.017139 0 -0.0305586 -0.285691 0.00531498 -0.00606299 -0.0511425 -0.0290763 -0.0036028 0.00634435 0 -0.0343089 -0.0326173 -0.280407 -0.00166072 -0.0226427c0,-0.0228932 0.011776,-0.0284209 0.017139,-0.0514617z"/>
    <path id="_114012760" class="fil3" d="M3.20516 2.02988l-0.017139 0.62326 -0.0070306 0.0741901 0.00131759 0.0401695 0.017139 0.371668 0.0134504 0.377309 -0.0705839 0.00579535 0.0632754 3.43123e-006 -0.00614191 0.10292 -0.00571301 0.00571644 -0.00571301 0.00571644 -0.011426 0.00571987 -0.00571301 0.00571644 -0.00571301 0.00571987 -0.0114294 0.00571644 -0.011426 0.00571987 -0.017139 0.00571644 -0.00571301 0.00571987 -0.017139 0.00571644 -0.0171424 0.00571987 -0.011426 0.00571644 -0.011426 0.00571644 -0.00571301 0.00571987 0 0.00571644 0.00571301 0.00571987 0.017139 0.00571644 0.0228555 0.00571987 0.0742725 0 0.0799855 -0.00571987 0.0399945 -0.00571644 0.017139 -0.00571987 0.00571301 -0.11436 0.00571301 -0.028589 0.00571301 -0.028589 0 -0.0114363 0.011426 0 0.0685595 -0.00571644 -0.0799855 -0.00571987c0,-0.0441325 0.0293302,-0.132652 0.038622,-0.178627 0.0114569,-0.0566771 0.0242245,-0.130071 0.0242245,-0.193041l-0.00879768 -0.206001c-0.00622769,-0.00522234 -0.0597618,-0.136958 -0.0597618,-0.137078 0,-0.00263176 0.112466,-0.360592 0.125693,-0.41741l0.268525 0.754772 0.131406 0.394537 0 0.0228726 0.00571301 0.0171562 0.00571301 0.0228692 0.00571301 0.0228726 0.00571301 0.0171527 0 0.0285925 -0.011426 0.00571644 -0.00571301 0.00571987 -0.00571301 0.00571644 -0.00571301 0.00571987 -0.011426 0.00571644 -0.00571644 0.00571644 -0.00571301 0.00571987 -0.011426 0.00571644 -0.00571301 0.00571987 -0.00571301 0.00571644 -0.00571301 0.00571987 0 0.00571644 0.00571301 0.00571987 0.017139 0.00571644 0.0457075 0 0.022852 -0.00571644 0.0114294 -0.00571987 0.017139 -0.00571644 0.011426 -0.00571987 0.00571301 -0.00571644 0.017139 -0.00571987 0.00571301 -0.00571644 0.00571301 -0.00571987 0.00571301 -0.00571644 0.00571644 -0.00571644 0.00571301 -0.00571987 0.011426 -0.00571644 0.011426 -0.00571987 0 -0.0343089 -0.00571301 -0.0171527 -0.00571301 -0.0228726 -0.00571301 -0.0400253 -0.00571301 -0.0228726 -0.00571301 -0.0171527 -0.0399945 -0.377384c-0.0299787,-0.128788 -0.0768356,-0.232054 -0.150017,-0.318734 -0.0577305,-0.0683776 -0.0243824,-0.0935492 -0.0397303,-0.194675 -0.00837564,-0.0551914 -0.0216442,-0.150762 -0.0216442,-0.212774l0.00347927 -0.114576 0.00223373 -0.0512455c0,-0.0475878 -0.00662914,-0.103692 -0.0192492,-0.140838 -0.0117177,-0.0344976 -0.0386357,-0.095155 -0.0435973,-0.11647l-0.457064 0.0400253z"/>
    <path id="_113209816" class="fil3" d="M0.0971245 3.27068l-0.011426 0 -0.011426 0.00571644 -0.011426 0.00571987 -0.00571301 0.00571644 -0.00571301 0.00571987 -0.011426 0.00571644 -0.00571301 0.00571987 0 0.0114363 -0.0114294 0 -0.00571301 0.0114329 -0.00571301 0.00571987 -0.00571301 0.0171527 -0.00571301 0.00571987 0 0.0571781 0.00571301 0.0114363 0.00571301 0.0171527 0.00571301 0.0114363 0.00571301 0.00571987 0.00571644 0.00571644 0.00571301 0.0114363 0.00571301 0.00571644 0.00571301 0.00571987 0.011426 0.00571644 0.00571301 0.00571987 0.00571301 0.00571644 0.011426 0.00571987 0.011426 0.00571644 0.00571301 0.00571987 0.0171424 0.00571644 0.00571301 0.00571644 0.017139 0.00571987 0.017139 0.00571644 0.0114294 0.00571987 0.017139 0.00571644 0.017139 0.00571987 0.017139 0.00571644 0.0114294 0.00571987 0.022852 0.00571644 0.017139 0.00571644 0.017139 0 0 0.0686178 0.00571301 0.0171527 0.00571301 0.0114363 0.00571644 0.0114363 0.00571301 0.00571644 0.00571301 0.0114363 0.00571301 0.00571987 0.011426 0.00571644 0.0457075 0.00571987 0.011426 0 0.011426 0 0.017139 0 0.0228555 -0.00571987 0.022852 -0.00571644 0.017139 -0.00571987 0.0171424 -0.00571644 0.022852 -0.00571987 0.017139 -0.00571644 0.017139 -0.00571644 0.0114294 -0.00571987 0.022852 0 0.011426 0.00571987 0.022852 0.00571644 0.0228555 0.00571644 0.022852 0.00571987 0.017139 0.00571644 0.0171424 0.00571987 0.028565 0.00571644 0.017139 0.00571987 0.0514205 0 0.011426 -0.00571987 0.00571301 -0.00571644 0.0228555 0 0.011426 0.00571644 0.011426 0.00571987 0.011426 0.00571644 0.00571301 0.00571987 0.0171424 0.00571644 0.017139 0.00571644 0.011426 0.00571987 0.011426 0.00571644 0.017139 0.00571987 0.0228555 0.00571644 0.011426 0.00571987 0.017139 0.00571644 0.0285685 0.00571987 0.039991 0.00571644 0.0571335 0 0.00571301 -0.00571644 0.00571301 -0.00571987 0.00571301 -0.00571644 0.00571301 -0.00571987 0.00571301 -0.00571644 0.00571301 -0.00571987 0.00571644 -0.00571644 0.00571301 -0.0171527 0.00571301 -0.00571987 0.00571301 -0.0228726 0.00571301 -0.0114363 0 -0.028589 -0.00571301 -0.0114363 -0.011426 -0.00571644 -0.0457075 0 -0.0914115 0 -0.0114294 -0.00571987 0.0114294 -0.00571644 0.011426 -0.00571987 0.00571301 -0.00571644 0.011426 -0.00571644 0.00571301 -0.00571987 0.00571301 -0.00571644 0.0114294 -0.00571987 0.00571301 -0.00571644 0.00571301 -0.00571987 0.00571301 -0.00571644 0.011426 -0.00571987 0 -0.0114329 0.011426 0 0 -0.0114363 0.011426 0 0.00571301 -0.00571987 0.00571301 -0.0114363 0.00571301 -0.00571644 0.00571301 -0.00571987 0.00571644 -0.00571644 0.00571301 -0.00571644 0.00571301 -0.00571987 0.00571301 -0.0114363 0.00571301 -0.00571644 0.00571301 -0.00571987 0.00571301 -0.0114363 0.00571301 -0.00571644 0.00571301 -0.00571644 0.00571301 -0.0114363 0.00571644 -0.0114363 0.00571301 -0.00571987 0.00571301 -0.00571644 0.00571301 -0.0114363 0.00571301 -0.0114363 0.00571301 -0.00571644 0.00571301 -0.0114363 0.00571301 -0.0114363 0.00571301 -0.00571987 0.00571301 -0.0114329 0.00571301 -0.0114363 0.00571301 -0.00571987 0.00571301 0 0.0114294 0.00571987 0.00571301 0.00571644 0.00571301 0.00571987 0.011426 0.00571644 0.011426 0.00571644 0.011426 0.00571987 0.0114294 0.00571644 0.022852 0.00571987 0.034278 0.00571644 0.0628465 0 0 -0.0114363 -0.0685595 -0.00571644 -0.017139 -0.00571987 -0.022852 -0.00571644 -0.0171424 -0.00571644 -0.011426 -0.00571987 -0.011426 -0.00571644 -0.011426 -0.00571987 -0.00571301 -0.00571644 -0.00571301 -0.00571987 -0.011426 -0.00571644 0 -0.0171527 0.00571301 -0.0114363 0.00571301 -0.0114363 0.00571301 -0.0171562 0.00571301 -0.0114329 0.00571301 -0.0343089 0.00571301 -0.0343089 0 -0.142949 -0.00571301 -0.00571644 -0.00571301 -0.00571987 -0.00571301 -0.00571644 -0.00571301 -0.00571987 -0.00571301 -0.00571644 -0.00571301 -0.00571987 -0.00571644 -0.00571644 -0.011426 -0.00571644 -0.011426 -0.00571987 -0.011426 -0.00571644 -0.017139 0c-0.12699,0 -0.213169,0.130414 -0.284247,0.201547 -0.0284449,0.0284724 -0.236868,0.227299 -0.258516,0.227299l-0.0342815 0c-0.0923894,0 -0.196184,-0.0257205 -0.28551,-0.0287469 -0.0487784,-0.00165385 -0.101959,-0.00748009 -0.148699,-0.0112785 -0.0560355,-0.00455668 -0.0951721,0.00277244 -0.11998,-0.0343089 0,-0.0255215 0.00146171,-0.0725363 -0.0171424,-0.0800507z"/>
    <path id="_113209888" class="fil8" d="M3.3937 3.14488c0,0.06297 -0.0127676,0.136364 -0.0242245,0.193041 -0.00929178,0.0459751 -0.038622,0.134494 -0.038622,0.178627l0.0799855 0.00571987 0.319945 0 0.0742725 0 0.0399945 0 0 0.0114329 0.00571301 0 -0.131406 -0.394537 -0.325658 0.00571644z"/>
    <polygon id="_114012280" class="fil8" points="1.90253,3.65378 1.89682,3.6595 1.8911,3.67665 1.8911,3.73955 1.90824,3.73955 1.91396,3.73955 2.15391,3.73955 2.16534,3.73383 2.17106,3.72812 2.17677,3.7224 2.17677,3.69952 2.16534,3.69381 2.15963,3.68809 2.15391,3.68237 2.1482,3.68237 2.11392,3.68237 2.08535,3.67665 2.07393,3.67093 2.05679,3.66522 2.03965,3.6595 2.02822,3.65378 2.02251,3.65378 2.01679,3.6595 1.97845,3.60455 1.91396,3.60232 1.91396,3.65378 "/>
    <path id="_113209960" class="fil8" d="M1.57687 3.6595l-0.00571301 0.00571987 -0.00571301 0.0171527 0 0.0228726 0.00571301 0.0228726 0.00571301 0.0114363 0.00571301 0.00571644 0.00571301 0 0.022852 0 0.194252 0 0.022852 -0.00571644 0.00571301 -0.00571987 0.00571644 -0.00571644 0.00571301 -0.00571987 0 -0.0228726 -0.0114294 -0.00571644 -0.00571301 -0.00571644 -0.011426 0 -0.011426 0 -0.034278 -0.00571987 -0.0228555 -0.00571644 -0.011426 -0.00571987 -0.017139 -0.00571644 -0.017139 -0.00571987 -0.0171424 -0.00571644 -0.00571301 -0.00571987 -0.00571301 -0.0114363 -0.00571301 -0.0171527 -0.00571301 -0.00571644 -0.0743308 -0.0032734 5.8331e-005 0.0318624c0,0.0163327 -0.00179797,0.010455 -0.011426,0.0171527z"/>
   </g>
   <path id="_113197960" class="fil11 str0" d="M1.87742 1.28218l1.38956 0c0.049921,0 0.090763,0.0420258 0.090763,0.0933948l0 0.504982c0,0.0513656 -0.0408386,0.0933879 -0.0907561,0.0933879l-1.38955 0c-0.0499176,0 -0.0907561,-0.0420223 -0.0907561,-0.0933879l0 -0.505006c0,-0.0513553 0.0408317,-0.0933707 0.090739,-0.0933707z"/>
   <rect id="_113201824" class="fil12 str1" x="1.88539" y="1.38757" width="1.30034" height="0.0131554"/>
   <rect id="_113212336" class="fil12 str1" x="1.88959" y="1.69441" width="0.871609" height="0.0131554"/>
   <rect id="_113211784" class="fil12 str1" x="1.88539" y="1.52153" width="0.514332" height="0.0131554"/>
   <rect id="_113211592" class="fil12 str1" x="2.5766" y="1.52153" width="0.297917" height="0.0131554"/>
   <polygon id="_113211544" class="fil13 str2" points="1.67738,1.17961 1.67738,1.32118 1.71547,1.34703 1.74742,1.36058 1.77568,1.35688 1.77814,1.28179 1.77937,1.219 1.79903,1.21285 1.8359,1.20546 1.85802,1.18823 1.87768,1.16115 1.88874,1.13652 1.88874,1.0602 1.88137,1.0048 1.85679,0.903859 1.82853,0.959256 1.80149,0.996187 1.78183,1.02204 1.76094,1.04543 1.7425,1.05404 1.72776,1.03927 1.71178,1.0405 1.70687,1.0639 1.71055,1.08236 1.72161,1.10206 1.73759,1.11683 1.72776,1.13899 1.7081,1.15499 1.69089,1.17099 "/>
   <polygon id="_113212528" class="fil13 str2" points="1.45123,1.611 1.44386,1.658 1.43098,1.71791 1.4181,1.79257 1.40982,1.84695 1.40522,1.87737 1.40522,1.89949 1.40522,1.92161 1.41074,1.95664 1.44386,1.96678 1.49447,1.97692 1.57912,1.98245 1.70517,1.98521 1.78337,1.99258 1.8441,1.99811 1.91495,1.99351 1.97199,1.97784 1.94623,1.97507 1.90666,1.97692 1.86986,1.97138 1.83398,1.95387 1.81558,1.92807 1.76773,1.94926 1.71069,1.93544 1.57084,1.91147 1.52207,1.89304 1.51747,1.87368 1.53495,1.78981 1.56715,1.67367 1.52759,1.66169 1.49723,1.64879 1.47423,1.63035 "/>
   <polygon id="_113215696" class="fil13 str2" points="1.57704,3.60232 1.66584,3.61048 1.66828,3.65949 1.58634,3.65441 "/>
   <polygon id="_113184448" class="fil13 str2" points="1.91396,3.60232 1.90253,3.63949 2.02822,3.65378 1.98823,3.5966 "/>
   <polygon id="_113201848" class="fil14 str3" points="1.58394,3.64099 1.57687,3.75099 1.87648,3.78833 1.6645,3.6557 "/>
   <polygon id="_113212672" class="fil14 str3" points="1.89461,3.65158 1.89461,3.73735 2.19117,3.77397 1.99174,3.60017 2.00887,3.65158 "/>
   <polygon id="_113212840" class="fil14 str3" points="3.2129,3.51647 3.19945,3.62519 3.06233,3.69952 3.09089,3.72526 3.21659,3.72526 3.31371,3.69954 3.32514,3.51084 "/>
   <polygon id="_113210512" class="fil14 str3" points="3.84505,3.5337 3.88123,3.67283 3.80506,3.72807 3.79934,3.73955 3.81648,3.74527 3.88504,3.73955 3.9993,3.68237 3.99931,3.65378 3.95932,3.48226 "/>
  </g>
 </g>
</svg>
