<?xml version="1.0" encoding="UTF-8"?>
<!DOCTYPE svg PUBLIC "-//W3C//DTD SVG 1.1//EN" "http://www.w3.org/Graphics/SVG/1.1/DTD/svg11.dtd">
<!-- Creator: CorelDRAW -->
<svg xmlns="http://www.w3.org/2000/svg" xml:space="preserve" width="8.20269in" height="8.20269in" style="shape-rendering:geometricPrecision; text-rendering:geometricPrecision; image-rendering:optimizeQuality; fill-rule:evenodd; clip-rule:evenodd"
viewBox="0 0 8.6212 8.6212"
 xmlns:xlink="http://www.w3.org/1999/xlink">
 <defs>
  <style type="text/css">
   <![CDATA[
    .fil3 {fill:#285680}
    .fil4 {fill:#2C3E50}
    .fil10 {fill:#31353D}
    .fil0 {fill:#45B19D}
    .fil9 {fill:#556080}
    .fil8 {fill:#94A4A5}
    .fil5 {fill:#BCC2C6}
    .fil6 {fill:#C03A2B}
    .fil1 {fill:#F0C51E}
    .fil2 {fill:#FC5365}
    .fil7 {fill:#FEFEFD}
   ]]>
  </style>
 </defs>
 <g id="Layer_x0020_1">
  <metadata id="CorelCorpID_0Corel-Layer"/>
  <g id="_116906456">
   <path id="_116906000" class="fil0" d="M1.63331 0.5725l0 0.0505152c0,0.0407457 0.0771176,0.117872 0.117867,0.117872 0.0848265,0 0.18522,-0.0514462 0.18522,-0.117872 0,-0.0711011 -0.0524062,-0.168383 -0.117867,-0.168383l-0.0673522 0c-0.0469028,0 -0.117867,0.0709687 -0.117867,0.117867z"/>
   <path id="_116988912" class="fil1" d="M0.454633 0.555663l0 0.0505152c0,0.0814458 0.0532586,0.134709 0.134709,0.134709l0.033674 0c0.0468987,0 0.117872,-0.0709728 0.117872,-0.117872l0 -0.033674c0,-0.0814499 -0.0532627,-0.134709 -0.134709,-0.134709l-0.0505152 0c-0.0405429,0 -0.10103,0.0604875 -0.10103,0.10103z"/>
   <path id="_116903960" class="fil2" d="M1.04397 0.589341l0 0.033674c0,0.0468987 0.0709646,0.117872 0.117867,0.117872l0.0505152 0c0.0551206,0 0.117872,-0.0632516 0.117872,-0.134709l0 -0.0505152c0,-0.0405429 -0.0604875,-0.10103 -0.10103,-0.10103l-0.0505152 0c-0.0814541,0 -0.134709,0.0532586 -0.134709,0.134709z"/>
   <path id="_117218216" class="fil3" d="M1.04397 0.589341c0,-0.0814499 0.0532545,-0.134709 0.134709,-0.134709l0.0505152 0c0.0405429,0 0.10103,0.0604875 0.10103,0.10103l0 0.0505152c0,0.071457 -0.0627509,0.134709 -0.117872,0.134709l-0.0505152 0c-0.0469028,0 -0.117867,-0.0709728 -0.117867,-0.117872l0 -0.033674zm-0.589341 -0.0336782c0,-0.0405429 0.0604875,-0.10103 0.10103,-0.10103l0.0505152 0c0.0814458,0 0.134709,0.0532586 0.134709,0.134709l0 0.033674c0,0.0468987 -0.0709728,0.117872 -0.117872,0.117872l-0.033674 0c-0.0814499,0 -0.134709,-0.0532627 -0.134709,-0.134709l0 -0.0505152zm1.17868 0.016837c0,-0.0468987 0.0709646,-0.117867 0.117867,-0.117867l0.0673522 0c0.0654612,0 0.117867,0.0972815 0.117867,0.168383 0,0.0664253 -0.100393,0.117872 -0.18522,0.117872 -0.0407498,0 -0.117867,-0.0771259 -0.117867,-0.117872l0 -0.0505152zm-1.2292 -0.555663l-0.0505152 0.0168412 -0.0336782 0.016837 -0.0336699 0.016837 -0.0336782 0.0168412 -0.016837 0.016837 -0.0168412 0.016837 -0.016837 0.0168412 -0.0336782 0.016837 -0.016837 0.016837 -0.016837 0.0336782 -0.0168412 0.016837 -0.016837 0.0168412 -0.016837 0.016837 -0.0168412 0.0336782 -0.016837 0.0336699 -0.016837 0.0336782 -0.0168412 0.0505152 -0.016837 0.0505152 0 0.589341c0.965395,0 1.93079,0 2.89619,0 0.482696,0 0.965395,0 1.44809,0 0.241346,0 0.482696,0 0.724045,0 0.239976,0 0.567514,-0.0721935 0.572504,0.151546l1.19551 0 0.10103 -0.151546 1.68383 0 0 -0.589341 -0.016837 -0.0505152 -0.0168412 -0.0505152 -0.016837 -0.0336782 -0.016837 -0.0336699 -0.0168412 -0.0336782 -0.016837 -0.016837 -0.016837 -0.0168412 -0.0168412 -0.016837 -0.016837 -0.0336782 -0.016837 -0.016837 -0.0336782 -0.016837 -0.016837 -0.0168412 -0.0168412 -0.016837 -0.016837 -0.016837 -0.0336782 -0.0168412 -0.0336699 -0.016837 -0.0336782 -0.016837 -0.0505152 -0.0168412 -0.0505152 -0.016837 -7.71193 0 -0.0505152 0.016837z"/>
   <path id="_116931656" class="fil4" d="M0 1.33023c0.95978,0 1.91956,0 2.87934,0 0.482696,0 0.965391,0 1.44809,0 0.24135,0 0.482696,0 0.72405,0 0.230095,0 0.572545,0.0670626 0.589341,-0.134709 -0.00499028,-0.223739 -0.332528,-0.151546 -0.572504,-0.151546 -0.24135,0 -0.4827,0 -0.724045,0 -0.482696,0 -0.965395,0 -1.44809,0 -0.965395,0 -1.93079,0 -2.89619,0l0 0.286254z"/>
   <polygon id="_116904008" class="fil4" points="6.83634,1.19552 6.93737,1.33023 8.6212,1.33023 8.6212,1.04397 6.93737,1.04397 "/>
   <path id="_117217736" class="fil2" d="M2.08795 2.05427l0 0.0673522c0,0.15642 0.321923,0.117354 0.488724,0.117462 0.186738,0.000111723 0.405454,0.10144 0.50473,0.10144l0.0505152 0c0.0814541,0 0.134709,-0.0532627 0.134709,-0.134709l0 -0.016837c0,-0.189837 -0.58637,-0.252576 -0.808239,-0.252576l-0.18522 0c-0.0854968,0 -0.18522,0.0404105 -0.18522,0.117867z"/>
   <path id="_116900000" class="fil2" d="M0.589341 2.7278c0,0.0832292 0.0683163,0.151546 0.151546,0.151546l0.033674 0c0.0298672,0 0.298858,-0.227447 0.356863,-0.266156 0.103244,-0.0689039 0.350346,-0.163876 0.350346,-0.289506l0 -0.033674c0,-0.0612695 -0.0821037,-0.117872 -0.151541,-0.117872 -0.127111,0 -0.740887,0.427372 -0.740887,0.555663z"/>
   <path id="_116905712" class="fil1" d="M2.23949 3.23295l0 0.0505152c0,0.0714528 0.0627426,0.134704 0.117867,0.134704l0.016837 0c0.0931146,0 0.151541,-0.0758969 0.151541,-0.168383 0,-0.0659619 -0.0626474,-0.117872 -0.1347,-0.117872l-0.0505152 0c-0.040547,0 -0.10103,0.0604875 -0.10103,0.101035z"/>
   <path id="_117213224" class="fil5" d="M6.09546 3.26663l0 0.0336782c0,0.0407415 0.0771176,0.117867 0.117863,0.117867l0.0505152 0c0.0551248,0 0.117867,-0.0632516 0.117867,-0.134704l0 -0.0505152c0,-0.040547 -0.0604833,-0.101035 -0.10103,-0.101035l-0.0505152 0c-0.0814458,0 -0.1347,0.0532586 -0.1347,0.134709z"/>
   <path id="_116900864" class="fil1" d="M1.76802 3.70442l0.0336782 0c0.0786031,0 0.117863,-0.0392643 0.117863,-0.117867l0 -0.0336782c0,-0.0814458 -0.0532545,-0.134704 -0.1347,-0.134704 -0.18954,0 -0.193955,0.28625 -0.0168412,0.28625z"/>
   <path id="_116904728" class="fil1" d="M2.82883 3.53604l0 0.0336699c0,0.0615385 0.0464683,0.134709 0.10103,0.134709l0.0841892 0c0.0405429,0 0.10103,-0.0604875 0.10103,-0.10103l0 -0.0673481c0,-0.0699549 -0.0935408,-0.117872 -0.168378,-0.117872 -0.0407498,0 -0.117872,0.0771217 -0.117872,0.117872z"/>
   <path id="_117214256" class="fil4" d="M6.09546 3.26663c0,-0.0814499 0.0532545,-0.134709 0.1347,-0.134709l0.0505152 0c0.040547,0 0.10103,0.0604875 0.10103,0.101035l0 0.0505152c0,0.0714528 -0.0627426,0.134704 -0.117867,0.134704l-0.0505152 0c-0.0407457,0 -0.117863,-0.0771259 -0.117863,-0.117867l0 -0.0336782zm-0.589341 -0.0841934l0 0.168387c0,0.299454 0.357235,0.656693 0.656693,0.656693l0.168378 0c0.247308,0 0.531105,-0.260674 0.599206,-0.461609 0.114185,-0.33691 0.0327058,-0.598784 -0.16559,-0.797079 -0.162176,-0.162172 -0.488158,-0.303244 -0.787628,-0.17298 -0.202752,0.0881947 -0.47106,0.330823 -0.47106,0.606588z"/>
   <path id="_116900912" class="fil1" d="M1.19552 4.00751l0 0.0168329c0,0.071457 0.0627426,0.134709 0.117867,0.134709l0.050511 0c0.0469028,0 0.117872,-0.0709687 0.117872,-0.117863l0 -0.0336782c0,-0.0814499 -0.0532586,-0.134709 -0.134704,-0.134709l-0.016837 0c-0.0814541,0 -0.134709,0.0532586 -0.134709,0.134709z"/>
   <path id="_116918576" class="fil1" d="M3.28347 3.97383l0 0.0841892c0,0.0405429 0.0604833,0.10103 0.10103,0.10103l0.0673522 0c0.139289,0 0.150821,-0.28625 0,-0.28625l-0.0673522 0c-0.040547,0 -0.10103,0.0604875 -0.10103,0.10103z"/>
   <path id="_117217928" class="fil5" d="M5.50612 3.18243c0,-0.275765 0.268308,-0.518393 0.47106,-0.606588 0.29947,-0.130264 0.625452,0.0108081 0.787628,0.17298 0.198295,0.198295 0.279774,0.460169 0.16559,0.797079 -0.0681012,0.200935 -0.351897,0.461609 -0.599206,0.461609l-0.168378 0c-0.299458,0 -0.656693,-0.357239 -0.656693,-0.656693l0 -0.168387zm0.117867 -0.791394l-0.117867 0c-0.09988,0 -0.158704,-0.0438863 -0.218902,-0.0841934 0.0253569,0.0949518 0.0841934,0.128754 0.0841934,0.28625l0 0.016837c0,0.0759052 -0.111636,0.340415 -0.145488,0.410175 -0.0990773,0.204192 -0.256254,0.191166 -0.309145,0.263359 0.230591,0.0191873 0.454633,0.437535 0.454633,0.656693 0,0.143539 -0.0451608,0.174147 -0.0673522,0.269409 0.0717135,-0.0167087 0.121587,-0.0673522 0.202061,-0.0673522 0.274457,0 0.718041,0.202032 0.724041,0.47147 0.0615012,-0.0707494 0.0467456,-0.139504 0.147259,-0.240022 0.0843506,-0.0843506 0.127533,-0.0926801 0.246982,-0.140303 0.123437,-0.0492118 0.156962,-0.0660819 0.300108,-0.0880043 0.148364,-0.0227211 0.222229,0.0773576 0.299115,0.0978897 -0.0576696,-0.0861175 -0.10103,-0.118525 -0.10103,-0.269413l0 -0.033674c0,-0.232569 0.215741,-0.651376 0.454633,-0.656693l0 -0.0336782c-0.138851,-0.00309513 -0.255986,-0.115823 -0.309377,-0.212608 -0.0229197,-0.0415525 -0.145256,-0.341002 -0.145256,-0.376733l0 -0.151546c0,-0.075479 0.0505193,-0.122179 0.0673522,-0.18522 -0.084694,0.0197335 -0.11063,0.0673563 -0.218898,0.0673563l-0.0841934 0c-0.0719577,0 -0.37058,-0.120532 -0.421091,-0.151409 -0.215219,-0.131535 -0.138586,-0.214131 -0.235602,-0.353739 0,0.165759 -0.0986139,0.287504 -0.204932,0.350722 -0.0415112,0.0246824 -0.35575,0.154426 -0.401242,0.154426z"/>
   <path id="_116931944" class="fil6" d="M2.32368 4.3106l0.420959 0c0.0539413,-0.0805562 0.218894,-0.175831 0.218894,-0.286254l0 -0.0168329c0,-0.0814499 -0.0532545,-0.134709 -0.134704,-0.134709l-0.016837 0c-0.103637,0 -0.433397,0.355787 -0.488311,0.437796z"/>
   <path id="_116903648" class="fil7" d="M1.19552 4.00751c0,-0.0814499 0.0532545,-0.134709 0.134709,-0.134709l0.016837 0c0.0814458,0 0.134704,0.0532586 0.134704,0.134709l0 0.0336782c0,0.0468945 -0.0709687,0.117863 -0.117872,0.117863l-0.050511 0c-0.0551248,0 -0.117867,-0.0632516 -0.117867,-0.134709l0 -0.0168329zm2.08795 -0.0336782c0,-0.0405429 0.0604833,-0.10103 0.10103,-0.10103l0.0673522 0c0.150821,0 0.139289,0.28625 0,0.28625l-0.0673522 0c-0.040547,0 -0.10103,-0.0604875 -0.10103,-0.10103l0 -0.0841892zm-0.454637 -0.437791c0,-0.0407498 0.0771217,-0.117872 0.117872,-0.117872 0.0748376,0 0.168378,0.0479166 0.168378,0.117872l0 0.0673481c0,0.0405429 -0.0604875,0.10103 -0.10103,0.10103l-0.0841892 0c-0.054562,0 -0.10103,-0.0731701 -0.10103,-0.134709l0 -0.0336699zm-1.06081 0.168378c-0.177113,0 -0.172698,-0.28625 0.0168412,-0.28625 0.0814458,0 0.1347,0.0532586 0.1347,0.134704l0 0.0336782c0,0.0786031 -0.0392602,0.117867 -0.117863,0.117867l-0.0336782 0zm0.471474 -0.47147c0,-0.040547 0.0604833,-0.101035 0.10103,-0.101035l0.0505152 0c0.0720528,0 0.1347,0.0519096 0.1347,0.117872 0,0.0924857 -0.0584268,0.168383 -0.151541,0.168383l-0.016837 0c-0.0551248,0 -0.117867,-0.0632516 -0.117867,-0.134704l0 -0.0505152zm-1.63331 1.07765l1.7175 0c0.0549137,-0.0820086 0.384673,-0.437796 0.488311,-0.437796l0.016837 0c0.0814499,0 0.134704,0.0532586 0.134704,0.134709l0 0.0168329c0,0.110423 -0.164952,0.205698 -0.218894,0.286254l1.41441 0c0,-0.37329 -0.325456,-0.965826 -0.535396,-1.13159 -0.292171,-0.230695 -0.648012,-0.501726 -1.16527,-0.501726l-0.134704 0c-0.862602,0 -1.7175,0.797443 -1.7175,1.63331z"/>
   <path id="_117217784" class="fil3" d="M0 4.61369l2.49206 0 1.65015 0c0.0758514,0 0.168383,-0.0694211 0.168383,-0.134704l0 -0.016837c0,-0.0908967 -0.0657219,-0.144404 -0.151546,-0.151546l-1.41441 0 -0.420959 0 -1.7175 0 -0.606178 0 0 0.303087z"/>
   <path id="_116912720" class="fil3" d="M8.6212 4.61369l0 -0.303087c-0.179844,0 -0.589341,-0.0471676 -0.589341,0.117867l0 0.0336782c0,0.217789 0.375632,0.151541 0.589341,0.151541z"/>
   <path id="_116905184" class="fil8" d="M5.62399 2.39104c0.0454918,0 0.35973,-0.129743 0.401242,-0.154426 0.106319,-0.0632185 0.204932,-0.184963 0.204932,-0.350722 0.0970166,0.139608 0.0203832,0.222204 0.235602,0.353739 0.050511,0.0308768 0.349133,0.151409 0.421091,0.151409l0.0841934 0c0.108268,0 0.134204,-0.0476228 0.218898,-0.0673563 -0.0168329,0.0630405 -0.0673522,0.109741 -0.0673522,0.18522l0 0.151546c0,0.0357306 0.122336,0.33518 0.145256,0.376733 0.053391,0.0967849 0.170526,0.209513 0.309377,0.212608l0 0.0336782c-0.238892,0.00531717 -0.454633,0.424124 -0.454633,0.656693l0 0.033674c0,0.150888 0.0433608,0.183295 0.10103,0.269413 -0.0768859,-0.0205321 -0.150751,-0.120611 -0.299115,-0.0978897 -0.143146,0.0219225 -0.176671,0.0387926 -0.300108,0.0880043 -0.119448,0.0476228 -0.162631,0.0559524 -0.246982,0.140303 -0.100513,0.100517 -0.0857575,0.169272 -0.147259,0.240022 -0.00599992,-0.269438 -0.449584,-0.47147 -0.724041,-0.47147 -0.0804734,0 -0.130347,0.0506435 -0.202061,0.0673522 0.0221914,-0.0952622 0.0673522,-0.12587 0.0673522,-0.269409 0,-0.219158 -0.224041,-0.637506 -0.454633,-0.656693 0.0528903,-0.0721935 0.210068,-0.0591675 0.309145,-0.263359 0.033852,-0.0697604 0.145488,-0.33427 0.145488,-0.410175l0 -0.016837c0,-0.157496 -0.0588365,-0.191298 -0.0841934,-0.28625 0.0601978,0.040307 0.119022,0.0841934 0.218902,0.0841934l0.117867 0zm-0.0673522 -0.286254c-0.132263,0 -0.218182,-0.235735 -0.353606,-0.235735l-0.0505152 0c-0.0431415,0 -0.319928,0.268378 -0.319928,0.353602l0 0.0168412c0,0.101337 0.235739,0.20744 0.235739,0.336761l0 0.0168412c0,0.0726114 -0.124819,0.341098 -0.186585,0.369082 -0.140688,0.0637233 -0.419593,-0.0680143 -0.419593,0.152903l0 0.336769c0,0.165705 0.300679,0.0903215 0.415261,0.123561 0.0704804,0.0204452 0.190917,0.302909 0.190917,0.36475l0 0.0505152c0,0.0601357 -0.235739,0.224563 -0.235739,0.303087l0 0.0505152c0,0.0612033 0.283573,0.336761 0.319928,0.336761 0.191141,0 0.256921,-0.235731 0.370443,-0.235731l0.0505152 0c0.0568089,0 0.337382,0.12112 0.360388,0.178433 0.0424918,0.105843 -0.0502131,0.427745 0.127922,0.427745l0.336765 0c0.215401,0 0.0959697,-0.26739 0.148033,-0.407635 0.0294658,-0.079381 0.274569,-0.198544 0.373952,-0.198544l0.016837 0c0.129329,0 0.235433,0.235731 0.336765,0.235731l0.016837 0c0.085232,0 0.35361,-0.276778 0.35361,-0.319924l0 -0.0505152c0,-0.127107 -0.235739,-0.238292 -0.235739,-0.336765 0,-0.0920139 0.131675,-0.376025 0.207804,-0.398378 0.178409,-0.0523772 0.415211,0.0883312 0.415211,-0.2078l0 -0.202061c0,-0.10492 -0.0384202,-0.143295 -0.10103,-0.185224 -0.153048,0 -0.325916,0.0261721 -0.387847,-0.0667812 -0.00943849,-0.0141681 -0.134138,-0.312786 -0.134138,-0.320495 0,-0.142091 0.235739,-0.26345 0.235739,-0.336765l0 -0.0505152c0,-0.0934084 -0.243365,-0.336765 -0.336769,-0.336765l-0.050511 0c-0.0928705,0 -0.224608,0.235735 -0.319932,0.235735 -0.0288451,0 -0.290454,-0.107552 -0.326677,-0.127956 -0.107014,-0.0603013 -0.0774403,-0.234713 -0.0774403,-0.394029 -0.041925,-0.0626102 -0.0803038,-0.10103 -0.18522,-0.10103l-0.202057 0c-0.293305,0 -0.165118,0.203592 -0.204519,0.401659 -0.0177101,0.0890429 -0.313456,0.221356 -0.384822,0.221356z"/>
   <path id="_117213032" class="fil9" d="M0.589341 2.7278c0,-0.128291 0.613775,-0.555663 0.740887,-0.555663 0.0694377,0 0.151541,0.056602 0.151541,0.117872l0 0.033674c0,0.12563 -0.247102,0.220603 -0.350346,0.289506 -0.0580047,0.0387098 -0.326996,0.266156 -0.356863,0.266156l-0.033674 0c-0.0832292,0 -0.151546,-0.0683163 -0.151546,-0.151546zm4.96729 -0.623015c0.0713659,0 0.367112,-0.132313 0.384822,-0.221356 0.0394009,-0.198068 -0.0887864,-0.401659 0.204519,-0.401659l0.202057 0c0.104916,0 0.143295,0.0384202 0.18522,0.10103 0,0.159316 -0.0295734,0.333728 0.0774403,0.394029 0.036223,0.0204039 0.297832,0.127956 0.326677,0.127956 0.0953242,0 0.227062,-0.235735 0.319932,-0.235735l0.050511 0c0.0934043,0 0.336769,0.243357 0.336769,0.336765l0 0.0505152c0,0.0733149 -0.235739,0.194675 -0.235739,0.336765 0,0.00770886 0.124699,0.306327 0.134138,0.320495 0.0619316,0.0929532 0.2348,0.0667812 0.387847,0.0667812 0.0626102,0.0419291 0.10103,0.0803038 0.10103,0.185224l0 0.202061c0,0.296131 -0.236802,0.155423 -0.415211,0.2078 -0.0761286,0.0223528 -0.207804,0.306364 -0.207804,0.398378 0,0.0984732 0.235739,0.209658 0.235739,0.336765l0 0.0505152c0,0.0431456 -0.268378,0.319924 -0.35361,0.319924l-0.016837 0c-0.101332,0 -0.207436,-0.235731 -0.336765,-0.235731l-0.016837 0c-0.0993835,0 -0.344486,0.119163 -0.373952,0.198544 -0.0520628,0.140245 0.0673688,0.407635 -0.148033,0.407635l-0.336765 0c-0.178136,0 -0.0854306,-0.321902 -0.127922,-0.427745 -0.0230066,-0.0573137 -0.303579,-0.178433 -0.360388,-0.178433l-0.0505152 0c-0.113523,0 -0.179302,0.235731 -0.370443,0.235731 -0.0363554,0 -0.319928,-0.275558 -0.319928,-0.336761l0 -0.0505152c0,-0.0785245 0.235739,-0.242951 0.235739,-0.303087l0 -0.0505152c0,-0.0618406 -0.120437,-0.344304 -0.190917,-0.36475 -0.114582,-0.0332396 -0.415261,0.0421443 -0.415261,-0.123561l0 -0.336769c0,-0.220917 0.278905,-0.0891795 0.419593,-0.152903 0.0617661,-0.0279845 0.186585,-0.296471 0.186585,-0.369082l0 -0.0168412c0,-0.129321 -0.235739,-0.235424 -0.235739,-0.336761l0 -0.0168412c0,-0.0852237 0.276787,-0.353602 0.319928,-0.353602l0.0505152 0c0.135424,0 0.221343,0.235735 0.353606,0.235735zm-3.46869 -0.0505152c0,-0.0774569 0.0997228,-0.117867 0.18522,-0.117867l0.18522 0c0.221869,0 0.808239,0.0627385 0.808239,0.252576l0 0.016837c0,0.0814458 -0.0532545,0.134709 -0.134709,0.134709l-0.0505152 0c-0.0992759,0 -0.317992,-0.101328 -0.50473,-0.10144 -0.166802,-0.000107585 -0.488724,0.0389581 -0.488724,-0.117462l0 -0.0673522zm-2.08795 -0.724041l0 2.98037 0.606178 0c0,-0.835872 0.854902,-1.63331 1.7175,-1.63331l0.134704 0c0.517259,0 0.8731,0.271031 1.16527,0.501726 0.209939,0.165763 0.535396,0.758299 0.535396,1.13159 0.0858237,0.00714197 0.151546,0.0606488 0.151546,0.151546l0 0.016837c0,0.0652833 -0.0925312,0.134704 -0.168383,0.134704l-1.65015 0 -2.49206 0 0 1.02714 8.6212 0 0 -1.02714c-0.213709,0 -0.589341,0.0662474 -0.589341,-0.151541l0 -0.0336782c0,-0.165035 0.409497,-0.117867 0.589341,-0.117867l0 -2.98037 -1.68383 0 -0.10103 -0.134709 -1.19551 0c-0.0167956,0.201771 -0.359246,0.134709 -0.589341,0.134709 -0.241354,0 -0.4827,0 -0.72405,0 -0.4827,0 -0.965395,0 -1.44809,0 -0.959784,0 -1.91956,0 -2.87934,0z"/>
   <path id="_116905832" class="fil10" d="M4.15905 6.247l0 0.016837c0,0.0551248 0.0632516,0.117867 0.134709,0.117867l0.033674 0c0.071457,0 0.134709,-0.0627426 0.134709,-0.117867l0 -0.016837c0,-0.0832251 -0.0683205,-0.151541 -0.151546,-0.151541 -0.0832251,0 -0.151546,0.0683163 -0.151546,0.151541z"/>
   <path id="_116905544" class="fil8" d="M4.15905 6.247c0,-0.0832251 0.0683205,-0.151541 0.151546,-0.151541 0.0832251,0 0.151546,0.0683163 0.151546,0.151541l0 0.016837c0,0.0551248 -0.0632516,0.117867 -0.134709,0.117867l-0.033674 0c-0.071457,0 -0.134709,-0.0627426 -0.134709,-0.117867l0 -0.016837zm-4.15905 0.134704l0.016837 0.0505152 0.0168412 0.0505152 0.016837 0.0336782 0.016837 0.0336782 0.0168412 0.033674 0.016837 0.0168412 0.016837 0.016837 0.0168412 0.016837 0.016837 0.0336782 0.016837 0.016837 0.0168412 0.0168412 0.033674 0.016837 0.0168412 0.0168329 0.016837 0.0168412 0.0336782 0.016837 0.0336699 0.016837 0.0336782 0.0168412 0.0505152 0.016837 0.0505152 0.016837 0.117867 0.0168412 2.98038 0 1.51545 0 2.98038 0 0.117867 -0.0168412 0.0505152 -0.016837 0.0505152 -0.016837 0.0336782 -0.0168412 0.0336699 -0.016837 0.0336782 -0.016837 0.016837 -0.0168412 0.0168412 -0.0168329 0.033674 -0.016837 0.0168412 -0.0168412 0.016837 -0.016837 0.016837 -0.0336782 0.0168412 -0.016837 0.016837 -0.016837 0.016837 -0.0168412 0.0168412 -0.033674 0.016837 -0.0336782 0.016837 -0.0336782 0.0168412 -0.0505152 0.016837 -0.0505152 0 -0.740878 -8.6212 0 0 0.740878z"/>
   <polygon id="_117218024" class="fil9" points="3.53604,7.02156 3.5192,7.10575 3.50236,7.17311 3.48553,7.22362 3.46869,7.27413 3.45185,7.32465 3.43501,7.35833 3.41817,7.392 3.40133,7.42568 3.3845,7.47619 3.36766,7.49303 3.35082,7.52671 3.33398,7.54355 3.31714,7.57722 3.3003,7.6109 3.28347,7.62774 3.26663,7.66142 3.24979,7.67825 3.23295,7.6951 3.21611,7.71193 3.19927,7.72877 3.18243,7.74561 3.16559,7.76245 3.16559,7.79613 3.13192,7.79613 3.11508,7.81296 3.09824,7.8298 3.0814,7.84664 3.06456,7.86347 3.03089,7.88031 3.01405,7.89715 2.98037,7.91399 2.9467,7.93083 2.92986,7.94767 2.87934,7.9645 2.84567,7.98134 2.77831,7.99818 2.62677,8.01502 2.62677,8.03186 5.99443,8.03186 5.99443,8.01502 5.84288,7.99818 5.77553,7.98134 5.74185,7.9645 5.69134,7.94767 5.6745,7.93083 5.64083,7.91399 5.60715,7.89715 5.59031,7.88031 5.55663,7.86347 5.5398,7.84664 5.52296,7.8298 5.50612,7.81296 5.48928,7.79613 5.4556,7.79613 5.4556,7.76245 5.43877,7.74561 5.42192,7.72877 5.40509,7.71193 5.38825,7.6951 5.37141,7.67825 5.35457,7.66142 5.33773,7.62774 5.32089,7.6109 5.30406,7.57722 5.28722,7.54355 5.27038,7.52671 5.25354,7.49303 5.2367,7.47619 5.21986,7.42568 5.20303,7.392 5.18619,7.35833 5.16935,7.32465 5.15251,7.27413 5.13567,7.22362 5.11883,7.17311 5.102,7.10575 5.08516,7.02156 5.06832,6.85318 3.55288,6.85318 "/>
   <polygon id="_116900720" class="fil8" points="2.52574,8.0487 2.49206,8.06553 2.47522,8.08237 2.45839,8.09921 2.44155,8.11605 2.42471,8.13289 2.40788,8.16657 2.39104,8.1834 2.3742,8.23392 2.3742,8.41914 2.39104,8.45282 2.40788,8.48649 2.42471,8.52017 2.44155,8.537 2.45839,8.55385 2.47522,8.57068 2.5089,8.58752 2.54258,8.60436 2.57625,8.6212 6.04494,8.6212 6.07862,8.60436 6.1123,8.58752 6.14597,8.57068 6.16281,8.55385 6.17964,8.537 6.19649,8.52017 6.21332,8.48649 6.23016,8.45282 6.247,8.41914 6.247,8.23392 6.23016,8.1834 6.21332,8.16657 6.19649,8.13289 6.17964,8.11605 6.16281,8.09921 6.14597,8.08237 6.12913,8.06553 6.09546,8.0487 6.06178,8.03186 5.99443,8.03186 2.62677,8.03186 2.55942,8.03186 "/>
  </g>
 </g>
</svg>
