<?xml version="1.0" encoding="UTF-8"?>
<!DOCTYPE svg PUBLIC "-//W3C//DTD SVG 1.1//EN" "http://www.w3.org/Graphics/SVG/1.1/DTD/svg11.dtd">
<!-- Creator: CorelDRAW -->
<svg xmlns="http://www.w3.org/2000/svg" xml:space="preserve" width="8.25772in" height="7.26936in" style="shape-rendering:geometricPrecision; text-rendering:geometricPrecision; image-rendering:optimizeQuality; fill-rule:evenodd; clip-rule:evenodd"
viewBox="0 0 8.37102 7.36911"
 xmlns:xlink="http://www.w3.org/1999/xlink">
 <defs>
  <style type="text/css">
   <![CDATA[
    .fil17 {fill:#272829}
    .fil13 {fill:#282C47}
    .fil15 {fill:#363849}
    .fil1 {fill:#434343}
    .fil14 {fill:#4D8C64}
    .fil16 {fill:#525253}
    .fil11 {fill:#559155}
    .fil9 {fill:#5E9843}
    .fil0 {fill:#6F675F}
    .fil7 {fill:#74B6F0}
    .fil12 {fill:#9CB3CB}
    .fil2 {fill:#BBAFAA}
    .fil18 {fill:#CBC1BD}
    .fil8 {fill:#D33F40}
    .fil3 {fill:#E4E4E4}
    .fil5 {fill:#EB4545}
    .fil6 {fill:#EDA685}
    .fil4 {fill:#FEC655}
    .fil10 {fill:#FEFEFE}
   ]]>
  </style>
 </defs>
 <g id="Layer_x0020_1">
  <metadata id="CorelCorpID_0Corel-Layer"/>
  <g id="_115686120">
   <polygon id="_116639272" class="fil0" points="3.02067,0.288982 3.66232,0.298617 3.66232,0.375679 3.66232,0.394944 3.67219,0.481641 4.72844,0.481641 4.72844,0.250453 3.66232,0.250453 3.66232,0.288982 "/>
   <path id="_113102056" class="fil1" d="M1.50047 0.645397l-0.0394872 0.00963434 -0.0197436 0.00963434 -0.0296134 0.00963035 -0.00986981 0.00963434 -0.0197436 0.00963035 -0.00986981 0.00963434 -0.0098738 0.00963434 -0.00986981 0.00963035 -0.0098738 0.0192687 -0.00986981 0.00963035 -0.0098738 0.0192647 -0.00986981 0.028899 -0.0098738 0.0674324 0 0.0385294 0.0098738 0.0866971 0.00986981 0.00963035c0.0366536,0.0563733 -0.00926318,0.119004 0.0589674,0.163752l0.000419058 -0.242443 0.147915 0.0112627 0.0397626 0.00362784 0.274467 -0.0227888 0.0140604 0.211656 0.00884811 0.00433027 0.0577222 -0.119763 0 -0.00963434 0 -0.0481637 0.00986981 -0.0963275 0 -0.028899 -0.00986981 -0.0481637 -0.00986981 -0.0192647 -0.0098738 -0.00963434 -0.00986981 -0.0192647 -0.0098738 -0.00963434 -0.00986981 -0.00963035 -0.0098738 -0.00963434 -0.00986981 -0.00963434 -0.0098738 -0.00963035 -0.0197396 -0.00963434 -0.00986981 -0.00963035 -0.0296174 -0.00963434 -0.0296134 -0.00963434 -0.0789745 -0.00963035 -0.0987141 0 -0.0789705 0.00963035z"/>
   <polygon id="_113102152" class="fil2" points="5.63662,0.00963035 5.63662,0.0481637 6.20917,0.0481637 6.20917,1.16557 6.24865,1.16557 6.24865,0.00963035 6.23878,0 6.20917,0 6.18942,0 6.16968,0 5.66623,0 5.64649,0 "/>
   <path id="_116637688" class="fil3" d="M3.51425 1.04035l0 0.0770628c0,0.031138 0.0358315,0.0481637 0.0690967,0.0481637l1.71764 0c0.0460804,0 0.0690967,-0.0224615 0.0690967,-0.0674324l0 -0.0481637c0,-0.0224615 -0.0263368,-0.0481637 -0.049357,-0.0481637l-1.767 0c-0.0231081,0 -0.0394832,0.0159841 -0.0394832,0.0385334z"/>
   <polygon id="_113101888" class="fil4" points="0,0.481641 0,1.12704 0.769977,1.13667 0.779847,1.1463 0.789721,1.15594 0.799591,1.16557 0.809464,1.1752 0.819334,1.18484 0.829208,1.19447 0.839078,1.2041 0.848948,1.21374 0.858821,1.22337 0.868691,1.233 0.878561,1.24263 0.888435,1.25226 0.898305,1.2619 0.908178,1.2619 0.908178,0.472007 0.0098738,0.472007 "/>
   <path id="_113101720" class="fil3" d="M3.51425 1.31006l0 0.0577981c0,0.0260135 0.00470941,0.0265603 0.00986981,0.0481637 0.0221382,0.00503269 0.022697,0.00963035 0.049357,0.00963035l2.00391 0c0.0230203,0 0.049357,-0.0257022 0.049357,-0.0481637l0 -0.0674284c0,-0.0224615 -0.0263368,-0.0481637 -0.049357,-0.0481637l-2.01378 0c-0.0230203,0 -0.049357,0.0257022 -0.049357,0.0481637z"/>
   <path id="_116637928" class="fil5" d="M2.77389 1.04998l0 0.327516c0,0.0484311 0.0490857,0.0963275 0.0987141,0.0963275l0.33563 0c0.044468,0 0.0987181,-0.0397147 0.0987181,-0.0770628l0 -0.356411c0,-0.047613 -0.040054,-0.0866971 -0.0888443,-0.0866971l-0.365247 0c-0.03827,0 -0.0789705,0.052937 -0.0789705,0.0963275z"/>
   <path id="_113102320" class="fil6" d="M1.32278 1.00181l-0.0197436 0 0 0.0963275 0.0098738 0.0385334 0.00986981 0.0385294 0.0098738 0.028899 0.00986981 0.00963434 0.0098738 0.0385294 0.00986981 0.0385334 0.0098738 0.028899 0.00986981 0.028895 0.00986981 0.028899 0.0098738 0.0192647 0.00986981 0.0192687 0.0098738 0.00963035 0.00986981 0.0192687 0 0.125226 0.128328 0.0192647 0.0691007 0c0.0543139,0 0.142013,-1.19731e-005 0.157945,-0.0385334l0.0098738 -0.105958 0.00986981 -0.00963434 0.0098738 -0.00963434 0.00986981 -0.0192647 0.00986981 -0.0192647 0.00986981 -0.0192647 0.0098738 -0.028899 0.00986981 -0.028899 0.0098738 -0.028899 0.00986981 -0.0481637 0.0098738 -0.0192647 0.00986981 -0.0192647 0.0098738 -0.028899 0.00986981 -0.0385334 0.00986981 -0.0385294 0.0098738 -0.0385334 0 -0.0192647 -0.0098738 -0.0192647 -0.00986981 0 -0.0577222 0.119763 -0.00884811 -0.00433027 -0.0140604 -0.211656 -0.274467 0.0227888 -0.0397626 -0.00362784 -0.147915 -0.0112627 -0.000419058 0.242443c-0.0682306,-0.0447474 -0.0223138,-0.107379 -0.0589674,-0.163752z"/>
   <path id="_113102176" class="fil3" d="M3.51425 1.78207l0 0.0866971c0,0.0296134 0.028919,0.0385294 0.0592269,0.0385294l1.27342 0c0.0266641,0 0.0272188,-0.00459766 0.049357,-0.00963035 0.0051604,-0.0216074 0.0098738,-0.0221502 0.0098738,-0.0481677l0 -0.0674284c0,-0.0225493 -0.0163792,-0.0385294 -0.0394872,-0.0385294l-1.31291 0c-0.0231081,0 -0.0394832,0.0159801 -0.0394832,0.0385294z"/>
   <path id="_116635912" class="fil2" d="M2.64556 0.298617l-0.0296134 0.00963035 -0.0197396 0.00963434 -0.0197436 0.00963434 -0.0197436 0.00963035 -0.0197436 0.00963434 -0.00986981 0.00963434 -0.0098738 0.00963035 -0.00986981 0.00963434 -0.0098738 0.00963035 -0.00986981 0.00963434 -0.0098738 0.00963434 -0.00986981 0.00963035 -0.00986981 0.0192647 -0.0098738 0.00963434 -0.00986981 0.0192647 -0.0098738 0.0192687 -0.00986981 0.0385294 -0.0098738 0.0385294 -0.00986981 1.28117 0.108588 0.33715c0,-0.483565 -0.00704816,-0.972003 -0.000379148,-1.45493 0.00324071,-0.234613 0.153874,-0.327149 0.405109,-0.327149 0.250078,0 0.500156,0 0.750233,0l0 -0.0192647 0 -0.0770628 -0.64165 -0.00963434 -0.325756 0 -0.049361 0.00963434z"/>
   <path id="_113101744" class="fil3" d="M3.51425 2.04216l0 0.0866971c0,0.0225453 0.0163752,0.0385294 0.0394832,0.0385294l1.62879 0c0.0230203,0 0.049357,-0.0257022 0.049357,-0.0481637l0 -0.0481637c0,-0.0449709 -0.0230163,-0.0674324 -0.0691007,-0.0674324l-1.58931 0c-0.0303079,0 -0.0592269,0.00891995 -0.0592269,0.0385334z"/>
   <path id="_113102344" class="fil7" d="M2.77389 1.7917l0 0.327516c0,0.0541144 0.0432588,0.0963275 0.0987141,0.0963275l0.345503 0c0.0487903,0 0.0888443,-0.0390841 0.0888443,-0.0866931l0 -0.346784c0,-0.0435461 -0.0457571,-0.0866931 -0.0789745,-0.0866931l-0.355373 0c-0.0496284,0 -0.0987141,0.0478963 -0.0987141,0.0963275z"/>
   <path id="_116637832" class="fil3" d="M3.51425 2.53343l0 0.0674284c0,0.0224615 0.0263368,0.0481637 0.049357,0.0481637l1.92494 0c0.0319123,0 0.0493531,-0.0349694 0.0493531,-0.0674284l0 -0.028899c0,-0.0449709 -0.0230163,-0.0674324 -0.0690967,-0.0674324l-1.9052 0c-0.0230203,0 -0.049357,0.0257062 -0.049357,0.0481677z"/>
   <path id="_113102392" class="fil3" d="M3.51425 2.79352l0 0.0770628c0,0.0225493 0.0163752,0.0385334 0.0394832,0.0385334l1.75713 0c0.0266601,0 0.0272188,-0.00460166 0.049357,-0.00963434 0.00515641,-0.0216034 0.00986981,-0.0221462 0.00986981,-0.0481637l0 -0.0385334c0,-0.0449669 -0.0230163,-0.0674284 -0.0690967,-0.0674284l-1.73738 0c-0.0230203,0 -0.049357,0.0257022 -0.049357,0.0481637z"/>
   <path id="_115684296" class="fil7" d="M2.77389 2.53343l0 0.327516c0,0.0486866 0.0356159,0.0963275 0.0888443,0.0963275l0.355373 0c0.0487903,0 0.0888443,-0.0390841 0.0888443,-0.0866971l0 -0.356415c0,-0.0472059 -0.0634015,-0.0770628 -0.118462,-0.0770628l-0.315886 0c-0.0496284,0 -0.0987141,0.0479003 -0.0987141,0.0963314z"/>
   <path id="_116637232" class="fil0" d="M1.43137 3.00544l0.167815 -0.0192647c0.00888004,-0.0180634 0.187558,-0.632805 0.187558,-0.635767l-0.0006226 -0.0268037 -0.650897 -0.175486c-0.0268955,0.098295 -0.325756,0.570561 -0.325756,0.606868 0,0.0411315 0.538577,0.231508 0.621902,0.250453z"/>
   <path id="_115684368" class="fil8" d="M1.43137 1.57015l-0.00986981 0 -0.0098738 0.028895 -0.00986981 0.00963434 -0.0394872 0.00963434 -0.0296134 0.00963035 -0.0296174 0.00963434 -0.0296134 0.00963434 -0.0197436 0.00963035 -0.0394832 0.00963434 -0.0296134 0.00963035 -0.0296174 0.00963434 -0.0296134 0.00963434 -0.0296134 0.00963035 -0.0296174 0.00963434 -0.0296134 0.00963035 -0.0296134 0.00963434 -0.0197436 0.00963434 -0.0296134 0.00963035 -0.0197436 0.00963434 -0.0197436 0.00963434 -0.00986981 0.00963035 -0.0098738 0.00963434 -0.00986981 0.0192647 -0.0098738 0.00963434 -0.00986981 0.0192647 -0.00986981 0.0192647 -0.0098738 0.00963434 -0.00986981 0.028899 -0.00986981 0.00963035 -0.0098738 0.0192647 -0.00986981 0.0192687 -0.0098738 0.0192647 -0.00986981 0.028899 -0.0098738 0.0192647 -0.00986981 0.0192647 -0.0098738 0.0192647 -0.00986981 0.0192687 -0.00986981 0.028899 -0.0098738 0.028899 -0.00986981 0.0192647 -0.0098738 0.00963434 -0.00986981 0.028895 -0.0098738 0.0192687 -0.00986981 0.0192647 -0.00986981 0.028899 -0.0098738 0.028899 -0.00986981 0.0192647 -0.00986981 0.028899 -0.0098738 0.028895 -0.00986981 0.0192687 -0.0098738 0.028899 -0.00986981 0.0192647 -0.0098738 0.028899 -0.00986981 0.028895 -0.00986981 0.028899 -0.0098738 0.0192687 -0.00986981 0.0385294 -0.0098738 0.0192647 -0.00986981 0.028899 -0.0098738 0.028899 -0.00986981 0.028899 -0.0098738 0.028899 -0.00986981 0.028899 -0.00986981 0.0192647 -0.0098738 0.028899 -0.00986981 0.028895 -0.0098738 0.0385334 -0.00986981 0.0385294 0 0.00963434 0.00986981 0.0192647 0.0197436 0.00963434 0.0197436 0.00963035 0.0197436 0.00963434 0.0197436 0.00963434 0.0296134 0.00963035 0.0197436 0.00963434 0.0296134 0.00963434 0.0197436 0.00963035 0.0296134 0.00963434 0.0197436 0c0.0699188,0.00567524 0.247272,0.0723773 0.317143,0.0951022 0.0325029,0.0105722 0.316752,0.0975527 0.324503,0.0975527 0.0226132,0 0.0114782,-0.00326466 0.0394872,-0.00963035l0.0498519 -0.171945 0.0192487 -0.0110791c-0.0833247,-0.0189454 -0.621902,-0.209321 -0.621902,-0.250453 0,-0.0363064 0.29886,-0.508573 0.325756,-0.606868l0.650897 0.175486 0.0006226 0.0268037c0,0.00296134 -0.178678,0.617703 -0.187558,0.635767l0.0440011 0.000570717 0.0086725 0.0771905 0.0102929 0.000363184 -0.063162 0.183966 -0.0787749 -0.0116378c-0.00137291,0.0600929 -0.0357756,0.120146 -0.0495047,0.173247 -0.0213001,0.0823668 -0.0100215,0.141159 -0.0824826,0.119883 -0.120318,-0.0353286 -0.245624,-0.0741094 -0.361587,-0.100474l-0.0098738 0.028899 -0.00986981 0.0577981 -0.00986981 0.028899 -0.0098738 0.028899 -0.00986981 0.028895 0 0.0192687 0.00986981 0.028895 0.0098738 0.00963434 0.00986981 0.00963434 0.00986981 0.00963035c0.0828617,0.0188377 0.119443,0.0606237 0.255581,0.0781124 0.0972374,0.0124919 0.19392,0.0278494 0.307094,0.0278494l0.198797 0.00866452 0.373752 -0.0568282 0.00986981 0 0.0098738 -0.558704 0.00986981 -0.0866971 0.00986981 -0.125226 0.0098738 -0.105958 0.00986981 -0.115596 0.00986981 -0.115592 0.0098738 -0.115596 0.00541583 -0.0684461 0.00445399 0.0299167 0.0098738 0.0192647 0.00986981 0.028899 0.0098738 0.028899 0.00986981 0.028899 0.00986981 0.028899 0.0098738 0.028895 0.00986981 0.028899 0.0098738 0.028899 0.00986981 0.028899 0.0098738 0.028899 0.00986981 0.0385294 0.0098738 0.028899 0.00986981 0.0385334 0.00986981 0.0481637 0.0098738 0.028895 0.00986981 0.0192687 0.00986981 0 0.108588 0.163756 0.256659 0.366049 0.148458 0.213101 0.0391001 -0.0108117 0.157945 -0.105962c0.00552358,-0.00775457 0.0197436,-0.0237825 0.0197436,-0.028899 0,-0.0257461 -0.199364,-0.272052 -0.217176,-0.33715 -0.0573191,-0.0409799 -0.222488,-0.37463 -0.252987,-0.475587 -0.0341073,-0.11289 -0.15933,-0.464687 -0.161613,-0.564754l-0.108588 -0.33715 0 -0.00963434 -0.00986981 -0.0192647 -0.0197436 -0.00963434 -0.00986981 -0.00963035 -0.0098738 -0.00963434 -0.0197436 -0.00963035 -0.00986981 -0.00963434 -0.0197436 -0.00963434 -0.0197436 -0.00963035 -0.0197436 -0.00963434 -0.0197436 -0.00963434 -0.0197436 -0.00963035 -0.0296134 -0.00963434 -0.0197396 -0.00963035 -0.0296174 -0.00963434 -0.0296134 -0.00963434 -0.0296134 -0.00963035 -0.0296174 -0.00963434 -0.0197436 -0.00963035 -0.0296134 -0.00963434 -0.0394832 -0.00963434 -0.0394872 -0.00963035 -0.0296134 -0.00963434 -0.0394872 -0.00963434 -0.0296134 0 0 -0.0192647 -0.00986981 -0.0192647 -0.0197436 -0.00963434 -0.0098738 0c-0.0159322,0.0385214 -0.103631,0.0385334 -0.157945,0.0385334l-0.0691007 0 -0.128328 -0.0192647z"/>
   <polygon id="_115684440" class="fil6" points="1.43137,3.00544 1.41212,3.01652 1.36227,3.18846 1.52021,3.23663 1.59899,3.24827 1.66215,3.0643 1.65185,3.06394 1.64318,2.98675 1.59918,2.98618 "/>
   <path id="_116637736" class="fil3" d="M3.51425 3.31369l0 0.0577941c0,0.0260175 0.00470941,0.0265603 0.00986981,0.0481637 0.0221382,0.00503269 0.022697,0.00963434 0.049357,0.00963434l1.74725 0c0.0230203,0 0.049357,-0.0257022 0.049357,-0.0481637l0 -0.0481637c0,-0.0449709 -0.0230163,-0.0674324 -0.0690967,-0.0674324l-1.73738 0c-0.0230203,0 -0.049357,0.0257022 -0.049357,0.0481677z"/>
   <path id="_115684536" class="fil0" d="M0.671263 3.03434l-0.0098738 0.0385294 -0.00986981 0.028899 -0.00986981 0.0385294 -0.0098738 0.028899 -0.00986981 0.0385334 -0.0098738 0.028899 -0.00986981 0.0385294 0 0.0481637 0.0394872 0.00963434 0.0296134 0.00963035 0.0394832 0.00963434 0.0296174 0.00963434 0.0394832 0.00963035 0.0296174 0.00963434 0.0394832 0.00963035 0.0296134 0.00963434 0.0394872 0.00963434 0.0394872 0.00963035 0.0296134 0.00963434 0.0394872 0c0.115963,0.0263647 0.24127,0.0651456 0.361587,0.100474 0.0724611,0.0212762 0.0611825,-0.0375157 0.0824826,-0.119883 0.0137291,-0.0531006 0.0481318,-0.113154 0.0495047,-0.173247l-0.157945 -0.0481637c-0.028009,0.00636569 -0.0168741,0.00963035 -0.0394872,0.00963035 -0.00775058,0 -0.292,-0.0869805 -0.324503,-0.0975527 -0.0698709,-0.0227249 -0.247224,-0.089427 -0.317143,-0.0951022l-0.00986981 0.028899z"/>
   <path id="_115684608" class="fil7" d="M3.11939 3.58341l0.187558 0c0,-0.419014 0.0455456,-0.366049 -0.384991,-0.366049 0.017812,0.0650977 0.217176,0.311404 0.217176,0.33715 0,0.0051165 -0.01422,0.0211445 -0.0197436,0.028899z"/>
   <path id="_116637616" class="fil3" d="M3.51425 3.57378l0 0.0770588c0,0.0225493 0.0163752,0.0385334 0.0394832,0.0385334l2.03353 0c0.0303438,0 0.0394832,-0.0282206 0.0394832,-0.0577981l0 -0.0385294c0,-0.0449709 -0.0230163,-0.0674324 -0.0691007,-0.0674324l-1.9743 0c-0.0332652,0 -0.0690967,0.0170257 -0.0690967,0.0481677z"/>
   <path id="_115684680" class="fil7" d="M3.00093 3.74717l-0.0394872 -0.0577981 -0.0391001 0.0108117 -0.148458 -0.213101c0,0.238081 -0.0206815,0.260087 0.227046,0.260087z"/>
   <path id="_115684752" class="fil6" d="M2.96145 3.68937l0.0394872 0.0577981 0.148071 0.21192c0.0209329,0.0386052 0.0387329,0.0922606 0.0945993,0.0942282l-0.036027 -0.0939887 0.00884811 -0.00637367 0.0905245 0.12173 0.0394832 0.0192647c0.000159641,-0.000187578 0.0098738,-0.0179716 0.0098738,-0.0192647 0,-0.0457611 -0.0660515,-0.0972733 -0.0759054,-0.14687l0.12555 0.154293 0.00958246 -0.00742331c0.000159641,-0.000187578 0.0098738,-0.0179716 0.0098738,-0.0192687 0,-0.0371485 -0.136042,-0.196853 -0.148075,-0.240819 0.0509175,0.0332692 0.113397,0.139271 0.177689,0.144491 -0.00134099,-0.0586921 -0.144998,-0.203375 -0.182438,-0.228941l0.0381981 -0.0925679 0.0719423 -0.0437177 -0.006673 -0.0104525 -0.0691007 0 -0.187558 0 -0.157945 0.105962z"/>
   <path id="_116635792" class="fil3" d="M3.51425 4.04579l0 0.0866931c0,0.0225493 0.0163752,0.0385334 0.0394832,0.0385334l1.31291 0c0.0231081,0 0.0394872,-0.0159841 0.0394872,-0.0385334l0 -0.0674284c0,-0.0260175 -0.0047134,-0.0265603 -0.0098738,-0.0481637 -0.0221382,-0.00503269 -0.022693,-0.00963434 -0.049357,-0.00963434l-1.27342 0c-0.0303079,0 -0.0592269,0.00891995 -0.0592269,0.0385334z"/>
   <path id="_115684824" class="fil9" d="M7.36413 2.25408l-0.0197436 0.00963035 -0.0197436 0.00963434 -0.00986981 0.00963434 -0.0098738 0.00963035 -0.00986981 0.00963434 -0.00986981 0.00963035 -0.0098738 0.00963434 -0.00986981 0.00963434 -0.00986981 0.00963035 -0.0098738 0.00963434 -0.00986981 0.0192647 -0.0098738 0.00963434 -0.00986981 0.0192647 -0.0098738 0.00963434 -0.00986981 0.00963035 -0.00986981 0.0192647 -0.0098738 0.00963434 -0.00986981 0.0192647 -0.0098738 0.0192647 -0.00986981 0.00963434 -0.0098738 0.0192647 -0.00986981 0.0192687 -0.00986981 0.00963035 -0.0098738 0.0192647 -0.00986981 0.0192687 -0.00986981 0.0192647 -0.0098738 0.0192647 -0.00986981 0.0192647 -0.0098738 0.0192687 -0.00986981 0.0192647 -0.0098738 0.0192647 -0.00986981 0.0192647 -0.0098738 0.0192687 -0.00986981 0.0192647 -0.00986981 0.0192647 -0.0098738 0.0192647 -0.00986981 0.0192647 -0.0098738 0.0192687 -0.00986981 0.0192647 -0.0098738 0.0192647 -0.00986981 0.0192647 -0.00986981 0.0192687 -0.0098738 0.0192647 -0.00986981 0.0192647 -0.00986981 0.0192647 -0.0098738 0.0192687 -0.00986981 0.0192647 -0.0098738 0.0192647 -0.00986981 0.0192647 -0.0098738 0.0192687 -0.00986981 0.0192647 -0.00986981 0.0192647 -0.0098738 0.0192647 -0.00986981 0.0192647 -0.0098738 0.0192687 -0.00986981 0.0192647 -0.0098738 0.0192647 -0.00986981 0.0192647 -0.0098738 0.0192687 -0.00986981 0.0192647 -0.00986981 0.0192647 -0.0098738 0.0192647 -0.00986981 0.00963434 -0.0098738 0.0192647 -0.00986981 0.0192647 -0.00986981 0.00963434 -0.0098738 0.0192647 -0.00986981 0.0192647 -0.0098738 0.00963434 -0.00986981 0.0192647 -0.00986981 0.00963434 -0.0098738 0.00963434 -0.00986981 0.0192647 -0.0098738 0.0192647 -0.00986981 0.00963434 -0.0098738 0.00963434 -0.00986981 0.0192647 -0.00986981 0.00963035 -0.0098738 0.00963434 -0.00986981 0.00963434 -0.0098738 0.00963035 -0.00986981 0.00963434 -0.0197436 0 -0.0197436 -0.00963434 -0.0197436 -0.00963035 -0.0197396 -0.00963434 -0.0197436 -0.00963434 -0.0098738 -0.00963035 -0.0197436 -0.00963434 -0.00986981 -0.00963035 -0.00986981 -0.00963434 -0.0098738 -0.028899 0 -0.0192647 0.0098738 -0.028899 0.00986981 -0.00963434 0.00986981 -0.0192647 0.0098738 -0.00963434 0.00986981 -0.0192647 0.0098738 -0.0192647 0.00986981 -0.00963434 0.0098738 -0.0192647 0.00986981 -0.0192647 0.00986981 -0.0192687 0.0098738 -0.028895 0.00986981 -0.028899 0 -0.115596 -0.00986981 -0.0192647 -0.0098738 -0.0192647 -0.00986981 -0.00963434 -0.00986981 -0.00963035 -0.0098738 -0.00963434 -0.00986981 -0.00963434 -0.0098738 -0.00963035 -0.00986981 -0.00963434 -0.0098738 -0.00963035 -0.0197396 -0.00963434 -0.0098738 -0.00963434 -0.0197436 -0.00963035 -0.0296134 -0.00963434 -0.0197436 -0.00963434 -0.0296134 -0.00963035 -0.0394872 -0.00963434 -0.0394832 -0.00963035 -0.0296174 -0.00963434 -0.049357 -0.00963434 -0.0394832 -0.00963035 -0.0296174 -0.00963434 -0.0197396 -0.00963035 -0.0197436 -0.00963434 -0.0197436 0 0 0.0385294 0.0888443 0.0385334c0.124799,0 0.375117,0.0854519 0.375117,0.202289l0 0.0385294c0,0.110867 -0.118462,0.201802 -0.118462,0.269722l0 0.0192647c0,0.0643114 0.114115,0.132283 0.167819,0.144491 -0.0690328,0.100594 -0.180039,0.0533002 -0.246965,0.182849 -0.0570517,0.110432 -0.0491814,0.213859 -0.0491814,0.375855l0.0138289 0.0881259 0.0157845 -0.0399622c0.0625035,0.00507659 0.109881,0.00806188 0.128332,0.0577981 -0.035572,-0.0166546 -0.0672448,-0.0235989 -0.0789705,0.0192647 0.077406,0 0.11038,0.0385334 0.157941,0.0385334l0.0394872 0 0 0.0385294 0.049357 0 0.0197436 0c0.0672927,-0.281858 0.319869,-0.248278 0.450252,-0.456486 0.047158,-0.0752987 0.053811,-0.274291 0.0533281,-0.391069 -0.000550762,-0.133959 0.0590952,-0.271797 0.0590952,-0.39508l0.0296134 0c-0.00272188,0.119236 -0.0569879,0.277356 -0.0590952,0.414345 -0.00204341,0.133025 -0.00802197,0.326634 -0.0673526,0.406283 -0.0813092,0.109159 -0.160906,0.132019 -0.272563,0.206037 -0.0576584,0.0382221 -0.229827,0.18573 -0.153794,0.302668l0.0098738 -0.0674324 0.0407005 -0.00300125 -0.0407005 -0.0258978c0.0481398,0.0225413 0.108253,0.00367973 0.128328,0.0577981l0.0296134 0c0.0545733,0 -0.00878824,-0.0216354 0.0592308,-0.028899l0 -0.0192647 0.0252472 0.00446197 0.0605439 0.0564491 0.00272188 -0.0149544 0.187686 -0.00499677 0.00136892 0.012021 -0.0406526 0.0144475c0.0404571,0.00328861 0.0211405,0.00878824 0.0593067,0.00634973l0.0986383 0.00328462 0.00986981 0.00963434c0,-0.272503 0.0716948,-0.277807 0.246654,-0.375811 0.100322,-0.0561977 0.276534,-0.20003 0.276534,-0.346653l0 -0.0192647c0,-0.0566726 -0.0194603,-0.107566 -0.0394832,-0.144491 0.105894,-0.0691964 0.35938,-0.394948 0.503444,-0.394948l0.0098738 0c0.0592229,0 0.108584,0.0739777 0.108584,0.125226l0 0.028899c0,0.251303 -0.286272,0.50801 -0.286272,0.770628l0 0.00963035c0,0.0481318 0.0789705,0.152721 0.0789705,0.240823l0 0.00963035c0,0.198103 -0.197432,0.323441 -0.384987,0.327516l-0.0197436 0.028899 0.049357 0 0.049357 0 0.0394872 -0.00963035 0.0296134 -0.00963434 0.0296174 -0.00963434 0.0197396 -0.00963035 0.0197436 -0.00963434 0.0197436 -0.00963035 0.0197436 -0.00963434 0.00986981 -0.00963434 0.0197436 -0.00963035 0.0098738 -0.00963434 0.00986981 -0.00963035 0.0098738 -0.00963434 0.0197436 -0.00963434 0.00986981 -0.00963035 0.00986981 -0.0192687 0.00986981 -0.00963035 0.0098738 -0.00963434 0.00986981 -0.0192647 0.0098738 -0.00963434 0.00986981 -0.0192647 0.0098738 -0.028899 0.00986981 -0.0481637 0 -0.0770628 -0.00986981 -0.0577941 -0.0098738 -0.0385334 -0.00986981 -0.0192647 -0.0098738 -0.0192647 -0.00986981 -0.0192687 -0.0098738 -0.028895 -0.00986981 -0.0192687 0 -0.115592 0.00986981 -0.0385334 0.0098738 -0.028895 0.00986981 -0.028899 0.0098738 -0.00963434 0.00986981 -0.028899 0.0098738 -0.0192647 0.00986981 -0.0192647 0.0098738 -0.0192647 0.00986981 -0.0192687 0.00986981 -0.0192647 0.0098738 -0.0192647 0.00986981 -0.0192647 0.0098738 -0.0192687 0.00986981 -0.0192647 0.0098738 -0.0192647 0.00986981 -0.0192647 0.00986981 -0.0192687 0.0098738 -0.0192647 0.00986981 -0.0192647 0.00986981 -0.0192647 0.0098738 -0.0192647 0.00986981 -0.0192687 0.0098738 -0.028899 0.00986981 -0.028895 0.0098738 -0.028903 0.00986981 -0.028895 0.00986981 -0.0385334 0.0098738 -0.028899 0 -0.0963275 -0.0098738 -0.028899 -0.00986981 -0.028899 -0.00986981 -0.0192647 -0.0098738 -0.00963035 -0.00986981 -0.00963434 -0.0098738 -0.0192647 -0.0197436 -0.00963434 -0.00986981 -0.00963434 -0.0296134 -0.00963035 -0.049357 0 -0.0394872 0.00963035 -0.0197436 0.00963434 -0.0197436 0.00963434 -0.0197436 0.00963035 -0.0197396 0.00963434 -0.0197436 0.00963434 -0.00986981 0.00963035 -0.0098738 0.00963434 -0.0197436 0.00963035 -0.00986981 0.00963434 -0.0098738 0.00963434 -0.00986981 0.00963035 -0.00986981 0.00963434 -0.0098738 0.00963035 -0.0197436 0.00963434 -0.00986981 0.00963434 -0.0098738 0.00963035 -0.00986981 0.00963434 -0.00986981 0.00963434 -0.0098738 0.00963035 -0.00986981 0.00963434 -0.0098738 0.00963035 -0.00986981 0.00963434 -0.00986981 0.00963434 -0.0098738 0.00963035 -0.0197436 0.00963434 -0.00986981 0.00963035 -0.0098738 0.00963434 -0.00986981 0.00963434 -0.00986981 0.00963035 -0.0098738 0.00963434 -0.00986981 0.00963434 -0.0098738 0.00963035 -0.00986981 0.00963434 -0.0098738 0.0192647 -0.00986981 0.00963434 -0.00986981 0.00963434 -0.0098738 0.00963035 -0.00986981 0.00963434 -0.0098738 0 -0.00986981 -0.00963434 -0.00986981 -0.0192647 -0.0098738 -0.00963434 -0.00986981 -0.0192647 -0.0098738 -0.00963434 -0.00986981 -0.00963035 -0.00986981 -0.00963434 -0.0098738 -0.00963434 -0.00986981 -0.00963035 -0.0098738 -0.00963434 -0.00986981 -0.00963434 -0.0098738 -0.0192647 -0.00986981 -0.00963035 -0.0098738 -0.0192687 -0.00986981 -0.0192647 -0.00986981 -0.0385294 0 -0.240823 0.00986981 -0.0674284 0.00986981 -0.0577981 0.0098738 -0.0674284 0.00986981 -0.0674284 0.0098738 -0.0674324 0.00986981 -0.105958 0 -0.105962 -0.00986981 -0.0674324 -0.0098738 -0.0385294 -0.00986981 -0.028899 -0.0098738 -0.0192647 -0.00986981 -0.0192647 -0.00986981 -0.00963434 -0.0098738 -0.0192647 -0.00986981 -0.00963434 -0.0098738 -0.00963035 -0.0197436 -0.00963434 -0.00986981 -0.00963434 -0.0197436 -0.00963035 -0.0296134 -0.00963434 -0.0394872 0 -0.0296134 0.00963434z"/>
   <path id="_115684896" class="fil3" d="M3.51425 4.3155l0 0.0770628c0,0.0224615 0.0263368,0.0481637 0.049357,0.0481637l1.59918 0c0.0460844,0 0.0691007,-0.0224615 0.0691007,-0.0674284l0 -0.0385334c0,-0.0260135 -0.00470941,-0.0265603 -0.00986981,-0.0481637 -0.0221382,-0.00503269 -0.022697,-0.00963035 -0.049357,-0.00963035l-1.61892 0c-0.0231081,0 -0.0394832,0.0159801 -0.0394832,0.0385294z"/>
   <path id="_116635840" class="fil7" d="M3.30695 4.07468l-0.0905245 -0.12173 -0.00884811 0.00637367 0.036027 0.0939887c-0.0558664,-0.00196758 -0.0736664,-0.055623 -0.0945993,-0.0942282 -0.137216,0 -0.375117,-0.0384536 -0.375117,0.0963275l0 0.33715c0,0.0532882 0.056924,0.0963275 0.108588,0.0963275l0.306012 0c0.170333,0 0.118462,-0.241046 0.118462,-0.414209z"/>
   <path id="_115684992" class="fil10" d="M7.22593 4.45036l0.049357 0.231184c0.232461,-0.0528452 0.23579,-0.352931 0.319837,-0.554849 0.0455536,-0.109434 0.0938211,-0.190017 0.147293,-0.289749 0.0299447,-0.0558504 0.166438,-0.243285 0.17452,-0.272807 0.0604441,0.0157486 -0.0146271,0.0788986 -0.0435022,0.121307 -0.0332532,0.0488502 -0.0594384,0.0922806 -0.09076,0.142623 -0.0533401,0.0857353 -0.116945,0.203718 -0.156097,0.300417 -0.052937,0.130738 -0.0651096,0.211728 -0.104098,0.351163 -0.0238185,0.0851965 -0.150905,0.211149 -0.237319,0.230793 0.00250237,0.109725 0.049357,0.197249 0.049357,0.317885l0 0.0866971c0,0.0607275 -0.0100773,0.121104 -0.0394872,0.154122 -0.0362425,0.151815 -0.25535,0.191821 -0.362705,0.28183 -0.0846497,0.0709764 -0.248565,0.262191 -0.278941,0.373201 0.137551,-0.089878 0.183519,-0.156911 0.387425,-0.190276 0.202393,-0.0331215 0.28389,-0.0735626 0.34184,-0.244395 0.0438335,-0.129222 0.0621922,-0.347559 0.0798605,-0.50004 0.0228367,-0.197081 0.0951501,-0.266641 0.276738,-0.307924 0.187554,-0.00407484 0.384987,-0.129413 0.384987,-0.327516l0 -0.00963035c0,-0.0881019 -0.0789705,-0.192691 -0.0789705,-0.240823l0 -0.00963035c0,-0.262618 0.286272,-0.519325 0.286272,-0.770628l0 -0.028899c0,-0.0512488 -0.049361,-0.125226 -0.108584,-0.125226l-0.0098738 0c-0.144064,0 -0.39755,0.325752 -0.503444,0.394948 0.020023,0.036925 0.0394832,0.0878186 0.0394832,0.144491l0 0.0192647c0,0.146622 -0.176212,0.290455 -0.276534,0.346653 -0.174959,0.0980037 -0.246654,0.103308 -0.246654,0.375811z"/>
   <path id="_115685064" class="fil7" d="M2.77389 4.81641l0 0.317885c0,0.0484311 0.0490857,0.0963275 0.0987141,0.0963275l0.33563 0c0.0496324,0 0.0987181,-0.0478963 0.0987181,-0.0963275l0 -0.33715c0,-0.0602685 -0.054737,-0.0963275 -0.118462,-0.0963275l-0.306012 0c-0.0644192,0 -0.108588,0.0479841 -0.108588,0.115592z"/>
   <path id="_116635720" class="fil10" d="M6.00186 4.60449c0.00794215,0.0931067 0.0813012,0.163049 0.157945,0.183021 0.0544137,-0.22792 0.049357,-0.343292 0.049357,-0.626132 0,-0.161996 -0.00787031,-0.265423 0.0491814,-0.375855 0.0669256,-0.129549 0.177932,-0.0822551 0.246965,-0.182849 -0.0537033,-0.0122086 -0.167819,-0.0801798 -0.167819,-0.144491l0 -0.0192647c0,-0.0679193 0.118462,-0.158855 0.118462,-0.269722l0 -0.0385294c0,-0.116837 -0.250317,-0.202289 -0.375117,-0.202289l-0.0888443 -0.0385334 0 0.655035c0.0453062,0.0660236 0.0987141,0.100981 0.0987141,0.221554l0.00300924 0.0679073 -0.113732 0.681544 0.012009 0.00190771 0 0.0192647c0,0.0332093 0.00729959,0.0373001 0.00986981,0.0674324z"/>
   <path id="_115685160" class="fil3" d="M3.51425 4.79714l0 0.0770628c0,0.0225453 0.0163752,0.0385334 0.0394832,0.0385334l1.93481 0c0.0230163,0 0.0493531,-0.0257022 0.0493531,-0.0481677l0 -0.0577981c0,-0.0231919 -0.0354603,-0.0577941 -0.0592269,-0.0577941l-1.89533 0c-0.0332652,0 -0.0690967,0.0170217 -0.0690967,0.0481637z"/>
   <path id="_115685232" class="fil3" d="M3.51425 5.05723l0 0.0674284c0,0.0260175 0.00470941,0.0265603 0.00986981,0.0481637 0.0221382,0.00503269 0.022697,0.00963434 0.049357,0.00963434l1.72751 0c0.0332652,0 0.0690967,-0.0170257 0.0690967,-0.0481637l0 -0.0577981c0,-0.0260175 -0.0047134,-0.0265603 -0.00986981,-0.0481637 -0.0221382,-0.00503269 -0.022697,-0.00963434 -0.049357,-0.00963434l-1.75713 0c-0.0231081,0 -0.0394832,0.0159841 -0.0394832,0.0385334z"/>
   <path id="_116635648" class="fil11" d="M7.22593 4.45036l-0.00986981 -0.00963434 -0.0986383 -0.00328462c-0.0381662,0.00243852 -0.0188496,-0.00306112 -0.0593067,-0.00634973l0.0406526 -0.0144475 -0.00136892 -0.012021 -0.187686 0.00499677 -0.00272188 0.0149544 -0.0605439 -0.0564491 -0.0252472 -0.00446197 0 0.0192647c-0.0680191,0.00726367 -0.00465753,0.028899 -0.0592308,0.028899l-0.0296134 0c-0.0200749,-0.0541183 -0.0801877,-0.0352567 -0.128328,-0.0577981l0.0407005 0.0258978 -0.0407005 0.00300125 -0.0098738 0.0674324 0 0.260083c0.0685738,-0.0490258 0.120836,-0.154126 0.266533,-0.154126 0.0368811,0 0.0789705,0.0538988 0.0789705,0.0770628 0,0.161393 -0.128328,0.27469 -0.128328,0.346784l0 0.028899c0,0.0426282 0.0564172,0.128806 0.0789705,0.154126l0.40473 0.105958c0.0294099,-0.0330178 0.0394872,-0.093394 0.0394872,-0.154122l0 -0.0866971c0,-0.120637 -0.0468547,-0.20816 -0.049357,-0.317885 0.0864137,-0.0196438 0.2135,-0.145597 0.237319,-0.230793 0.0389884,-0.139435 0.051161,-0.220424 0.104098,-0.351163 0.039152,-0.0966986 0.102757,-0.214681 0.156097,-0.300417 0.0313216,-0.0503428 0.0575067,-0.0937732 0.09076,-0.142623 0.0288751,-0.0424087 0.103946,-0.105559 0.0435022,-0.121307 -0.00808183,0.0295216 -0.144575,0.216956 -0.17452,0.272807 -0.0534718,0.0997318 -0.101739,0.180315 -0.147293,0.289749 -0.0840471,0.201918 -0.0873756,0.502003 -0.319837,0.554849l-0.049357 -0.231184z"/>
   <path id="_115685304" class="fil11" d="M6.00186 4.60449c-0.0270033,0.0415306 -0.00986981,0.705901 -0.00986981,0.818787 0,0.260526 0.0347419,0.606956 -0.0592308,0.780258l0.0878146 -3.59193e-005 0.0109035 -0.0962915c0.00367574,-0.161002 0.138197,-0.294454 0.138197,-0.452742l0 -0.0866931c0,-0.190228 -0.242914,-0.417306 -0.046268,-0.517161 0.0882895,-0.0448352 0.17691,-0.0546531 0.270217,-0.102362 0.0531765,-0.0271909 0.170912,-0.133412 0.170912,-0.199268l0.00233475 -0.202461 -0.0122046 -0.182853 -0.0197436 0 -0.049357 0 0 -0.0385294 -0.0394872 0c-0.0475611,0 -0.080535,-0.0385334 -0.157941,-0.0385334 0.0117256,-0.0428636 0.0433984,-0.0359193 0.0789705,-0.0192647 -0.0184505,-0.0497362 -0.065828,-0.0527215 -0.128332,-0.0577981l-0.0157845 0.0399622 -0.0138289 -0.0881259c0,0.28284 0.00505663,0.398213 -0.049357,0.626132 -0.0766437,-0.0199711 -0.150003,-0.0899139 -0.157945,-0.183021z"/>
   <path id="_115685376" class="fil12" d="M6.03148 6.10721l-0.0109035 0.0962915 -0.0878146 3.59193e-005c-0.0816884,0.0917098 -0.0829775,0.0812733 -0.197428,0.134861l0 0.028899 0.00986981 0.0385334 0.0098738 0.0385294 0.00986981 0.028899 0.00986981 0.0385294 0.0098738 0.0385334 0.00986981 0.0385294 0.0098738 0.0385334 0.00986981 0.0385294 0.0098738 0.028899 0.00986981 0.0481637 0.0098738 0.0385334 0.00986981 0.028895 0.00986981 0.0385334 0.0098738 0.0385294 0.00986981 0.0385334 0.0098738 0.0385294 0.00986981 0.028899 0.0098738 0.0385334 0.00986981 0.0385294 0.00986981 0.0385334 0.0098738 0.028895 0.00986981 0.00963434 0.256659 0 0.0592308 -0.00963434 0 -0.00963035 -0.0504386 -4.39013e-005 0.0109514 -0.0866532 0.00986981 -0.0192647 0 -0.00963434 0 -0.00963035 0 -0.0192647 0 -0.0385334 0.0098738 -0.0770628 0.00986981 -0.0481637 0.0098738 -0.0385294 0.00986981 -0.0385334 0.0098738 -0.028899 0.00986981 -0.028899 0.00986981 -0.028895 0.00986981 -0.0192687 0.0098738 -0.028899 0.00986981 -0.0192647 0.0098738 -0.0192647 0.00986981 -0.0192647 0.0098738 -0.0192647 0.00986981 -0.0192687 0.0098738 -0.00963035 0.00986981 -0.0192687 0.00986981 -0.00963035 0.0098738 -0.0192647 0.00986981 -0.00963434 0.0098738 -0.0192647 0.00986981 -0.00963434 0.0098738 -0.00963035 0.00986981 -0.00963434 0.00986981 -0.00963434 0.0098738 -0.00963035 0.00986981 -0.00963434 0.0098738 -0.00963434 0.00986981 -0.00963035 0.00986981 -0.00963434 0.0197436 -0.00963434 0.0098738 -0.00963035 0.00986981 -0.00963434 0.0098738 -0.00963434 0.0197396 -0.00963035 0.0098738 -0.00963434 0.00986981 -0.00963035 0 -0.0192687 0 -0.028899 0 -0.00963035 -0.00986981 -0.00963434 -0.0888443 0 -0.108588 -0.00963035c-0.0120409,0.00660116 -0.0105563,0.00963035 -0.0296134,0.00963035l-0.138201 0 0 -0.183021c0,-0.0834245 0.0436179,-0.298776 0.067596,-0.357887 0.0383937,-0.0946592 0.116662,-0.128236 0.176056,-0.261676 0.0165428,-0.0371724 0.0463039,-0.122397 0.0516639,-0.161509 0.00704416,-0.0514284 0.00738739,-0.166973 0.0189215,-0.203091 0.030691,-0.0961239 0.121655,-0.194622 0.218824,-0.219942 -0.0242016,-0.0884372 -0.221227,0.119879 -0.248605,0.200517 -0.0145712,0.0429275 -0.00875632,0.162391 -0.0235471,0.227473 -0.0135336,0.0595501 -0.0397985,0.143757 -0.0632658,0.18872 -0.078755,0.150913 -0.118933,0.103192 -0.186577,0.318839 -0.0263607,0.0840511 -0.0505504,0.341832 -0.0505504,0.451577l-0.167815 0 0 -0.0963275z"/>
   <path id="_116635552" class="fil13" d="M1.00689 3.70863l-0.00986981 0.0770628 -0.0098738 0.0674284 -0.00986981 0.0770628 -0.0098738 0.0770628 -0.00986981 0.0481637 -0.0098738 0.0674324 -0.00986981 0.0770628 -0.00986981 0.0770628 -0.0098738 0.0770588 -0.00986981 0.0963314 -0.0098738 0.0770628 -0.00986981 0.0963275 -0.0098738 0.105962 -0.00986981 0.144491 -0.00986981 0.16376 -0.0098738 0.0963275 -0.00986981 0.0866931 -0.00986981 0.260087 -0.0098738 0.260087 0 0.00963035 0 0.00963434 -0.00986981 0.269718 -0.0098738 0.231188 0 0.00963434 0 0.00963035 -0.00986981 0.221558 -0.0098738 0.240819 0 0.183025 0.0197436 0 0.0888443 0.00963035 0.0691007 0c0.0340315,0 0.0382221,-0.00712399 0.0691007,-0.00963035l0.0296134 0 0.00986981 -0.0192647 0.0098738 -0.0770628 0.00986981 -0.0674324 0.0098738 -0.0770628 0.00986981 -0.0770628 0.0098738 -0.0770588 0.00986981 -0.0674324 0.00986981 -0.0770628 0.0098738 -0.0674284 0.00986981 -0.0770628 0.0098738 -0.0770628 0.00986981 -0.0674324 0.0098738 -0.0674284 0.00986981 -0.0770628 0.00986981 -0.0674284 0.0098738 -0.0674284 0.00986981 -0.0674324 0.00986981 -0.0481637 0.0098738 -0.0674284 0.00986981 -0.0577981 0.0098738 -0.0674284 0.00986981 -0.0577981 0.0098738 -0.0481637 0.00986981 -0.0481637 0.00986981 -0.0385334 0.0098738 -0.028895 0.00986981 -0.0385334 0.0098738 -0.0385294 0.00986981 -0.0385334 0.0098738 -0.0385294 0.00986981 -0.0481637 0.0098738 -0.0385334 0.00986981 -0.0385294 0.00986981 -0.0385334 0.0098738 -0.028899 0.00986981 -0.0385294 0.0098738 -0.0481637 0.00986981 -0.0385334 0.00986981 -0.0385294 0.0098738 -0.028899 0.00986981 -0.0385334 0.0098738 -0.028899 0.00986981 -0.0385294 0.00986981 -0.028899 0.0098738 -0.0385294 0.00986981 -0.028899 0.0098738 -0.0385334 0.00986981 -0.0385294 0.0098738 -0.028899 0.00986981 -0.0385294 0.00986981 -0.028899 0.0098738 -0.028899 0.00986981 -0.0192647 0.00541583 -0.0299167 0.00445798 0.0299167 0.00986981 0.0385294 0.0098738 0.0481637 0.00986981 0.0674324 0.00986981 0.0577941 0.0098738 0.0674324 0.00986981 0.0674284 0.0098738 0.0770628 0.00986981 0.0674284 0.00986981 0.0577981 0.0098738 0.0770628 0.00986981 0.0770628 0.0098738 0.0963275 0.00986981 0.0963275 0.0098738 0.0866971 0.00986981 0.105962 0.00986981 0.491272 0.0098738 0.683931 0.00986981 0.202289 0.0098738 0.0963275 0.00986981 0.028899 0.0098738 0.00963434 0.00986981 0.0385294 0.0098738 -0.0385294 0.167815 0c0.0266601,0 0.0272148,-0.00460166 0.0480041,-0.00945874l0.0112228 0.0383578 0.00986981 -0.0385334 0.0098738 -0.00963035 0.00986981 -0.154126 0.0098738 -0.250453 0.00986981 -0.240823 0.00986981 -0.260087 0.0098738 -0.260083 0.00986981 -0.279352 0.0098738 -0.250453 0.00986981 -0.154126 0.0098738 -0.16376 0.00986981 -0.154126 0.0098738 -0.163756 0.00986981 -0.0866971 0.00986981 -0.163756 0 -0.240823 -0.00986981 -0.0963275 -0.00986981 -0.0674284 -0.0098738 -0.0963275 -0.00986981 -0.0866971 -0.373752 0.0568282 -0.198797 -0.00866452c-0.113174,0 -0.209856,-0.0153575 -0.307094,-0.0278494 -0.136138,-0.0174887 -0.17272,-0.0592747 -0.255581,-0.0781124l-0.00986981 0.028899z"/>
   <path id="_115685448" class="fil2" d="M3.66232 0.394944l0 0.0963275 1.07599 0 0 -0.0963275 0.829204 0c0.203279,0 0.32576,0.145669 0.32576,0.346784l0 4.99943c0,0.218201 -0.117061,0.366045 -0.335633,0.366045l-2.71466 0c-0.123279,0 -0.229117,-0.0658959 -0.27857,-0.142376 -0.0714115,-0.110428 -0.0570597,-0.189151 -0.0570597,-0.35853 0,-0.276143 0,-0.552282 0,-0.828422 0,-0.18599 -0.0176284,-1.61455 0.00986981,-1.65685l-0.108588 -0.163756 0 3.12103 0.0098738 0.0481637 0.00986981 0.0192687 0.0098738 0.0192647 0.00986981 0.0192647 0.0098738 0.0192647 0.00986981 0.00963434 0.00986981 0.0192647 0.0098738 0.00963434 0.00986981 0.00963035 0.0098738 0.00963434 0.00986981 0.00963434 0.0098738 0.00963035 0.00986981 0.00963434 0.0197436 0.00963035 0.0197436 0.00963434 0.0197436 0.00963434 0.0197396 0.00963035 0.0296134 0.00963434 0.049361 0 0.325756 0.00963434 1.85584 0 0.631556 -0.00963434 0.0100933 0.789892 0 -0.780258 0.187558 0 0.0296134 -0.00963434c0.114451,-0.0535875 0.11574,-0.043151 0.197428,-0.134861 0.0939727,-0.173302 0.0592308,-0.519732 0.0592308,-0.780258 0,-0.112886 -0.0171335,-0.777257 0.00986981,-0.818787 -0.00257022,-0.0301323 -0.00986981,-0.0342231 -0.00986981,-0.0674324l0 -0.0192647 -0.012009 -0.00190771 0.113732 -0.681544 -0.00300924 -0.0679073c0,-0.120573 -0.0534079,-0.15553 -0.0987141,-0.221554l0 -0.655035 0 -0.0385294 0 -2.31188 -0.0098738 -0.0192647 -0.00986981 -0.0385294 -0.0098738 -0.0192687 -0.00986981 -0.0192647 -0.00986981 -0.00963434 -0.0098738 -0.0192647 -0.00986981 -0.00963035 -0.00986981 -0.00963434 -0.0098738 -0.00963434 -0.00986981 -0.00963035 -0.0098738 -0.00963434 -0.00986981 -0.00963035 -0.0197436 -0.00963434 -0.00986981 -0.00963434 -0.0197436 -0.00963035 -0.0197436 -0.00963434 -0.0197436 -0.00963434 -0.0296134 -0.00963035 -0.0592308 -0.00963434 -0.957531 0 0 -0.0481637 -1.07599 0 0 0.00963434 1.06612 0 0 0.231188 -1.05625 0 -0.00986981 -0.0866971z"/>
   <path id="_115685544" class="fil10" d="M2.77389 4.81641c0,-0.067608 0.0441687,-0.115592 0.108588,-0.115592l0.306012 0c0.0637247,0 0.118462,0.0360589 0.118462,0.0963275l0 0.33715c0,0.0484311 -0.0490857,0.0963275 -0.0987181,0.0963275l-0.33563 0c-0.0496284,0 -0.0987141,-0.0478963 -0.0987141,-0.0963275l0 -0.317885zm2.58633 0.211924c0.00515641,0.0216034 0.00986981,0.0221462 0.00986981,0.0481637l0 0.0577981c0,0.031138 -0.0358315,0.0481637 -0.0690967,0.0481637l-1.72751 0c-0.0266601,0 -0.0272188,-0.00460166 -0.049357,-0.00963434 -0.0051604,-0.0216034 -0.00986981,-0.0221462 -0.00986981,-0.0481637l0 -0.0674284c0,-0.0225493 0.0163752,-0.0385334 0.0394832,-0.0385334l1.75713 0c0.0266601,0 0.0272188,0.00460166 0.049357,0.00963434zm-1.84597 -0.231188c0,-0.031142 0.0358315,-0.0481637 0.0690967,-0.0481637l1.89533 0c0.0237666,0 0.0592269,0.0346022 0.0592269,0.0577941l0 0.0577981c0,0.0224655 -0.0263368,0.0481677 -0.0493531,0.0481677l-1.93481 0c-0.0231081,0 -0.0394832,-0.0159881 -0.0394832,-0.0385334l0 -0.0770628zm0 -0.481641c0,-0.0225493 0.0163752,-0.0385294 0.0394832,-0.0385294l1.61892 0c0.0266601,0 0.0272188,0.00459766 0.049357,0.00963035 0.0051604,0.0216034 0.00986981,0.0221502 0.00986981,0.0481637l0 0.0385334c0,0.0449669 -0.0230163,0.0674284 -0.0691007,0.0674284l-1.59918 0c-0.0230203,0 -0.049357,-0.0257022 -0.049357,-0.0481637l0 -0.0770628zm0.0592269 -0.308251l1.27342 0c0.0266641,0 0.0272188,0.00460166 0.049357,0.00963434 0.0051604,0.0216034 0.0098738,0.0221462 0.0098738,0.0481637l0 0.0674284c0,0.0225493 -0.0163792,0.0385334 -0.0394872,0.0385334l-1.31291 0c-0.0231081,0 -0.0394832,-0.0159841 -0.0394832,-0.0385334l0 -0.0866931c0,-0.0296134 0.028919,-0.0385334 0.0592269,-0.0385334zm-0.0592269 -0.433474c0,-0.031142 0.0358315,-0.0481677 0.0690967,-0.0481677l1.9743 0c0.0460844,0 0.0691007,0.0224615 0.0691007,0.0674324l0 0.0385294c0,0.0295775 -0.00913945,0.0577981 -0.0394832,0.0577981l-2.03353 0c-0.0231081,0 -0.0394832,-0.0159841 -0.0394832,-0.0385334l0 -0.0770588zm1.78674 -0.308255c0.0460804,0 0.0690967,0.0224615 0.0690967,0.0674324l0 0.0481637c0,0.0224615 -0.0263368,0.0481637 -0.049357,0.0481637l-1.74725 0c-0.0266601,0 -0.0272188,-0.00460166 -0.049357,-0.00963434 -0.0051604,-0.0216034 -0.00986981,-0.0221462 -0.00986981,-0.0481637l0 -0.0577941c0,-0.0224655 0.0263368,-0.0481677 0.049357,-0.0481677l1.73738 0zm-2.5271 -0.73209c0,-0.0484311 0.0490857,-0.0963314 0.0987141,-0.0963314l0.315886 0c0.0550602,0 0.118462,0.0298569 0.118462,0.0770628l0 0.356415c0,0.047613 -0.040054,0.0866971 -0.0888443,0.0866971l-0.355373 0c-0.0532283,0 -0.0888443,-0.0476409 -0.0888443,-0.0963275l0 -0.327516zm0.740364 0.260083c0,-0.0224615 0.0263368,-0.0481637 0.049357,-0.0481637l1.73738 0c0.0460804,0 0.0690967,0.0224615 0.0690967,0.0674284l0 0.0385334c0,0.0260175 -0.0047134,0.0265603 -0.00986981,0.0481637 -0.0221382,0.00503269 -0.022697,0.00963434 -0.049357,0.00963434l-1.75713 0c-0.0231081,0 -0.0394832,-0.0159841 -0.0394832,-0.0385334l0 -0.0770628zm0 -0.260083c0,-0.0224615 0.0263368,-0.0481677 0.049357,-0.0481677l1.9052 0c0.0460804,0 0.0690967,0.0224615 0.0690967,0.0674324l0 0.028899c0,0.032459 -0.0174408,0.0674284 -0.0493531,0.0674284l-1.92494 0c-0.0230203,0 -0.049357,-0.0257022 -0.049357,-0.0481637l0 -0.0674284zm-0.740364 -0.741729c0,-0.0484311 0.0490857,-0.0963275 0.0987141,-0.0963275l0.355373 0c0.0332173,0 0.0789745,0.043147 0.0789745,0.0866931l0 0.346784c0,0.047609 -0.040054,0.0866931 -0.0888443,0.0866931l-0.345503 0c-0.0554553,0 -0.0987141,-0.0422131 -0.0987141,-0.0963275l0 -0.327516zm0.740364 0.250453c0,-0.0296134 0.028919,-0.0385334 0.0592269,-0.0385334l1.58931 0c0.0460844,0 0.0691007,0.0224615 0.0691007,0.0674324l0 0.0481637c0,0.0224615 -0.0263368,0.0481637 -0.049357,0.0481637l-1.62879 0c-0.0231081,0 -0.0394832,-0.0159841 -0.0394832,-0.0385294l0 -0.0866971zm0 -0.260087c0,-0.0225493 0.0163752,-0.0385294 0.0394832,-0.0385294l1.31291 0c0.0231081,0 0.0394872,0.0159801 0.0394872,0.0385294l0 0.0674284c0,0.0260175 -0.0047134,0.0265603 -0.0098738,0.0481677 -0.0221382,0.00503269 -0.022693,0.00963035 -0.049357,0.00963035l-1.27342 0c-0.0303079,0 -0.0592269,-0.00891596 -0.0592269,-0.0385294l0 -0.0866971zm-0.740364 -0.732094c0,-0.0433905 0.0407005,-0.0963275 0.0789705,-0.0963275l0.365247 0c0.0487903,0 0.0888443,0.0390841 0.0888443,0.0866971l0 0.356411c0,0.037348 -0.05425,0.0770628 -0.0987181,0.0770628l-0.33563 0c-0.0496284,0 -0.0987141,-0.0478963 -0.0987141,-0.0963275l0 -0.327516zm2.8035 0.211924c0.0230203,0 0.049357,0.0257022 0.049357,0.0481637l0 0.0674284c0,0.0224615 -0.0263368,0.0481637 -0.049357,0.0481637l-2.00391 0c-0.0266601,0 -0.0272188,-0.00459766 -0.049357,-0.00963035 -0.0051604,-0.0216034 -0.00986981,-0.0221502 -0.00986981,-0.0481637l0 -0.0577981c0,-0.0224615 0.0263368,-0.0481637 0.049357,-0.0481637l2.01378 0zm-2.06314 -0.221554c0,-0.0225493 0.0163752,-0.0385334 0.0394832,-0.0385334l1.767 0c0.0230203,0 0.049357,0.0257022 0.049357,0.0481637l0 0.0481637c0,0.0449709 -0.0230163,0.0674324 -0.0690967,0.0674324l-1.71764 0c-0.0332652,0 -0.0690967,-0.0170257 -0.0690967,-0.0481637l0 -0.0770628zm-1.00689 1.13667c0.00228287,0.100067 0.127505,0.451864 0.161613,0.564754 0.0304994,0.100957 0.195668,0.434607 0.252987,0.475587 0.430536,0 0.384991,-0.0529649 0.384991,0.366049l0.0691007 0 0.006673 0.0104525 -0.0719423 0.0437177 -0.0381981 0.0925679c0.0374398,0.0255665 0.181097,0.170249 0.182438,0.228941 -0.0642915,-0.00522026 -0.126771,-0.111222 -0.177689,-0.144491 0.0120329,0.0439652 0.148075,0.20367 0.148075,0.240819 0,0.00129708 -0.00971416,0.0190811 -0.0098738,0.0192687l-0.00958246 0.00742331 -0.12555 -0.154293c0.00985385,0.0495965 0.0759054,0.101109 0.0759054,0.14687 0,0.00129309 -0.00971416,0.0190771 -0.0098738,0.0192647l-0.0394832 -0.0192647c0,0.173163 0.0518714,0.414209 -0.118462,0.414209l-0.306012 0c-0.0516639,0 -0.108588,-0.0430392 -0.108588,-0.0963275l0 -0.33715c0,-0.134781 0.237901,-0.0963275 0.375117,-0.0963275l-0.148071 -0.21192c-0.247727,0 -0.227046,-0.0220065 -0.227046,-0.260087l-0.256659 -0.366049c-0.0274982,0.0422969 -0.00986981,1.47086 -0.00986981,1.65685 0,0.276139 0,0.552278 0,0.828422 0,0.169379 -0.0143517,0.248102 0.0570597,0.35853 0.0494528,0.0764801 0.155291,0.142376 0.27857,0.142376l2.71466 0c0.218573,0 0.335633,-0.147844 0.335633,-0.366045l0 -4.99943c0,-0.201116 -0.122481,-0.346784 -0.32576,-0.346784l-0.829204 0 0 0.0963275 -1.07599 0 0 -0.0963275c-0.250078,0 -0.500156,0 -0.750233,0 -0.251235,0 -0.401869,0.092536 -0.405109,0.327149 -0.00666901,0.482922 0.000379148,0.97136 0.000379148,1.45493z"/>
   <path id="_116647864" class="fil10" d="M6.55467 4.36367l0.0122046 0.182853 -0.00233475 0.202461c0,0.065856 -0.117735,0.172077 -0.170912,0.199268 -0.0933062,0.0477088 -0.181927,0.0575267 -0.270217,0.102362 -0.196646,0.0998555 0.046268,0.326933 0.046268,0.517161l0 0.0866931c0,0.158288 -0.134522,0.29174 -0.138197,0.452742l0 0.0963275 0.167815 0c0,-0.109745 0.0241896,-0.367526 0.0505504,-0.451577 0.0676439,-0.215647 0.107822,-0.167926 0.186577,-0.318839 0.0234672,-0.0449629 0.0497322,-0.12917 0.0632658,-0.18872 0.0147908,-0.0650817 0.00897582,-0.184545 0.0235471,-0.227473 0.0273785,-0.0806387 0.224404,-0.288954 0.248605,-0.200517 -0.0971696,0.0253191 -0.188133,0.123818 -0.218824,0.219942 -0.0115341,0.0361188 -0.0118773,0.151663 -0.0189215,0.203091 -0.00535995,0.0391121 -0.035121,0.124336 -0.0516639,0.161509 -0.0593945,0.13344 -0.137663,0.167017 -0.176056,0.261676 -0.0239781,0.0591111 -0.067596,0.274463 -0.067596,0.357887l0 0.183021 0.138201 0c0.0190572,0 0.0175725,-0.00302919 0.0296134,-0.00963035 0.0424206,-0.177673 0.0583688,-0.4306 0.156025,-0.550945 0.0855237,-0.105391 0.357293,-0.220145 0.357293,-0.364173 0,-0.0528652 -0.0201746,-0.076057 -0.0296134,-0.115592 -0.0225533,-0.0253191 -0.0789705,-0.111497 -0.0789705,-0.154126l0 -0.028899c0,-0.0720939 0.128328,-0.185391 0.128328,-0.346784 0,-0.0231639 -0.0420894,-0.0770628 -0.0789705,-0.0770628 -0.145696,0 -0.197959,0.1051 -0.266533,0.154126l0 -0.260083c-0.0760331,-0.116937 0.0961359,-0.264446 0.153794,-0.302668 0.111657,-0.0740176 0.191254,-0.0968782 0.272563,-0.206037 0.0593306,-0.0796489 0.0653092,-0.273258 0.0673526,-0.406283 0.00210726,-0.136988 0.0563733,-0.295109 0.0590952,-0.414345l-0.0296134 0c0,0.123283 -0.0596459,0.261121 -0.0590952,0.39508 0.000482914,0.116777 -0.00617013,0.31577 -0.0533281,0.391069 -0.130383,0.208208 -0.382959,0.174627 -0.450252,0.456486z"/>
   <path id="_115685616" class="fil14" d="M7.29503 5.26915l-0.40473 -0.105958c0.00943878,0.0395351 0.0296134,0.062727 0.0296134,0.115592 0,0.144028 -0.271769,0.258782 -0.357293,0.364173 -0.0976565,0.120345 -0.113605,0.373273 -0.156025,0.550945l0.108588 0.00963035 0.00986981 -0.00963035 0.0098738 -0.00963434 0.00986981 -0.0192647 0.0098738 -0.0192647 0.00986981 -0.0192687 0.0098738 -0.0192647 0.00986981 -0.0192647 0.00986981 -0.0192647 0.0098738 -0.0192687 0.00986981 -0.028895 0.0098738 -0.00963434 0.00986981 -0.00963434 0.0098738 -0.00963035 0.00986981 -0.00963434 0.00986981 -0.00963434 0.0098738 -0.00963035 0.00986981 -0.00963434 0.0098738 -0.00963035 0.0197396 -0.00963434 0.0098738 -0.00963434 0.00986981 -0.00963035 0.0197436 -0.00963434 0.00986981 -0.00963035 0.0098738 -0.00963434 0.0197436 -0.00963434 0.00986981 -0.00963035 0.0197436 -0.00963434 0.0197436 -0.00963434 0.00986981 -0.00963035 0.0197436 -0.00963434 0.0197436 -0.00963035 0.0296134 -0.00963434 0.0197436 -0.00963434 0.0296134 -0.00963035 0.0394872 -0.00963434 0.0592308 -0.00963434 0.0592269 -0.00963035 0.0394872 -0.00963434 0.0394832 -0.00963035 0.0197436 -0.00963434 0.0197436 -0.00963434 0.0197436 -0.00963035 0.00986981 -0.00963434 0.0197436 -0.00963035 0.00986981 -0.00963434 0.0098738 -0.00963434 0.00986981 -0.00963035 0.0098738 -0.00963434 0.00986981 -0.00963434 0.0098738 -0.00963035 0.00986981 -0.0192647 0.0098738 -0.00963434 0.00986981 -0.0192647 0.00986981 -0.0192647 0.0098738 -0.028899 0.00986981 -0.0192687 0.0098738 -0.0192647 0.00986981 -0.028899 0.0098738 -0.0385294 0.00986981 -0.0481637 0.00986981 -0.0577981 0.0098738 -0.0770628 0.00986981 -0.0963275 0.00986981 -0.0963275 0.0098738 -0.0577981 0.00986981 -0.0481637 0.0098738 -0.0385294 0.00986981 -0.028903 0.0098738 -0.028895 0.00986981 -0.0192687 0.00986981 -0.0192647 0.0098738 -0.00963434 0.00986981 -0.00963035 0.0098738 -0.00963434 0.00986981 -0.00963035 0.0098738 -0.00963434 0.00986981 -0.00963434 0.0197436 -0.00963035 0.0296134 -0.00963434 0.049357 -0.00963035 0.049357 -0.00963434 0 -0.00963434 -0.049357 0 0.0197436 -0.028899c-0.181588,0.0412832 -0.253901,0.110843 -0.276738,0.307924 -0.0176683,0.152481 -0.036027,0.370818 -0.0798605,0.50004 -0.0579497,0.170832 -0.139447,0.211273 -0.34184,0.244395 -0.203906,0.033365 -0.249874,0.100398 -0.387425,0.190276 0.0303757,-0.11101 0.194291,-0.302225 0.278941,-0.373201 0.107355,-0.0900097 0.326462,-0.130016 0.362705,-0.28183z"/>
   <polygon id="_115685688" class="fil15" points="6.63364,6.23243 6.63364,6.2228 6.62377,6.2228 6.62377,6.23243 "/>
   <polygon id="_116647720" class="fil16" points="6.64351,6.2517 6.64351,6.24207 6.62377,6.24207 6.62377,6.2517 "/>
   <polygon id="_115685784" class="fil0" points="2.88248,7.14755 3.00093,7.14755 3.00093,6.34803 3.02067,6.34803 2.69492,6.3384 2.69492,6.34803 2.88248,6.34803 "/>
   <polygon id="_115685880" class="fil0" points="5.39971,7.14755 5.51816,7.14755 5.51816,7.12829 5.50807,6.3384 4.87651,6.34803 5.39971,6.34803 "/>
   <polygon id="_116647552" class="fil17" points="6.28814,7.13792 6.28814,7.12829 6.27827,7.12829 6.27827,7.13792 "/>
   <path id="_115685952" class="fil18" d="M0.789721 6.9549l-0.0098738 0.0192647 -0.0197436 0.00963434 -0.00986981 0.00963035 -0.00986981 0.00963434 -0.0197436 0.00963035 -0.0098738 0.00963434 -0.00986981 0.00963434 -0.0098738 0.00963035 -0.00986981 0.00963434 -0.00986981 0.00963035 -0.0197436 0.00963434 -0.00986981 0.00963434 -0.0098738 0.00963035 -0.00986981 0.00963434 -0.0098738 0.0192647 -0.00986981 0.00963434 -0.0098738 0.00963035 -0.00986981 0.0192687 -0.00986981 0.0192647 -0.0098738 0.0192647 -0.00986981 0.0385334 0 0.0481637 0.00986981 0.028899 0.0098738 0.00963035 0.00986981 0.00963434 0.00986981 0.00963035 0.0098738 0.00963434 0.0197436 0.00963434 0.0296134 0.00963035 0.0691007 0 0.0394832 -0.00963035 0.0296174 -0.00963434 0.0197436 -0.00963434 0.0197436 -0.00963035 0.00986981 -0.00963434 0.0197436 -0.00963035 0.00986981 -0.00963434 0.00986981 -0.00963434 0.0098738 -0.00963035 0.00986981 -0.00963434 0.0098738 -0.0192647 0.00986981 -0.0385334 0.0098738 -0.0192647 0.00986981 -0.00963434 0.0197436 -0.00963035 0.0197436 -0.00963434 0.0197436 -0.00963035 0.00986981 -0.00963434 0.0197436 -0.00963434 0.00986981 -0.00963035 0.00986981 -0.0385334 0 -0.0577941 -0.00986981 -0.0770628 -0.00986981 -0.028899c-0.0308786,0.00250637 -0.0350692,0.00963035 -0.0691007,0.00963035l-0.0691007 0 -0.0888443 -0.00963035 -0.00986981 0.028899z"/>
   <path id="_115686024" class="fil18" d="M1.80648 6.96453l-0.00986981 0.028899 0 0.115596 0.00986981 0.0192647 0.0098738 0.00963035 0.00986981 0.00963434 0.0197396 0.00963434 0.0197436 0.00963035 0.0197436 0.00963434 0.0098738 0.00963035 0.00986981 0.00963434 0.0098738 0.00963434 0.00986981 0.028899 0.00986981 0.028895 0.0098738 0.00963434 0.00986981 0.00963434 0.0098738 0.00963035 0.00986981 0.00963434 0.0098738 0.00963434 0.00986981 0.00963035 0.0197436 0.00963434 0.0197396 0.00963035 0.0197436 0.00963434 0.0296174 0.00963434 0.0296134 0.00963035 0.0789705 0 0.0296134 -0.00963035 0.0197436 -0.00963434 0.0098738 -0.00963434 0.00986981 -0.00963035 0.0098738 -0.00963434 0.00986981 -0.0192647 0 -0.0963275 -0.00986981 -0.0192687 -0.0098738 -0.0192647 -0.00986981 -0.0192647 -0.0098738 -0.00963434 -0.00986981 -0.0192647 -0.0098738 -0.00963035 -0.00986981 -0.00963434 -0.00986981 -0.00963434 -0.0098738 -0.00963035 -0.00986981 -0.00963434 -0.00986981 -0.00963434 -0.0098738 -0.00963035 -0.00986981 -0.00963434 -0.0098738 -0.00963035 -0.0197436 -0.00963434 -0.00986981 -0.00963434 -0.0098738 -0.00963035 -0.00986981 -0.00963434 -0.0197436 -0.00963035 -0.00986981 -0.00963434 -0.0098738 -0.00963434 -0.00986981 -0.00963035 -0.0112228 -0.0383578c-0.0207893,0.00485708 -0.021344,0.00945874 -0.0480041,0.00945874l-0.167815 0 -0.0098738 0.0385294z"/>
  </g>
 </g>
</svg>
