<?xml version="1.0" encoding="UTF-8"?>
<!DOCTYPE svg PUBLIC "-//W3C//DTD SVG 1.1//EN" "http://www.w3.org/Graphics/SVG/1.1/DTD/svg11.dtd">
<!-- Creator: CorelDRAW -->
<svg xmlns="http://www.w3.org/2000/svg" xml:space="preserve" width="1.81378in" height="2.91959in" style="shape-rendering:geometricPrecision; text-rendering:geometricPrecision; image-rendering:optimizeQuality; fill-rule:evenodd; clip-rule:evenodd"
viewBox="0 0 1.5238 2.45282"
 xmlns:xlink="http://www.w3.org/1999/xlink">
 <defs>
  <style type="text/css">
   <![CDATA[
    .fil5 {fill:#282C47}
    .fil11 {fill:#443C39}
    .fil10 {fill:#463F2C}
    .fil6 {fill:#4B5D26}
    .fil23 {fill:#5A4E46}
    .fil8 {fill:#655A56}
    .fil2 {fill:#69B5F1}
    .fil20 {fill:#6E6C39}
    .fil1 {fill:#7ABFFA}
    .fil18 {fill:#7E6E64}
    .fil9 {fill:#837C77}
    .fil13 {fill:#888445}
    .fil0 {fill:#A5D5FD}
    .fil12 {fill:#B7ABA5}
    .fil21 {fill:#BC8552}
    .fil14 {fill:#C9BA49}
    .fil17 {fill:#CAC3B2}
    .fil16 {fill:#D44040}
    .fil22 {fill:#DE9572}
    .fil19 {fill:#DED0C6}
    .fil7 {fill:#EBA582}
    .fil15 {fill:#FEB055}
    .fil4 {fill:#FEC453}
    .fil3 {fill:#FEFDF9}
   ]]>
  </style>
 </defs>
 <g id="Layer_x0020_1">
  <metadata id="CorelCorpID_0Corel-Layer"/>
  <g id="_84048576">
   <polygon id="_113105392" class="fil0" points="1.02104,0.0248367 1.02523,0.00493161 1.11415,0.080725 1.1302,0.0937172 1.14518,0.080725 1.23208,0.00620834 1.23208,0.0248367 1.23518,0.0248367 1.23518,0 1.02104,0 "/>
   <polygon id="_84048456" class="fil1" points="1.02104,0.0248367 1.02104,0.14903 1.23208,0.14903 1.02633,0.144717 1.11415,0.080725 1.02523,0.00493161 "/>
   <polygon id="_84049008" class="fil1" points="1.14518,0.080725 1.23208,0.142822 1.23208,0.0248367 1.23208,0.00620834 "/>
   <polygon id="_84048936" class="fil2" points="1.14518,0.080725 1.1302,0.0937172 1.11415,0.080725 1.02633,0.144717 1.23208,0.14903 1.23518,0.14903 1.23518,0.0248367 1.23208,0.0248367 1.23208,0.142822 "/>
   <path id="_84048552" class="fil3" d="M0.155176 0.220441l0 0.01242c0,0.0156118 0.0154299,0.0310483 0.0310318,0.0310483l0.0124167 0c0.0156019,0 0.0310351,-0.0154365 0.0310351,-0.0310483l0 -0.01242c0,-0.0156085 -0.0154332,-0.0310483 -0.0310351,-0.0310483l-0.0124167 0c-0.0156019,0 -0.0310318,0.0154398 -0.0310318,0.0310483z"/>
   <path id="_84048792" class="fil3" d="M0.279313 0.226652c0,0.0167298 0.0167166,0.0372567 0.0341376,0.0372567l0.0124134 0c0.0171697,0 0.0310351,-0.017904 0.0310351,-0.0341508l0 -0.00621165c0,-0.0181421 -0.0160054,-0.0341542 -0.0341376,-0.0341542l-0.00931086 0c-0.0174211,0 -0.0341376,0.0205269 -0.0341376,0.03726z"/>
   <path id="_115687296" class="fil3" d="M0.403453 0.223547l0 0.00621165c0,0.0162469 0.0138654,0.0341508 0.0310351,0.0341508l0.0186184 0c0.0141862,0 0.0279326,-0.0207717 0.0279326,-0.0372567 0,-0.018238 -0.0161973,-0.03726 -0.0341376,-0.03726l-0.00931086 0c-0.0157772,0 -0.0341376,0.0183703 -0.0341376,0.0341542z"/>
   <path id="_115686120" class="fil4" d="M0.155176 0.220441c0,-0.0156085 0.0154299,-0.0310483 0.0310318,-0.0310483l0.0124167 0c0.0156019,0 0.0310351,0.0154398 0.0310351,0.0310483l0 0.01242c0,0.0156118 -0.0154332,0.0310483 -0.0310351,0.0310483l-0.0124167 0c-0.0156019,0 -0.0310318,-0.0154365 -0.0310318,-0.0310483l0 -0.01242zm0.248278 0.00310583c0,-0.0157838 0.0183604,-0.0341542 0.0341376,-0.0341542l0.00931086 0c0.0179404,0 0.0341376,0.0190219 0.0341376,0.03726 0,0.016485 -0.0137463,0.0372567 -0.0279326,0.0372567l-0.0186184 0c-0.0171697,0 -0.0310351,-0.017904 -0.0310351,-0.0341508l0 -0.00621165zm-0.12414 0.00310583c0,-0.0167331 0.0167166,-0.03726 0.0341376,-0.03726l0.00931086 0c0.0181322,0 0.0341376,0.016012 0.0341376,0.0341542l0 0.00621165c0,0.0162469 -0.0138654,0.0341508 -0.0310351,0.0341508l-0.0124134 0c-0.0174211,0 -0.0341376,-0.0205269 -0.0341376,-0.0372567zm-0.21414 0.170767l0.425177 0.00310252 0.00620504 0 0 0.00621165 0.00620834 0.00310252 0.00310252 0.00310583 0.00310252 0.00310583 0.00310583 0.00620834 0.00310252 0.00310583 0.00310252 0.00310583 0.00310252 0.00310252 0.00310583 0.00310583 0.00310252 0.00310583 0.00620834 0.00310252 0.00310252 0.00310583 0.00310252 0.00620834 0.00310583 0.00310583 0.00310252 0.00310583 0.00310252 0.00310583 0.00310252 0.00310252 0.00620834 0.00310583 0.00310252 0.00310583 0.00310583 0.00620834 0.00620504 0 0.00310252 -0.21113 0 -0.235967 -0.508968 0 0 0.369477z"/>
   <path id="_116639272" class="fil5" d="M0.772765 0.319797l-0.0124134 0.00310583 -0.00931086 0.00310252 -0.00931086 0.00310583 -0.00620834 0.00310583 -0.00310252 0.00310583 -0.00620834 0.00310252 -0.00620504 0.00310583 -0.00310252 0.00310583 -0.00620834 0.00310252 -0.00620504 0.00310583 -0.00310583 0.00310583 -0.00310252 0.00310252 -0.00310252 0.00310583 -0.00310583 0.00310583 -0.00310252 0.00310252 -0.00310252 0.00310583 -0.00310252 0.00310583 -0.00310583 0.00310583 -0.00310252 0.00310252 -0.00310252 0.00621165 -0.00310583 0.00620834 -0.00310252 0.00621165 -0.00310252 0.0124167 -0.00310583 0.0155258 -0.00310252 0.01242 0 0.0496767 0.00310252 0.0186283 0.00310583 0.0186283 0.00310252 0.0186316 0.00310252 0.0124167 0.00310583 0.01242 0.00310252 0.0186316 0 0.055885 -0.00310252 0.0186283 -0.00310583 0.00931748 -0.00310252 0.00931417 -0.00310252 0.00620834 -0.00310583 0.00310583 -0.00310252 0.00310252 -0.00310252 0.00310583 -0.00310252 0.00310583 -0.00310583 0.00310252 -0.00310252 0.00310583 -0.00310252 0.00310583 -0.00310583 0.00310583 -0.00310252 0.00310252 -0.00310252 0.00310583 -0.00310252 0.00310583 -0.00310583 0.00310252 -0.00310252 0.00310583 -0.00310252 0.00310583 -0.00310252 0.00620834 -0.00310583 0.00310583 -0.00310252 0.00620834 -0.00310252 0.00310583 -0.00310583 0.00621165 -0.00310252 0.00620834 -0.00310252 0.00620834 -0.00310583 0.00931417 -0.00310252 0.00931417 -0.00310252 0.01242 -0.00310252 0.0217342 0 0.0310483c0.0184563,-0.013528 0.0392214,-0.0507186 0.0674219,-0.0722642 0.0361751,-0.0276349 0.0642102,-0.0222501 0.100164,-0.0395091l0.0122414 -0.00312898 0.00638034 -0.0527593 0 -0.0124167c0,-0.0222601 -0.0185192,-0.0400152 -0.0266955,-0.0602312 -0.0105777,-0.0261498 -0.013098,-0.0380373 -0.0198588,-0.067068 0.018969,-0.0358642 0.0520317,-0.0904956 0.0837944,-0.111777 0.0230605,0.0344551 0.0743678,0.101622 0.117932,0.111777l0 0.0124167 0.00310252 0 0.00310583 -0.0155225 0.00310252 -0.01242 0.00310252 -0.01242 0.00310583 -0.0217342 0 -0.0745133 -0.00310583 -0.0155258 -0.00310252 -0.00931417 -0.00310252 -0.00621165 -0.00310583 -0.00620834 -0.00310252 -0.00620834 -0.00310252 -0.00310583 -0.00310252 -0.00621165 -0.00310583 -0.00310252 -0.00310252 -0.00621165 -0.00310252 -0.00310252 -0.00310252 -0.00310583 -0.00310583 -0.00310583 -0.00620504 -0.00310252 -0.00310583 -0.00310583 -0.00620504 -0.00310583 -0.00620834 -0.00310252 -0.00310252 -0.00310583 -0.00620834 -0.00310583 -0.00931086 -0.00310583 -0.00930755 -0.00310252 -0.0124167 -0.00310583 -0.0217209 -0.00310583 -0.0279326 0 -0.0217242 0.00310583z"/>
   <polygon id="_113102056" class="fil0" points="1.31587,0.419154 1.40277,0.496773 1.41538,0.509474 1.4338,0.496773 1.5207,0.422257 1.5207,0.55887 1.35622,0.565082 1.5238,0.565082 1.5238,0.416048 1.35622,0.416048 "/>
   <polygon id="_113102152" class="fil1" points="1.40277,0.496773 1.31587,0.419154 1.31406,0.560587 "/>
   <polygon id="_116637688" class="fil1" points="1.4338,0.496773 1.5207,0.55887 1.5207,0.422257 "/>
   <polygon id="_113101888" class="fil2" points="1.30967,0.565082 1.35622,0.565082 1.5207,0.55887 1.4338,0.496773 1.41538,0.509474 1.40277,0.496773 1.31406,0.560587 1.31587,0.419154 1.35622,0.416048 1.30967,0.416048 "/>
   <path id="_113101720" class="fil6" d="M0.158278 0.894193c0,-0.0122678 0,0.0122678 0,0zm0.0248268 -0.208024l-0.00310252 0.0372567 -0.00310252 0.0465742 0 0.0341542 -0.00310583 0 0 -0.02484 -0.00310252 -0.0217342 -0.00310252 -0.01242 -0.00310583 -0.00620834 -0.00310252 0 -0.00310252 0.00310583 -0.00310252 0.0217342 0 0.068305 0.00122712 0.0530273 -0.00122712 -0.0126648 -0.00310583 -0.00931417 -0.00310252 -0.01242 -0.00310252 -0.00931417 -0.00310583 -0.00931417 -0.00620504 0 -0.00310252 0.00310583 0 0.0217342 0.00310252 0.0248367 0.00310252 0.0310483 0 0.0186316 0.0081929 0.0125854 0.0104288 0.0714406 0.0713811 -0.00330097 -0.0214431 -2.31531e-005 -0.0126978 -0.173847c-0.00109481,-0.0140672 0.0021367,-0.0407627 0.00446855,-0.054767 0.00192502,-0.0115468 -0.00446855,-0.031131 -0.00446855,-0.0539038l0 -0.0341542 -0.00310252 -0.0217342 -0.00620834 0 -0.00310252 0.01242z"/>
   <path id="_116637928" class="fil7" d="M0.754143 0.738952c0,0.0481122 0.011517,0.0993566 0.0558619,0.0993566l0.00931086 0c0.0561397,0 0.0837944,-0.0508773 0.0837944,-0.108671l0 -0.00310583 -0.0124134 0 0 -0.01242 0 -0.0496767 0.00310252 -0.00310583 0.00310252 -0.00620834 0.00310583 -0.00310583 0.00310252 -0.00620834 0.00310252 -0.00310583 0.00310583 -0.00620834 0.00310252 -0.00621165 0.00310252 -0.00931417 0.00310252 -0.00931417 0.00310583 -0.01242 0.00310252 -0.0124167 0.00310252 -0.0186316 0 -0.01242 0 -0.0124167c-0.0435642,-0.0101543 -0.0948716,-0.0773215 -0.117932,-0.111777 -0.0317628,0.021281 -0.0648254,0.0759125 -0.0837944,0.111777 0.00676071,0.0290307 0.00928109,0.0409182 0.0198588,0.067068 0.00817636,0.020216 0.0266955,0.0379711 0.0266955,0.0602312l0 0.0124167 -0.00638034 0.0527593 -0.0122414 0.00312898z"/>
   <polygon id="_113102320" class="fil0" points="1.31277,0.832097 1.40277,0.906613 1.41538,0.919314 1.4338,0.906613 1.5207,0.832097 1.5207,0.96871 1.5238,0.971816 1.5238,0.825888 1.35622,0.825888 "/>
   <polygon id="_113102176" class="fil1" points="1.40277,0.906613 1.31277,0.832097 1.31413,0.970522 "/>
   <polygon id="_116635912" class="fil1" points="1.4338,0.906613 1.5207,0.96871 1.5207,0.832097 "/>
   <polygon id="_113101744" class="fil2" points="1.30967,0.974918 1.5238,0.974918 1.5238,0.971816 1.5207,0.96871 1.4338,0.906613 1.41538,0.919314 1.40277,0.906613 1.31413,0.970522 1.31277,0.832097 1.35622,0.825888 1.30967,0.825888 "/>
   <polygon id="_113102344" class="fil8" points="1.30656,0.987338 1.30656,0.984236 1.30346,0.984236 1.30346,0.987338 "/>
   <polygon id="_116637832" class="fil9" points="1.29725,0.990444 1.29725,0.99355 1.30036,0.996652 1.30346,0.996652 1.30656,0.99355 1.30656,0.990444 1.30346,0.987338 1.30036,0.987338 "/>
   <path id="_113102392" class="fil10" d="M0.204829 0.717217l-0.00310252 0.0155258 0 0.0186283 -0.00310252 0 0 -0.0217342 -0.00310583 0c0,0.0227727 0.00639357,0.042357 0.00446855,0.0539038 -0.00233185,0.0140043 -0.00556336,0.0406999 -0.00446855,0.054767l0.0126978 0.173847 0.0214431 2.31531e-005 0.00930755 -0.102459 0.00124365 -0.00635057 -0.00789852 -0.065434 0.00665487 -0.00894372 0 -0.00931417 -0.00310252 0 -0.00310252 -0.0186283 -0.00310252 -0.0155258 -0.00310583 -0.0186283 -0.00310252 -0.0155225 -0.00310252 -0.00931417 -0.00310583 -0.0155258 -0.00310252 -0.01242 -0.00620834 0 -0.00310252 0.00310583z"/>
   <polygon id="_115684296" class="fil9" points="1.27242,0.999758 1.27242,0.996652 1.26932,0.996652 1.26932,0.999758 "/>
   <polygon id="_116637232" class="fil8" points="1.29415,1.00286 1.30036,1.00286 1.30036,0.996652 1.29725,0.99355 1.29415,0.99355 "/>
   <polygon id="_115684368" class="fil11" points="1.27553,1.00597 1.27553,1.00286 1.27242,1.00286 1.27242,1.00597 "/>
   <path id="_115684440" class="fil6" d="M0.263797 0.735846l-0.00310583 0.0186316 -0.00310252 0.0155225 -0.0013958 0.0190947 -0.00170672 -0.00667471 -0.00310583 0 0.00620834 0.0900392c0.00506723,0.0574693 -0.020904,0.106045 -0.0217242,0.142825l0.0434485 0c0.0173086,0 0.0217242,-0.102165 0.0212744,-0.12457l0.00665818 -0.00894041 0 -0.00310252 0 -0.102462 -0.00310583 -0.0186283 -0.00310252 -0.00620834 -0.00620504 0 -0.00310583 0.00620834 -0.00310252 0.01242 -0.00310252 0.0186283 -0.00310583 0.0155258 -0.00310252 0.0155225 -0.00310252 0.0186316 -0.00310252 0.0186283 0 0.0186283 -0.0034432 -1.32304e-005 0.0034432 -0.0279293 0 -0.0962508 -0.00310583 -0.0186283 -0.00310252 0 -0.00310252 0.00310252z"/>
   <polygon id="_116637736" class="fil8" points="1.30346,1.00907 1.30967,1.00907 1.30967,1.00597 1.30656,0.999758 1.30346,0.999758 "/>
   <polygon id="_115684536" class="fil12" points="1.21966,0.984236 1.21656,0.990444 1.21656,1.00907 1.21966,1.01528 1.22277,1.02149 1.22587,1.0277 1.22897,1.03701 1.23208,1.04633 1.23518,1.04943 1.23828,1.04943 1.24139,1.04633 1.24449,1.04012 1.24449,1.03391 1.24139,1.02149 1.23828,1.01218 1.23518,1.00597 1.23208,0.999758 1.23208,0.987338 1.23208,0.98113 1.22587,0.98113 "/>
   <path id="_115684608" class="fil12" d="M1.27242 1.04012c0.00551706,-0.00552036 -0.00551706,0.00552036 0,0zm-0.0186217 -0.0838308l-0.00310252 0.00310583 -0.00310252 0.00310583 0 0.0279425 0.00310252 0.00620834 0.00310252 0.00621165 0.00310583 0.00620834 0.00310252 0.00621165 0.00310252 0.00620834 0.00310583 0.00931417 0 0.01242 0 0.00310583 0.0124134 0 0 -0.01242 -0.00310583 -0.00310583 -0.00310252 -0.00620834 -0.00310252 -0.00931417 0 -0.0186316 0 -0.00310252 -0.00310252 -0.0155258 0 -0.0186283 0 -0.00621165 -0.00931086 0 -0.00310583 0.00310583z"/>
   <polygon id="_116637616" class="fil11" points="1.31277,1.05565 1.31277,1.05254 1.30967,1.05254 1.30967,1.05565 "/>
   <path id="_115684680" class="fil13" d="M0.242072 0.779314l-0.00310583 0.0186283 0 0.0217342 0 0.00931417 -0.00665487 0.00894372 0.00789852 0.065434 -0.00124365 0.00635057 -0.00930755 0.102459 -0.0713811 0.00330097 -0.0104288 -0.0714406 -0.0081929 -0.0125854 0 -0.00621165 -0.00310252 -0.00620834 -0.00310252 -0.00931417 -0.00310583 -0.00621165 -0.00310252 -0.00620834 -0.00620834 0 0 0.0403625 0.00310583 0.0217342 0.00310252 0.0155225 0.00310252 0.0155258 0.00310583 0.01242 0.00310252 0.00620834 -0.0186217 0.00310583 -0.00310252 0.01242 -0.00310252 0.0124167 -0.00310583 0.00931748 -0.00310252 0.0124167 0 0.01242 0.0155159 0 0 0.01242 0.00310583 0 0.00310252 -0.01242 0.195518 0 0 0.0155258 0.00310252 -0.0155258 0.0155192 0c-0.00194486,-0.0233714 -0.00568244,-0.0353978 -0.00608927,-0.0684241 -0.000324144,-0.0265202 -0.0125325,-0.0385466 -0.0125325,-0.0650834l0 -0.00310583c0,-0.0179536 0.00861627,-0.0457836 0.0124134,-0.0620967l-0.0155159 0 -0.00620834 0.00310583 -0.00620504 0.00310583 0 0.00310252 -0.00665818 0.00894041c0.000449832,0.0224056 -0.0039658,0.12457 -0.0212744,0.12457l-0.0434485 0c0.000820282,-0.0367804 0.0267915,-0.0853556 0.0217242,-0.142825l-0.00620834 -0.0900392 0 -0.0155258 -0.00620504 0 -0.00310252 0.01242z"/>
   <path id="_115684752" class="fil14" d="M0.372418 0.797942l0 0.01242 -0.00310583 0.00310583 0 0.02484 0 0.00310252 -0.00310252 0.00310583 -0.00620504 -0.00310583 -0.00620834 0 0 0.00621165 0.00310252 0.00310252 0.00310583 0.00310583 0.00310252 0.0186283 0 0.00621165 -0.00310252 -0.00310583 -0.00931086 -0.00310583 -0.0155192 0c-0.00379711,0.016313 -0.0124134,0.0441431 -0.0124134,0.0620967l0 0.00310583c0,0.0265368 0.0122083,0.0385632 0.0125325,0.0650834 0.000406833,0.0330263 0.00414441,0.0450527 0.00608927,0.0684241l-0.0155192 0 -0.00310252 0.0155258 0.00067144 0.013495 0.0117419 -0.00728662 0.00310583 0 0.00310252 -0.00620834 0.00310252 -0.00310583 0.00310252 -0.00620834 0.00310583 -0.00621165 0.00310252 -0.00310252 0.00310252 -0.00310583 0.00310583 -0.00310583 0.00310252 -0.00620834 0.00310252 -0.00310583 0.00310252 -0.00620834 0.00310583 -0.00310583 0.00310252 -0.00310583 0.00310252 -0.00310583 0.00310583 -0.00310252 0.00310252 -0.00310583 0.00310252 0.00310583 0.00310252 0 0.00310583 -0.0186283 0.00310252 -0.00310583 0.00310252 -0.00620834 0.00310583 -0.00931748 0.00310252 -0.00620834 0 -0.02484 -0.00310252 -0.00931417 0.00620504 0 0.00310252 -0.00310583 0.00310583 -0.00310252 0 -0.00310583 -0.00931086 0 -0.00931086 0.00310583 0 -0.00931417 -0.00310252 -0.00621165 -0.00310583 -0.00620834 -0.00310252 -0.00620834 -0.00310252 -0.00621165 0.00620504 0 0.00310583 -0.00310583 0.00620504 -0.00310252 0.00310583 -0.00310583 0.00310252 -0.00310583 0.00310252 -0.00310252 0.00310252 -0.00621165 0.00310583 -0.00620834 0 -0.0186316 -0.00310583 -0.00310252 -0.00310252 -0.00310583 -0.00620504 0 0 -0.00620834 0.00930755 -0.00310583 0 -0.00310583 -0.0124134 0 0 -0.00620834 -0.00310252 -0.00620834 0 -0.00310583 0.00310252 -0.00310583 0.00310583 -0.00310583 0.00310252 -0.00310252 0 -0.01242 0.00310252 -0.00310583 0 -0.00620834 -0.00931086 0 -0.00931086 0.00310252 0 -0.00931417 -0.00620504 0 -0.00170341 0.00964493 -0.00139911 -0.00964493 -0.00310583 -0.00310252 -0.00310252 -0.00310583 -0.00310252 0 0 0.00620834z"/>
   <path id="_116635792" class="fil14" d="M1.3407 1.10222c0.0138224,0 0.0279326,-0.00413779 0.0279326,0.00931417l0 0.0186316c0,0.0194453 -0.018023,0.0429689 -0.040346,0.0434683l0 -0.00621165 -0.00310252 0.00931417 0.0194453 0.000377065 -0.00703193 0.0151488 0.00620834 0 0.00620504 -0.00310583 0.00620834 -0.00310583 0.00310252 -0.00310252 0.00310583 -0.00310583 0.00310252 -0.00310583 0.00310252 -0.00310252 0.00310252 -0.00310583 0.00310583 -0.00310583 0.00310252 -0.00620834 0.00310252 -0.00310583 0.00310583 -0.00931417 0.00310252 -0.01242 0 -0.0341542 -0.00310252 -0.00620834 -0.00310583 -0.00310583 -0.00310252 -0.00310252 -0.00310252 -0.00310583 -0.00620834 -0.00310583 -0.0279326 0 0 0.0186283z"/>
   <path id="_115684824" class="fil3" d="M1.32828 1.16742l0 0.00621165c0.0223229,-0.000499446 0.040346,-0.024023 0.040346,-0.0434683l0 -0.0186316c0,-0.013452 -0.0141102,-0.00931417 -0.0279326,-0.00931417l-0.00480262 0.00326128 -0.00761076 0.0619412z"/>
   <path id="_115684896" class="fil15" d="M1.30967 1.2202c0.0232656,-0.00193825 0.00560305,-0.00921163 0.0155159,-0.02484l0.00310252 0 0.00931086 -0.00310252 0.00703193 -0.0151488 -0.0194453 -0.000377065 0.00310252 -0.00931417 0.00761076 -0.0619412 0.00480262 -0.00326128 0 -0.0186283 0.00310583 -0.00620834 0 -0.0155258 -0.0931053 0 0.00140903 0.040379 -0.00140903 0.0310318 0.00620834 0c0,0.0149635 0.00859973,0.0417715 0.0138257,0.054476 0.00538145,0.0130782 0.0282865,0.0232027 0.0389336,0.0324607z"/>
   <path id="_116635840" class="fil16" d="M0.754143 0.738952c-0.0359535,0.017259 -0.0639886,0.0118742 -0.100164,0.0395091 -0.0282005,0.0215456 -0.0489655,0.0587362 -0.0674219,0.0722642l-0.00310583 0 -0.00310252 0.00621165 -0.00310252 0.00310252 -0.00310583 0.00621165 -0.00310252 0.00620834 -0.00310252 0.00310583 0 0.00620834 0.373116 -7.60745e-005 0.0334397 0.307457 0.0403427 0 0 0.01242c0.0299072,-0.0069724 0.117932,-0.0362181 0.117932,-0.0683083l0 -0.00931417c0,-0.0512147 -0.0324574,-0.133504 -0.0441332,-0.179397 -0.0143516,-0.0564109 -0.032292,-0.121775 -0.0613822,-0.16524l0 -0.00310583 -0.00310583 -0.00310252 -0.00310252 -0.00310583 -0.00620834 -0.00310583 -0.00310252 -0.00310252 -0.00620834 -0.00310583 -0.00620504 -0.00310583 -0.00310252 -0.00310252 -0.00620834 -0.00310583 -0.00620834 -0.00310583 -0.00620504 -0.00310583 -0.00931086 -0.00310252 -0.00931086 -0.00310583 -0.0124134 -0.00310583 -0.0124134 -0.00310252 -0.00931086 -0.00310583 -0.0217242 0c0,0.0577935 -0.0276547,0.108671 -0.0837944,0.108671l-0.00931086 0c-0.0443448,0 -0.0558619,-0.0512445 -0.0558619,-0.0993566z"/>
   <path id="_115684992" class="fil17" d="M1.01483 1.20157l0 0.0186283 0.114363 -0.000155457 0.00356889 -0.00605289 0.00310252 -0.0155258 0.00310583 -0.0341542 0.00310252 -0.0217342 0.00310252 -0.0310483 0.00310583 -0.0341508 0.00310252 -0.0341542 0.00310252 -0.0372567 0.00310583 -0.0310516 0.00310252 -0.0341508 0.00310252 -0.0341542 0.00310252 -0.0310483 0.00310583 -0.02484 0.00310252 -0.0341508 0 -0.02484 -0.0279326 -0.00310583 -0.0279293 -0.00310583 -0.0248268 -0.00310252 -0.0465543 -0.00310583 -0.0186184 0c0.0290902,0.043465 0.0470306,0.10883 0.0613822,0.16524 0.0116758,0.0458928 0.0441332,0.128182 0.0441332,0.179397l0 0.00931417c0,0.0320902 -0.0880248,0.0613359 -0.117932,0.0683083z"/>
   <path id="_115685064" class="fil18" d="M0.220348 1.2202l0.093102 0 0.00620834 -0.0962508c-0.0366315,0.000816974 -0.0923909,0.0665255 -0.0993103,0.0962508z"/>
   <polygon id="_116635720" class="fil11" points="0.319659,1.12395 0.31345,1.2202 0.499661,1.2202 0.496555,1.21089 0.496555,1.2171 0.359647,1.21708 0.363107,1.19226 0.36621,1.16742 0.369312,1.14258 0.369312,1.12706 0.36621,1.11774 0.319659,1.11774 "/>
   <polygon id="_115685160" class="fil19" points="0.462417,0.906613 0.46552,0.934556 0.468626,0.962502 0.471728,0.99355 0.474831,1.02149 0.477937,1.04323 0.481039,1.07427 0.484142,1.10222 0.487244,1.13327 0.49035,1.16431 0.493452,1.19536 0.496555,1.21089 0.499661,1.2202 1.01483,1.2202 1.01483,1.20157 1.01483,1.18915 0.974492,1.18915 0.941052,0.881697 0.567936,0.881773 0.462417,0.881773 "/>
   <path id="_115685232" class="fil15" d="M1.20104 1.06807l0.00310252 0.0248367 0.00310252 0.0217342 0.00310252 0.02484 0.00310583 0.01242 0.00310252 0.0248367 0.00310252 0.02484 0.00310583 0.00931417 0.00310252 0.00931417 0.0775861 0 0.00620834 0c-0.0106471,-0.00925794 -0.0335522,-0.0193825 -0.0389336,-0.0324607 -0.00522599,-0.0127044 -0.0138257,-0.0395125 -0.0138257,-0.054476l-0.00620834 0 0.00140903 -0.0310318 -0.00140903 -0.040379 0.0931053 0 0 -0.00310583 -0.142759 0 0 0.00931748z"/>
   <path id="_116635648" class="fil20" d="M0.12414 1.08359l0 0.0527825 0.00310252 0.0465742 0.00310252 0.0341508 -0.127243 0 0 0.00310583 0.217246 0c0.00691947,-0.0297253 0.0626788,-0.0954338 0.0993103,-0.0962508l0 -0.00620834 0.046551 0 0.00310252 0.00931417 0 -0.00621165 0.00931086 0 0.00310583 -0.00310252 0.00310252 -0.01242 0 -0.00620834 -0.00310252 -0.00310583 -0.0465543 -0.00310583 -0.0117419 0.00728662 -0.00067144 -0.013495 0 -0.0155258 -0.195518 0 -0.00310252 0.01242z"/>
   <path id="_115685304" class="fil21" d="M1.30967 1.2202l-0.00620834 0 -0.0775861 0 -0.00310252 -0.00931417 -3.30759e-006 0.00637703 -0.0899995 -0.0032712 -0.00356889 0.00605289 -0.114363 0.000155457 -0.515173 0 -0.186211 0 -0.093102 0 -0.217246 0 -0.00310252 0 0 0.0465742 0.00310252 0 0.626904 0.00310252 0 0.0341542 0.00310252 0 0 -0.0372567 0.046551 0 0.335174 0 0.111727 0 0.369312 0 0 -0.04968 -0.170691 0 0 -0.0217342c-0.00991284,0.0156284 0.00774968,0.0229017 -0.0155159,0.02484z"/>
   <path id="_115685376" class="fil17" d="M0.633109 1.30403l0.00310252 0.0310483c0.0314353,-0.00732631 0.0434485,-0.0288157 0.0434485,-0.068305l-0.046551 0 0 0.0372567z"/>
   <path id="_116635552" class="fil5" d="M0.633109 1.30403l-0.00310252 0.0310483 -0.00931086 0.00310583 -0.00310252 0.00310583 -0.00620834 0.00310252 -0.00931086 0.00310583 -0.00620834 0.00310583 -0.00930755 0.00310252 -0.00620834 0.00310583 -0.00620834 0.00310583 -0.00620504 0.00310252 -0.00620834 0.00310583 -0.00310252 0.00310583 -0.00931086 0.00310252 -0.00310252 0.00310583 -0.00620834 0.00310583 -0.00620504 0.00310583 -0.00310583 0.00310252 -0.00620504 0.00310583 -0.00310583 0.00310583 -0.00310252 0.00310252 -0.00310252 0.00310583 -0.00620834 0.00310583 -0.00310252 0.00310583 -0.00310252 0.00310252 -0.00310252 0.00310583 -0.00310583 0.00310583 -0.00310252 0.00310252 -0.00310252 0.00310583 -0.00310583 0.00310583 -0.00310252 0.00620834 -0.00310252 0.00310583 -0.00310252 0.00310583 -0.00310583 0.00310252 -0.00310252 0.00621165 -0.00310252 0.00620834 -0.00310583 0.00931417 -0.00310252 0.00931417 -0.00310252 0.0155258 0 0.0217342 0.00310252 0.0217342 0.00310252 0.0155225 0.00310583 0.01242 0.00310252 0.00931417 0.00310252 0.00931417 0.00310583 0.00621165 0.00310252 0c0.00110804,-0.0498321 0.0898672,-0.0672664 0.139656,-0.0714108 0.116735,0 0.15928,0.020689 0.21414,0.0838308 0.0650206,0 0.124425,0.00879488 0.161959,-0.0211553 0.0338466,-0.0270065 0.0583855,-0.0685002 0.0583855,-0.127878l0 -0.0155258c0,-0.0556832 -0.0221575,-0.123529 -0.040346,-0.16145l-0.335174 0c0,0.0394893 -0.0120132,0.0609787 -0.0434485,0.068305l-0.00310252 -0.0310483z"/>
   <path id="_115685448" class="fil17" d="M0.834835 1.59279l0.00620504 0.0341508 0.0962078 0 0.0248268 0 0.0993136 0 0.0217242 0 0.0124134 0 0.00310252 -0.0279425 0.00310252 -0.03726 0.00310583 -0.0310483 0.00310252 -0.0372567 0.00310252 -0.0341542 0.00310583 -0.0341508 0.00310252 -0.0186316 0.00310252 -0.0341542 0.00310252 -0.0372567 0.00310583 -0.0341542 0 -0.0310483 0 -0.00310252 -0.111727 0c0.0181884,0.0379215 0.040346,0.105767 0.040346,0.16145l0 0.0155258c0,0.0593778 -0.024539,0.100872 -0.0583855,0.127878 -0.0375345,0.0299502 -0.0969388,0.0211553 -0.161959,0.0211553z"/>
   <path id="_115685544" class="fil22" d="M0.481039 1.58037l0 0.00931417 0.00310252 0.00620834 0.00310252 0.00931417 0.00310583 0.00931417 0.00310252 0.00931417 0.00310252 0.00621165 0.00310583 0.00620834 0.00310252 0.00621165 0.00310252 0 0.0217242 0.0403625 0 0.00620834 0.00310252 0.00621165 0.00310583 0.00620834 0.00310252 0.00620834 0.00310252 0.00621165 0.00310583 0.00620834 0.00310252 0.00621165 0.00310252 0.00620834 0.00310252 0.00621165 0.00310583 0.00310252 0.00310252 0.00931417 0.00310252 0.00621165 0.00310583 0.00620834 0.00310252 0.00621165 0.00310252 0.00931417 0.00310252 0.00620834 0.00310583 0.00620834 0.00310252 0.00621165 0.00310252 0.00620834 0.00310583 0.00621165 0.00310252 0.00620834 0.00310252 0.00621165 0.00310252 0.00620834 0.00310583 0.00620834 0.00310252 0.00621165 0.00310252 0.00620834 0.00310583 0.00621165 0.00310252 0.00620834 0.00310252 0.00620834 0.00310583 0.00310583 0.00310252 0.00931417 0.00310252 0.00621165 0.00310252 0.00620834 0.00310583 0.00620834 0.00310252 0.00310583 0.00310252 0.00621165 0.00310252 0.00620834 0.00310583 0.00620834 0.00310252 0.00621165 0.00310252 0.00620834 0.00310583 0.00621165 0.00310252 0.00620834 0.00310252 0.00620834 0.00310252 0.00310583 0.00310583 0.00620834 0.00310252 0.00621165 0.00310252 0.00620834 0.00310583 0.00621165 0.00310252 0.00620834 0.00310252 0.00621165 0.00310583 0.00620834 0.00310252 0.00310583 0.00310252 0.00620834 0.00310252 0.00620834 0.00310583 0.00621165 0.00310252 0.00620834 0.00310252 0.00621165 0.00310583 0.00620834 0.00310252 0.00620834 0.00310252 0.00621165 0.00310252 0.00310583 0.00310583 0.00620834 0.00310252 0.00620834 0.00310252 0.00621165 0.00310252 0.00620834 0.00310583 0.00621165 0.00310252 0.0124167 0.00310252 0c0,-0.0541088 -0.00833843,-0.105644 -0.0168191,-0.153938 -0.00918848,-0.0523327 -0.0126218,-0.10065 -0.0217044,-0.152159 -0.0111036,-0.0629963 -0.0188996,-0.0789025 -0.0432103,-0.127534 -0.0195644,-0.0391288 -0.0393008,-0.0774273 -0.0393008,-0.134553l0.000155457 -0.0150594 0.00605289 -0.00356889c-0.0497891,0.00414441 -0.138548,0.0215787 -0.139656,0.0714108z"/>
   <polygon id="_116647864" class="fil23" points="1.06139,1.64556 1.06449,1.6673 1.06759,1.68903 1.0707,1.71077 1.0738,1.7325 1.0769,1.75424 1.08001,1.77597 1.08311,1.78839 1.08622,1.81012 1.08932,1.83186 1.09242,1.85359 1.09553,1.87843 1.09863,1.90016 1.10173,1.91879 1.10484,1.94053 1.10794,1.95295 1.11104,1.97468 1.11415,1.99952 1.11725,2.02125 1.12035,2.04298 1.12346,2.06162 1.12656,2.08645 1.12966,2.10508 1.13277,2.12682 1.13587,2.13924 1.13897,2.16097 1.14208,2.18581 1.14518,2.20754 1.14829,2.22928 1.15139,2.24791 1.15449,2.26964 1.1576,2.29137 1.17311,2.29137 1.18242,2.28827 1.18242,2.26964 1.17932,2.24791 1.17621,2.22617 1.17311,2.20444 1.17001,2.1827 1.1669,2.16097 1.1638,2.14855 1.1607,2.12682 1.1576,2.10508 1.15449,2.08335 1.15139,2.06162 1.14829,2.03988 1.14518,2.01815 1.14208,1.99641 1.13897,1.98399 1.13587,1.96226 1.13277,1.94053 1.12966,1.91879 1.12656,1.89706 1.12346,1.87532 1.12035,1.85359 1.11725,1.83186 1.11415,1.81323 1.11104,1.7977 1.10794,1.77286 1.10484,1.75113 1.10173,1.7325 1.09863,1.71077 1.09553,1.68903 1.09242,1.6673 1.08932,1.64556 1.08622,1.63315 1.08311,1.62694 1.06139,1.62694 "/>
   <path id="_115685616" class="fil22" d="M0.797592 2.19512c0.0197397,0.0104487 0.0310351,0.035712 0.0310351,0.0652025l0 0.00310252c0,0.0107067 -0.00229547,0.0120231 -0.00310252,0.0217342 0.0136967,-0.00917525 0.0372401,-0.0246945 0.0372401,-0.0465708l0 -0.0155258c0,-0.0345445 -0.0283328,-0.107735 -0.046551,-0.121088l-0.0186217 0.093145z"/>
   <polygon id="_115685688" class="fil23" points="0.502763,1.66109 0.499661,1.67972 0.496555,1.70145 0.493452,1.72319 0.49035,1.74492 0.487244,1.76666 0.484142,1.78839 0.481039,1.81012 0.477937,1.83186 0.474831,1.84428 0.471728,1.86601 0.468626,1.88774 0.46552,1.90948 0.462417,1.93121 0.459315,1.95295 0.456209,1.97468 0.453107,1.99641 0.450004,2.01194 0.446901,2.03057 0.443796,2.0523 0.440693,2.07404 0.437591,2.09577 0.434488,2.1175 0.431382,2.13924 0.42828,2.16097 0.425177,2.1827 0.422071,2.19512 0.418969,2.21686 0.415866,2.23859 0.412761,2.26033 0.409658,2.27895 0.409658,2.28827 0.418969,2.29137 0.434488,2.29137 0.437591,2.28206 0.440693,2.26343 0.443796,2.23859 0.446901,2.21996 0.450004,2.19823 0.453107,2.17339 0.456209,2.15166 0.459315,2.13924 0.462417,2.12061 0.46552,2.09887 0.468626,2.07404 0.471728,2.0523 0.474831,2.03057 0.477937,2.01194 0.481039,1.99021 0.484142,1.97468 0.487244,1.95295 0.49035,1.93121 0.493452,1.91258 0.496555,1.89085 0.499661,1.86601 0.502763,1.84428 0.505866,1.82254 0.508968,1.80391 0.512074,1.78839 0.515177,1.76666 0.518279,1.74492 0.521382,1.72629 0.524488,1.70456 0.52759,1.68282 0.505866,1.64246 "/>
   <polygon id="_116647720" class="fil23" points="0.937248,1.64246 0.940351,1.6642 0.943456,1.68593 0.946559,1.70766 0.949662,1.72008 0.952767,1.74182 0.95587,1.76355 0.958972,1.78528 0.962075,1.80702 0.965181,1.82875 0.968283,1.85049 0.971386,1.87222 0.974492,1.89395 0.977594,1.90637 0.980697,1.92811 0.983799,1.94984 0.986905,1.97157 0.990007,1.99331 0.99311,2.01504 0.996216,2.03678 0.999318,2.05851 1.00242,2.07093 1.00552,2.09266 1.00863,2.1144 1.01173,2.13613 1.01483,2.15786 1.01794,2.1796 1.02104,2.20133 1.02415,2.22307 1.02725,2.24169 1.03035,2.25722 1.03346,2.27895 1.03656,2.29137 1.05208,2.29137 1.05828,2.28827 1.06139,2.28516 1.06139,2.28206 1.05828,2.26343 1.05518,2.2448 1.05208,2.22307 1.04897,2.20133 1.04587,2.1765 1.04277,2.15476 1.03966,2.13303 1.03656,2.1144 1.03346,2.10198 1.03035,2.07714 1.02725,2.0554 1.02415,2.03367 1.02104,2.01194 1.01794,1.99021 1.01483,1.96847 1.01173,1.94674 1.00863,1.93432 1.00552,1.91258 1.00242,1.89085 0.999318,1.86911 0.996216,1.84738 0.99311,1.82565 0.990007,1.80391 0.986905,1.78218 0.983799,1.76045 0.980697,1.74803 0.977594,1.72629 0.974492,1.70456 0.971386,1.68282 0.968283,1.66109 0.965181,1.63936 0.962075,1.62694 0.937248,1.62694 "/>
   <path id="_115685784" class="fil7" d="M0.735522 2.09577l-0.00310252 0.130405 -0.00310252 0.01242 -0.00310583 0.01242 -0.00310252 0.00931417 -0.00310252 0.00931417 -0.00310252 0.00931417 -0.00310583 0.00620834 -0.00310252 0.00310583 -0.00310252 0.00620834 -0.00310252 0.00621165 -0.00310583 0.00310583 -0.00310252 0.00620834 -0.00310252 0.00620834 -0.00310583 0.00621165 -0.00310252 0.00310252 -0.00310252 0.00310583 -0.00310252 0.00310583 -0.00310583 0.00620834 -0.00310252 0.00310583 -0.00310252 0.00620834 -0.00310583 0.00310583 -0.00310252 0.00310583 0 0.00620834 -0.00310252 0.0186283c0.0149338,0.00348289 0.0194486,0.00931748 0.040346,0.00931748l0.00620504 0c0.0547571,0 0.0899995,-0.0970645 0.0899995,-0.152139l0 -0.0186283c0,-0.0107034 -0.00229547,-0.0120231 -0.00310252,-0.0217342l0.0186217 -0.093145 0.00620834 -0.0341542 0.00310252 -0.00310583 0.00310252 -0.0186283 0.00310252 -0.0186283 0.00310583 -0.0186283 0.00310252 -0.0155258 0.00310252 -0.0217342 0.00310252 -0.0186283 0.00310583 -0.0217342 0.00310252 -0.0217342 0.00310252 -0.0155225 0.00310583 -0.0217342 0.00310252 -0.0310483 0 -0.080725 -0.00310252 -0.0403658 -0.00310583 -0.0279425 -0.00310252 -0.0155225 -0.00310252 -0.0279458 -0.00310583 -0.0186283 -0.00310252 -0.00310583 -0.00620504 -0.0341508c-0.0548597,-0.0631419 -0.0974052,-0.0838308 -0.21414,-0.0838308l-0.00605289 0.00356889 -0.000155457 0.0150594c0,0.0571254 0.0197364,0.0954239 0.0393008,0.134553 0.0243108,0.0486315 0.0321068,0.0645377 0.0432103,0.127534 0.00908264,0.0515091 0.0125159,0.0998263 0.0217044,0.152159 0.00848066,0.0482941 0.0168191,0.0998296 0.0168191,0.153938z"/>
   <polygon id="_115685880" class="fil18" points="0.0527593,2.32242 0.0900028,2.32242 0.0900028,1.26988 0.630006,1.26988 0.00310252,1.26678 0.00310252,1.26988 0.0527593,1.26988 "/>
   <path id="_116647552" class="fil17" d="M0.890697 2.18581c0.00551706,-0.00552036 -0.00551706,0.00552036 0,0zm-0.0744836 -0.0838308c0.0182182,0.0133527 0.046551,0.086543 0.046551,0.121088l0 0.0155258c0,0.0218764 -0.0235434,0.0373956 -0.0372401,0.0465708l-0.00620834 0.0807283 0.00620834 0 0.00620504 -0.00310583 0.00620834 -0.00310583 0.00620504 -0.00310252 0.00310583 -0.00310583 0.00310252 -0.00310583 0.00620834 -0.00310583 0.00620504 -0.00310252 0.00310252 -0.00310583 0.00310583 -0.00310583 0.00310252 -0.00310252 0.00620834 -0.00310583 0.00310252 -0.00310583 0.00310252 -0.00310583 0.00310583 -0.00310252 0.00310252 -0.00310583 0.00310252 -0.00310583 0.00310252 -0.00310252 0.00310583 -0.00310583 0.00310252 -0.00620834 0.00310252 -0.00310583 0.00310583 -0.00310583 0.00310252 -0.00620834 0.00310252 -0.00931417 0 -0.0279458 -0.00310252 -0.01242 -0.00310252 -0.0124167 -0.00310583 -0.00931417 -0.00310252 -0.00621165 -0.00310252 -0.00931417 -0.00310583 -0.00620834 -0.00310252 -0.00621165 0.00620834 0 0 0.00621165 0.00310252 0.00620834 0.00931086 0 0.00620504 -0.00310583 0 -0.00931417 -0.00310252 -0.00310252 -0.00310252 -0.00621165 -0.00310252 -0.00310583 -0.00310583 -0.00620834 -0.00310252 -0.00310583 -0.00310252 -0.00310252 -0.00310583 -0.00621165 -0.00310252 -0.00620834 -0.00310252 -0.00310583 -0.00310252 -0.00620834 -0.00310583 -0.00310583 -0.00310252 -0.00310583 -0.00310252 -0.00620834 -0.00310583 -0.00310583 -0.00310252 -0.00620834 -0.00310252 -0.00310583 -0.00310583 -0.00620834 -0.00310252 -0.00621165 -0.00310252 -0.00620834 -0.00310252 -0.00310583 -0.00310583 -0.00310583 -0.00310252 -0.00310252 -0.00310252 -0.00310583 -0.00310583 -0.00310583 -0.00620504 -0.00310252 -0.00310252 -0.00310583 -0.00310583 -0.00310583 -0.00620504 -0.00310252 -0.00310252 -0.00621165 -0.00620834 0.0341542z"/>
   <polygon id="_115685952" class="fil18" points="1.45863,2.32242 1.49587,2.32242 1.49587,1.26678 1.12656,1.26678 1.12656,1.26988 1.45863,1.26988 "/>
   <path id="_115686024" class="fil19" d="M0.667246 2.35968l-0.00310252 0 -0.00310583 0.00310583 -0.00310252 0.00310583 -0.00310252 0.00310252 -0.00310252 0.00621165 -0.00310583 0.00310252 -0.00310252 0.00310583 -0.00310252 0.00621165 -0.00310583 0.00310252 -0.00310252 0.00621165 -0.00310252 0.00620834 -0.00310252 0.00310583 -0.00310583 0.00310252 -0.00310252 0.00621165 -0.00310252 0.00931417 0 0.01242 0.00310252 0.00310583 0.00620834 0.00310252 0.00930755 0.00310583 0.0124167 0.00310583 0.0279293 0.00310252 0.0279326 0 0.0279293 -0.00310252 0.0124167 -0.00310583 0.00930755 -0.00310583 0.00310583 -0.00310252 0.00310252 -0.00310583 0.00310252 -0.00310583 0.00310583 -0.00310583 0.00310252 -0.00310252 0.00310252 -0.00621165 0.00310252 -0.00310252 0.00310583 -0.00621165 0.00310252 -0.00620834 0.00310252 -0.00931417 0.00310583 -0.00621165 0.00310252 -0.00931417 0.00310252 -0.00931417 0.00310252 -0.00620834 0.00310583 0.00931417 0.0155159 0 0 -0.00931417 0.00620834 -0.0807283c0.000807052,-0.00971108 0.00310252,-0.0110275 0.00310252,-0.0217342l0 -0.00310252c0,-0.0294905 -0.0112954,-0.0547538 -0.0310351,-0.0652025 0.000807052,0.00971108 0.00310252,0.0110308 0.00310252,0.0217342l0 0.0186283c0,0.0550747 -0.0352424,0.152139 -0.0899995,0.152139l-0.00620504 0c-0.0208973,0 -0.0254122,-0.00583459 -0.040346,-0.00931748l0.00310252 -0.0186283z"/>
  </g>
 </g>
</svg>
