<?xml version="1.0" encoding="UTF-8"?>
<!DOCTYPE svg PUBLIC "-//W3C//DTD SVG 1.1//EN" "http://www.w3.org/Graphics/SVG/1.1/DTD/svg11.dtd">
<!-- Creator: CorelDRAW -->
<svg xmlns="http://www.w3.org/2000/svg" xml:space="preserve" width="7.56808in" height="5.61551in" style="shape-rendering:geometricPrecision; text-rendering:geometricPrecision; image-rendering:optimizeQuality; fill-rule:evenodd; clip-rule:evenodd"
viewBox="0 0 7.65585 5.68064"
 xmlns:xlink="http://www.w3.org/1999/xlink">
 <defs>
  <style type="text/css">
   <![CDATA[
    .fil2 {fill:#4C454A}
    .fil0 {fill:#535063}
    .fil11 {fill:#5EA993}
    .fil3 {fill:#817FDB}
    .fil4 {fill:#906169}
    .fil8 {fill:#9192EA}
    .fil10 {fill:#9998A7}
    .fil9 {fill:#B4B2C5}
    .fil12 {fill:#C7C6CA}
    .fil7 {fill:#D48F9C}
    .fil13 {fill:#E2E5F2}
    .fil6 {fill:#E9D395}
    .fil1 {fill:#EDBCC3}
    .fil5 {fill:#F1F4F7}
   ]]>
  </style>
 </defs>
 <g id="Layer_x0020_1">
  <metadata id="CorelCorpID_0Corel-Layer"/>
  <g id="_113199784">
   <path id="_113192896" class="fil0" d="M1.27927 1.87375l0.0263772 0.0725761c0.0251466,-0.00671876 0.0461591,-0.027807 0.0461591,-0.0593816l0.00146562 -0.0200129 -0.00806092 -0.0591585c0.0285039,0.0150903 0.0637386,0.0395837 0.105509,0.0395837l0.065941 0c0.0297545,0 0.0519619,-0.0234898 0.065941,-0.0395837l0 -0.0725761c-0.00773036,0.00205107 -0.0179738,0.00659928 -0.0197819,0.00659928 -0.0383252,0 -0.071011,-0.0329884 -0.131882,-0.0329884l-0.0131906 0c-0.0963128,0 -0.138477,0.0645232 -0.138477,0.164942z"/>
   <path id="_114010264" class="fil0" d="M1.5892 2.0387l0.0593457 0.00659928c0,-0.0647422 0.0329725,-0.134853 0.0329725,-0.191335l-0.000227012 -0.0184796 -0.0854959 -0.0145089c-0.0230756,0.00888533 0,0.0305829 0,0.0725761l0.00357245 0.0270104 -0.0230278 0.110551 0.01286 0.00758698z"/>
   <path id="_115065880" class="fil1" d="M0.560509 1.95952c-0.0229083,0 -0.0100642,-0.0131946 -0.0329725,-0.0131946l-0.0131866 0c-0.0153771,0 -0.0329725,0.0176034 -0.0329725,0.0329884l0 0.0395837c0,0.0527703 0.124904,0.143794 0.165647,0.166101l0.0453666 -0.0275481c-0.00483894,-0.0207816 -0.0197819,-0.0387195 -0.0197819,-0.0527823 0,-0.0202917 0.0461591,-0.0863124 0.0461591,-0.125354 0,-0.0199492 -0.00776222,-0.0182446 -0.0240633,-0.0184039l-0.0352824 0.0513923c-0.0206501,-0.0151381 -0.0812783,-0.125358 -0.0923222,-0.125358 -0.0559724,0 0.0365569,0.0725761 -0.00659131,0.0725761z"/>
   <path id="_112986328" class="fil1" d="M1.27927 1.87375l-0.0261621 0.000139393 -0.0210564 0.0321521 -0.00483097 0.00456414 0.0521729 0.0795538 0.00647183 -0.00424951 0.0329685 0 -0.00579478 0.00440085 0.0849264 0.107759 0.000685019 0.0518862 0.065256 0.0470831c0.0141225,-0.0210962 0.0329725,-0.0262537 0.0329725,-0.0593816l0 -0.0329884c0.0362821,-0.0084552 0.063189,-0.0309613 0.0725363,-0.0659769l0.0197819 0 -0.01286 -0.00758698 0.0230278 -0.110551 -0.00357245 -0.0270104c0,-0.0419932 -0.0230756,-0.0636908 0,-0.0725761l-0.0131906 -0.0131946c-0.0139792,0.016094 -0.0361865,0.0395837 -0.065941,0.0395837l-0.065941 0c-0.0417702,0 -0.0770049,-0.0244934 -0.105509,-0.0395837l0.00806092 0.0591585 -0.00146562 0.0200129c0,0.0315746 -0.0210126,0.0526628 -0.0461591,0.0593816l-0.0263772 -0.0725761z"/>
   <path id="_113199088" class="fil0" d="M3.62021 2.17725c0.0389505,0.0247284 0.155025,-0.0371065 0.184636,-0.0527823l0.00364812 0.0617274 0.042511 -0.0749219 0.00996463 0.00117887 0.0164126 0.0384049c0.0299855,-0.0143934 0.065941,0.00154129 0.065941,0.0395877 0,0.0218131 -0.0551082,0.0481265 -0.0725363,0.0527823l0 0.0329884c0,0.0286115 0.0104943,0.0203674 0.0131906,0.0527823l0.00659131 0.046183c-0.0143615,0.0214586 -0.0395638,0.0369552 -0.0395638,0.0725761 0,0.021598 0.0247722,0.046183 0.0527544,0.046183l0.0131866 0c0.0249275,0 0.0439846,-0.0160979 0.0593497,-0.0263892 0.0682271,0 0.0817642,0.00936723 0.125287,-0.0197939l0.0065953 -0.00659928c0.0274485,-0.0572389 -0.0197819,-0.0814575 -0.0197819,-0.118759l0 -0.0065953c0,-0.0176472 0.00951857,-0.0195151 0.0197819,-0.0263931 0.00956637,-0.0142898 0.0197819,-0.0219604 0.0197819,-0.046183l0 -0.0131946c0,-0.0352904 -0.060433,-0.0476367 -0.0701348,-0.081573 -0.0145367,-0.0508427 -0.0162134,-0.0754237 -0.0383531,-0.119974 -0.0263414,-0.0530013 -0.039528,-0.0429172 -0.0863363,-0.0653675 -0.038839,-0.0186269 -0.0398824,-0.0431801 -0.115103,-0.0431801l-0.0197819 0c-0.0485646,0 -0.111774,0.0501577 -0.133332,0.084321 -0.0399103,0.0632408 -0.0269308,0.0966354 -0.0447094,0.172991z"/>
   <path id="_115065952" class="fil1" d="M4.10818 2.44116c0.0165759,0.00442873 0.164855,0.202614 0.164855,0.217724 0,0.0532363 -0.116007,0.105461 -0.145073,0.145152l0.151668 0.0065953c0.0290297,-0.0433752 0.145073,-0.0641409 0.145073,-0.131954l0 -0.0131946c0,-0.0464379 -0.234292,-0.307864 -0.270363,-0.376071l-0.0461591 0c-0.0102633,0.00687807 -0.0197819,0.00874594 -0.0197819,0.0263931l0 0.0065953c0,0.0373017 0.0472304,0.0615203 0.0197819,0.118759z"/>
   <path id="_112986304" class="fil1" d="M3.62021 2.17725l-0.0065953 0.0131946 0.0386319 0.00017922 0.00752724 0.0196146c0.042515,0.0612176 0.0405834,0.125358 0.151668,0.125358 0.00448847,0.0168228 0.0215622,0.046183 0.0395638,0.046183 0.0151063,0 0.00766663,-0.00223826 0.0271857,-0.00646785l0.00578682 -0.0463144c-0.00269627,-0.0324149 -0.0131906,-0.0241708 -0.0131906,-0.0527823l0 -0.0329884c0.0174282,-0.00465574 0.0725363,-0.0309692 0.0725363,-0.0527823 0,-0.0380464 -0.0359555,-0.0539811 -0.065941,-0.0395877l-0.0164126 -0.0384049 -0.00996463 -0.00117887 -0.042511 0.0749219 -0.00364812 -0.0617274c-0.0296111,0.0156758 -0.145686,0.0775107 -0.184636,0.0527823z"/>
   <path id="_113211904" class="fil2" d="M5.49295 2.23003l0.142894 -0.032403 0.0219604 0.078586c0.0102275,-0.00685019 0.0240115,-0.0197939 0.0395678,-0.0197939 0.0370428,0 0.065941,0.0289142 0.065941,0.0659769l0 0.00659928c0,0.0178185 -0.00315029,0.0181888 -0.00573504,0.0309174l0.0716761 0.0284601 0.0131866 -0.0857667 0 -0.0395877c0,-0.082489 -0.0849065,-0.158347 -0.171446,-0.158347l-0.0395678 0c-0.0541961,0 -0.134212,0.0740935 -0.138477,0.125358z"/>
   <path id="_115066024" class="fil2" d="M2.8355 2.43456l0.0791316 0.0131946 0.0725363 0c0.065475,0 0.0750414,-0.0293562 0.118695,-0.0329884l0 0.0197939c0,0.0252222 -0.00202718,0.00240155 0.0091442,0.0217653l0.017233 -0.0283646 0.0317379 0.000469955 0.0035844 0.0188978 -0.00235376 0.105991c0.0179499,-0.0120277 0.0527544,-0.0701706 0.0527544,-0.0989693l0 -0.046183c0,-0.0480867 -0.113789,-0.171541 -0.164855,-0.171541l-0.0131906 0c-0.0921948,0 -0.217605,0.0964801 -0.217605,0.171541l0 0.00659928c0,0.0185791 0.00285159,0.0122148 0.0131866,0.0197939z"/>
   <path id="_112986520" class="fil3" d="M3.62021 2.34219l0.0109404 0.0070533 0.041814 0.204076 0.0329685 0.158343c-0.0544829,0.103024 -0.105505,0.219489 -0.105505,0.376071l-0.00245731 0.0463503 0.0156439 0.197763 0.473993 -6.77053e-005 0.0205705 -0.250645c0.0234221,0.0369313 0.0551281,0.250713 0.0857229,0.250713l0.422031 0c0.0151939,0 0.0197819,-0.00458803 0.0197819,-0.0197939 0,-0.0352984 -0.194585,-0.0197899 -0.237391,-0.0197899 -0.0439487,0 -0.0879492,-0.000211081 -0.131894,7.96533e-006 -0.074225,0.000366405 -0.0598197,0.00577885 -0.0751569,-0.056757 -0.0346333,-0.141205 -0.0778094,-0.27572 -0.109491,-0.410629l0.589893 0.0130791 0.06295 0.249769 0.0211639 0.0128401 -0.0541324 -0.210771c-0.00865832,-0.104119 -0.0648577,-0.0725761 -0.178045,-0.0725761 -0.0902273,0 -0.156722,-0.00659928 -0.243982,-0.00659928l-0.151668 -0.0065953 -0.069163 -0.00139792 -0.0365211 -0.0844286 0.0793068 -0.270451c-0.0435226,0.0291611 -0.0570597,0.0197939 -0.125287,0.0197939 -0.0153651,0.0102912 -0.0344222,0.0263892 -0.0593497,0.0263892l-0.0131866 0c-0.0279822,0 -0.0527544,-0.024585 -0.0527544,-0.046183 0,-0.035621 0.0252023,-0.0511175 0.0395638,-0.0725761l-0.00659131 -0.046183 -0.00578682 0.0463144c-0.0195191,0.00422959 -0.0120794,0.00646785 -0.0271857,0.00646785 -0.0180017,0 -0.0350753,-0.0293602 -0.0395638,-0.046183 -0.111085,0 -0.109153,-0.0641409 -0.151668,-0.125358l-0.0395638 0.131954z"/>
   <path id="_113199112" class="fil1" d="M5.26875 2.48734c0.00813261,-0.0169582 0.0131866,-0.040213 0.0131866,-0.0659808 0,-0.034705 -0.00792551,-0.056757 -0.0197819,-0.0791714 -0.0562392,0.0297744 -0.127549,0.0197939 -0.211014,0.0197939 -0.00676257,0.0127844 -0.0329725,0.0494329 -0.0329725,0.0593776 0,0.0402568 0.0568725,0.09237 0.0923222,0.09237 0.0603732,0 0.108448,-0.0503051 0.158259,-0.0263892z"/>
   <path id="_115066144" class="fil4" d="M5.49295 2.23003c-0.00982922,0.0141544 -0.0131866,0.0217971 -0.0131866,0.046183l0 0.0131946c0,0.0549528 0.0395638,0.080191 0.0395638,0.118759 0,0.100773 -0.0364175,0.0725761 0.0593497,0.0725761 0.0370269,0 0.087081,0.0659769 0.1121,0.0659769l0.0065953 0c0.0325503,0 0.0527305,-0.0264449 0.0659888,-0.0462666l0.0236889 0.0118445 0.0557534 -0.0977267 -0.013549 -0.026198 -0.0716761 -0.0284601c0.00258475,-0.0127286 0.00573504,-0.013099 0.00573504,-0.0309174l0 -0.00659928c0,-0.0370627 -0.0288982,-0.0659769 -0.065941,-0.0659769 -0.0155563,0 -0.0293403,0.0129437 -0.0395678,0.0197939l-0.0219604 -0.078586 -0.142894 0.032403z"/>
   <path id="_112986448" class="fil4" d="M2.8355 2.43456c0,0.103748 0.0593497,0.0557733 0.0593497,0.125354 0,0.0218967 -0.0131906,0.013776 -0.0131906,0.0263931 0,0.0232628 0.033546,0.0355533 0.0461591,0.0527783l0.0989135 0.0131986c0.0255249,0.00681833 0.022972,0.0197939 0.0329725,0.0197939 0.0260705,0 0.065941,-0.0247841 0.065941,-0.046187 0,-0.0151102 -0.00223428,-0.00767062 -0.00505799,-0.0248518l0.0446218 -0.0477203 0.00235376 -0.105991 -0.0035844 -0.0188978 -0.0317379 -0.000469955 -0.017233 0.0283646c-0.0111714,-0.0193637 -0.0091442,0.00345695 -0.0091442,-0.0217653l0 -0.0197939c-0.043654,0.00363219 -0.0532204,0.0329884 -0.118695,0.0329884l-0.0725363 0 -0.0791316 -0.0131946z"/>
   <path id="_113199856" class="fil2" d="M5.02477 2.58631c0.0546183,0.0365927 0.0740179,0.092366 0.178045,0.092366l0.00659131 0c0.0227331,0 0.0255329,-0.00487877 0.0417264,-0.0104226l0.0374052 -0.0357604 -0.0197819 -0.145148c-0.0498112,-0.0239159 -0.097886,0.0263892 -0.158259,0.0263892 -0.0354497,0 -0.0923222,-0.0521132 -0.0923222,-0.09237 0,-0.00994472 0.0262099,-0.0465932 0.0329725,-0.0593776 0.0834648,0 0.154774,0.00998056 0.211014,-0.0197939 0.0111037,-0.00743962 0.0329725,-0.0299536 0.0329725,-0.046183l0 -0.0131986c0,-0.0282331 -0.0203275,-0.0527783 -0.0461591,-0.0527783 -0.0229083,0 -0.0100642,0.0131946 -0.0329725,0.0131946 -0.027345,0 -0.0783311,-0.0263931 -0.125291,-0.0263931l-0.0593457 0c-0.0845042,0 -0.1121,0.0530053 -0.1121,0.138553l0 0.0659769c0,0.0421446 0.0271459,0.0771682 0.0581151,0.0853008l0.00782594 -0.0193199c-0.0316741,-0.00264051 -0.0461591,-0.0198217 -0.0461591,-0.0527823 0,-0.022749 0.00487877,-0.0255488 0.0065953,-0.046187 0.0147876,-0.00344501 0.015158,-0.0065953 0.0329685,-0.0065953 0.0214825,0 0.0254293,0.0187225 0.0329725,0.0329884 -0.00963805,0.0143973 -0.0197819,0.0281017 -0.0197819,0.0527823 0,0.0676018 0.0235376,0.0782554 0.0329685,0.118759z"/>
   <path id="_115065544" class="fil5" d="M4.10158 2.44776l-0.0793068 0.270451 0.0365211 0.0844286 0.069163 0.00139792c0.0290655,-0.0396913 0.145073,-0.091916 0.145073,-0.145152 0,-0.0151102 -0.148279,-0.213296 -0.164855,-0.217724l-0.0065953 0.00659928z"/>
   <path id="_112986400" class="fil6" d="M3.02673 2.65228l-0.0989135 -0.0131986c-0.0797848,0.0506516 -0.0819155,-0.0145248 -0.138477,0.0989693 -0.0139871,0.0280579 -0.070768,0.14113 -0.0857229,0.158343l0.0855995 0.315706 0.00671876 0.0405714 0.0330522 5.17747e-005 -0.0132702 0.0263374c0.0216139,0.00180017 0.191232,0.00195549 0.191232,0.0197939 0,0.0178224 -0.00315029,0.0181928 -0.0065953,0.0329884l0.303332 0 0.000374371 -0.0154966 0.0534872 0.00864239 -0.00110718 0.00685417c0.127075,0 0.176297,0.0328212 0.192725,-0.077674 0.0090526,-0.060891 0.0222711,-0.183537 0.0366246,-0.240461 0.0148155,-0.0587523 0.0313516,-0.173855 0.0396275,-0.230859 0.0112072,-0.0771921 0.0343545,-0.171171 0.0361785,-0.243859l0.0113665 0.0143257 -0.041814 -0.204076 -0.0109404 -0.0070533c-0.00736395,0.0275959 -0.0672991,0.0803782 -0.0923899,0.178069 -0.0129357,0.0503608 -0.0153134,0.189404 -0.019762,0.250733 -0.0120356,0.16601 -0.0263254,0.345126 -0.0266321,0.513748l-0.0458524 0.0141186c0,-0.149685 -0.0349399,-0.3069 -0.039747,-0.448464 -0.00626075,-0.184485 -0.0745834,-0.224503 -0.263585,-0.224503 0.00673071,0.0289221 0.0263772,0.0389186 0.0263772,0.0593816 0,0.00263653 -0.0374092,0.0532124 -0.0395678,0.0791714l-0.0113108 -0.000967788 -0.0384447 -0.0676058 -0.0408343 0.0566256 -0.00792551 -0.00132225 0.00619703 -0.0988896z"/>
   <path id="_113185720" class="fil7" d="M4.70165 2.8898l0.0541324 0.210771 -0.0211639 -0.0128401 0 0.0197939 -0.0197819 0c-0.0279105,0 -0.0892874,-0.0407068 -0.1121,-0.0527823l-0.118695 -0.0593816c0.000943892,0.042288 0.052161,0.0677014 0.0791316,0.0857707 0,0.0860734 0.0392054,0.077443 0.0791276,0.11216l0.118695 0c0.0179499,0.0374291 0.00791356,0.0947835 0.0475291,0.0985471l-0.0194713 -0.0592302 -0.00827598 -0.0459122 0.0527544 0 0 0.105565 0.224204 0c0.010793,0 0.0197819,0.00394682 0.0197819,0.0131946 0,0.0151102 -0.00223428,0.00767062 -0.0065953,0.0265405l0.520941 -0.00674664c-0.00134614,-0.0605365 -0.100519,-0.0329884 -0.158259,-0.0329884l-0.131886 0c0,-0.0757742 -0.0249275,-0.226383 -0.00279583,-0.279902 0.011956,-0.0289062 0.0819274,-0.204367 0.0819274,-0.221528l0 -0.0263892c0,-0.0849025 -0.0836041,-0.0992959 -0.0923182,-0.131954l-0.0374052 0.0357604c-0.0161935,0.00554387 -0.0189933,0.0104226 -0.0417264,0.0104226l-0.00659131 0c-0.104027,0 -0.123427,-0.0557733 -0.178045,-0.092366 -0.0689001,0.0437376 -0.147566,0.00459998 -0.209843,0.100136 -0.0247921,0.0380385 -0.0902034,0.186449 -0.113271,0.203359z"/>
   <path id="_115065448" class="fil3" d="M4.6423 3.19329c-0.0399223,-0.0347169 -0.0791276,-0.0260865 -0.0791276,-0.11216 -0.0269706,-0.0180694 -0.0781877,-0.0434828 -0.0791316,-0.0857707l0.118695 0.0593816 -0.0263772 -0.125358 -0.0725921 0.001609 -0.273534 -0.00735997 0.0757663 0.289452 0.3363 0 0 -0.0197939z"/>
   <path id="_112986424" class="fil8" d="M5.43361 3.29226c0.0577407,0 0.156913,-0.0275481 0.158259,0.0329884 0.0155284,-0.0244854 0.0514282,-0.097197 0.065941,-0.125358 0.0211838,-0.0410971 0.04641,-0.0773633 0.0702861,-0.121009 0.0278468,-0.0508905 0.130922,-0.206342 0.140728,-0.248463l0.0104346 0.00180017 0.273115 0.420454 0 0.20453 0.00430526 -0.200539 0.299027 -0.261303c-0.0336177,-0.0502334 -0.208405,-0.239239 -0.258822,-0.288644 -0.0486164,-0.0476367 -0.21727,-0.27216 -0.275306,-0.27216 -0.12279,0 -0.188659,0.333819 -0.244086,0.42875 -0.0817642,0.140035 -0.16767,0.28484 -0.243883,0.428953z"/>
   <path id="_113184256" class="fil3" d="M3.00035 3.33185c0.00344501,-0.0147956 0.0065953,-0.015166 0.0065953,-0.0329884 0,-0.0178384 -0.169618,-0.0179937 -0.191232,-0.0197939l0.0132702 -0.0263374 -0.0330522 -5.17747e-005 -0.00671876 -0.0405714 -0.0855995 -0.315706c-0.0210643,-0.0439169 -0.00853884,-0.0791714 -0.0857269,-0.0791714l-0.487968 0c-0.0339363,0 -0.065941,0.0254612 -0.065941,0.0593776 0,0.036063 0.0569442,0.220887 0.0698799,0.273163 0.0347528,0.140445 0.00687408,0.182084 0.167511,0.18208 0.232994,-3.98267e-006 0.465988,0 0.698982,0z"/>
   <path id="_115065376" class="fil9" d="M2.02442 4.80314l0.0593457 0 0 -0.864302 0.28355 0c0.0252103,0 0.00240155,-0.00202319 0.0197819,0.00659928l0.170617 -0.00653556 0.00742767 0.039524 0 -0.0395877 0.138477 0 0 0.481636 0.00659131 -0.481636 0.191232 0 0.0131906 0 0.178041 0 0 0.217724 0.0065953 -0.217724 0.065941 0 0 0.217724 0.0263772 0 -0.0197819 -0.0065953 0 -0.211129 0.5671 0 0.316518 0 0.328642 0.000270821 0.125836 0.512091 -0.244217 0.0553153 0.0139433 0.0459122 0.0527544 0c0.0137999,-0.00876187 0.180084,-0.0202558 0.211065,-0.0197381 0.0696329,0.00115497 0.0455298,-0.000860256 0.0541563,-0.0580314 0.00597002,-0.0395758 -0.000681036,-0.0571114 -0.00121073,-0.107209 -0.00144571,-0.136088 -0.0332154,-0.279922 -0.0332154,-0.428611l0.145073 0 0 0.475037 0.065941 0 0.000330561 0.0867624 0.012856 -0.00758698c-0.032387,-0.0510737 0.036298,-0.237514 0.0487996,-0.287664 0.012645,-0.0507272 0.0250749,-0.09008 0.0394005,-0.138712 0.00744759,-0.025278 0.0247443,-0.127836 0.0502772,-0.127836l0.118695 0 0 0.217724 0.0065953 -0.217724 0.0656224 3.98267e-006 0.00691391 0.21772 0 -0.217724 0.369273 0c0,-0.0615083 -0.000625279,-0.123347 7.96533e-005,-0.184816 0.000884152,-0.0766424 -0.0441518,-0.0536784 -0.12535,-0.0593178 -0.101048,-0.00701746 -0.243098,-0.0338407 -0.336364,-0.0329247 -0.0806769,0.000792551 -0.251131,-0.0167591 -0.342414,-0.026875 -0.102892,-0.0114064 -0.223611,-0.0325503 -0.337264,-0.036537l0.0268989 -0.00260865 0 -0.0263931 0.0996702 -0.00127047 -0.0235097 -0.0195111 -0.00745555 0.0164365 -0.00982922 -0.0166754 -0.0185552 0.00575097 -0.0403205 -0.0111196 4.38093e-005 -0.0251784 -0.13193 0.00538457c-0.0319967,0.00115896 -0.0968545,-0.028026 -0.118695,-0.0395877 -0.00832776,0.00440881 -0.0218011,0.0131986 -0.0329685,0.0131986 -0.0203873,0 -0.0513326,-0.023203 -0.0660605,-0.033781l-0.0592302 0.00738785c-0.00328968,-0.00855477 -0.0246089,-0.0197939 -0.0395638,-0.0197939l-0.0527544 0 0 -0.0131946 -0.1121 0 0 -0.00639218 0.369273 -0.0068024 -2.11014 0 0 1.37892z"/>
   <path id="_112986736" class="fil10" d="M5.49295 3.93884l0 0.71915 0 0.145152 0.0593497 0 0 -1.37892 -1.41775 0 -0.369273 0.0068024 0 0.00639218 0.1121 0 0 0.0131946 0.0527544 0c0.0149549,0 0.0362741,0.0112391 0.0395638,0.0197939l0.0592302 -0.00738785c0.0147279,0.010578 0.0456732,0.033781 0.0660605,0.033781 0.0111674,0 0.0246408,-0.00878975 0.0329685,-0.0131986 0.0218409,0.0115617 0.0866987,0.0407467 0.118695,0.0395877l0.13193 -0.00538457 -4.38093e-005 0.0251784 0.0403205 0.0111196 0.0185552 -0.00575097 0.00982922 0.0166754 0.00745555 -0.0164365 0.0235097 0.0195111 -0.0996702 0.00127047 0 0.0263931 -0.0268989 0.00260865c0.113653,0.00398665 0.234372,0.0251306 0.337264,0.036537 0.0912827,0.010116 0.261737,0.0276676 0.342414,0.026875 0.0932661,-0.000916013 0.235316,0.0259072 0.336364,0.0329247 0.0811986,0.00563946 0.126235,-0.0173246 0.12535,0.0593178 -0.000704932,0.0614685 -7.96533e-005,0.123307 -7.96533e-005,0.184816z"/>
   <path id="_113187472" class="fil11" d="M6.75777 3.40441c-0.0304116,-0.0364494 -0.0786059,-0.239876 -0.145905,-0.257503l-0.0242783 0.297107c-0.0113068,0.114235 0.0316144,0.309429 0.0637744,0.384833 0.0276198,0.0647582 0.144798,0.255926 0.153834,0.294729l-0.0400139 -0.00260068 -0.0852769 0.0157992 0 0.0197899c0.0364374,0.00303479 0.0575057,0.0197939 0.0923182,0.0197939l0.0923182 0c0.047804,0 0.0760889,-0.0179977 0.1121,-0.0263892 -0.00858663,-0.0321879 -0.0785541,-0.0263931 -0.113088,-0.0254492l0.0933059 -0.58814 0 -0.230919c0,-0.0378154 -0.0105262,-0.0471866 -0.0178105,-0.0803742l-0.0876943 0.324488c0,-0.108783 -0.0434748,-0.452789 -0.0894626,-0.50147l-0.00412206 0.356305z"/>
   <path id="_115065280" class="fil11" d="M0.862168 3.37799c-0.041579,-0.0681594 -0.0586527,-0.204908 -0.142046,-0.257846l-0.0277313 0.297473c-0.0115577,0.105417 0.0340598,0.308653 0.0638183,0.378194 0.030559,0.0714052 0.141305,0.247985 0.153791,0.294773 -0.043889,0 -0.106242,0.000378353 -0.125291,0.0263931 0.0182804,0.0249634 0.0983759,0.0329884 0.145073,0.0329884l0.0329725 0c0.0420689,0 0.109838,-0.0129954 0.118691,-0.046187 -0.0206262,-0.00171653 -0.0234221,-0.0065953 -0.0461551,-0.0065953l-0.065945 0c0,-0.0373056 0.0470154,-0.288015 0.057904,-0.331334 0.0207457,-0.0825607 0.0410095,-0.256432 0.0410095,-0.354828l0 -0.09237c0,-0.0327017 -0.00865035,-0.105764 -0.0249912,-0.118413l-0.0805136 0.336137 -0.0065953 0c0,-0.120002 -0.0396833,-0.474818 -0.0842852,-0.527779l-0.00970576 0.369392z"/>
   <path id="_112986232" class="fil5" d="M4.78738 4.49305c0.00805694,-0.0346014 0.0452351,-0.0791754 0.0857269,-0.0791754l0.158259 0 0 -0.257312 0.0131866 0 0 -0.217724 -0.118695 0c-0.0255329,0 -0.0428296,0.102558 -0.0502772,0.127836 -0.0143257,0.0486323 -0.0267556,0.0879851 -0.0394005,0.138712 -0.0125016,0.0501497 -0.0811867,0.23659 -0.0487996,0.287664z"/>
   <path id="_113188072" class="fil12" d="M4.05542 3.93884l-0.316518 0 0.0461591 0.40246c-0.0811668,0.00181211 -0.323114,0.0271936 -0.323114,0.09237 0,0.0715685 0.311285,0.092366 0.408837,0.092366 0.0487319,0 0.0787453,-0.00671478 0.118536,-0.00675859 0.0173843,-1.59307e-005 0.0503648,-0.00170458 0.0659569,0.000306665 0.0299696,0.00386319 0.0265007,0.0196505 0.0463025,0.0196505l0.0131906 0c0.0154368,0 0.0263772,-0.0109484 0.0263772,-0.0263931l0 -0.0065953c0,-0.0287788 -0.0370109,-0.0770447 -0.0487837,-0.109539 -0.0194474,-0.0536824 -0.0162612,-0.0817442 -0.0232867,-0.14164 -0.0104983,-0.0895224 -0.0136566,-0.22391 -0.0136566,-0.316228z"/>
   <path id="_115065208" class="fil0" d="M2.56514 3.97843l-0.00742767 -0.039524 -0.170617 0.00653556c0.0191805,0.0823655 0.125291,0.438026 0.125291,0.488231l-0.00035844 0.0182127 -0.24438 0.0546342 0.0139433 0.0459122c0.0488514,0 0.316518,-0.00452033 0.316518,-0.0395877l0.00447253 -0.0795578 -0.0374411 -0.454856z"/>
   <path id="_112986160" class="fil0" d="M3.09267 4.15656l-0.0131866 0 0 0.257312 -0.158259 0c-0.0406431,0 -0.08227,0.0441996 -0.0857269,0.0857707 -0.0227769,0.00189575 -0.0461591,0.0168507 -0.0461591,0.0395877l0 0.0131946c0,0.0222312 0.0116533,0.046183 0.0329725,0.046183l0.0197819 0c0.030782,0 0.0461591,-0.015385 0.0461591,-0.046183 0,-0.0340916 -0.017468,-0.0410852 -0.0395638,-0.0527823 0.00938715,-0.0403205 0.0488713,-0.0725761 0.0989095,-0.0725761l0.178045 0 0 0.0725761c-0.027564,0.00642404 -0.0461591,0.0191487 -0.0461591,0.0527823l0 0.0065953c0,0.0158869 0.0236849,0.0395877 0.0395638,0.0395877l0.0263772 0c0.0186309,0 0.0395638,-0.0275162 0.0395638,-0.046183 0,-0.0336336 -0.0185951,-0.0463582 -0.0461591,-0.0527823l0 -0.0725761 0.211014 0c0.0436779,0 0.0770646,0.0419773 0.0857269,0.0791754 -0.0167033,0.00446059 -0.0329725,0.0127445 -0.0329725,0.0329884l0 0.0263892c0,0.015385 0.0175954,0.0329884 0.0329725,0.0329884l0.0197819 0c0.0309931,0 0.0340199,-0.0148514 0.0461591,-0.0329884l0 -0.0263892 -0.0477243 -0.0459958 -0.00503011 0.00640811c-0.00471946,-0.056745 -0.0614486,-0.09237 -0.125291,-0.09237l-0.131882 0 0 -0.237514 0 -0.0131986 -0.0263772 0 0 -0.217724 -0.065941 0 -0.0065953 0.217724z"/>
   <path id="_113194984" class="fil0" d="M2.70362 4.42047c-0.0216458,0.0929515 -0.0568366,0.0988179 -0.131886,0.138549l-0.0329685 0.0527823 0.0527544 0c0.0560043,0 0.137406,-0.0554467 0.184636,-0.0593776l0 -0.0989653c0,-0.0479433 0.0482261,-0.203666 0.0633045,-0.259953 0.0228207,-0.0852131 0.0552754,-0.16922 0.0751728,-0.254672l-0.0131906 0 -0.191232 0 -0.00659131 0.481636z"/>
   <path id="_115065160" class="fil0" d="M5.04455 4.15656l-0.0131866 0 0 0.257312 -0.158259 0c-0.0404918,0 -0.07767,0.044574 -0.0857269,0.0791754l-0.012856 0.00758698 -0.000330561 -0.0867624 -0.065941 0c-0.036533,0.0576093 -0.00230995,0.0654193 -0.075125,0.109571 -0.0359794,0.021817 -0.0851415,0.0464498 -0.0963248,0.0883594l0.0527544 0c0.0437934,0 0.104712,-0.0352386 0.151664,-0.046183 0.0108249,0.0204669 0.0143934,0.0329884 0.0461591,0.0329884l0.0065953 0c0.030782,0 0.0461591,-0.015385 0.0461591,-0.046183l0 -0.0131946c0,-0.0202439 -0.0162652,-0.0285278 -0.0329725,-0.0329884 0.00115497,-0.0518464 0.0401811,-0.0791754 0.0923222,-0.0791754l0.178041 0 0 0.0725761c-0.0234141,0.00545625 -0.0461591,0.0187384 -0.0461591,0.046183 0,0.0241111 0.0181968,0.0527823 0.0395638,0.0527823l0.0263772 0c0.0172728,0 0.0395678,-0.029181 0.0395678,-0.0395877 0,-0.0363418 -0.0159307,-0.0523322 -0.0461631,-0.0593776l0 -0.0725761 0.197827 0c0.0619424,0 0.0779408,0.0329247 0.0989135,0.0725761 -0.0115019,0.00770646 -0.0329725,0.0213511 -0.0329725,0.0395877l0 0.0131946c0,0.030798 0.0153771,0.046183 0.0461591,0.046183l0.0065953 0c0.030782,0 0.0461591,-0.015385 0.0461591,-0.046183l0 -0.0131946c0,-0.023657 -0.0287349,-0.0375884 -0.0527544,-0.0395877 -0.00471946,-0.056745 -0.0614446,-0.09237 -0.125287,-0.09237l-0.131886 0 0 -0.250713 -0.0197819 0 -0.00691391 -0.21772 -0.0656224 -3.98267e-006 -0.0065953 0.217724z"/>
   <path id="_112986088" class="fil0" d="M6.15237 3.45721l-0.0131866 1.20738c-0.028273,0.000633244 -0.0739581,0.018145 -0.100363,0.0249395 -0.0390301,0.0100403 -0.0768217,0.00913226 -0.0776779,0.0476367l0.0462348 0.00159307 0.193988 -0.0077662 0.115378 -0.760239 0.112586 0.660848c-0.0332194,0.0077423 -0.134451,0.0225339 -0.138402,0.0607038l0.164775 -0.00792152 0.0593497 0 0.000864239 -0.0264808 -0.0734006 -0.745452 -0.00214267 -0.164994 0.0153293 -0.752091 -0.299027 0.261303 -0.00430526 0.200539z"/>
   <path id="_113207176" class="fil13" d="M4.33238 4.55243l0.0131866 0.0065953c-0.0134694,0.00314232 -0.0395638,0.0125653 -0.0395638,0.0263931 0,0.0752445 0.524565,0.09237 0.646228,0.09237l0.158506 0.00412206 0.382217 -0.0239199 0 -0.71915 -0.369273 0 0 0.217724 0.0197819 0 0 0.250713 0.131886 0c0.0638422,0 0.120567,0.035625 0.125287,0.09237 0.0240195,0.0019993 0.0527544,0.0159307 0.0527544,0.0395877l0 0.0131946c0,0.030798 -0.0153771,0.046183 -0.0461591,0.046183l-0.0065953 0c-0.030782,0 -0.0461591,-0.015385 -0.0461591,-0.046183l0 -0.0131946c0,-0.0182366 0.0214706,-0.0318812 0.0329725,-0.0395877 -0.0209727,-0.0396514 -0.0369711,-0.0725761 -0.0989135,-0.0725761l-0.197827 0 0 0.0725761c0.0302324,0.00704534 0.0461631,0.0230357 0.0461631,0.0593776 0,0.0104067 -0.022295,0.0395877 -0.0395678,0.0395877l-0.0263772 0c-0.021367,0 -0.0395638,-0.0286712 -0.0395638,-0.0527823 0,-0.0274446 0.022745,-0.0407268 0.0461591,-0.046183l0 -0.0725761 -0.178041 0c-0.0521411,0 -0.0911672,0.0273291 -0.0923222,0.0791754 0.0167073,0.00446059 0.0329725,0.0127445 0.0329725,0.0329884l0 0.0131946c0,0.030798 -0.0153771,0.046183 -0.0461591,0.046183l-0.0065953 0c-0.0317658,0 -0.0353342,-0.0125215 -0.0461591,-0.0329884 -0.0469517,0.0109444 -0.107871,0.046183 -0.151664,0.046183l-0.0527544 0c0.0111833,-0.0419096 0.0603454,-0.0665424 0.0963248,-0.0883594 0.0728151,-0.0441518 0.038592,-0.0519619 0.075125,-0.109571l0 -0.475037 -0.145073 0c0,0.148689 0.0317697,0.292523 0.0332154,0.428611 0.000529695,0.050098 0.00718075,0.0676336 0.00121073,0.107209 -0.00862646,0.0571712 0.0154766,0.0591864 -0.0541563,0.0580314 -0.0309812,-0.000517747 -0.197265,0.0109762 -0.211065,0.0197381z"/>
   <path id="_115065088" class="fil13" d="M1.28587 4.54583c-0.0962611,0 -0.534127,0.0308258 -0.534127,0.0857707 0,0.0819991 0.539357,0.0989653 0.666009,0.0989653l0.0992998 0.00568725 0.500239 -0.0386677 0.00712897 0.105557 0 -1.37892 -0.00609348 1.14851 -0.303834 -0.0202957 0.000318613 0.0717119 0.144754 0.0536465c-0.00392691,0.0147 -0.00154129,0.0197899 -0.0197859,0.0197899 -0.0458564,0 -0.139748,-0.0296987 -0.191491,-0.0327296 -0.0484093,-0.00283566 -0.0327654,-0.0249713 -0.0327096,-0.0794303 3.98267e-005,-0.0428057 8.76187e-005,-0.0733448 -0.0051934,-0.106966 -0.00561556,-0.0357484 -0.00829988,-0.179841 -0.00797728,-0.216338 0.000481903,-0.0546342 -0.00667097,-0.15982 -0.0127406,-0.211575 -0.0153811,-0.131137 -0.00349678,-0.299919 -0.0136008,-0.435039 -0.0104585,-0.139776 -0.0198377,-0.281184 -0.0198377,-0.428798l0 -0.0593816 -0.0725323 0c-0.0326857,0 -0.0247164,0.135275 -0.0261303,0.171792 -0.00201125,0.0521132 -0.0117648,0.13876 -0.0136844,0.190837 -0.00493054,0.133714 -0.0173525,0.255253 -0.0192841,0.389764 -0.00353263,0.246005 -0.04641,0.516484 -0.0467127,0.769248l-0.250279 0.0288265 -0.00659131 0c-0.0252143,0 -0.00240155,0.00202319 -0.0216697,-0.01286l0.186524 -0.0531208 0 -0.0659769z"/>
   <path id="_112986016" class="fil0" d="M1.28587 4.54583l0 0.0659769 -0.186524 0.0531208c0.0192681,0.0148832 -0.00354457,0.01286 0.0216697,0.01286l0.00659131 0 0.250279 -0.0288265c0.000302683,-0.252764 0.0431801,-0.523243 0.0467127,-0.769248 0.00193159,-0.134511 0.0143535,-0.25605 0.0192841,-0.389764 0.00191965,-0.0520774 0.0116732,-0.138724 0.0136844,-0.190837 0.00141385,-0.0365171 -0.00655547,-0.171792 0.0261303,-0.171792l0.0725323 0 0 0.0593816c0,0.147614 0.00937918,0.289022 0.0198377,0.428798 0.010104,0.13512 -0.00178025,0.303901 0.0136008,0.435039 0.00606958,0.0517548 0.0132225,0.156941 0.0127406,0.211575 -0.000322596,0.0364972 0.00236172,0.18059 0.00797728,0.216338 0.00528102,0.0336217 0.00523322,0.0641608 0.0051934,0.106966 -5.57573e-005,0.054459 -0.0156997,0.0765947 0.0327096,0.0794303 0.0517428,0.00303081 0.145634,0.0327296 0.191491,0.0327296 0.0182446,0 0.015859,-0.00508985 0.0197859,-0.0197899l-0.144754 -0.0536465 -0.000318613 -0.0717119 -5.57573e-005 -1.648 -0.24393 -0.00802507 -0.178041 0 0.00164086 0.24413 -0.00823616 1.4053z"/>
   <path id="_113203864" class="fil13" d="M2.57173 4.55902c-0.0404798,0 -0.164855,0.0267237 -0.164855,0.0527823 0,0.0772558 0.540755,0.0989693 0.666013,0.0989693l0.0791316 0c0.118162,0 0.216745,-0.0137681 0.329733,-0.0131707 0.104147,0.000549608 0.222265,-0.0396156 0.309903,-0.0396156 0.00822421,-0.00550803 0.0527504,-0.0317658 0.0527504,-0.0395837 0,-0.0151102 -0.00223428,-0.00767062 -0.00659131,-0.0263931 -0.100534,-0.02343 -0.211898,-0.0527783 -0.336304,-0.0527783l0 0.0263892c-0.0121392,0.0181371 -0.015166,0.0329884 -0.0461591,0.0329884l-0.0197819 0c-0.0153771,0 -0.0329725,-0.0176034 -0.0329725,-0.0329884l0 -0.0263892c0,-0.0202439 0.0162692,-0.0285278 0.0329725,-0.0329884 -0.0086623,-0.0371981 -0.042049,-0.0791754 -0.0857269,-0.0791754l-0.211014 0 0 0.0725761c0.027564,0.00642404 0.0461591,0.0191487 0.0461591,0.0527823 0,0.0186668 -0.0209329,0.046183 -0.0395638,0.046183l-0.0263772 0c-0.0158789,0 -0.0395638,-0.0237009 -0.0395638,-0.0395877l0 -0.0065953c0,-0.0336336 0.0185951,-0.0463582 0.0461591,-0.0527823l0 -0.0725761 -0.178045 0c-0.0500382,0 -0.0895224,0.0322556 -0.0989095,0.0725761 0.0220958,0.0116971 0.0395638,0.0186907 0.0395638,0.0527823 0,0.030798 -0.0153771,0.046183 -0.0461591,0.046183l-0.0197819 0c-0.0213192,0 -0.0329725,-0.0239518 -0.0329725,-0.046183l0 -0.0131946c0,-0.022737 0.0233822,-0.037692 0.0461591,-0.0395877 0.00345695,-0.0415711 0.0450838,-0.0857707 0.0857269,-0.0857707l0.158259 0 0 -0.257312 0.0131866 0 0 -0.217724 -0.178041 0c-0.0198974,0.0854521 -0.0523522,0.169458 -0.0751728,0.254672 -0.0150784,0.056287 -0.0633045,0.212009 -0.0633045,0.259953l0 0.0989653c-0.0472304,0.00393089 -0.128632,0.0593776 -0.184636,0.0593776l-0.0527544 0 0.0329685 -0.0527823z"/>
   <path id="_115064968" class="fil5" d="M2.02442 4.80314l-0.00712897 -0.105557 -0.500239 0.0386677 -0.0992998 -0.00568725c-0.126653,0 -0.666009,-0.0169662 -0.666009,-0.0989653 0,-0.0549449 0.437866,-0.0857707 0.534127,-0.0857707l0.00823616 -1.4053 -0.00164086 -0.24413 0.178041 0 0.24393 0.00802507 5.57573e-005 1.648 0.303834 0.0202957 0.00609348 -1.14851 2.11014 0 1.41775 0 0 1.37892 -0.0593497 0 0 -0.145152 -0.382217 0.0239199 -0.158506 -0.00412206c-0.121663,0 -0.646228,-0.0171255 -0.646228,-0.09237 0,-0.0138278 0.0260944,-0.0232508 0.0395638,-0.0263931l-0.0131866 -0.0065953 -0.0527544 0 -0.0139433 -0.0459122 0.244217 -0.0553153 -0.125836 -0.512091 -0.328642 -0.000270821c0,0.0923182 0.00315825,0.226705 0.0136566,0.316228 0.00702542,0.0598953 0.00383929,0.0879572 0.0232867,0.14164 0.0117728,0.0324946 0.0487837,0.0807605 0.0487837,0.109539l0 0.0065953c0,0.0154448 -0.0109404,0.0263931 -0.0263772,0.0263931l-0.0131906 0c-0.0198018,0 -0.0163329,-0.0157873 -0.0463025,-0.0196505 -0.0155921,-0.00201125 -0.0485726,-0.000322596 -0.0659569,-0.000306665 -0.0397908,4.38093e-005 -0.0698042,0.00675859 -0.118536,0.00675859 -0.0975514,0 -0.408837,-0.0207975 -0.408837,-0.092366 0,-0.0651763 0.241947,-0.0905579 0.323114,-0.09237l-0.0461591 -0.40246 -0.5671 0 0 0.211129 0.0197819 0.0065953 0 0.0131986 0 0.237514 0.131882 0c0.0638422,0 0.120571,0.035625 0.125291,0.09237l0.00503011 -0.00640811 0.0477243 0.0459958c0.124407,0 0.23577,0.0293483 0.336304,0.0527783 0.00435704,0.0187225 0.00659131,0.0112829 0.00659131,0.0263931 0,0.00781798 -0.0445262,0.0340757 -0.0527504,0.0395837 -0.0876386,0 -0.205757,0.0401652 -0.309903,0.0396156 -0.112988,-0.0005974 -0.211571,0.0131707 -0.329733,0.0131707l-0.0791316 0c-0.125259,0 -0.666013,-0.0217135 -0.666013,-0.0989693 0,-0.0260586 0.124375,-0.0527823 0.164855,-0.0527823 0.0750494,-0.0397311 0.11024,-0.0455976 0.131886,-0.138549l0 -0.481636 -0.138477 0 0 0.0395877 0.0374411 0.454856 -0.00447253 0.0795578c0,0.0350674 -0.267667,0.0395877 -0.316518,0.0395877l-0.0139433 -0.0459122 0.24438 -0.0546342 0.00035844 -0.0182127c0,-0.0502055 -0.10611,-0.405866 -0.125291,-0.488231 -0.0173804,-0.00862247 0.00542838,-0.00659928 -0.0197819,-0.00659928l-0.28355 0 0 0.864302 -0.0593457 0zm4.73748 -1.75504c0.0459879,0.0486801 0.0894626,0.392687 0.0894626,0.50147l0.0876943 -0.324488c0.0072843,0.0331876 0.0178105,0.0425588 0.0178105,0.0803742l0 0.230919 -0.0933059 0.58814c0.0345337,-0.000943892 0.104501,-0.00673867 0.113088,0.0254492 -0.0360113,0.00839148 -0.0642962,0.0263892 -0.1121,0.0263892l-0.0923182 0c-0.0348125,0 -0.0558808,-0.0167591 -0.0923182,-0.0197939l0 -0.0197899 0.0852769 -0.0157992 0.0400139 0.00260068c-0.00903667,-0.0388031 -0.126215,-0.229971 -0.153834,-0.294729 -0.03216,-0.0754038 -0.0750812,-0.270598 -0.0637744,-0.384833l0.0242783 -0.297107c0.0672991,0.0176273 0.115493,0.221054 0.145905,0.257503l0.00412206 -0.356305zm-5.89002 -0.0395041c0.0446019,0.0529615 0.0842852,0.407777 0.0842852,0.527779l0.0065953 0 0.0805136 -0.336137c0.0163409,0.012649 0.0249912,0.085711 0.0249912,0.118413l0 0.09237c0,0.0983958 -0.0202638,0.272267 -0.0410095,0.354828 -0.0108886,0.0433195 -0.057904,0.294028 -0.057904,0.331334l0.065945 0c0.0227331,0 0.0255289,0.00487877 0.0461551,0.0065953 -0.00885347,0.0331915 -0.0766225,0.046187 -0.118691,0.046187l-0.0329725 0c-0.0466968,0 -0.126792,-0.00802507 -0.145073,-0.0329884 0.0190491,-0.0260148 0.0814017,-0.0263931 0.125291,-0.0263931 -0.0124857,-0.0467884 -0.123232,-0.223368 -0.153791,-0.294773 -0.0297585,-0.0695413 -0.075376,-0.272777 -0.0638183,-0.378194l0.0277313 -0.297473c0.0833931,0.0529376 0.100467,0.189686 0.142046,0.257846l0.00970576 -0.369392zm4.62108 -0.778568c0.00426544,-0.0512649 0.0842812,-0.125358 0.138477,-0.125358l0.0395678 0c0.0865394,0 0.171446,0.0758579 0.171446,0.158347l0 0.0395877 -0.0131866 0.0857667 0.013549 0.026198 -0.0557534 0.0977267 -0.0236889 -0.0118445c-0.0132583,0.0198217 -0.0334385,0.0462666 -0.0659888,0.0462666l-0.0065953 0c-0.0250191,0 -0.0750733,-0.0659769 -0.1121,-0.0659769 -0.0957672,0 -0.0593497,0.0281973 -0.0593497,-0.0725761 0,-0.0385681 -0.0395638,-0.0638063 -0.0395638,-0.118759l0 -0.0131946c0,-0.0243859 0.00335739,-0.0320286 0.0131866,-0.046183zm-1.87275 -0.0527823c0.0177786,-0.0763557 0.00479911,-0.10975 0.0447094,-0.172991 0.0215582,-0.0341633 0.0847671,-0.084321 0.133332,-0.084321l0.0197819 0c0.0752206,0 0.0762641,0.0245531 0.115103,0.0431801 0.0468083,0.0224503 0.0599949,0.0123662 0.0863363,0.0653675 0.0221396,0.0445501 0.0238163,0.0691311 0.0383531,0.119974 0.00970178,0.0339363 0.0701348,0.0462826 0.0701348,0.081573l0 0.0131946c0,0.0242226 -0.0102155,0.0318932 -0.0197819,0.046183l0.0461591 0c0.036071,0.0682072 0.270363,0.329633 0.270363,0.376071l0 0.0131946c0,0.0678129 -0.116043,0.0885785 -0.145073,0.131954 0.0872602,0 0.153755,0.00659928 0.243982,0.00659928 0.113187,0 0.169387,-0.0315427 0.178045,0.0725761 0.0230676,-0.0169104 0.0884789,-0.165321 0.113271,-0.203359 0.062277,-0.0955362 0.140943,-0.0563985 0.209843,-0.100136 -0.00943096,-0.0405037 -0.0329685,-0.0511574 -0.0329685,-0.118759 0,-0.0246806 0.0101439,-0.0383849 0.0197819,-0.0527823 -0.00754317,-0.0142659 -0.01149,-0.0329884 -0.0329725,-0.0329884 -0.0178105,0 -0.0181809,0.00315029 -0.0329685,0.0065953 -0.00171653,0.0206382 -0.0065953,0.023438 -0.0065953,0.046187 0,0.0329606 0.014485,0.0501418 0.0461591,0.0527823l-0.00782594 0.0193199c-0.0309692,-0.00813261 -0.0581151,-0.0431562 -0.0581151,-0.0853008l0 -0.0659769c0,-0.0855477 0.0275959,-0.138553 0.1121,-0.138553l0.0593457 0c0.0469596,0 0.0979457,0.0263931 0.125291,0.0263931 0.0229083,0 0.0100642,-0.0131946 0.0329725,-0.0131946 0.0258316,0 0.0461591,0.0245452 0.0461591,0.0527783l0 0.0131986c0,0.0162294 -0.0218688,0.0387434 -0.0329725,0.046183 0.0118564,0.0224144 0.0197819,0.0444665 0.0197819,0.0791714 0,0.0257679 -0.005054,0.0490226 -0.0131866,0.0659808l0.0197819 0.145148c0.00871408,0.0326579 0.0923182,0.0470512 0.0923182,0.131954l0 0.0263892c0,0.0171613 -0.0699715,0.192622 -0.0819274,0.221528 -0.0221317,0.0535191 0.00279583,0.204128 0.00279583,0.279902l0.131886 0c0.0762123,-0.144113 0.162118,-0.288919 0.243883,-0.428953 0.0554268,-0.0949308 0.121296,-0.42875 0.244086,-0.42875 0.0580354,0 0.226689,0.224523 0.275306,0.27216 0.0504166,0.049405 0.225204,0.23841 0.258822,0.288644l-0.0153293 0.752091 0.00214267 0.164994 0.0734006 0.745452 -0.000864239 0.0264808 -0.0593497 0 -0.164775 0.00792152c0.00395081,-0.0381699 0.105182,-0.0529615 0.138402,-0.0607038l-0.112586 -0.660848 -0.115378 0.760239 -0.193988 0.0077662 -0.0462348 -0.00159307c0.000856273,-0.0385044 0.0386478,-0.0375964 0.0776779,-0.0476367 0.0264051,-0.00679443 0.0720903,-0.0243062 0.100363,-0.0249395l0.0131866 -1.20738 0 -0.20453 -0.273115 -0.420454 -0.0104346 -0.00180017c-0.00980533,0.0421207 -0.112881,0.197572 -0.140728,0.248463 -0.0238761,0.043646 -0.0491023,0.0799122 -0.0702861,0.121009 -0.0145128,0.0281614 -0.0504126,0.100873 -0.065941,0.125358l-0.520941 0.00674664c0.00436102,-0.0188699 0.0065953,-0.0114303 0.0065953,-0.0265405 0,-0.00924775 -0.00898888,-0.0131946 -0.0197819,-0.0131946l-0.224204 0 0 -0.105565 -0.0527544 0 0.00827598 0.0459122 0.0194713 0.0592302c-0.0396156,-0.00376362 -0.0295793,-0.061118 -0.0475291,-0.0985471l-0.118695 0 0 0.0197939 -0.3363 0 -0.0757663 -0.289452 0.273534 0.00735997 0.0725921 -0.001609 0.0263772 0.125358c0.0228127,0.0120754 0.0841896,0.0527823 0.1121,0.0527823l0.0197819 0 0 -0.0197939 -0.06295 -0.249769 -0.589893 -0.0130791c0.0316821,0.134909 0.0748582,0.269423 0.109491,0.410629 0.0153373,0.0625358 0.000931944,0.0571234 0.0751569,0.056757 0.0439447,-0.000219047 0.0879453,-7.96533e-006 0.131894,-7.96533e-006 0.0428057,0 0.237391,-0.0155085 0.237391,0.0197899 0,0.0152058 -0.00458803,0.0197939 -0.0197819,0.0197939l-0.422031 0c-0.0305948,0 -0.0623009,-0.213782 -0.0857229,-0.250713l-0.0205705 0.250645 -0.473993 6.77053e-005 -0.0156439 -0.197763 0.00245731 -0.0463503c0,-0.156583 0.0510219,-0.273048 0.105505,-0.376071l-0.0329685 -0.158343 -0.0113665 -0.0143257c-0.00182406,0.0726877 -0.0249713,0.166667 -0.0361785,0.243859 -0.00827598,0.0570039 -0.024812,0.172107 -0.0396275,0.230859 -0.0143535,0.0569243 -0.027572,0.17957 -0.0366246,0.240461 -0.0164285,0.110495 -0.0656503,0.077674 -0.192725,0.077674l0.00110718 -0.00685417 -0.0534872 -0.00864239 -0.000374371 0.0154966 -0.303332 0c-0.232994,0 -0.465988,-3.98267e-006 -0.698982,0 -0.160637,3.98267e-006 -0.132758,-0.0416348 -0.167511,-0.18208 -0.0129357,-0.0522765 -0.0698799,-0.2371 -0.0698799,-0.273163 0,-0.0339164 0.0320047,-0.0593776 0.065941,-0.0593776l0.487968 0c0.0771881,0 0.0646626,0.0352546 0.0857269,0.0791714 0.0149549,-0.0172131 0.0717358,-0.130285 0.0857229,-0.158343 0.0565618,-0.113494 0.0586926,-0.0483177 0.138477,-0.0989693 -0.0126131,-0.017225 -0.0461591,-0.0295155 -0.0461591,-0.0527783 0,-0.0126171 0.0131906,-0.00449643 0.0131906,-0.0263931 0,-0.0695812 -0.0593497,-0.021606 -0.0593497,-0.125354 -0.010335,-0.00757902 -0.0131866,-0.00121471 -0.0131866,-0.0197939l0 -0.00659928c0,-0.0750613 0.12541,-0.171541 0.217605,-0.171541l0.0131906 0c0.0510658,0 0.164855,0.123455 0.164855,0.171541l0 0.046183c0,0.0287987 -0.0348045,0.0869416 -0.0527544,0.0989693l-0.0446218 0.0477203c0.00282371,0.0171812 0.00505799,0.0097416 0.00505799,0.0248518 0,0.0214029 -0.0398705,0.046187 -0.065941,0.046187 -0.0100005,0 -0.00744759,-0.0129755 -0.0329725,-0.0197939l-0.00619703 0.0988896 0.00792551 0.00132225 0.0408343 -0.0566256 0.0384447 0.0676058 0.0113108 0.000967788c0.00215861,-0.025959 0.0395678,-0.0765349 0.0395678,-0.0791714 0,-0.0204629 -0.0196465,-0.0304594 -0.0263772,-0.0593816 0.189001,0 0.257324,0.0400178 0.263585,0.224503 0.00480708,0.141564 0.039747,0.29878 0.039747,0.448464l0.0458524 -0.0141186c0.000306665,-0.168622 0.0145965,-0.347739 0.0266321,-0.513748 0.00444864,-0.0613291 0.00682629,-0.200372 0.019762,-0.250733 0.0250908,-0.0976908 0.085026,-0.150473 0.0923899,-0.178069l0.0395638 -0.131954 -0.00752724 -0.0196146 -0.0386319 -0.00017922 0.0065953 -0.0131946zm-3.09267 -0.230919c0.0229083,0 0.0100642,0.0131946 0.0329725,0.0131946 0.0431482,0 -0.0493811,-0.0725761 0.00659131,-0.0725761 0.0110439,0 0.0716721,0.11022 0.0923222,0.125358l0.0352824 -0.0513923c0.0163011,0.000159307 0.0240633,-0.00154527 0.0240633,0.0184039 0,0.0390421 -0.0461591,0.105063 -0.0461591,0.125354 0,0.0140628 0.014943,0.0320007 0.0197819,0.0527823l-0.0453666 0.0275481c-0.0407427,-0.0223069 -0.165647,-0.113331 -0.165647,-0.166101l0 -0.0395837c0,-0.015385 0.0175954,-0.0329884 0.0329725,-0.0329884l0.0131866 0zm1.06826 -0.125358l0.0854959 0.0145089 0.000227012 0.0184796c0,0.0564822 -0.0329725,0.126593 -0.0329725,0.191335l-0.0593457 -0.00659928 -0.0197819 0c-0.00934732,0.0350156 -0.0362542,0.0575217 -0.0725363,0.0659769l0 0.0329884c0,0.0331278 -0.01885,0.0382854 -0.0329725,0.0593816l-0.065256 -0.0470831 -0.000685019 -0.0518862 -0.0849264 -0.107759 0.00579478 -0.00440085 -0.0329685 0 -0.00647183 0.00424951 -0.0521729 -0.0795538 0.00483097 -0.00456414 0.0210564 -0.0321521 0.0261621 -0.000139393c0,-0.100419 0.0421645,-0.164942 0.138477,-0.164942l0.0131906 0c0.0608711,0 0.0935568,0.0329884 0.131882,0.0329884 0.00180813,0 0.0120516,-0.00454821 0.0197819,-0.00659928l0 0.0725761 0.0131906 0.0131946zm-1.59579 3.85967l7.65585 0 0 -5.68064 -7.65585 0 0 5.68064z"/>
  </g>
 </g>
</svg>
