<?xml version="1.0" encoding="UTF-8"?>
<!DOCTYPE svg PUBLIC "-//W3C//DTD SVG 1.1//EN" "http://www.w3.org/Graphics/SVG/1.1/DTD/svg11.dtd">
<!-- Creator: CorelDRAW -->
<svg xmlns="http://www.w3.org/2000/svg" xml:space="preserve" width="6.9261in" height="6.62983in" style="shape-rendering:geometricPrecision; text-rendering:geometricPrecision; image-rendering:optimizeQuality; fill-rule:evenodd; clip-rule:evenodd"
viewBox="0 0 7.20345 6.89532"
 xmlns:xlink="http://www.w3.org/1999/xlink">
 <defs>
  <style type="text/css">
   <![CDATA[
    .fil11 {fill:#18B8D8}
    .fil5 {fill:#1D293A}
    .fil0 {fill:#26C1F0}
    .fil6 {fill:#2A323A}
    .fil7 {fill:#2D6A5A}
    .fil14 {fill:#383846}
    .fil1 {fill:#3BC7E4}
    .fil8 {fill:#3CA67A}
    .fil4 {fill:#464253}
    .fil3 {fill:#4BC68D}
    .fil12 {fill:#555D6A}
    .fil17 {fill:#5F9AA3}
    .fil16 {fill:#646A74}
    .fil18 {fill:#748C8E}
    .fil13 {fill:#767984}
    .fil15 {fill:#8E939B}
    .fil10 {fill:#94D9EA}
    .fil9 {fill:#B5ECF2}
    .fil20 {fill:#B8B7B9}
    .fil2 {fill:#E5E4E4}
    .fil21 {fill:#F4AB7B}
    .fil19 {fill:#FEBC8F}
   ]]>
  </style>
 </defs>
 <g id="Layer_x0020_1">
  <metadata id="CorelCorpID_0Corel-Layer"/>
  <g id="_117205160">
   <path id="_116979000" class="fil0" d="M3.50812 1.16415l0.170932 -0.0732658 0.0244206 -0.0244206c-0.00983948,-0.0146957 -0.0162845,-0.0143108 -0.0162845,-0.0325649l0 -0.00814019c0,-0.0208746 0.00196134,-0.019679 0.00814429,-0.0325649 -0.00543771,-0.0102817 -0.0162804,-0.0269183 -0.0162804,-0.040701 0,-0.013324 0.00487265,-0.0244247 0.0162804,-0.0244247 0.0213619,0 0.0210793,0.0132954 0.0569731,0.0162804l0.0244206 -0.00814429 0 -0.179096 0 -0.0162804 -0.268606 0.113971 0 0.309352z"/>
   <path id="_116976384" class="fil1" d="M2.38487 1.06646l0.122095 0 0 -0.0244247c0,-0.0499713 -0.0387437,-0.0732658 -0.0895339,-0.0732658l-0.0325608 0 0 0.0976905z"/>
   <path id="_116976288" class="fil2" d="M3.67905 1.09088c0.00292359,0.0122185 0.00178937,0.0244247 0.0162804,0.0244247 0.0191426,0 0.0334943,-0.0162845 0.0406969,-0.0162845 0.0186389,0 0.00946277,0.0027598 0.0314429,0.0082876l0.00925394 0.0324174 0.00208828 -0.0286422 0.0751821 -0.0348046 -0.0169273 0.0440258 0.0291909 -0.0294243 -0.0244206 -0.0244206c0.00558103,-0.00993365 0.00814429,-0.00870935 0.00814429,-0.0244247l0.000868069 -0.0672712 -0.0985463 -0.0304193c-0.0358938,-0.00298501 -0.0356113,-0.0162804 -0.0569731,-0.0162804 -0.0114077,0 -0.0162804,0.0111006 -0.0162804,0.0244247 0,0.0137826 0.0108427,0.0304193 0.0162804,0.040701 -0.00618294,0.0128859 -0.00814429,0.0116903 -0.00814429,0.0325649l0 0.00814019c0,0.018254 0.006445,0.0178691 0.0162845,0.0325649l-0.0244206 0.0244206z"/>
   <path id="_117935952" class="fil3" d="M3.7523 0.944344l0.0985463 0.0304193 -0.000868069 0.0672712c0,0.0157153 -0.00256326,0.014491 -0.00814429,0.0244247l0.0244206 0.0244206 0.170928 0.0732658 -0.00163377 -0.305871 -0.258828 -0.117451 0 0.0162804 0 0.179096 -0.0244206 0.00814429z"/>
   <path id="_116976192" class="fil4" d="M2.14069 0.960624l0.0408566 0.00317746 0.349836 -0.0194578 0 0.0325608 0.0252805 0.00446728 -0.0252805 0.00367701 0 0.0895503 -0.31506 0.00336991 0.0366841 0.0627098 -0.00762426 0.0048358 -0.039579 -0.0709155c-0.013885,0.00370567 -0.0325567,0.00945458 -0.0325567,0.0244206 0,0.0659773 0.200667,0.130255 0.276742,0.130255l0.0895339 0c0.0698631,0 0.130231,-0.099271 0.130231,-0.17096l0 -0.0651256 0.048837 0c-0.0411145,0.0857013 0.0431537,0.236086 0.146511,0.236086l0.0813978 0c0.0635246,0 0.178859,-0.0485586 0.219838,-0.0731962 0.0602693,-0.0362296 0.0731798,-0.132835 0.0706944,-0.224027l-0.0710588 -0.044771 0.00842682 -0.0406272 -0.0162763 0 -0.00279256 0.0285275 -0.216976 -0.142502c-0.0257145,0.0123454 -0.122091,0.0363074 -0.122091,0.0651297 0,0.0190566 0.0135042,0.0325649 0.0325567,0.0325649l0.00814429 0c0.0124805,0 0.0623331,-0.0333961 0.0748095,-0.0428547l0.185648 0.140545 -0.854642 0c0.0145279,-0.012632 0.183429,-0.138396 0.187208,-0.138396 0.0251535,0 0.0395053,0.040705 0.0895339,0.040705 0.0157235,0 0.0325567,-0.0145156 0.0325567,-0.0244247 0,-0.0281058 -0.0998566,-0.0732699 -0.122091,-0.0732699 -0.0236344,0 -0.137519,0.0863687 -0.164442,0.104185 -0.0330357,0.0218573 -0.141602,0.0845835 -0.144857,0.123761z"/>
   <path id="_116976120" class="fil5" d="M3.67905 1.09088l-0.170932 0.0732658 0.260253 0.137961 0.268815 -0.137961 -0.170928 -0.0732658 -0.0291909 0.0294243 0.0169273 -0.0440258 -0.0751821 0.0348046 -0.00208828 0.0286422 -0.00925394 -0.0324174c-0.0219802,-0.0055278 -0.012804,-0.0082876 -0.0314429,-0.0082876 -0.00720251,0 -0.0215543,0.0162845 -0.0406969,0.0162845 -0.014491,0 -0.0133568,-0.0122062 -0.0162804,-0.0244247z"/>
   <path id="_117935736" class="fil4" d="M4.65579 0.993189c0,0.0295143 0.0068299,0.0454385 0.0162763,0.0651256 -0.0514494,0.0768445 -0.341855,0.356821 -0.341855,0.423331 0,0.0438661 0.0438416,0.0976864 0.0895339,0.0976864 0.10873,0 0.332229,-0.272811 0.423396,-0.334751l0.0731102 0.00911882c0.0263328,0.00394316 0.0490664,-0.0543239 0.0895339,-0.0651297 0.00109328,-0.0491769 0.0244165,-0.0422405 0.0244165,-0.0895503 0,-0.0434812 -0.181856,-0.219806 -0.219765,-0.217087l-0.048837 -0.00271886c-0.00492179,0.0450372 -0.10581,0.0772868 -0.10581,0.113975z"/>
   <path id="_116976048" class="fil6" d="M2.25464 1.71773l0 0.0162804c0,0.0438497 0.0371468,0.0814101 0.0813978,0.0814101l0.0325567 0c0.0400171,0 0.0651174,-0.0496437 0.0586765,-0.0997214l-0.0147572 0.0433789 -0.00321841 -0.0332036 -0.0244206 0c-0.00201867,0.0242773 -0.00585127,0.040701 -0.0325567,0.040701l-0.0162804 0c-0.0190525,0 -0.0325567,-0.0135083 -0.0325567,-0.0325649l0 -0.0081361c0,-0.0229956 0.0186799,-0.0314143 0.0330235,-0.0424862l0.028114 0.00846367 0.0202563 -0.0473875c-0.0218246,-0.00522889 -0.0153427,-0.00814429 -0.0325567,-0.00814429 -0.0525427,0 -0.0976782,0.0304766 -0.0976782,0.0814101z"/>
   <path id="_116975976" class="fil0" d="M2.25464 1.71773c0,-0.0509335 0.0451355,-0.0814101 0.0976782,-0.0814101 0.017214,0 0.0107321,0.0029154 0.0325567,0.00814429l-0.0202563 0.0473875 -0.028114 -0.00846367c-0.0143436,0.011072 -0.0330235,0.0194906 -0.0330235,0.0424862l0 0.0081361c0,0.0190566 0.0135042,0.0325649 0.0325567,0.0325649l0.0162804 0c0.0267054,0 0.030538,-0.0164237 0.0325567,-0.040701l0.0244206 0 0.00321841 0.0332036 0.0147572 -0.0433789c0.00644091,0.0500777 -0.0186594,0.0997214 -0.0586765,0.0997214l-0.0325567 0c-0.044251,0 -0.0813978,-0.0375603 -0.0813978,-0.0814101l0 -0.0162804zm-0.09767 -0.0244247l0 0.0651297c0,0.0720906 0.0844279,0.154676 0.162792,0.154676l0.0651133 0c0.0677912,0 0.146511,-0.0889033 0.146511,-0.16282l0 -0.0569854c0,-0.0800343 -0.0955653,-0.154672 -0.187208,-0.154672 -0.0903815,0 -0.187208,0.077774 -0.187208,0.154672z"/>
   <path id="_117937752" class="fil7" d="M5.72206 1.81542l-0.08184 0.000171976 -0.00769387 -0.0245966 -0.0244206 0c-0.00952828,0.0180165 -0.0244165,0.0397182 -0.0244165,0.0651297l0 0.0732699c0,0.0507984 0.0232904,0.0895462 0.0732535,0.0895462l0.00814019 0c0.05805,0 0.0732576,-0.0472893 0.0732576,-0.105831l0 -0.040705c0,-0.0300917 -0.0041438,-0.0395176 -0.0162804,-0.0569854z"/>
   <path id="_116975904" class="fil6" d="M5.45346 1.79099c-0.0219556,0.0190893 -0.0569772,0.0490704 -0.0569772,0.0895503l0 0.0569854c0,0.0457333 0.0356727,0.0814101 0.0813978,0.0814101l0.0162804 0c0.0226681,0 0.0569772,-0.0343092 0.0569772,-0.0569854l0 -0.040705c0,-0.0585946 -0.0588854,-0.0713659 -0.105814,-0.0488452 0.00886495,-0.0380517 0.030755,-0.0534517 0.0732535,-0.0569854l0 -0.0244247 -0.0651174 0z"/>
   <path id="_116966232" class="fil8" d="M5.72206 1.81542c0.0121366,0.0174678 0.0162804,0.0268937 0.0162804,0.0569854l0 0.040705c0,0.0585414 -0.0152076,0.105831 -0.0732576,0.105831l-0.00814019 0c-0.0499631,0 -0.0732535,-0.0387478 -0.0732535,-0.0895462l0 -0.0732699c0,-0.0254115 0.0148882,-0.0471132 0.0244165,-0.0651297l-0.0895339 0 0 0.0244247c-0.0424985,0.00353369 -0.0643886,0.0189337 -0.0732535,0.0569854 0.0469289,-0.0225206 0.105814,-0.00974939 0.105814,0.0488452l0 0.040705c0,0.0226762 -0.0343092,0.0569854 -0.0569772,0.0569854l-0.0162804 0c-0.0457251,0 -0.0813978,-0.0356768 -0.0813978,-0.0814101l0 -0.0569854c0,-0.0404798 0.0350217,-0.070461 0.0569772,-0.0895503l-0.11395 0.00814429c-0.0146876,-0.00983948 -0.0143068,-0.0162804 -0.0325608,-0.0162804l-0.048833 0c-0.0244738,0 -0.031881,0.0253009 -0.0617189,0.0359593 -0.0280771,0.0100278 -0.0527311,0.0144132 -0.0817336,0.0240807 -0.050954,0.0169847 -0.112005,0.0372492 -0.123393,0.0836744l0.0308001 0.0191016 0 0.0488411c0.0833018,0.0557939 0.250884,0.0895544 0.390696,0.0895544l0.0325567 0c0.00520432,0.0223528 0.0162804,0.0330849 0.0162804,0.0488452 0,0.0157563 -0.0110761,0.0264884 -0.0170133,0.0474694l0.0841822 -0.0426459 -0.0753131 -0.0536688c0.132446,0 0.2173,-0.000610105 0.332106,-0.0179019 0.0601997,-0.00906558 0.237658,-0.0625828 0.237658,-0.120494 0,-0.0186512 -0.00275571,-0.00946686 -0.0081361,-0.0325649 -0.0182581,0.00425436 -0.0187126,0.00814019 -0.0406969,0.00814019 -0.118749,0 -0.0578903,-0.146536 -0.130235,-0.146536l-0.0162763 0c-0.0249734,0 -0.0351936,0.0200843 -0.0407296,0.0409958l-0.0650847 -0.000290721z"/>
   <path id="_117937824" class="fil9" d="M3.84998 1.89682l0.0769142 0.115195 0.00447547 -0.0175047c0.0780361,0.057182 0.067087,0.0787076 0.178986,0.130345 0.0888747,0.0410121 0.163529,0.0243346 0.27589,0.0217754l0.048317 -0.0177012 0.00961017 -0.00145361 -0.0976864 -0.149246 0.0162804 0 -0.050782 -0.055929 -0.00619523 0.00708786c0.00921299,0.0384898 -0.0346163,0.0721398 -0.0816681,0.0669314l-0.075178 -0.0134264 0.0248137 -0.015658 0.0104823 -0.00311604 -0.0664891 -0.0967405 -0.00731307 0.00502006 0 -0.0732658c0,-0.0414748 -0.106731,-0.0639996 -0.146507,-0.0732658 0.0122062,0.0182294 0.0325608,0.0285971 0.0325608,0.0488411l0 0.040705c-0.0927974,0.0020678 -0.0545245,0.0651256 -0.0976782,0.0651256l-0.048833 0 0 0.0162804z"/>
   <path id="_116966304" class="fil10" d="M4.47672 2.20618l0.0406928 0.040705c-0.0174555,-0.0749364 -0.102309,-0.233592 -0.154647,-0.268651l-0.0162804 0 0.0976864 0.149246 -0.00961017 0.00145361 -0.048317 0.0177012c-0.112362,0.00255916 -0.187016,0.0192367 -0.27589,-0.0217754 -0.111899,-0.0516378 -0.10095,-0.0731634 -0.178986,-0.130345l-0.00447547 0.0175047 -0.0769142 -0.115195c-0.0363442,0.0418188 -0.0418761,0.100512 -0.104156,0.105417l-0.00979853 -0.0402874c0.00769387,-0.0114937 0.0406969,-0.0431618 0.0406969,-0.0488452 0,-0.0189829 -0.0217181,-0.040705 -0.0406969,-0.040705l-0.00814019 0c-0.0267054,0 -0.030538,0.0164237 -0.0325567,0.040705 -0.0522561,-0.00116288 -0.0611825,-0.0244206 -0.0976782,-0.0244206 -0.0219802,0 -0.0224388,0.00388584 -0.0406928,0.0081361l0 0.0162845c0.0887477,0.020678 0.122209,0.0389443 0.143125,0.133638 0.0287445,0.130137 0.0787568,0.0693595 0.133617,0.15129 0,0.0810743 0.0406969,0.112501 0.0406969,0.15468l0 0.00814019c0,0.0300753 -0.0244165,0.0671279 -0.0244165,0.122111 0,0.0457456 0.0577675,0.00677257 0.0751166,-0.00627302 0.047019,-0.0353615 0.00997051,-0.0530423 0.0551142,-0.0832732 0.0323315,0.00269019 0.0196052,0.00814019 0.0406928,0.00814019 0.034301,0 0.0389157,-0.0162804 0.0813978,-0.0162804l0.0081361 0c0.0229915,0 0.0314061,0.0186758 0.0416755,0.0327082l-0.00911063 0.0731225c-0.00612152,0.0407992 0.0651133,0.0501924 0.0651133,0.0895503l0 0.00814019c0,0.0329293 -0.040701,0.0322004 -0.040701,0.0651256l0 0.00814429c0,0.0311235 -0.00249365,0.00296044 0.013582,0.0276758l0.0433952 -0.0765252c0.0821185,0 0.040701,-0.04559 0.040701,-0.122111 0.0102776,-0.00544181 0.0269101,-0.0162804 0.0406969,-0.0162804 0.0342969,0 0.0389116,0.0162804 0.0813937,0.0162804 0.0217672,0 0.0240725,-0.0117517 0.0325608,-0.0244247 -0.00927032,-0.017517 -0.0325608,-0.0438661 -0.0325608,-0.0569854 0,-0.0437965 0.0244165,-0.0338137 0.0244165,-0.0976905 0.0324502,0.00270248 0.040701,0.0155433 0.040701,0.0488452l0 0.0488452c0.0122103,-0.00292359 0.0244206,-0.00178937 0.0244206,-0.0162804 0,-0.0468429 -0.0244206,-0.067177 -0.0244206,-0.0895503 0,-0.0456186 0.0162763,-0.0499795 0.019941,-0.115195l0.00447956 0.0175047z"/>
   <path id="_116966400" class="fil11" d="M3.01161 2.39342l0 0.0976905c0.0299197,-0.0344279 0.0585783,-0.128433 0.071632,-0.180726 0.0107403,-0.0430595 0.0176071,-0.0612193 0.0307755,-0.0994717 0.0141962,-0.0412455 0.00542543,-0.0826385 0.016612,-0.113635 0.0297682,-0.0824829 0.179137,-0.217079 0.256379,-0.258619l0.0213864 0.0176603 0.00996641 0.0831872 0.0733764 0.00622389 0.015527 0.0289493 0.0934197 -0.024396 0.0620833 0.060515c0,0.134424 0.0569772,0.162706 0.0569772,0.170956 0,0.0187617 -0.00566701,0.0244247 -0.0244165,0.0244247l-0.130235 0c-0.101318,0 -0.0651133,-0.102338 -0.0651133,-0.187241 -0.0251986,0.0289943 -0.0651174,0.070072 -0.0651174,0.122115 0,0.0581974 0.0678649,0.109802 0.113954,0.122111 -0.024437,0.0915198 -0.194943,0.0399598 -0.219769,0.146536l0.00176071 0.0541683 0.0324952 0.014925 0.732138 0.288969 -0.00941773 -0.105691c0.0418638,0.0111784 0.048833,0.0620137 0.048833,0.113971 0,0.0219883 -0.00388584,0.0224469 -0.0081361,0.040705 0.0159897,0.00846367 0.0239988,0.0162804 0.048837,0.0162804l0.0325567 0c-0.00522889,-0.0218327 -0.00814019,-0.0153468 -0.00814019,-0.0325608 0,-0.0438743 0.0356031,-0.0488493 0.0819178,-0.0481123l0.0477888 -0.0340348 0.00695274 0.00456145 -0.0467651 0.0927974 0.138011 0.0417738c0.00676438,-0.0290312 0.049009,-0.102092 0.064106,-0.147551 0.0180493,-0.0543403 0.033568,-0.106953 0.033568,-0.178085l0 -0.130255c0,-0.0757062 -0.0356399,-0.138744 -0.048833,-0.195381l-0.00447956 -0.0175047c-0.00366472,0.0652157 -0.019941,0.0695765 -0.019941,0.115195 0,0.0223732 0.0244206,0.0427073 0.0244206,0.0895503 0,0.014491 -0.0122103,0.0133568 -0.0244206,0.0162804l0 -0.0488452c0,-0.0333019 -0.00825075,-0.0461428 -0.040701,-0.0488452 0,0.0638767 -0.0244165,0.053894 -0.0244165,0.0976905 0,0.0131193 0.0232904,0.0394685 0.0325608,0.0569854 -0.00848824,0.012673 -0.0107935,0.0244247 -0.0325608,0.0244247 -0.0424821,0 -0.0470968,-0.0162804 -0.0813937,-0.0162804 -0.0137867,0 -0.0304193,0.0108386 -0.0406969,0.0162804 0,0.0765211 0.0414175,0.122111 -0.040701,0.122111l-0.0433952 0.0765252c-0.0160756,-0.0247154 -0.013582,0.00344771 -0.013582,-0.0276758l0 -0.00814429c0,-0.0329252 0.040701,-0.0321963 0.040701,-0.0651256l0 -0.00814019c0,-0.0393579 -0.0712349,-0.0487511 -0.0651133,-0.0895503l0.00911063 -0.0731225c-0.0102694,-0.0140324 -0.0186839,-0.0327082 -0.0416755,-0.0327082l-0.0081361 0c-0.0424821,0 -0.0470968,0.0162804 -0.0813978,0.0162804 -0.0210875,0 -0.0083613,-0.00545 -0.0406928,-0.00814019 -0.0451437,0.0302309 -0.00809515,0.0479117 -0.0551142,0.0832732 -0.0173491,0.0130456 -0.0751166,0.0520186 -0.0751166,0.00627302 0,-0.0549831 0.0244165,-0.0920357 0.0244165,-0.122111l0 -0.00814019c0,-0.0421791 -0.0406969,-0.0736057 -0.0406969,-0.15468 -0.0548603,-0.0819301 -0.104873,-0.021153 -0.133617,-0.15129 -0.0209155,-0.0946932 -0.0543771,-0.112959 -0.143125,-0.133638l0 -0.0162845c0.018254,-0.00425026 0.0187126,-0.0081361 0.0406928,-0.0081361 0.0364957,0 0.0454221,0.0232577 0.0976782,0.0244206 0.00201867,-0.0242814 0.00585127,-0.040705 0.0325567,-0.040705l0.00814019 0c0.0189788,0 0.0406969,0.0217222 0.0406969,0.040705 0,0.00568339 -0.033003,0.0373515 -0.0406969,0.0488452l0.00979853 0.0402874c0.0622798,-0.00490541 0.0678117,-0.0635983 0.104156,-0.105417l0 -0.0162804 0.048833 0c0.0431537,0 0.00488084,-0.0630578 0.0976782,-0.0651256l0 -0.040705c0,-0.020244 -0.0203546,-0.0306117 -0.0325608,-0.0488411l-0.170928 -0.0244247 -0.0244206 0c-0.376959,0 -0.756972,0.332646 -0.756972,0.691974z"/>
   <path id="_117936528" class="fil12" d="M1.81517 2.0516l-0.0407583 -0.00823846c-0.0141962,0.00950781 -0.0406969,0.026341 -0.0406969,0.0488452l0 0.358197 -0.0162763 0 -0.00393088 -0.249672 -0.0567889 0.0409589 0.00123659 0.00824256 -0.0442797 -0.036336 0.00608467 -0.00741953 -0.0162763 0 0 0.439607c0,0.022926 -0.00352551,0.0150725 -0.0217386,0.0270002l-0.0555236 -0.113565 -0.0501678 0.0389894 0.00533944 0.00687085c-0.131754,-0.0632298 -0.00931126,0.16368 0.00648185,0.188895 0.0172713,0.0275612 0.140029,0.196675 0.140029,0.201867l0 0.0895503c0.0182499,0.00425436 0.0187126,0.00814019 0.0406928,0.00814019l0.309299 0c0.018254,0 0.0178691,-0.00644091 0.0325608,-0.0162804 0,-0.127049 0.0732576,-0.254668 0.0732576,-0.423327l0.00187126 -0.211862 -0.0148104 -0.109717 -0.0446195 0.0524363 0.00809105 -0.00701825 -0.048837 -0.0488493 -0.00751371 0.0075178 0 0.130251 -0.0081361 0 -0.000241585 -0.259229 0.0471378 0.00894684 0.00194087 -0.0102244c-0.0320244,-0.00855375 -0.0412128,-0.0261199 -0.0570223,-0.0488002 -0.0154533,-0.0221603 -0.0399475,-0.0274506 -0.0650683,-0.0407501 -0.0598967,0.113213 -0.040701,0.178101 -0.040701,0.341921l-0.0081361 0 0 -0.374482 0.0179633 -0.000700187 -0.019724 -0.0509663 -0.0307386 0.0191999z"/>
   <path id="_116966496" class="fil5" d="M5.2246 2.61159l-0.00718613 0.0911841c-0.00313651,0.0251289 0.0227172,0.0585578 0.0325567,0.0732658 0.0788427,0 0.0569772,0.0136189 0.0569772,0.0976905 0.0350995,0.052424 0.0825279,0.17096 0.162796,0.17096l0.0081361 0c0.0370117,0 0.0651174,-0.0588731 0.0651174,-0.0976905 0,-0.0587134 -0.0341618,-0.244226 -0.0732535,-0.244226l-0.0232004 -0.000409466 -0.0142781 -0.0395135 -0.0194988 0.0480591c0,-0.0828228 -0.0111907,-0.0253419 -0.0604086,-0.0531569 -0.0245803,-0.013885 -0.058353,-0.0466259 -0.065056,-0.0828596l-0.0627016 0.0366964z"/>
   <path id="_116966616" class="fil10" d="M3.01161 2.39342c-0.0252845,0.0398534 -0.00362787,0.218237 0.00942182,0.259221 0.0160224,0.0503193 0.0929284,0.146912 0.0963884,0.188526 0.0473753,0.00105642 0.0851199,0.0216526 0.114839,0.0398206 0.0444435,0.027164 0.0998443,0.0160634 0.0823478,0.0531405l0.305945 0.111141 0.00965931 0.0238432c0.161952,0 0.246306,0.103984 0.368917,0.120616l-0.0758946 0.0340594c0.0797722,0 0.141168,-0.0168454 0.187204,-0.0488452l-0.0325567 0c0.0285807,-0.039014 0.180444,-0.0920357 0.24638,-0.190721l-0.0280034 -0.015052 0.0176685 -0.0140324c-0.0679509,0.00151503 -0.0898287,0.0569854 -0.146511,0.0569854l-0.0162763 0c-0.00317746,0 -0.36463,-0.149906 -0.403468,-0.166321 -0.0569486,-0.0240684 -0.383478,-0.158529 -0.418622,-0.159311 0.0139055,-0.0596715 0.0569772,-0.0591884 0.0552165,-0.141213l-0.030796 0.0190975 -0.0594996 -0.000773891 -0.0218983 0.082184c-0.0229096,-0.000507738 -0.0813896,-0.0160306 -0.0813896,-0.0325649 0,-0.0557939 0.0380189,-0.0743591 0.0804438,-0.0904962 0.0726434,-0.0276349 0.0245188,-0.0603676 0.0579231,-0.113025 0.0248259,-0.106576 0.195332,-0.0550159 0.219769,-0.146536 -0.0460895,-0.0123086 -0.113954,-0.0639136 -0.113954,-0.122111 0,-0.0520432 0.0399189,-0.0931208 0.0651174,-0.122115 0,0.0849028 -0.036205,0.187241 0.0651133,0.187241l0.130235 0c0.0187495,0 0.0244165,-0.00566292 0.0244165,-0.0244247 0,-0.00825075 -0.0569772,-0.0365326 -0.0569772,-0.170956l-0.0620833 -0.060515 -0.0934197 0.024396 -0.015527 -0.0289493 -0.0733764 -0.00622389 -0.00996641 -0.0831872 -0.0213864 -0.0176603c-0.0772417,0.0415404 -0.226611,0.176136 -0.256379,0.258619 -0.0111866,0.0309966 -0.00241585,0.0723896 -0.016612,0.113635 -0.0131684,0.0382523 -0.0200352,0.0564122 -0.0307755,0.0994717 -0.0130538,0.0522929 -0.0417123,0.146298 -0.071632,0.180726l0 -0.0976905z"/>
   <path id="_116901080" class="fil1" d="M3.32905 2.4097c-0.0334043,0.0526574 0.0147203,0.0853901 -0.0579231,0.113025 -0.0424248,0.0161371 -0.0804438,0.0347023 -0.0804438,0.0904962 0,0.0165343 0.05848,0.0320571 0.0813896,0.0325649l0.0218983 -0.082184 0.0594996 0.000773891 0.030796 -0.0190975c0.00176071,0.0820243 -0.0413111,0.0815411 -0.0552165,0.141213 0.0351445,0.000782081 0.361673,0.135243 0.418622,0.159311 0.0388379,0.0164155 0.40029,0.166321 0.403468,0.166321l0.0162763 0c0.0566824,0 0.0785602,-0.0554704 0.146511,-0.0569854l-0.0176685 0.0140324 0.0280034 0.015052c-0.0659364,0.0986855 -0.217799,0.151707 -0.24638,0.190721l0.0325567 0c0.17915,-0.041741 0.439538,-0.385988 0.439538,-0.618704l0 -0.15468c0,-0.0350749 -0.0213987,-0.131406 -0.0325608,-0.154676l-0.0406928 -0.040705c0.013193,0.0566374 0.048833,0.119675 0.048833,0.195381l0 0.130255c0,0.0711325 -0.0155188,0.123745 -0.033568,0.178085 -0.015097,0.045459 -0.0573417,0.11852 -0.064106,0.147551l-0.138011 -0.0417738 0.0467651 -0.0927974 -0.00695274 -0.00456145 -0.0477888 0.0340348c-0.0463147,-0.000737039 -0.0819178,0.00423798 -0.0819178,0.0481123 0,0.017214 0.00291131,0.010728 0.00814019,0.0325608l-0.0325567 0c-0.0248382,0 -0.0328474,-0.00781671 -0.048837,-0.0162804 0.00425026,-0.0182581 0.0081361,-0.0187167 0.0081361,-0.040705 0,-0.0519572 -0.00696912,-0.102792 -0.048833,-0.113971l0.00941773 0.105691 -0.732138 -0.288969 -0.0324952 -0.014925 -0.00176071 -0.0541683z"/>
   <path id="_117935784" class="fil6" d="M5.16858 2.85745c0.0107853,-0.0463147 0.026947,-0.0624805 0.0727335,-0.072926l-0.0320366 -0.0573335 -0.130231 0 0 -0.0325608 0.122091 0 0 -0.0244247 -0.117861 -0.00197363 -0.0286504 -0.0468675 0 0.0325608 -0.0325567 0c-0.0403242,0 -0.015961,-0.0357177 -0.0651174,-0.0488452l0.00140037 -0.0130251 0.0333797 -0.0143723 -0.00300548 -0.00952828 -0.0968879 0.0206453c0.0203914,-0.0278437 0.0814388,-0.0353328 0.0406969,-0.0488452 -0.117767,0.0274424 -0.203488,0.258255 -0.203488,0.415182 0,0.0543075 0.0180042,0.105835 0.0732576,0.105835l0.0081361 0c0.0805134,0 0.141164,-0.106547 0.170928,-0.16282 0.0189665,0.0127057 0.0424903,0.0325649 0.0732576,0.0325649 0.0330603,0 0.0560805,-0.0331094 0.0569772,-0.0732658l0.0569772 0z"/>
   <path id="_116977080" class="fil13" d="M5.35236 2.65776c0.0492179,0.027815 0.0604086,-0.0296658 0.0604086,0.0531569l0.0194988 -0.0480591 0.0142781 0.0395135 0.0232004 0.000409466c0.0390918,0 0.0732535,0.185513 0.0732535,0.244226 0,0.0388174 -0.0281058,0.0976905 -0.0651174,0.0976905l-0.0081361 0c-0.0802677,0 -0.127696,-0.118536 -0.162796,-0.17096 0,-0.0840716 0.0218655,-0.0976905 -0.0569772,-0.0976905 -0.00983948,-0.014708 -0.0356932,-0.0481369 -0.0325567,-0.0732658l0.00718613 -0.0911841 0.0627016 -0.0366964c0.00670296,0.0362337 0.0404757,0.0689746 0.065056,0.0828596zm-0.183777 0.199697c0.00954466,0.0409917 0.0316804,0.0732658 0.0813896,0.0732658 0.0144705,0 0.0452665,-0.0247154 0.0569772,-0.0325649 0.0174842,0.075047 0.0982514,0.16282 0.191876,0.16212l-0.00626483 0.031316 0.0082098 0.00104004 0.0666447 -0.12121 -0.0162763 0 0 -0.0569854c0,-0.14821 -0.10111,-0.382618 -0.236045,-0.382618 -0.0730365,0 -0.0915444,0.0488452 -0.138375,0.0488452l-0.0651133 0c-0.0550118,0 -0.1097,-0.0847268 -0.179068,-0.040705 0.0407419,0.0135124 -0.0203054,0.0210015 -0.0406969,0.0488452l0.0968879 -0.0206453 0.00300548 0.00952828 -0.0333797 0.0143723 -0.00140037 0.0130251c0.0491564,0.0131275 0.0247932,0.0488452 0.0651174,0.0488452l0.0325567 0 0 -0.0325608 0.0286504 0.0468675 0.117861 0.00197363 0 0.0244247 -0.122091 0 0 0.0325608 0.130231 0 0.0320366 0.0573335c-0.0457865,0.0104455 -0.0619482,0.0266112 -0.0727335,0.072926z"/>
   <path id="_116976984" class="fil14" d="M2.50697 3.33776l0.0162763 -0.0488411c-0.012067,-0.0138932 -0.0162763,-0.0141471 -0.0162763,-0.040705 0,-0.0509049 0.128028,-0.138396 0.195344,-0.138396l0.0732576 0c0.0694291,0 0.195344,0.0829006 0.195344,0.146532l0 0.00814429c0,0.0182499 -0.00644091,0.0178691 -0.0162763,0.0325608 0.0242445,0.0278969 0.0406969,0.0798664 0.0406969,0.130255 0,0.0406436 -0.0129637,0.0832895 -0.0325567,0.105835 0.00317746,-0.0381664 0.0162804,-0.0402628 0.0162804,-0.0814101l0 -0.0569854c0,-0.0474367 -0.0287404,-0.103206 -0.0569772,-0.122115l0.000569158 0.0322373 0.0238514 0.0491728c-0.0157685,0.00756284 -0.0853614,0.0325608 -0.105814,0.0325608 -0.0110187,0 -0.0045287,-0.00879124 -0.0325608,-0.0162804 0.00425436,0.0182581 0.00814019,0.0187167 0.00814019,0.040705l0 0.0244247c0,0.0238596 -0.0412578,0.0651215 -0.0651174,0.0651215l-0.0325567 0c-0.0297232,0 -0.048837,-0.0551838 -0.048837,-0.0895462l-0.00176071 -0.0435222 -0.0313815 0.0210875 -0.105229 -0.0345508c0.0133322,-0.0572475 0.0978379,-0.132991 0.162792,-0.1384l0 -0.0244165c-0.113258,0 -0.140525,0.0928178 -0.187208,0.146532zm-0.146511 0.0325649l0 0.0488452 0.0162804 0 0 0.040705c0,0.106195 -0.00712471,0.102047 0.0552452,0.180829 0.0113299,0.0143027 0.125108,0.09871 0.148239,0.104099 0.000651051,0.0291294 0.00357055,0.0569895 0.0325567,0.0569895l0.252325 0c0.0190525,0 0.0325567,-0.0135083 0.0325567,-0.0325649l0 -0.0244247c0.0872122,-0.0203177 0.219765,-0.157473 0.219765,-0.276787l0 -0.00814019c0,-0.0323397 -0.0325567,-0.0246458 -0.0325567,-0.0569854l0 -0.0162845c0,-0.0298829 0.0126157,-0.0393497 0.0244206,-0.0569854 -0.0259069,-0.111232 -0.0743714,-0.125448 -0.144345,-0.189407 -0.0565637,-0.0516992 -0.149226,-0.0792399 -0.254487,-0.0792399 -0.139653,0 -0.35,0.17058 -0.35,0.309352z"/>
   <path id="_117936360" class="fil15" d="M2.50697 3.33776c0.0466833,-0.0537138 0.0739496,-0.146532 0.187208,-0.146532l0 0.0244165c-0.0649536,0.00540905 -0.149459,0.0811521 -0.162792,0.1384l0.105229 0.0345508 0.0313815 -0.0210875 0.00176071 0.0435222c0,0.0343624 0.0191139,0.0895462 0.048837,0.0895462l0.0325567 0c0.0238596,0 0.0651174,-0.0412619 0.0651174,-0.0651215l0 -0.0244247c0,-0.0219883 -0.00388584,-0.0224469 -0.00814019,-0.040705 0.0280321,0.00748914 0.021542,0.0162804 0.0325608,0.0162804 0.0204528,0 0.0900457,-0.0249979 0.105814,-0.0325608l-0.0238514 -0.0491728 -0.000569158 -0.0322373c0.0282368,0.0189092 0.0569772,0.0746785 0.0569772,0.122115l0 0.0569854c0,0.0411473 -0.0131029,0.0432437 -0.0162804,0.0814101 0.019593,-0.0225452 0.0325567,-0.0651911 0.0325567,-0.105835 0,-0.0503889 -0.0164524,-0.102358 -0.0406969,-0.130255 0.00983538,-0.0146917 0.0162763,-0.0143108 0.0162763,-0.0325608l0 -0.00814429c0,-0.0636311 -0.125915,-0.146532 -0.195344,-0.146532l-0.0732576 0c-0.0673163,0 -0.195344,0.0874907 -0.195344,0.138396 0,0.026558 0.00420931,0.0268119 0.0162763,0.040705l-0.0162763 0.0488411z"/>
   <path id="_116976888" class="fil12" d="M4.56626 3.46802l0 0.0162804c0,0.0297518 0.0224592,0.0651297 0.048833,0.0651297l0.0244206 0c0.0312218,0 0.0569772,-0.0234952 0.0569772,-0.0488493l0 -0.0162804c0,-0.0328842 -0.0177217,-0.0569854 -0.0488411,-0.0569854 -0.0219802,0 -0.0224388,0.00388993 -0.0406969,0.00814429 0.00879943,-0.0329539 0.0244656,-0.0398001 0.0651174,-0.040705l0 -0.0325649c-0.06696,0 -0.10581,0.0399803 -0.10581,0.105831z"/>
   <path id="_116976792" class="fil16" d="M4.72091 3.41103l0 0.0814101c0,0.0274301 0.0143846,0.0569854 0.0406969,0.0569854l0.0244206 0c0.0312259,0 0.0569772,-0.0234952 0.0569772,-0.0488493l0 -0.0732658c0,-0.0348374 -0.0250921,-0.0651256 -0.0569772,-0.0651256 -0.0297477,0 -0.0651174,0.0224674 -0.0651174,0.0488452z"/>
   <polygon id="_117936144" class="fil0" points="4.58253,3.96461 4.75161,3.87043 4.58253,3.78551 "/>
   <path id="_116976696" class="fil6" d="M4.28137 4.05416l0.0257022 -0.000135124 -0.00949962 -0.105302 0.0489148 0.0077471 0 -0.252366c-0.0245803,-0.00572843 -0.048837,-0.00470886 -0.048837,-0.0325649l0.000270248 -0.0337974 0.0485668 0.00937678 0 -0.0244247c0,-0.0320858 -0.12899,-0.0643722 -0.162792,-0.0651256l-0.00143723 0.459126 0.0991113 0.0374662z"/>
   <path id="_116904632" class="fil17" d="M4.81044 3.63083l0.0266358 0 -0.00221521 0.0651297 0 0.040705 0.0162763 0 0 0.227942c0,0.0282859 -0.0162763,0.0124232 -0.0162763,0.040705l0 0.040701 0.0325567 0 0 0.040705 0.11395 -0.0244165 0 -0.0569895 0.0162804 0 0 -0.0569854 -0.0325567 0 0 -0.252366c0.0146016,-0.00121612 0.0345426,-0.000393088 0.0344075,-0.0165138l-0.00987633 -0.0889566 0.12198 -0.0329252c-0.0247522,-0.0467856 -0.101883,-0.0961509 -0.170932,-0.0976905l0 0.113975c0,0.033998 0.0247604,0.0651256 -0.0162763,0.0651256l-0.00814019 0c-0.0182499,0 -0.0178691,-0.006445 -0.0325935,-0.017173l-0.0732208 0.00902873z"/>
   <path id="_116905760" class="fil6" d="M4.58253 3.78551l0.169073 0.0849192 -0.169073 0.0941814 0 -0.179101zm-0.048837 -0.146532l-0.000372614 0.04213 0.0329334 0.00671115 0 0.0569854 -0.0488411 0 0 0.25237 0.0488411 0 0 0.0651297 -0.0325608 0 0 0.0325608c0.0254606,0.00211694 0.0289124,0.00814019 0.0569731,0.00814019l0.122504 0.00324297 0.154242 -0.0195274 0 -0.040705 -0.0325567 0 0 -0.040701c0,-0.0282818 0.0162763,-0.0124191 0.0162763,-0.040705l0 -0.227942 -0.0162763 0 0 -0.040705 0.00221521 -0.0651297 -0.0266358 0 -0.276742 0.00814429z"/>
   <path id="_116906528" class="fil18" d="M4.1837 3.55757c0.0338014,0.000753418 0.162792,0.0330398 0.162792,0.0651256l0 0.0244247 -0.0485668 -0.00937678 -0.000270248 0.0337974c0,0.027856 0.0242568,0.0268364 0.048837,0.0325649l0 0.252366 -0.0489148 -0.0077471 0.00949962 0.105302 -0.0257022 0.000135124 0.0488411 0.00814429c0.0222381,-0.0614609 0.0715911,-0.00672344 0.0735893,-0.0834861l0.0566374 0.0102121 0 0.0569854 -0.0210629 -0.00140447 0.0126976 0.0444803 0.081623 0.00577348 0 -0.0325608 0.0325608 0 0 -0.0651297 -0.0488411 0 0 -0.25237 0.0488411 0 0 -0.0569854 -0.0329334 -0.00671115 0.000372614 -0.04213 -0.179068 -0.0325649 0 -0.146536c-0.0724387,0.0016133 -0.144992,0.048661 -0.170932,0.0976905z"/>
   <path id="_117214856" class="fil5" d="M4.98137 4.0623l0.130235 -0.0488493 0 -0.455888 -0.12198 0.0329252 0.00987633 0.0889566c0.000135124,0.0161207 -0.0198059,0.0152977 -0.0344075,0.0165138l0 0.252366 0.0325567 0 0 0.0569854 -0.0162804 0 0 0.0569895z"/>
   <path id="_116906576" class="fil19" d="M3.4837 4.22512l0.244185 0.0081361c0.00279666,-0.125575 0.101892,-0.188723 0.105818,-0.333772 0.0016911,-0.0625951 0.0459176,-0.390762 -0.0162845,-0.390762 -0.0570632,0 -0.048837,0.177614 -0.048837,0.236082l-0.0162804 0c0.001384,-0.0619891 0.0534149,-0.374477 -0.00814019,-0.374477 -0.104516,0 -0.0229178,0.307206 -0.0813937,0.350061 0,-0.0699778 0.0540987,-0.415187 -0.00814019,-0.415187l-0.0162763 0c-0.0520268,0 -0.0569772,0.333228 -0.0569772,0.398902 -0.0480877,-0.0352428 -0.00212513,-0.341917 -0.0732576,-0.341917 -0.018168,0 -0.0421873,0.022537 -0.0439153,0.0409712l0.0208582 0.24403 -0.0176398 0.252297c-0.0585455,-0.0429039 -0.0483293,-0.219802 -0.11395,-0.219802l-0.0244206 0 0 0.0895462c0,0.264609 0.154651,0.266722 0.154651,0.455892z"/>
   <path id="_116905400" class="fil5" d="M2.21394 5.30785c0,0.136422 -0.186319,0.203525 -0.325583,0.203525 -0.0822413,0 -0.169732,-0.0185406 -0.229092,-0.0395135 -0.0863319,-0.0305011 -0.10339,-0.0761771 -0.1616,-0.115162l-0.0813978 0.0244247c-0.00807468,0.0970804 -0.162787,0.12302 -0.162787,0.195377l0 0.130255c0,0.0482802 0.022881,0.130251 0.0651133,0.130251l0.0244206 0c0.0545778,0 0.115748,-0.162816 0.203488,-0.162816 0.0190525,0 0.0325567,0.0135124 0.0325567,0.0325649l0 0.0162804c0,0.0422365 -0.177164,0.213721 -0.21359,0.250409 -0.0363647,0.0366268 -0.0881131,0.0737899 -0.129789,0.106273 -0.0295676,0.0230366 -0.0925353,0.12363 -0.112431,0.12363l-0.0325567 0c-0.0780852,0 -0.122762,-0.0663376 -0.154655,-0.113971 0.0136107,-0.0584227 0.0409139,-0.0940995 0.0409016,-0.170756 -1.63787e-005,-0.0733313 -0.000200639,-0.146675 -0.000200639,-0.220006l-0.0325567 0.0162804 -0.00814429 0.00814019 -0.0081361 0.00814429 -0.00814019 0.0162804 -0.0081361 0.00814019 -0.00814429 0.00814019 -0.00814019 0.00814429 -0.0081361 0.0081361 -0.00814019 0.00814429 -0.00814019 0.0162804 -0.00814019 0.00814429 -0.0081361 0.0081361 -0.00814429 0.00814429 -0.00814019 0.0081361 -0.0081361 0.00814429 -0.00814019 0.0162804 -0.00814019 0.00814429 -0.00814019 0.0081361 -0.0081361 0.00814429 -0.00814019 0.00814019 -0.00814019 0.0162845 -0.00814019 0.0081361 -0.00814019 0.00814429 -0.00814019 0.00814019 -0.00814019 0.0162804 -0.0081361 0.00814019 -0.00814019 0.00814019 -0.00814019 0.00814429 -0.00814019 0.0162804 -0.0081361 0.00814019 -0.00814019 0.00814019 -0.00814429 0.0162804 -0.0081361 0.00814429 -0.00814019 0.00814019 -0.00814019 0.00814019 -0.00814019 0.0162804 -0.0081361 0.00814429 -0.00814019 0.0162804 -0.00814019 0.00814429 -0.00814019 0.0081361 -0.00814019 0.0162804 -0.0081361 0.00814429 -0.00814429 0.00814019 -0.0081361 0.0162845 -0.00814019 0.0081361 -0.00814019 0.0162845 -0.00814019 0.00814019 -0.0081361 0.0162804 -0.00814019 0.00814429 -0.00814429 0.0162804 -0.0081361 0.00814019 -0.00814019 0.0162804 -0.0081361 0.00814429 -0.00814429 0.0162804 -0.0081361 0.00814019 -0.00814019 0.0162845 -0.00814019 0.0162804 -0.00814019 0.0081361 -0.00814019 0.0162886 -0.0081361 0.0162804 -0.00814429 0.0162804 -0.0081361 0.00814019 -0.00814019 0.0162845 -0.0081361 0.0162804 -0.00814429 0.0162804 -0.0081361 0.0162804 -0.00814019 0.0162845 -0.00814019 0.0244206 -0.00814019 0.0162845 -0.00814019 0.0244206 -0.0081361 0.0244206 -0.00814429 0.0162845 -0.0081361 0.0325649 -0.00814019 0.040705 0 0.122111 0.00814019 0.0244247 0.0081361 0.0162804 0.00814429 0.00814019 0.0081361 0.0162845 0.00814019 0.0081361 0.00814019 0.00814429 0.00814019 0.0081361 0.0162763 0.00814429 0.0162804 0.00814429 0.00814019 0.0081361 0.0244165 0.00814429 0.0325608 0.0081361 2.17324 0 0.00814019 -0.081406 0.00814019 -0.0732699 0.0081361 -0.0244206c-0.0294406,-0.0613708 0.0569772,-0.620538 0.0569772,-0.740819 0.208594,-0.110392 0.507677,-0.302026 0.681598,-0.449868 0.09819,-0.0834615 0.212099,-0.177455 0.257624,-0.312198 0.0393538,-0.116469 0.0782163,-0.342371 0.0782163,-0.49163l0.00195315 -0.285042 -0.0100933 -0.203415 -0.0406969 0 -0.244185 -0.0081361 -0.048837 0c0,0.164188 -0.0223691,0.295401 -0.0324952,0.447813 -0.00805011,0.121247 -0.0284579,0.320837 -0.0997665,0.380525 -0.124302,0.104041 -0.473474,0.270682 -0.697968,0.270682l-0.0571492 0.00319384 -0.333543 -0.0194824z"/>
   <path id="_117218168" class="fil4" d="M1.83953 4.41236l0.0732535 0.260511 0.0325567 0c0.0476987,0 0.189935,-0.0396814 0.239296,-0.0537343 0.0743837,-0.0211899 0.167681,-0.0342109 0.167681,-0.125366 0,-0.0599254 -0.00907787,-0.125604 -0.0581401,-0.138514l-0.00795593 0.0903447 -0.0722749 -0.114651 -0.0325608 0c-0.101466,0 -0.276799,0.0469822 -0.341855,0.0814101z"/>
   <path id="_116906648" class="fil2" d="M1.83953 4.41236c0.065056,-0.0344279 0.240389,-0.0814101 0.341855,-0.0814101l0.0325608 0 0.0722749 0.114651 0.00795593 -0.0903447c0.0490623,0.0129105 0.0581401,0.0785889 0.0581401,0.138514 0,0.0911554 -0.0932969,0.104176 -0.167681,0.125366 -0.0493612,0.0140529 -0.191597,0.0537343 -0.239296,0.0537343l-0.0325567 0 -0.0732535 -0.260511zm3.27207 -0.85479l0 0.455888 -0.130235 0.0488493 -0.11395 0.0244165 -0.154242 0.0195274 -0.122504 -0.00324297c-0.0280607,0 -0.0315125,-0.00602325 -0.0569731,-0.00814019l-0.081623 -0.00577348 -0.0126976 -0.0444803 0.0210629 0.00140447 0 -0.0569854 -0.0566374 -0.0102121c-0.0019982,0.0767627 -0.0513512,0.0220252 -0.0735893,0.0834861l-0.0488411 -0.00814429 -0.0991113 -0.0374662 0.00143723 -0.459126c0.0259397,-0.0490295 0.098493,-0.0960772 0.170932,-0.0976905l0 0.146536 0.179068 0.0325649 0.276742 -0.00814429 0.0732208 -0.00902873c0.0147244,0.010728 0.0143436,0.017173 0.0325935,0.017173l0.00814019 0c0.0410367,0 0.0162763,-0.0311276 0.0162763,-0.0651256l0 -0.113975c0.0690483,0.00153959 0.146179,0.0509049 0.170932,0.0976905zm-0.390696 -0.146536c0,-0.0263778 0.0353697,-0.0488452 0.0651174,-0.0488452 0.0318851,0 0.0569772,0.0302882 0.0569772,0.0651256l0 0.0732658c0,0.0253542 -0.0257513,0.0488493 -0.0569772,0.0488493l-0.0244206 0c-0.0263123,0 -0.0406969,-0.0295553 -0.0406969,-0.0569854l0 -0.0814101zm-0.154647 0.0569854c0,-0.0658504 0.0388502,-0.105831 0.10581,-0.105831l0 0.0325649c-0.0406518,0.000904921 -0.056318,0.0077512 -0.0651174,0.040705 0.0182581,-0.00425436 0.0187167,-0.00814429 0.0406969,-0.00814429 0.0311194,0 0.0488411,0.0241012 0.0488411,0.0569854l0 0.0162804c0,0.0253542 -0.0257554,0.0488493 -0.0569772,0.0488493l-0.0244206 0c-0.0263737,0 -0.048833,-0.0353779 -0.048833,-0.0651297l0 -0.0162804zm-2.2058 -0.0976905c0,-0.138772 0.210347,-0.309352 0.35,-0.309352 0.105262,0 0.197924,0.0275407 0.254487,0.0792399 0.0699737,0.0639586 0.118438,0.0781753 0.144345,0.189407 -0.0118049,0.0176357 -0.0244206,0.0271026 -0.0244206,0.0569854l0 0.0162845c0,0.0323397 0.0325567,0.0246458 0.0325567,0.0569854l0 0.00814019c0,0.119314 -0.132552,0.256469 -0.219765,0.276787l0 0.0244247c0,0.0190566 -0.0135042,0.0325649 -0.0325567,0.0325649l-0.252325 0c-0.0289861,0 -0.0319056,-0.0278601 -0.0325567,-0.0569895 -0.0231308,-0.00538858 -0.136909,-0.089796 -0.148239,-0.104099 -0.0623699,-0.0787813 -0.0552452,-0.0746334 -0.0552452,-0.180829l0 -0.040705 -0.0162804 0 0 -0.0488452zm2.57208 -0.830369c0.0693677,-0.0440217 0.124056,0.040705 0.179068,0.040705l0.0651133 0c0.0468307,0 0.0653385,-0.0488452 0.138375,-0.0488452 0.134936,0 0.236045,0.234407 0.236045,0.382618l0 0.0569854 0.0162763 0 -0.0666447 0.12121 -0.0082098 -0.00104004 0.00626483 -0.031316c-0.0936245,0.000700187 -0.174392,-0.087073 -0.191876,-0.16212 -0.0117107,0.00784947 -0.0425067,0.0325649 -0.0569772,0.0325649 -0.0497092,0 -0.071845,-0.0322741 -0.0813896,-0.0732658l-0.0569772 0c-0.000896731,0.0401564 -0.0239169,0.0732658 -0.0569772,0.0732658 -0.0307673,0 -0.0542911,-0.0198591 -0.0732576,-0.0325649 -0.0297641,0.056273 -0.0904143,0.16282 -0.170928,0.16282l-0.0081361 0c-0.0552534,0 -0.0732576,-0.0515272 -0.0732576,-0.105835 0,-0.156928 0.0857218,-0.38774 0.203488,-0.415182zm-3.08663 -0.507554l0.019724 0.0509663 -0.0179633 0.000700187 0 0.374482 0.0081361 0c0,-0.163819 -0.0191958,-0.228707 0.040701,-0.341921 0.0251208,0.0132995 0.049615,0.0185898 0.0650683,0.0407501 0.0158095,0.0226803 0.0249979,0.0402464 0.0570223,0.0488002l-0.00194087 0.0102244 -0.0471378 -0.00894684 0.000241585 0.259229 0.0081361 0 0 -0.130251 0.00751371 -0.0075178 0.048837 0.0488493 -0.00809105 0.00701825 0.0446195 -0.0524363 0.0148104 0.109717 -0.00187126 0.211862c0,0.168659 -0.0732576,0.296278 -0.0732576,0.423327 -0.0146917,0.00983948 -0.0143068,0.0162804 -0.0325608,0.0162804l-0.309299 0c-0.0219802,0 -0.0224428,-0.00388584 -0.0406928,-0.00814019l0 -0.0895503c0,-0.00519203 -0.122758,-0.174306 -0.140029,-0.201867 -0.0157931,-0.0252149 -0.138236,-0.252125 -0.00648185,-0.188895l-0.00533944 -0.00687085 0.0501678 -0.0389894 0.0555236 0.113565c0.0182131,-0.0119278 0.0217386,-0.00407419 0.0217386,-0.0270002l0 -0.439607 0.0162763 0 -0.00608467 0.00741953 0.0442797 0.036336 -0.00123659 -0.00824256 0.0567889 -0.0409589 0.00393088 0.249672 0.0162763 0 0 -0.358197c0,-0.0225043 0.0265007,-0.0393374 0.0406969,-0.0488452l0.0407583 0.00823846 0.0307386 -0.0191999zm2.51686 -0.0541683c0.052338,0.0350585 0.137192,0.193714 0.154647,0.268651 0.0111621,0.02327 0.0325608,0.119601 0.0325608,0.154676l0 0.15468c0,0.232716 -0.260388,0.576963 -0.439538,0.618704 -0.0460363,0.0319998 -0.107432,0.0488452 -0.187204,0.0488452l0.0758946 -0.0340594c-0.122611,-0.0166325 -0.206965,-0.120616 -0.368917,-0.120616l-0.00965931 -0.0238432 -0.305945 -0.111141c0.0174965,-0.0370772 -0.0379043,-0.0259765 -0.0823478,-0.0531405 -0.0297191,-0.018168 -0.0674637,-0.0387642 -0.114839,-0.0398206 -0.00345999,-0.0416141 -0.080366,-0.138207 -0.0963884,-0.188526 -0.0130497,-0.0409835 -0.0347064,-0.219367 -0.00942182,-0.259221 0,-0.359327 0.380013,-0.691974 0.756972,-0.691974l0.0244206 0 0.170928 0.0244247c0.0397756,0.00926622 0.146507,0.031791 0.146507,0.0732658l0 0.0732658 0.00731307 -0.00502006 0.0664891 0.0967405 -0.0104823 0.00311604 -0.0248137 0.015658 0.075178 0.0134264c0.0470518,0.00520841 0.0908811,-0.0284415 0.0816681,-0.0669314l0.00619523 -0.00708786 0.050782 0.055929zm1.09069 -0.187241l0.0651174 0 0.0895339 0 0.0244206 0 0.00769387 0.0245966 0.08184 -0.000171976 0.0650847 0.000290721c0.00553598,-0.0209114 0.0157563,-0.0409958 0.0407296,-0.0409958l0.0162763 0c0.0723445,0 0.0114855,0.146536 0.130235,0.146536 0.0219842,0 0.0224388,-0.00388584 0.0406969,-0.00814019 0.00538039,0.023098 0.0081361,0.0139137 0.0081361,0.0325649 0,0.0579108 -0.177459,0.111428 -0.237658,0.120494 -0.114806,0.0172918 -0.19966,0.0179019 -0.332106,0.0179019l0.0753131 0.0536688 -0.0841822 0.0426459c0.00593726,-0.0209811 0.0170133,-0.0317132 0.0170133,-0.0474694 0,-0.0157604 -0.0110761,-0.0264925 -0.0162804,-0.0488452l-0.0325567 0c-0.139812,0 -0.307395,-0.0337605 -0.390696,-0.0895544l0 -0.0488411 -0.0308001 -0.0191016c0.0113873,-0.0464253 0.0724387,-0.0666898 0.123393,-0.0836744 0.0290025,-0.0096675 0.0536565,-0.0140529 0.0817336,-0.0240807 0.0298378,-0.0106584 0.0372451,-0.0359593 0.0617189,-0.0359593l0.048833 0c0.018254,0 0.0178732,0.00644091 0.0325608,0.0162804l0.11395 -0.00814429zm-3.29649 -0.0976905c0,-0.0768978 0.0968265,-0.154672 0.187208,-0.154672 0.0916427,0 0.187208,0.0746375 0.187208,0.154672l0 0.0569854c0,0.0739169 -0.0787199,0.16282 -0.146511,0.16282l-0.0651133 0c-0.0783637,0 -0.162792,-0.0825853 -0.162792,-0.154676l0 -0.0651297zm1.61976 -0.95248l0.258828 0.117451 0.00163377 0.305871 -0.268815 0.137961 -0.260253 -0.137961 0 -0.309352 0.268606 -0.113971zm-1.39185 0.227946l0.0325608 0c0.0507902,0 0.0895339,0.0232945 0.0895339,0.0732658l0 0.0244247 -0.122095 0 0 -0.0976905zm2.27092 0.0244206c0,-0.0366882 0.100888,-0.0689378 0.10581,-0.113975l0.048837 0.00271886c0.0379084,-0.00271886 0.219765,0.173606 0.219765,0.217087 0,0.0473097 -0.0233232,0.0403734 -0.0244165,0.0895503 -0.0404676,0.0108058 -0.0632011,0.0690729 -0.0895339,0.0651297l-0.0731102 -0.00911882c-0.0911677,0.06194 -0.314667,0.334751 -0.423396,0.334751 -0.0456923,0 -0.0895339,-0.0538203 -0.0895339,-0.0976864 0,-0.0665096 0.290406,-0.346486 0.341855,-0.423331 -0.00944639,-0.0196871 -0.0162763,-0.0356113 -0.0162763,-0.0651256zm-2.5151 -0.0325649c0.00325526,-0.0391777 0.111821,-0.101904 0.144857,-0.123761 0.0269224,-0.0178159 0.140807,-0.104185 0.164442,-0.104185 0.022234,0 0.122091,0.0451641 0.122091,0.0732699 0,0.00990909 -0.0168332,0.0244247 -0.0325567,0.0244247 -0.0500286,0 -0.0643804,-0.040705 -0.0895339,-0.040705 -0.00377937,0 -0.17268,0.125763 -0.187208,0.138396l0.854642 0 -0.185648 -0.140545c-0.0124764,0.00945867 -0.062329,0.0428547 -0.0748095,0.0428547l-0.00814429 0c-0.0190525,0 -0.0325567,-0.0135083 -0.0325567,-0.0325649 0,-0.0288223 0.0963761,-0.0527843 0.122091,-0.0651297l0.216976 0.142502 0.00279256 -0.0285275 0.0162763 0 -0.00842682 0.0406272 0.0710588 0.044771c0.00248546,0.0911922 -0.010425,0.187798 -0.0706944,0.224027 -0.0409794,0.0246376 -0.156314,0.0731962 -0.219838,0.0731962l-0.0813978 0c-0.103357,0 -0.187626,-0.150385 -0.146511,-0.236086l-0.048837 0 0 0.0651256c0,0.0716894 -0.0603676,0.17096 -0.130231,0.17096l-0.0895339 0c-0.0760747,0 -0.276742,-0.064278 -0.276742,-0.130255 0,-0.014966 0.0186717,-0.0207149 0.0325567,-0.0244206l0.039579 0.0709155 0.00762426 -0.0048358 -0.0366841 -0.0627098 0.31506 -0.00336991 0 -0.0895503 0.0252805 -0.00367701 -0.0252805 -0.00446728 0 -0.0325608 -0.349836 0.0194578 -0.0408566 -0.00317746zm1.17209 -0.95248l-0.0976741 0.00814019 -0.0732576 0.00814019 -0.0651133 0.00814019 -0.0488411 0.00814019 -0.0569772 0.00814429 -0.048833 0.00814019 -0.040701 0.00814019 -0.0406928 0.00814019 -0.0406969 0.00814019 -0.040701 0.00814019 -0.0325567 0.00814429 -0.0325567 0.00814019 -0.0325608 0.00814019 -0.0325567 0.00814019 -0.0244206 0.00814019 -0.0325567 0.00814429 -0.0325567 0.0081361 -0.0244206 0.00814429 -0.0244165 0.0081361 -0.0325608 0.00814429 -0.0244165 0.00814429 -0.0244165 0.0081361 -0.0244206 0.00814429 -0.0244165 0.0081361 -0.0244206 0.00814429 -0.0162763 0.00814019 -0.0244206 0.00814019 -0.0244165 0.00814429 -0.0244206 0.0081361 -0.0162763 0.00814429 -0.0244206 0.00814019 -0.0162804 0.00814019 -0.0244206 0.00814019 -0.0162763 0.00814019 -0.0162804 0.00814429 -0.0244165 0.00814019 -0.0162804 0.00814019 -0.0162804 0.00814019 -0.0244124 0.00814019 -0.0162845 0.00814019 -0.0162763 0.00814429 -0.0162804 0.00814019 -0.0162804 0.00814019 -0.0162763 0.00814019 -0.0244206 0.00814019 -0.0081361 0.00814429 -0.0244206 0.0081361 -0.00814019 0.00814429 -0.0244165 0.00814019 -0.00814019 0.00814019 -0.0162804 0.00814429 -0.0162763 0.0081361 -0.0162804 0.00814429 -0.0162763 0.0081361 -0.0162804 0.00814429 -0.0162804 0.00814429 -0.00814019 0.0081361 -0.0162763 0.00814429 -0.0162804 0.0081361 -0.0162763 0.00814429 -0.00814429 0.00814019 -0.0162763 0.00814019 -0.0162804 0.00814429 -0.0162763 0.0081361 -0.00814429 0.00814429 -0.0162763 0.00814019 -0.0081361 0.00814019 -0.0162845 0.00814019 -0.0162804 0.00814019 -0.0081361 0.00814019 -0.0162763 0.00814429 -0.00814429 0.00814019 -0.0162763 0.00814019 -0.00814019 0.00814019 -0.0162804 0.00814019 -0.0081361 0.00814429 -0.0162804 0.0081361 -0.00814019 0.00814429 -0.0162804 0.00814019 -0.00814019 0.00814019 -0.0162763 0.00814429 -0.00814019 0.0081361 -0.00814019 0.00814429 -0.0162804 0.0081361 -0.00814019 0.00814429 -0.0162763 0.00814429 -0.00814019 0.0081361 -0.00814019 0.00814429 -0.0162763 0.0081361 -0.00814019 0.00814429 -0.00814019 0.00814019 -0.0162804 0.00814019 -0.00814019 0.00814429 -0.0081361 0.0081361 -0.0162804 0.00814429 -0.00814019 0.00814019 -0.0081361 0.00814019 -0.00814019 0.00814019 -0.00814429 0.00814019 -0.0162763 0.00814429 -0.00814019 0.00814019 -0.00814019 0.00814019 -0.0081361 0.00814019 -0.0162804 0.00814019 -0.00814019 0.00814019 -0.00814019 0.00814429 -0.0081361 0.0081361 -0.00814429 0.00814429 -0.0081361 0.00814019 -0.0162763 0.00814019 -0.00814429 0.00814429 -0.0081361 0.0081361 -0.00814019 0.00814429 -0.00814429 0.0081361 -0.0081361 0.00814429 -0.00814019 0.00814429 -0.0081361 0.0081361 -0.00814429 0.00814429 -0.0162763 0.0081361 -0.0081361 0.00814429 -0.00814429 0.00814019 -0.00814019 0.00814019 -0.0081361 0.00814429 -0.00814429 0.0081361 -0.0081361 0.00814429 -0.00814019 0.00814019 -0.0081361 0.00814019 -0.00814429 0.00814019 -0.0081361 0.00814019 -0.00814019 0.00814429 -0.00814019 0.00814019 -0.00814019 0.00814019 -0.00814019 0.00814019 -0.0081361 0.00814019 -0.00814429 0.00814019 -0.0081361 0.00814429 -0.00814019 0.00814019 -0.0081361 0.00814019 -0.00814429 0.00814019 -0.00814019 0.00814019 -0.0081361 0.00814429 -0.00814019 0.0162804 -0.00814019 0.0081361 -0.00814019 0.00814429 -0.0081361 0.00814429 -0.00814429 0.0081361 -0.00814019 0.00814429 -0.0081361 0.0081361 -0.00814019 0.00814429 -0.00814019 0.00814019 -0.00814019 0.0162845 -0.0081361 0.0081361 -0.00814019 0.00814429 -0.00814019 0.00814019 -0.00814019 0.00814019 -0.00814019 0.0162804 -0.00814019 0.00814429 -0.00814019 0.00814019 -0.0081361 0.00814019 -0.00814019 0.00814019 -0.00814019 0.0162804 -0.00814019 0.00814429 -0.0081361 0.00814019 -0.00814019 0.00814019 -0.00814429 0.0162804 -0.0081361 0.00814429 -0.00814019 0.0081361 -0.00814019 0.0162845 -0.00814019 0.00814019 -0.0081361 0.00814429 -0.00814019 0.0162804 -0.00814019 0.0081361 -0.00814019 0.00814429 -0.00814019 0.0162804 -0.0081361 0.00814429 -0.00814429 0.0162804 -0.0081361 0.00814019 -0.00814019 0.00814019 -0.00814019 0.0162804 -0.00814019 0.00814429 -0.0081361 0.0162804 -0.00814019 0.00814019 -0.00814429 0.0162804 -0.0081361 0.00814429 -0.00814019 0.0162804 -0.0081361 0.00814019 -0.00814429 0.0162845 -0.0081361 0.0081361 -0.00814019 0.0162845 -0.00814019 0.0162845 -0.00814019 0.0081361 -0.00814019 0.0162804 -0.0081361 0.0162886 -0.00814429 0.0081361 -0.0081361 0.0162804 -0.00814019 0.0162845 -0.0081361 0.00814019 -0.00814429 0.0162804 -0.0081361 0.0162845 -0.00814019 0.0162804 -0.00814019 0.00814019 -0.00814019 0.0162845 -0.00814019 0.0162804 -0.0081361 0.0162804 -0.00814429 0.0162804 -0.0081361 0.0162845 -0.00814019 0.0162845 -0.0081361 0.0162804 -0.00814429 0.0162804 -0.00814019 0.0162804 -0.0081361 0.0162804 -0.00814019 0.0162845 -0.00814019 0.0162845 -0.00814019 0.0162804 -0.0081361 0.0162804 -0.00814429 0.0162804 -0.00814019 0.0244247 -0.0081361 0.0162804 -0.00814019 0.0244247 -0.00814019 0.0162804 -0.00814019 0.0162845 -0.0081361 0.0244165 -0.00814019 0.0162886 -0.00814019 0.0244165 -0.00814019 0.0162845 -0.00814019 0.0244206 -0.00814019 0.0244247 -0.00814019 0.0244247 -0.0081361 0.0162804 -0.00814019 0.0325649 -0.00814019 0.0162804 -0.00814019 0.0244247 -0.0081361 0.0325608 -0.00814019 0.0244247 -0.00814429 0.0244247 -0.0081361 0.0325608 -0.00814019 0.0244247 -0.00814019 0.0325608 -0.00814019 0.0325649 -0.0081361 0.0325608 -0.00814019 0.040705 -0.00814019 0.0325608 -0.00814019 0.032569 -0.00814019 0.0488411 -0.0081361 0.040705 -0.00814429 0.0488452 -0.0081361 0.0488493 -0.00814019 0.0732658 -0.00814019 0.0651256 -0.00814019 0.105835 0 0.439603 0.00814019 0.105835 0.00814019 0.0732658 0.00814019 0.0651297 0.0081361 0.0488411 0.00814429 0.0488452 0.0081361 0.0488493 0.00814019 0.040705 0.00814019 0.0325608 0.00814019 0.040705 0.00814019 0.0325608 0.0081361 0.0325649 0.00814019 0.0325608 0.00814019 0.032569 0.00814019 0.0325608 0.0081361 0.0244247 0.00814429 0.0325608 0.00814019 0.0244247 0.0081361 0.0244206 0.00814019 0.0244247 0.00814019 0.0244206 0.00814019 0.0244247 0.0081361 0.0244206 0.00814019 0.0244247 0.00814019 0.0162804 0.00814019 0.0244247 0.00814019 0.0162804 0.00814019 0.0244247 0.00814019 0.0162804 0.0081361 0.0244206 0.00814019 0.0162845 0.00814019 0.0244206 0.00814019 0.0162804 0.0081361 0.0162845 0.00814019 0.0244206 0.00814429 0.0162804 0.0081361 0.0162845 0.00814019 0.0162845 0.00814019 0.0162804 0.00814019 0.0162804 0.0081361 0.0162804 0.00814019 0.0244247 0.00814429 0.00814019 0.0081361 0.0162845 0.00814019 0.0162804 0.0081361 0.0162804 0.00814429 0.0162804 0.0081361 0.0162845 0.00814019 0.0162804 0.00814019 0.0162804 0.00814019 0.0162804 0.00814019 0.00814429 0.0081361 0.0162804 0.00814429 0.0162804 0.0081361 0.0162804 0.00814019 0.00814429 0.0081361 0.0162804 0.00814429 0.0162804 0.0081361 0.00814429 0.00814019 0.0162804 0.00814019 0.0162804 0.00814019 0.00814429 0.00814019 0.0162804 0.0081361 0.00814019 0.00814429 0.0162845 0.0081361 0.00814019 0.00814019 0.0162804 0.0081361 0.0162804 0.00814429 0.00814429 0.00814019 0.0081361 0.0081361 0.0162845 0.00814019 0.00814019 0.00814019 0.0162804 0.00814019 0.00814429 0.0081361 0.0162804 0.00814429 0.00814429 0.0081361 0.0162804 0.00814019 0.0081361 0.00814019 0.00814429 0.00814019 0.0162804 0.00814019 0.00814429 0.0081361 0.0081361 0.00814019 0.0162845 0.00814019 0.00814019 0.00814019 0.00814019 0.0081361 0.00814019 0.00814429 0.0162845 0.00814019 0.00814019 0.0081361 0.00814019 0.00814019 0.0162804 0.00814019 0.00814429 0.00814019 0.00814019 0.0081361 0.00814019 0.00814019 0.00814019 0.00814019 0.0162845 0.00814019 0.0081361 0.00814019 0.00814429 0.00814019 0.00814019 0.00814019 0.00814019 0.0081361 0.0162804 0.00814019 0.00814429 0.00814019 0.0081361 0.00814019 0.00814429 0.0081361 0.00814429 0.00814019 0.0081361 0.00814429 0.00814429 0.0081361 0.0081361 0.00814019 0.0162845 0.00814019 0.00814019 0.00814019 0.00814019 0.0081361 0.00814019 0.00814019 0.00814429 0.00814429 0.00814019 0.0081361 0.00814019 0.00814019 0.00814019 0.0081361 0.00814019 0.00814429 0 0.0325567 -0.0162804c0,-0.136864 0.0235894,-0.132753 0.0813323,-0.211727 0.0279133,-0.0381745 0.109115,-0.12205 0.170989,-0.12205 0.00692408,0 0.0244206,0.0174965 0.0244206,0.0244206 0,0.0236672 -0.0171362,0.0297027 -0.0244206,0.0569895 0.0291458,-0.0195193 0.1142,-0.0814101 0.154651,-0.0814101 0.0182499,0 0.0178691,0.006445 0.0325567,0.0162845l0.0813978 -0.0244247c0.0869256,-0.075567 0.0813937,-0.0913274 0.0813937,-0.25237l0.00185079 -0.0490745 -0.00998688 -0.0893169 -0.170215 -0.189087 0.00741953 -0.0062935 0.0569772 0c0.0311194,0 0.00296454,-0.00250184 0.0244206,0.00814019l0.130231 -0.040705c-0.0299361,-0.00799688 -0.0317132,-0.0271067 -0.0325567,-0.0651256l0.0689705 -0.00114241 -0.0282696 -0.0884079c-0.0339407,0.000757513 -0.0732576,0.0259233 -0.0732576,-0.0162804l0 -0.040705c-0.141565,0.0329866 -0.121869,0.0348128 -0.227909,0.105831 -0.0250839,-0.107698 -0.0569731,-0.146757 -0.0569731,-0.293071 0,-0.0679878 0.0396978,-0.138396 0.10581,-0.138396l0.0569772 0c0,-0.252006 0.525935,-0.122197 0.708139,-0.244226 0.0105683,0.0453852 0.0325567,0.0674391 0.0325567,0.130251l0 0.040705c0,0.174654 -0.406408,0.203521 -0.605539,0.204545l0.0520514 0.169937 0.0162804 0c0.0120383,-0.0450904 0.0598271,-0.0788305 0.10581,-0.0895503 -0.00748095,0.0141471 -0.0406928,0.075395 -0.0406928,0.0895503 0,0.180268 0.0697772,0.186725 0.154647,0.260507 0.0579681,-0.0278191 0.224813,-0.0976864 0.301162,-0.0976864l0.0955899 0.000204733 0.0102244 0.113766c0.0273564,0.27768 -0.153583,0.315572 -0.162792,0.350057 0.020719,0.0889361 0.0479895,0.134923 0.113954,0.179096l0.333543 0.0194824 0.0571492 -0.00319384c0.224494,0 0.573666,-0.166641 0.697968,-0.270682 0.0713086,-0.0596879 0.0917164,-0.259278 0.0997665,-0.380525 0.0101261,-0.152412 0.0324952,-0.283625 0.0324952,-0.447813l0.048837 0c0,-0.189169 -0.154651,-0.191282 -0.154651,-0.455892l0 -0.0895462 0.0244206 0c0.0656211,0 0.0554049,0.176898 0.11395,0.219802l0.0176398 -0.252297 -0.0208582 -0.24403c0.00172795,-0.0184342 0.0257472,-0.0409712 0.0439153,-0.0409712 0.0711325,0 0.0251699,0.306674 0.0732576,0.341917 0,-0.0656743 0.00495045,-0.398902 0.0569772,-0.398902l0.0162763 0c0.0622389,0 0.00814019,0.345209 0.00814019,0.415187 0.0584759,-0.0428547 -0.0231226,-0.350061 0.0813937,-0.350061 0.0615551,0 0.00952419,0.312488 0.00814019,0.374477l0.0162804 0c0,-0.0584677 -0.00822618,-0.236082 0.048837,-0.236082 0.062202,0 0.0179756,0.328167 0.0162845,0.390762 -0.00392678,0.145049 -0.103022,0.208197 -0.105818,0.333772l0.0406969 0 0.0100933 0.203415 -0.00195315 0.285042c0,0.149259 -0.0388624,0.375161 -0.0782163,0.49163 -0.0455245,0.134743 -0.159434,0.228736 -0.257624,0.312198 -0.173921,0.147842 -0.473003,0.339476 -0.681598,0.449868 0,0.120281 -0.0864179,0.679448 -0.0569772,0.740819l0.0162804 0.00814019 0.0406969 0.00814019 0.0325567 0.00814019 0.040701 0.00814429 0.0406969 0.00814019 0.0406969 0.00814019 0.048837 0.00814019 0.048837 0.00814019 0.0569772 0.00814429 0.0569772 0.0081361 0.0732535 0.00814429 0.0813978 0.00814019 0.130231 0.00814019 0.374416 0 0.138371 -0.00814019 0.0813937 -0.00814019 0.0651174 -0.00814429 0.0651133 -0.0081361 0.048837 -0.00814429 0.0569772 -0.00814019 0.0406969 -0.00814019 0.0488411 -0.00814019 0.0406928 -0.00814019 0.0406969 -0.00814429 0.0325608 -0.00814019 0.0325608 -0.00814019 0.0325567 -0.00814019 0.0325567 -0.00814019 0.0325567 -0.00814019 0.0325567 -0.00814429 0.0325608 -0.00814019 0.0244165 -0.00814019 0.0325608 -0.00814019 0.0244165 -0.00814019 0.0244206 -0.00814429 0.0244165 -0.0081361 0.0244165 -0.00814429 0.0244206 -0.0081361 0.0244206 -0.00814429 0.0244165 -0.00814429 0.0162763 -0.0081361 0.0244206 -0.00814429 0.0244206 -0.0081361 0.0244165 -0.00814429 0.0162804 -0.227946 -0.455814 0c-0.165502,0 -0.529067,-0.0456105 -0.529067,-0.187241l0 -0.0569854c0,-0.207763 0.490602,-0.761194 0.603975,-0.929751l0.0634673 0.0586765c0.0109655,-0.0470886 0.04066,-0.0986282 0.0585291,-0.1694 0.0059823,-0.0236958 0.0706534,-0.115637 0.0899598,-0.13797 0.0300057,-0.03469 0.19525,-0.238068 0.225923,-0.238068 0.0187577,0 0.0244206,0.00566701 0.0244206,0.0244247l0 0.0162804c0,0.0204406 -0.111678,0.143252 -0.130231,0.170956 0.0543771,-0.0145197 0.18677,-0.252366 0.244185,-0.252366 0.0182458,0 0.017865,0.006445 0.0325567,0.0162845l0 0.0325608 0.00814019 0c0.0363852,-0.156207 0.286201,-0.268647 0.488366,-0.268647 0.109242,0 0.207059,0.073319 0.228052,0.163967l0.0893906 -0.00929079 0.0325567 0c0.159094,0 0.260466,0.155945 0.260466,0.317492l0.0010769 0.0734132 -0.0254975 0.227802 0 0.0814101c0,0.0625787 0.100356,0.231901 0.146511,0.244226l0.00814019 -0.00814429 0.0081361 -0.00814019 0.00814429 -0.00814019 0.0081361 -0.0162804 0.00814019 -0.00814429 0.00814019 -0.00814019 0.00814019 -0.00814019 0.00814019 -0.00814019 0.0081361 -0.0162804 0.00814429 -0.00814429 0.0081361 -0.00814019 0.00814019 -0.0162804 0.0081361 -0.00814019 0.00814429 -0.00814429 0.00814019 -0.0162804 0.0081361 -0.00814019 0.00814019 -0.00814019 0.00814019 -0.0162804 0.00814019 -0.00814429 0.0081361 -0.0081361 0.00814429 -0.0162886 0.00814019 -0.0081361 0.0081361 -0.0162804 0.00814019 -0.00814429 0.00814019 -0.0162804 0.00814019 -0.00814429 0.0081361 -0.0162804 0.00814019 -0.00814019 0.00814019 -0.0162804 0.00814019 -0.00814019 0.00814019 -0.0162845 0.00814019 -0.00814019 0.00814019 -0.0162804 0.0081361 -0.00814019 0.00814019 -0.0162804 0.00814019 -0.0162845 0.00814019 -0.00814019 0.0081361 -0.0162804 0.00814019 -0.0162804 0.00814429 -0.00814429 0.0081361 -0.0162804 0.00814019 -0.0162804 0.00814019 -0.0162845 0.00814019 -0.00814019 0.0081361 -0.0162804 0.00814019 -0.0162845 0.00814019 -0.0162804 0.00814019 -0.0162845 0.00814019 -0.0162804 0.0081361 -0.00814019 0.00814429 -0.0162804 0.0081361 -0.0162804 0.00814019 -0.0162845 0.00814019 -0.0162845 0.00814019 -0.0162804 0.0081361 -0.0162804 0.00814019 -0.0244247 0.00814429 -0.0162804 0.0081361 -0.0162804 0.00814019 -0.0162804 0.0081361 -0.0162845 0.00814429 -0.0244206 0.0081361 -0.0162845 0.00814019 -0.0162804 0.00814019 -0.0162804 0.00814019 -0.0244247 0.00814019 -0.0162804 0.0081361 -0.0244247 0.00814429 -0.0244247 0.0081361 -0.0162804 0.00814019 -0.0244206 0.0081361 -0.0244206 0.00814429 -0.0162845 0.0081361 -0.0244206 0.00814019 -0.0244247 0.00814429 -0.0244206 0.0081361 -0.0325649 0.00814019 -0.0244206 0.0081361 -0.0244247 0.00814429 -0.0244247 0.0081361 -0.0325608 0.00814019 -0.0325649 0.0081361 -0.0244206 0.00814429 -0.0325649 0.00814019 -0.0325649 0.0081361 -0.040701 0.00814429 -0.032569 0.0081361 -0.0488411 0.00814019 -0.0325649 0.0081361 -0.0569854 0.00814429 -0.040705 0.00814019 -0.0569854 0.0081361 -0.0651297 0.00814019 -0.081406 0.00814019 -0.122115 0 -0.341917 -0.00814019 -0.122111 -0.00814019 -0.0732658 -0.0081361 -0.073274 -0.00814019 -0.0488411 -0.00814429 -0.0488452 -0.0081361 -0.0488452 -0.00814019 -0.040705 -0.0081361 -0.040701 -0.00814429 -0.040705 -0.0081361 -0.032569 -0.00814019 -0.0325608 -0.00814429 -0.040705 -0.0081361 -0.0244206 -0.00814019 -0.0325649 -0.0081361 -0.0244206 -0.00814429 -0.032569 -0.0081361 -0.0244165 -0.00814019 -0.0244247 -0.0081361 -0.0325649 -0.00814429 -0.0162804 -0.00814019 -0.0325649 -0.0081361 -0.0162804 -0.00814429 -0.0244247 -0.0081361 -0.0244206 -0.00814019 -0.0244247 -0.0081361 -0.0162804 -0.00814429 -0.0244247 -0.0081361 -0.0162804 -0.00814019 -0.0244247 -0.00814019 -0.0162804 -0.00814019 -0.0244206 -0.00814019 -0.0162845 -0.0081361 -0.0162804 -0.00814429 -0.0244206 -0.0081361 -0.0162845 -0.00814019 -0.0162804 -0.0081361 -0.0162845 -0.00814429 -0.0162804 -0.00814019 -0.0162804 -0.0081361 -0.0162804 -0.00814019 -0.0244247 -0.00814019 -0.00814429 -0.00814019 -0.0244165 -0.0081361 -0.00814429 -0.00814429 -0.0162804 -0.0081361 -0.0162804 -0.00814019 -0.0162845 -0.00814019 -0.0162804 -0.00814019 -0.0162804 -0.00814019 -0.0162845 -0.0081361 -0.00814019 -0.00814019 -0.0162804 -0.00814019 -0.0162804 -0.00814019 -0.0162845 -0.0081361 -0.00814019 -0.00814429 -0.0162804 -0.00814019 -0.0162804 -0.0081361 -0.00814429 -0.00814019 -0.0162804 -0.00814019 -0.0162804 -0.00814019 -0.00814429 -0.0081361 -0.0162804 -0.00814019 -0.0162804 -0.00814019 -0.00814429 -0.00814019 -0.0162804 -0.00814019 -0.00814019 -0.00814019 -0.0162845 -0.00814019 -0.00814019 -0.0081361 -0.0162804 -0.00814019 -0.00814019 -0.00814019 -0.00814019 -0.00814019 -0.0162804 -0.0081361 -0.00814429 -0.00814019 -0.0162804 -0.00814429 -0.00814429 -0.0081361 -0.0162804 -0.00814019 -0.0081361 -0.00814019 -0.00814429 -0.00814019 -0.0162804 -0.0081361 -0.00814429 -0.00814019 -0.0162804 -0.00814429 -0.00814019 -0.0081361 -0.00814019 -0.00814019 -0.00814429 -0.0081361 -0.0162804 -0.00814429 -0.00814019 -0.0081361 -0.00814019 -0.00814019 -0.0162804 -0.00814019 -0.00814429 -0.00814019 -0.00814019 -0.00814019 -0.00814019 -0.0081361 -0.0162804 -0.00814429 -0.00814019 -0.0081361 -0.00814429 -0.00814019 -0.00814019 -0.0081361 -0.00814019 -0.00814429 -0.0162804 -0.0081361 -0.00814429 -0.00814019 -0.0081361 -0.00814019 -0.00814429 -0.00814019 -0.00814019 -0.00814019 -0.00814019 -0.0081361 -0.00814429 -0.00814429 -0.0162804 -0.0081361 -0.0081361 -0.00814019 -0.00814429 -0.0081361 -0.00814429 -0.00814429 -0.0081361 -0.00814019 -0.00814429 -0.0081361 -0.0081361 -0.00814019 -0.00814429 -0.00814019 -0.00814019 -0.00814019 -0.00814019 -0.0081361 -0.00814019 -0.00814429 -0.00814019 -0.0081361 -0.00814429 -0.00814019 -0.00814019 -0.00814019 -0.0162804 -0.00814019 -0.00814019 -0.00814019 -0.00814019 -0.0081361 -0.00814429 -0.00814019 -0.00814019 -0.00814019 -0.00814019 -0.0162763 -0.00814019 -0.00814429 -0.00814019 -0.00814019 -0.00814429 -0.0081361 -0.0081361 -0.00814019 -0.00814429 -0.00814019 -0.00814019 -0.00814019 -0.00814019 -0.0081361 -0.00814429 -0.00814019 -0.0081361 -0.00814019 -0.00814429 -0.00814019 -0.0081361 -0.00814019 -0.00814429 -0.00814019 -0.00814429 -0.00814019 -0.0081361 -0.0162763 -0.00814429 -0.00814019 -0.0081361 -0.00814019 -0.00814429 -0.0081361 -0.00814019 -0.00814019 -0.00814019 -0.00814429 -0.00814429 -0.0081361 -0.0081361 -0.0162804 -0.00814429 -0.00814019 -0.00814019 -0.0081361 -0.00814019 -0.00814019 -0.00814019 -0.00814429 -0.00814019 -0.0162763 -0.00814019 -0.0081361 -0.00814429 -0.00814429 -0.00814019 -0.0081361 -0.00814019 -0.0162804 -0.00814019 -0.00814019 -0.00814019 -0.00814019 -0.00814429 -0.0081361 -0.0081361 -0.0162804 -0.00814429 -0.00814019 -0.00814019 -0.0081361 -0.00814019 -0.0162804 -0.00814429 -0.00814019 -0.0081361 -0.00814429 -0.00814429 -0.0162763 -0.0081361 -0.0081361 -0.00814429 -0.0162804 -0.00814429 -0.00814019 -0.0081361 -0.0081361 -0.00814429 -0.0162845 -0.0081361 -0.0081361 -0.00814429 -0.0162804 -0.00814019 -0.00814019 -0.00814019 -0.0162804 -0.00814429 -0.0081361 -0.0081361 -0.0162804 -0.00814429 -0.00814019 -0.00814019 -0.0162763 -0.00814019 -0.00814019 -0.00814019 -0.0162804 -0.00814019 -0.0081361 -0.00814429 -0.0162845 -0.00814019 -0.0081361 -0.00814019 -0.0162804 -0.00814019 -0.0162763 -0.00814019 -0.00814019 -0.00814019 -0.0162804 -0.00814429 -0.0162804 -0.0081361 -0.00814019 -0.00814429 -0.0162763 -0.00814019 -0.0162804 -0.00814019 -0.0081361 -0.00814429 -0.0162845 -0.0081361 -0.0162763 -0.00814429 -0.0162804 -0.0081361 -0.0162763 -0.00814429 -0.00814429 -0.00814429 -0.0162763 -0.0081361 -0.0162804 -0.00814429 -0.0162763 -0.0081361 -0.0162804 -0.00814429 -0.0162763 -0.00814019 -0.0162804 -0.00814019 -0.0162763 -0.00814429 -0.0162804 -0.0081361 -0.0162845 -0.00814429 -0.0162763 -0.00814019 -0.0162804 -0.00814019 -0.0162763 -0.00814019 -0.0162804 -0.00814019 -0.0162763 -0.00814429 -0.0244206 -0.00814019 -0.0162804 -0.00814019 -0.0162763 -0.00814019 -0.0244206 -0.00814019 -0.0162804 -0.00814019 -0.0162763 -0.00814429 -0.0244206 -0.00814019 -0.0162763 -0.00814019 -0.0244165 -0.00814019 -0.0162804 -0.00814019 -0.0244206 -0.00814429 -0.0244165 -0.0081361 -0.0162804 -0.00814429 -0.0244206 -0.00814019 -0.0244165 -0.00814019 -0.0244165 -0.00814429 -0.0162804 -0.0081361 -0.0325567 -0.00814429 -0.0244206 -0.0081361 -0.0244206 -0.00814429 -0.0244124 -0.00814429 -0.0244206 -0.0081361 -0.0325567 -0.00814429 -0.0244206 -0.0081361 -0.0325567 -0.00814429 -0.0244206 -0.00814019 -0.0406969 -0.00814019 -0.0244165 -0.00814019 -0.040701 -0.00814019 -0.0325567 -0.00814429 -0.0325567 -0.00814019 -0.0406969 -0.00814019 -0.040701 -0.00814019 -0.048833 -0.00814019 -0.040701 -0.00814019 -0.0569731 -0.00814429 -0.048837 -0.00814019 -0.0732535 -0.00814019 -0.0651215 -0.00814019 -0.0976741 -0.00814019 -0.138371 -0.00814429 -0.309299 0 -0.130231 0.00814429z"/>
   <path id="_116906864" class="fil5" d="M1.61976 4.73799l0.0732576 -0.0162804c0.0261403,0.0175088 0.0651461,0.0569854 0.10581,0.0569854 0.0295717,0 0.0285521,-0.00965931 0.0569772,-0.0162845 -0.0848701,-0.0737817 -0.154647,-0.080239 -0.154647,-0.260507 0,-0.0141553 0.0332118,-0.0754032 0.0406928,-0.0895503 -0.0459831,0.0107198 -0.0937719,0.0444599 -0.10581,0.0895503l-0.0162804 0 -0.0520514 -0.169937c0.199132,-0.00102367 0.605539,-0.029891 0.605539,-0.204545l0 -0.040705c0,-0.0628121 -0.0219883,-0.084866 -0.0325567,-0.130251 -0.182204,0.122029 -0.708139,-0.00777986 -0.708139,0.244226l-0.0569772 0c-0.0661124,0 -0.10581,0.0704077 -0.10581,0.138396 0,0.146315 0.0318892,0.185374 0.0569731,0.293071 0.106039,-0.0710178 0.0863442,-0.0728441 0.227909,-0.105831l0 0.040705c0,0.0422037 0.039317,0.0170379 0.0732576,0.0162804l0.0282696 0.0884079 -0.0689705 0.00114241c0.000843501,0.0380189 0.00262058,0.0571287 0.0325567,0.0651256z"/>
   <path id="_117211976" class="fil19" d="M1.8558 4.76241c-0.0284252,0.00662517 -0.0274056,0.0162845 -0.0569772,0.0162845 -0.0406641,0 -0.0796699,-0.0394766 -0.10581,-0.0569854l-0.0732576 0.0162804 -0.130231 0.040705c0.0515477,0.0703627 0.14699,0.0518999 0.170932,0.154676 0.0597575,0.0687658 0.0714027,0.0993488 0.165367,0.143956 0.0459544,0.0218164 0.201363,0.0661739 0.264802,0.0355499l0.0093604 0.015875c0.0092089,-0.0344853 0.190148,-0.0723773 0.162792,-0.350057l-0.0102244 -0.113766 -0.0955899 -0.000204733c-0.0763491,0 -0.243194,0.0698672 -0.301162,0.0976864z"/>
   <path id="_117205976" class="fil19" d="M4.65579 5.23458l0.170924 0.154676c0.0428588,-0.0585005 0.14403,-0.0452297 0.222443,-0.0787322 0.0970681,-0.0414667 0.113725,-0.0773646 0.178396,-0.123581l0.054979 0.267443c0.0746375,0.0546965 0.0204692,0.0976905 0.195344,0.0976905 0.112386,0 0.18609,-0.0311686 0.255769,-0.0779624 0.0833551,-0.055974 0.0980877,-0.105671 0.143063,-0.190684l0.0244206 0c0.0640774,-0.0406682 0.13437,-0.0431987 0.154651,-0.130255 -0.0286913,0.000638767 -0.0422528,0.0107034 -0.0569322,0.00788223l-0.195393 -0.0323069c-0.0317377,0.0212595 -0.0547252,0.0651297 -0.105814,0.0651297l-0.0081361 0c-0.0219842,0 -0.0224469,-0.00388993 -0.0406969,-0.00814429 -0.0586069,-0.0281262 -0.222033,-0.073663 -0.309303,-0.073663 -0.0297109,0 -0.149508,0.00923756 -0.168725,0.0188805 -0.0469699,0.0235648 -0.0537302,0.0611743 -0.132438,0.0629268 0.010769,-0.0403365 0.0976782,-0.101458 0.0976782,-0.130259 0,-0.0340799 -0.0232454,-0.0204815 -0.0247359,-0.0742608l-0.0336295 0.00788223 0.0258046 -0.0313078 -0.00244861 -0.116219 -0.0892514 0.097281 -0.00717385 -0.00646957 0.196548 -0.243243 0 -0.0325608c-0.0146917,-0.00983948 -0.0143108,-0.0162845 -0.0325567,-0.0162845 -0.0574154,0 -0.189808,0.237847 -0.244185,0.252366 0.0185529,-0.0277045 0.130231,-0.150516 0.130231,-0.170956l0 -0.0162804c0,-0.0187577 -0.00566292,-0.0244247 -0.0244206,-0.0244247 -0.0306731,0 -0.195917,0.203378 -0.225923,0.238068 -0.0193063,0.0223323 -0.0839774,0.114274 -0.0899598,0.13797 -0.0178691,0.0707722 -0.0475636,0.122312 -0.0585291,0.1694z"/>
   <path id="_117206960" class="fil20" d="M5.58369 5.10433l-0.382556 -0.0569854c0,-0.047363 0.0111457,-0.09767 0.0234747,-0.131193 0.0110024,-0.0299033 0.00284579,-0.0357177 0.0228933,-0.0585127 0.0132708,-0.0150929 0.0350298,-0.0233355 0.0350298,-0.0463762l0 -0.0325649 0.0406928 0 0.00156416 -0.00909015 0.307739 0.0579354 0 0.0244247c0,0.107608 -0.041655,0.166002 -0.048837,0.252362zm0.0651174 0.0814101c0.0175661,-0.0485381 0.130231,0.0302227 0.130231,-0.252366 0,-0.0589099 -0.0379125,-0.0670706 -0.0471173,-0.117255l0.0878101 0.0439849 -0.00180575 -0.0735361 0.00995003 -0.0729956c-0.0221194,0.0148104 -0.124412,0.0861394 -0.154176,0.07838l-0.383031 -0.0539595c-0.0176316,-0.0118049 -0.0270944,-0.0244206 -0.0569772,-0.0244206l-0.0244165 0 0 -0.0162845 -0.00814019 0 -0.196548 0.243243 0.00717385 0.00646957 0.0892514 -0.097281 0.00244861 0.116219 -0.0258046 0.0313078 0.0336295 -0.00788223c0.00149046,0.0537793 0.0247359,0.0401809 0.0247359,0.0742608 0,0.0288019 -0.0869092,0.0899229 -0.0976782,0.130259 0.0787076,-0.00175252 0.0854679,-0.039362 0.132438,-0.0629268 0.0192163,-0.00964293 0.139014,-0.0188805 0.168725,-0.0188805 0.0872696,0 0.250696,0.0455368 0.309303,0.073663z"/>
   <path id="_120297896" class="fil5" d="M1.57093 4.96594l0.0895339 -0.0325649c-0.0239415,-0.102776 -0.119384,-0.0843132 -0.170932,-0.154676 -0.021456,-0.010642 0.00669887,-0.00814019 -0.0244206,-0.00814019l-0.0569772 0 -0.00741953 0.0062935 0.170215 0.189087z"/>
   <path id="_117205544" class="fil14" d="M5.58369 5.10433c0.00718204,-0.0863605 0.048837,-0.144755 0.048837,-0.252362l0 -0.0244247 -0.307739 -0.0579354 -0.00156416 0.00909015 -0.0406928 0 0 0.0325649c0,0.0230407 -0.021759,0.0312832 -0.0350298,0.0463762 -0.0200475,0.022795 -0.0118909,0.0286094 -0.0228933,0.0585127 -0.012329,0.033523 -0.0234747,0.08383 -0.0234747,0.131193l0.382556 0.0569854z"/>
   <path id="_117215504" class="fil20" d="M5.80346 5.12875l0.195393 0.0323069c0.0146794,0.00282122 0.0282409,-0.00724346 0.0569322,-0.00788223 0.0627302,0 0.11395,-0.0398943 0.11395,-0.0976905l0 -0.00814429c0,-0.0921832 -0.23356,-0.138875 -0.325579,-0.146536 0.00425436,0.0182622 0.00814429,0.0187167 0.00814429,0.040705l0 0.0488452c0,0.0466955 -0.0296372,0.109712 -0.0488411,0.138396z"/>
   <path id="_120297584" class="fil5" d="M5.20928 4.69729l0 0.0162845 0.0244165 0c0.0298829,0 0.0393456,0.0126157 0.0569772,0.0244206l0.383031 0.0539595c0.0297641,0.00775939 0.132057,-0.0635696 0.154176,-0.07838l-0.00995003 0.0729956 0.00180575 0.0735361 -0.0878101 -0.0439849c0.0092048,0.0501842 0.0471173,0.0583449 0.0471173,0.117255 0,0.282589 -0.112665,0.203828 -0.130231,0.252366 0.0182499,0.00425436 0.0187126,0.00814429 0.0406969,0.00814429l0.0081361 0c0.0510891,0 0.0740766,-0.0438702 0.105814,-0.0651297 0.019204,-0.0286831 0.0488411,-0.0917 0.0488411,-0.138396l0 -0.0488452c0,-0.0219883 -0.00388993,-0.0224428 -0.00814429,-0.040705 0.0920194,0.00766112 0.325579,0.0543526 0.325579,0.146536l0 0.00814429c0,0.0577962 -0.0512201,0.0976905 -0.11395,0.0976905 -0.0202809,0.0870566 -0.090574,0.0895871 -0.154651,0.130255 0,0.0985012 0.0142904,0.198202 0.0248792,0.292609 0.0140324,0.124998 0.0300753,0.152538 0.146053,0.179559 0.0375153,0.0180042 0.115768,0.0327 0.161776,0.0498607 0.0495495,0.0184792 0.0995413,0.0378183 0.15242,0.0592129 0.157202,0.0635942 0.117247,0.148608 0.190451,0.232847l0.00814019 -0.00814429 0.0081361 -0.00814429 0.00814429 -0.0081361 0.00814019 -0.00814429 0.0081361 -0.0081361 0.00814019 -0.00814429 0.00814019 -0.0162804 0.00814019 -0.00814429 0.0081361 -0.0162804 0.00814019 -0.0244206 0.00814019 -0.040705 0 -0.0732658 -0.00814019 -0.040705 -0.00814019 -0.0244247 -0.0081361 -0.0244247 -0.00814019 -0.0162804 -0.00814019 -0.0162804 -0.00814019 -0.0162804 -0.0081361 -0.00814429 -0.00814019 -0.0162804 -0.00814429 -0.00814019 -0.0081361 -0.00814019 -0.00814019 -0.0162845 -0.00814019 -0.00814019 -0.00814019 -0.00814019 -0.0081361 -0.00814019 -0.00814019 -0.00814019 -0.00814429 -0.00814429 -0.0081361 -0.0081361 -0.00814019 -0.00814429 -0.0081361 -0.0081361 -0.00814429 -0.00814429 -0.0081361 -0.00814429 -0.00814019 -0.0081361 -0.00814019 -0.00814429 -0.00814019 -0.0081361 -0.00814019 -0.00814429 -0.0081361 -0.00814019 -0.00814429 -0.00814019 -0.0081361 -0.00814429 -0.00814019 -0.0081361c-0.046155,-0.0123249 -0.146511,-0.181647 -0.146511,-0.244226l0 -0.0814101 0.0254975 -0.227802 -0.0010769 -0.0734132c0,-0.161547 -0.101372,-0.317492 -0.260466,-0.317492l-0.0325567 0 -0.0893906 0.00929079c-0.0209933,-0.0906477 -0.118811,-0.163967 -0.228052,-0.163967 -0.202166,0 -0.451981,0.112439 -0.488366,0.268647z"/>
   <path id="_117191072" class="fil21" d="M1.57093 4.96594l0.00998688 0.0893169 -0.00185079 0.0490745c0,0.161043 0.00553189,0.176803 -0.0813937,0.25237 0.0582097,0.0389853 0.0752681,0.0846613 0.1616,0.115162 0.0593603,0.0209729 0.146851,0.0395135 0.229092,0.0395135 0.139264,0 0.325583,-0.0671033 0.325583,-0.203525 -0.065965,-0.0441732 -0.0932355,-0.0901604 -0.113954,-0.179096l-0.0093604 -0.015875c-0.0634386,0.030624 -0.218847,-0.0137335 -0.264802,-0.0355499 -0.0939643,-0.0446073 -0.10561,-0.0751903 -0.165367,-0.143956l-0.0895339 0.0325649z"/>
   <path id="_117210704" class="fil5" d="M5.27439 5.77189l0.0813978 -0.0162845c0.098231,-0.0228892 0.122091,-0.0834165 0.122091,-0.203521 -0.174875,0 -0.120707,-0.042994 -0.195344,-0.0976905 -0.0107894,0.0462902 -0.0325649,0.0946072 -0.0325649,0.146536l0 0.0651256c0,0.0326058 0.0170543,0.0741871 0.0244206,0.105835z"/>
   <path id="_120297488" class="fil21" d="M5.47788 5.55208c0,0.120105 -0.0238596,0.180632 -0.122091,0.203521 0,0.116342 0.129432,0.179101 0.244181,0.179101l0.0488411 0c0.132958,0 0.399488,-0.0900785 0.423253,-0.179101 -0.115977,-0.0270207 -0.13202,-0.0545614 -0.146053,-0.179559 -0.0105888,-0.0944066 -0.0248792,-0.194108 -0.0248792,-0.292609l-0.0244206 0c-0.0449758,0.0850134 -0.0597084,0.13471 -0.143063,0.190684 -0.0696789,0.0467938 -0.143383,0.0779624 -0.255769,0.0779624z"/>
   <path id="_117190424" class="fil19" d="M0.976741 5.69862c0,0.0733313 0.00018426,0.146675 0.000200639,0.220006 1.2284e-005,0.0766562 -0.0272909,0.112333 -0.0409016,0.170756 0.0318933,0.0476332 0.0765702,0.113971 0.154655,0.113971l0.0325567 0c0.019896,0 0.0828637,-0.100594 0.112431,-0.12363 0.0416755,-0.032483 0.0934238,-0.0696461 0.129789,-0.106273 0.0364261,-0.0366882 0.21359,-0.208173 0.21359,-0.250409l0 -0.0162804c0,-0.0190525 -0.0135042,-0.0325649 -0.0325567,-0.0325649 -0.0877404,0 -0.148911,0.162816 -0.203488,0.162816l-0.0244206 0c-0.0422324,0 -0.0651133,-0.0819711 -0.0651133,-0.130251l0 -0.130255c0,-0.0723568 0.154713,-0.0982965 0.162787,-0.195377 -0.0146876,-0.00983948 -0.0143068,-0.0162845 -0.0325567,-0.0162845 -0.0404512,0 -0.125506,0.0618908 -0.154651,0.0814101 0.00728441,-0.0272868 0.0244206,-0.0333224 0.0244206,-0.0569895 0,-0.00692408 -0.0174965,-0.0244206 -0.0244206,-0.0244206 -0.0618745,0 -0.143076,0.0838751 -0.170989,0.12205 -0.0577429,0.0789738 -0.0813323,0.0748627 -0.0813323,0.211727z"/>
   <path id="_117191144" class="fil2" d="M4.82672 5.38926l0.0325608 0.0325649c-0.0742199,0.110855 -0.414953,0.461514 -0.439529,0.553582 0.0781344,0.0374989 0.809269,-0.164077 0.854642,-0.203521 -0.0073663,-0.0316477 -0.0244206,-0.073229 -0.0244206,-0.105835l0 -0.0651256c0,-0.0519285 0.0217754,-0.100246 0.0325649,-0.146536l-0.054979 -0.267443c-0.0646711,0.0462165 -0.0813282,0.0821144 -0.178396,0.123581 -0.0784128,0.0335025 -0.179584,0.0202317 -0.222443,0.0787322z"/>
   <path id="_120297344" class="fil0" d="M4.95695 6.57783l-0.00814019 0.0488493 -0.00814019 0.179096 0 0.0895462 1.88022 0 0 -0.0162804 -0.00814019 -0.0325608 -0.00814019 -0.0325649 -0.00814019 -0.0325649 -0.0081361 -0.0244206 -0.00814019 -0.040705 -0.00814019 -0.0244247 -0.00814019 -0.0325608 -0.0081361 -0.0325608 -0.00814429 -0.0244247 -0.00814019 -0.0325649 -0.0081361 -0.0325649 -0.00814019 -0.0244206 -0.00814019 -0.0244247 -0.00814019 -0.0325608 -0.0081361 -0.0244247 -0.00814019 -0.0244247 -0.00814019 -0.0244206 -0.00814019 -0.0325649 -0.00814019 -0.0244247 -0.00814019 -0.0244165 -0.00814019 -0.0244247 -0.0081361 -0.0244247 -0.00814019 -0.0244206 -0.00814019 -0.0162804 -0.00814019 -0.0244247 -0.0081361 -0.0244247 -0.00814019 -0.0162804 -0.00814429 -0.0244247 -0.0081361 -0.0162804 -0.00814019 -0.0081361c-0.0732044,-0.0842395 -0.0332487,-0.169253 -0.190451,-0.232847 -0.0528785,-0.0213946 -0.10287,-0.0407337 -0.15242,-0.0592129 -0.0460076,-0.0171607 -0.124261,-0.0318565 -0.161776,-0.0498607 -0.0237654,0.0890221 -0.290295,0.179101 -0.423253,0.179101l-0.0488411 0c-0.114749,0 -0.244181,-0.0627589 -0.244181,-0.179101l-0.0813978 0.0162845c-0.045373,0.0394439 -0.776508,0.24102 -0.854642,0.203521 0.0245762,-0.0920685 0.365309,-0.442727 0.439529,-0.553582l-0.0325608 -0.0325649 -0.170924 -0.154676 -0.0634673 -0.0586765c-0.113373,0.168557 -0.603975,0.721987 -0.603975,0.929751l0 0.0569854c0,0.14163 0.363565,0.187241 0.529067,0.187241l0.455814 0 -0.0162804 0.227946z"/>
  </g>
 </g>
</svg>
