<?xml version="1.0" encoding="UTF-8"?>
<!DOCTYPE svg PUBLIC "-//W3C//DTD SVG 1.1//EN" "http://www.w3.org/Graphics/SVG/1.1/DTD/svg11.dtd">
<!-- Creator: CorelDRAW -->
<svg xmlns="http://www.w3.org/2000/svg" xml:space="preserve" width="4.67785in" height="4.52506in" style="shape-rendering:geometricPrecision; text-rendering:geometricPrecision; image-rendering:optimizeQuality; fill-rule:evenodd; clip-rule:evenodd"
viewBox="0 0 4.76425 4.60864"
 xmlns:xlink="http://www.w3.org/1999/xlink">
 <defs>
  <style type="text/css">
   <![CDATA[
    .str0 {stroke:#1F1A17;stroke-width:0.00305541}
    .str1 {stroke:#E77817;stroke-width:0.00305541}
    .fil14 {fill:#1F1A17}
    .fil13 {fill:#E77817}
    .fil12 {fill:white}
    .fil3 {fill:#0B0363}
    .fil2 {fill:#14AFFB}
    .fil11 {fill:#191169}
    .fil7 {fill:#4E3BE6}
    .fil10 {fill:#93AEFA}
    .fil8 {fill:#B3AFFB}
    .fil6 {fill:#D2D2F3}
    .fil5 {fill:#EBEBFC}
    .fil4 {fill:#ECB5CA}
    .fil1 {fill:#FB5C79}
    .fil9 {fill:#FBC5CD}
    .fil0 {fill:#FDFEFE}
   ]]>
  </style>
 </defs>
 <g id="Layer_x0020_1">
  <metadata id="CorelCorpID_0Corel-Layer"/>
  <g id="_114700016">
   <polygon id="_114699728" class="fil0" points="2.45994,0.43692 1.08932,0.442907 1.08333,0.448893 1.07734,0.45488 1.07136,0.472835 1.06537,0.496773 1.06537,0.682316 2.48387,0.682316 2.48387,0.377071 2.47789,0.377071 2.47789,0.43692 "/>
   <polygon id="_114713504" class="fil0" points="3.72881,0.442907 3.72881,0.682316 4.48295,0.682316 4.48295,0.466849 4.47696,0.45488 4.47098,0.448893 4.46499,0.43692 4.44105,0.43692 3.7707,0.43692 3.75275,0.43692 "/>
   <path id="_114713600" class="fil1" d="M2.53774 0.00598653l-0.0179556 0.00598252 -0.011969 0.00598653 -0.011969 0.00598653 -0.00598653 0.00598252 -0.00598653 0.0239421 0 0.323204 0 0.305245c0,0.0718263 0,0.143649 0,0.215471 0,0.0760124 -0.00930658,0.155614 0.0658398,0.155614l1.11325 0c0.104718,0 0.0658398,-0.265681 0.0658398,-0.371084l0 -0.239409 0.00598252 -0.00598653 0 -0.299258 -0.00598252 -0.0718263 -0.00598653 -0.0179556 -0.00598653 -0.011969 -0.00598252 -0.011969 -0.00598653 -0.00598653 -0.00598653 -0.00598653 -0.011969 -0.00598252 -0.514729 -0.00598653 -0.0837953 0 -0.0538667 0 -0.251382 0 -0.0239421 0 -0.101747 0 -0.119706 0.00598653z"/>
   <path id="_114713672" class="fil0" d="M0.478818 1.07136c0,0.0212115 0.0533294,0.0591235 0.0658398,0.0778048 -0.013597,0.0091061 -0.0658398,0.0541233 -0.0658398,0.0718263 0,0.0137895 0.00416611,0.0179556 0.0179556,0.0179556 0.0141944,0 0.0957644,-0.085307 0.0957644,-0.0897818 0,-0.0150325 -0.0807279,-0.0957644 -0.0957644,-0.0957644 -0.0137895,0 -0.0179556,0.00416611 -0.0179556,0.0179596z"/>
   <path id="_114713744" class="fil2" d="M0.478818 1.22099c0,-0.017703 0.0522428,-0.0627202 0.0658398,-0.0718263 -0.0125104,-0.0186813 -0.0658398,-0.0565933 -0.0658398,-0.0778048 0,-0.0137935 0.00416611,-0.0179596 0.0179556,-0.0179596 0.0150365,0 0.0957644,0.0807319 0.0957644,0.0957644 0,0.00447486 -0.0815699,0.0897818 -0.0957644,0.0897818 -0.0137895,0 -0.0179556,-0.00416611 -0.0179556,-0.0179556zm-0.257364 -0.0778088c0.0125104,0.0186813 0.0658398,0.0565973 0.0658398,0.0778088 0,0.0137895 -0.00416611,0.0179556 -0.0179556,0.0179556 -0.0141944,0 -0.0957644,-0.085307 -0.0957644,-0.0897818 0,-0.0150325 0.0807279,-0.0957644 0.0957644,-0.0957644 0.0137895,0 0.0179556,0.00416611 0.0179556,0.0179596 0,0.0176989 -0.0522428,0.0627162 -0.0658398,0.0718223zm-0.173569 -0.383057l-0.0179596 0.00598653 -0.00598252 0.00598653 -0.0119731 0.00598252 -0.00598252 0.0179556 -0.00598653 0.101751 0 0.490791 0.00598653 0.107733 0.00598252 0.0179556 0.0119731 0.00598653 0.00598252 0.00598252 0.0179596 0.00598653 0.0239381 0.00598653 0.424951 0 0 0.0359111 0.00598653 0 0 -0.0359111 0.245395 0 0.011969 -0.00598653 0.00598653 -0.00598653 0.00598653 -0.00598252 0.00598252 -0.0119731 0.00598653 -0.011969 0.00598653 -0.0957644 0 -0.191529 -0.00598653 -0.406996 -0.00598653 -0.011969 -0.00598252 -0.0119731 -0.00598653 -0.011969 -0.011969 -0.00598653 -0.0299286 -0.00598252 -0.652391 0 -0.0239381 0.00598252z"/>
   <path id="_114713816" class="fil2" d="M4.48295 1.26288l0.263351 0 0.00598653 -0.00598252 0.00598653 -0.00598653 0.00598252 -0.00598653 0 -0.245395 -0.00598252 -0.00598252 -0.00598653 -0.00598653 -0.00598653 -0.00598653 -0.263351 0 -0.20948 0c-0.0584418,0.039135 -0.0299286,0.254261 -0.0282325,0.348586l0.0521706 -0.0672792 0.185542 0z"/>
   <path id="_114698096" class="fil0" d="M0.221453 1.14318c0.013597,-0.0091061 0.0658398,-0.0541233 0.0658398,-0.0718223 0,-0.0137935 -0.00416611,-0.0179596 -0.0179556,-0.0179596 -0.0150365,0 -0.0957644,0.0807319 -0.0957644,0.0957644 0,0.00447486 0.0815699,0.0897818 0.0957644,0.0897818 0.0137895,0 0.0179556,-0.00416611 0.0179556,-0.0179556 0,-0.0212115 -0.0533294,-0.0591275 -0.0658398,-0.0778088z"/>
   <path id="_114697952" class="fil3" d="M1.83148 1.4185l0.0587586 0.0477158 0.0186412 -0.128961 0.19792 0.0273784c0.0219693,0.00352054 0.0582934,-0.00598653 0.0897818,-0.00598653 0,-0.103944 -0.0542717,-0.143645 -0.155618,-0.143645l-0.0897778 0c-0.120436,0 -0.119706,0.0861611 -0.119706,0.203498z"/>
   <path id="_114697832" class="fil4" d="M1.83148 1.4185c-0.0445601,0 -0.0778088,0.0239541 -0.0778088,0.0658398 0,0.0386337 0.0224064,0.0718223 0.0598532,0.0718223l0.011969 0c0.0161672,0 0.016504,-0.00285894 0.0318212,-0.00511641l-0.0236694 0.0531971 -0.0201208 0.245195 -0.0179556 0c-0.0161672,0 -0.016504,0.00285894 -0.0299246,0.00598653 0.0381045,0.0720107 0.075006,0.11372 0.185542,0.11372l0.0299246 0c0.0579366,0 0.12137,-0.0198963 0.125689,-0.0718263l0 -0.0418937 -0.0359111 0c-0.0161632,0 -0.0165,-0.00285894 -0.0299246,-0.00598653 0,-0.0281764 0.00799139,-0.0633136 0.011945,-0.0898019 0.00954717,-0.0639311 0.00236173,-0.034616 0.046168,-0.0555829 0.042046,-0.0201208 0.0842404,-0.0660202 0.0855315,-0.123953 0.0200005,-0.0105817 0.0359111,-0.0227753 0.0359111,-0.0538667l0 -0.011969c0,-0.0300529 -0.0171095,-0.0347283 -0.0300289,-0.0492956l-0.0657355 -0.00457109c0.00140741,-0.016897 -0.000136331,-0.0239421 0.0179556,-0.0239421l0.0119731 0c0.0527881,0 0.0418977,0.0374308 0.0418977,-0.0778088 -0.0314884,0 -0.0678125,0.00950707 -0.0897818,0.00598653l-0.19792 -0.0273784 -0.0186412 0.128961 -0.0587586 -0.0477158z"/>
   <polygon id="_114697688" class="fil5" points="0.496773,1.59208 0.50276,1.60404 0.508746,1.61003 0.514729,1.61602 0.520715,1.622 0.526702,1.62799 0.532689,1.63397 0.544658,1.63397 0.544658,1.62799 0.538671,1.622 0.532689,1.61602 0.526702,1.61003 0.520715,1.59806 0.514729,1.59208 0.508746,1.58609 0.50276,1.5801 0.496773,1.5801 "/>
   <path id="_114697568" class="fil6" d="M3.20809 1.84345l0 0.0299286c0,0.0368053 0.0462282,0.0718223 0.0837913,0.0718223 0.0475394,0 0.0837913,-0.0349448 0.0837913,-0.0837953l0 -0.0179556c0,-0.0396161 -0.0409474,-0.0718223 -0.0837913,-0.0718223 -0.0431487,0 -0.0837913,0.0301411 -0.0837913,0.0718223z"/>
   <polygon id="_114697448" class="fil5" points="0.84392,1.93922 0.84392,1.93323 0.837933,1.93323 0.837933,1.93922 "/>
   <path id="_114697256" class="fil6" d="M1.06537 1.95717l0.412982 0c0.0450012,-0.0517696 0.0170574,-0.0659119 0.110083,-0.0814416 0.0403098,-0.00673234 0.142887,-0.0203053 0.17721,-0.0203053 0.0134206,-0.00312759 0.0137574,-0.00598653 0.0299246,-0.00598653l0.0179556 0 0.0201208 -0.245195 0.0236694 -0.0531971c-0.0153172,0.00225748 -0.015654,0.00511641 -0.0318212,0.00511641l-0.011969 0c-0.0374469,0 -0.0598532,-0.0331885 -0.0598532,-0.0718223 0,-0.0418856 0.0332487,-0.0658398 0.0778088,-0.0658398 0,-0.117337 -0.000729771,-0.203498 0.119706,-0.203498l0.0897778 0c0.101346,0 0.155618,0.0397003 0.155618,0.143645 0,0.11524 0.0108904,0.0778088 -0.0418977,0.0778088l-0.0119731 0c-0.0180919,0 -0.0165482,0.00704509 -0.0179556,0.0239421l0.0657355 0.00457109c0.0129193,0.0145673 0.0300289,0.0192427 0.0300289,0.0492956l0 0.011969c0,0.0310914 -0.0159106,0.043285 -0.0359111,0.0538667 -0.00129113,0.0579326 -0.0434855,0.103832 -0.0855315,0.123953 -0.0438063,0.0209669 -0.0366209,-0.00834826 -0.046168,0.0555829 -0.00395359,0.0264883 -0.011945,0.0616255 -0.011945,0.0898019 0.0134246,0.00312759 0.0137614,0.00598653 0.0299246,0.00598653l0.0359111 0 0 0.0418937 0.00598653 -0.0359111c0.0303897,0 0.121948,0.0107501 0.145136,0.016468 0.0431687,0.0106418 0.0598893,0.0471504 0.0823879,0.0792122 0.036693,0.0522989 0.0895292,0.156091 0.125605,0.197599 0.00842043,-0.101173 0.0585902,-0.251278 0.0724678,-0.35847 0.00824801,-0.0637146 0.0256743,-0.116695 0.0377476,-0.177723 0.0122577,-0.0619824 0.00601058,-0.146127 0.0753268,-0.146127l1.23296 0c0.0270015,0 0.0421022,0.0142586 0.0478842,0.035855l-1.23895 0.00604266c0.22345,0 0.4469,0 0.670347,0 0.111727,0 0.22345,0 0.335173,0 0.0791681,0 0.29328,-0.0307065 0.29328,0.0478802l0 0.0119731c0,0.0571988 -0.0632575,0.337042 -0.0814135,0.403391 -0.0179075,0.0654268 -0.0849822,0.351004 -0.0861731,0.404618l0.0359111 0 0.00598252 0 0.0299286 0.00598252 0.0718223 0 0.0658357 -0.00598252 0.00598653 0 0.173573 0 0.245395 -0.00598653 0.00598252 -0.00598653 0 -0.011969 0.0119731 0 0.00598252 -0.011969 0 -1.08333 -0.185542 0 -0.0521706 0.0672792c-0.00169612,-0.0943249 -0.0302093,-0.309451 0.0282325,-0.348586l0.20948 0 0 -0.299262 -0.754138 0c0,0.105404 0.0388783,0.371084 -0.0658398,0.371084l-1.11325 0c-0.0751463,0 -0.0658398,-0.0796011 -0.0658398,-0.155614 0,-0.0718223 0,-0.143645 0,-0.215471l-1.4185 0 0 1.27486z"/>
   <path id="_114697088" class="fil7" d="M1.47836 1.95717c-0.00785506,0.0337178 -0.125432,0.266362 -0.151552,0.321284 -0.0274105,0.0576439 -0.135741,0.278788 -0.135741,0.337094l0 0.011969c0,0.0656473 0.043257,0.0836871 0.0778088,0.11372l0.598524 0 0.00609479 -0.14488 0.0956561 0.00722152c0.00937074,0.000830014 0.126431,-0.0299286 0.185542,-0.0299286l0.0171657 -7.61849e-005 0.00677644 -0.0298484 0.00598252 -0.0119731 0.00598653 -0.0239381 0.00598653 -0.0299286 0.00598252 -0.0239381 0.00598653 -0.0239421 0.00598653 -0.0299246 0.00598252 -0.0299286 0.00269454 -0.0487784 0.00329199 0.0128672 0.00598653 0.00598653 0.00598252 0.00598653 0.00598653 0.00598252 0.00598653 0.0119731 0.00598252 0.00598252 0.00598653 0.00598653 0.00598653 0.011969 0.00598252 0.00598653 0.00598653 0.011969 0.00598653 0.00598653 0.00598653 0.00598653 0.00598252 0.011969 0.00598653 0.00598653 0.00598653 0.011969 0.00598252 0.00598653 0.00598653 0.00598252 0.00598653 0.0119731 0.00598252 0.00598252 0.00598653 0.0119731 0.00598653 0.00598252 0.00598252 0.00598653 0.00598653 0.011969 0.00598653 0.00598653 0.00598252 0.011969 0.00598653 0.00598653 0.00598653 0.00598653 0.00598252 0.011969 0.00598653 0.00598653 0.00598653 0.00598653 0.00598252 0.00598252 0.00598653 0.00598653 0.00598653 0.00598653 0.00598653 0.00598252 0.011969 0.00598653 0.011969 0.00598653 0.0179556 0.00598252 0.0179556 0.00598653 0.0658398 0 0.0239381 -0.00598653 0.0179556 -0.00598252 0.0119731 -0.00598653 0.0179556 -0.00598653 0.0179556 -0.00598252 0.011969 -0.00598653 0.0179556 -0.00598653 0.0179556 -0.00598252 0.0119731 -0.00598653 0.0179556 -0.00598653 0.0179556 -0.00598653 0.011969 -0.00598252 0.0179556 -0.00598653 0.0179556 -0.00598653 0.0119731 -0.00598252 0.0179556 -0.00598653 0.0179556 -0.00598653 0.011969 -0.00598252 0.0179556 -0.00598653 0.011969 -0.00598653 0.0179556 -0.00598252 0.0119731 -0.00598653 0.00598653 -0.00598653c-0.0302013,-0.0191585 -0.183942,-0.00598252 -0.233426,-0.00598252 -0.115055,0 -0.148368,0.0228474 -0.197511,-0.0478842 -0.0251089,0.0155938 -0.0538667,-0.0216966 -0.0538667,-0.0478802 0,-0.039544 0.0318573,-0.178377 0.0418937,-0.221453 -0.0360755,-0.0415087 -0.0889117,-0.145301 -0.125605,-0.197599 -0.0224986,-0.0320618 -0.0392192,-0.0685704 -0.0823879,-0.0792122 -0.0231883,-0.00571787 -0.114746,-0.016468 -0.145136,-0.016468l-0.00598653 0.0359111c-0.00431848,0.05193 -0.0677524,0.0718263 -0.125689,0.0718263l-0.0299246 0c-0.110536,0 -0.147438,-0.0417092 -0.185542,-0.11372 -0.0343233,0 -0.1369,0.0135729 -0.17721,0.0203053 -0.0930257,0.0155297 -0.0650819,0.029672 -0.110083,0.0814416z"/>
   <path id="_114696968" class="fil3" d="M2.46592 2.15469c-0.0100364,0.0430765 -0.0418937,0.181909 -0.0418937,0.221453 0,0.0261835 0.0287578,0.063474 0.0538667,0.0478802 0.00125104,-0.0562886 0.0335294,-0.185097 0.0466051,-0.234697 0.0206942,-0.0784744 0.028866,-0.155521 0.0469339,-0.234377 0.0180598,-0.0788393 0.0315726,-0.158585 0.0465971,-0.234705 0.0126507,-0.0640755 0.0145553,-0.191817 0.0753308,-0.205976l1.23895 -0.00604266c-0.00578203,-0.0215964 -0.0208827,-0.035855 -0.0478842,-0.035855l-1.23296 0c-0.0693162,0 -0.063069,0.0841442 -0.0753268,0.146127 -0.0120733,0.0610281 -0.0294996,0.114009 -0.0377476,0.177723 -0.0138777,0.107192 -0.0640474,0.257296 -0.0724678,0.35847z"/>
   <path id="_114696776" class="fil0" d="M3.20809 1.84345c0,-0.0416811 0.0406426,-0.0718223 0.0837913,-0.0718223 0.042844,0 0.0837913,0.0322061 0.0837913,0.0718223l0 0.0179556c0,0.0488505 -0.036252,0.0837953 -0.0837913,0.0837953 -0.0375631,0 -0.0837913,-0.035017 -0.0837913,-0.0718223l0 -0.0299286zm-0.7302 0.580569c0.0491432,0.0707316 0.0824561,0.0478842 0.197511,0.0478842 0.0494841,0 0.203225,-0.013176 0.233426,0.00598252l0.0179556 0 0.20948 -0.00598252 0 0.0179556 0.00598653 0.0239381 0.00598653 0.0299286 0.00598252 0.0359111 0.00598653 0.0299246 0.00598653 0.0179556 0 0.0478842 -0.00598653 0.00598252 -0.00598653 0.00598653 -0.00598252 0.00598653 -0.574586 0 -0.00598252 -0.00598653 -0.00598653 -0.00598653 -0.00598653 -0.00598252 -0.00598252 -0.00598653 -0.00598653 -0.00598653 -0.011969 0 -0.00598653 0.0359151 -0.00598653 0.0179556 -0.00598252 0.0179556 0 0.00598252 1.03544 0 0 -0.0538667 -0.00598252 -0.0239421 -0.00598653 -0.0179556 -0.00598653 -0.0179556 -0.00598252 -0.0179556 -0.00598653 -0.0179556 -0.00598653 -0.011969 -0.00598653 -0.0179556 -0.00598252 -0.0179556 -0.00598653 -0.0179556 -0.00598653 -0.0179556 -0.00598252 -0.0179556 -0.00598653 -0.0119731 0.287293 -0.00598252 0.0179556 -0.00598653 0.011969 -0.00598653 0.00598653 -0.00598252 0.00598653 -0.00598653 0.00598252 -0.00598653 0.00598653 -0.0179556 0.00598653 -0.0239381 0 -0.0179556c0.00119089,-0.0536141 0.0682656,-0.339191 0.0861731,-0.404618 0.0181561,-0.066349 0.0814135,-0.346192 0.0814135,-0.403391l0 -0.0119731c0,-0.0785867 -0.214112,-0.0478802 -0.29328,-0.0478802 -0.111723,0 -0.223446,0 -0.335173,0 -0.223446,0 -0.446896,0 -0.670347,0 -0.0607755,0.0141584 -0.0626801,0.1419 -0.0753308,0.205976 -0.0150245,0.0761207 -0.0285372,0.155866 -0.0465971,0.234705 -0.0180678,0.0788553 -0.0262397,0.155902 -0.0469339,0.234377 -0.0130757,0.0496004 -0.045354,0.178409 -0.0466051,0.234697z"/>
   <path id="_114696656" class="fil8" d="M1.26887 2.74124c-0.0345518,-0.0300329 -0.0778088,-0.0480726 -0.0778088,-0.11372l0 -0.011969c0,-0.0583055 0.108331,-0.27945 0.135741,-0.337094 0.0261194,-0.0549213 0.143697,-0.287566 0.151552,-0.321284l-0.412982 0 -0.0658357 0c-0.0247801,0.0215363 -0.0598532,0.0240624 -0.0598532,0.0718223l0 0.0119731c0,0.0542757 0.0741319,0.281491 0.0933184,0.349588 0.0198,0.0702865 0.0969111,0.292522 0.0982063,0.350683l0.137662 0z"/>
   <path id="_114696536" class="fil9" d="M1.8674 2.74124l0.424955 0 0 -0.0239381 -0.00598653 -0.0538707 -0.00598653 -0.0179556 -0.00598653 -0.011969 -0.00598252 -0.00598653 -0.00598653 -0.011969 -0.00598653 -0.00598653 -0.00598252 -0.00598252 -0.00598653 -0.00598653 -0.011969 -0.00598653 -0.00598653 -0.00598252 -0.011969 -0.00598653 -0.0119731 -0.00598653 -0.0239381 0 0 -0.0299246 -0.00677644 0.0298484 -0.0171657 7.61849e-005c-0.0591114,0 -0.176171,0.0307586 -0.185542,0.0299286l-0.0956561 -0.00722152 -0.00609479 0.14488z"/>
   <polygon id="_114696392" class="fil5" points="2.73526,3.02853 2.73526,3.02255 2.72927,3.02255 2.72927,3.02853 "/>
   <polygon id="_114696224" class="fil8" points="1.25429,3.149 1.35267,2.85496 1.16927,2.85608 "/>
   <path id="_114696104" class="fil10" d="M1.26887 3.19013c0,0.0230319 0.0197479,0.107733 0.0418977,0.107733l0.196986 0.00014836 -0.119177 -0.443055 -0.0119731 0c-0.00653987,0.0785907 -0.107733,0.276038 -0.107733,0.335173z"/>
   <path id="_114695912" class="fil2" d="M1.58011 3.46546l0.00598252 -0.0179556 0.203498 -0.00598653 0 0.484804 -0.011969 0 -0.011969 0.00598653 0 0.149631 0.101747 0 0.215471 0 0.119702 0 0 -0.149631 -0.011969 -0.00598653 -0.00598653 -0.00598653 0 -0.197511 0 -0.281307 0.137662 0 0 0.0897778 0 0.359115 0 0.0418977 -0.0179556 0 -0.00598653 0.0658357 0 0.0837953 0.107733 0 0.287293 0 0.0478802 0 0 -0.149631 -0.0241145 0 0.00615894 -0.359115 0.00598653 -0.269338 0 -0.233422 0 -0.0299286 0 -0.00598252 -0.011969 0 0 -0.0119731 -0.00598653 -0.011969 -0.00598653 -0.011969 -0.00598252 -0.00598653 -0.00598653 -0.011969 -0.00598653 -0.0119731 -0.00598252 -0.00598252 -0.00598653 -0.00598653 -0.00598653 -0.0119731 -0.00598252 -0.00598252 -0.00598653 -0.00598653 -0.00598653 -0.00598653 -0.00598252 -0.00598252 -0.00598653 -0.00598653 -0.0119731 -0.00598653 -0.00598252 -0.00598252 -0.00598653 -0.00598653 -0.011969 -0.00598653 -0.00598653 -0.00598252 -0.011969 -0.00598653 -0.0119731 -0.00598653 -0.011969 -0.00598252 -0.011969 -0.00598653 -0.00598653 -0.00598653 -0.514729 0c0.0409955,0.0356345 0.0742041,0.0337178 0.117421,0.0920634 0.0247922,0.0334692 0.0561482,0.104309 0.0561482,0.159319l0 0.191525 0.125693 0 0 0.137662 -0.144847 -6.81654e-005 0.00718543 -0.149563 0 -0.137658c0,-0.147133 -0.0933264,-0.29328 -0.221453,-0.29328l-0.557882 0.000344837 0.120957 0.442562 0.257364 0 0 0.137662 -0.216257 7.61849e-005 0.00677644 0.0298524z"/>
   <path id="_114695792" class="fil9" d="M2.40008 4.16573l-0.00598653 0.0179556 0 0.00598653c0.0329239,0.00273865 0.0607514,0.0179556 0.0897778,0.0179556l0.0598532 0c0.0342952,0 0.0568139,-0.0278396 0.0779852,-0.0422224l0.0237296 0.0122658 -0.0478481 0.0658678c0.0345077,-0.000769868 0.0435417,-0.032952 0.0661806,-0.0491873l0.0235973 0.00728969 0.00598653 -0.0299246 0 -0.0897778 -0.287293 0 -0.00598252 0.0837913z"/>
   <path id="_114695624" class="fil9" d="M1.86141 4.17171l0 0.00598252c0.0398166,0.00089016 0.0695247,0.0239421 0.107737,0.0239421l0.0359111 0c0.037102,0 0.0630089,-0.0198 0.0776805,-0.0415689l0.0180839 0.00565773 0 -0.00598653 -0.00598653 -0.00598252 -0.011969 0 0 -0.0718223 -0.215471 0 -0.00598653 0.0897778z"/>
   <path id="_114695480" class="fil11" d="M2.36417 4.31536c0.0106378,-0.0106378 -0.0106418,0.0106418 0,0zm-0.185542 -0.0418977l-0.000998423 0.00698495 -0.0049881 -0.00698495 0.00598653 0zm-0.909759 -1.08333c0,-0.0591355 0.101194,-0.256583 0.107733,-0.335173l0.0119731 0 0.119177 0.443055 -0.196986 -0.00014836c-0.0221497,0 -0.0418977,-0.0847015 -0.0418977,-0.107733zm-0.0996057 -0.334055l0.183401 -0.00111871 -0.0983787 0.294037 -0.0850223 -0.292919zm-0.319359 -0.904888l0.00598252 0.00598252 0 0.0119731 -0.00598252 0.00598252 -0.00598653 0.0119731 -0.00598653 0.00598252 -0.00598252 0.0119731 -0.00598653 0.0179556 0 0.0478802 0.00598653 0.0299286 0.00598252 0.0179556 0.00598653 0.0239381 0.00598653 0.0179556 0.00598252 0.0179556 0.00598653 0.0179556 0.00598653 0.0179596 0.00598252 0.0239381 0.00598653 0.0239421 0.00598653 0.0239421 0.00598252 0.0179556 0.00598653 0.0179556 0.00598653 0.0239421 0.00598252 0.0179556 0.00598653 0.0239381 0.00598653 0.0179556 0.00598653 0.0179556 0.00598252 0.0239421 0.00598653 0.0179556 0.00598653 0.0239421 0.00598252 0.0179556 0.00598653 0.0239381 0.00598653 0.0179556 0.00598252 0.0239421 0.00598653 0.0179556 0.00598653 0.0179556 0.00598252 0.0239421 0.00598653 0.0179556 0.00598653 0.0239421 0.00598252 0.0179556 0.00598653 0.0239421 0.00598653 0.0179556 -0.0179556 0 -0.484808 0.00598252 0 0.0658398 0 0.0299246 0 0.0119731 0.0299286 0.00598252 0.496773 0.00598653 0.0179556 0 0 0.0179556 0.00598653 0.0239421 0.00598653 0.0179556 0.00598252 0.0239381 0.00598653 0.0179596 0.00598653 0.0239381 0.00598252 0.0179556 0.00598653 0.0179556 0.00598653 0.0239421 0.00598252 0.0179556 0.00598653 0.0239421 0.00598653 0.0239421 0.00598252 0.0179556 0.00598653 0.0239381 0.00598653 0.0179556 0.00598653 0.0179556 0.00598252 0.0179556 0.00598653 0.0239421 0.00598653 0.0179556 0.00598252 0.0239421 0.00598653 0.0179556 0.00598653 0.0179556 0 0.0239421 -0.00598653 0.0179556 -0.00598653 0.0179556 -0.00598252 0.0179556 -0.00598653 0.0179556 -0.00598653 0.0179556 -0.00598252 0.0179556 -0.00598653 0.0179556 -0.00598653 0.0179556 -0.00598653 0.0179556 -0.00598252 0.0179556 -0.00598653 0.0179556 -0.00598653 0.0179556 -0.00598252 0.0179556 -0.00598653 0.0179556 -0.00598653 0.0179556 -0.00598252 0.0179556 -0.00598653 0.0179556 -0.00598653 0.0179556 -0.00598252 0.0179556 -0.00598653 0.0179556 -0.00598653 0.0179596 -0.00598252 0.0179556 -0.00598653 0.0179556 -0.00598653 0.0179556 -0.00598252 0.0179556 -0.00598653 0.0179556 -0.00598653 0.0179556 -0.00598252 0.0179556 -0.00598653 0.0179556 -0.00598653 0.0179556 -0.00598252 0.0179556 -0.00598653 0.0179556 -0.00598653 0.0179556 -0.00598252 0.011969 -0.00598653 0.0179556 -0.00598653 0.0179556 -0.00598252 0.0179556 -0.00598653 0.0179556 -0.00598653 0.0179556 -0.00598252 0.0179556 -0.00598653 0.0179596 -0.00598653 0.0179556 -0.00598252 0.011969 -0.00598653 0.0179556 -0.00598653 0.0179556 -0.00598653 0.0179556 -0.00598252 0.0179556 -0.00598653 0.0179556 -0.00598653 0.0179556 -0.00598252 0.0179556 -0.00598653 0.0179556 -0.00598653 0.0359111 -0.00598252 0.00598653 -0.00598653 0.0179556 -0.00598653 0.0179556 -0.00598252 0.0179556 -0.00598653 0.0179556 -0.00598653 0.0179556 -0.00598252 0.0179556 0 0.0119731 0.0299246 0 0.00598653 -0.00598653 0.00598252 -0.0179556 0.00598653 -0.0179556 0.00598653 -0.0179556 0.00598252 -0.0179556 0.00598653 -0.0179556 0.00598653 -0.0179556 0.00598252 -0.0179556 0.00598653 -0.0179556 0.00598653 -0.0179556 0.00598653 -0.0179556 0.00598252 -0.0179556 0.00598653 -0.0179596 0.00598653 -0.011969 0.00598252 -0.0179556 0.00598653 -0.0179556 0.00598653 -0.0179556 0.00598252 -0.0179556 0.00598653 -0.0179556 0.00598653 -0.0179556 0.00598252 -0.0179556 0.00598653 -0.0179556 0.00598653 -0.0179556 0.00598252 -0.0179556 0.00598653 -0.0179556 0.00598653 -0.0179556 0.00598252 -0.0179556 0.00598653 -0.0179556 0.00598653 -0.0179556 0.00598252 -0.0179556 0.00598653 -0.0179556 0.00598653 -0.0179556 0.00598252 -0.0179596 0.00598653 -0.0179556 0.00598653 -0.0179556 0.00598252 -0.0179556 0.00598653 -0.0179556 0.00598653 -0.0179556 0.00598252 -0.0179556 0.00598653 -0.0179556 0.00598653 -0.0179556 0.00598252 -0.0179556 0.00598653 -0.011969 0.00598653 -0.0179556 0.00598252 -0.0179556 0.00598653 -0.0239421 0.00598653 -0.0179556 0.00598653 -0.0179556 0.00598252 -0.0119731 0.00598653 -0.0179556 0.00598653 -0.0179556 0.00598252 -0.0179556 0.00598653 -0.0179556 0.00598653 -0.0179556 0.00598252 -0.0179556 0.00598653 -0.0179556 0.00598653 -0.011969 0.00029672 -0.0188537 0.0116723 0.0068807 0.00598653 0.0119731 0.00598252 0.00598252 0.00598653 0.00598653 0.011969 0.00598653 0.00598653 0.00598252 0.0179556 0.00598653 0.0239421 0.00598653 0.233422 0.00598653 0.0179596 0 0 0.011969 0.00598252 0.0179556 0.00598653 0.0239421 0.00598653 0.0239381 0.00598252 0.0179556 0.00598653 0.0239421 0.00598653 0.0179556 0.00598252 0.0239421 0.00598653 0.0239421 0.00598653 0.0179556 0.00598252 0.0239381 0.00598653 0.0179556 0.00598653 0.0239421 0.00598252 0.0239421 0.00598653 0.0179556 0.00598653 0.0239421 0.00598252 0.0239381 0.00598653 0.0179556 0.00598653 0.0239421 0.00598252 0.0239421 0.00598653 0.0179556 0.00598653 0.0239421 0.00598653 0.0239381 0.00598252 0.0179556 0.00598653 0.0239421 0.00598653 0.0239421 0.00598252 0.0179556 0.00598653 0.0239381 0.00598653 0.0179596 0.00598252 0.0239381 0.00598653 0.0239421 0.00598653 0.0179556 0.00598252 0.0239421 0.00598653 0.0239381 0.00598653 0.0239421 0.00598252 0.0179556 0.00598653 0.0239421 0.00598653 0.0179556 0.00598252 0.0239421 0.00598653 0.0239381 0.00598653 0.0179596 0.00598252 0.0239381 0.00598653 0.0179556 0.00598653 0.0239421 0.00598252 0.00598653 0.0299286 0 0 -0.0179556 -0.00598653 -0.0179556 0 -0.0119731 0.383057 -0.00598252 0.7302 0 0 -0.00598653 -0.00598653 -0.00598653 -0.011969 -0.00598252 -0.00598653 -0.00598653 -0.011969 -0.00598653 -0.0119731 -0.00598653 -0.00598653 -0.00598252 -0.011969 -0.00598653 -0.011969 -0.00598653 -0.0119731 -0.00598252 -0.00598252 -0.00598653 -0.0119731 -0.00598653 -0.0179556 -0.00598252 -0.011969 -0.00598653 -0.00598653 -0.00598653 -0.0179556 -0.00598252 -0.011969 -0.00598653 -0.0179556 -0.00598653 -0.0119731 -0.00598252 -0.00598252 -0.00598653 -0.0119731 -0.00598653 -0.00598252 -0.00598252 -0.0119731 -0.00598653 -0.011969 -0.00598653 -0.00598653 0 -0.0235973 -0.00728969c-0.0226389,0.0162354 -0.0316729,0.0484175 -0.0661806,0.0491873l0.0478481 -0.0658678 -0.0237296 -0.0122658c-0.0211714,0.0143829 -0.04369,0.0422224 -0.0779852,0.0422224l-0.0598532 0c-0.0290264,0 -0.056854,-0.0152169 -0.0897778,-0.0179556l-0.00598653 0 -0.00598252 0.011969 -0.00598653 0.0119731 -0.00598653 0.0179556 -0.00598252 0.0239381 -0.00598653 0.0359111 -0.00030073 0.0128712 -0.0116683 -0.00688471 -0.00598653 -0.00598653 -0.011969 -0.00598252 -0.0119731 -0.00598653 -0.011969 -0.00598653 -0.00598653 -0.00598252 -0.011969 -0.00598653 -0.0119731 -0.00598653 -0.011969 -0.00598252 -0.011969 -0.00598653 -0.0119731 -0.00598653 -0.011969 0 -0.011969 0.00598653 -0.00598653 0.00598653 -0.00598653 0.00598252 -0.00598252 0.00598653 -0.00598653 0.00598653 -0.011969 0.00598252 0.00598252 -0.011969 0.00598653 -0.00598653 0.00598653 -0.011969 0.00598252 -0.00598653 0 -0.0179556 -0.0418937 -0.00598252 -0.00598653 -0.0119731 -0.00598653 -0.011969 -0.0179556 0 -0.011969 0.00598653 -0.00598653 0.00598252 -0.00598653 0.00598653 -0.011969 0.00598653 -0.00598653 0.00598252 -0.00598252 0.00598653 0 -0.00598653 0.00598252 -0.00598252 0.00598653 -0.00598653 0.00598653 -0.00598653 0.00598252 -0.00598252 0.00598653 -0.00598653 0 -0.0179556 -0.00598653 -0.00598653 -0.00598252 0 -0.0180839 -0.00565773c-0.0146716,0.0217688 -0.0405785,0.0415689 -0.0776805,0.0415689l-0.0359111 0c-0.0382127,0 -0.0679208,-0.0230519 -0.107737,-0.0239421l-0.00598252 0 -0.00598653 0.0119731 -0.00598653 0.011969 -0.00598252 0.0179556 -0.00598653 0.0239421 -0.00598653 0.0239421 -0.00598252 0.0359111 -0.00598653 0.0179556 0 -0.0239421 -0.00598653 -0.0239421 -0.00598252 -0.0179556 -0.00598653 -0.0239381 -0.00598653 -0.0239421 -0.00598252 -0.0179556 -0.00598653 -0.0239421 -0.00598653 -0.0179556 -0.00598252 -0.0239421 -0.00598653 -0.0239381 -0.00598653 -0.0239421 -0.00598252 -0.0179556 -0.00598653 -0.0239421 -0.00598653 -0.0179556 -0.00598252 -0.0239421 -0.00598653 -0.0239381 -0.00598653 -0.0179556 -0.00598252 -0.0239421 -0.00598653 -0.0239421 -0.00598653 -0.0179556 -0.00598252 -0.0239381 -0.00598653 -0.0179556 -0.00598653 -0.0239421 -0.00598252 -0.0239421 -0.00598653 -0.0179556 -0.00598653 -0.0239421 -0.00598653 -0.0239381 -0.00598252 -0.0179556 -0.00598653 -0.0239421 -0.00598653 -0.0239421 -0.00598252 -0.0179556 -0.00598653 -0.0239421 -0.00598653 -0.0239381 -0.00598252 -0.0179556 -0.00598653 -0.0239421 -0.00598653 -0.0239421 -0.00598252 -0.0179556 -0.00598653 -0.0239421 -0.00598653 -0.0179556 -0.00598252 -0.00598252 -0.00677644 -0.0298524 0.216257 -7.61849e-005 0 -0.137662 -0.257364 0 -0.120957 -0.442562 0.557882 -0.000344837c0.128127,0 0.221453,0.146147 0.221453,0.29328l0 0.137658 -0.00718543 0.149563 0.144847 6.81654e-005 0 -0.137662 -0.125693 0 0 -0.191525c0,-0.0550095 -0.0313561,-0.125849 -0.0561482,-0.159319 -0.0432169,-0.0583456 -0.0764254,-0.0564289 -0.117421,-0.0920634l0.514729 0 1.02348 0.00598653 0.00598653 0.00598653 -0.00598653 0.0179556 -0.00598252 0.0179556 -0.00598653 0.0179556 -0.00598653 0.0179556 -0.00598252 0.0179556 -0.00598653 0.0179556 -0.00598653 0.0179556 -0.00598252 0.0179556 -0.00598653 0.0179556 -0.00598653 0.0179556 -0.00598653 0.0179556 -0.00598252 0.0179556 -0.00598653 0.0179556 -0.00598653 0.0179556 -0.00598252 0.0119731 -0.00598653 0.0179556 -0.00598653 0.0179556 -0.00598252 0.0179556 -0.00598653 0.0179556 -0.00598653 0.0179556 -0.00598252 0.0179556 -0.00598653 0.0179556 -0.00598653 0.0179556 -0.00598252 0.0179556 -0.00598653 0.0179556 -0.00598653 0.0179556 -0.00598252 0.0239421 -0.00598653 0.011969 -0.00598653 0.0179556 -0.00598252 0.0179556 -0.00598653 0.0179556 -0.00598653 0.0179556 -0.00598653 0.0179556 -0.00598252 0.0179556 -0.00598653 0.0239421 -0.00598653 0.011969 -0.00598252 0.0179556 -0.00598653 0.0119731 -0.00598653 0.0239381 -0.00598252 0.0179596 -0.00598653 0.0179556 -0.00598653 0.0179556 -0.00598252 0.0179556 -0.00598653 0.0179556 -0.00598653 0.0179556 -0.00598252 0.0179556 -0.00598653 0.0179556 -0.00598653 0.0179556 -0.00598252 0.0179556 -0.00598653 0.0179556 -0.00598653 0.011969 -0.00598252 0.0179556 -0.00598653 0.0179556 -0.00598653 0.0179556 -0.00598252 0.0179596 -0.00598653 0.0179556 -0.00598653 0.0179556 -0.00598252 0.0179556 -0.00598653 0.0179556 -0.00598653 0.0179556 -0.00598252 0.0179556 -0.00598653 0.0179556 -0.00598653 0.0179556 -0.00598252 0.0179556 -0.00598653 0.0179556 -0.00598653 0.0179556 -0.00598252 0.0179556 -0.00598653 0.0179556 -0.00598653 0.0179556 -0.00598653 0.0179556 -0.00598252 0.0179556 -0.00598653 0.0179556 -0.00598653 0.0179556 -0.00598252 0.0179556 -0.00598653 0.0179556 -0.00598653 0.0179556 -0.00598252 0.0119731 -0.00598653 0.0179556 -0.00598653 0.0239381 -0.00598252 0.0179556 -0.00598653 0.0179556 -0.00598653 0.0179596 -0.00598252 0.0179556 -0.00598653 0.0179556 -0.00598653 0.0179556 0 0.0179556 0.0299286 0 0.00598252 -0.0119731 0.00598653 -0.0179556 0.00598653 -0.0179556 0.00598252 -0.0179556 0.00598653 -0.0179556 0.00598653 -0.0179556 0.00598252 -0.0179556 0.00598653 -0.0179556 0.00598653 -0.0179556 0.00598252 -0.0179556 0.00598653 -0.0179556 0.00598653 -0.0179556 0.00598653 -0.0179556 0.00598252 -0.0179556 0.00598653 -0.0179556 0.00598653 -0.0179556 0.00598252 -0.0119731 0.00598653 -0.0179556 0.00598653 -0.0179556 0.00598252 -0.0179556 0.00598653 -0.0179556 0.00598653 -0.0179556 0.00598252 -0.0179556 0.00598653 -0.0179556 0.00598653 -0.0179556 0.00598252 -0.0179556 0.00598653 -0.0179556 0.00598653 -0.0179556 0.00598252 -0.0179556 0.00598653 -0.0179556 0.00598653 -0.0179556 0.00598252 -0.0179556 0.00598653 -0.0179556 0.00598653 -0.0179556 0.00598252 -0.0179556 0 -0.0179556 0.0418977 0 0 -0.00598653 -0.0368093 -0.00030073 0.00688471 -0.0116683 0.00598252 -0.0179556 0.00598653 -0.0179556 0.00598653 -0.0179596 0.00598252 -0.0179556 0.00598653 -0.0179556 0.00598653 -0.0179556 0.00598252 -0.0179556 0.00598653 -0.0179556 0.00598653 -0.0179556 0.00598252 -0.0179556 0.00598653 -0.0179556 0.00598653 -0.0179556 0.00598653 -0.0179556 0.00598252 -0.0179556 0.00598653 -0.0179556 0.00598653 -0.011969 0.00598252 -0.0179556 0.00598653 -0.0179596 0.00598653 -0.0179556 0.00598252 -0.0179556 0.00598653 -0.0179556 0.00598653 -0.0179556 0.00598252 -0.0179556 0.00598653 -0.0179556 0.00598653 -0.0179556 0.00598252 -0.0179556 0.00598653 -0.0179556 0.00598653 -0.0179556 0.00598252 -0.0179556 0.00598653 -0.0179556 0.00598653 -0.0179556 0.00598252 -0.0179556 0.00598653 -0.0179556 0.00598653 -0.0179556 0.00598653 -0.0179556 0.00598252 -0.0179556 0.00598653 -0.0179556 0.00598653 -0.0179556 0.00598252 -0.0179556 0.00598653 -0.0179556 0.00598653 -0.0179556 0.00598252 -0.0119731 0.00598653 -0.0179556 0.00598653 -0.0239381 0.00598252 -0.0179596 0.00598653 -0.0179556 0.00598653 -0.011969 0.00598252 -0.0179556 0.00598653 -0.0179556 0.00598653 0 0.00598252 0.0179556 0.00598653 0.0239421 0.00598653 0.0179556 0.00598252 0.0239421 0.00598653 0.0239381 0.00598653 0.0179556 0.00598653 0.0239421 0.00598252 0.0239421 0.00598653 0.0179556 0.00598653 0.0239421 0.00598252 0.0179556 0.00598653 0.0239381 0.00598653 0.0239421 0.00598252 0.0179556 0.00598653 0.0239421 0.00598653 0.0239381 0.00598252 0.0179556 0.00598653 0.0239421 0.00598653 0.0239421 0.00598252 0.0179556 0.00598653 0.0239421 0.00598653 0.0239381 0.00598252 0.0179556 0.00598653 0.0239421 0.00598653 0.0179556 0.00598252 0.0239421 0.00598653 0.0239421 0.00598653 0.0179556 0.00598653 0.0239381 0.00598252 0.0239421 0.00598653 0.0239421 0.00598653 0.0179556 0.00598252 0.0239421 0.00598653 0.0179556 0.00598653 0.0239381 0.00598252 0.0239421 0.00598653 0.0179556 0.00598653 0.0239421 0.00598252 0.0239421 0.00598653 0.0179556 0.00598653 0.0239381 0.00598252 0.0239421 0.00598653 0.0179556 0.00598653 0.0239421 0.00598252 0.0239421 0.00598653 0.0179556 0.00598653 0.0239381 0.00598252 0.0179556 0.00598653 0.0239421 0.00598653 0.0239421 0.00598653 0.0179556 0.00598252 0.0239381 0.00598653 0.0239421 0.00598653 0.0179556 0.00598252 0.0239421 0.00598653 0.0239421 0.00598653 0.0179556 0.00598252 0.0239381 0.00598653 0.0239421 0.00598653 0.0179556 0.00598252 0.0239421 0.00598653 0.0239421 0.00598653 0.0179556 0.00598252 0.0239381 0.00598653 0.0179556 0.00598653 0.0239421 0.00598252 0.0239421 0.00598653 0.0179556 0.00598653 0.0239421 0.00598252 0.0179556 0.00598653 0.011969 0.00598653 0 0.00598252 -0.00598653 0.0119731 -0.00598252 0 -0.0179556 -0.00598653 -0.0299286 -0.00598653 -0.0239381 -0.00598252 -0.0179596 -0.00598653 -0.0239381 -0.00598653 -0.0239421 -0.00598252 -0.0179556 -0.00598653 -0.0239421 -0.00598653 -0.0239381 -0.00598252 -0.0179596 -0.00598653 -0.0239381 -0.00598653 -0.0179556 -0.00598252 -0.0239421 -0.00598653 -0.0239421 -0.00598653 -0.0179556 -0.00598252 -0.0239421 -0.00598653 -0.0239381 -0.00598653 -0.0179556 -0.00598252 -0.0239421 -0.00598653 -0.0239421 -0.00598653 -0.0179556 -0.00598252 -0.0239381 -0.00598653 -0.0239421 -0.00598653 -0.0179556 -0.00598252 -0.0239421 -0.00598653 -0.0239421 -0.00598653 -0.0179556 -0.00598653 -0.0239381 -0.00598252 -0.0179556 -0.00598653 -0.0239421 -0.00598653 -0.0239421 -0.00598252 -0.0239421 -0.00598653 -0.0299246 -0.00598653 -0.011969 -0.00598252 -0.0119731 -0.00598653 -0.00598252 0 -0.00598653 0 -0.0239421 -0.00598653 -0.0179556 -0.00598252 -0.0179556 -0.00598653 -0.0239421 -0.00598653 -0.0239381 -0.00598252 -0.0179556 -0.00598653 -0.0239421 -0.00598653 -0.0239421 -0.00598252 -0.0179556 -0.00598653 -0.0239421 -0.00598653 -0.0239381 -0.00598252 -0.0179556 -0.00598653 -0.0239421 -0.00598653 -0.0239421 -0.00598653 -0.0179556 -0.00598252 -0.0239421 -0.00598653 -0.0239381 -0.00598653 -0.0179556 -0.00598252 -0.0239421 -0.00598653 -0.0179556 -0.00598653 -0.0239421 -0.00598252 -0.0239381 -0.00598653 -0.0179556 -0.00598653 -0.0239421 -0.00598252 -0.0239421 -0.00598653 -0.0179556 -0.00598653 -0.0239421 -0.00598252 -0.0239381 -0.00598653 -0.0179556 -0.00598653 -0.0239421 -0.00598252 -0.0239421 -0.00598653 -0.0179556 -0.00598653 -0.0239421 -0.00598252 -0.0239381 0 -0.00598653 0 -0.011969 0.011969 0 0.011969 -0.00598653 0.718231 -0.00598653 0.00598653 -0.0718223 0 -0.0478802 -0.0179596 0 -0.418965 0 -0.0179556 -0.00598653 -0.011969 -0.00598653 -0.0778088 0 -0.0119731 0.00598653 -0.0418937 0.00598653 0 -0.0119731 -0.0119731 0 -0.00598252 0.00598653 -0.0179596 0.00598653 -0.221453 0.00598252 -1.03544 0 -0.0179556 -0.00598252 -0.0239421 0 -0.179556 0.00598252 -0.424955 0 -0.598524 0 -0.137662 0c-0.00129514,-0.0581611 -0.0784062,-0.280396 -0.0982063,-0.350683 -0.0191866,-0.0680972 -0.0933184,-0.295313 -0.0933184,-0.349588l0 -0.0119731c0,-0.0477599 0.0350731,-0.050286 0.0598532,-0.0718223l-0.125693 0 -0.00598252 -0.00598252 -0.00598653 -0.00598653 -0.00598653 -0.00598653 -0.011969 0 0 0.00598653 0.00598653 0.00598653z"/>
   <path id="_114695360" class="fil5" d="M2.75321 4.35726l-0.00598653 0.00598653 -0.0598532 0.00598252 -0.0239381 0.00598653 -0.0119731 0 -0.00598252 -0.00598653 -0.00598653 -0.00598252 -0.0119731 -0.00598653 0.125693 0zm-0.514733 0.00598653l0.00598653 0.0239381 0.00598653 0.0179556 0.00598252 0.0119731 0.00598653 0.011969 0.0658398 0.00598653 0.0179556 0.00598252 0.011969 0.00598653 0.00598653 0.00598653 0.011969 0.00598653 0.00598653 0.00598252 0.00598252 0.00598653 0.0119731 0.00598653 0.00598252 0.00598252 0.0119731 0.00598653 0.00598653 0.00598653 0.011969 0.00598252 0.011969 0.00598653 0.0119731 0.00598653 0.00598252 0.00598252 0.00598653 0.00598653 0.011969 0.00598653 0.00598653 0.00598252 0.00598653 0.00598653 0.00598252 0.00598653 0.00598653 0.00598252 0.00598653 0.00598653 0.00598252 0.00598653 0.00598653 0.00598252 0.00598653 0.00598653 0.00598252 0.00598653 0.00598653 0.00598653 0.00598653 0.00598252 0.00598252 0.00598653 0.00598653 0.00598653 0.155618 0 0.125689 -0.00598653 0.00598653 -0.00598653 0.00598252 -0.00598252 0.00598653 -0.00598653 0.00598653 -0.00598653 0.00598252 -0.00598653 0.00598653 -0.00598252 0.00598653 -0.00598653 0.00598252 -0.00598653 0.00598653 -0.00598252 0.00598653 -0.00598653 0.00598653 -0.00598653 0.00598252 -0.00598252 0.00598653 -0.00598653 0.00598653 -0.00598653 0.00598252 -0.00598252 0.00598653 -0.00598653 0.00598653 -0.00598653 0.00598252 -0.00598252 0.00598653 -0.00598653 0.00598653 -0.00598653 0.00598252 -0.00598252 0.00598653 -0.00598653 0.00598653 -0.00598653 0.00598252 -0.0179556 0 -0.0179556 0.0598532 0 0 -0.00598653 -0.0718223 0 0 -0.0179556 -0.00598653 -0.0299246 -0.00598252 -0.0239421 -0.0119731 -0.00598252 -0.00598252 0 -0.7302 0 0 0.00598252 0.0239381 0 0 0.0119731z"/>
   <polygon id="_114695192" class="fil5" points="3.30984,4.42309 3.30984,4.42908 3.35174,4.42908 3.35174,4.39915 3.34575,4.39915 3.34575,4.42309 "/>
   <polygon id="_114694736" class="fil0" points="4.0161,4.41711 4.01011,4.42309 4.01011,4.42908 4.03405,4.42908 4.04004,4.42309 4.04004,4.41112 4.03405,4.41112 "/>
   <ellipse id="_114710552" class="fil12 str0" cx="2.02299" cy="1.58906" rx="0.0836991" ry="0.0459756"/>
   <polygon id="_114708056" class="fil13 str1" points="2.01827,1.47353 2.00531,1.50065 2.02535,1.50065 "/>
   <ellipse id="_82540928" class="fil14 str0" cx="1.96393" cy="1.42641" rx="0.0124703" ry="0.0137173"/>
   <ellipse id="_114706208" class="fil14 str0" cx="2.07954" cy="1.43515" rx="0.0124703" ry="0.0137173"/>
  </g>
 </g>
</svg>
