<?xml version="1.0" encoding="UTF-8"?>
<!DOCTYPE svg PUBLIC "-//W3C//DTD SVG 1.1//EN" "http://www.w3.org/Graphics/SVG/1.1/DTD/svg11.dtd">
<!-- Creator: CorelDRAW -->
<svg xmlns="http://www.w3.org/2000/svg" xml:space="preserve" width="2.9563in" height="3.80935in" style="shape-rendering:geometricPrecision; text-rendering:geometricPrecision; image-rendering:optimizeQuality; fill-rule:evenodd; clip-rule:evenodd"
viewBox="0 0 2.29349 2.95528"
 xmlns:xlink="http://www.w3.org/1999/xlink">
 <defs>
  <style type="text/css">
   <![CDATA[
    .fil14 {fill:#393D52}
    .fil10 {fill:#454C65}
    .fil7 {fill:#495B89}
    .fil18 {fill:#555A7A}
    .fil3 {fill:#615D93}
    .fil24 {fill:#687395}
    .fil17 {fill:#767888}
    .fil23 {fill:#7C4A41}
    .fil22 {fill:#848CBD}
    .fil5 {fill:#85F7D3}
    .fil25 {fill:#908C95}
    .fil20 {fill:#CE905D}
    .fil2 {fill:#CFE2FE}
    .fil1 {fill:#D1EECE}
    .fil0 {fill:#D29596}
    .fil9 {fill:#E6F2FE}
    .fil19 {fill:#EDA566}
    .fil11 {fill:#EDD4D1}
    .fil15 {fill:#F295C5}
    .fil8 {fill:#F56EAB}
    .fil6 {fill:#F785BB}
    .fil21 {fill:#F9E8D5}
    .fil16 {fill:#FAFBFD}
    .fil12 {fill:#FD3C82}
    .fil4 {fill:#FDD76D}
    .fil13 {fill:#FFD04E}
   ]]>
  </style>
 </defs>
 <g id="Layer_x0020_1">
  <metadata id="CorelCorpID_0Corel-Layer"/>
  <g id="_114713096">
   <polygon id="_114694136" class="fil0" points="0.644279,0.25211 0.637275,0.25561 0.630275,0.259113 0.626771,0.262614 0.623271,0.269617 0.619768,0.273118 0.616268,0.280121 0.612764,0.294128 0.609264,0.315136 0.605764,0.318639 0.60226,0.322139 0.59876,0.329143 0.595257,0.336147 0.591757,0.34315 0.591757,0.420183 0.595257,0.427187 0.60226,0.430687 0.612764,0.430687 0.619768,0.427187 0.626771,0.423683 0.633775,0.420183 0.640779,0.41668 0.644279,0.41318 0.651282,0.409676 0.658286,0.406176 0.665289,0.402676 0.66879,0.399172 0.675793,0.395672 0.679294,0.392169 0.682797,0.388669 0.686297,0.381665 0.6898,0.378165 0.693301,0.367661 0.693301,0.287125 0.6898,0.283624 0.686297,0.280121 0.672293,0.280121 0.672293,0.262614 0.66879,0.25561 0.665289,0.25211 0.661786,0.248607 0.651282,0.248607 "/>
   <polygon id="_114710024" class="fil1" points="1.03995,0.311636 1.02945,0.315136 1.02244,0.318639 1.01544,0.322139 1.01194,0.325643 1.00494,0.329143 1.00143,0.332646 0.994432,0.336147 0.990929,0.339647 0.987429,0.34315 0.983926,0.34665 0.980425,0.350154 0.976925,0.353654 0.973422,0.357154 0.969921,0.360657 0.966418,0.364158 0.962918,0.367661 0.959418,0.371161 0.955914,0.374662 0.952414,0.381665 0.948911,0.385168 0.945411,0.388669 0.941907,0.395672 0.938407,0.402676 0.934907,0.409676 0.931403,0.41668 0.927903,0.423683 0.9244,0.434187 0.9209,0.444694 0.9209,0.490213 0.9244,0.497216 0.927903,0.50422 0.931403,0.50772 0.934907,0.511223 0.941907,0.514724 0.948911,0.518224 0.987429,0.518224 0.987429,0.521727 0.983926,0.528731 0.980425,0.535734 0.980425,0.546238 0.994432,0.546238 0.997933,0.542735 1.00494,0.539235 1.00844,0.535734 1.01194,0.532231 1.01544,0.528731 1.01894,0.525227 1.02244,0.521727 1.02594,0.518224 1.02945,0.514724 1.03295,0.511223 1.03645,0.50772 1.03995,0.500716 1.04345,0.497216 1.04695,0.490213 1.05045,0.486712 1.05396,0.479709 1.05746,0.472705 1.06096,0.469205 1.06446,0.465702 1.06796,0.462201 1.07147,0.458698 1.07497,0.455198 1.07847,0.451695 1.08197,0.444694 1.08547,0.441191 1.08897,0.434187 1.09247,0.430687 1.09598,0.423683 1.09948,0.41668 1.10298,0.409676 1.10648,0.399172 1.10998,0.388669 1.11348,0.371161 1.11348,0.350154 1.10998,0.336147 1.10648,0.329143 1.10298,0.322139 1.09948,0.318639 1.09247,0.315136 1.08897,0.311636 1.07497,0.308135 1.05746,0.308135 "/>
   <path id="_114709832" class="fil2" d="M1.97135 0.00350025l-0.00700356 0.00350331 -0.00700051 0.00350025 -0.00700356 0.00350331 -0.00350331 0.00350025 -0.00700356 0.00350331 -0.00700051 0.00350025 -0.00350331 0.00350025 -0.00700356 0.00350331 -0.00700356 0.00350025 -0.00700051 0.00350331 -0.00350331 0.00350025 -0.00700356 0.00350025 -0.00700051 0.00350331 -0.00700356 0.00350025 -0.00350331 0.00350331 -0.00700356 0.00350025 -0.00700051 0.00350331 -0.00350331 0.00350025 -0.00700356 0.00350025 -0.00700051 0.00350331 -0.00700356 0.00350025 -0.00350331 0.00350331 -0.00700051 0.00350025 -0.00700356 0.00350331 -0.00700356 0.00350025 -0.00350025 0.00350025 -0.00700356 0.00350331 -0.00700356 0.00350025 -0.00700356 0.00350331 -0.00350025 0.00350025 -0.00700356 0.00350025 -0.00700356 0.00350331 -0.00350025 0.00350025 -0.00700356 0.00350331 -0.00700356 0.00350025 -0.00700356 0.00350025 -0.00350025 0.00350331 -0.00700356 0.00350025 -0.00700356 0.00350331 -0.00700356 0.00350025 -0.00350025 0.00350331 -0.00700356 0.00350025 -0.00700356 0.00350025 -0.00350025 0.00350331 -0.00700356 0.00350025 -0.00700356 0.00350331 -0.00700356 0.00350025 -0.00700356 0.00350025 -0.00350025 0.00350331 -0.00700356 0.00350025 -0.00350025 0.00350331 -0.00700356 0.00350025 -0.00700356 0.00350025 -0.00700356 0.00350331 -0.00700356 0.00350025 -0.00350025 0.00350331 -0.00700356 0.00350025 -0.00700356 0.00350025 -0.00700051 0.00350331 -0.00350331 0.00350025 -0.00700356 0.00350331 -0.00700051 0.00350025 -0.00350331 0.00350331 -0.00700356 0.00350025 -0.00700356 0.00350025 -0.00700051 0.00350331 -0.00350331 0.00350025 -0.00700356 0.00350331 -0.00700051 0.00350025 -0.00350331 0.00350025 -0.00700356 0.00350331 -0.00700356 0.00350025 -0.00700051 0.00350331 -0.0105069 0.00350025 0 -0.0175074 -0.00350025 -0.00700356 -0.0175074 0 -0.00700356 0.00350331 -0.00700356 0.00350025 -0.00350025 0.00350025 -0.00700356 0.00350331 -0.00700356 0.00350025 -0.00700356 0.00350331 -0.00350025 0.00350025 -0.00700356 0.00350331 -0.00700356 0.00350025 -0.00700356 0.00350025 -0.00350025 0.00350331 -0.00700356 0.00350025 -0.00700356 0.00350331 -0.00700356 0.00350025 -0.00350025 0.00350331 -0.00700356 0.00350025 -0.00700356 0.00350025 -0.00700051 0.00350331 -0.00350331 0.00350025 -0.00700356 0.00350331 -0.00700051 0.00350025 -0.00700356 0.00350025 -0.00350331 0.00350331 -0.00700051 0.00350025 -0.00700356 0.00350331 -0.00700356 0.00350025 -0.00350331 0.00350331 -0.00700051 0.00350025 -0.00700356 0.00350025 -0.00350331 0.00350331 -0.00700051 0.00350025 -0.00700356 0.00350331 -0.00700356 0.00350025 -0.00700356 0.00350025 -0.00350025 0.00350331 -0.00700356 0.00350025 -0.00350331 0.00350331 -0.00350025 0.00350025 -0.00350331 0.00350025 -0.00350025 0.00700356 -0.00350025 0.0105038 -0.00350331 0.0210107 0 0.00700356 -0.00700356 0 -0.00350025 0.00350025 -0.00700356 0.00350331 -0.00700356 0.00350025 -0.00700356 0.00350025 -0.00350025 0.00350331 -0.00350025 0.00350025 -0.00350331 0.00700356 -0.00350025 0.0105038 0 0.175077c0.0120218,0.018946 0.00350025,0.119445 0.00350025,0.150566 0,0.0204181 -0.00564744,0.147063 0.00700356,0.147063 0.00665842,0 0.0979552,-0.0555703 0.111553,-0.0629313l0.00399811 0.0104091 0.00350025 -0.0105038 0.00350331 -0.00350331 0.00700356 -0.00350025 0.00350025 -0.00350331 0.00700356 -0.00350025 0.00700356 -0.00350025 0.00700051 -0.00350331 0.00700356 -0.00350025 0.00350331 -0.00350331 0.00700051 -0.00350025 0.00700356 -0.00350025 0.00700356 -0.00350331 0.00350025 -0.00350025 0.00700356 -0.00350331 0.00700356 -0.00350025 0.00350331 -0.00350025 0.00700051 -0.00350331 0.00700356 -0.00350025 0.00700356 -0.00350331 0.00350025 -0.00350025 0.00700356 -0.00350025 0.00700356 -0.00350331 0.00700356 -0.00350025 0.00350025 -0.00350331 0.00700356 -0.00350025 0.00700356 -0.00350025 0.00350025 -0.00350331 0.00700356 -0.00350025 0.00700356 -0.00350331 0.00700356 -0.00350025 0.00350025 -0.00350331 0.00700356 -0.00350025 0.00700356 -0.00350025 0.00700356 -0.00350331 0.00350025 -0.00350025 0.00700356 -0.00350331 0.00700356 -0.00350025 0.00700356 -0.00350025 0.00350025 -0.00350331 0.00700356 -0.00350025 0.00700356 -0.00350331 0.00700356 -0.00350025 0.00350025 -0.00350331 0.00700356 -0.00350025 0.00700356 -0.00350025 0.00350025 -0.00350331 0.00700356 -0.00350025 0.00700356 -0.00350331 0.00700356 -0.00350025 0.00350025 -0.00350331 0.00700356 -0.00350025 0.00700356 -0.00350025 0.00700051 -0.00350331 0.00350331 -0.00350025 0.00700356 -0.00350331 0.00700051 -0.00350025 0.00350331 -0.00350025 0.00700356 -0.00350331 0.00700356 -0.00350025 0.00700051 -0.00350331 0.00350331 -0.00350025 0.00700356 -0.00350331 0.00700051 -0.00350025 0.00350331 -0.00350025 0.00700356 -0.00350331 0.00700356 -0.00350025 0.00700051 -0.00350331 0.00350331 -0.00350025 0.00700356 -0.00350025 0.00700356 -0.00350331 0.00700051 -0.00350025 0.00350331 -0.00350331 0.00700356 -0.00350025 0.00700051 -0.00350025 0.00700356 -0.00350331 0.00350331 -0.00350025 0.00700356 -0.00350331 0.00700051 -0.00350025 0.00700356 -0.00350331 0.00350331 -0.00350025 0.00700051 -0.00350025 0.00700356 -0.00350331 0.00350331 -0.00350025 0.00700051 -0.00350331 0.00700356 -0.00350025 0.00350331 -0.00350025 0.00700051 -0.00350331 0.00700356 -0.00350025 0.00350331 -0.00350331 0.0105038 -0.00350025 0.00350025 -0.00350025 0.00700356 -0.00350331 0.00700356 -0.00350025 0.00350025 -0.00350331 0.00700356 -0.00350025 0.00700356 -0.00350025 0.00700356 -0.00350331 0.00350025 -0.00350025 0.00700356 -0.00350331 0.00700356 -0.00350025 0.00350025 -0.00350331 0.00700356 -0.00350025 0.00700356 -0.00350025 0.00700356 -0.00350331 0.00350025 -0.00350025 0.00700356 -0.00350331 0.00700356 -0.00350025 0.00350025 -0.00350025 0.00350331 -0.00350331 0.00350025 -0.00350025 0.00350331 -0.00700356 0 -0.476209 -0.00350331 -0.00350025 -0.0140041 0 -0.00350331 0.00350025z"/>
   <polygon id="_115338440" class="fil3" points="0.388669,0.374662 0.381665,0.378165 0.378165,0.381665 0.371161,0.385168 0.364158,0.388669 0.360657,0.392169 0.353654,0.395672 0.34665,0.399172 0.339647,0.402676 0.336147,0.406176 0.329143,0.409676 0.322139,0.41318 0.315136,0.41668 0.311636,0.420183 0.304632,0.423683 0.297628,0.427187 0.290625,0.430687 0.287125,0.434187 0.280121,0.437691 0.273118,0.441191 0.269617,0.444694 0.262614,0.448194 0.25561,0.451695 0.24861,0.455198 0.245106,0.458698 0.238103,0.462201 0.231099,0.465702 0.224099,0.469205 0.220595,0.472705 0.213592,0.476206 0.206591,0.479709 0.203088,0.483209 0.196084,0.486712 0.189081,0.490213 0.18208,0.493716 0.178577,0.497216 0.171574,0.500716 0.16457,0.50422 0.157569,0.50772 0.154066,0.511223 0.147063,0.514724 0.140062,0.518224 0.133059,0.521727 0.129555,0.525227 0.122552,0.528731 0.115551,0.532231 0.112048,0.535734 0.105044,0.539235 0.0980438,0.542735 0.0910402,0.546238 0.0875369,0.549738 0.0805364,0.553242 0.0735328,0.556742 0.0665293,0.560242 0.063029,0.563745 0.0560254,0.567246 0.0490219,0.570749 0.0420183,0.574249 0.0385181,0.57775 0.0315145,0.581253 0.0245109,0.584753 0.0210107,0.588256 0.0140071,0.591757 0.00700356,0.595257 0.00700356,0.623271 0.0140071,0.623271 0.0210107,0.619768 0.0245109,0.616268 0.0315145,0.612767 0.0385181,0.609264 0.0455216,0.605764 0.0490219,0.60226 0.0560254,0.59876 0.063029,0.595257 0.0665293,0.591757 0.0735328,0.588256 0.0805364,0.584753 0.0875369,0.581253 0.0910402,0.57775 0.0980438,0.574249 0.105044,0.570749 0.112048,0.567246 0.115551,0.563745 0.122552,0.560242 0.129555,0.556742 0.136559,0.553242 0.140062,0.549738 0.147063,0.546238 0.154066,0.542735 0.157569,0.539235 0.16457,0.535734 0.171574,0.532231 0.178577,0.528731 0.18208,0.525227 0.189081,0.521727 0.196084,0.518224 0.203088,0.514724 0.206591,0.511223 0.213592,0.50772 0.220595,0.50422 0.227599,0.500716 0.231099,0.497216 0.238103,0.493716 0.245106,0.490213 0.24861,0.486712 0.25561,0.483209 0.262614,0.479709 0.269617,0.476206 0.273118,0.472705 0.280121,0.469205 0.287125,0.465702 0.294128,0.462201 0.297628,0.458698 0.304632,0.455198 0.311636,0.451695 0.315136,0.448194 0.322139,0.444694 0.329143,0.441191 0.336147,0.437691 0.339647,0.434187 0.34665,0.430687 0.353654,0.427187 0.360657,0.423683 0.364158,0.420183 0.371161,0.41668 0.378165,0.41318 0.385168,0.409676 0.388669,0.406176 0.395672,0.402676 0.402676,0.399172 0.402676,0.371161 0.395672,0.371161 "/>
   <polygon id="_114704792" class="fil4" points="0.206591,0.528731 0.203088,0.532231 0.196084,0.535734 0.189081,0.539235 0.18208,0.542735 0.178577,0.546238 0.171574,0.549738 0.16457,0.553242 0.16107,0.556742 0.154066,0.560242 0.147063,0.563745 0.140062,0.567246 0.136559,0.570749 0.129555,0.574249 0.122552,0.57775 0.115551,0.581253 0.112048,0.584753 0.105044,0.588256 0.0980438,0.591757 0.0910402,0.595257 0.0875369,0.59876 0.0805364,0.60226 0.0735328,0.605764 0.0700295,0.609264 0.063029,0.612767 0.0560254,0.616268 0.0490219,0.619768 0.0455216,0.623271 0.0385181,0.626771 0.0315145,0.630275 0.0245109,0.633775 0.0210107,0.637275 0.0140071,0.640779 0.00700356,0.644279 0.00700356,0.672293 0.0140071,0.672293 0.0210107,0.66879 0.0280112,0.665289 0.0315145,0.661786 0.0385181,0.658286 0.0455216,0.654783 0.0490219,0.651282 0.0560254,0.647782 0.063029,0.644279 0.0700295,0.640779 0.0735328,0.637275 0.0805364,0.633775 0.0875369,0.630275 0.0945404,0.626771 0.0980438,0.623271 0.105044,0.619768 0.112048,0.616268 0.119051,0.612767 0.122552,0.609264 0.129555,0.605764 0.136559,0.60226 0.140062,0.59876 0.147063,0.595257 0.154066,0.591757 0.16107,0.588256 0.16457,0.584753 0.171574,0.581253 0.178577,0.57775 0.185581,0.574249 0.189081,0.570749 0.196084,0.567246 0.203088,0.563745 0.210092,0.560242 0.213592,0.556742 0.217095,0.553242 0.217095,0.525227 0.213592,0.525227 "/>
   <polygon id="_114696080" class="fil5" points="0.329143,0.50772 0.322139,0.511223 0.318639,0.514724 0.311636,0.518224 0.304632,0.521727 0.301132,0.525227 0.294128,0.528731 0.287125,0.532231 0.280121,0.535734 0.276621,0.539235 0.269617,0.542735 0.262614,0.546238 0.25561,0.549738 0.25211,0.553242 0.245106,0.556742 0.238103,0.560242 0.234603,0.563745 0.227599,0.567246 0.220595,0.570749 0.213592,0.574249 0.210092,0.57775 0.203088,0.581253 0.196084,0.584753 0.189081,0.588256 0.185581,0.591757 0.178577,0.595257 0.171574,0.59876 0.16457,0.60226 0.16107,0.605764 0.154066,0.609264 0.147063,0.612767 0.143562,0.616268 0.136559,0.619768 0.129555,0.623271 0.122552,0.626771 0.119051,0.630275 0.112048,0.633775 0.105044,0.637275 0.0980438,0.640779 0.0945404,0.644279 0.0875369,0.647782 0.0805364,0.651282 0.0770331,0.654783 0.0700295,0.658286 0.063029,0.661786 0.0560254,0.665289 0.0490219,0.66879 0.0455216,0.672293 0.0385181,0.675793 0.0315145,0.679294 0.0280112,0.682797 0.0210107,0.686297 0.0140071,0.6898 0.00700356,0.693301 0.00700356,0.721312 0.0140071,0.721312 0.0210107,0.717812 0.0280112,0.714311 0.0315145,0.710808 0.0385181,0.707308 0.0455216,0.703804 0.0525221,0.700304 0.0560254,0.696801 0.063029,0.693301 0.0700295,0.6898 0.0770331,0.686297 0.0805364,0.682797 0.0875369,0.679294 0.0945404,0.675793 0.0980438,0.672293 0.105044,0.66879 0.112048,0.665289 0.119051,0.661786 0.122552,0.658286 0.129555,0.654783 0.136559,0.651282 0.143562,0.647782 0.147063,0.644279 0.154066,0.640779 0.16107,0.637275 0.168073,0.633775 0.171574,0.630275 0.178577,0.626771 0.185581,0.623271 0.189081,0.619768 0.196084,0.616268 0.203088,0.612767 0.210092,0.609264 0.213592,0.605764 0.220595,0.60226 0.227599,0.59876 0.234603,0.595257 0.238103,0.591757 0.245106,0.588256 0.25211,0.584753 0.25561,0.581253 0.262614,0.57775 0.269617,0.574249 0.276621,0.570749 0.280121,0.567246 0.287125,0.563745 0.294128,0.560242 0.301132,0.556742 0.304632,0.553242 0.311636,0.549738 0.318639,0.546238 0.325643,0.542735 0.329143,0.539235 0.336147,0.535734 0.339647,0.532231 0.339647,0.50422 0.336147,0.50422 "/>
   <polygon id="_114693632" class="fil6" points="0.25211,0.60226 0.245106,0.605764 0.238103,0.609264 0.234603,0.612767 0.227599,0.616268 0.220595,0.619768 0.217095,0.623271 0.210092,0.626771 0.203088,0.630275 0.196084,0.633775 0.192584,0.637275 0.185581,0.640779 0.178577,0.644279 0.171574,0.647782 0.168073,0.651282 0.16107,0.654783 0.154066,0.658286 0.147063,0.661786 0.143562,0.665289 0.136559,0.66879 0.129555,0.672293 0.122552,0.675793 0.119051,0.679294 0.112048,0.682797 0.105044,0.686297 0.101544,0.6898 0.0945404,0.693301 0.0875369,0.696801 0.0805364,0.700304 0.0770331,0.703804 0.0700295,0.707308 0.063029,0.710808 0.0560254,0.714311 0.0525221,0.717812 0.0455216,0.721312 0.0385181,0.724815 0.0350148,0.728315 0.0280112,0.731819 0.0210107,0.735319 0.0140071,0.738822 0.0105038,0.742323 0.00700356,0.745823 0.00700356,0.770334 0.0140071,0.770334 0.0210107,0.766833 0.0280112,0.76333 0.0350148,0.75983 0.0385181,0.75633 0.0455216,0.752826 0.0525221,0.749326 0.0560254,0.745823 0.063029,0.742323 0.0700295,0.738822 0.0770331,0.735319 0.0805364,0.731819 0.0875369,0.728315 0.0945404,0.724815 0.101544,0.721312 0.105044,0.717812 0.112048,0.714311 0.119051,0.710808 0.126055,0.707308 0.129555,0.703804 0.136559,0.700304 0.143562,0.696801 0.147063,0.693301 0.154066,0.6898 0.16107,0.686297 0.168073,0.682797 0.171574,0.679294 0.178577,0.675793 0.185581,0.672293 0.192584,0.66879 0.196084,0.665289 0.203088,0.661786 0.210092,0.658286 0.213592,0.654783 0.220595,0.651282 0.227599,0.647782 0.234603,0.644279 0.238103,0.640779 0.245106,0.637275 0.25211,0.633775 0.259113,0.630275 0.262614,0.626771 0.266117,0.623271 0.266117,0.59876 0.259113,0.59876 "/>
   <path id="_114712376" class="fil7" d="M0.676212 0.757063l-0.00539088 -0.0173302 -0.0755639 0.0411081c-0.00127671,0.0153694 -0.00422413,0.0279654 -0.0175074,0.0315114l0.000794124 0.23948 0.0902461 -0.0503963c-0.000406225,-0.0183046 -0.00700356,-0.0243155 -0.00700356,-0.0420183 0,-0.0206442 0.0945404,-0.0515509 0.0945404,-0.0700326l-0.0012034 -0.177193 -0.0789115 0.0448711z"/>
   <path id="_114700760" class="fil8" d="M0.206591 0.969921l0 0.0595257c0.00687833,-0.00364075 0.0103236,-0.00700356 0.0210076,-0.00700356l0.00700356 0c0.0221347,0 0.0380141,0.0195202 0.0397459,0.0440311l0.0512943 -0.030024c0,-0.0347124 -0.026933,-0.0770331 -0.0595257,-0.0770331l-0.0210107 0c-0.0193339,0 -0.0234205,0.00698524 -0.038515,0.0105038z"/>
   <path id="_114694016" class="fil3" d="M1.77877 0.927903l-0.00350025 0.00350025 -0.00350025 0.00350331 -0.00350331 0.00700356 -0.00350025 0.00700051 -0.00350331 0.00700356 -0.00350025 0.0105038 -0.00350025 0.0105069 -0.00350331 0.0210076 0 0.0560254 0.00700356 0 0.00350025 -0.00350331 0.00350331 0.00700356 0.00350025 0.00700356 0.0381118 0.0687528 0.00390648 -0.00222355 0 -0.0140071c0.00610864,0.00408974 0.0175074,0.0113315 0.0175074,0.0210107l0 0.0245109c0,0.00945618 -0.00167071,0.00965166 -0.00142331,0.0188818l0.0189307 -0.0328889c0.0255494,0.012257 0.0245109,-0.0153144 0.0245109,-0.0385181 0.0136895,0.00365602 0.0175074,0.0182801 0.0175074,0.0350178l0 0.00350025c0,0.0186314 -0.0245109,0.0463738 -0.0245109,0.0490219 0,0.026032 0.010067,0.0363892 0.0105038,0.0560224 0.0109528,0.000913242 0.0124403,0.00350331 0.0245109,0.00350331l0.0350178 0c0.0176998,0 0.0185978,-0.00563828 0.0350148,-0.00700356l0 0.038515c0.0107543,0.0169545 0.00395229,0.0848552 0.0310166,0.104953l0.00399811 -0.0104091c0.00559246,0.02401 0.0356134,0.0665293 0.0630259,0.0665293l0.0108551 -4.58148e-005 -0.00735175 -0.0699867 -0.00106901 -0.0281273 0.00807257 -0.0524061 0.00350025 -0.0140071 0.00350025 -0.0280112 0 -0.115551 -0.00350025 -0.0210076 -0.00350025 -0.0105069 -0.00350331 -0.0105038 -0.00350025 -0.00700356 -0.00350331 -0.00350025 0 -0.0245109 0 -0.00700356 -0.00350025 -0.0315145 -0.00350025 -0.0140041 -0.00350331 -0.0105038 -0.00350025 -0.00700356 -0.00350331 -0.00700356 -0.00350025 -0.00350025 -0.00350331 -0.00700356 -0.00350025 -0.00350331 -0.00350025 -0.00350025 -0.00350331 -0.00350331 -0.00350025 -0.00350025 -0.00350331 -0.00350025 -0.00350025 -0.00350331 -0.00350025 -0.00350025 -0.00350331 -0.00350331 -0.00700356 -0.00350025 -0.00350025 -0.00350025 -0.00700356 -0.00350331 -0.00700356 -0.00350025 -0.0105038 -0.00350331 -0.0140071 -0.00350025 -0.0245109 -0.00350331 -0.0560224 0 -0.105047 0.00350331z"/>
   <path id="_114706880" class="fil9" d="M0.735319 1.34458c0,0.0252592 0.00563217,0.0760221 0.0271407,0.0815871 0.0226997,0.00587346 0.052684,-0.0194255 0.0732579,-0.0302103 0.0299079,-0.0156839 0.11648,-0.0736275 0.141207,-0.0793879 -0.00115759,0.0139094 -0.00350331,0.00843298 -0.00350331,0.0175074 0,0.0215421 0.0767307,0.0546021 0.0945404,0.0665293 0.0231884,-0.0122692 0.141779,-0.0730808 0.142557,-0.092827l-0.086532 -0.0542387c0.00947756,-0.0406744 0.0178342,-0.0341931 0.048915,-0.052626 0.0209313,-0.0124158 0.0449444,-0.0272262 0.0666362,-0.0384112 0.0224248,-0.0115667 0.119455,-0.0654511 0.131229,-0.0808143l-0.0156809 -0.0802554c-0.0421161,0.0282036 -0.601421,0.346647 -0.60226,0.346647 -0.00945618,0 -0.00965471,-0.00167071 -0.0175074,-0.00350025z"/>
   <path id="_114706304" class="fil10" d="M1.42512 1.07147l0 0.0245109c0,0.0161238 0.0330905,0.0315114 0.0525221,0.0315114 0.0282861,0 0.0665293,-0.00801149 0.0665293,-0.0350148l0 -0.0280112c0,-0.015461 -0.026933,-0.0280112 -0.0455216,-0.0280112l-0.0315145 0c-0.0177456,0 -0.0420153,0.0146607 -0.0420153,0.0350148z"/>
   <path id="_114705488" class="fil5" d="M0.262614 1.13799l0.0406042 0.0180541 0.026484 -0.101028 -0.00405919 -0.0010629c-0.0444129,0.010345 -0.0529589,0.0408119 -0.063029,0.0840366z"/>
   <path id="_114712976" class="fil11" d="M1.76477 1.09598l-0.00350331 0.0140041 -0.00350025 0.00350331 0.00350025 0.00700356c-0.00190895,0.00820086 -0.00350025,0.010345 -0.00350025,0.0210076l0 0.0210107c0,0.00461203 0.0121043,0.0482064 0.0147493,0.0587804 0.00388204,0.0155098 0.0087995,0.0427636 0.0307692,0.0427636 0.0202899,0 0.0455216,-0.0157878 0.0455216,0.00350025l0 0.0595257 0.0105038 0c0.047397,-0.0010568 0.0760832,-0.0298468 0.108548,-0.0385181l0 -0.038515c-0.016417,0.00136528 -0.017315,0.00700356 -0.0350148,0.00700356l-0.0350178 0c-0.0120707,0 -0.0135581,-0.00259007 -0.0245109,-0.00350331 -0.000436768,-0.0196332 -0.0105038,-0.0299904 -0.0105038,-0.0560224 0,-0.0026481 0.0245109,-0.0303905 0.0245109,-0.0490219l0 -0.00350025c0,-0.0167377 -0.0038179,-0.0313618 -0.0175074,-0.0350178 0,0.0232037 0.00103847,0.0507751 -0.0245109,0.0385181l-0.0189307 0.0328889c-0.0002474,-0.00923016 0.00142331,-0.00942564 0.00142331,-0.0188818l0 -0.0245109c0,-0.00967915 -0.0113987,-0.0169209 -0.0175074,-0.0210107l0 0.0140071 -0.00390648 0.00222355 -0.0381118 -0.0687528 -0.00350025 0.0315145z"/>
   <polygon id="_114712856" class="fil12" points="0.451698,1.20452 0.448194,1.20802 0.441191,1.21152 0.437691,1.21503 0.434187,1.21853 0.430687,1.22203 0.427187,1.22903 0.423683,1.23254 0.420183,1.23954 0.41668,1.24654 0.41318,1.25705 0.41318,1.26755 0.427187,1.30256 0.437691,1.30256 0.455198,1.29906 0.458698,1.29906 0.462201,1.29556 0.465702,1.29206 0.469205,1.28856 0.472705,1.28506 0.476206,1.28156 0.479709,1.27805 0.483209,1.27105 0.486712,1.26755 0.490213,1.25705 0.493716,1.25004 0.493716,1.21503 0.490213,1.20802 0.486712,1.20452 0.479709,1.20102 0.458698,1.20102 "/>
   <path id="_114694808" class="fil13" d="M0.168073 1.22203l-0.0105038 0c-0.0186894,0 -0.0226325,-0.0127182 -0.0354057,-0.0214291l-0.0451307 0.0389365c0.00575129,0.0246789 0.0289733,0.0490188 0.0595257,0.0490188l0.00350331 0c0.0663735,0 0.126892,-0.0708145 0.150877,-0.1164l-0.0423299 -0.013155c-0.00640797,0.0239886 -0.0491318,0.063029 -0.0805364,0.063029z"/>
   <path id="_114702536" class="fil14" d="M0.168073 1.22203c0.0314045,0 0.0741284,-0.0390403 0.0805364,-0.063029l0.0423299 0.013155c-0.0239856,0.0455858 -0.0845039,0.1164 -0.150877,0.1164l-0.00350331 0c-0.0305524,0 -0.0537744,-0.0243399 -0.0595257,-0.0490188l0.0451307 -0.0389365c0.0127732,0.00871093 0.0167163,0.0214291 0.0354057,0.0214291l0.0105038 0zm0.0945404 -0.0840366c0.0100701,-0.0432248 0.0186161,-0.0736916 0.063029,-0.0840366l0.00405919 0.0010629 -0.026484 0.101028 -0.0406042 -0.0180541zm-0.0560224 -0.168073c0.0150945,-0.00351858 0.0191811,-0.0105038 0.038515,-0.0105038l0.0210107 0c0.0325927,0 0.0595257,0.0423207 0.0595257,0.0770331l-0.0512943 0.030024c-0.0017318,-0.0245109 -0.0176112,-0.0440311 -0.0397459,-0.0440311l-0.00700356 0c-0.010684,0 -0.0141293,0.00336281 -0.0210076,0.00700356l0 -0.0595257zm0.548532 -0.25773l0.0012034 0.177193c0,0.0184817 -0.0945404,0.0493884 -0.0945404,0.0700326 0,0.0177029 0.00659734,0.0237138 0.00700356,0.0420183l-0.0902461 0.0503963 -0.000794124 -0.23948c0.0132832,-0.00354607 0.0162307,-0.0161421 0.0175074,-0.0315114l0.0755639 -0.0411081 0.00539088 0.0173302 0.0789115 -0.0448711zm0.00820696 -0.204472l-0.00700356 0.00350331 -0.00350025 0.00350025 -0.00700356 0.00350025 -0.00700356 0.00350331 -0.00350025 0.00350025 -0.00700356 0.00350331 -0.00700356 0.00350025 -0.00700051 0.00350331 -0.00350331 0.00350025 -0.00700356 0.00350025 -0.00700051 0.00350331 -0.00700356 0.00350025 -0.00350331 0.00350331 -0.00700356 0.00350025 -0.00700051 0.00350025 -0.00700356 0.00350331 -0.00350331 0.00350025 -0.00700051 0.00350331 -0.00700356 0.00350025 -0.00350331 0.00350025 -0.00700356 0.00350331 -0.00700051 0.00350025 -0.00700356 0.00350331 -0.00350331 0.00350025 -0.00700356 0.00350025 -0.00700051 0.00350331 -0.00700356 0.00350025 -0.00350331 0.00350331 -0.00700051 0.00350025 -0.00700356 0.00350331 -0.00350331 0.00350025 -0.00700356 0.00350025 -0.00700051 0.00350331 -0.00700356 0.00350025 -0.00350331 0.00350331 -0.00700051 0.00350025 -0.00700356 0.00350025 -0.00700356 0.00350331 -0.00350025 0.00350025 -0.00700356 0.00350331 -0.00700356 0.00350025 -0.00700356 0.00350025 -0.00350025 0.00350331 -0.00700356 0.00350025 -0.00700356 0.00350331 -0.00350025 0.00350025 -0.00700356 0.00350331 -0.00700356 0.00350025 -0.00700356 0.00350025 -0.00350025 0.00350331 -0.00700356 0.00350025 -0.00700356 0.00350331 -0.00700356 0.00350025 -0.00350025 0.00350025 -0.00700356 0.00350331 -0.00700356 0.00350025 -0.00700356 0.00350331 -0.00350025 0.00350025 -0.00700356 0.00350331 -0.00700356 0.00350025 -0.00700356 0.00350025 -0.00350025 0.00350331 -0.00700356 0.00350025 -0.00700356 0.00350331 -0.00350025 0.00350025 -0.00700356 0.00350331 -0.00700356 0.00350025 -0.00700356 0.00350025 -0.00350025 0.00350331 -0.00700356 0.00350025 -0.00700356 0.00350331 -0.00700051 0.00350025 -0.00350331 0.00350025 -0.00700356 0.00350331 -0.00350025 -0.00700356 -0.00350331 -0.0140071 -0.00350025 -0.00350025 -0.0175074 0 -0.00700356 0.00350025 -0.00350025 0.00350331 -0.00700356 0.00350025 -0.00700356 0.00350331 -0.00700356 0.00350025 -0.00350025 0.00350025 -0.00700356 0.00350331 -0.00700356 0.00350025 -0.00350025 0.00350331 -0.00700356 0.00350025 -0.00700356 0.00350331 -0.00700356 0.00350025 -0.00350025 0.00350025 -0.00700356 0.00350331 -0.00700356 0.00350025 -0.00700356 0.00350331 -0.00350025 0.00350025 -0.00700356 0.00350025 -0.00700356 0.00350331 -0.00700356 0.00350025 -0.00350025 0.00350331 -0.00700356 0.00350025 -0.00700356 0.00350025 -0.00350025 0.00350331 -0.00700356 0.00350025 -0.00700356 0.00350331 -0.00700356 0.00350025 -0.00350025 0.00350025 -0.00700356 0.00350331 -0.00700356 0.00350025 -0.00700051 0.00350331 -0.00350331 0.00350025 -0.00700356 0.00350025 -0.00700051 0.00350331 -0.00350331 0.00350025 -0.00700356 0.00350331 -0.00700051 0.00350025 -0.00350331 0.00350331 -0.00350025 0.00700051 -0.00350331 0.00350331 -0.00350025 0.0140041 -0.00350025 0.0210107 -0.00350331 0.00350025 -0.00700356 0.00350331 -0.00350025 0.00350025 -0.00700356 0.00350331 -0.00700356 0.00350025 -0.00350025 0.00350331 -0.00350331 0.00350025 -0.00350025 0.00350025 -0.00350025 0.00350331 -0.00350331 0.0105038 0 0.469205 0.00350331 0.00350025 0.00350025 0.00350025 0.0105038 0 0.00700356 -0.00350025 0.00350025 -0.00350025 0.00700356 -0.00350331 0.00700356 -0.00350025 0.00700356 -0.00350331 0.00350025 -0.00350025 0.00700356 -0.00350331 0.00700356 -0.00350025 0.00700356 -0.00350025 0.00350025 -0.00350331 0.00700356 -0.00350025 0.00700356 -0.00350331 0.00700356 -0.00350025 0.00350025 -0.00350025 0.00700356 -0.00350331 0.00700356 -0.00350025 0.00350025 -0.00350331 0.00700356 -0.00350025 0.00700356 -0.00350331 0.00700356 -0.00350025 0.00350025 -0.00350025 0.00700356 -0.00350331 0.00700356 -0.00350025 0.00700051 -0.00350331 0.00350331 -0.00350025 0.00700356 -0.00350331 0.00700356 -0.00350025 0.00700051 -0.00350025 0.00350331 -0.00350331 0.00700356 -0.00350025 0.00700356 -0.00350331 0.00350025 -0.00350025 0.00700356 -0.00350025 0.00700356 -0.00350331 0.00700051 -0.00350025 0.00350331 -0.00350331 0.00700356 -0.00350025 0.00700356 -0.00350331 0.00700051 -0.00350025 0.00350331 -0.00350025 0.00700356 -0.00350331 0.00700051 -0.00350025 0.00350331 -0.00350331 0.00700356 -0.00350025 0.00700051 -0.00350025 0.00700356 -0.00350331 0.00350331 -0.00350025 0.00700051 -0.00350331 0.00700356 -0.00350025 0.00700356 -0.00350025 0.00350331 -0.00350331 0.00700051 -0.00350025 0.00700356 -0.00350331 0.00700356 -0.00350025 0.00350025 -0.00350025 0.00700356 -0.00350331 0.00700356 -0.00350025 0.00350025 -0.00350331 0.00700356 -0.00350025 0.00700356 -0.00350331 0.00700356 -0.00350025 0.00350025 -0.00350025 0.00700356 -0.00350331 0.00700356 -0.00350025 0.00700356 -0.00350331 0.00350025 -0.00350025 0.00700356 -0.00350025 0.00700356 -0.00350331 0.00700356 -0.00350025 0.00350025 -0.00350331 0.00700356 -0.00350025 0.00700356 -0.00350025 0.00700356 -0.00350331 0.00350025 -0.00350025 0.00700356 -0.00350331 0.00700356 -0.00350025 0.00350025 -0.00350331 0.00700356 -0.00350025 0.00700356 -0.00350025 0.00700356 -0.00350331 0.00350025 -0.00350025 0.00700356 -0.00350331 0.00700356 -0.00350025 0.00700356 -0.00350025 0.00350025 -0.00350331 0.00700356 -0.00350025 0.00700356 -0.00350331 0.00350025 -0.00350025 0.00700356 -0.00350331 0.00700356 -0.00350025 0.00700051 -0.00350025 0.00350331 -0.00350331 0.00700356 -0.00350025 0.00700356 -0.00350331 0.00700051 -0.00350025 0.00350331 -0.00350331 0.00700356 -0.00350025 0.00700051 -0.00350025 0.00350331 -0.00350331 0.00700356 -0.00350025 0.00700356 -0.00350331 0.00700051 -0.00350025 0.00350331 -0.00350025 0.00700356 -0.00350331 0.00700356 -0.00350025 0.00700051 -0.00350331 0.00350331 -0.00350025 0.00700356 -0.00350331 0.00700051 -0.00350025 0 0.0175074 0.00350331 0.0175074 0.00350025 0.0175074 0.00350331 0.0210107 0.00350025 0.0175074 0.00350331 0.0175074 0.00350025 0.0210107 0.00350025 0.0175074 0.00350331 0.0175074 0.00350025 0.0175074 0.00350331 0.0210076 0.00350025 0.0175074 0.00350025 0.0175074 0.00350331 0.00350331 0.0105038 0.0455186c0.00785266,0.00182954 0.00805119,0.00350025 0.0175074,0.00350025 0.000839939,0 0.560144,-0.318444 0.60226,-0.346647l-0.0105038 -0.0665293 0 -0.0175074 -0.00350025 -0.0175104 -0.00350331 -0.0175074 -0.00350025 -0.00350025 -0.00399811 -0.0104091c-0.0135978,0.00736092 -0.104895,0.0629313 -0.111553,0.0629313 -0.012651,0 -0.00700356,-0.126644 -0.00700356,-0.147063 0,-0.0311205 0.00852156,-0.13162 -0.00350025,-0.150566l-0.00350331 0 -0.00700051 0.00350025 -0.00700356 0.00350331 -0.00350331 0.00350025 -0.00700051 0.00350331 -0.00700356 0.00350025 -0.00350331 0.00350025 -0.00700051 0.00350331 -0.00700356 0.00350025 -0.00700356 0.00350331 -0.00350025 0.00350025 -0.00700356 0.00350331 -0.00700356 0.00350025 -0.00700356 0.00350025 -0.00350025 0.00350331 -0.00700356 0.00350025 -0.00700356 0.00350331 -0.00700356 0.00350025 -0.00350025 0.00350025 -0.00700356 0.00350331 -0.00700356 0.00350025 -0.00350025 0.00350331 -0.00700356 0.00350025 -0.00700356 0.00350331 -0.00700356 0.00350025 -0.00350025 0.00350025 -0.00700356 0.00350331 -0.00700356 0.00350025 -0.00700356 0.00350331 -0.00350025 0.00350025 -0.00700356 0.00350331 -0.00700356 0.00350025 -0.00700356 0.00350025 -0.00350025 0.00350331 -0.00700356 0.00350025 -0.00700356 0.00350331 -0.00350025 0.00350025 -0.00700356 0.00350025 -0.00700356 0.00350331 -0.00700356 0.00350025 -0.00350025 0.00350331 -0.00700356 0.00350025 -0.00700356 0.00350331 -0.00700356 0.00350025 -0.00350025 0.00350025 -0.00700356 0.00350331 -0.00700356 0.00350025 -0.00350025 0.00350331 -0.00700356 0.00350025 -0.00700356 0.00350025 -0.00700051 0.00350331 -0.00350331 0.00350025 -0.00700356 0.00350331 -0.00700356 0.00350025 -0.00700051 0.00350025 -0.00350331 0.00350331 -0.00700356 0.00350025 -0.00700051 0.00350331 -0.00700356 0.00350025 -0.00350331 0.00350025 -0.00700356 0.00350331 -0.00700051 0.00350025 -0.00350331 0.00350331 -0.00700356 0.00350025 -0.00700356 0.00350025 -0.00700051 0.00350331 -0.00350331 0.00350025 -0.00700356 0.00350331 -0.00700051 0.00350025 -0.00700356 0.00350331 0 -0.367661 -0.00350331 -0.00350025 -0.0105038 0 -0.00700356 0.00350025z"/>
   <path id="_114710720" class="fil15" d="M0.399172 1.27105l-0.00350025 0.00350331 -0.00700356 0.00350025 -0.00700356 0.00350331 -0.00700356 0.00350025 -0.00350025 0.00350025 -0.00700356 0.00350331 -0.00700356 0.00350025 -0.00350025 0.00350331 -0.00700356 0.00350025 -0.00700356 0.00350025 -0.00700356 0.00350331 -0.00350025 0.00350025 -0.00700356 0.00350331 -0.00700356 0.00350025 -0.00700356 0.00350331 -0.00350025 0.00350025 -0.00350025 0.00350025 -0.00350331 0.00350331 -0.00350025 0.00350025 -0.00350331 0.00700356 -0.00350025 0.00700356 0 0.108548 0.00350025 0.00700356 0.00700356 0.00350025 0.00350331 0 0.0105038 -0.00350025 0.00700356 -0.00350331 0.00700356 -0.00350025 0.00700051 -0.00350331 0.00350331 -0.00350025 0.00700356 -0.00350025 0.00700051 -0.00350331 0.00700356 -0.00350025 0.00350331 -0.00350331 0.00700051 -0.00350025 0.00700356 -0.00350025 0.00350331 -0.00350331 0.00700356 -0.00350025 0.00700051 -0.00350331 0.00700356 -0.00350025 0.00350331 -0.00350331 0.00700051 -0.00350025 0.00700356 -0.00350025 0.00700356 -0.00350331 0.00350331 -0.00350025 0.00700051 -0.00350331 0.00350331 -0.00350025 0.00350025 -0.00350025 0.00350331 -0.00350331 0.00350025 -0.00350025 0.00350331 -0.00700356 0.00350025 -0.00700356 0 -0.0700295 -0.0175074 0.00350025 0.000348193 0.0706343 -0.133407 0.0729281 -3.05432e-006 -0.0805119 0.0490249 0.00697913 0.00350025 0c0.0268933,0 0.0546113,-0.05229 0.0700326,-0.0700295l-0.0140071 -0.0350148 -0.00700356 0 -0.00700356 0.00350025z"/>
   <path id="_114705968" class="fil16" d="M0.437691 1.30256l-0.0105038 0c-0.0154213,0.0177395 -0.0431393,0.0700295 -0.0700326,0.0700295l-0.00350025 0 -0.0490249 -0.00697913 3.05432e-006 0.0805119 0.133407 -0.0729281 -0.000348193 -0.0706343z"/>
   <path id="_114700304" class="fil11" d="M1.51215 1.38268c0.009896,-0.00182648 0.00710741,-0.00308181 0.0145141,-0.00308181 0.00534201,0 0.0497488,0.024627 0.0526138,0.0353568l-0.029239 0.0104611 -0.026878 0.0137078 0.00122173 0.00496022 0.0162856 0.0125472 -0.00700356 0 -0.000464257 0.00859486 0.0263527 0.00776409 -0.113847 0.0681847 -0.010235 -0.00756556 -0.00715322 0.0180755 -0.0242086 -0.0145172c-0.0210351,0 -0.0490219,-0.00850018 -0.0490219,0 0,0.0114965 0.00891557,0.0100396 0.017486,0.0179075l-0.0427911 0.000394008 0.0183046 0.0167133 0.0350148 0 2.74889e-005 0.00402865 -0.0581512 0.00510377 0.0193552 0.0182251 -0.00975245 0.00328034 -0.112552 -0.0621524 0.00047342 -0.00608421 0.0640491 -0.0328431 0.00200669 0.00391259c-0.00696386,-0.0168599 0.0118996,-0.00567493 0.0245109,-0.0245109l0.0175074 0c-0.00696386,-0.0168599 0.0118996,-0.00567493 0.0245109,-0.0245109l0.0175074 0c-0.00368962,-0.00943786 0.0277638,-0.0245079 0.0315145,-0.0245079 0.0119302,0 0.00950505,0.00445015 0.00713795,0.0100732l0.011188 0.00300851 0.00573907 -0.0116645 -0.0170614 -0.00842077c0.0118752,-0.00317344 0.0299415,-0.0175074 0.0350148,-0.0175074 0.0183901,0 -3.05432e-006,0.0038851 0.0134146,0.013549l0.0106504 -0.0121318 -0.0162887 -0.00719598 0.00986852 -0.008659 0.0138697 0.00393091c-0.00407752,-0.00986852 0.0189826,-0.0196179 0.0314381,-0.0278188l0.0110872 0.00372933 -0.0080176 0.00966388zm0.210599 0.157988l0.00350025 -0.0525221c-0.042956,-0.000956003 -0.0729555,-0.0461355 -0.103609,-0.0644615 -0.0133993,-0.00801149 -0.103038,-0.0615935 -0.109983,-0.0615935 -0.0132191,0 -0.135759,0.0740551 -0.155489,0.0861166 -0.0190406,0.01164 -0.149143,0.0805486 -0.149143,0.0924604l0.00110566 0.0085857 0.124949 0.0719507c0.00820086,-0.00191201 0.010345,-0.00350331 0.0210076,-0.00350331l0.0175074 0c0.0167346,0 0.0358852,0.0202776 0.049028,0.0280081 0.0186711,0.0109772 0.0398772,0.0086193 0.0629404,0.0140041l0.00332005 -0.0388327 0.00376293 0.000323758c0.000250454,0.0112216 -0.00113926,0.0175074 0.0105069,0.0175074l0.0105038 0c0.00572991,0 0.0105038,-0.00209527 0.0105038,-0.00700356 0,-0.0182038 -0.0272446,-0.00799011 -0.0447458,-0.028787 -0.00930041,-0.0110505 -0.00906523,-0.0327546 -0.0217315,-0.0516578l0.101492 -0.0596173c0.0410196,0.0274675 0.026087,0.0168996 0.0797911,0.0252562 0.0125105,0.0019456 0.0328095,0.00288633 0.0456652,0.00686001 0.013943,0.00430965 0.0236771,0.0133107 0.0391167,0.0169057z"/>
   <path id="_114710744" class="fil17" d="M1.52017 1.37302l-0.0110872 -0.00372933c-0.0124555,0.00820086 -0.0355157,0.0179503 -0.0314381,0.0278188l-0.0138697 -0.00393091 -0.00986852 0.008659 0.0162887 0.00719598 -0.0106504 0.0121318c-0.0134176,-0.00966388 0.00497549,-0.013549 -0.0134146,-0.013549 -0.00507323,0 -0.0231395,0.0143339 -0.0350148,0.0175074l0.0170614 0.00842077 -0.00573907 0.0116645 -0.011188 -0.00300851c0.0023671,-0.00562301 0.00479223,-0.0100732 -0.00713795,-0.0100732 -0.00375071,0 -0.0352041,0.01507 -0.0315145,0.0245079l-0.0175074 0c-0.0126113,0.018836 -0.0314748,0.00765108 -0.0245109,0.0245109l-0.0175074 0c-0.0126113,0.018836 -0.0314748,0.00765108 -0.0245109,0.0245109l-0.00200669 -0.00391259 -0.0640491 0.0328431 -0.00047342 0.00608421 0.112552 0.0621524 0.00975245 -0.00328034 -0.0193552 -0.0182251 0.0581512 -0.00510377 -2.74889e-005 -0.00402865 -0.0350148 0 -0.0183046 -0.0167133 0.0427911 -0.000394008c-0.00857043,-0.00786793 -0.017486,-0.00641102 -0.017486,-0.0179075 0,-0.00850018 0.0279868,0 0.0490219,0l0.0242086 0.0145172 0.00715322 -0.0180755 0.010235 0.00756556 0.113847 -0.0681847 -0.0263527 -0.00776409 0.000464257 -0.00859486 0.00700356 0 -0.0162856 -0.0125472 -0.00122173 -0.00496022 0.026878 -0.0137078 0.029239 -0.0104611c-0.00286495,-0.0107298 -0.0472717,-0.0353568 -0.0526138,-0.0353568 -0.00740673,0 -0.00461814,0.00125533 -0.0145141,0.00308181l0.0080176 -0.00966388z"/>
   <polygon id="_114695984" class="fil18" points="1.57218,1.63871 1.6107,1.64922 1.67682,1.65512 1.69653,1.64882 1.71574,1.56518 1.71513,1.55711 "/>
   <path id="_114693848" class="fil9" d="M0.371161 1.55117l0 0.0560254c0.0393885,0.00917824 0.280591,0.168073 0.294128,0.168073 0.0197401,0 0.177587,-0.110664 0.213592,-0.119051l0 -0.0560254c0,-0.0102259 -0.103813,-0.0699806 -0.119051,-0.0735298 -0.00679587,0.0254517 -0.0179625,0.0665293 -0.0490219,0.0665293l-0.00350025 0c-0.0123334,0 -0.0109131,-0.0101098 -0.0210107,-0.0175104 -0.0100915,0.0210351 -0.0168782,0.0595287 -0.0490219,0.0595287l-0.00350025 0c-0.0175379,0 -0.00718071,-0.0179289 -0.0223485,-0.0266734 -0.00591011,-0.00340862 -0.0272995,-0.00934928 -0.0360868,-0.0129351 -0.0124616,-0.00508239 -0.0680259,-0.0304241 -0.0711199,-0.0304241l-0.00350331 0c-0.0116186,0 -0.00730899,0.00700356 -0.0140041,0.00700356 -0.0107451,0 -0.0151403,-0.00863762 -0.0175074,-0.0175074l0.0140041 0c0.0510286,0 0.10462,0.0420183 0.126055,0.0420183 0.0153755,0 0.113034,-0.0622135 0.126055,-0.0735328 -0.0233106,-0.00543059 -0.0873322,-0.038515 -0.0945404,-0.038515 -0.0116217,0 -0.00731205,0.00700051 -0.0140071,0.00700051 -0.0107451,0 -0.0150548,-0.00482583 -0.0175074,-0.0140041l0.0315145 0c0.0300881,0 0.0549442,0.0226722 0.0776714,0.0234053l-0.137197 -0.0794307c-0.0240039,0.0160749 -0.210092,0.114894 -0.210092,0.129555z"/>
   <path id="_114705632" class="fil11" d="M1.50915 1.67373l0.0875399 0.0455186 0.0140071 -0.0700295 -0.0385181 -0.0105038 -0.0455186 -0.0105038c-0.00129503,0.0155434 -0.00584903,0.0162459 -0.0214383,0.0174371l-0.00289855 0.0240558 0.00682641 0.0040256z"/>
   <path id="_114704408" class="fil19" d="M1.75776 1.79278l0.0595257 0.0210107 0.00700356 -0.0315145c0.00506101,-0.00267864 0.0408974,-0.0245109 0.0420183,-0.0245109 0.00736703,0 0.0350148,0.0159313 0.0350148,0.0210076 0,0.055891 -0.0477727,0.157569 -0.0483285,0.214795l0.198894 -0.113248 0.0945404 -0.0560254c0.065109,-0.0436005 0.0453292,-0.0167927 0.0672287,-0.104345 0.00506101,-0.0202349 0.0343153,-0.124262 0.0343153,-0.137261 0,-0.0134268 -0.022605,-0.0158519 -0.0315145,-0.0280112l-0.00350025 0 -0.00700356 0.00350025 -0.00700356 0.00350331 -0.00700356 0.00350025 -0.00350025 0.00350331 -0.00700356 0.00350025 -0.00700356 0.00350025 -0.00350025 0.00350331 -0.00700356 0.00350025 -0.00700356 0.00350331 -0.00700356 0.00350025 -0.00350025 0.00350331 -0.00700356 0.00350025 -0.00700356 0.00350025 -0.00700356 0.00350331 -0.00350025 0.00350025 -0.00700356 0.00350331 -0.00700356 0.00350025 -0.00700356 0.00350025 -0.00350025 0.00350331 -0.00700356 0.00350025 -0.00700356 0.00350331 -0.00350025 0.00350025 -0.00700356 0.00350331 -0.00700356 0.00350025 -0.00700051 0.00350025 -0.00350331 -0.0280112c-0.010235,0.0161329 -0.000632245,0.0337197 -0.0201097,0.0464165 -0.014789,0.00963944 -0.0288114,0.0162582 -0.0443152,0.0257174 -0.0300209,0.0183137 -0.0592416,0.0343336 -0.0911257,0.0507048l-0.0335304 -0.185868c-0.00402865,0.00580016 -0.0346055,0.11253 -0.0424826,0.132594 -0.00913548,0.0232739 -0.0434905,0.103752 -0.066065,0.109012z"/>
   <path id="_114707120" class="fil13" d="M1.85931 1.32708l-0.0175074 0.00350025c-0.0103603,0.0154701 -0.0489944,0.0525832 -0.0656007,0.0709611 -0.0135215,0.0149631 -0.0182679,0.0185336 -0.0297522,0.0367771 -0.00942869,0.0149753 -0.011243,0.0369451 -0.0201982,0.0498313l-0.00350025 0.0525221 -0.00700356 0.0245109 -0.0192178 0.0836426 -0.0197034 0.00629801 -0.066123 -0.00590401 -0.0140071 0.0700295c0.0133168,0.0251676 0.045094,0.0135123 0.0665293,0.0455216 0.0444832,0 0.0312091,0.0280112 0.0945404,0.0280112 0.0225745,-0.00525954 0.0569295,-0.0857379 0.066065,-0.109012 0.0078771,-0.0200638 0.0384539,-0.126794 0.0424826,-0.132594l0.0335304 0.185868c0.0318841,-0.0163712 0.0611048,-0.0323911 0.0911257,-0.0507048 0.0155037,-0.00945924 0.0295261,-0.016078 0.0443152,-0.0257174 0.0194774,-0.0126968 0.00987462,-0.0302836 0.0201097,-0.0464165l0.00350331 -0.00700356 0.00350025 -0.0175074 0.00350025 -0.0175074 0.00350331 -0.0175074 0.00350025 -0.0175074 0.00350331 -0.0210107 0.00350025 -0.0210076 0.00350025 -0.0245109 0 -0.0840366 -0.00350025 -0.0140071 -0.00350025 -0.0105038 0 -0.0105038 0.00350025 -0.00350331 0 -0.0420183 -0.00350025 -0.00700051 -0.00807257 0.0524061 0.00106901 0.0281273 0.00735175 0.0699867 -0.0108551 4.58148e-005c-0.0274125,0 -0.0574335,-0.0425192 -0.0630259,-0.0665293l-0.00399811 0.0104091c-0.0270644,-0.0200974 -0.0202624,-0.0879981 -0.0310166,-0.104953 -0.0324644,0.00867122 -0.0611506,0.0374613 -0.108548,0.0385181z"/>
   <path id="_114717368" class="fil20" d="M0.371161 1.55117c0,-0.0146607 0.186088,-0.11348 0.210092,-0.129555l0.137197 0.0794307c-0.0227272,-0.000733037 -0.0475833,-0.0234053 -0.0776714,-0.0234053l-0.0315145 0c0.00245262,0.00917824 0.00676227,0.0140041 0.0175074,0.0140041 0.00669507,0 0.00238543,-0.00700051 0.0140071,-0.00700051 0.0072082,0 0.0712299,0.0330844 0.0945404,0.038515 -0.0130206,0.0113193 -0.110679,0.0735328 -0.126055,0.0735328 -0.0214352,0 -0.0750264,-0.0420183 -0.126055,-0.0420183l-0.0140041 0c0.0023671,0.00886975 0.00676227,0.0175074 0.0175074,0.0175074 0.00669507,0 0.00238543,-0.00700356 0.0140041,-0.00700356l0.00350331 0c0.00309403,0 0.0586583,0.0253417 0.0711199,0.0304241 0.00878729,0.00358577 0.0301767,0.00952643 0.0360868,0.0129351 0.0151678,0.00874453 0.00481056,0.0266734 0.0223485,0.0266734l0.00350025 0c0.0321437,0 0.0389304,-0.0384936 0.0490219,-0.0595287 0.0100976,0.00740062 0.00867733,0.0175104 0.0210107,0.0175104l0.00350025 0c0.0310594,0 0.042226,-0.0410776 0.0490219,-0.0665293 0.015238,0.00354912 0.119051,0.0633039 0.119051,0.0735298l0 0.0560254c-0.0360044,0.00838717 -0.193852,0.119051 -0.213592,0.119051 -0.0135368,0 -0.25474,-0.158895 -0.294128,-0.168073l0 -0.0560254zm1.05396 -0.479706c0,-0.020354 0.0242696,-0.0350148 0.0420153,-0.0350148l0.0315145 0c0.0185886,0 0.0455216,0.0125502 0.0455216,0.0280112l0 0.0280112c0,0.0270033 -0.0382432,0.0350148 -0.0665293,0.0350148 -0.0194316,0 -0.0525221,-0.0153877 -0.0525221,-0.0315114l0 -0.0245109zm-0.0280142 -0.157569l-0.00700356 0.00350331 -0.00350025 0.00350025 -0.00700356 0.00350025 -0.00700356 0.00350331 -0.00700051 0.00350025 -0.00350331 0.00350331 -0.00700356 0.00350025 -0.00700051 0.00350331 0 -0.00700356 -0.00350331 0 0.0105038 0.0665293 0.0156809 0.0802554c-0.0117744,0.0153632 -0.108804,0.0692476 -0.131229,0.0808143 -0.0216918,0.0111849 -0.0457049,0.0259953 -0.0666362,0.0384112 -0.0310808,0.0184328 -0.0394374,0.0119516 -0.048915,0.052626l0.086532 0.0542387c-0.000778852,0.0197462 -0.119369,0.0805578 -0.142557,0.092827 -0.0178098,-0.0119271 -0.0945404,-0.0449871 -0.0945404,-0.0665293 0,-0.00907439 0.00234572,-0.00359799 0.00350331,-0.0175074 -0.0247278,0.00576045 -0.1113,0.063704 -0.141207,0.0793879 -0.0205739,0.0107848 -0.0505582,0.0360838 -0.0732579,0.0302103 -0.0215085,-0.00556498 -0.0271407,-0.0563278 -0.0271407,-0.0815871l-0.0105038 -0.0455186 0 0.00700051 -0.00700356 0 -0.00700356 0.00350331 -0.00350025 0.00350025 -0.00700356 0.00350331 -0.00700356 0.00350025 -0.00700356 0.00350331 -0.00350025 0.00350025 -0.00700356 0.00350025 -0.00700356 0.00350331 -0.00700356 0.00350025 -0.00350025 0.00350331 -0.00700356 0.00350025 -0.00700356 0.00350025 -0.00700356 0.00350331 -0.00350025 0.00350025 -0.00700356 0.00350331 -0.00700356 0.00350025 -0.00350025 0.00350331 -0.00700356 0.00350025 -0.00700356 0.00350025 -0.00700356 0.00350331 -0.00350025 0.00350025 -0.00700356 0.00350331 -0.00700356 0.00350025 -0.00700356 0.00350331 -0.00350025 0.00350025 -0.00700356 0.00350025 -0.00700356 0.00350331 -0.00350025 0.00350025 -0.00700356 0.00350331 -0.00700356 0.00350025 -0.00700051 0.00350025 -0.00350331 0.00350331 -0.00700356 0.00350025 -0.00700051 0.00350331 -0.00700356 0.00350025 -0.00350331 0.00350331 -0.00700051 0.00350025 -0.00700356 0.00350025 -0.00700356 0.00350331 -0.00350331 0.00350025 -0.00700051 0.00350331 -0.00700356 0.00350025 -0.00700356 0.00350025 -0.00350025 0.00350331 -0.00700356 0.00350025 -0.00700356 0.00350331 -0.00350331 0.00350025 -0.00700051 0.00350025 -0.00700356 0.00350331 -0.00700356 0.00350025 -0.00350331 0.00350331 -0.00700051 0.00350025 -0.00700356 0.00350025 -0.00700356 0.00350331 -0.00350025 0.00350025 -0.00700356 0.00350331 -0.00700356 0.00350025 -0.00350331 0.00350025 -0.00700051 0.00350331 -0.00700356 0.00350025 -0.00700356 0.00350331 -0.00350025 0.00350025 -0.00700356 0.00350331 -0.00700356 0.00350025 -0.00700356 0.00350025 -0.00350025 0.00350331 -0.00700356 0.00350025 -0.00700356 0.00350331 -0.00700356 0.00350025 -0.00350025 0.00350025 -0.00700356 0.00350331 -0.00700356 0.00350025 -0.00350025 0.00350331 -0.00700356 0.00350025 -0.00700356 0.00350331 -0.00700356 0.00350025 -0.00350025 0.00350025 -0.00700356 0.00350331 -0.00700356 0.00350025 -0.00700356 0.00350331 -0.00350025 0.00350025 -0.00700356 0.00350331 -0.00700356 0.00350025 -0.00350025 0.00350025 -0.00700356 0.00350331 -0.00700356 0.00350025 -0.00700356 0.00350331 -0.00350025 0.00350025 -0.00700356 0.00350025 -0.00700356 0.00350331 -0.00700356 0.00350025 -0.00350025 0.00350331 -0.00700356 0.00350025 -0.00700356 0.00350331 -0.00700051 0.00350025 0 0.0525221 0.00350025 0.00350025 0.00700356 0.00350331 0.00700356 0.00350025 0.00350025 0.00350331 0.00350025 0c0.0236618,0.00551305 0.282971,0.159433 0.323541,0.184182 0.0272904,0.0166491 0.324106,0.18698 0.324241,0.18698 0.00631328,0 0.188791,-0.1068 0.210034,-0.119109 0.0322964,-0.0187138 0.186625,-0.113514 0.21015,-0.118993l0.00350025 0 0.00350331 -0.00350331 0.00700051 -0.00350025 0.00700356 -0.00350331 0.00350331 -0.00350025 0.00700051 -0.00350331 0.00700356 -0.00350025 0.00700356 -0.00350025 0.00350331 -0.00350331 0.00700051 -0.00350025 0.00700356 -0.00350331 0.00700356 -0.00350025 0.00350331 -0.00350331 0.00700051 -0.00350025 0.00700356 -0.00350025 0.00700356 -0.00350331 0.00350025 -0.00350025 0.00700356 -0.00350331 0.00700356 -0.00350025 0.00350331 -0.00350025 0.00700051 -0.00350331 0.00700356 -0.00350025 0.00700356 -0.00350331 0.00350025 -0.00350025 0.00700356 -0.00350331 0.00700356 -0.00350025 0.00700356 -0.00350025 0.00350025 -0.00350331 0.00700356 -0.00350025 0.00700356 -0.00350331 0.00350025 -0.00350025 0.00700356 -0.00350025 0.00700356 -0.00350331 0.00700356 -0.00350025 0.00350025 -0.00350331 0.00700356 -0.00350025 0.00700356 -0.00350025 0.00700356 -0.00350331 0.00350025 -0.00350025 0.00700356 -0.00350331 0.00700356 -0.00350025 0.00700356 -0.00350331 0.00700051 -0.00350025 0.0175074 -0.0175074 -0.00682641 -0.0040256 0.00289855 -0.0240558c0.0155893,-0.00119119 0.0201433,-0.00189368 0.0214383,-0.0174371l0.0455186 0.0105038 0.142948 -0.0816023 0.000613919 0.00806952 0.00700356 -0.0245109c-0.0154396,-0.00359494 -0.0251737,-0.012596 -0.0391167,-0.0169057 -0.0128556,-0.00397367 -0.0331547,-0.0049144 -0.0456652,-0.00686001 -0.0537042,-0.00835663 -0.0387716,0.00221133 -0.0797911,-0.0252562l-0.101492 0.0596173c0.0126663,0.0189032 0.0124311,0.0406072 0.0217315,0.0516578 0.0175013,0.0207969 0.0447458,0.0105832 0.0447458,0.028787 0,0.0049083 -0.00477391,0.00700356 -0.0105038,0.00700356l-0.0105038 0c-0.0116461,0 -0.0102564,-0.0062858 -0.0105069,-0.0175074l-0.00376293 -0.000323758 -0.00332005 0.0388327c-0.0230632,-0.00538477 -0.0442693,-0.00302683 -0.0629404,-0.0140041 -0.0131427,-0.00773049 -0.0322934,-0.0280081 -0.049028,-0.0280081l-0.0175074 0c-0.0106626,0 -0.0128068,0.0015913 -0.0210076,0.00350331l-0.124949 -0.0719507 -0.00110566 -0.0085857c0,-0.0119119 0.130102,-0.0808204 0.149143,-0.0924604 0.0197309,-0.0120615 0.14227,-0.0861166 0.155489,-0.0861166 0.00694553,0 0.0965838,0.053582 0.109983,0.0615935 0.0306532,0.0183259 0.0606527,0.0635055 0.103609,0.0644615 0.00895527,-0.0128862 0.0107695,-0.0348559 0.0201982,-0.0498313 0.0114843,-0.0182435 0.0162307,-0.021814 0.0297522,-0.0367771 0.0166064,-0.0183779 0.0552405,-0.0554909 0.0656007,-0.0709611l0.0175074 -0.00350025 -0.0105038 0 0 -0.0595257c0,-0.019288 -0.0252318,-0.00350025 -0.0455216,-0.00350025 -0.0219697,0 -0.0268872,-0.0272537 -0.0307692,-0.0427636 -0.00264504,-0.0105741 -0.0147493,-0.0541684 -0.0147493,-0.0587804l0 -0.0210107c0,-0.0106626 0.0015913,-0.0128068 0.00350025,-0.0210076l-0.00350025 -0.00700356 -0.00350025 -0.00350331 -0.00700356 -0.00350025 -0.00700356 -0.00350331 -0.00350331 -0.00350025 -0.00700051 -0.00350025 -0.00700356 -0.00350331 -0.00700356 -0.00350025 -0.00350331 -0.00350331 -0.00700051 -0.00350025 -0.00700356 -0.00350025 -0.00350331 -0.00350331 -0.00700051 -0.00350025 -0.00700356 -0.00350331 -0.00700356 -0.00350025 -0.00350331 -0.00350331 -0.00700051 -0.00350025 -0.00700356 -0.00350025 -0.00700356 -0.00350331 -0.00350025 -0.00350025 -0.00700356 -0.00350331 -0.00700356 -0.00350025 -0.00350025 -0.00350025 -0.00700356 -0.00350331 -0.00700356 -0.00350025 -0.00700356 -0.00350331 -0.00350025 -0.00350025 -0.00700356 -0.00350025 -0.00700356 -0.00350331 -0.00700356 -0.00350025 -0.00350025 -0.00350331 -0.00700356 -0.00350025 -0.00700356 -0.00350025 -0.00700356 -0.00350331 -0.00350025 -0.00350025 -0.00700356 -0.00350331 -0.00700356 -0.00350025 -0.00350025 -0.00350025 -0.00700356 -0.00350331 -0.00700356 -0.00350025 -0.00700356 -0.00350331 -0.00350025 -0.00350025 -0.00700356 -0.00350331 -0.00700356 -0.00350025 -0.00700356 -0.00350025 -0.00350025 -0.00350331 -0.00700356 -0.00350025 -0.00700356 -0.00350331 -0.00350025 -0.00350025 -0.00700356 -0.00350025 -0.00700356 -0.00350331 -0.00700356 -0.00350025 -0.00350025 -0.00350331 -0.00700356 -0.00350025 -0.00700356 -0.00350331 -0.00700051 -0.00350025 -0.00350331 -0.00350025 -0.00700356 -0.00350331 -0.00700356 -0.00350025 -0.00350025 0 -0.00700356 0.00350025z"/>
   <path id="_117672152" class="fil3" d="M1.56868 1.73675l0.00408363 0.00058643 -0.00408363 0.00291688 0 -0.00350331zm-0.0770361 -0.0455186l0.00350331 0.00350025 0.00350025 0.00350331 0.00700356 0.00350025 0.00700356 0.00350331 0.00700356 0.00350025 0.00350025 0.00350331 0.00700356 0.00350025 0.00700356 0.00350025 0.00700356 0.00350331 0.00350025 0.00350025 0.00700356 0.00350331 0.00700356 0.00350025 0.00700356 0.00350025 -0.0175074 -0.00350025 -0.0245109 0 -0.0140071 0.00350025 -0.0105038 0.00350331 -0.00700356 0.00350025 -0.00350331 0.00350331 -0.00700051 0.00350025 -0.00350331 0.00350025 -0.00350025 0.00350331 -0.00350331 0.00700356 -0.00350025 0.00350025 -0.00350331 0.00350331 -0.00350025 0.00700051 -0.00350025 0.00700356 0 0.00700356 -0.0105069 0 -0.0140041 0.00350025 -0.0105038 0.00350331 -0.00700356 0.00350025 -0.00700356 0.00350331 -0.00350331 0.00350025 -0.00350025 0.00350331 -0.00700356 0.00350025 -0.00350025 0.00700356 -0.00350331 0.00350025 -0.00350025 0.00350331 -0.00350025 0.00700356 -0.00350331 0.00700051 -0.00350025 0.0140071 0 0.0455186 0.00350025 0.0140071 0 0.0140071 0 0.0175074 0.00350331 0.0140041 0.00350025 0.00350331c0.0296666,0.0312732 0.292488,0.154637 0.350151,0.168073l0.0805364 -0.322139 -0.0595257 -0.0210107c-0.0633314,0 -0.0500573,-0.0280112 -0.0945404,-0.0280112 -0.0214352,-0.0320093 -0.0532124,-0.020354 -0.0665293,-0.0455216l-0.0875399 -0.0455186 -0.0175074 0.0175074z"/>
   <polygon id="_114701456" class="fil16" points="2.05189,1.88032 2.05189,1.93984 2.11142,1.97135 2.14643,1.82429 "/>
   <path id="_114700568" class="fil18" d="M2.24798 1.53366l-0.00700356 0.00350331 -0.00350025 0.00350025 -0.00700356 0.00350331 -0.00700356 0.00350025 -0.00700356 0.00350025 0 0.00350331c0.00890946,0.0121593 0.0315145,0.0145844 0.0315145,0.0280112 0,0.0129992 -0.0292543,0.117026 -0.0343153,0.137261 -0.0218995,0.0875522 -0.0021197,0.0607444 -0.0672287,0.104345l-0.0350148 0.147063 -0.00971885 0.0476352 0.030983 0.0193522 0.0452651 -0.0249691 0.00350025 0 0.00350025 -0.0140071 0.00350331 -0.0140041 0.00350025 -0.0140071 0.00350331 -0.0140071 0.00350025 -0.0140041 0.00350331 -0.0140071 0.00350025 -0.0140041 0.00350025 -0.0140071 0.00350331 -0.0140071 0.00350025 -0.0140041 0.00350331 -0.0140071 0.00350025 -0.0140071 0.00350025 -0.0140041 0.00350331 -0.0140071 0.00350025 -0.0140071 0.00350331 -0.0140041 0.00350025 -0.0140071 0.00350331 -0.0140071 0.00350025 -0.0140041 0.00350025 -0.0140071 0.00350331 -0.0140071 0.00350025 -0.0140041 0.00350331 -0.0140071 0.00350025 -0.0140071 0.00350025 -0.0140041 0.00350331 -0.0140071 0.00350025 -0.0140041 0.00350331 -0.0140071 0.00350025 -0.0140071 0.00350025 -0.0140041 0.00350331 -0.0140071 0.00350025 -0.0140071 0 -0.0140071 -0.00350025 -0.00350025 -0.00350331 -0.00350025 -0.00700051 -0.00350331 -0.00700356 -0.00350025 -0.00350331 -0.00350331 -0.00700051 -0.00350025 -0.00700356 0 -0.00700356 0.00350025z"/>
   <path id="_117666848" class="fil20" d="M1.73675 2.13593c-0.0576626,-0.013436 -0.320484,-0.1368 -0.350151,-0.168073l-0.00350025 0 -0.00350331 0.00350025 -0.00700356 0.00350331 -0.00700051 0.00350025 -0.00700356 0.00350025 -0.00350331 0.00350331 -0.00700051 0.00350025 -0.00700356 0.00350331 -0.00700356 0.00350025 -0.00350331 0.00350025 -0.00700051 0.00350331 -0.00700356 0.00350025 -0.00350331 0.00350331 0 0.0490219 0.00350331 0.00350025 0.00350025 0.00350025 0.00700356 0.00350331 0.00350025 0.234603 -0.00700051 0 -0.00350331 0.00700051 0 0.0105069 0.00350331 0.00700051 0.00350025 0.00350331 0.00350025 0.133059 0.00350331 0 0.000119119 -0.39588 0.0804142 0.0492296 0.16107 0.0910371 0 0.00350331 0.00700356 0.00350025 0.00700356 0.00350331 0.00350331 0.00350025 0.00700051 0.00350025 0.00700356 0.00350331 0.00350331 0.00350025 0.00700051 0.00350331 0.00700356 0.00350025 0.00700356 0.00350331 0.00350025 0.00350025 0.00700356 0.00350025 0.00700356 0.00350331 0.00700356 0.00350025 0.00350025 0.00350331 0.00700356 0.00350025 0.00700356 0.00350025 0.00350025 0.00350331 0.00700356 0.00350025 0.00700356 0.00350331 0.00700356 0.00350025 0.00350025 0.00350331 0.00700356 0 0 0.0140041 0.00350025 0 0.000757472 -0.0118508 0.0334784 0.0175013 0.0428002 -0.0231579 0.00350025 0 0.00700356 -0.00350025 0.00700356 -0.00350331 0.00700356 -0.00350025 0.00350025 -0.00350331 0.00700356 -0.00350025 0.00700356 -0.00350025 0.00700051 -0.00350331 0.00350331 -0.00350025 0.00700356 -0.00350331 0.00700051 -0.00350025 0.00350331 -0.00350025 0.00700356 -0.00350331 0.00700051 -0.00350025 0.00700356 -0.00350331 0.00350331 -0.00350025 0.00700356 -0.00350331 0.00700051 -0.00350025 0.00700356 -0.00350025 0.00350331 -0.00350331 0.00700051 -0.00350025 0.00700356 -0.00350331 0.00350331 -0.00350025 0.00700356 -0.00350331 0.00700051 -0.00350025 0.00700356 -0.00350025 0.00350331 -0.00350331 0.00700356 -0.00350025 0.00700051 -0.00350331 0.00700356 -0.00350025 0.00350331 -0.00350025 0.00700051 -0.00350331 0.00700356 -0.00350025 0.00700356 -0.00350331 0.00350331 -0.00350025 0.00700051 -0.00350331 0.00700356 -0.00350025 0.00350331 -0.00350025 0.00700051 -0.00350331 0.00700356 -0.00350025 0.00700356 -0.00350331 0.00350025 -0.00350025 0.00700356 -0.00350025 0.00700356 -0.00350331 0.00700356 -0.00350025 0.00350025 -0.00350331 0.00700356 -0.00350025 0.00700356 -0.00350025 0.00350025 -0.00350331 0.00700356 -0.00350025 0.00700356 -0.00350331 0.00700356 -0.00350025 0.0735328 -0.0455186 0 -0.0455216 -0.0452651 0.0249691 -0.030983 -0.0193522 0.00971885 -0.0476352 -0.0595257 -0.0315145c-0.0168873,0.0266184 0.0133474,0.0972771 -0.0595013,0.150593 -0.0362609,0.026539 -0.0916388,0.0559979 -0.154094,0.0559979l-0.0280112 0c-0.000354301,0.0159772 -0.0117439,0.0533896 -0.0160688,0.0714681 -0.00496327,0.0207511 -0.0366794,0.044083 -0.0469572,0.044083 -0.00429132,0 -0.029517,-0.0145997 -0.0364503,-0.0178617l0.0259434 -0.108193z"/>
   <path id="_114704240" class="fil18" d="M1.81729 1.81379l-0.0805364 0.322139 -0.0259434 0.108193c0.00693331,0.00326202 0.032159,0.0178617 0.0364503,0.0178617 0.0102778,0 0.0419939,-0.023332 0.0469572,-0.044083 0.00432492,-0.0180785 0.0157145,-0.0554909 0.0160688,-0.0714681l0.0280112 0c0.0624548,0 0.117833,-0.0294589 0.154094,-0.0559979 0.0728486,-0.0533163 0.0426139,-0.123975 0.0595013,-0.150593l0 -0.0595226 -0.198894 0.113248c0.000555887,-0.0572258 0.0483285,-0.158904 0.0483285,-0.214795 0,-0.00507628 -0.0276477,-0.0210076 -0.0350148,-0.0210076 -0.00112094,0 -0.0369573,0.0218323 -0.0420183,0.0245109l-0.00700356 0.0315145z"/>
   <path id="_114715496" class="fil21" d="M1.41461 2.297c0.0195568,-0.0224981 0.043631,-0.0560254 0.0840366,-0.0560254 0.00666148,0 0.0175074,0.0302225 0.0175074,0.0385181 0,0.0431759 -0.0280112,0.0696477 -0.0282219,0.118321l0.0562362 -0.0132771c0.00810312,-0.0347826 0.0258121,-0.10195 0.0630259,-0.105044l0 -0.00350331 -0.00350025 -0.00350025 -0.00350331 -0.00700356 -0.00350025 -0.00350025 -0.00350025 -0.00700356 -0.00350331 -0.00700356 -0.00350025 -0.00350025 -0.00350331 -0.0105069 -0.00350025 -0.00700356 -0.00350331 -0.0105038 0 -0.00700356 -0.16107 -0.0910371 0 0.178577z"/>
   <polygon id="_117672320" class="fil10" points="1.33408,2.46507 1.33408,2.46857 1.34108,2.47207 1.34809,2.47557 1.35509,2.47907 1.35859,2.48258 1.36559,2.48608 1.3761,2.48608 1.3831,2.48258 1.3901,2.47907 1.3936,2.47557 1.40061,2.47207 1.40761,2.46857 1.41461,2.46507 1.41812,2.38103 1.41812,2.37753 1.41461,2.297 1.41461,2.11842 1.3342,2.06919 "/>
   <path id="_114703352" class="fil22" d="M0.812352 2.67166l0 0.00350025 0.00700356 0.00350331 0.00350025 0 0.00700356 -0.00350331 0.00350331 -0.00350025 0.00700051 -0.00350025 0.00700356 -0.00350331 0.00700356 -0.00350025 0.00350331 -0.00350331 0.00700051 -0.00350025 0.00700356 -0.00350331 0.00700356 -0.00350025 0.00350025 -0.00350025 0.00700356 -0.00350331 0.00700356 -0.00350025 0.00350331 -0.00350331 0.00700051 -0.00350025 0.00700356 -0.00350025 0.00700356 -0.00350331 0.00350025 -0.00350025 0.00700356 -0.00350331 0.00700356 -0.00350025 0.00700356 -0.00350331 0.00350025 -0.00350025 0.00700356 -0.00350025 0.00700356 -0.00350331 0.00700356 -0.00350025 0.00350025 -0.00350331 0.00700356 -0.00350025 0.00700356 -0.00350025 0.00350025 -0.00350331 0.00700356 -0.00350025 0.00700356 -0.00350331 0.00700356 -0.00350025 0.00350025 -0.00350025 0.00700356 -0.00350331 0.00700356 -0.00350025 0.00700356 -0.00350331 0.00350025 -0.00350025 0.00700356 -0.00350025 0.00700356 -0.00350331 0.00350025 -0.00350025 0.00700356 -0.00350331 0.00700356 -0.00350025 0.00700356 -0.00350025 0.00350025 -0.00350331 0.00700356 -0.00350025 0.00700356 -0.00350331 0.00700356 -0.00350025 0.00350025 -0.00350331 0.00700356 -0.00350025 0.00700356 -0.00350025 0.00700051 -0.00350331 0.00350331 -0.00350025 0.00700356 -0.00350331 0.00700356 -0.00350025 0.00700051 -0.00350025 0.00350331 -0.00350331 0.00700356 -0.00350025 0.00700051 -0.00350331 0.00350331 -0.00350025 0.00700356 -0.00350331 0.00700051 -0.00350025 0.00700356 -0.00350025 0.00350331 -0.00350331 0.00700051 -0.00350025 0.00700356 -0.00350331 0.00700356 -0.00350025 0.00350025 -0.00350331 0.00700356 -0.00350025 0.00350331 -0.00350025 0 -0.546238c-0.0467372,0.0247308 -0.163254,0.0839786 -0.189084,0.122555 -0.00938899,-0.00224798 -0.00660039,-0.00350331 -0.0140041,-0.00350331 -0.00426078,0 -0.0969534,0.0534079 -0.107851,0.0602251 -0.0153052,0.00957225 -0.10224,0.0526596 -0.10224,0.0658298l0 0.532231 -0.00700356 0z"/>
   <path id="_114715064" class="fil23" d="M1.41461 2.297l0.00350331 0.0805333 0.0140041 0 0.0140071 -0.00350025 0.0105038 -0.00350331 0.00350331 -0.00350025 0.00350025 -0.00700356 0.00399811 -0.00690888 -0.00399811 0.0104122 -0.00350025 0.0245079 0 0.0175074 0.00350025 0.00350331 0.00350025 0.00350025 0.00350331 0.00700356 0.00350025 0.00700356 0.00350331 0.00350025 0.00700356 0.00350331 0.00700051 0.00350025 0.00700356 0.00350331 0.0105038 0.00350025 0.0140071 0.00350025 0.0140071 0.00350331 0.038515 0 0.00350331 -0.00350331 0.00350025 -0.00350025 0.00350331 -0.00350025 0.00700356 -0.00350331 0.00350025 -0.00350025 0.00350025 -0.00350331 0.00350331 -0.00350025 0.00700356 -0.00350025 0.00350025 -0.00350331 0.00350025 -0.00350025 0.00350331 -0.0105069 0.00350025 -0.00700051 0 0.0105038 0.00350331 0.0140071 0.00350025 0.0140041 0.00350025 0.00700356 0.0245109 0 0 -0.0245109 -0.00350025 -0.0175074 -0.00350331 -0.0140071 -0.00350025 -0.0210076 -0.00350025 -0.0350148 -0.00350331 -0.0175074 -0.00350025 -0.00700356 -0.00350331 -0.00700356 -0.00350025 -0.00350025 -0.00350025 -0.00350331 -0.00350331 -0.00350025 -0.00350025 -0.00350025 -0.00350331 -0.00350331 -0.00350025 -0.00350025 -0.00700356 0c-0.0372139,0.00309403 -0.0549228,0.0702616 -0.0630259,0.105044l-0.0562362 0.0132771c0.000210748,-0.0486737 0.0282219,-0.0751455 0.0282219,-0.118321 0,-0.00829554 -0.0108459,-0.0385181 -0.0175074,-0.0385181 -0.0404056,0 -0.0644798,0.0335273 -0.0840366,0.0560254z"/>
   <polygon id="_117668288" class="fil18" points="2.10441,2.10441 2.10441,2.12892 2.10791,2.15694 2.11142,2.18495 2.11492,2.21296 2.11842,2.24097 2.12192,2.27249 2.12542,2.3005 2.12892,2.32851 2.13242,2.35652 2.13593,2.38453 2.13943,2.41255 2.14293,2.44056 2.14643,2.46857 2.14993,2.48958 2.15694,2.49308 2.16044,2.49658 2.16744,2.50009 2.17444,2.50359 2.18145,2.50709 2.19545,2.50709 2.19895,2.50359 2.20596,2.50009 2.21296,2.49658 2.21996,2.49308 2.22346,2.48958 2.23047,2.48608 2.23047,2.45456 2.22696,2.42655 2.22346,2.39854 2.21996,2.37053 2.21646,2.34252 2.21296,2.3145 2.20946,2.28649 2.20596,2.25848 2.20246,2.23047 2.19895,2.20245 2.19545,2.17094 2.19195,2.14293 2.18845,2.11492 2.18495,2.08691 2.18145,2.05889 2.17795,2.05889 "/>
   <path id="_114715664" class="fil24" d="M0.16457 2.3005l0.00700356 0.00350331 0.00350331 0.00350025 0.00700356 0.00350025 0.00700051 0.00350331 0.00350331 0.00350025 0.00700356 0.00350331 0.00700356 0.00350025 0.00700051 0.00350025 0.00350331 0.00350331 0.00700356 0.00350025 0.00700051 0.00350331 0.00700356 0.00350025 0.00350331 0.00350331 0.00700356 0.00350025 0.00700051 0.00350025 0.00350331 0.00350331 0.00700356 0.00350025 0.00700051 0.00350331 0.00700356 0.00350025 0.00700356 0.00350025 0.00350025 0.00350331 0.00700356 0.00350025 0.00700356 0.00350331 0.00350025 0.00350025 0.00700356 0.00350025 0.00700356 0.00350331 0.00700356 0.00350025 0.00350025 0.00350331 0.00700356 0.00350025 0.00700356 0.00350025 0.00350025 0.00350331 0.00700356 0.00350025 0.00700356 0.00350331 0.00700356 0.00350025 0.00350025 0.00350331 0.00700356 0.00350025 0.00700356 0.00350025 0.00700356 0.00350331 0.00350025 0.00350025 0.00700356 0.00350331 0.00700356 0.00350025 0.00700356 0.00350025 0.00350025 0.00350331 0.00700356 0.00350025 0.00700356 0.00350331 0.00350025 0.00350025 0.00700356 0.00350331 0.00700356 0.00350025 0.00700356 0.00350025 0.00350025 0.00350331 0.00700356 0.00350025 0.00700356 0.00350331 0.00700356 0.00350025 0.00350025 0.00350331 0.00700356 0.00350025 0.00700356 0.00350025 0.00700356 0.00350331 0.00350025 0.00350025 0.00700356 0.00350331 0.00700356 0.00350025 0.00350025 0.00350025 0.00700356 0.00350331 0.00700356 0.00350025 0.00700051 0.00350331 0.00350331 0.00350025 0.00700356 0.00350331 0.00700051 0.00350025 0.00700356 0.00350025 0.00350331 0.00350331 0.00700356 0.00350025 0.00700051 0.00350331 0.00350331 0.00350025 0.00700356 0.00350025 0.00700051 0.00350331 0.00700356 0.00350025 0.00350331 0.00350331 0.00700356 0.00350025 0.00700051 0.00350025 0.00700356 0.00350331 0.00350331 0.00350025 0.00700356 0.00350331 0.00700051 0.00350025 0.00700356 0.00350025 0.00350331 0.00350331 0.00700051 0.00350025 0.00700356 0.00350331 0.00350331 0.00350025 0.00700356 0.00350025 0.00700051 0.00350331 0.00700356 0.00350025 0.00350331 0.00350331 0.00700051 0.00350025 0.00700356 0.00350331 0.00700356 0.00350025 0.00350025 0.00350025 0.00700356 0.00350331 0.00700356 0.00350025 0.00700356 0.00350331 0.00350025 0.00350025 0.00700356 0.00350025 0.00700356 0.00350331 0.00350025 0.00350025 0.00700356 0.00350331 0.00700356 0.00350025 0.00700356 0.00350331 0.00350025 0.00350025 0.00700356 0 0.00700356 0 0 -0.532231c0,-0.0131702 0.0869352,-0.0562576 0.10224,-0.0658298 0.0108978,-0.00681725 0.10359,-0.0602251 0.107851,-0.0602251 0.00740368,0 0.00461508,0.00125533 0.0140041,0.00350331 0.0258304,-0.0385761 0.142347,-0.0978238 0.189084,-0.122555l0 -0.0560224c-0.0235244,0.00547945 -0.177853,0.10028 -0.21015,0.118993 -0.0212428,0.0123089 -0.20372,0.119109 -0.210034,0.119109 -0.00013439,0 -0.29695,-0.17033 -0.324241,-0.18698 -0.0405706,-0.0247492 -0.299879,-0.178669 -0.323541,-0.184182l0 0.595257z"/>
   <polygon id="_114693968" class="fil18" points="1.71224,2.3005 1.71224,2.32851 1.71574,2.35652 1.71924,2.38453 1.72275,2.41255 1.72625,2.44056 1.72975,2.46857 1.73325,2.49658 1.73675,2.5246 1.74026,2.55611 1.74376,2.58412 1.74726,2.61213 1.75076,2.64014 1.75426,2.66816 1.75776,2.69617 1.76126,2.71368 1.76477,2.71718 1.77177,2.72068 1.77877,2.72418 1.78577,2.72768 1.78928,2.73118 1.80678,2.73118 1.81028,2.72768 1.81729,2.72418 1.82429,2.72068 1.8313,2.71718 1.8348,2.71368 1.8418,2.71018 1.8418,2.68216 1.8383,2.65415 1.8348,2.62614 1.8313,2.59813 1.82779,2.57011 1.82429,2.5421 1.82079,2.51409 1.81729,2.48258 1.81379,2.45456 1.81028,2.42655 1.80678,2.39854 1.80328,2.37053 1.79978,2.34252 1.79628,2.3145 1.79278,2.28649 1.78928,2.28299 1.74648,2.30615 1.713,2.28865 "/>
   <polygon id="_117665504" class="fil25" points="1.27805,2.95178 1.27805,2.95528 1.29206,2.95528 1.29206,2.94828 1.28156,2.94828 "/>
  </g>
 </g>
</svg>
