<?xml version="1.0" encoding="UTF-8"?>
<!DOCTYPE svg PUBLIC "-//W3C//DTD SVG 1.1//EN" "http://www.w3.org/Graphics/SVG/1.1/DTD/svg11.dtd">
<!-- Creator: CorelDRAW -->
<svg xmlns="http://www.w3.org/2000/svg" xml:space="preserve" width="6.10794in" height="3.80031in" style="shape-rendering:geometricPrecision; text-rendering:geometricPrecision; image-rendering:optimizeQuality; fill-rule:evenodd; clip-rule:evenodd"
viewBox="0 0 5.81848 3.62021"
 xmlns:xlink="http://www.w3.org/1999/xlink">
 <defs>
  <style type="text/css">
   <![CDATA[
    .str6 {stroke:#0093DD;stroke-width:0.00285783}
    .str0 {stroke:#1F1A17;stroke-width:0.00285783}
    .str2 {stroke:#DA251D;stroke-width:0.00285783}
    .str3 {stroke:#DB214C;stroke-width:0.00285783}
    .str5 {stroke:#DEDEDD;stroke-width:0.00285783}
    .str1 {stroke:#E77817;stroke-width:0.00285783}
    .str7 {stroke:#E7785F;stroke-width:0.00285783}
    .str4 {stroke:#EE9A85;stroke-width:0.00285783}
    .str8 {stroke:#F5C491;stroke-width:0.00285783}
    .fil26 {fill:#0093DD}
    .fil19 {fill:#1F1A17}
    .fil21 {fill:#DA251D}
    .fil22 {fill:#DB214C}
    .fil25 {fill:#DEDEDD}
    .fil20 {fill:#E77817}
    .fil27 {fill:#E7785F}
    .fil24 {fill:#EE9A85}
    .fil28 {fill:#F5C491}
    .fil23 {fill:white}
    .fil7 {fill:#0B6AD3}
    .fil1 {fill:#1213CF}
    .fil8 {fill:#222222}
    .fil12 {fill:#353535}
    .fil17 {fill:#4A4A4B}
    .fil3 {fill:#4FBAEC}
    .fil9 {fill:#51210C}
    .fil4 {fill:#A2DBFC}
    .fil16 {fill:#AFB9C5}
    .fil5 {fill:#B1AAAA}
    .fil18 {fill:#B3FAD8}
    .fil6 {fill:#BDC2F9}
    .fil11 {fill:#DCA27E}
    .fil15 {fill:#E2E6E4}
    .fil13 {fill:#F30B8A}
    .fil2 {fill:whitesmoke}
    .fil14 {fill:#F6BE9C}
    .fil10 {fill:#F79E7C}
    .fil0 {fill:#F80B55}
   ]]>
  </style>
 </defs>
 <g id="Layer_x0020_1">
  <metadata id="CorelCorpID_0Corel-Layer"/>
  <g id="_114712376">
   <g>
    <g>
     <g>
      <path id="_114694280" class="fil0" d="M1.54493 0.545721l0.161411 0.0691767 0 -0.184472c-0.0706881,0 -0.156329,0.0541374 -0.161411,0.115296z"/>
      <path id="_114710456" class="fil1" d="M1.70634 0.614898l0.107607 0.12298 0.024359 0.000693829 0.0525023 -0.0852435 0 -0.0845497c0,-0.0564665 -0.0963485,-0.138353 -0.184469,-0.138353l0 0.184472z"/>
      <path id="_114713336" class="fil2" d="M1.81395 0.737878l-0.107607 -0.12298 -0.161411 -0.0691767c-0.0114688,0.0164906 -0.015373,0.0253867 -0.015373,0.0538037l0 0.0461153c0,0.0652125 0.0925981,0.146042 0.169096,0.146042l0.015373 0c0.0341964,0 0.0771651,-0.0187034 0.0999227,-0.030746l0 -0.0230576z"/>
      <polygon id="_114713432" class="fil3" points="1.52956,1.09144 2.4596,1.09144 2.4596,0.891601 1.52956,0.891601 "/>
      <path id="_114711848" class="fil4" d="M1.52956 0.891601l0.930035 0 0 0.199842 -0.930035 0 0 -0.199842zm0.284391 -0.153723l0 0.0230576c-0.0227576,0.0120426 -0.0657263,0.030746 -0.0999227,0.030746l-0.015373 0c-0.0764975,0 -0.169096,-0.0808292 -0.169096,-0.146042l0 -0.0461153c0,-0.028417 0.0039042,-0.037313 0.015373,-0.0538037 0.00508183,-0.0611582 0.0907229,-0.115296 0.161411,-0.115296 0.0881201,0 0.184469,0.0818869 0.184469,0.138353l0 0.0845497 -0.0525023 0.0852435 -0.024359 -0.000693829zm-0.407372 0.430429l1.14525 0 0 -0.807055 -1.14525 0 0 0.807055z"/>
      <path id="_114701168" class="fil5" d="M1.40658 0.361253l1.14525 0 0 0.807055 -1.14525 0 0 -0.807055zm0.445802 0.899289l0.299764 0 0.514975 0 0 -0.999212 -1.36046 0 0 0.999212 0.0230576 0 0.522664 0z"/>
      <polygon id="_114711704" class="fil6" points="1.85238,2.45959 1.85238,2.7363 1.85238,3.0668 2.15215,3.0668 2.15215,2.72092 2.15215,2.47496 2.15215,1.26054 1.85238,1.26054 "/>
      <path id="_114713072" class="fil7" d="M3.68939 1.49113l0.222903 0 0 -0.153723 -0.00768838 -0.00768463 -0.00768463 -0.00768838 -0.176784 0 -0.868543 0c-0.013104,0.008776 -0.030746,0.0167344 -0.030746,0.0384306l0 0.12286 0.868543 0.00780464z"/>
      <path id="_114712904" class="fil8" d="M4.35041 1.7294c0.0138578,-0.00928981 0.0135278,-0.015373 0.030746,-0.015373 0.0172182,0 0.0168844,0.0060832 0.0307423,0.015373l0.00154518 -0.0522622 0.0139478 -0.0147054 0.222783 -0.00989738c0.013344,-0.0115888 0.0307423,-0.0164906 0.0307423,-0.0384306l0 -0.0999189c-0.0821869,0 -0.282572,-0.019731 -0.284751,0.0596431l-0.050537 0.00943983 0.0047818 0.146132z"/>
      <path id="_114707720" class="fil9" d="M5.08829 1.78321l0.0230576 -0.00768838c0.00299659,-0.0361616 0.0663638,-0.0672077 0.0922343,-0.0845459l-0.00223901 0.00741085 0.153696 0.046239 0.00363042 -0.0078984 0.00632322 0.0311098c0.0226676,0.0052656 0.0384344,0.0114388 0.0384344,0.0384306 0,0.0252066 -0.0154968,0.028837 -0.0384344,0.030746 -0.0162169,0.0696605 -0.0622459,0.0749561 -0.0768613,0.115292l0.0999227 0 0.015373 0 0.00768463 -0.0845497 0 -0.0922343c0,-0.0903291 -0.0438463,-0.192153 -0.130665,-0.192153l-0.046119 0c-0.017672,0 -0.111358,0.031016 -0.121919,0.0471766 -0.0193072,0.0295346 -0.024119,0.102796 -0.024119,0.152665z"/>
      <path id="_114695096" class="fil10" d="M4.35041 1.7294c-0.00238902,0.00901603 -0.00768463,0.0209386 -0.00768463,0.0230576 0,0.017612 0.00259905,0.00892602 0.00807842,0.0291708l0.0380368 0.00925981c0,0.13236 0.0852435,0.106396 0.0999227,0.161411l0.0337689 0.048448 0.035404 -0.048448c0.0114088,-0.0427286 0.0999227,-0.0527123 0.0999227,-0.130665l0 -0.0538037c0.0173982,-0.00466178 0.030746,-0.00738459 0.030746,-0.030746 0,-0.0195472 -0.0261142,-0.0354341 -0.0384306,-0.0538037l0 -0.030746 -0.222783 0.00989738 -0.0139478 0.0147054 -0.00154518 0.0522622c-0.0138578,-0.00928981 -0.013524,-0.015373 -0.0307423,-0.015373 -0.0172182,0 -0.0168882,0.0060832 -0.030746,0.015373z"/>
      <path id="_114710696" class="fil11" d="M5.08829 1.78321c-0.00559939,0.0240553 -0.00723083,0.176784 0.030746,0.176784l0.0768613 0c0,0.0324375 0.000150017,0.0922343 0.030746,0.0922343l0.015373 0c0.0290171,0 0.0384306,-0.0604307 0.0384306,-0.0916005l0.12298 -0.0083222 -0.015373 0 -0.0999227 0c0.0146154,-0.0403359 0.0606444,-0.0456315 0.0768613,-0.115292 0.0229376,-0.00190897 0.0384344,-0.00553938 0.0384344,-0.030746 0,-0.0269918 -0.0157668,-0.033165 -0.0384344,-0.0384306l-0.00632322 -0.0311098 -0.00363042 0.0078984 -0.153696 -0.046239 0.00223901 -0.00741085c-0.0258705,0.0173382 -0.0892377,0.0483843 -0.0922343,0.0845459l-0.0230576 0.00768838z"/>
      <path id="_114711752" class="fil12" d="M0.960777 1.91387c0.017252,-0.00402421 0.017672,-0.00768463 0.0384344,-0.00768463 0.0172182,0 0.0168844,0.00607945 0.0307423,0.0153693 0,-0.0843359 0.00941358,-0.0615183 0.0999227,-0.0614883 0.0574941,3.00034e-005 0.10676,0.00326662 0.153723,-0.00768463 0.0105912,-0.0158268 0.0230614,-0.0199448 0.0230614,-0.0384344l0 -0.0999189 -0.230588 0c-0.0833083,0 -0.0134978,0.0538037 -0.0983775,0.0553451l-0.0169182 0.0138316 0 0.130665z"/>
      <polygon id="_115339040" class="fil13" points="3.14367,2.15983 3.22822,2.15983 3.22822,1.96767 3.14367,1.96767 "/>
      <polygon id="_114710960" class="fil7" points="3.02069,2.15983 3.11292,2.15983 3.11292,1.90619 3.02069,1.90619 "/>
      <path id="_114712064" class="fil4" d="M3.14367 1.96767l0.0845497 0 0 0.192157 -0.0845497 0 0 -0.192157zm-0.12298 -0.0614883l0.0922343 0 0 0.253645 -0.0922343 0 0 -0.253645zm0.0845497 0.315134l0.807055 0 0 -0.699447 -0.230588 0 -0.868547 0.00768838 0 0.676386 0.300432 0.000393795 -0.00835221 0.0149792z"/>
      <path id="_115338968" class="fil14" d="M0.960777 1.91387c-0.00402421,0.0172482 -0.00768463,0.017672 -0.00768463,0.0384306 0,0.0295946 0.0259942,0.028777 0.046119,0.0384306 0,0.0866687 0.0274156,0.115809 0.0845459,0.146038l0 0.030746c0.00596318,0.0255404 0.0157668,0.046119 0.046119,0.046119 0.028837,0 0.0360079,-0.0193072 0.0461153,-0.0384306l0 -0.030746c0.133392,-0.0310798 0.107607,-0.135083 0.107607,-0.292076 -0.0469629,0.0109513 -0.0962285,0.00771463 -0.153723,0.00768463 -0.0905091,-3.00034e-005 -0.0999227,-0.0228476 -0.0999227,0.0614883 -0.0138578,-0.00928981 -0.013524,-0.0153693 -0.0307423,-0.0153693 -0.0207624,0 -0.0211824,0.00366042 -0.0384344,0.00768463z"/>
      <path id="_114711656" class="fil2" d="M4.41958 2.42116l-0.0230576 -0.0845459 0.258637 0.00235902 -0.0511108 0.0975599 0.0303522 0.000273781 0.0388244 0.0535299c0.00816843,-0.035134 0.0525623,-0.117411 0.0695104,-0.161077 0.00949984,-0.0245428 0.0227238,-0.166767 0.0227238,-0.20786l0 -0.0230614c0,-0.0995889 -0.119954,-0.188069 -0.20753,-0.146038l-0.035404 0.048448 -0.0337689 -0.048448c-0.0718995,-0.0344964 -0.148795,0.0581316 -0.176026,0.100013l-0.00844597 0.0921443 0 0.0230576c0,0.0738684 0.0600406,0.203566 0.0624896,0.271741l0.052806 -0.0180958z"/>
      <path id="_114699704" class="fil7" d="M2.81316 2.35967l0 0.015373 0.00768838 0.0153693 0.00768463 0.00768838 0.399687 0 0.284388 0 0.384314 0 0.00768463 -0.00768838 0.00768838 -0.00768463 0 -0.130665 -0.860858 0c-0.024059,0.00199523 -0.0272956,0.00768463 -0.0538037,0.00768463l-0.176784 0 0 0.076865c0,0.0293809 0.00235902,0.00278282 -0.00768838,0.0230576z"/>
      <path id="_115338776" class="fil15" d="M1.86007 0.00768463l-0.0614883 0.00768463 -0.046119 0.00768838 -0.0384306 0.00768463 -0.0384306 0.00768838 -0.030746 0.00768463 -0.0384306 0.00768838 -0.0230576 0.00768463 -0.030746 0.00768463 -0.0230576 0.00768838 -0.030746 0.00768463 -0.0230576 0.00768838 -0.0230576 0.00768463 -0.0230576 0.00768838 -0.015373 0.00768463 -0.0230614 0.00768463 -0.0230576 0.00768838 -0.015373 0.00768463 -0.015373 0.00768838 -0.0230576 0.00768463 -0.015373 0.00768838 -0.015373 0.00768463 -0.0153693 0.00768463 -0.015373 0.00768838 -0.015373 0.00768463 -0.015373 0.00768838 -0.015373 0.00768463 -0.015373 0.00768838 -0.015373 0.00768463 -0.0153693 0.00768463 -0.015373 0.00768838 -0.00768838 0.00768463 -0.015373 0.00768838 -0.0153693 0.00768463 -0.00768838 0.00768838 -0.015373 0.00768463 -0.00768463 0.00768463 -0.015373 0.00768838 -0.00768463 0.00768463 -0.015373 0.00768838 -0.00768838 0.00768463 -0.015373 0.00768838 -0.00768463 0.00768463 -0.00768463 0.00768463 -0.015373 0.00768838 -0.00768838 0.00768463 -0.00768463 0.00768838 -0.015373 0.00768463 -0.00768463 0.00768463 -0.00768838 0.00768838 -0.00768463 0.00768463 -0.015373 0.00768838 -0.00768838 0.00768463 -0.00768463 0.00768838 -0.00768463 0.00768463 -0.00768838 0.00768463 -0.00768463 0.00768838 -0.00768838 0.00768463 -0.00768463 0.00768838 -0.00768838 0.00768463 -0.00768463 0.00768838 -0.00768463 0.00768463 -0.00768838 0.00768463 -0.00768463 0.00768838 -0.00768838 0.00768463 -0.00768463 0.00768838 -0.00768838 0.00768463 -0.00768463 0.00768838 -0.00768463 0.00768463 -0.00768838 0.00768463 -0.00768463 0.00768838 -0.00768838 0.00768463 -0.00768463 0.015373 -0.00768838 0.00768838 -0.00768463 0.00768463 -0.00768463 0.00768463 -0.00768838 0.015373 -0.00768463 0.00768838 -0.00768838 0.00768463 -0.00768463 0.015373 -0.00768838 0.00768463 -0.00768463 0.015373 -0.00768463 0.00768838 -0.00768838 0.015373 -0.00768463 0.00768463 -0.00768838 0.015373 -0.00768463 0.00768463 -0.00768838 0.015373 -0.00768463 0.015373 -0.00768463 0.015373 -0.00768838 0.015373 -0.00768463 0.015373 -0.00768838 0.0153693 -0.00768463 0.015373 -0.00768838 0.015373 -0.00768463 0.015373 -0.00768463 0.0230576 -0.00768838 0.015373 -0.00768463 0.0230576 -0.00768838 0.0230614 -0.00768463 0.0230576 -0.00768838 0.030746 -0.00768463 0.0307423 -0.00768463 0.0384344 -0.00768838 0.0538037 0 0.245957 0.00768838 0.0538037 0.00768463 0.0384306 0.00768463 0.030746 0.00768838 0.030746 0.00768463 0.0230576 0.00768838 0.0230576 0.00768463 0.0230614 0.00768838 0.0153693 0.00768463 0.0230614 0.00768463 0.015373 0.00768838 0.0153693 0.00768463 0.015373 0.00768838 0.015373 0.00768463 0.015373 0.00768838 0.015373 0.00768463 0.015373 0.00768463 0.015373 0.00768838 0.0153693 0.00768463 0.00768838 0.00768838 0.015373 0.00768463 0.00768463 0.00768838 0.015373 0.00768463 0.00768463 0.00768463 0.015373 0.00768838 0.00768838 0.00768463 0.015373 0.00768838 0.00768463 0.00768463 0.00768463 0.00768838 0.015373 0.00768463 0.00768838 0.00768463 0.00768463 0.00768838 0.00768838 0.00768463 0.0153693 0.00768838 0.00768838 0.00768463 0.00768463 0.00768838 0.00768838 0.00768463 0.00768463 0.00768463 0.00768838 0.00768838 0.00768463 0.00768463 0.00768463 0.00768838 0.00768838 0.00768463 0.00768463 0.00768838 0.00768838 0.00768463 0.00768463 0.00768463 0.00768838 0.00768838 0.00768463 0.00768463 0.00768463 0.00768838 0.00768838 0.00768463 0.00768463 0.00768838 0.00768838 0.00768463 0.00768463 0.00768463 0.00768838 0.00768838 0.00768463 0.015373 0.00768463 0.00768463 0.00768838 0.00768838 0.00768463 0.00768463 0.00768838 0.015373 0.00768463 0.00768463 0.00768838 0.00768838 0.00768463 0.015373 0.00768463 0.00768463 0.00768838 0.00768463 0.00768463 0.015373 0.00768838 0.00768838 0.00768463 0.0461153 0 0 -0.030746c-0.0571303,-0.0302285 -0.0845459,-0.0593693 -0.0845459,-0.146038 -0.0201248,-0.0096536 -0.046119,-0.00883601 -0.046119,-0.0384306 0,-0.0207586 0.00366042,-0.0211824 0.00768463,-0.0384306l0 -0.130665 0.0169182 -0.0138316c0.0848797,-0.00154143 0.0150692,-0.0553451 0.0983775,-0.0553451l0.230588 0 0 0.0999189c0,0.0184896 -0.0124702,0.0226076 -0.0230614,0.0384344 0,0.156993 0.0257842,0.260996 -0.107607,0.292076l0 0.030746c0.0689966,0.0160668 0.10086,0.144253 0.20753,0.169096l0.00768463 0.00768463 0.00768838 0 0.015373 0.00768838 0.00768463 0 0.00768838 0.00768463 0.00768463 0 0.015373 0.00768838 0.0230576 0.00768463 0.00768463 0 0.015373 0.00768463 0.0223038 -0.00157143 0.0559827 -0.0209424 -0.00910979 0.0225138 0.0646986 0.00535936 -0.0258142 0.0160368 0.0302922 0.00934982 0.00768463 0.00768838 0.030746 0.00768463 0.0384306 0.00768463 0.0384306 0.00768838 0.046119 0.00768463 0.0538037 0 0 -1.19905 -0.522664 0 -0.0230576 0 0 -0.999212 1.36046 0 0 0.999212 -0.514975 0 0 1.21442 0.146038 0 0.0691767 -0.00768463 0.0614883 -0.00768838 0.046119 -0.00768463 0.0384306 -0.00768838 0.0384306 -0.00768463 0.030746 -0.00768463 0.0384306 -0.00768838 0.0230576 -0.00768463 0.030746 -0.00768838 0.0230576 -0.00768463 0.030746 -0.00768838 0.0230576 -0.00768463 0.0230576 -0.00768463 0.0230614 -0.00768838 0.0153693 -0.00768463c0.0100474,-0.0202748 0.00768838,0.00632322 0.00768838,-0.0230576l0 -0.076865 0.176784 0c0.026508,0 0.0297447,-0.0056894 0.0538037,-0.00768463l0.015373 -0.00768838 0.0153693 -0.00768463 0.00768838 -0.00768463 0.015373 -0.00768838 0.00835221 -0.0149792 -0.300432 -0.000393795 0 -0.676386 0.868547 -0.00768838 0.00768463 -0.00768463 0 -0.0230614 -0.868543 -0.00780464 0 -0.12286c0,-0.0216962 0.017642,-0.0296546 0.030746,-0.0384306l0.868543 0 0 -0.207526 -0.00768838 -0.0538037 -0.00768463 -0.0384344 -0.00768463 -0.0307423 -0.00768838 -0.030746 -0.00768463 -0.0230576 -0.00768838 -0.0230614 -0.00768463 -0.0230576 -0.00768838 -0.015373 -0.00768463 -0.0230576 -0.00768463 -0.015373 -0.00768838 -0.015373 -0.00768463 -0.015373 -0.00768838 -0.0153693 -0.00768463 -0.015373 -0.00768838 -0.015373 -0.00768463 -0.015373 -0.00768463 -0.015373 -0.00768838 -0.015373 -0.00768463 -0.00768463 -0.00768838 -0.015373 -0.00768463 -0.00768463 -0.00768838 -0.015373 -0.00768463 -0.00768838 -0.00768463 -0.015373 -0.00768838 -0.00768463 -0.00768463 -0.015373 -0.00768838 -0.00768463 -0.00768463 -0.00768838 -0.00768838 -0.015373 -0.00768463 -0.00768463 -0.00768463 -0.00768463 -0.00768838 -0.00768838 -0.00768463 -0.015373 -0.00768838 -0.00768463 -0.00768463 -0.00768838 -0.00768463 -0.00768463 -0.00768838 -0.00768463 -0.00768463 -0.00768838 -0.00768838 -0.00768463 -0.00768463 -0.00768838 -0.00768838 -0.00768463 -0.00768463 -0.00768838 -0.00768463 -0.00768463 -0.00768838 -0.00768463 -0.00768463 -0.00768838 -0.00768838 -0.00768463 -0.00768463 -0.00768838 -0.00768838 -0.00768463 -0.00768463 -0.00768838 -0.00768463 -0.00768463 -0.00768838 -0.00768463 -0.00768463 -0.00768838 -0.00768838 -0.00768463 -0.015373 -0.00768838 -0.00768463 -0.00768463 -0.00768463 -0.00768838 -0.00768838 -0.00768463 -0.015373 -0.00768463 -0.00768463 -0.00768838 -0.00768838 -0.00768463 -0.0153693 -0.00768838 -0.00768838 -0.00768463 -0.00768463 -0.00768463 -0.015373 -0.00768838 -0.00768838 -0.00768463 -0.0153693 -0.00768838 -0.00768838 -0.00768463 -0.015373 -0.00768838 -0.00768463 -0.00768463 -0.015373 -0.00768463 -0.00768463 -0.00768838 -0.015373 -0.00768463 -0.015373 -0.00768838 -0.00768838 -0.00768463 -0.0153693 -0.00768838 -0.015373 -0.00768463 -0.015373 -0.00768463 -0.015373 -0.00768838 -0.015373 -0.00768463 -0.015373 -0.00768838 -0.015373 -0.00768463 -0.0153693 -0.00768838 -0.015373 -0.00768463 -0.015373 -0.00768463 -0.015373 -0.00768838 -0.0230576 -0.00768463 -0.015373 -0.00768838 -0.015373 -0.00768463 -0.0230576 -0.00768838 -0.0230614 -0.00768463 -0.0153693 -0.00768463 -0.0230614 -0.00768838 -0.0230576 -0.00768463 -0.0230576 -0.00768838 -0.030746 -0.00768463 -0.0230576 -0.00768838 -0.030746 -0.00768463 -0.0230576 -0.00768463 -0.0384306 -0.00768838 -0.030746 -0.00768463 -0.0384306 -0.00768838 -0.0384306 -0.00768463 -0.046119 -0.00768838 -0.0614883 -0.00768463 -0.0691767 -0.00768463 -0.368941 0 -0.0691767 0.00768463z"/>
      <path id="_114698864" class="fil10" d="M0.991523 2.1752l-0.0230576 0.00768463 -0.0230576 0.00768463 -0.0230614 0.00768838 -0.015373 0.00768463 -0.0230576 0.00768838 -0.015373 0.00768463 -0.015373 0.00768838 -0.00768463 0.00768463 -0.00768463 0.00768463 -0.00768838 0.00768838 -0.00768463 0.00768463 -0.00768838 0.00768838 -0.00768463 0.00768463 -0.00768838 0.00768838 -0.00768463 0.00768463 -0.00768463 0.00768463 -0.00768838 0.015373 -0.00768463 0.00768838 -0.00768838 0.015373 -0.00768463 0.00768463 -0.00768838 0.015373 -0.00768463 0.00768463 0 0.015373 -0.0230576 0 -0.00768838 0.00768463 -0.00768463 0.00768838 -0.00768838 0.00768463 -0.0153693 0.00768838 -0.00768838 0.00768463 -0.00768463 0.00768838 0 0.0614883 0.00768463 0.015373 0.00768838 0.00768463 0.0230576 0.00768838 0.00768463 0.00768463 0.0230614 0 0.00768463 -0.015373 0.00768463 -0.00768463 0.00768838 0 0.0230576 0 0.00768838 -0.00768838 0.00768463 -0.0384306 0.00768463 -0.0307423 0.00768838 -0.015373 0.00768463 -0.015373 0.00768838 -0.00768838 0.00768463 -0.0153693 0.00768838 -0.00768838 0.00768463 -0.00768463 0.00768463 -0.015373 0.00768838 -0.00768463 0.00768463 -0.00768838 0.00768838 -0.00768463 0.00768463 -0.00768838 0.015373 -0.00768463 0.015373 -0.00768838 0.015373 -0.00768463 0.015373 -0.00768463 0.0153693 -0.00768838 0.0165244 -0.00729083 -0.00883601 0.0149792 -0.00768838 0.0384306 0 0.230584 0.29208 0 0.00768463 -0.192153 0.00768838 0.00768463 0.00768463 0.00768838 0.00768463 0.00768463 0.015373 0.00768463 0.00768838 0.00768838 0.00768463 0.00768463 0.015373 0.00768838 0.00768463 0.00768463 0.015373 0.00768838 0.0230614 0.00768463 0.0153693 0.00768463 0.0230614 0.00768838 0.0230576 0.00768463 0.0384306 0.00768838 0.0384306 0.00768463 0.015373 0.00768838 0.030746 0.00768463 0.0461153 0 0 -0.0230576 0.0230614 0 0.00768463 -0.0230614 0 -0.0230576 -0.0302922 -0.00934982 0.0258142 -0.0160368 -0.0646986 -0.00535936 0.00910979 -0.0225138 -0.0559827 0.0209424 -0.0223038 0.00157143 -0.015373 -0.00768463 -0.00768463 0 -0.0230576 -0.00768463 -0.015373 -0.00768838 -0.00768463 0 -0.00768838 -0.00768463 -0.00768463 0 -0.015373 -0.00768838 -0.00768838 0 -0.00768463 -0.00768463c-0.10667,-0.0248428 -0.138533,-0.153029 -0.20753,-0.169096 -0.0101074,0.0191234 -0.0172782,0.0384306 -0.0461153,0.0384306 -0.0303522,0 -0.0401558,-0.0205786 -0.046119,-0.046119l-0.0461153 0 -0.015373 0 -0.030746 0.00768838z"/>
      <path id="_114700136" class="fil8" d="M5.24201 2.71324l0.0153693 0 0.076865 0 0.0461153 0 0 -0.0384306 -0.00726083 -0.146612 -0.00811218 0.000573816c-0.0008776,-0.0125864 0.00342039,-0.0124064 0.00768838,-0.030746l-0.015373 0c0.00199523,-0.0240553 0.0052656,-0.0461153 0.030746,-0.0461153l0.0538037 0c0.00323662,-0.14495 0.0438763,-0.125493 -0.00299659,-0.281395 -0.0148892,-0.0495057 -0.028777,-0.0831283 -0.0420648,-0.127035 -0.0196973,-0.0652125 -0.0189397,-0.068119 -0.102612,-0.0664839l0.02212 0.0214262 0.000453802 0.0443001 -0.0969861 0.108999 -0.0562864 -0.0999489 0.00605319 -0.0282332 -0.011195 -0.0238152 0.0295946 -0.026358 -0.0612183 0.00968361c-0.00238902,0.00901603 -0.00768463,0.0209386 -0.00768463,0.0230576 0,0.224234 0.0273256,0.247202 -0.0612783,0.414632l0.024479 0.0166144 0.0368292 0.267837 0.12295 0.00804842z"/>
      <polygon id="_115338800" class="fil2" points="3.36657,2.89002 3.56641,2.89002 3.56641,2.75167 3.36657,2.75167 "/>
      <path id="_114712520" class="fil16" d="M3.36657 2.75167l0.199842 0 0 0.13835 -0.199842 0 0 -0.13835zm-0.26133 -0.261334l-0.015373 0.00768463 -0.00768838 0.00768838 -0.00768463 0.00768463 0 0.199842 0.00768463 0.222903 -0.0691729 0c-0.0157368,0.0105312 -0.0538037,0.0465091 -0.0538037,0.0691767l0 0.00768463c0,0.026328 0.0406396,0.0691767 0.0768613,0.0691767l0.661017 0c0.0479605,0 0.0845459,-0.022 0.0845459,-0.0691767l0 -0.0230576c0,-0.0215462 -0.0320137,-0.0443638 -0.0461153,-0.0538037l-0.0863049 6.00069e-005 0.0017552 -0.215275 0 -0.20753 -0.00768463 -0.00768463 -0.00768838 -0.00768838 -0.015373 -0.00768463 -0.107607 0 0 -0.0922343 -0.284388 0 0 0.0922343 -0.12298 0z"/>
      <path id="_114712328" class="fil17" d="M4.50413 2.65175l0.00768838 0.00768463 0.00768463 0.12298 -0.0307423 0 0.000393795 -0.139501 0.0149755 0.00883601zm-0.0845459 -0.230588l0.030746 0.046119c-0.0381006,0.0126464 0,-0.0056894 0,0.0307423l0 0.00768838c0,0.0207586 -0.00366417,0.0211824 -0.00799216,0.0393683l-0.0300184 -0.00862224 -0.00810843 0.222899 0 0.015373 0 0.176784 0.015373 0 0 0.0768613 0.26133 0c-0.00632322,-0.0236352 -0.0149492,-0.030746 -0.0461153,-0.030746l-0.00768838 0c-0.026508,0 -0.0297447,0.0056894 -0.0538037,0.00768838l0.000547563 -0.0446976 0.0219963 -0.00910604 0.00820219 -0.161411 0 -0.0845497 0 -0.269018 0.0511108 -0.0975599 -0.258637 -0.00235902 0.0230576 0.0845459z"/>
      <polygon id="_115338656" class="fil18" points="0.245961,1.42964 0.230588,1.43732 0.215215,1.44501 0.20753,1.45269 0.199842,1.46038 0.184469,1.46807 0.176784,1.47576 0.169096,1.48344 0.161411,1.49113 0.153726,1.49881 0.146038,1.51419 0.138353,1.52187 0.130665,1.53724 0.12298,1.54493 0.115292,1.5603 0.107607,1.58336 0.0999227,1.59873 0.0922343,1.62948 0.0922343,1.78321 0.0999227,1.81395 0.107607,1.82932 0.115292,1.85238 0.12298,1.86775 0.130665,1.87544 0.138353,1.89081 0.146038,1.8985 0.153726,1.91387 0.161411,1.92155 0.169096,1.92924 0.153726,1.93693 0.146038,1.94462 0.130665,1.9523 0.115292,1.95999 0.0999227,1.96767 0.0922343,1.97536 0.0922343,1.99073 0.0768613,1.99073 0.0691767,1.99842 0.0614883,2.0061 0.0614883,2.02148 0.046119,2.02148 0.0384306,2.03685 0.0384306,2.05222 0.0230576,2.05222 0.015373,2.0676 0.00768463,2.09065 0,2.11371 0,2.26744 0.00768463,2.2905 0.015373,2.31355 0.0230576,2.32893 0.0384306,2.32893 0.0384306,2.3443 0.046119,2.35967 0.0614883,2.35967 0.0614883,2.37505 0.0691767,2.38273 0.0768613,2.39041 0.0922343,2.39041 0.0922343,2.40579 0.0999227,2.41348 0.115292,2.42116 0.130665,2.42885 0.146038,2.43653 0.153726,2.44422 0.176784,2.45191 0.184469,2.45959 0.215215,2.46728 0.245961,2.47496 0.299764,2.47496 0.299764,2.9592 0.299764,3.04375 0.376626,3.04375 0.376626,2.92845 0.376626,2.47496 0.415056,2.47496 0.445802,2.46728 0.476544,2.45959 0.484233,2.45191 0.507291,2.44422 0.514979,2.43653 0.530348,2.42885 0.545721,2.42116 0.561094,2.41348 0.568783,2.40579 0.568783,2.39041 0.584152,2.39041 0.59184,2.38273 0.599525,2.37505 0.599525,2.35967 0.614898,2.35967 0.622586,2.3443 0.622586,2.32893 0.637955,2.32893 0.645644,2.31355 0.653328,2.2905 0.661017,2.26744 0.661017,2.11371 0.653328,2.09065 0.645644,2.0676 0.637955,2.05222 0.622586,2.05222 0.622586,2.03685 0.614898,2.02148 0.599525,2.02148 0.599525,2.0061 0.59184,1.99842 0.584152,1.99073 0.568783,1.99073 0.568783,1.97536 0.561094,1.96767 0.545721,1.95999 0.530348,1.9523 0.514979,1.94462 0.507291,1.93693 0.491918,1.92924 0.499606,1.92155 0.507291,1.91387 0.514979,1.8985 0.522664,1.89081 0.530348,1.87544 0.538037,1.86775 0.545721,1.85238 0.55341,1.82932 0.561094,1.81395 0.568783,1.78321 0.568783,1.62948 0.561094,1.59873 0.55341,1.58336 0.545721,1.5603 0.538037,1.54493 0.530348,1.53724 0.522664,1.52187 0.514979,1.51419 0.507291,1.49881 0.499606,1.49113 0.491918,1.48344 0.484233,1.47576 0.476544,1.46807 0.461175,1.46038 0.453487,1.45269 0.445802,1.44501 0.430429,1.43732 0.415056,1.42964 0.391999,1.42195 0.269018,1.42195 "/>
      <path id="_114711920" class="fil17" d="M0.960777 2.59026l0.00768838 0.0230576 0.00768463 0.015373 0.00768838 0.00768463 0.00768463 0.00768838 0.00768838 0.0153693 0.00768463 0.00768838 0.015373 0.00768463 0.00768463 0.00768838 0.015373 0.00768463 0.0162206 3.00034e-005 -0.00853223 0.0691467 0 0.0538037c-0.0026628,0.11932 -0.104161,0.218845 -0.18559,0.262271l0.0151292 0.0201811 -0.0622759 0.0495994 0.0866049 0.11941 0.00777839 -0.0056594 0 -0.030746c0,-0.0346802 -0.0183096,-0.0540774 -0.0494457,-0.0640011l0.026388 -0.0359179c0.0537736,0.0113751 0.128666,-0.0735647 0.163286,-0.11342 0.0732909,-0.0843659 0.0450577,-0.138713 0.0826707,-0.21709l0.000213774 -0.0318336 0.0228476 0.008776 0.00768463 0.00768463 0.00768463 0.00768838c0.0709619,0.0475067 0.115296,0.149698 0.115296,0.269018l0 0.130665 0.015373 0 0 0.0691767 0.153723 0c-0.0052056,-0.0194572 -0.0148554,-0.0384306 -0.0384306,-0.0384306l-0.0384306 0c-0.0207586,0 -0.0211824,0.00366042 -0.0384306,0.00768463l0 -0.0384306c0.0171282,-0.00456802 0.0230576,-0.0017852 0.0230576,-0.0230576l0 -0.076865c0,-0.0603369 -0.00768463,-0.119196 -0.0183058,-0.173847 -0.0139516,-0.0717795 -0.0558626,-0.0947171 -0.0662438,-0.133602l0 -0.00768463 -0.00768463 -0.015373 -0.00768463 -0.00768463 -0.00768838 -0.00768838 -0.00768463 -0.00768463 -0.00768838 -0.00768838 -0.00768463 -0.00768463 -0.00768838 -0.00768838 -0.00768463 -0.00768463 -0.00768463 -0.00768463 -0.00768838 -0.00768838 -0.00768463 -0.00768463 0 -0.00768838 0.00768463 -0.00768463 0.00768838 -0.00768838 0.00768463 -0.00768463 0.00768463 -0.00768463 0.00768838 -0.015373 0.00768463 -0.00768838 0.00768838 -0.0230576 0 -0.046119 -0.29208 0 0 0.0384344z"/>
      <path id="_114706976" class="fil15" d="M5.08829 1.78321c0,-0.0498695 0.0048118,-0.12313 0.024119,-0.152665 0.0105612,-0.0161606 0.104247,-0.0471766 0.121919,-0.0471766l0.046119 0c0.0868187,0 0.130665,0.101824 0.130665,0.192153l0 0.0922343 -0.00768463 0.0845497 -0.12298 0.0083222c0,0.0311698 -0.00941358,0.0916005 -0.0384306,0.0916005l-0.015373 0c-0.030596,0 -0.030746,-0.0597968 -0.030746,-0.0922343l-0.0768613 0c-0.0379768,0 -0.0363454,-0.152729 -0.030746,-0.176784zm-0.322822 -1.10682l-0.0384306 0.00768838 -0.0230576 0.00768463 -0.0230614 0.00768463 -0.0230576 0.00768838 -0.0230576 0.00768463 -0.015373 0.00768838 -0.0230576 0.00768463 -0.015373 0.00768838 -0.015373 0.00768463 -0.015373 0.00768463 -0.00768463 0.00768838 -0.015373 0.00768463 -0.015373 0.00768838 -0.00768838 0.00768463 -0.0153693 0.00768838 -0.00768838 0.00768463 -0.015373 0.00768463 -0.00768463 0.00768838 -0.00768463 0.00768463 -0.015373 0.00768838 -0.00768838 0.00768463 -0.00768463 0.00768838 -0.00768838 0.00768463 -0.0153693 0.00768463 -0.00768838 0.00768838 -0.00768463 0.00768463 -0.00768838 0.00768838 -0.00768463 0.00768463 -0.00768838 0.00768838 -0.00768463 0.00768463 -0.00768463 0.00768463 -0.00768838 0.00768838 -0.00768463 0.00768463 -0.00768838 0.00768838 -0.00768463 0.00768463 -0.00768838 0.00768838 -0.00768463 0.0153693 -0.00768463 0.00768838 -0.00768838 0.00768463 -0.00768463 0.00768838 -0.00768838 0.015373 -0.00768463 0.00768463 -0.00768838 0.00768463 -0.00768463 0.015373 -0.00768463 0.00768838 -0.00768838 0.015373 -0.00768463 0.00768463 -0.00768838 0.015373 -0.00768463 0.00768463 -0.00768838 0.015373 -0.00768463 0.015373 -0.00768463 0.00768463 -0.00768838 0.015373 -0.00768463 0.015373 -0.00768838 0.015373 -0.00768463 0.015373 -0.00768838 0.015373 -0.00768463 0.0230576 -0.00768463 0.015373 -0.00768838 0.015373 -0.00768463 0.0230576 -0.00768838 0.0230576 -0.00768463 0.0230614 -0.00768838 0.0230576 -0.00768463 0.0230576 -0.00768463 0.030746 -0.00768838 0.0307423 -0.00768463 0.0384344 -0.00768838 0.0384306 -0.00768463 0.0614883 0 0.284391 0.00768463 0.0614883 0.00768838 0.0384344 0.00768463 0.0384306 0.00768838 0.0307423 0.00768463 0.030746 0.00768463 0.0230576 0.00768838 0.0230614 0.00768463 0.0230576 0.00768838 0.0230576 0.00768463 0.0230614 0.00768838 0.0153693 0.00768463 0.015373 0.00768463 0.0230614 0.00768838 0.0153693 0.00768463 0.015373 0.00768838 0.015373 0.00768463 0.015373 0.00768838 0.015373 0.00768463 0.00768463 0.00768463 0.015373 0.00768838 0.015373 0.00768463 0.00768463 0.00768838 0.015373 0.00768463 0.00768838 0.00768838 0.0153693 0.00768463 0.00768838 0.00768463 0.015373 0.00768838 0.00768463 0.00768463 0.00768838 0.00768838 0.0153693 0.00768463 0.00768838 0.00768838 0.00768463 0.00768463 0.00768838 0.00768463 0.015373 0.00768838 0.00768463 0.00768463 0.00768463 0.00768838 0.00768838 0.00768463 0.00768463 0.00768838 0.00768838 0.00768463 0.00768463 0.00768463 0.00768838 0.00768838 0.00768463 0.00768463 0.00768463 0.00768838 0.00768838 0.00768463 0.00768463 0.00768838 0.00768838 0.00768463 0.184469 0.00810843 -0.222899 0.0300184 0.00862224c0.00432799,-0.0181858 0.00799216,-0.0186096 0.00799216,-0.0393683l0 -0.00768838c0,-0.0364317 -0.0381006,-0.0180958 0,-0.0307423l-0.030746 -0.046119 -0.052806 0.0180958c-0.00244903,-0.0681753 -0.0624896,-0.197873 -0.0624896,-0.271741l0 -0.0230576 0.00844597 -0.0921443c0.0272319,-0.041881 0.104127,-0.134509 0.176026,-0.100013 -0.0146792,-0.055015 -0.0999227,-0.0290508 -0.0999227,-0.161411l-0.0380368 -0.00925981c-0.00547938,-0.0202448 -0.00807842,-0.0115588 -0.00807842,-0.0291708 0,-0.00211899 0.00529561,-0.0140416 0.00768463,-0.0230576l-0.0047818 -0.146132 0.050537 -0.00943983c0.002179,-0.0793741 0.202564,-0.0596431 0.284751,-0.0596431l0 0.0999189c0,0.02194 -0.0173982,0.0268418 -0.0307423,0.0384306l0 0.030746c0.0123164,0.0183696 0.0384306,0.0342564 0.0384306,0.0538037 0,0.0233614 -0.0133478,0.0260842 -0.030746,0.030746l0 0.0538037c0,0.0779527 -0.0885139,0.0879363 -0.0999227,0.130665 0.0875763,-0.0420311 0.20753,0.0464491 0.20753,0.146038l0 0.0230614c0,0.0410934 -0.013224,0.183317 -0.0227238,0.20786 -0.0169482,0.0436662 -0.061342,0.125943 -0.0695104,0.161077l-0.0388244 -0.0535299 -0.0303522 -0.000273781 0 0.269018 0.015373 0.00768463 0.015373 0.00768838 0.0230576 0.00768463 0.0230576 0.00768838 0.0230614 0.00768463 0.0230576 0.00768838 0.0384306 0.00768463 0.0384306 0.00768463 0.222903 0 0.0384306 -0.00768463 0.0384306 -0.00768463 0.0230576 -0.00768838 0.0230576 -0.00768463 0.00768838 0.00768463 0.00768463 0.030746 0.00768838 0.0461153 0.00768463 0.0384344 0.00753461 0.0164306 -0.0305922 -0.008746 -0.046119 -0.00768463 -0.0538037 0 0 -0.015373 -0.0614883 -0.00768838 -0.0538037 -0.00768463 -0.0691767 -0.00768838 -0.0614883 -0.00768463 -0.0691767 0 0 -0.015373 -0.076865 -0.00768463 -0.0614883 0 -0.00820219 0.161411 -0.0219963 0.00910604 -0.000547563 0.0446976c0.024059,-0.00199898 0.0272956,-0.00768838 0.0538037,-0.00768838l0.00768838 0c0.0311661,0 0.0397921,0.00711081 0.0461153,0.030746l-0.26133 0 0 -0.0768613 -0.015373 0 0 -0.176784 -0.00768463 -0.00768838 -0.092238 -0.00768463 -0.00768463 -0.00768463 -0.12298 -0.00768838 -0.130665 -0.00768463 -0.153726 -0.00768838 -0.176784 -0.00768463 -0.0614883 0 -0.0017552 0.215275 0.0863049 -6.00069e-005c0.0141016,0.00943983 0.0461153,0.0322574 0.0461153,0.0538037l0 0.0230576c0,0.0471766 -0.0365854,0.0691767 -0.0845459,0.0691767l-0.661017 0c-0.0362216,0 -0.0768613,-0.0428486 -0.0768613,-0.0691767l0 -0.00768463c0,-0.0226676 0.0380669,-0.0586455 0.0538037,-0.0691767l0.0691729 0 -0.00768463 -0.222903 -0.753251 0 -0.169096 0.00768838 0 0.34588 -0.299764 0 0 -0.330507 -0.0768613 0 -0.130669 0.00768463 -0.122977 0.00768838 -0.00768838 0.00768463 -0.0922343 0.00768463 -0.0922343 0.00768838 -0.046119 0.00768463c0.0103812,0.0388844 0.0522922,0.0618221 0.0662438,0.133602 0.0106212,0.0546512 0.0183058,0.11351 0.0183058,0.173847l0 0.076865c0,0.0212724 -0.00592943,0.0184896 -0.0230576,0.0230576l0 0.0384306c0.0172482,-0.00402421 0.017672,-0.00768463 0.0384306,-0.00768463l0.0384306 0c0.0235752,0 0.033225,0.0189734 0.0384306,0.0384306l-0.153723 0 0 -0.0691767 -0.015373 0 0 -0.130665c0,-0.11932 -0.0443338,-0.221512 -0.115296,-0.269018l-0.0230576 0 -0.015373 0.00768463c-0.0376131,0.0783765 -0.00937982,0.132724 -0.0826707,0.21709 -0.0346202,0.0398558 -0.109513,0.124796 -0.163286,0.11342l-0.026388 0.0359179c0.0311361,0.00992363 0.0494457,0.0293209 0.0494457,0.0640011l0 0.030746 -0.00777839 0.0056594 -0.0866049 -0.11941 0.0622759 -0.0495994 -0.0151292 -0.0201811c0.0814293,-0.0434262 0.182927,-0.142951 0.18559,-0.262271l-0.046119 0 -0.0614883 0.00768463 -0.0691767 0.00768838 -0.0538037 0.00768463 -0.061492 0.00768838 0 0.015373 -0.0538037 0 -0.0461153 0.00768463 -0.046119 0.00768463 -0.0461153 0.00768838 -0.046119 0.00768463 0 0.015373 -0.0384306 0 -0.0384306 0.00768838 -0.0384306 0.00768463 -0.030746 0.00768463 0 0.115296 -0.0768613 0 0 -0.0845497 -0.015373 0 -0.030746 0.00768838 -0.0230576 0.00768463 -0.00768838 0.00768463 -0.0230576 0.00768838 -0.0230576 0.00768463 -0.015373 0.00768838 -0.0230576 0.00768463 -0.015373 0.00768838 -0.00768838 0.00768463 -0.0153693 0.00768463 -0.015373 0.00768838 -0.015373 0.00768463 -0.00768838 0.00768838 -0.0153693 0.00768463 -0.00768838 0.015373 -0.00768463 0.00768463 -0.015373 0.00768838 -0.00768838 0.015373 -0.00768463 0.015373 0 0.0768613 0.00768463 0.015373 0.00768838 0.015373 0.015373 0.00768463 0.00768463 0.00768463 0.00768838 0.015373 0.0153693 0.00768838 0.00768838 0.00768463 0.015373 0.00768838 0.015373 0.00768463 0.0153693 0.00768463 0.00768838 0.00768838 0.015373 0.00768463 0.0230576 0.00768838 0.015373 0.00768463 0.0230576 0.00768838 0.0230576 0.00768463 0.00768838 0.00768463 0.0230576 0.00768838 0.030746 0.00768463 0.0230576 0.00768838 0.030746 0.00768463 0.030746 0.00768463 0.00768463 0.00768838 0.030746 0.00768463 0.0384306 0.00768838 0.0384306 0.00768463 0.0384306 0 0 0.015373 0.046119 0.00768463 0.0461153 0.00768838 0.046119 0.00768463 0.0461153 0.00768838 0.0538037 0 0 0.015373 0.061492 0.00768463 0.0538037 0.00768463 0.0691767 0.00768838 0.0614883 0.00768463 0.0691767 0 0 0.015373 0.0768613 0.00768838 0.0845497 0.00768463 0.0922343 0.00768463 0.0922343 0.00768838 0.0922343 0.00768463 0.00768838 0.00768838 0.122977 0.00768463 0.130669 0.00768838 0.153723 0.00768463 0.176784 0.00768463 0.215215 0.00768838 1.17599 0 0.215215 -0.00768838 0.176784 -0.00768463 0.153726 -0.00768463 0.130665 -0.00768838 0.12298 -0.00768463 0.00768463 -0.00768838 0.092238 -0.00768463 0.0922343 -0.00768838 0.0922343 -0.00768463 0.0845459 -0.00768463 0.076865 -0.00768838 0 -0.015373 0.0691767 0 0.0614883 -0.00768463 0.0691767 -0.00768838 0.0538037 -0.00768463 0.0614883 -0.00768463 0 -0.015373 0.0538037 0 0.046119 -0.00768838 0.0461153 -0.00768463 0.046119 -0.00768838 0.046119 -0.00768463 0 -0.015373 0.0384306 0 0.0384306 -0.00768463 0.0384306 -0.00768838 0.030746 -0.00768463 0.00768463 -0.00768838 0.030746 -0.00768463 0.0307423 -0.00768463 0.0230614 -0.00768838 0.0307423 -0.00768463 0.0230614 -0.00768838 0.00768463 -0.00768463 0.0230576 -0.00768463 0.0230614 -0.00768838 0.015373 -0.00768463 0.0230576 -0.00768838 0.015373 -0.00768463 0.00768463 -0.00768838 0.015373 -0.00768463 0.015373 -0.00768463 0.015373 -0.00768838 0.00768463 -0.00768463 0.015373 -0.00768838 0.00768463 -0.015373 0.00768838 -0.00768463 0.015373 -0.00768463 0.00768463 -0.015373 0.00768838 -0.015373 0 -0.0768613 -0.00768838 -0.015373 -0.00768463 -0.015373 -0.015373 -0.00768838 -0.00768838 -0.00768463 -0.00768463 -0.015373 -0.015373 -0.00768463 -0.00768463 -0.00768838 -0.015373 -0.00768463 -0.015373 -0.00768838 -0.015373 -0.00768463 -0.00768463 -0.00768463 -0.015373 -0.00768838 -0.0230576 -0.00768463 -0.015373 -0.00768838 -0.0230614 -0.00768463 -0.0230576 -0.00768838 -0.00768463 -0.00768463 -0.0230614 -0.00768463 -0.0307423 -0.00768838 -0.0230614 -0.00768463 -0.0307423 -0.00768838 -0.030746 -0.00768463 -0.00768463 -0.00768838 -0.030746 -0.00768463 -0.015373 0 0 -0.015373 -0.00768463 -0.030746 -0.00768838 -0.0153693 -0.00768463 -0.030746 -0.00768838 -0.030746 -0.00768463 -0.0230576 -0.00768463 -0.0230576 -0.00768838 -0.030746 -0.00768463 -0.00768838 -0.076865 0 0 0.030746 0.00768838 0.015373 0.00768463 0.015373 0.00768838 0.0230576 0.00768463 0.015373 0.00768838 0.00768463 0.00768463 0.0230614 0.00768463 0.0230576 0.00768838 0.00768463 0.00768463 0.0230614 -0.0307423 -0.00768838 -0.046119 0 0 -0.0307423 -0.00768463 -0.146042 -0.12295 -0.00804842 -0.0368292 -0.267837 -0.024479 -0.0166144c0.0886039,-0.16743 0.0612783,-0.190398 0.0612783,-0.414632 0,-0.00211899 0.00529561,-0.0140416 0.00768463,-0.0230576l0.0612183 -0.00968361 -0.0295946 0.026358 0.011195 0.0238152 -0.00605319 0.0282332 0.0562864 0.0999489 0.0969861 -0.108999 -0.000453802 -0.0443001 -0.02212 -0.0214262c0.0836721,-0.00163519 0.0829145,0.0012714 0.102612,0.0664839 0.0132878,0.0439063 0.0271756,0.0775289 0.0420648,0.127035 0.0468729,0.155902 0.00623321,0.136444 0.00299659,0.281395l-0.0538037 0c-0.0254804,0 -0.0287508,0.02206 -0.030746,0.0461153l0.015373 0c-0.00426799,0.0183396 -0.00856598,0.0181596 -0.00768838,0.030746l0.00811218 -0.000573816 0.00726083 0.146612 0.00768838 0 0.00768463 -0.0691767 0.00768838 -0.00768463 0.00768463 -0.00768463 0.00768463 -0.00768838 0.015373 -0.00768463 0.00768838 -0.00768838 0.00768463 -0.00768463 0.00768838 -0.00768838 0.00768463 -0.00768463 0.00768463 -0.00768463 0.00768838 -0.00768838 0.00768463 -0.00768463 0.00768838 -0.00768838 0.00768463 -0.00768463 0.00768463 -0.00768838 0.00768838 -0.00768463 0.00768463 -0.00768463 0.00768838 -0.015373 0.00768463 -0.00768838 0.00768838 -0.00768463 0.00768463 -0.00768838 0.00768463 -0.0153693 0.00768838 -0.00768838 0.00768463 -0.00768463 0.00768838 -0.015373 0.00768463 -0.00768838 0.00768838 -0.0153693 0.00768463 -0.00768838 0.00768463 -0.015373 0.00768838 -0.00768463 0.00768463 -0.015373 0.00768838 -0.015373 0.00768463 -0.00768463 0.00768838 -0.015373 0.00768463 -0.015373 0.00768463 -0.015373 0.00768838 -0.015373 0.00768463 -0.0153693 0.00768838 -0.0230614 0.00768463 -0.015373 0.00768838 -0.0153693 0.00768463 -0.0230614 0.00768463 -0.0230576 0.00768838 -0.0230576 0.00768463 -0.0230614 0.00768838 -0.0230576 0.00768463 -0.030746 0.00768838 -0.0307423 0.00768463 -0.0384306 0.00768463 -0.0384344 0.00768838 -0.0614883 0 -0.284391 -0.00768838 -0.0614883 -0.00768463 -0.0384306 -0.00768463 -0.0384344 -0.00768838 -0.0307423 -0.00768463 -0.030746 -0.00768838 -0.0230576 -0.00768463 -0.0230576 -0.00768838 -0.0230614 -0.00768463 -0.0230576 -0.00768463 -0.0230576 -0.00768838 -0.015373 -0.00768463 -0.015373 -0.00768838 -0.0230576 -0.00768463 -0.015373 -0.00768838 -0.015373 -0.00768463 -0.015373 -0.00768463 -0.015373 -0.00768838 -0.015373 -0.00768463 -0.00768463 -0.00768838 -0.015373 -0.00768463 -0.015373 -0.00768838 -0.00768463 -0.00768463 -0.015373 -0.00768463 -0.00768463 -0.00768838 -0.015373 -0.00768463 -0.00768838 -0.00768838 -0.015373 -0.00768463 -0.00768463 -0.00768838 -0.00768463 -0.00768463 -0.015373 -0.00768463 -0.00768838 -0.00768838 -0.00768463 -0.00768463 -0.00768838 -0.00768838 -0.0153693 -0.00768463 -0.00768838 -0.00768838 -0.00768463 -0.00768463 -0.00768838 -0.00768463 -0.00768463 -0.00768838 -0.00768838 -0.00768463 -0.00768463 -0.00768838 -0.00768463 -0.00768463 -0.00768838 -0.00768463 -0.00768463 -0.00768838 -0.00768838 -0.00768463 -0.00768463 -0.00768838 -0.00768838 -0.015373 -0.00768463 -0.00768463 -0.00768463 -0.00768463 -0.00768838 -0.00768838 -0.00768463 -0.015373 -0.00768838 -0.00768463 -0.00768463 -0.00768838 -0.00768838 -0.0153693 -0.00768463 -0.00768838 -0.00768463 -0.015373 -0.00768838 -0.00768463 -0.00768463 -0.015373 -0.00768838 -0.015373 -0.00768463 -0.00768463 -0.00768838 -0.015373 -0.00768463 -0.015373 -0.00768463 -0.015373 -0.00768838 -0.0230576 -0.00768463 -0.015373 -0.00768838 -0.0230576 -0.00768463 -0.0230614 -0.00768838 -0.0230576 -0.00768463 -0.0230576 -0.00768463 -0.0384306 -0.00768838 -0.0384306 -0.00768463 -0.222903 0 -0.0384306 0.00768463z"/>
     </g>
     <ellipse id="_114712592" class="fil19 str0" cx="1.09667" cy="1.94088" rx="0.00654075" ry="0.00579816"/>
     <ellipse id="_114694136" class="fil19 str0" cx="1.19847" cy="1.94088" rx="0.00654075" ry="0.00579816"/>
     <polygon id="_80714624" class="fil20 str1" points="1.15344,1.98813 1.14686,1.99698 1.15857,1.99698 "/>
     <path id="_82541288" class="fil21 str2" d="M1.20671 2.03982c0.000210024,0.0008776 0.000326287,0.0017702 0.000326287,0.00267406 0,0.013509 -0.0243253,0.024464 -0.054325,0.024464 -0.0299997,0 -0.054325,-0.010955 -0.054325,-0.024464 0,-0.000903853 0.000116263,-0.00179646 0.000326287,-0.00267406 0.00295534,0.0122527 0.0260017,0.0217975 0.0539987,0.0217975 0.027997,0 0.0510433,-0.00954484 0.0539987,-0.0217975z"/>
     <circle id="_114713048" class="fil19 str0" cx="4.47764" cy="1.73472" r="0.00585442"/>
     <circle id="_114694952" class="fil19 str0" cx="4.5872" cy="1.73472" r="0.00585442"/>
     <polygon id="_82540472" class="fil22 str3" points="4.53284,1.77654 4.53284,1.78992 4.54622,1.78992 "/>
     <path id="_82541312" class="fil22 str3" d="M4.57954 1.83424c8.62599e-005,0.000870099 0.000135015,0.0017552 0.000135015,0.0026403 0,0.0193222 -0.0203986,0.0349953 -0.0455527,0.0349953 -0.0251541,0 -0.0455527,-0.015673 -0.0455527,-0.0349953 0,-0.000885101 4.87556e-005,-0.0017702 0.000135015,-0.0026403l0.0908354 0z"/>
     <ellipse id="_114694400" class="fil19 str0" cx="5.15903" cy="1.79184" rx="0.00735459" ry="0.0078309"/>
     <ellipse id="_114716072" class="fil19 str0" cx="5.27145" cy="1.79184" rx="0.00735459" ry="0.0078309"/>
     <path id="_114712976" class="fil21 str2" d="M5.2442 1.89096c0.000183771,0.000956359 0.000288783,0.00193522 0.000288783,0.00292158 0,0.012909 -0.0161831,0.0233764 -0.0361391,0.0233764 -0.0199523,0 -0.0361354,-0.0104674 -0.0361354,-0.0233764 0,-0.000986363 0.000105012,-0.00196522 0.000288783,-0.00292158l0.0716969 0z"/>
     <polygon id="_114693656" class="fil21 str2" points="5.21631,1.82402 5.21631,1.8358 5.20663,1.8358 "/>
     <rect id="_114713096" class="fil23" x="3.36273" y="1.68246" width="0.377334" height="0.00949609"/>
     <rect id="_114695240" class="fil23" x="3.36273" y="1.77773" width="0.377334" height="0.00949609"/>
     <rect id="_82541264" class="fil23" x="3.36273" y="1.87299" width="0.377334" height="0.00949609"/>
     <rect id="_114709016" class="fil23" x="3.36273" y="1.96825" width="0.377334" height="0.00949609"/>
     <polygon id="_82540904" class="fil24 str4" points="5.14338,2.70678 5.15362,2.74014 5.16899,2.79779 5.212,3.05575 5.25531,3.05277 5.24201,2.71324 "/>
     <polygon id="_114700760" class="fil24 str4" points="5.25738,2.72861 5.26507,2.75936 5.28813,2.81316 5.30734,2.85543 5.32656,2.91309 5.34966,3.02863 5.38695,3.02644 5.39354,2.95184 5.39573,2.90539 5.38036,2.85928 5.3573,2.77473 5.34193,2.72092 5.33809,2.71708 5.25738,2.71324 "/>
     <g>
      <rect id="_60643392" class="fil19 str0" transform="matrix(0.985657 -0.168764 0.168764 0.985657 5.12859 3.05605)" width="0.128366" height="0.0625159"/>
      <circle id="_114694808" class="fil19 str0" transform="matrix(0.812585 -0.13913 0.13913 0.812585 5.13968 3.08283)" r="0.0420986"/>
     </g>
     <rect id="_114696080" class="fil19 str0" x="5.34037" y="3.02734" width="0.052206" height="0.110386"/>
     <rect id="_114703400" class="fil23" x="2.02978" y="0.457095" width="0.392745" height="0.00840096"/>
     <rect id="_114710576" class="fil23" x="2.02978" y="0.552356" width="0.392745" height="0.00840096"/>
     <rect id="_114694328" class="fil23" x="2.02978" y="0.647617" width="0.392745" height="0.00840096"/>
     <rect id="_114706880" class="fil23" x="2.02978" y="0.742877" width="0.392745" height="0.00840096"/>
     <rect id="_80714888" class="fil25 str5" x="3.13913" y="2.54525" width="0.437037" height="0.0162619"/>
     <rect id="_114704792" class="fil25 str5" x="3.13811" y="2.60013" width="0.437037" height="0.0162619"/>
     <rect id="_114703760" class="fil25 str5" x="3.14217" y="2.65502" width="0.437037" height="0.0162619"/>
     <rect id="_114694016" class="fil26 str6" x="3.14929" y="2.75666" width="0.0426874" height="0.0447201"/>
     <rect id="_114695984" class="fil26 str6" x="3.14885" y="2.8136" width="0.0426874" height="0.0447201"/>
     <rect id="_114706304" class="fil26 str6" x="3.21846" y="2.8136" width="0.0426874" height="0.0447201"/>
     <rect id="_114702728" class="fil21 str2" x="3.21738" y="2.75595" width="0.0426874" height="0.0447201"/>
    </g>
    <polygon id="_114700616" class="fil27 str7" points="4.45033,2.50571 4.44782,2.5268 4.44234,2.54508 4.41232,2.53646 4.39199,2.51589 4.38113,2.50137 4.37389,2.48142 4.36678,2.43926 4.41958,2.42116 4.45033,2.46728 4.43511,2.47201 4.44134,2.4763 4.44814,2.48504 4.44998,2.4923 "/>
    <polygon id="_114705488" class="fil27 str7" points="4.60405,2.43653 4.6344,2.43681 4.67323,2.49034 4.60405,2.55579 "/>
    <polygon id="_114705632" class="fil28 str8" points="0.737878,2.38273 0.801122,2.42534 0.795526,2.44422 0.791682,2.4665 0.783997,2.49802 0.776309,2.50571 0.745563,2.50571 0.737878,2.51339 0.730193,2.52877 0.707132,2.52877 0.699447,2.52108 0.67639,2.51339 0.668701,2.50571 0.661017,2.49034 0.661017,2.42885 0.67639,2.41348 0.691759,2.40579 0.716831,2.38474 0.716831,2.38273 "/>
    <polygon id="_114700016" class="fil28 str8" points="1.50039,2.38884 1.52112,2.38884 1.5771,2.3679 1.57029,2.3906 1.63269,2.39577 1.60687,2.41181 1.63717,2.42116 1.63717,2.44422 1.62948,2.46728 1.60642,2.46728 1.60642,2.49034 1.56031,2.49034 1.52956,2.48265 1.51419,2.47496 1.48836,2.4698 "/>
   </g>
   <polygon id="_117672152" class="fil25" points="4.48876,2.78241 4.5195,2.78241 4.51664,2.93632 4.53351,2.95976 4.53633,3.00102 4.52883,3.01133 4.51664,3.00102 4.49789,2.99164 4.45944,2.99164 4.45851,2.94664 4.49695,2.94664 "/>
  </g>
 </g>
</svg>
