<?xml version="1.0" encoding="UTF-8"?>
<!DOCTYPE svg PUBLIC "-//W3C//DTD SVG 1.1//EN" "http://www.w3.org/Graphics/SVG/1.1/DTD/svg11.dtd">
<!-- Creator: CorelDRAW -->
<svg xmlns="http://www.w3.org/2000/svg" xml:space="preserve" width="7.03271in" height="4.64366in" style="shape-rendering:geometricPrecision; text-rendering:geometricPrecision; image-rendering:optimizeQuality; fill-rule:evenodd; clip-rule:evenodd"
viewBox="0 0 6.92018 4.56935"
 xmlns:xlink="http://www.w3.org/1999/xlink">
 <defs>
  <style type="text/css">
   <![CDATA[
    .fil7 {fill:#010101}
    .fil0 {fill:#0B6AD3}
    .fil1 {fill:#1216D1}
    .fil15 {fill:#424141}
    .fil16 {fill:#4C4B4B}
    .fil8 {fill:#4FBAEC}
    .fil5 {fill:#7EB9FC}
    .fil6 {fill:#A2DBFC}
    .fil12 {fill:#A4C0DF}
    .fil10 {fill:#B4B3B3}
    .fil14 {fill:#CE5778}
    .fil13 {fill:#D0456C}
    .fil11 {fill:#DFD8D8}
    .fil9 {fill:#EFE6E6}
    .fil4 {fill:#F50888}
    .fil2 {fill:#F90D56}
    .fil3 {fill:white}
   ]]>
  </style>
 </defs>
 <g id="Layer_x0020_1">
  <metadata id="CorelCorpID_0Corel-Layer"/>
  <g id="_116906264">
   <polygon id="_116977176" class="fil0" points="1.96411,0.366361 1.94375,0.376538 1.93358,0.396892 1.9234,0.407069 1.9234,0.478304 1.9234,0.702191 2.32029,0.702191 4.27422,0.702191 4.27422,0.407069 4.26405,0.396892 4.25387,0.376538 4.23352,0.366361 4.22334,0.356184 1.97428,0.356184 "/>
   <path id="_116988912" class="fil0" d="M2.60524 1.17032l0 0.0305311c0,0.0245186 0.0365396,0.0610583 0.0610583,0.0610583l0.0305311 0c0.0245186,0 0.0610583,-0.0365396 0.0610583,-0.0610583l0 -0.0305311c0,-0.0245225 -0.0365396,-0.0610621 -0.0610583,-0.0610621l-0.0305311 0c-0.0245186,0 -0.0610583,0.0365396 -0.0610583,0.0610621z"/>
   <path id="_116903960" class="fil0" d="M3.35832 1.17032l0 0.0305311c0,0.0245186 0.0365396,0.0610583 0.0610621,0.0610583l0.0305272 0c0.0245225,0 0.0610621,-0.0365396 0.0610621,-0.0610583l0 -0.0305311c0,-0.0245225 -0.0365396,-0.0610621 -0.0610621,-0.0610621l-0.0305272 0c-0.0245225,0 -0.0610621,0.0365396 -0.0610621,0.0610621z"/>
   <path id="_117218216" class="fil1" d="M5.47508 1.9234l0.111947 0.132297c0.0439119,-0.0117382 0.0712353,-0.0659085 0.0712353,-0.12212l0 -0.020354c0,-0.0959553 -0.0844573,-0.173002 -0.183182,-0.173002l0 0.183179z"/>
   <path id="_116931656" class="fil2" d="M5.31225 1.85216l0.162825 0.0712353 0 -0.183179c-0.0821716,0 -0.147681,0.0469142 -0.162825,0.111943z"/>
   <path id="_116904008" class="fil3" d="M5.58703 2.0557l-0.111947 -0.132297 -0.162825 -0.0712353c-0.0151048,0.0173478 -0.020354,0.0176694 -0.020354,0.0508851l0 0.0407042c0,0.0732807 0.0895477,0.162828 0.162828,0.162828l0.0407042 0c0.0392243,0 0.0807343,-0.0208732 0.0915932,-0.0508851z"/>
   <polygon id="_117217736" class="fil0" points="2.37118,2.13711 2.55436,2.13711 2.55436,1.59775 2.37118,1.59775 "/>
   <polygon id="_116900000" class="fil4" points="2.62559,2.13711 2.80878,2.13711 2.80878,1.73004 2.62559,1.73004 "/>
   <polygon id="_116905712" class="fil5" points="2.89019,2.14729 3.07337,2.14729 3.07337,1.83181 2.89019,1.83181 "/>
   <path id="_117213224" class="fil6" d="M2.89019 1.83181l0.183182 0 0 0.31548 -0.183182 0 0 -0.31548zm-0.264595 -0.101766l0.183182 0 0 0.407069 -0.183182 0 0 -0.407069zm-0.254418 -0.132297l0.183182 0 0 0.539367 -0.183182 0 0 -0.539367zm1.04821 -0.488485l0.0305272 0c0.0245225,0 0.0610621,0.0365396 0.0610621,0.0610621l0 0.0305311c0,0.0245186 -0.0365396,0.0610583 -0.0610621,0.0610583l-0.0305272 0c-0.0245225,0 -0.0610621,-0.0365396 -0.0610621,-0.0610583l0 -0.0305311c0,-0.0245225 0.0365396,-0.0610621 0.0610621,-0.0610621zm-0.75308 0l0.0305311 0c0.0245186,0 0.0610583,0.0365396 0.0610583,0.0610621l0 0.0305311c0,0.0245186 -0.0365396,0.0610583 -0.0610583,0.0610583l-0.0305311 0c-0.0245186,0 -0.0610583,-0.0365396 -0.0610583,-0.0610583l0 -0.0305311c0,-0.0245225 0.0365396,-0.0610621 0.0610583,-0.0610621zm-0.732722 0.793788c0.0065277,0.0279626 0.0203502,0.0413473 0.0203502,0.0610583 0,0.0129431 -0.0304884,0.0318134 -0.0407042,0.0407081l0 0.244241 0.844666 0 1.37386 0 0.142474 0 0 -1.44509 -0.020354 0 -1.83181 0 -0.508836 0 0 0.976963c0.0467942,-0.0313291 0.11519,-0.185383 0.183981,-0.203052l-0.0617013 0.105613 0.0100182 0.00584975 0.0305272 0c0.00653158,0.0272846 0.010177,0.0191918 0.010177,0.0407081 0,0.0640645 -0.142792,0.0547281 -0.152648,0.173005z"/>
   <path id="_116900864" class="fil7" d="M1.3128 1.9234l0.0508851 0.926086 0.111943 -0.020354 0 -0.325657c-0.0123,-0.0183512 -0.020354,-0.0179095 -0.020354,-0.0407081l0 -0.325653 0.203537 0c0.0683917,0 0.199767,-0.10337 0.254418,-0.132297 0.0102158,-0.00889472 0.0407042,-0.027765 0.0407042,-0.0407081 0,-0.019711 -0.0138225,-0.0330957 -0.0203502,-0.0610583l-0.0712391 -0.0508851c-0.0533257,0.0357377 -0.101367,0.12212 -0.19336,0.12212l-0.142753 0.00232441 -0.10934 -0.0148258 -0.0533257 -0.0498817 -0.050765 0.0114981z"/>
   <path id="_116904728" class="fil8" d="M5.81091 2.41188c0.0153062,-0.0176306 0.0320109,-0.0508851 0.0610583,-0.0508851l0.0508851 0c0.0505248,0 0.101689,0.0405454 0.132297,0.0610621l0.183182 -0.010177 0 -0.203537 -0.946436 0 0 0.203537 0.519013 0z"/>
   <path id="_117214256" class="fil9" d="M1.47563 2.82913l0.0102584 0.193356 -8.13542e-005 0.142474 0.132297 0 0.0610583 -0.010177 0.0407081 -0.010177 0.0407081 -0.010177 0.0508812 -0.010177 0.0305311 -0.0101731 0.0305311 -0.010177 0.0305311 -0.010177 0.020354 -0.010177 0.0305272 -0.010177 0.0305311 -0.010177 0.020354 -0.010177 0.020354 -0.010177 0.020354 -0.010177 0.020354 -0.010177 0.0203502 -0.010177 0.020354 -0.010177 0.020354 -0.010177 0.010177 -0.0101731 0.020354 -0.010177 0.020354 -0.010177 0.020354 -0.010177 0.010177 -0.010177 0.0203502 -0.010177 0.010177 -0.010177 0.010177 -0.010177 0.020354 -0.010177 0.010177 -0.010177 0.010177 -0.010177 0.020354 -0.010177 0.010177 -0.010177 0.010177 -0.0101731 0.010177 -0.010177 0.0203502 -0.010177 0.010177 -0.010177 0.010177 -0.010177 0.010177 -0.010177 0.010177 -0.010177 0.010177 -0.010177 0.010177 -0.010177 0.010177 -0.010177 0.010177 -0.010177 0.010177 -0.010177 0.010177 -0.010177 0.010177 -0.010177 0.0101731 -0.0101731 0.010177 -0.010177 0.010177 -0.010177 0.010177 -0.020354 0 -0.010177 -0.519013 0c-0.0233177,-0.0156278 -0.0712353,-0.0442334 -0.0712353,-0.0814123l0 -0.223891 0.793784 0 0.010177 -0.020354 0.010177 -0.0305272 0.010177 -0.020354 0.0101731 -0.020354 0 -0.010177 -0.844666 0 0 -0.244241c-0.0546506,0.0289272 -0.186026,0.132297 -0.254418,0.132297l-0.203537 0 0 0.325653c0,0.0227985 0.00805406,0.0223569 0.020354,0.0407081l0 0.325657z"/>
   <path id="_116900912" class="fil6" d="M5.31225 1.85216c0.0151435,-0.0650291 0.080653,-0.111943 0.162825,-0.111943 0.0987252,0 0.183182,0.0770463 0.183182,0.173002l0 0.020354c0,0.0562119 -0.0273234,0.110382 -0.0712353,0.12212 -0.0108588,0.0300119 -0.0523688,0.0508851 -0.0915932,0.0508851l-0.0407042 0c-0.0732807,0 -0.162828,-0.0895477 -0.162828,-0.162828l0 -0.0407042c0,-0.0332158 0.00524928,-0.0335373 0.020354,-0.0508851zm0.468127 0.641133l0.0305311 -0.0814123 -0.519013 0 0 -0.203537 0.946436 0 0 0.203537 -0.183182 0.010177 0.0508851 0.0712353 0.234064 0 0 -0.824315 -1.17032 0 0 0.824315 0.366361 0 0.244241 0z"/>
   <polygon id="_116918576" class="fil10" points="5.7702,2.59506 5.78038,2.4933 5.53614,2.4933 5.16978,2.4933 5.16978,1.66898 6.3401,1.66898 6.3401,2.4933 6.10604,2.4933 6.09586,2.58489 6.45205,2.58489 6.45205,1.56721 5.06801,1.56721 5.06801,2.58461 "/>
   <path id="_117217928" class="fil0" d="M2.51365 2.65612l0.295126 0 0.600429 0 0.814138 0 0.010177 -0.010177 0.0203502 -0.010177 0.010177 -0.020354 0.010177 -0.010177 0 -0.254418 -0.111943 0 -1.44509 0 -0.793784 0 0 0.223891c0,0.0371789 0.0479176,0.0657845 0.0712353,0.0814123l0.519013 0z"/>
   <path id="_116931944" class="fil11" d="M0.879687 2.46052l0.0972802 0.226134c0.101166,-0.00224305 0.0508812,-0.178092 0.0508812,-0.264595l-0.020354 0 0.00961529 -0.00376554 -0.0482779 -0.123162 -0.0239181 0.000197574 -0.0652267 0.165192z"/>
   <path id="_116903648" class="fil7" d="M5.81091 2.41188l-0.0305311 0.0814123 -0.010177 0.101766c-0.0327315,0.122643 -0.15233,0.0603416 -0.244241,0.234068l0.12212 0.0305272c0.0186301,-0.0352147 0.0954788,-0.193356 0.132297,-0.193356 0.0365009,0 0.0579745,0.0443535 0.0623832,0.0869405l0.222566 -0.0564094 0.0305311 -0.111947 0.010177 -0.0915893 -0.0508851 -0.0712353c-0.0306085,-0.0205167 -0.0817726,-0.0610621 -0.132297,-0.0610621l-0.0508851 0c-0.0290473,0 -0.045752,0.0332545 -0.0610583,0.0508851z"/>
   <polygon id="_117217784" class="fil12" points="2.80878,2.84948 3.40921,2.84948 3.40921,2.65612 2.80878,2.65612 "/>
   <path id="_116912720" class="fil7" d="M0.944913 2.29533l0.0239181 -0.000197574 0.0482779 0.123162 -0.00961529 0.00376554 0.020354 0c0,0.0865027 0.0502846,0.262352 -0.0508812,0.264595l-0.0972802 -0.226134 0.0652267 -0.165192zm0.0218765 0.523623l0.264595 0.0407042 0.0407042 -0.926082c-0.0239181,-0.0452329 -0.0417076,-0.0610583 -0.112703,-0.0611396l0.0216363 -0.171921 0.157017 -0.0823769 0.00528802 0.0101383c-0.0306899,-0.114911 -0.274772,-0.105175 -0.274772,0.0407042l0 0.0610621c0,0.0410258 0.0021617,0.059776 0.0305311,0.0712353l0 0.0508851 -0.0100569 -0.00509045 -0.0306512 0.0763257 -0.0305311 0 0 0.020354 -0.0305311 0c-0.0452717,0 -0.102165,0.0247627 -0.12969,0.0409483l-0.0127842 0.142234c-0.0489171,0.0177081 -0.12212,0.21916 -0.12212,0.295126 0,0.0350946 0.0990429,0.352178 0.112788,0.37882l0.101367 -0.0329717 0.0199124 0.0510439z"/>
   <path id="_116905184" class="fil13" d="M1.27209 1.93358l-0.0407042 0.926082c0.0228373,0.00533064 0.023399,0.010177 0.0508812,0.010177l0.010177 0c0.0376244,0 0.0494014,-0.00516793 0.0712391,-0.0203502l-0.0508851 -0.926086 -0.0407081 0.010177z"/>
   <path id="_117213032" class="fil14" d="M5.52596 2.82913l-0.0748846 0.0814123 0.00364932 0.223887 0.0101731 0.0915932 0.020354 0c0.0319722,-0.04772 0.21916,-0.310351 0.2541,-0.325978 0.123763,-0.0553712 0.350454,-0.0661487 0.437918,-0.142153l-0.111943 -0.0610583 -0.222566 0.0564094c-0.00440862,-0.042587 -0.0258823,-0.0869405 -0.0623832,-0.0869405 -0.0368186,0 -0.113667,0.158141 -0.132297,0.193356l-0.12212 -0.0305272z"/>
   <path id="_116905832" class="fil9" d="M1.14997 0.407069l-0.0407042 0.0101731 -0.0407081 0.010177 -0.0508851 0.010177 -0.0305272 0.010177 -0.0305311 0.010177 -0.0305311 0.010177 -0.020354 0.010177 -0.0305311 0.010177 -0.0305272 0.010177 -0.020354 0.010177 -0.020354 0.010177 -0.020354 0.010177 -0.020354 0.010177 -0.020354 0.0101731 -0.020354 0.010177 -0.0203502 0.010177 -0.010177 0.010177 -0.020354 0.010177 -0.020354 0.010177 -0.020354 0.010177 -0.010177 0.010177 -0.020354 0.010177 -0.010177 0.010177 -0.0101731 0.010177 -0.020354 0.010177 -0.010177 0.010177 -0.010177 0.010177 -0.020354 0.0101731 -0.010177 0.010177 -0.010177 0.010177 -0.010177 0.010177 -0.020354 0.010177 -0.010177 0.010177 -0.010177 0.010177 -0.0101731 0.010177 -0.010177 0.010177 -0.010177 0.010177 -0.010177 0.010177 -0.010177 0.010177 -0.010177 0.010177 -0.010177 0.0101731 -0.010177 0.010177 -0.010177 0.010177 -0.010177 0.010177 -0.010177 0.010177 -0.010177 0.010177 -0.010177 0.020354 -0.0101731 0.010177 -0.010177 0.010177 -0.010177 0.010177 -0.010177 0.010177 -0.010177 0.0203502 -0.010177 0.010177 -0.010177 0.010177 -0.010177 0.020354 -0.010177 0.010177 -0.010177 0.020354 -0.010177 0.010177 -0.010177 0.020354 -0.010177 0.020354 -0.0101731 0.010177 -0.010177 0.0203502 -0.010177 0.020354 -0.010177 0.020354 -0.010177 0.020354 -0.010177 0.020354 -0.010177 0.020354 -0.010177 0.0203502 -0.010177 0.0305311 -0.010177 0.020354 -0.010177 0.020354 -0.010177 0.0305311 -0.010177 0.0305272 -0.010177 0.0407081 -0.0101731 0.0305311 -0.010177 0.0508851 -0.010177 0.0407042 -0.010177 0.0508851 0 0.407069 0.010177 0.0508851 0.010177 0.0407042 0.010177 0.0508851 0.0101731 0.0305311 0.010177 0.0407042 0.010177 0.0305311 0.010177 0.0305311 0.010177 0.020354 0.010177 0.020354 0.010177 0.0305272 0.010177 0.020354 0.010177 0.020354 0.010177 0.020354 0.010177 0.020354 0.010177 0.020354 0.010177 0.0203502 0.010177 0.020354 0.0101731 0.010177 0.010177 0.020354 0.010177 0.020354 0.010177 0.010177 0.010177 0.020354 0.010177 0.010177 0.010177 0.0203502 0.010177 0.010177 0.010177 0.010177 0.010177 0.020354 0.010177 0.010177 0.010177 0.010177 0.010177 0.010177 0.0101731 0.010177 0.010177 0.020354 0.010177 0.010177 0.010177 0.010177 0.010177 0.0101731 0.010177 0.010177 0.010177 0.010177 0.010177 0.010177 0.010177 0.010177 0.010177 0.010177 0.010177 0.010177 0.010177 0.010177 0.010177 0.010177 0.0101731 0.010177 0.010177 0.010177 0.010177 0.010177 0.020354 0.010177 0.010177 0.010177 0.010177 0.0101731 0.010177 0.010177 0.020354 0.010177 0.010177 0.010177 0.010177 0.010177 0.020354 0.010177 0.0101731 0.010177 0.010177 0.010177 0.020354 0.010177 0.010177 0.010177 0.020354 0.010177 0.020354 0.010177 0.020354 0.010177 0.010177 0.0101731 0.0203502 0.010177 0.020354 0.010177 0.020354 0.010177 0.020354 0.010177 0.020354 0.010177 0.020354 0.010177 0.020354 0.010177 0.0305272 0.010177 0.0305311 0.010177 0.020354 0.010177 0.0305311 0.010177 0.0305311 0 -0.020354 -0.284949 -0.0199124 -0.0510439 -0.101367 0.0329717c-0.013745,-0.0266416 -0.112788,-0.343725 -0.112788,-0.37882 0,-0.0759654 0.0732033,-0.277418 0.12212,-0.295126l0.0127842 -0.142234c0.0275248,-0.0161856 0.0844185,-0.0409483 0.12969,-0.0409483l0.0305311 0 0 -0.020354 0.0305311 0 0.0306512 -0.0763257 0.0100569 0.00509045 0 -0.0508851c-0.0283694,-0.0114593 -0.0305311,-0.0302095 -0.0305311,-0.0712353l0 -0.0610621c0,-0.14588 0.244082,-0.155615 0.274772,-0.0407042l-0.00528802 -0.0101383 -0.157017 0.0823769 -0.0216363 0.171921c0.0709951,8.13542e-005 0.0887845,0.0159067 0.112703,0.0611396l0.0407081 -0.010177 0.050765 -0.0114981 0.0533257 0.0498817 0.10934 0.0148258 0.142753 -0.00232441c0.0919922,0 0.140034,-0.0863826 0.19336,-0.12212l0.0712391 0.0508851c0.00985548,-0.118277 0.152648,-0.108941 0.152648,-0.173005 0,-0.0215162 -0.00364544,-0.0134234 -0.010177,-0.0407081l-0.0305272 0 -0.0100182 -0.00584975 0.0617013 -0.105613c-0.0687908,0.0176694 -0.137186,0.171723 -0.183981,0.203052l0 -0.976963 0.508836 0 0 -0.010177 -0.010177 -0.010177 -0.010177 -0.010177 -0.010177 -0.010177 -0.010177 -0.010177 -0.010177 -0.010177 -0.010177 -0.010177 -0.0203502 -0.010177 -0.010177 -0.010177 -0.010177 -0.010177 -0.396892 0 0 -0.223887 -0.020354 -0.010177 -0.0305311 -0.010177 -0.0305311 -0.010177 -0.0305311 -0.010177 -0.0508812 -0.010177 -0.0407081 -0.010177 -0.0407081 -0.0101731 -0.0610583 -0.010177 -0.407069 0 -0.0610621 0.010177z"/>
   <path id="_116905544" class="fil9" d="M5.24101 0.0101731l-0.0407081 0.010177 -0.0407042 0.010177 -0.0407081 0.010177 -0.0305311 0.010177 -0.0305311 0.010177 -0.0305272 0.010177 -0.020354 0.010177 -0.0305311 0.010177 -0.020354 0.010177 -0.020354 0.010177 -0.0203502 0.010177 -0.020354 0.010177 -0.020354 0.0101731 -0.020354 0.010177 -0.020354 0.010177 -0.010177 0.010177 -0.020354 0.010177 -0.010177 0.010177 -0.0203502 0.010177 -0.010177 0.010177 -0.020354 0.010177 -0.010177 0.010177 -0.020354 0.010177 -0.010177 0.010177 -0.010177 0.010177 -0.020354 0.010177 -0.010177 0.0101731 -0.010177 0.010177 -0.0101731 0.010177 -0.010177 0.010177 -0.020354 0.010177 -0.010177 0.010177 -0.010177 0.010177 -0.010177 0.010177 -0.010177 0.010177 -0.010177 0.010177 -0.010177 0.010177 -0.010177 0.010177 -0.010177 0.010177 -0.010177 0.0101731 -0.0101731 0.010177 -0.010177 0.010177 -0.010177 0.010177 -0.010177 0.010177 -0.010177 0.020354 -0.010177 0.010177 -0.010177 0.010177 -0.010177 0.010177 -0.010177 0.010177 -0.010177 0.020354 -0.010177 0.0101731 -0.010177 0.010177 -0.010177 0.020354 -0.0101731 0.010177 -0.010177 0.020354 -0.010177 0.010177 -0.010177 0.010177 -0.010177 0.020354 -0.010177 0.020354 -0.010177 0.010177 -0.010177 0.0203502 -0.010177 0.010177 -0.010177 0.020354 -0.010177 0.020354 -0.010177 0.020354 -0.010177 0.020354 0 0.010177 0.020354 0 0 1.44509 -0.142474 0 0 0.0305311 0.010177 0.0407042 0.010177 0.020354 0.010177 0.010177 0.111943 0 0 0.254418 0 0.010177 0.010177 0.020354 0.010177 0.020354 0.010177 0.010177 0.010177 0.020354 0.010177 0.010177 0.010177 0.0203502 0.010177 0.020354 0.010177 0.010177 0.010177 0.010177 0.010177 0.020354 0.0101731 0.010177 0.010177 0.020354 0.010177 0.010177 0.010177 0.010177 0.010177 0.020354 0.010177 0.0101731 0.010177 0.010177 0.010177 0.010177 0.010177 0.010177 0.010177 0.020354 0.010177 0.010177 0.010177 0.010177 0.010177 0.010177 0.0101731 0.010177 0.010177 0.010177 0.010177 0.010177 0.010177 0.010177 0.010177 0.0101731 0.010177 0.010177 0.010177 0.010177 0.010177 0.010177 0.010177 0.010177 0.010177 0.010177 0.020354 0.010177 0.010177 0.010177 0.0101731 0.010177 0.010177 0.010177 0.010177 0.010177 0.020354 0.010177 0.010177 0.010177 0.010177 0.0101731 0.020354 0.010177 0.010177 0.010177 0.020354 0.010177 0.010177 0.010177 0.0203502 0.010177 0.010177 0.010177 0.020354 0.010177 0.010177 0.010177 0.020354 0.010177 0.020354 0.010177 0.020354 0.010177 0.020354 0.010177 0.0203502 0.010177c0.0478014,-0.0111416 0.229539,-0.122124 0.254422,-0.122124l0.0313678 -0.00516793 0.233227 0.035699 0 -0.0305311 -0.00364932 -0.223887 0.0748846 -0.0814123c0.0919109,-0.173726 0.211509,-0.111424 0.244241,-0.234068l-0.702195 -0.0104559 0 -1.01739 1.38404 0 0 1.01767 -0.356184 0 -0.0305311 0.111947 0.111943 0.0610583c0.0489597,-0.0114167 0.0637856,-0.0305311 0.132297,-0.0305311l0.010177 0c0.107457,0 0.0814162,0.126572 0.0814162,0.234068l0.010177 0 0.0101731 -0.010177 0.010177 -0.010177 0.010177 -0.010177 0.010177 -0.010177 0.010177 -0.010177 0.010177 -0.020354 0.010177 -0.010177 0.010177 -0.010177 0.010177 -0.010177 0.010177 -0.0101731 0.010177 -0.020354 0.010177 -0.010177 0.010177 -0.010177 0.0101731 -0.020354 0.010177 -0.010177 0.010177 -0.020354 0.010177 -0.010177 0.010177 -0.010177 0.010177 -0.020354 0.010177 -0.0203502 0.010177 -0.010177 0.010177 -0.020354 0.010177 -0.010177 0.010177 -0.020354 0.010177 -0.020354 0.010177 -0.020354 0.0101731 -0.0203502 0.010177 -0.020354 0.010177 -0.020354 0.010177 -0.020354 0.010177 -0.020354 0.010177 -0.020354 0.010177 -0.020354 0.010177 -0.0305272 0.010177 -0.020354 0.010177 -0.0305311 0.010177 -0.0305311 0.010177 -0.020354 0.010177 -0.0407042 0.0101731 -0.0305311 0.010177 -0.0305311 0.010177 -0.0407081 0.010177 -0.0407042 0.010177 -0.0508851 0.010177 -0.0508812 0.010177 -0.0610621 0.010177 -0.0814123 0 -0.417246 -0.010177 -0.0814162 -0.010177 -0.0610583 -0.010177 -0.0508851 -0.010177 -0.0508851 -0.010177 -0.0407042 -0.010177 -0.0407081 -0.010177 -0.0305311 -0.0101731 -0.0305272 -0.010177 -0.0407081 -0.010177 -0.020354 -0.010177 -0.0305311 -0.010177 -0.0305311 -0.010177 -0.0203502 -0.010177 -0.0305311 -0.010177 -0.020354 -0.010177 -0.020354 -0.010177 -0.020354 -0.010177 -0.020354 -0.010177 -0.0203502 -0.010177 -0.020354 -0.0101731 -0.020354 -0.010177 -0.020354 -0.010177 -0.020354 -0.010177 -0.020354 -0.010177 -0.010177 -0.010177 -0.0203502 -0.010177 -0.010177 -0.010177 -0.020354 -0.010177 -0.020354 -0.010177 -0.010177 -0.010177 -0.010177 -0.010177 -0.020354 -0.010177 -0.010177 -0.0101731 -0.020354 -0.010177 -0.010177 -0.010177 -0.0101731 -0.010177 -0.020354 -0.010177 -0.010177 -0.010177 -0.010177 -0.010177 -0.010177 -0.010177 -0.010177 -0.010177 -0.020354 -0.010177 -0.010177 -0.010177 -0.010177 -0.010177 -0.010177 -0.010177 -0.010177 -0.0101731 -0.0101731 -0.010177 -0.010177 -0.010177 -0.010177 -0.010177 -0.010177 -0.010177 -0.010177 -0.010177 -0.010177 -0.010177 -0.010177 -0.010177 -0.010177 -0.010177 -0.010177 -0.020354 -0.010177 -0.010177 -0.010177 -0.010177 -0.010177 -0.010177 -0.010177 -0.0101731 -0.0101731 -0.020354 -0.010177 -0.010177 -0.010177 -0.010177 -0.010177 -0.020354 -0.010177 -0.010177 -0.010177 -0.020354 -0.010177 -0.010177 -0.010177 -0.020354 -0.010177 -0.0101731 -0.010177 -0.020354 -0.010177 -0.010177 -0.010177 -0.020354 -0.010177 -0.020354 -0.010177 -0.020354 -0.0101731 -0.020354 -0.010177 -0.0203502 -0.010177 -0.020354 -0.010177 -0.020354 -0.010177 -0.0305311 -0.010177 -0.020354 -0.010177 -0.0305311 -0.010177 -0.0305272 -0.010177 -0.0305311 -0.010177 -0.0407081 -0.010177 -0.0407081 -0.010177 -0.0407042 -0.010177 -0.0712391 -0.0101731 -0.315476 0 -0.0712391 0.0101731z"/>
   <path id="_117218024" class="fil15" d="M0.987144 3.1039l0 0.183179 0 0.0814162 -0.010177 0.0305272 -0.010177 0.020354 -0.010177 0.0305311 -0.010177 0.0305311 -0.010177 0.0814123 -0.010177 0.0814162 -0.010177 0.0814123 0 0.0712391 -0.010177 0.111943 -0.00240189 0.0510439 0.0125789 0.213551c0.0802927,0.00669041 0.0726803,0.0376592 0.142354,0.0408243 0.0840582,0.00380815 0.0886257,0.00693448 0.173126,-0.000120094 -0.0157478,-0.0676712 -0.0915932,-0.0565721 -0.0915932,-0.111943 0,-0.0431487 0.0312129,-0.0717156 0.0444736,-0.108178 0.0155851,-0.0427109 0.00184403,-0.10485 0.0104598,-0.152369 0.0123387,-0.0676712 0.0163057,-0.234827 0.0163057,-0.309351l0.0155851 0.000201448 -0.0193507 0.549582 -0.00717466 0.00785649 0.365962 0.034777 0.0011622 -0.0123426c-0.00412582,-0.0494401 -0.10521,-0.0801726 -0.151489,-0.112063l-0.0215124 -0.244121c-0.00292488,-0.0283268 0.00588849,-0.019955 0.0203502,-0.0305311l0.010177 -0.010177 0.010177 -0.0712353 0.010177 -0.010177 0.010177 -0.0814162 0.010177 -0.101766 0.010177 -0.183182 0.010177 -0.0508812 0 -0.0508851 8.13542e-005 -0.142474 -0.0102584 -0.193356 -0.111943 0.020354c-0.0218378,0.0151822 -0.0336148,0.0203502 -0.0712391,0.0203502l-0.010177 0c-0.0274822,0 -0.0280439,-0.00484638 -0.0508812,-0.010177l-0.264595 -0.0407042 0.020354 0.284949z"/>
   <polygon id="_116900720" class="fil7" points="4.74236,3.38885 4.722,3.39902 4.69147,3.4092 4.52864,3.4092 4.49812,3.39902 4.46758,3.38885 4.45741,3.38885 4.42688,3.39902 4.42688,3.44991 4.43705,3.47026 4.45741,3.48044 4.46758,3.49062 4.47776,3.50079 4.48794,3.51097 4.50829,3.52115 4.51847,3.53132 4.53882,3.5415 4.55917,3.55168 4.56935,3.56185 4.5897,3.57203 4.61006,3.58221 4.62024,3.59238 4.64059,3.60256 4.66094,3.61274 4.68129,3.62291 4.69147,3.63309 4.71183,3.63309 4.722,3.62291 4.73218,3.61274 4.74236,3.60256 4.75253,3.59238 4.76271,3.57203 4.77289,3.56185 4.78306,3.55168 4.79324,3.5415 4.81359,3.53132 4.81359,3.55168 4.82377,3.56185 4.83395,3.56185 4.75253,3.37867 "/>
   <path id="_115799416" class="fil10" d="M3.1039 3.4092l0.427423 0 0 0.284949 -0.427423 0 0 -0.284949zm-0.569898 -0.549544l-0.010177 0.010177 -0.020354 0.010177 -0.010177 0.010177 -0.010177 0.010177 0 0.75308 0 0.142474 1.22121 0 0 -0.162828 0 -0.732726 -0.0101731 -0.010177 -0.010177 -0.010177 -0.020354 -0.010177 -0.010177 -0.010177 -0.0305311 -0.0101731 -0.21371 0 -0.600429 0 -0.244241 0 -0.0305311 0.0101731z"/>
   <polygon id="_117191168" class="fil3" points="3.1039,3.69415 3.53133,3.69415 3.53133,3.4092 3.1039,3.4092 "/>
   <path id="_116987952" class="fil16" d="M4.93571 3.25655l-0.010177 0 -0.0101731 0.0101731 -0.020354 0.010177 -0.020354 0.010177 -0.020354 0.010177 -0.010177 0.010177 -0.020354 0.010177 -0.020354 0.010177 -0.010177 0.010177 -0.0203502 0.010177 -0.020354 0.010177 0 0.020354 0.0814123 0.183179 0 0.020354 0.0305311 0 0.0305311 -0.010177 0.020354 -0.010177 0.0101731 -0.010177 0.0305311 -0.010177 0.020354 -0.010177 0.010177 0 -0.010177 0.020354 -0.010177 0.020354 -0.010177 0.0305311 -0.010177 0.020354 -0.010177 0.020354 0 0.0305272 -0.0203502 0.142474c-0.0329368,0.0491612 -0.162828,0.0924726 -0.162828,0.12212 0,0.0536511 0.161666,0.0508851 0.223887,0.0508851l0.101766 0c-0.00104211,-0.0469956 -0.010177,-0.0340952 -0.010177,-0.0712353 0,-0.0418315 0.0900281,-0.201371 0.111947,-0.234068l0.010177 -0.010177 0.0101731 -0.0101731 0.010177 -0.020354 0.010177 -0.010177 0.010177 -0.020354 0.010177 -0.010177 0.010177 -0.010177 0.010177 -0.010177 0.020354 -0.010177 0.020354 -0.010177 0.0305272 -0.010177 0.0305311 -0.010177 0.12212 -0.315476 -0.020354 0 -0.0101731 -0.0915932 0 0.0305311 -0.233227 -0.035699 -0.0313678 0.00516793c-0.0248828,0 -0.20662,0.110983 -0.254422,0.122124z"/>
   <path id="_116989680" class="fil7" d="M6.17727 2.75789c-0.0874635,0.0760042 -0.314155,0.0867817 -0.437918,0.142153 -0.0349397,0.0156278 -0.222128,0.278258 -0.2541,0.325978l-0.12212 0.315476 0 0.0508851 0.010177 0.020354 0.010177 0.020354 0.010177 0.010177 0.010177 0.010177 0.020354 0.010177 0.0305311 0.0101731 0.0305272 0.010177 0.0508851 0.010177 0.0712353 0.010177 0.10177 0.010177 0.0814123 0.010177 0.0305311 0.010177 0.010177 0.020354 0.020354 0.101766 -0.0613023 0.00284352 -0.345767 -0.0231976 0.00456746 0.103289 0.00560956 -0.0218727c0.068229,0 0.278537,0.0143416 0.305299,0.0508812 -0.047476,0.0127029 -0.0879826,0.119637 -0.0920697,0.160345l0.0818927 -0.00769378c0.00745359,-0.0897879 0.131538,-0.168636 0.215755,-0.154933 0.0869056,0.014144 0.284228,0.0226358 0.369809,0.0294076l0.0742028 0.0416688 -0.0491612 -0.14003c-0.0896291,0 -0.326296,-0.023399 -0.274772,-0.111943l0 -0.010177 -0.010177 -0.010177 -0.010177 -0.010177 -0.0407081 0 -0.0203502 0.010177 -0.0407081 0 -0.010177 -0.0407081 0.020354 0 0.0407042 -0.010177 0.0508851 -0.010177 0.0305311 -0.010177 0.0305311 -0.010177 0.0305272 -0.010177 0.020354 -0.0101731 0.020354 -0.010177 0.020354 -0.010177 0.020354 -0.010177 0.020354 -0.010177 0.010177 -0.010177 0.0101731 -0.010177 0.020354 -0.010177 0.010177 -0.010177 0.010177 -0.010177 0.010177 -0.020354 0.010177 -0.010177 0.010177 -0.010177 0.010177 -0.0305272 0.010177 -0.0305311 0.010177 -0.0407081 0.010177 -0.0610583 0.010177 -0.111943 0 -0.295126c0,-0.107496 0.0260411,-0.234068 -0.0814162,-0.234068l-0.010177 0c-0.0685118,0 -0.0833377,0.0191144 -0.132297,0.0305311z"/>
   <path id="_116993328" class="fil0" d="M2.40171 3.93839l0 0.0305311c0,0.0245225 0.0365396,0.0610621 0.0610621,0.0610621l0.0305272 0c0.0245225,0 0.0610621,-0.0365396 0.0610621,-0.0610621l0 -0.0305311c0,-0.0245186 -0.0365396,-0.0610583 -0.0610621,-0.0610583l-0.0305272 0c-0.0245225,0 -0.0610621,0.0365396 -0.0610621,0.0610583z"/>
   <path id="_116906888" class="fil0" d="M2.6663 3.93839l0 0.0305311c0,0.0245225 0.0365396,0.0610621 0.0610621,0.0610621l0.0305272 0c0.0245225,0 0.0610621,-0.0365396 0.0610621,-0.0610621l0 -0.0305311c0,-0.0245186 -0.0365396,-0.0610583 -0.0610621,-0.0610583l-0.0305272 0c-0.0245225,0 -0.0610621,0.0365396 -0.0610621,0.0610583z"/>
   <path id="_116906936" class="fil0" d="M2.98178 3.93839l0 0.0305311c0,0.0245225 0.0365396,0.0610621 0.0610583,0.0610621l0.0305311 0c0.0245225,0 0.0610621,-0.0365396 0.0610621,-0.0610621l0 -0.0305311c0,-0.0245186 -0.0365396,-0.0610583 -0.0610621,-0.0610583l-0.0305311 0c-0.0245186,0 -0.0610583,0.0365396 -0.0610583,0.0610583z"/>
   <path id="_116978856" class="fil0" d="M3.29726 3.93839l0 0.0305311c0,0.0245225 0.0365435,0.0610621 0.0610621,0.0610621l0.0305311 0c0.0245186,0 0.0610583,-0.0365396 0.0610583,-0.0610621l0 -0.0305311c0,-0.0245186 -0.0365396,-0.0610583 -0.0610583,-0.0610583l-0.0305311 0c-0.0245186,0 -0.0610621,0.0365396 -0.0610621,0.0610583z"/>
   <path id="_116907128" class="fil0" d="M3.60256 3.93839l0 0.0305311c0,0.0245225 0.0365396,0.0610621 0.0610621,0.0610621l0.0305311 0c0.0245186,0 0.0610583,-0.0365396 0.0610583,-0.0610621l0 -0.0305311c0,-0.0245186 -0.0365396,-0.0610583 -0.0610583,-0.0610583l-0.0305311 0c-0.0245225,0 -0.0610621,0.0365396 -0.0610621,0.0610583z"/>
   <path id="_116902088" class="fil12" d="M3.66362 3.87733l0.0305311 0c0.0245186,0 0.0610583,0.0365396 0.0610583,0.0610583l0 0.0305311c0,0.0245225 -0.0365396,0.0610621 -0.0610583,0.0610621l-0.0305311 0c-0.0245225,0 -0.0610621,-0.0365396 -0.0610621,-0.0610621l0 -0.0305311c0,-0.0245186 0.0365396,-0.0610583 0.0610621,-0.0610583zm-0.305303 0l0.0305311 0c0.0245186,0 0.0610583,0.0365396 0.0610583,0.0610583l0 0.0305311c0,0.0245225 -0.0365396,0.0610621 -0.0610583,0.0610621l-0.0305311 0c-0.0245186,0 -0.0610621,-0.0365396 -0.0610621,-0.0610621l0 -0.0305311c0,-0.0245186 0.0365435,-0.0610583 0.0610621,-0.0610583zm-0.31548 0l0.0305311 0c0.0245225,0 0.0610621,0.0365396 0.0610621,0.0610583l0 0.0305311c0,0.0245225 -0.0365396,0.0610621 -0.0610621,0.0610621l-0.0305311 0c-0.0245186,0 -0.0610583,-0.0365396 -0.0610583,-0.0610621l0 -0.0305311c0,-0.0245186 0.0365396,-0.0610583 0.0610583,-0.0610583zm-0.315476 0l0.0305272 0c0.0245225,0 0.0610621,0.0365396 0.0610621,0.0610583l0 0.0305311c0,0.0245225 -0.0365396,0.0610621 -0.0610621,0.0610621l-0.0305272 0c-0.0245225,0 -0.0610621,-0.0365396 -0.0610621,-0.0610621l0 -0.0305311c0,-0.0245186 0.0365396,-0.0610583 0.0610621,-0.0610583zm-0.264595 0l0.0305272 0c0.0245225,0 0.0610621,0.0365396 0.0610621,0.0610583l0 0.0305311c0,0.0245225 -0.0365396,0.0610621 -0.0610621,0.0610621l-0.0305272 0c-0.0245225,0 -0.0610621,-0.0365396 -0.0610621,-0.0610621l0 -0.0305311c0,-0.0245186 0.0365396,-0.0610583 0.0610621,-0.0610583zm1.24156 -0.0814123l-1.22121 0c-0.130252,0 -0.244241,0.0207531 -0.244241,0.142471l0 0.0305311c0,0.0635454 0.0789291,0.142474 0.142474,0.142474l1.47563 0c0.0635454,0 0.142474,-0.0789291 0.142474,-0.142474l0 -0.0305311c0,-0.141672 -0.14612,-0.142471 -0.295126,-0.142471z"/>
   <path id="_116904872" class="fil9" d="M0.915905 3.79592l-0.0407081 0 -0.0610583 0.0101731 -0.0508851 0.010177 -0.0508812 0.010177 -0.0508851 0.010177 -0.0407081 0.010177 -0.0508812 0.010177 -0.0407081 0.010177 -0.0407081 0.010177 -0.0305311 0.010177 -0.0407042 0.010177 -0.0305311 0.010177 -0.0305311 0.010177 -0.0305311 0.010177 -0.0203502 0.0101731 -0.0305311 0.010177 -0.020354 0.010177 -0.020354 0.010177 -0.020354 0.010177 -0.020354 0.010177 -0.010177 0.010177 -0.0101731 0.010177 -0.020354 0.010177 -0.010177 0.010177 -0.010177 0.010177 -0.010177 0.020354 0 0.0814123 0.010177 0.020354 0.010177 0.010177 0.010177 0.010177 0.020354 0.010177 0.0101731 0.010177 0.010177 0.0101731 0.020354 0.010177 0.020354 0.010177 0.020354 0.010177 0.020354 0.010177 0.0305311 0.010177 0.0203502 0.010177 0.0305311 0.010177 0.0305311 0.010177 0.0305311 0.010177 0.0407042 0.010177 0.0305311 0.010177 0.0407081 0.010177 0.0407081 0.0101731 0.0508812 0.010177 0.0407081 0.010177 0.0508851 0.010177 0.0508812 0.010177 0.0508851 0.010177 0.0610583 0.010177 0.0610621 0.010177 0.0712353 0.010177 0.0712391 0.010177 0.0712353 0.010177 0.0814162 0.010177 0.0814123 0.010177 0.0915893 0.010177 0.0915932 0.0101731 0.101766 0.010177 0.111943 0.010177 0.132297 0.010177 0.132297 0.010177 0.152651 0.010177 0.183182 0.010177 0.21371 0.010177 0.284949 0.010177 1.42474 0 0.284945 -0.010177 0.213714 -0.010177 0.183182 -0.010177 0.152648 -0.010177 0.132297 -0.010177 0.132297 -0.010177 0.111947 -0.010177 0.101766 -0.010177 0.0915893 -0.0101731 0.0915932 -0.010177 0.0814123 -0.010177 0.0814123 -0.010177 0.0712391 -0.010177 0.0712353 -0.010177 0.0712391 -0.010177 0.0610583 -0.010177 0.0610621 -0.010177 0.0508812 -0.010177 0.0508851 -0.010177 0.0508851 -0.010177 0.0407042 -0.010177 0.0508851 -0.010177 0.0407081 -0.0101731 0.0407042 -0.010177 0.0305311 -0.010177 0.0407081 -0.010177 0.0305311 -0.010177 0.0305272 -0.010177 0.0305311 -0.010177 0.020354 -0.010177 0.0305311 -0.010177 0.020354 -0.010177 0.020354 -0.010177 0.0203502 -0.010177 0.020354 -0.010177 0.010177 -0.0101731 0.010177 -0.010177 0.020354 -0.010177 0.010177 -0.010177 0.010177 -0.010177 0.010177 -0.020354 0 -0.0814123 -0.010177 -0.020354 -0.010177 -0.010177 -0.010177 -0.010177 -0.020354 -0.010177 -0.010177 -0.010177 -0.010177 -0.010177 -0.020354 -0.010177 -0.0203502 -0.010177 -0.020354 -0.010177 -0.020354 -0.010177 -0.0305311 -0.010177 -0.020354 -0.0101731 -0.0305311 -0.010177 -0.0305272 -0.010177 -0.0305311 -0.010177 -0.0407081 -0.010177 -0.0305311 -0.010177 -0.0407042 -0.010177 -0.0407081 -0.010177 -0.0508851 -0.010177 -0.0407042 -0.010177 -0.0508851 -0.010177 -0.0508851 -0.010177 -0.0508812 -0.010177 -0.0610621 -0.0101731 -0.0610583 -0.010177 -0.020354 0c-0.0515243,0.0885443 0.185143,0.111943 0.274772,0.111943l0.0491612 0.14003 -0.0742028 -0.0416688c-0.0855807,-0.00677177 -0.282903,-0.0152636 -0.369809,-0.0294076 -0.0842171,-0.0137024 -0.208302,0.0651453 -0.215755,0.154933l-0.0818927 0.00769378c0.00408708,-0.0407081 0.0445937,-0.147642 0.0920697,-0.160345 -0.0267617,-0.0365396 -0.23707,-0.0508812 -0.305299,-0.0508812l-0.00560956 0.0218727 -0.00456746 -0.103289 0.345767 0.0231976 0.0613023 -0.00284352 -0.020354 -0.101766 -0.020354 -0.010177 -0.0814123 -0.010177 -0.0915932 -0.010177 -0.0915893 -0.010177 -0.101766 -0.010177 -0.111947 -0.010177 -0.132297 -0.010177 -0.0203502 0c-0.0219191,0.0326966 -0.111947,0.192236 -0.111947,0.234068 0,0.0371401 0.00913491,0.0242397 0.010177,0.0712353l-0.101766 0c-0.0622205,0 -0.223887,0.00276604 -0.223887,-0.0508851 0,-0.0296478 0.129892,-0.0729592 0.162828,-0.12212l0.0203502 -0.142474 -0.0203502 -0.0101731 -0.183182 -0.010177 -0.213714 -0.010177 -0.284945 -0.010177 -0.529193 0 0 0.162828c0.149006,0 0.295126,0.000798046 0.295126,0.142471l0 0.0305311c0,0.0635454 -0.0789291,0.142474 -0.142474,0.142474l-1.47563 0c-0.0635454,0 -0.142474,-0.0789291 -0.142474,-0.142474l0 -0.0305311c0,-0.121717 0.113989,-0.142471 0.244241,-0.142471l0 -0.142474 -0.173002 0 -0.183182 0.010177 -0.152651 0.0101731 -0.132297 0.010177 -0.132297 0.010177 -0.111943 0.010177 -0.101766 0.010177 -0.0814162 0.010177c-0.0144617,0.010576 -0.023275,0.00220431 -0.0203502,0.0305311l0.0215124 0.244121c0.0462789,0.0318908 0.147363,0.0626233 0.151489,0.112063l-0.0011622 0.0123426 -0.365962 -0.034777 0.00717466 -0.00785649 0.0193507 -0.549582 -0.0155851 -0.000201448c0,0.0745243 -0.00396698,0.24168 -0.0163057,0.309351 -0.0086158,0.0475186 0.00512531,0.109658 -0.0104598,0.152369 -0.0132607,0.0364622 -0.0444736,0.0650291 -0.0444736,0.108178 0,0.0553712 0.0758453,0.0442722 0.0915932,0.111943 -0.0844999,0.00705457 -0.0890673,0.00392824 -0.173126,0.000120094 -0.069674,-0.00316507 -0.0620616,-0.0341339 -0.142354,-0.0408243l-0.0125789 -0.213551 0.00240189 -0.0510439 0.010177 -0.111943z"/>
  </g>
 </g>
</svg>
