<?xml version="1.0" encoding="UTF-8"?>
<!DOCTYPE svg PUBLIC "-//W3C//DTD SVG 1.1//EN" "http://www.w3.org/Graphics/SVG/1.1/DTD/svg11.dtd">
<!-- Creator: CorelDRAW -->
<svg xmlns="http://www.w3.org/2000/svg" xml:space="preserve" width="7.18935in" height="4.47316in" style="shape-rendering:geometricPrecision; text-rendering:geometricPrecision; image-rendering:optimizeQuality; fill-rule:evenodd; clip-rule:evenodd"
viewBox="0 0 8.39351 5.22238"
 xmlns:xlink="http://www.w3.org/1999/xlink">
 <defs>
  <style type="text/css">
   <![CDATA[
    .str0 {stroke:#1F1A17;stroke-width:0.00350248}
    .str2 {stroke:#DA251D;stroke-width:0.00350248}
    .str1 {stroke:#DB214C;stroke-width:0.00350248}
    .fil19 {fill:#1F1A17}
    .fil22 {fill:#DA251D}
    .fil21 {fill:#DB214C}
    .fil20 {fill:#E7785F}
    .fil7 {fill:#0B6AD3}
    .fil1 {fill:#1213CF}
    .fil8 {fill:#222222}
    .fil12 {fill:#353535}
    .fil17 {fill:#4A4A4B}
    .fil3 {fill:#4FBAEC}
    .fil9 {fill:#51210C}
    .fil4 {fill:#A2DBFC}
    .fil16 {fill:#AFB9C5}
    .fil5 {fill:#B1AAAA}
    .fil18 {fill:#B3FAD8}
    .fil6 {fill:#BDC2F9}
    .fil11 {fill:#DCA27E}
    .fil15 {fill:#E2E6E4}
    .fil13 {fill:#F30B8A}
    .fil2 {fill:whitesmoke}
    .fil14 {fill:#F6BE9C}
    .fil10 {fill:#F79E7C}
    .fil0 {fill:#F80B55}
   ]]>
  </style>
 </defs>
 <g id="Layer_x0020_1">
  <metadata id="CorelCorpID_0Corel-Layer"/>
  <g id="_82541264">
   <g>
    <path id="_114695096" class="fil0" d="M2.22866 0.787239l0.232846 0.0997885 0 -0.26611c-0.101976,0 -0.225515,0.0780979 -0.232846,0.166322z"/>
    <path id="_114710696" class="fil1" d="M2.46151 0.887028l0.155226 0.177404 0.0351443 0.00100662 0.0757353 -0.122973 0 -0.121966c0,-0.0814533 -0.138991,-0.199581 -0.266106,-0.199581l0 0.26611z"/>
    <path id="_114711752" class="fil2" d="M2.61673 1.06443l-0.155226 -0.177404 -0.232846 -0.0997885c-0.0165471,0.0237911 -0.0221778,0.0366243 -0.0221778,0.0776153l0 0.0665241c0,0.0940751 0.133577,0.210668 0.243932,0.210668l0.0221778 0c0.0493289,0 0.111316,-0.0269764 0.144139,-0.0443509l0 -0.0332643z"/>
    <polygon id="_115339040" class="fil3" points="2.20648,1.57447 3.54812,1.57447 3.54812,1.28619 2.20648,1.28619 "/>
    <path id="_114710960" class="fil4" d="M2.20648 1.28619l1.34163 0 0 0.288283 -1.34163 0 0 -0.288283zm0.41025 -0.221759l0 0.0332643c-0.0328231,0.0173745 -0.0948105,0.0443509 -0.144139,0.0443509l-0.0221778 0c-0.110356,0 -0.243932,-0.116593 -0.243932,-0.210668l0 -0.0665241c0,-0.0409909 0.00563062,-0.0538242 0.0221778,-0.0776153 0.0073313,-0.0882238 0.130869,-0.166322 0.232846,-0.166322 0.127114,0 0.266106,0.118128 0.266106,0.199581l0 0.121966 -0.0757353 0.122973 -0.0351443 -0.00100662zm-0.587653 0.620922l1.65209 0 0 -1.16422 -1.65209 0 0 1.16422z"/>
    <path id="_114712064" class="fil5" d="M2.02908 0.521129l1.65209 0 0 1.16422 -1.65209 0 0 -1.16422zm0.643095 1.29728l0.432427 0 0.742884 0 0 -1.44142 -1.96255 0 0 1.44142 0.0332643 0 0.753975 0z"/>
    <polygon id="_115338968" class="fil6" points="2.67217,3.54812 2.67217,3.94728 2.67217,4.42406 3.1046,4.42406 3.1046,3.9251 3.1046,3.57029 3.1046,1.81841 2.67217,1.81841 "/>
    <path id="_114711656" class="fil7" d="M5.32217 2.15105l0.321548 0 0 -0.221759 -0.0110866 -0.0110866 -0.0110866 -0.0110866 -0.255024 0 -1.25293 0c-0.0189005,0.0126586 -0.0443509,0.0241404 -0.0443509,0.0554375l0 0.177229 1.25293 0.0112658z"/>
    <path id="_114699704" class="fil8" d="M6.27573 2.49477c0.0199945,-0.0133986 0.0195118,-0.0221732 0.0443509,-0.0221732 0.0248391,0 0.0243565,0.00877458 0.0443509,0.0221732l0.00222927 -0.075386 0.0201232 -0.0212171 0.321373 -0.0142719c0.0192498,-0.0167218 0.0443509,-0.0237911 0.0443509,-0.0554421l0 -0.144139c-0.11856,0 -0.407634,-0.0284657 -0.410774,0.0860359l-0.0729039 0.0136238 0.00689924 0.210797z"/>
    <path id="_115338776" class="fil9" d="M7.34016 2.57238l0.0332598 -0.0110866c0.00432524,-0.0521649 0.0957344,-0.0969525 0.133057,-0.121966l-0.00323129 0.0106959 0.221713 0.0666988 0.00523993 -0.0113899 0.00912391 0.0448749c0.0326944,0.0075933 0.0554375,0.0165012 0.0554375,0.0554375 0,0.0363623 -0.0223524,0.0416023 -0.0554375,0.0443509 -0.0234004,0.100492 -0.0897958,0.108131 -0.11088,0.166317l0.144139 0 0.0221778 0 0.0110866 -0.121966 0 -0.133053c0,-0.130304 -0.0632514,-0.277197 -0.18849,-0.277197l-0.0665287 0c-0.0254964,0 -0.160645,0.0447462 -0.175878,0.0680547 -0.0278498,0.0426043 -0.0347904,0.14829 -0.0347904,0.220229z"/>
    <path id="_114698864" class="fil10" d="M6.27573 2.49477c-0.00344732,0.0130079 -0.0110866,0.0302077 -0.0110866,0.0332643 0,0.0254045 0.00375069,0.0128792 0.0116519,0.0420803l0.0548722 0.0133618c0,0.190936 0.122973,0.153484 0.144144,0.232841l0.0487175 0.0698887 0.0510709 -0.0698887c0.0164598,-0.0616381 0.144144,-0.0760433 0.144144,-0.18849l0 -0.0776153c0.0251011,-0.00672457 0.0443509,-0.0106545 0.0443509,-0.0443509 0,-0.0282037 -0.0376723,-0.0511215 -0.0554375,-0.0776153l0 -0.0443509 -0.321373 0.0142719 -0.0201232 0.0212171 -0.00222927 0.075386c-0.0199945,-0.0133986 -0.0195118,-0.0221732 -0.0443509,-0.0221732 -0.0248391,0 -0.0243565,0.00877458 -0.0443509,0.0221732z"/>
    <path id="_114700136" class="fil11" d="M7.34016 2.57238c-0.00807592,0.034703 -0.0104339,0.255024 0.0443509,0.255024l0.110875 0c0,0.0467962 0.000220629,0.133053 0.0443555,0.133053l0.0221732 0c0.0418643,0 0.0554421,-0.0871759 0.0554421,-0.132138l0.177404 -0.0120059 -0.0221778 0 -0.144139 0c0.0210838,-0.0581862 0.0874792,-0.0658254 0.11088,-0.166317 0.0330851,-0.00274866 0.0554375,-0.00798859 0.0554375,-0.0443509 0,-0.0389363 -0.0227431,-0.0478442 -0.0554375,-0.0554375l-0.00912391 -0.0448749 -0.00523993 0.0113899 -0.221713 -0.0666988 0.00323129 -0.0106959c-0.037323,0.0250138 -0.128732,0.0698014 -0.133057,0.121966l-0.0332598 0.0110866z"/>
    <path id="_115338800" class="fil12" d="M1.38598 2.76088c0.0248805,-0.00580529 0.0254918,-0.0110866 0.0554375,-0.0110866 0.0248391,0 0.0243565,0.00877458 0.0443509,0.0221732 0,-0.121658 0.0135778,-0.0887432 0.144144,-0.0887019 0.0829379,4.13679e-005 0.154008,0.00471594 0.221755,-0.0110866 0.0152785,-0.0228305 0.0332643,-0.028769 0.0332643,-0.0554421l0 -0.144139 -0.332634 0c-0.120178,0 -0.0194705,0.0776153 -0.141915,0.07984l-0.0244024 0.0199485 0 0.188495z"/>
    <polygon id="_114712520" class="fil13" points="4.53493,3.11569 4.6569,3.11569 4.6569,2.83849 4.53493,2.83849 "/>
    <polygon id="_114712328" class="fil7" points="4.35753,3.11569 4.49058,3.11569 4.49058,2.74979 4.35753,2.74979 "/>
    <path id="_115338656" class="fil4" d="M4.53493 2.83849l0.121966 0 0 0.277197 -0.121966 0 0 -0.277197zm-0.177404 -0.0887019l0.133053 0 0 0.365899 -0.133053 0 0 -0.365899zm0.121966 0.454601l1.16422 0 0 -1.00899 -0.332634 0 -1.25293 0.0110866 0 0.97573 0.433388 0.000569957 -0.0120472 0.0216078z"/>
    <path id="_114711920" class="fil14" d="M1.38598 2.76088c-0.00580988,0.0248805 -0.0110912,0.0254918 -0.0110912,0.0554375 0,0.0426962 0.0374977,0.0415149 0.0665287,0.0554421 0,0.125023 0.0395477,0.167057 0.121966,0.210668l0 0.0443509c0.00859992,0.036845 0.0227431,0.0665287 0.0665287,0.0665287 0.0415977,0 0.0519442,-0.0278498 0.0665241,-0.0554421l0 -0.0443509c0.192425,-0.044829 0.155231,-0.194866 0.155231,-0.421336 -0.0677468,0.0158025 -0.138817,0.011128 -0.221755,0.0110866 -0.130566,-4.13679e-005 -0.144144,-0.0329564 -0.144144,0.0887019 -0.0199945,-0.0133986 -0.0195118,-0.0221732 -0.0443509,-0.0221732 -0.0299457,0 -0.0305571,0.0052813 -0.0554375,0.0110866z"/>
    <path id="_114706976" class="fil2" d="M6.37552 3.49267l-0.0332598 -0.121966 0.373101 0.00340595 -0.0737313 0.140738 0.0437856 0.000390696 0.0560075 0.0772246c0.0117852,-0.0506802 0.0758227,-0.169374 0.100271,-0.232368 0.0137065,-0.0354017 0.0327817,-0.240568 0.0327817,-0.299853l0 -0.0332598c0,-0.143666 -0.173042,-0.271304 -0.299375,-0.210673l-0.0510709 0.0698887 -0.0487175 -0.0698887c-0.103718,-0.0497609 -0.214644,0.0838572 -0.25393,0.144273l-0.0121805 0.132924 0 0.0332643c0,0.106559 0.0866105,0.293652 0.0901451,0.392006l0.076172 -0.0261077z"/>
    <path id="_115338704" class="fil7" d="M4.05815 3.40397l0 0.0221778 0.0110912 0.0221732 0.0110866 0.0110866 0.576567 0 0.410254 0 0.554394 0 0.0110866 -0.0110866 0.0110866 -0.0110866 0 -0.188495 -1.24184 0c-0.034703,0.00288196 -0.039373,0.0110866 -0.0776153,0.0110866l-0.255019 0 0 0.11088c0,0.0423883 0.00340595,0.00401728 -0.0110912,0.0332643z"/>
    <path id="_114710576" class="fil15" d="M2.68326 0.0110866l-0.0887019 0.0110866 -0.0665287 0.0110912 -0.0554375 0.0110866 -0.0554421 0.0110866 -0.0443509 0.0110912 -0.0554375 0.0110866 -0.0332643 0.0110866 -0.0443509 0.0110866 -0.0332643 0.0110912 -0.0443509 0.0110866 -0.0332643 0.0110866 -0.0332643 0.0110866 -0.0332598 0.0110912 -0.0221778 0.0110866 -0.0332643 0.0110866 -0.0332643 0.0110912 -0.0221732 0.0110866 -0.0221778 0.0110866 -0.0332643 0.0110866 -0.0221732 0.0110912 -0.0221778 0.0110866 -0.0221732 0.0110866 -0.0221778 0.0110912 -0.0221732 0.0110866 -0.0221778 0.0110866 -0.0221778 0.0110866 -0.0221732 0.0110912 -0.0221778 0.0110866 -0.0221732 0.0110866 -0.0221778 0.0110866 -0.0110866 0.0110912 -0.0221778 0.0110866 -0.0221732 0.0110866 -0.0110866 0.0110912 -0.0221778 0.0110866 -0.0110866 0.0110866 -0.0221778 0.0110866 -0.0110866 0.0110912 -0.0221778 0.0110866 -0.0110866 0.0110866 -0.0221732 0.0110912 -0.0110912 0.0110866 -0.0110866 0.0110866 -0.0221778 0.0110866 -0.0110866 0.0110912 -0.0110866 0.0110866 -0.0221778 0.0110866 -0.0110866 0.0110866 -0.0110866 0.0110912 -0.0110912 0.0110866 -0.0221732 0.0110866 -0.0110866 0.0110912 -0.0110912 0.0110866 -0.0110866 0.0110866 -0.0110866 0.0110866 -0.0110866 0.0110912 -0.0110912 0.0110866 -0.0110866 0.0110866 -0.0110866 0.0110912 -0.0110912 0.0110866 -0.0110866 0.0110866 -0.0110866 0.0110866 -0.0110866 0.0110912 -0.0110912 0.0110866 -0.0110866 0.0110866 -0.0110866 0.0110866 -0.0110912 0.0110912 -0.0110866 0.0110866 -0.0110866 0.0110866 -0.0110866 0.0110912 -0.0110912 0.0110866 -0.0110866 0.0221732 -0.0110866 0.0110912 -0.0110866 0.0110866 -0.0110912 0.0110866 -0.0110866 0.0221778 -0.0110866 0.0110866 -0.0110912 0.0110866 -0.0110866 0.0221778 -0.0110866 0.0110866 -0.0110866 0.0221778 -0.0110912 0.0110866 -0.0110866 0.0221778 -0.0110866 0.0110866 -0.0110912 0.0221732 -0.0110866 0.0110912 -0.0110866 0.0221732 -0.0110866 0.0221778 -0.0110912 0.0221732 -0.0110866 0.0221778 -0.0110866 0.0221732 -0.0110866 0.0221778 -0.0110912 0.0221778 -0.0110866 0.0221732 -0.0110866 0.0221778 -0.0110912 0.0332598 -0.0110866 0.0221778 -0.0110866 0.0332643 -0.0110866 0.0332643 -0.0110912 0.0332643 -0.0110866 0.0443509 -0.0110866 0.0443509 -0.0110866 0.0554375 -0.0110912 0.0776153 0 0.354812 0.0110912 0.0776153 0.0110866 0.0554375 0.0110866 0.0443509 0.0110866 0.0443555 0.0110912 0.0332598 0.0110866 0.0332643 0.0110866 0.0332643 0.0110866 0.0221778 0.0110912 0.0332598 0.0110866 0.0221778 0.0110866 0.0221778 0.0110912 0.0221732 0.0110866 0.0221778 0.0110866 0.0221732 0.0110866 0.0221778 0.0110912 0.0221732 0.0110866 0.0221778 0.0110866 0.0221732 0.0110866 0.0110912 0.0110912 0.0221732 0.0110866 0.0110912 0.0110866 0.0221732 0.0110912 0.0110866 0.0110866 0.0221778 0.0110866 0.0110866 0.0110866 0.0221778 0.0110912 0.0110866 0.0110866 0.0110866 0.0110866 0.0221778 0.0110912 0.0110866 0.0110866 0.0110866 0.0110866 0.0110912 0.0110866 0.0221732 0.0110912 0.0110866 0.0110866 0.0110912 0.0110866 0.0110866 0.0110866 0.0110866 0.0110912 0.0110912 0.0110866 0.0110866 0.0110866 0.0110866 0.0110912 0.0110866 0.0110866 0.0110912 0.0110866 0.0110866 0.0110866 0.0110866 0.0110912 0.0110912 0.0110866 0.0110866 0.0110866 0.0110866 0.0110912 0.0110866 0.0110866 0.0110912 0.0110866 0.0110866 0.0110866 0.0110866 0.0110912 0.0110866 0.0110866 0.0110912 0.0221732 0.0110866 0.0110912 0.0110866 0.0110866 0.0110912 0.0110866 0.0110866 0.0221778 0.0110866 0.0110866 0.0110866 0.0110866 0.0110912 0.0221778 0.0110866 0.0110866 0.0110866 0.0110912 0.0110912 0.0221732 0.0110866 0.0110866 0.0110866 0.0665287 0 0 -0.0443509c-0.0824185,-0.0436109 -0.121966,-0.0856452 -0.121966,-0.210668 -0.029031,-0.0139272 -0.0665287,-0.0127459 -0.0665287,-0.0554421 0,-0.0299457 0.0052813,-0.0305571 0.0110912,-0.0554375l0 -0.188495 0.0244024 -0.0199485c0.122444,-0.00222467 0.0217365,-0.07984 0.141915,-0.07984l0.332634 0 0 0.144139c0,0.0266731 -0.0179858,0.0326117 -0.0332643,0.0554421 0,0.226471 0.0371943,0.376507 -0.155231,0.421336l0 0.0443509c0.0995311,0.0231798 0.145495,0.208094 0.299375,0.243932l0.0110866 0.0110912 0.0110866 0 0.0221778 0.0110866 0.0110866 0 0.0110912 0.0110866 0.0110866 0 0.0221732 0.0110912 0.0332643 0.0110866 0.0110866 0 0.0221778 0.0110866 0.0321704 -0.00227064 0.0807592 -0.0302077 -0.0131366 0.0324784 0.0933259 0.0077266 -0.0372357 0.0231384 0.0436982 0.0134859 0.0110866 0.0110912 0.0443509 0.0110866 0.0554421 0.0110866 0.0554375 0.0110866 0.0665287 0.0110912 0.0776153 0 0 -1.72971 -0.753975 0 -0.0332643 0 0 -1.44142 1.96255 0 0 1.44142 -0.742884 0 0 1.75188 0.210668 0 0.0997885 -0.0110866 0.0887065 -0.0110866 0.0665241 -0.0110912 0.0554421 -0.0110866 0.0554375 -0.0110866 0.0443509 -0.0110866 0.0554421 -0.0110912 0.0332598 -0.0110866 0.0443509 -0.0110866 0.0332643 -0.0110912 0.0443509 -0.0110866 0.0332643 -0.0110866 0.0332643 -0.0110866 0.0332643 -0.0110912 0.0221732 -0.0110866c0.0144971,-0.0292471 0.0110912,0.00912391 0.0110912,-0.0332643l0 -0.11088 0.255019 0c0.0382423,0 0.0429123,-0.00820462 0.0776153,-0.0110866l0.0221778 -0.0110866 0.0221732 -0.0110866 0.0110866 -0.0110912 0.0221778 -0.0110866 0.0120472 -0.0216078 -0.433388 -0.000569957 0 -0.97573 1.25293 -0.0110866 0.0110866 -0.0110866 0 -0.0332643 -1.25293 -0.0112658 0 -0.177229c0,-0.0312971 0.0254504,-0.042779 0.0443509,-0.0554375l1.25293 0 0 -0.299375 -0.0110866 -0.0776153 -0.0110866 -0.0554375 -0.0110912 -0.0443509 -0.0110866 -0.0443509 -0.0110866 -0.0332643 -0.0110866 -0.0332643 -0.0110912 -0.0332643 -0.0110866 -0.0221778 -0.0110866 -0.0332598 -0.0110912 -0.0221778 -0.0110866 -0.0221732 -0.0110866 -0.0221778 -0.0110866 -0.0221778 -0.0110912 -0.0221732 -0.0110866 -0.0221778 -0.0110866 -0.0221732 -0.0110912 -0.0221778 -0.0110866 -0.0221732 -0.0110866 -0.0110912 -0.0110866 -0.0221732 -0.0110912 -0.0110866 -0.0110866 -0.0221778 -0.0110866 -0.0110866 -0.0110866 -0.0221778 -0.0110912 -0.0110866 -0.0110866 -0.0221778 -0.0110866 -0.0110866 -0.0110912 -0.0110866 -0.0110866 -0.0221778 -0.0110866 -0.0110866 -0.0110866 -0.0110866 -0.0110912 -0.0110912 -0.0110866 -0.0221732 -0.0110866 -0.0110866 -0.0110912 -0.0110912 -0.0110866 -0.0110866 -0.0110866 -0.0110866 -0.0110866 -0.0110912 -0.0110912 -0.0110866 -0.0110866 -0.0110866 -0.0110866 -0.0110866 -0.0110866 -0.0110912 -0.0110912 -0.0110866 -0.0110866 -0.0110866 -0.0110866 -0.0110866 -0.0110912 -0.0110912 -0.0110866 -0.0110866 -0.0110866 -0.0110866 -0.0110866 -0.0110912 -0.0110912 -0.0110866 -0.0110866 -0.0110866 -0.0110866 -0.0110866 -0.0110912 -0.0110912 -0.0221732 -0.0110866 -0.0110866 -0.0110866 -0.0110912 -0.0110912 -0.0110866 -0.0110866 -0.0221732 -0.0110866 -0.0110912 -0.0110866 -0.0110866 -0.0110912 -0.0221778 -0.0110866 -0.0110866 -0.0110866 -0.0110866 -0.0110866 -0.0221778 -0.0110912 -0.0110866 -0.0110866 -0.0221778 -0.0110866 -0.0110866 -0.0110912 -0.0221732 -0.0110866 -0.0110912 -0.0110866 -0.0221732 -0.0110866 -0.0110866 -0.0110912 -0.0221778 -0.0110866 -0.0221778 -0.0110866 -0.0110866 -0.0110912 -0.0221732 -0.0110866 -0.0221778 -0.0110866 -0.0221778 -0.0110866 -0.0221732 -0.0110912 -0.0221778 -0.0110866 -0.0221732 -0.0110866 -0.0221778 -0.0110866 -0.0221732 -0.0110912 -0.0221778 -0.0110866 -0.0221732 -0.0110866 -0.0221778 -0.0110912 -0.0332643 -0.0110866 -0.0221732 -0.0110866 -0.0221778 -0.0110866 -0.0332643 -0.0110912 -0.0332643 -0.0110866 -0.0221732 -0.0110866 -0.0332643 -0.0110912 -0.0332643 -0.0110866 -0.0332643 -0.0110866 -0.0443509 -0.0110866 -0.0332643 -0.0110912 -0.0443509 -0.0110866 -0.0332598 -0.0110866 -0.0554421 -0.0110866 -0.0443509 -0.0110912 -0.0554375 -0.0110866 -0.0554421 -0.0110866 -0.0665241 -0.0110912 -0.0887065 -0.0110866 -0.0997885 -0.0110866 -0.532216 0 -0.099793 0.0110866z"/>
    <path id="_114710456" class="fil10" d="M1.43033 3.13786l-0.0332643 0.0110912 -0.0332643 0.0110866 -0.0332643 0.0110866 -0.0221732 0.0110866 -0.0332643 0.0110912 -0.0221778 0.0110866 -0.0221732 0.0110866 -0.0110912 0.0110912 -0.0110866 0.0110866 -0.0110866 0.0110866 -0.0110866 0.0110866 -0.0110912 0.0110912 -0.0110866 0.0110866 -0.0110866 0.0110866 -0.0110912 0.0110912 -0.0110866 0.0110866 -0.0110866 0.0221732 -0.0110866 0.0110912 -0.0110912 0.0221732 -0.0110866 0.0110866 -0.0110866 0.0221778 -0.0110866 0.0110866 0 0.0221778 -0.0332643 0 -0.0110912 0.0110866 -0.0110866 0.0110866 -0.0110866 0.0110912 -0.0221778 0.0110866 -0.0110866 0.0110866 -0.0110866 0.0110912 0 0.0887019 0.0110866 0.0221732 0.0110866 0.0110912 0.0332643 0.0110866 0.0110866 0.0110866 0.0332643 0 0.0110912 -0.0221732 0.0110866 -0.0110912 0.0110866 0 0.0332643 0 0.0110866 -0.0110866 0.0110866 -0.0554375 0.0110912 -0.0443509 0.0110866 -0.0221778 0.0110866 -0.0221778 0.0110912 -0.0110866 0.0110866 -0.0221732 0.0110866 -0.0110912 0.0110866 -0.0110866 0.0110912 -0.0221778 0.0110866 -0.0110866 0.0110866 -0.0110866 0.0110912 -0.0110866 0.0110866 -0.0110912 0.0221732 -0.0110866 0.0221778 -0.0110866 0.0221732 -0.0110866 0.0221778 -0.0110912 0.0221778 -0.0110866 0.0238325 -0.0105212 -0.0127459 0.0216078 -0.0110866 0.0554421 0 0.332634 0.421336 0 0.0110866 -0.277197 0.0110912 0.0110866 0.0110866 0.0110912 0.0110866 0.0110866 0.0221778 0.0110866 0.0110866 0.0110866 0.0110866 0.0110912 0.0221778 0.0110866 0.0110866 0.0110866 0.0221778 0.0110912 0.0332643 0.0110866 0.0221732 0.0110866 0.0332643 0.0110866 0.0332643 0.0110912 0.0554375 0.0110866 0.0554421 0.0110866 0.0221732 0.0110866 0.0443509 0.0110912 0.0665287 0 0 -0.0332643 0.0332643 0 0.0110866 -0.0332643 0 -0.0332643 -0.0436982 -0.0134859 0.0372357 -0.0231384 -0.0933259 -0.0077266 0.0131366 -0.0324784 -0.0807592 0.0302077 -0.0321704 0.00227064 -0.0221778 -0.0110866 -0.0110866 0 -0.0332643 -0.0110866 -0.0221732 -0.0110912 -0.0110866 0 -0.0110912 -0.0110866 -0.0110866 0 -0.0221778 -0.0110866 -0.0110866 0 -0.0110866 -0.0110912c-0.153879,-0.0358383 -0.199843,-0.220753 -0.299375,-0.243932 -0.0145799,0.0275924 -0.0249264,0.0554421 -0.0665241,0.0554421 -0.0437856,0 -0.0579288,-0.0296837 -0.0665287,-0.0665287l-0.0665287 0 -0.0221732 0 -0.0443509 0.0110866z"/>
    <path id="_115338872" class="fil8" d="M7.56192 3.91401l0.0221778 0 0.110875 0 0.0665287 0 0 -0.0554421 -0.0104753 -0.211495 -0.0116979 0.000827357c-0.00126861,-0.0181605 0.00493197,-0.0178985 0.0110866,-0.0443509l-0.0221778 0c0.00288196,-0.034703 0.0075979,-0.0665287 0.0443509,-0.0665287l0.0776153 0c0.00467457,-0.209096 0.0632974,-0.181026 -0.00432064,-0.405929 -0.0214745,-0.0714147 -0.0415149,-0.119912 -0.0606774,-0.183255 -0.0284197,-0.0940705 -0.0273258,-0.0982624 -0.148028,-0.0959045l0.031913 0.0309064 0.000652693 0.0639087 -0.139906 0.157239 -0.0811959 -0.14419 0.00872862 -0.0407244 -0.0161518 -0.0343583 0.0426962 -0.0380217 -0.0883112 0.0139685c-0.00344732,0.0130125 -0.0110866,0.0302077 -0.0110866,0.0332643 0,0.323469 0.039419,0.356605 -0.0883985,0.598133l0.0353144 0.0239658 0.0531255 0.386376 0.177362 0.0116106z"/>
    <polygon id="_114710288" class="fil2" points="4.85648,4.16903 5.14477,4.16903 5.14477,3.96945 4.85648,3.96945 "/>
    <path id="_114710168" class="fil16" d="M4.85648 3.96945l0.288288 0 0 0.199581 -0.288288 0 0 -0.199581zm-0.376985 -0.376985l-0.0221778 0.0110866 -0.0110866 0.0110866 -0.0110866 0.0110912 0 0.288283 0.0110866 0.321548 -0.0997885 0c-0.0227018,0.0151912 -0.0776153,0.0670941 -0.0776153,0.0997885l0 0.0110912c0,0.0379757 0.0586228,0.0997885 0.110875,0.0997885l0.953557 0c0.06919,0 0.121966,-0.0317337 0.121966,-0.0997885l0 -0.0332643c0,-0.031081 -0.0461849,-0.0639961 -0.0665241,-0.0776153l-0.124499 8.73321e-005 0.00253263 -0.310548 0 -0.29937 -0.0110912 -0.0110912 -0.0110866 -0.0110866 -0.0221732 -0.0110866 -0.155231 0 0 -0.133057 -0.410254 0 0 0.133057 -0.177404 0z"/>
    <path id="_115338536" class="fil17" d="M6.49748 3.82531l0.0110912 0.0110866 0.0110866 0.177404 -0.0443509 0 0.000565361 -0.201241 0.0216078 0.0127505zm-0.121966 -0.332639l0.0443555 0.0665287c-0.0549595,0.0182478 0,-0.00820922 0,0.0443509l0 0.0110866c0,0.0299457 -0.00528589,0.0305571 -0.0115278,0.0567935l-0.0433029 -0.0124425 -0.0116979 0.321548 0 0.0221778 0 0.255019 0.0221732 0 0 0.11088 0.37699 0c-0.00912391,-0.0340917 -0.0215664,-0.0443509 -0.0665287,-0.0443509l-0.0110866 0c-0.0382423,0 -0.0429123,0.00820922 -0.0776153,0.0110866l0.000785989 -0.0644741 0.0317337 -0.0131412 0.0118312 -0.232841 0 -0.121966 0 -0.388076 0.0737313 -0.140738 -0.373101 -0.00340595 0.0332598 0.121966z"/>
    <polygon id="_114710024" class="fil18" points="0.354812,2.06234 0.332634,2.07343 0.310461,2.08452 0.29937,2.0956 0.288283,2.10669 0.26611,2.11778 0.255019,2.12887 0.243932,2.13995 0.232846,2.15105 0.221755,2.16213 0.210668,2.18431 0.199581,2.1954 0.188495,2.21757 0.177404,2.22866 0.166317,2.25083 0.155231,2.2841 0.144144,2.30628 0.133053,2.35063 0.133053,2.57238 0.144144,2.61673 0.155231,2.63891 0.166317,2.67217 0.177404,2.69435 0.188495,2.70544 0.199581,2.72761 0.210668,2.7387 0.221755,2.76088 0.232846,2.77196 0.243932,2.78305 0.221755,2.79414 0.210668,2.80523 0.188495,2.81631 0.166317,2.82741 0.144144,2.83849 0.133053,2.84958 0.133053,2.87176 0.11088,2.87176 0.0997885,2.88284 0.0887019,2.89393 0.0887019,2.91611 0.0665287,2.91611 0.0554375,2.93828 0.0554375,2.96046 0.0332643,2.96046 0.0221732,2.98263 0.0110866,3.0159 0,3.04916 0,3.27092 0.0110866,3.30418 0.0221732,3.33744 0.0332643,3.35962 0.0554375,3.35962 0.0554375,3.38179 0.0665287,3.40397 0.0887019,3.40397 0.0887019,3.42615 0.0997885,3.43724 0.11088,3.44832 0.133053,3.44832 0.133053,3.4705 0.144144,3.48159 0.166317,3.49267 0.188495,3.50377 0.210668,3.51485 0.221755,3.52594 0.255019,3.53702 0.26611,3.54812 0.310461,3.5592 0.354812,3.57029 0.432427,3.57029 0.432427,4.26883 0.432427,4.39079 0.543307,4.39079 0.543307,4.22448 0.543307,3.57029 0.598744,3.57029 0.643095,3.5592 0.687446,3.54812 0.698533,3.53702 0.731797,3.52594 0.742888,3.51485 0.765062,3.50377 0.787239,3.49267 0.809413,3.48159 0.820499,3.4705 0.820499,3.44832 0.842677,3.44832 0.853764,3.43724 0.864855,3.42615 0.864855,3.40397 0.887028,3.40397 0.898114,3.38179 0.898114,3.35962 0.920292,3.35962 0.931379,3.33744 0.942465,3.30418 0.953557,3.27092 0.953557,3.04916 0.942465,3.0159 0.931379,2.98263 0.920292,2.96046 0.898114,2.96046 0.898114,2.93828 0.887028,2.91611 0.864855,2.91611 0.864855,2.89393 0.853764,2.88284 0.842677,2.87176 0.820499,2.87176 0.820499,2.84958 0.809413,2.83849 0.787239,2.82741 0.765062,2.81631 0.742888,2.80523 0.731797,2.79414 0.709624,2.78305 0.720711,2.77196 0.731797,2.76088 0.742888,2.7387 0.753975,2.72761 0.765062,2.70544 0.776148,2.69435 0.787239,2.67217 0.798326,2.63891 0.809413,2.61673 0.820499,2.57238 0.820499,2.35063 0.809413,2.30628 0.798326,2.2841 0.787239,2.25083 0.776148,2.22866 0.765062,2.21757 0.753975,2.1954 0.742888,2.18431 0.731797,2.16213 0.720711,2.15105 0.709624,2.13995 0.698533,2.12887 0.687446,2.11778 0.665273,2.10669 0.654182,2.0956 0.643095,2.08452 0.620918,2.07343 0.598744,2.06234 0.56548,2.05125 0.388076,2.05125 "/>
    <path id="_114709832" class="fil17" d="M1.38598 3.73661l0.0110866 0.0332643 0.0110866 0.0221778 0.0110866 0.0110866 0.0110912 0.0110866 0.0110866 0.0221778 0.0110866 0.0110866 0.0221778 0.0110866 0.0110866 0.0110912 0.0221778 0.0110866 0.0233958 4.13679e-005 -0.0123092 0.0997471 0 0.0776153c-0.00384261,0.172127 -0.150253,0.315701 -0.267724,0.378341l0.0218238 0.0291184 -0.0898372 0.071548 0.124936 0.172251 0.0112199 -0.00816326 0 -0.0443509c0,-0.0500229 -0.0264111,-0.078006 -0.0713274,-0.0923239l0.038063 -0.0518155c0.0775739,0.0164138 0.185613,-0.106122 0.235553,-0.163614 0.105727,-0.121704 0.0649981,-0.200105 0.119259,-0.313164l0.000303364 -0.0459229 0.032961 0.0126586 0.0110866 0.0110866 0.0110866 0.0110912c0.102367,0.0685327 0.166322,0.215949 0.166322,0.388072l0 0.188495 0.0221732 0 0 0.0997885 0.221759 0c-0.00751056,-0.0280658 -0.0214331,-0.0554375 -0.0554421,-0.0554375l-0.0554375 0c-0.0299457,0 -0.0305571,0.0052813 -0.0554421,0.0110866l0 -0.0554375c0.0247104,-0.00659128 0.0332643,-0.002574 0.0332643,-0.0332643l0 -0.11088c0,-0.0870426 -0.0110866,-0.171948 -0.0264065,-0.250786 -0.0201278,-0.103544 -0.0805846,-0.136633 -0.0955597,-0.192728l0 -0.0110866 -0.0110866 -0.0221778 -0.0110866 -0.0110866 -0.0110912 -0.0110866 -0.0110866 -0.0110866 -0.0110866 -0.0110912 -0.0110866 -0.0110866 -0.0110912 -0.0110866 -0.0110866 -0.0110866 -0.0110866 -0.0110912 -0.0110912 -0.0110866 -0.0110866 -0.0110866 0 -0.0110912 0.0110866 -0.0110866 0.0110912 -0.0110866 0.0110866 -0.0110866 0.0110866 -0.0110912 0.0110912 -0.0221732 0.0110866 -0.0110912 0.0110866 -0.0332598 0 -0.0665287 -0.421336 0 0 0.0554375z"/>
    <path id="_115338440" class="fil15" d="M7.34016 2.57238c0,-0.0719387 0.00694061,-0.177624 0.0347904,-0.220229 0.0152326,-0.0233085 0.150381,-0.0680547 0.175878,-0.0680547l0.0665287 0c0.125239,0 0.18849,0.146893 0.18849,0.277197l0 0.133053 -0.0110866 0.121966 -0.177404 0.0120059c0,0.0449623 -0.0135778,0.132138 -0.0554421,0.132138l-0.0221732 0c-0.0441349,0 -0.0443555,-0.0862566 -0.0443555,-0.133053l-0.110875 0c-0.0547848,0 -0.0524269,-0.220321 -0.0443509,-0.255024zm-0.465692 -1.59665l-0.0554375 0.0110912 -0.0332643 0.0110866 -0.0332643 0.0110866 -0.0332643 0.0110866 -0.0332643 0.0110912 -0.0221732 0.0110866 -0.0332643 0.0110866 -0.0221778 0.0110866 -0.0221732 0.0110912 -0.0221778 0.0110866 -0.0110866 0.0110866 -0.0221778 0.0110912 -0.0221732 0.0110866 -0.0110912 0.0110866 -0.0221732 0.0110866 -0.0110866 0.0110912 -0.0221778 0.0110866 -0.0110866 0.0110866 -0.0110866 0.0110912 -0.0221778 0.0110866 -0.0110866 0.0110866 -0.0110912 0.0110866 -0.0110866 0.0110912 -0.0221732 0.0110866 -0.0110912 0.0110866 -0.0110866 0.0110866 -0.0110866 0.0110912 -0.0110912 0.0110866 -0.0110866 0.0110866 -0.0110866 0.0110912 -0.0110866 0.0110866 -0.0110912 0.0110866 -0.0110866 0.0110866 -0.0110866 0.0110912 -0.0110866 0.0110866 -0.0110912 0.0110866 -0.0110866 0.0221778 -0.0110866 0.0110866 -0.0110912 0.0110866 -0.0110866 0.0110912 -0.0110866 0.0221732 -0.0110866 0.0110866 -0.0110912 0.0110912 -0.0110866 0.0221732 -0.0110866 0.0110912 -0.0110912 0.0221732 -0.0110866 0.0110866 -0.0110866 0.0221778 -0.0110866 0.0110866 -0.0110912 0.0221778 -0.0110866 0.0221732 -0.0110866 0.0110912 -0.0110866 0.0221732 -0.0110912 0.0221778 -0.0110866 0.0221732 -0.0110866 0.0221778 -0.0110912 0.0221732 -0.0110866 0.0332643 -0.0110866 0.0221778 -0.0110866 0.0221732 -0.0110912 0.0332643 -0.0110866 0.0332643 -0.0110866 0.0332643 -0.0110866 0.0332643 -0.0110912 0.0332643 -0.0110866 0.0443509 -0.0110866 0.0443509 -0.0110912 0.0554375 -0.0110866 0.0554421 -0.0110866 0.0887019 0 0.41025 0.0110866 0.0887019 0.0110866 0.0554421 0.0110912 0.0554375 0.0110866 0.0443509 0.0110866 0.0443509 0.0110912 0.0332643 0.0110866 0.0332643 0.0110866 0.0332643 0.0110866 0.0332643 0.0110912 0.0332598 0.0110866 0.0221778 0.0110866 0.0221732 0.0110866 0.0332643 0.0110912 0.0221778 0.0110866 0.0221732 0.0110866 0.0221778 0.0110912 0.0221778 0.0110866 0.0221732 0.0110866 0.0110866 0.0110866 0.0221778 0.0110912 0.0221732 0.0110866 0.0110912 0.0110866 0.0221732 0.0110866 0.0110912 0.0110912 0.0221732 0.0110866 0.0110866 0.0110866 0.0221778 0.0110912 0.0110866 0.0110866 0.0110912 0.0110866 0.0221732 0.0110866 0.0110866 0.0110912 0.0110912 0.0110866 0.0110866 0.0110866 0.0221732 0.0110912 0.0110912 0.0110866 0.0110866 0.0110866 0.0110866 0.0110866 0.0110912 0.0110912 0.0110866 0.0110866 0.0110866 0.0110866 0.0110866 0.0110866 0.0110912 0.0110912 0.0110866 0.0110866 0.0110866 0.0110866 0.0110912 0.0110912 0.0110866 0.0110866 0.266106 0.0116979 -0.321548 0.0433029 0.0124425c0.00624195,-0.0262364 0.0115278,-0.0268477 0.0115278,-0.0567935l0 -0.0110866c0,-0.0525602 -0.0549595,-0.0261031 0,-0.0443509l-0.0443555 -0.0665287 -0.076172 0.0261077c-0.00353465,-0.0983544 -0.0901451,-0.285447 -0.0901451,-0.392006l0 -0.0332643 0.0121805 -0.132924c0.0392857,-0.0604154 0.150211,-0.194034 0.25393,-0.144273 -0.0211711,-0.0793573 -0.144144,-0.0419056 -0.144144,-0.232841l-0.0548722 -0.0133618c-0.00790126,-0.0292011 -0.0116519,-0.0166758 -0.0116519,-0.0420803 0,-0.00305662 0.00763926,-0.0202565 0.0110866,-0.0332643l-0.00689924 -0.210797 0.0729039 -0.0136238c0.00313936,-0.114502 0.292213,-0.0860359 0.410774,-0.0860359l0 0.144139c0,0.031651 -0.0251011,0.0387203 -0.0443509,0.0554421l0 0.0443509c0.0177652,0.0264938 0.0554375,0.0494116 0.0554375,0.0776153 0,0.0336964 -0.0192498,0.0376264 -0.0443509,0.0443509l0 0.0776153c0,0.112447 -0.127684,0.126852 -0.144144,0.18849 0.126333,-0.0606315 0.299375,0.0670067 0.299375,0.210673l0 0.0332598c0,0.0592847 -0.0190752,0.264451 -0.0327817,0.299853 -0.0244484,0.062994 -0.0884858,0.181688 -0.100271,0.232368l-0.0560075 -0.0772246 -0.0437856 -0.000390696 0 0.388076 0.0221778 0.0110866 0.0221732 0.0110866 0.0332643 0.0110866 0.0332643 0.0110912 0.0332643 0.0110866 0.0332643 0.0110866 0.0554375 0.0110866 0.0554375 0.0110912 0.321548 0 0.0554421 -0.0110912 0.0554375 -0.0110866 0.0332643 -0.0110866 0.0332643 -0.0110866 0.0110866 0.0110866 0.0110866 0.0443509 0.0110912 0.0665287 0.0110866 0.0554375 0.0108706 0.0237038 -0.0441349 -0.0126172 -0.0665287 -0.0110866 -0.0776153 0 0 -0.0221732 -0.0887019 -0.0110912 -0.0776153 -0.0110866 -0.0997885 -0.0110866 -0.0887019 -0.0110912 -0.099793 0 0 -0.0221732 -0.11088 -0.0110866 -0.0887019 0 -0.0118312 0.232841 -0.0317337 0.0131412 -0.000785989 0.0644741c0.034703,-0.00287736 0.039373,-0.0110866 0.0776153,-0.0110866l0.0110866 0c0.0449623,0 0.0574048,0.0102592 0.0665287,0.0443509l-0.37699 0 0 -0.11088 -0.0221732 0 0 -0.255019 -0.0110866 -0.0110866 -0.133057 -0.0110912 -0.0110866 -0.0110866 -0.177404 -0.0110866 -0.188495 -0.0110866 -0.221759 -0.0110912 -0.255019 -0.0110866 -0.0887019 0 -0.00253263 0.310548 0.124499 -8.73321e-005c0.0203392,0.0136192 0.0665241,0.0465342 0.0665241,0.0776153l0 0.0332643c0,0.0680547 -0.0527762,0.0997885 -0.121966,0.0997885l-0.953557 0c-0.0522522,0 -0.110875,-0.0618128 -0.110875,-0.0997885l0 -0.0110912c0,-0.0326944 0.0549135,-0.0845973 0.0776153,-0.0997885l0.0997885 0 -0.0110866 -0.321548 -1.08661 0 -0.243932 0.0110866 0 0.498956 -0.432427 0 0 -0.476778 -0.11088 0 -0.188495 0.0110866 -0.177404 0.0110866 -0.0110866 0.0110866 -0.133057 0.0110912 -0.133053 0.0110866 -0.0665287 0.0110866c0.0149752,0.0560948 0.075432,0.0891845 0.0955597,0.192728 0.0153199,0.0788379 0.0264065,0.163743 0.0264065,0.250786l0 0.11088c0,0.0306903 -0.00855395,0.0266731 -0.0332643,0.0332643l0 0.0554375c0.0248851,-0.00580529 0.0254964,-0.0110866 0.0554421,-0.0110866l0.0554375 0c0.034009,0 0.0479316,0.0273717 0.0554421,0.0554375l-0.221759 0 0 -0.0997885 -0.0221732 0 0 -0.188495c0,-0.172122 -0.0639547,-0.319539 -0.166322,-0.388072l-0.0332598 0 -0.0221778 0.0110866c-0.0542608,0.113058 -0.0135319,0.19146 -0.119259,0.313164 -0.0499402,0.0574921 -0.157979,0.180028 -0.235553,0.163614l-0.038063 0.0518155c0.0449163,0.0143179 0.0713274,0.0423009 0.0713274,0.0923239l0 0.0443509 -0.0112199 0.00816326 -0.124936 -0.172251 0.0898372 -0.071548 -0.0218238 -0.0291184c0.117471,-0.0626401 0.263881,-0.206214 0.267724,-0.378341l-0.0665287 0 -0.0887019 0.0110912 -0.0997885 0.0110866 -0.0776153 0.0110866 -0.0887065 0.0110912 0 0.0221732 -0.0776153 0 -0.0665241 0.0110866 -0.0665287 0.0110912 -0.0665287 0.0110866 -0.0665241 0.0110866 0 0.0221778 -0.0554421 0 -0.0554375 0.0110866 -0.0554375 0.0110866 -0.0443509 0.0110912 0 0.166317 -0.11088 0 0 -0.121966 -0.0221778 0 -0.0443509 0.0110866 -0.0332643 0.0110866 -0.0110866 0.0110912 -0.0332643 0.0110866 -0.0332643 0.0110866 -0.0221732 0.0110866 -0.0332643 0.0110912 -0.0221778 0.0110866 -0.0110866 0.0110866 -0.0221732 0.0110866 -0.0221778 0.0110912 -0.0221778 0.0110866 -0.0110866 0.0110866 -0.0221732 0.0110912 -0.0110912 0.0221732 -0.0110866 0.0110866 -0.0221778 0.0110912 -0.0110866 0.0221732 -0.0110866 0.0221778 0 0.11088 0.0110866 0.0221732 0.0110866 0.0221778 0.0221778 0.0110866 0.0110866 0.0110866 0.0110912 0.0221778 0.0221732 0.0110866 0.0110866 0.0110866 0.0221778 0.0110912 0.0221778 0.0110866 0.0221732 0.0110866 0.0110866 0.0110866 0.0221778 0.0110912 0.0332643 0.0110866 0.0221732 0.0110866 0.0332643 0.0110912 0.0332643 0.0110866 0.0110866 0.0110866 0.0332643 0.0110866 0.0443509 0.0110912 0.0332643 0.0110866 0.0443509 0.0110866 0.0443509 0.0110866 0.0110912 0.0110912 0.0443509 0.0110866 0.0554375 0.0110866 0.0554375 0.0110912 0.0554421 0 0 0.0221732 0.0665241 0.0110866 0.0665287 0.0110912 0.0665287 0.0110866 0.0665241 0.0110866 0.0776153 0 0 0.0221778 0.0887065 0.0110866 0.0776153 0.0110866 0.0997885 0.0110912 0.0887019 0.0110866 0.099793 0 0 0.0221732 0.11088 0.0110912 0.121966 0.0110866 0.133053 0.0110866 0.133053 0.0110912 0.133057 0.0110866 0.0110866 0.0110866 0.177404 0.0110866 0.188495 0.0110912 0.221759 0.0110866 0.255019 0.0110866 0.310461 0.0110912 1.69644 0 0.310461 -0.0110912 0.255019 -0.0110866 0.221759 -0.0110866 0.188495 -0.0110912 0.177404 -0.0110866 0.0110866 -0.0110866 0.133057 -0.0110866 0.133053 -0.0110912 0.133053 -0.0110866 0.121966 -0.0110866 0.11088 -0.0110912 0 -0.0221732 0.099793 0 0.0887019 -0.0110866 0.0997885 -0.0110912 0.0776153 -0.0110866 0.0887019 -0.0110866 0 -0.0221778 0.0776153 0 0.0665287 -0.0110866 0.0665287 -0.0110866 0.0665241 -0.0110912 0.0665287 -0.0110866 0 -0.0221732 0.0554375 0 0.0554421 -0.0110912 0.0554375 -0.0110866 0.0443509 -0.0110866 0.0110912 -0.0110912 0.0443509 -0.0110866 0.0443509 -0.0110866 0.0332643 -0.0110866 0.0443509 -0.0110912 0.0332643 -0.0110866 0.0110866 -0.0110866 0.0332643 -0.0110866 0.0332643 -0.0110912 0.0221732 -0.0110866 0.0332643 -0.0110866 0.0221732 -0.0110912 0.0110912 -0.0110866 0.0221732 -0.0110866 0.0221778 -0.0110866 0.0221732 -0.0110912 0.0110912 -0.0110866 0.0221732 -0.0110866 0.0110912 -0.0221778 0.0110866 -0.0110866 0.0221732 -0.0110866 0.0110912 -0.0221778 0.0110866 -0.0221732 0 -0.11088 -0.0110866 -0.0221778 -0.0110912 -0.0221732 -0.0221732 -0.0110912 -0.0110866 -0.0110866 -0.0110912 -0.0221732 -0.0221732 -0.0110912 -0.0110912 -0.0110866 -0.0221732 -0.0110866 -0.0221778 -0.0110912 -0.0221732 -0.0110866 -0.0110912 -0.0110866 -0.0221732 -0.0110866 -0.0332643 -0.0110912 -0.0221732 -0.0110866 -0.0332643 -0.0110866 -0.0332643 -0.0110866 -0.0110866 -0.0110912 -0.0332643 -0.0110866 -0.0443509 -0.0110866 -0.0332643 -0.0110912 -0.0443509 -0.0110866 -0.0443509 -0.0110866 -0.0110912 -0.0110866 -0.0443509 -0.0110912 -0.0221732 0 0 -0.0221732 -0.0110912 -0.0443509 -0.0110866 -0.0221778 -0.0110866 -0.0443509 -0.0110866 -0.0443509 -0.0110912 -0.0332643 -0.0110866 -0.0332643 -0.0110866 -0.0443509 -0.0110912 -0.0110866 -0.110875 0 0 0.0443509 0.0110866 0.0221732 0.0110866 0.0221778 0.0110912 0.0332643 0.0110866 0.0221732 0.0110866 0.0110912 0.0110866 0.0332643 0.0110912 0.0332598 0.0110866 0.0110912 0.0110866 0.0332598 -0.0443509 -0.0110866 -0.0665287 0 0 -0.0443509 -0.0110866 -0.210668 -0.177362 -0.0116106 -0.0531255 -0.386376 -0.0353144 -0.0239658c0.127817,-0.241528 0.0883985,-0.274664 0.0883985,-0.598133 0,-0.00305662 0.00763926,-0.0202519 0.0110866,-0.0332643l0.0883112 -0.0139685 -0.0426962 0.0380217 0.0161518 0.0343583 -0.00872862 0.0407244 0.0811959 0.14419 0.139906 -0.157239 -0.000652693 -0.0639087 -0.031913 -0.0309064c0.120702,-0.00235797 0.119608,0.00183397 0.148028,0.0959045 0.0191625,0.0633434 0.0392029,0.11184 0.0606774,0.183255 0.0676181,0.224903 0.00899521,0.196833 0.00432064,0.405929l-0.0776153 0c-0.036753,0 -0.041469,0.0318257 -0.0443509,0.0665287l0.0221778 0c-0.00615462,0.0264524 -0.0123552,0.0261904 -0.0110866,0.0443509l0.0116979 -0.000827357 0.0104753 0.211495 0.0110866 0 0.0110912 -0.0997885 0.0110866 -0.0110866 0.0110866 -0.0110912 0.0110866 -0.0110866 0.0221778 -0.0110866 0.0110866 -0.0110866 0.0110912 -0.0110912 0.0110866 -0.0110866 0.0110866 -0.0110866 0.0110866 -0.0110912 0.0110912 -0.0110866 0.0110866 -0.0110866 0.0110866 -0.0110866 0.0110912 -0.0110912 0.0110866 -0.0110866 0.0110866 -0.0110866 0.0110866 -0.0110912 0.0110912 -0.0221732 0.0110866 -0.0110866 0.0110866 -0.0110912 0.0110866 -0.0110866 0.0110912 -0.0221732 0.0110866 -0.0110912 0.0110866 -0.0110866 0.0110912 -0.0221778 0.0110866 -0.0110866 0.0110866 -0.0221732 0.0110866 -0.0110912 0.0110912 -0.0221732 0.0110866 -0.0110912 0.0110866 -0.0221732 0.0110912 -0.0221778 0.0110866 -0.0110866 0.0110866 -0.0221732 0.0110866 -0.0221778 0.0110912 -0.0221778 0.0110866 -0.0221732 0.0110866 -0.0221778 0.0110866 -0.0332643 0.0110912 -0.0221732 0.0110866 -0.0221778 0.0110866 -0.0332598 0.0110912 -0.0332643 0.0110866 -0.0332643 0.0110866 -0.0332643 0.0110866 -0.0332643 0.0110912 -0.0443509 0.0110866 -0.0443509 0.0110866 -0.0554375 0.0110912 -0.0554421 0.0110866 -0.0887019 0 -0.41025 -0.0110866 -0.0887019 -0.0110912 -0.0554421 -0.0110866 -0.0554375 -0.0110866 -0.0443509 -0.0110912 -0.0443509 -0.0110866 -0.0332643 -0.0110866 -0.0332643 -0.0110866 -0.0332643 -0.0110912 -0.0332643 -0.0110866 -0.0332643 -0.0110866 -0.0221732 -0.0110912 -0.0221778 -0.0110866 -0.0332643 -0.0110866 -0.0221732 -0.0110866 -0.0221778 -0.0110912 -0.0221732 -0.0110866 -0.0221778 -0.0110866 -0.0221732 -0.0110866 -0.0110912 -0.0110912 -0.0221732 -0.0110866 -0.0221778 -0.0110866 -0.0110866 -0.0110912 -0.0221778 -0.0110866 -0.0110866 -0.0110866 -0.0221732 -0.0110866 -0.0110912 -0.0110912 -0.0221732 -0.0110866 -0.0110912 -0.0110866 -0.0110866 -0.0110912 -0.0221732 -0.0110866 -0.0110912 -0.0110866 -0.0110866 -0.0110866 -0.0110866 -0.0110912 -0.0221778 -0.0110866 -0.0110866 -0.0110866 -0.0110866 -0.0110866 -0.0110912 -0.0110912 -0.0110866 -0.0110866 -0.0110866 -0.0110866 -0.0110866 -0.0110912 -0.0110912 -0.0110866 -0.0110866 -0.0110866 -0.0110866 -0.0110866 -0.0110912 -0.0110912 -0.0110866 -0.0110866 -0.0110866 -0.0221778 -0.0110866 -0.0110866 -0.0110912 -0.0110866 -0.0110866 -0.0110866 -0.0110866 -0.0221778 -0.0110866 -0.0110866 -0.0110912 -0.0110866 -0.0110866 -0.0221778 -0.0110866 -0.0110866 -0.0110912 -0.0221778 -0.0110866 -0.0110866 -0.0110866 -0.0221778 -0.0110866 -0.0221732 -0.0110912 -0.0110866 -0.0110866 -0.0221778 -0.0110866 -0.0221778 -0.0110912 -0.0221732 -0.0110866 -0.0332643 -0.0110866 -0.0221778 -0.0110866 -0.0332598 -0.0110912 -0.0332643 -0.0110866 -0.0332643 -0.0110866 -0.0332643 -0.0110866 -0.0554375 -0.0110912 -0.0554421 -0.0110866 -0.321548 0 -0.0554375 0.0110866z"/>
   </g>
   <ellipse id="_114704792" class="fil19 str0" cx="1.58651" cy="2.80226" rx="0.0183673" ry="0.0229592"/>
   <ellipse id="_114696080" class="fil19 str0" cx="1.74208" cy="2.79975" rx="0.0183673" ry="0.0229592"/>
   <polygon id="_114693632" class="fil20" points="1.6661,2.85277 1.64161,2.90175 1.68447,2.90481 "/>
   <path id="_114712376" class="fil21 str1" d="M1.73371 2.96861c0.00703713,0.00359441 0.0110958,0.00780014 0.0110958,0.0122817 0,0.0132791 -0.0354431,0.0240485 -0.0791505,0.0240485 -0.0437028,0 -0.0791459,-0.0107694 -0.0791459,-0.0240485 0,-0.00382882 0.0029647,-0.00746 0.00821382,-0.0106775 0.0176641,0.00661886 0.041377,0.0106775 0.0674664,0.0106775 0.0281393,0 0.0535208,-0.00472053 0.0715204,-0.0122817z"/>
   <ellipse id="_114700760" class="fil19 str0" cx="6.45232" cy="2.49614" rx="0.0198979" ry="0.0229592"/>
   <ellipse id="_114694016" class="fil19 str0" cx="6.6161" cy="2.49614" rx="0.0198979" ry="0.0229592"/>
   <ellipse id="_114706880" class="fil19 str0" cx="7.45181" cy="2.59257" rx="0.0198979" ry="0.0229592"/>
   <ellipse id="_114706304" class="fil19 str0" cx="7.61865" cy="2.58645" rx="0.0198979" ry="0.0229592"/>
   <path id="_114705488" class="fil22 str2" d="M6.58571 2.6146c0.00148005,0.00620518 0.00228442,0.0128148 0.00228442,0.0196589 0,0.0364267 -0.0225547,0.0659633 -0.0503631,0.0659633 -0.0278084,0 -0.0503631,-0.0295366 -0.0503631,-0.0659633 0,-0.0050147 0.000445854,-0.0099053 0.00125482,-0.0145983 0.00763007,0.0237222 0.0261858,0.0404761 0.0478718,0.0404761 0.0232028,0 0.0428249,-0.0191763 0.0493151,-0.0455368z"/>
   <path id="_114712976" class="fil22 str2" d="M7.5856 2.67527c0.00148005,0.00620518 0.00228442,0.0128148 0.00228442,0.0196589 0,0.0364267 -0.0225547,0.0659633 -0.0503631,0.0659633 -0.0278084,0 -0.0503631,-0.0295366 -0.0503631,-0.0659633 0,-0.0050147 0.000445854,-0.0099053 0.00125482,-0.0145983 0.00763007,0.0237222 0.0261858,0.0404761 0.0478718,0.0404761 0.0232028,0 0.0428249,-0.0191763 0.0493151,-0.0455368z"/>
  </g>
 </g>
</svg>
