<?xml version="1.0" encoding="UTF-8"?>
<!DOCTYPE svg PUBLIC "-//W3C//DTD SVG 1.1//EN" "http://www.w3.org/Graphics/SVG/1.1/DTD/svg11.dtd">
<!-- Creator: CorelDRAW -->
<svg xmlns="http://www.w3.org/2000/svg" xml:space="preserve" width="5.89667in" height="4.38769in" style="shape-rendering:geometricPrecision; text-rendering:geometricPrecision; image-rendering:optimizeQuality; fill-rule:evenodd; clip-rule:evenodd"
viewBox="0 0 5.36253 3.99023"
 xmlns:xlink="http://www.w3.org/1999/xlink">
 <defs>
  <style type="text/css">
   <![CDATA[
    .fil24 {fill:#0F303F}
    .fil22 {fill:#103754}
    .fil1 {fill:#16B0BF}
    .fil20 {fill:#25D4DB}
    .fil7 {fill:#2A4962}
    .fil17 {fill:#2D5972}
    .fil15 {fill:#4D8EB4}
    .fil11 {fill:#619DC1}
    .fil23 {fill:#627C94}
    .fil13 {fill:#74ACCD}
    .fil0 {fill:#76BBC4}
    .fil12 {fill:#88BBDA}
    .fil16 {fill:#9BCAE6}
    .fil9 {fill:#A6DAE8}
    .fil8 {fill:#B7B7B7}
    .fil5 {fill:#CDCDCD}
    .fil2 {fill:#CEE2F1}
    .fil19 {fill:#E08C1A}
    .fil21 {fill:#E54717}
    .fil6 {fill:#EAEAEA}
    .fil4 {fill:#F5A829}
    .fil10 {fill:#F5E6B6}
    .fil18 {fill:#F99B1D}
    .fil3 {fill:#FDC00F}
    .fil14 {fill:#FDFDFD}
   ]]>
  </style>
 </defs>
 <g id="Layer_x0020_1">
  <metadata id="CorelCorpID_0Corel-Layer"/>
  <g id="_114906760">
   <path id="_114610144" class="fil0" d="M3.92689 1.52713c0.0245793,-0.00572502 0.0236949,-0.0140745 0.0492624,-0.0140745l1.32304 0 0 0.0844504 -1.32304 0c-0.0255675,0 -0.0246831,-0.00835302 -0.0492624,-0.0140745l0 -0.0563014zm-1.33711 -1.52009l-0.0351879 0.00703902 -0.0562978 0.00703544 -0.0422234 0.00703902 -0.0211135 0.00703544 -0.0422234 0.00703902 -0.0351879 0.00703544 -0.0140745 0.00703902 -0.0281525 0.00703902 -0.0281489 0.00703544 -0.0211135 0.00703902 -0.0281489 0.00703544 -0.0211135 0.00703902 -0.0140745 0.00703544 -0.0281489 0.00703902 -0.0140745 0.00703902 -0.0140745 0.00703544 -0.0211135 0.00703902 -0.0211135 0.00703544 -0.0140745 0.00703902 -0.0211135 0.00703544 -0.0140745 0.00703902 -0.0140745 0.00703902 -0.0140745 0.00703544 -0.0211135 0.00703902 -0.00703544 0.00703544 -0.0211135 0.00703902 -0.0140745 0.00703544 -0.00703544 0.00703902 -0.014078 0.00703902 -0.0140745 0.00703544 -0.0140745 0.00703902 -0.0140745 0.00703544 -0.0140745 0.00703902 -0.00703902 0.00703544 -0.0140745 0.00703902 -0.0140745 0.00703902 -0.00703544 0.00703544 -0.0140745 0.00703902 -0.0140745 0.00703544 -0.00703902 0.00703902 -0.0140745 0.00703544 -0.0140745 0.00703902 -0.00703902 0.00703902 -0.00703544 0.00703544 -0.0140745 0.00703902 -0.00703902 0.00703544 -0.0140745 0.00703902 -0.00703902 0.00703544 -0.0140745 0.00703902 -0.0703723 0.00703902 -0.00703902 0.0562978 -0.0140745 0.00703902 -0.00703544 0.00703544 -0.00703902 0.00703902 -0.00703902 0.00703544 -0.0140745 0.00703902 0 0.0140745 -0.0140745 0 -0.00703544 0.00703544 -0.00703902 0.00703902 -0.00703544 0.00703544 -0.00703902 0.00703902 -0.00703902 0.00703902 -0.0140745 0.00703544 -0.00703544 0.00703902 0 0.0140745 -0.0140745 0 -0.00703902 0.00703544 0 0.0140745 -0.0140745 0 -0.00703902 0.00703902 0 0.0140745 -0.0140745 0 -0.00703544 0.00703902 0 0.0140745 -0.0140745 0 -0.00703902 0.00703544 0 0.0140745 -0.0140745 0 -0.00703902 0.014078 -0.00703544 0.00703544 -0.00703902 0.00703902 -0.00703544 0.00703544 -0.00703902 0.00703902 -0.00703544 0.00703544 -0.00703902 0.0140745 -0.00703544 0.00703902 -0.00703902 0.00703902 -0.00703544 0.00703544 -0.00703902 0.0140745 -0.00703902 0.00703902 -0.00703544 0.00703544 0 0.0140745 -0.0140745 0 -0.00703902 0.0140745 -0.00703544 0.00703902 -0.00703902 0.00703902 -0.00703544 0.0140745 -0.00703902 0.00703544 -0.00703902 0.0140745 -0.00703544 0.00703902 0 0.0140745 -0.394099 0 0.781156 0.00703902 0 -0.464472 2.13239 0 -0.00708199 2.19568 0.00703902 0.0914858 0.00159327 0.0564983 -0.00863229 0.0772144 0.00703902 0.281496 0.295571 0.281496 0.00703544 0 0.0140745 -0.00703544 0 -0.0140745 0.0140745 0 0.00703902 -0.00703902 0.00703902 -0.00703902 0.00703544 -0.00703544 0.00703902 -0.00703902 0.00703544 -0.00703544 0.00703902 -0.00703902 0.00703544 -0.00703544 0.00703902 -0.00703902 0.0140745 -0.00703544 0.00703902 -0.00703902 0.00703544 -0.0140745 0.00703902 -0.00703902 0.00703544 -0.00703544 0.00703902 -0.00703902 0.00703544 -0.00703544 0.00703902 -0.00703902 0.00703544 -0.00703544 0.00703902 -0.00703902 0.00703902 -0.00703902 0 -0.0140745 0.0140745 0 0.00703544 -0.0140745 0.00703902 -0.00703544 0 -0.00703902 0 -0.0140745 -0.119638 0c-0.0198747,0 -0.02715,-0.0161475 -0.0351844,-0.0281489l0 -0.90783 0 -0.38706c0.00803437,-0.0120014 0.0153097,-0.0281489 0.0351844,-0.0281489l0.570035 0 0 -0.0140745 0 -0.0844504 -0.00703902 -0.0351844 -0.00703544 -0.042227 0.591142 0 0 -0.0985212 -0.612255 0 0 -0.0281525 -0.00703544 -0.0281489 -0.00703902 -0.0281489 -0.00703902 -0.0281525 -0.00703544 -0.0281489 -0.00703902 -0.0140745 -0.00703544 -0.0281489 -0.00703902 -0.0211135 -0.00703544 -0.0140745 -0.00703902 -0.0281489 -0.00703902 -0.0211135 -0.00703544 -0.0140745 -0.00703902 -0.0211135 -0.00703544 -0.0211135 -0.00703902 -0.00703544 -0.00703544 -0.0211135 -0.00703902 -0.0211135 -0.00703902 -0.00703544 -0.00703544 -0.0211135 -0.00703902 -0.0140745 -0.00703544 0 -0.0281525 -0.0140745 0 0.0703723c0,0.0912029 -0.0565843,0.147787 -0.147787,0.147787l-0.387057 0c-0.0410991,0 -0.0969853,-0.0492624 -0.0985248,-0.0492624 -0.0208987,0 -0.0188256,0.014078 -0.0492624,0.014078 -0.0162155,0 -0.0211099,-0.00489796 -0.0211099,-0.0211135l0 -0.00703902c0,-0.0224919 0.0302148,-0.0307483 0.0492624,-0.0351879l0 -0.267422c0,-0.223609 0.418442,-0.0777157 0.506691,-0.133709l0 -0.0140745 -0.00703544 -0.00703902 -0.00703902 -0.00703544 -0.00703544 -0.014078 -0.00703902 -0.00703544 -0.00703544 -0.00703902 -0.00703902 -0.0140745 -0.00703544 -0.00703544 -0.00703902 -0.00703902 -0.00703902 -0.0140745 -0.00703544 -0.00703544 -0.00703902 -0.00703902 -0.00703544 -0.00703902 -0.00703902 -0.00703544 -0.00703544 -0.00703902 -0.00703902 -0.00703544 -0.00703544 -0.0140745 -0.00703902 -0.00703902 -0.00703544 -0.00703544 -0.00703902 -0.00703902 -0.00703902 -0.00703902 -0.00703544 -0.00703544 -0.00703902 -0.0140745 -0.0140745 0 0 -0.0140745 -0.00703544 -0.00703902 -0.0140745 0 0 -0.0140745 -0.00703902 -0.00703902 -0.0140745 0 0 -0.0140745 -0.00703902 -0.00703544 -0.0140745 0 0 -0.0140745 -0.0140745 -0.00703902 -0.00703544 -0.00703544 -0.00703902 -0.00703902 -0.00703902 -0.00703902 -0.00703544 -0.00703544 -0.00703902 -0.00703902 -0.0140745 -0.00703544 -0.00703544 -0.00703902 -0.00703902 -0.00703544 -0.00703544 -0.00703902 -0.00703902 -0.00703544 -0.00703902 -0.00703902 -0.00703544 -0.00703544 -0.0140745 -0.00703902 -0.00703902 -0.00703902 -0.00703544 -0.00703544 -0.0140745 -0.00703902 -0.00703902 -0.00703544 -0.00703544 -0.00703902 -0.014078 -0.00703544 -0.00703544 -0.00703902 -0.00703902 -0.00703544 -0.0140745 -0.00703902 -0.00703544 -0.00703902 -0.00703902 -0.00703544 -0.0140745 -0.00703902 -0.00703902 -0.00703544 -0.0140745 -0.00703902 -0.00703544 -0.00703544 -0.0140745 -0.00703902 -0.00703902 -0.00703902 -0.0140745 -0.00703544 -0.00703902 -0.00703902 -0.0140745 -0.00703544 -0.0140745 -0.00703902 -0.00703544 -0.00703544 -0.0140745 -0.00703902 -0.0140745 -0.00703902 -0.00703902 -0.00703544 -0.0140745 -0.00703902 -0.0140745 -0.00703544 -0.0140745 -0.00703902 -0.0140745 -0.00703544 -0.014078 -0.00703902 -0.0140745 -0.00703902 -0.0140745 -0.00703544 -0.0140745 -0.00703902 -0.0140745 -0.00703544 -0.0140745 -0.00703902 -0.0211135 -0.00703544 -0.00703544 -0.00703902 -0.0140745 -0.00703902 -0.0211135 -0.00703544 -0.0140745 -0.00703902 -0.0211135 -0.00703544 -0.0211135 -0.00703902 -0.0140745 -0.00703544 -0.0211135 -0.00703902 -0.0211099 -0.00703902 -0.0140745 -0.00703544 -0.0281525 -0.00703902 -0.0281489 -0.00703544 -0.0140745 -0.00703902 -0.0281489 -0.00703544 -0.0281525 -0.00703902 -0.0211099 -0.00703902 -0.0351879 -0.00703544 -0.0351879 -0.00703902 -0.0211135 -0.00703544 -0.0492624 -0.00703902 -0.0492588 -0.00703544 -0.0351879 -0.00703902 -0.0844504 -0.00703902 -0.316684 0 -0.0774113 0.00703902z"/>
   <path id="_7978752" class="fil1" d="M2.42792 0.921908l0.0492588 0.0703723c0.0220122,0.00183315 0.0249982,0.00703902 0.0492624,0.00703902 0.0190082,0 0.0194056,-0.00336197 0.0351879,-0.00703902l0.0492624 -0.0703723c0,-0.0556462 -0.0340243,-0.105564 -0.0844504,-0.105564 -0.0667167,0 -0.0985212,0.0373326 -0.0985212,0.105564z"/>
   <path id="_114905824" class="fil2" d="M4.96139 1.23859c0.131292,0 0.288535,0.0324883 0.288535,-0.0985248l0 -0.182975c0,-0.13101 -0.157243,-0.0985212 -0.288535,-0.0985212l0 0.380021z"/>
   <polygon id="_114614320" class="fil3" points="2.56163,0.99228 2.81497,1.16118 2.85016,1.0908 2.61089,0.921908 "/>
   <polygon id="_114573128" class="fil3" points="2.9698,1.0908 2.99795,1.16822 3.53279,0.809308 3.53279,0.907833 3.59613,0.907833 3.59613,0.696709 3.38501,0.696709 3.38501,0.760046 3.44334,0.763003 "/>
   <polygon id="_114905872" class="fil4" points="0.225199,1.11895 0.499656,1.11895 0.499656,1.03451 0.225199,1.03451 "/>
   <polygon id="_114614032" class="fil5" points="0.682631,1.12599 1.63972,1.12599 1.63972,1.04154 0.682631,1.04154 "/>
   <path id="_114573200" class="fil6" d="M4.96139 1.23859l0 -0.380021c-0.112768,0 -0.253347,-0.0218367 -0.253347,0.0914858l0 0.190011c0,0.124858 0.131396,0.0985248 0.253347,0.0985248z"/>
   <polygon id="_114905776" class="fil3" points="2.47718,0.99228 2.42792,0.921908 1.90706,1.30903 1.95707,1.37321 "/>
   <path id="_114614872" class="fil2" d="M4.18024 1.23859c0.119656,0 0.288535,0.028575 0.288535,-0.0914894l0 -0.197046c0,-0.0471034 -0.041851,-0.0723881 -0.0703759,-0.0914858l-0.21816 0 0 0.380021z"/>
   <path id="_114573296" class="fil7" d="M4.96139 0.858571c0.131292,0 0.288535,-0.0324883 0.288535,0.0985212l0 0.182975c0,0.131013 -0.157243,0.0985248 -0.288535,0.0985248 -0.121951,0 -0.253347,0.0263337 -0.253347,-0.0985248l0 -0.190011c0,-0.113323 0.14058,-0.0914858 0.253347,-0.0914858zm-0.781156 0.380021c-0.108059,0 -0.253347,0.0235338 -0.253347,-0.0844504l0 -0.211124c0,-0.10739 0.145779,-0.0844468 0.253347,-0.0844468l0.21816 0c0.0285249,0.0190977 0.0703759,0.0443824 0.0703759,0.0914858l0 0.197046c0,0.120064 -0.168879,0.0914894 -0.288535,0.0914894zm0.372986 -0.147787l0 -0.0140745 0.0985248 0 0 0.119635 0.00703544 0.0281525 0.00703902 0.0140745 0.00703544 0.00703544 0.00703902 0.00703902 0.00703902 0.00703902 0.00703544 0.00703544 0.00703902 0.00703902 0.00703544 0.00703544 0.0140745 0.00703902 0.014078 0.00703544 0.485581 0 0.0140745 -0.00703544 0.0140745 -0.00703902 0.0140745 -0.00703544 0 -0.0140745 0.0140745 0 0.00703902 -0.00703902 0.00703544 0 0.00703902 0.00703902 0.0211099 0.00703544 0.0211135 0 0.0140745 -0.00703544 0.00703902 -0.00703902 0 -0.0351879 -0.00703902 -0.00703544 -0.00703544 -0.00703902 -0.0140745 -0.00703902 -0.00703902 -0.00703544 -0.0211135 0 0 -0.30261 -0.00703544 -0.0140745 -0.00703902 -0.00703902 -0.00703544 -0.0140745 -0.00703902 -0.00703544 -0.00703544 -0.00703902 -0.00703902 -0.00703544 -0.00703902 -0.00703902 -0.0140745 -0.00703902 -0.00703544 -0.00703544 -0.0211135 -0.00703902 -0.471507 0 -0.0211135 0.00703902 -0.00703544 0.00703544 -0.0140745 0.00703902 -0.0140745 0.00703902 -0.00703902 0.0140745 -0.00703902 0.00703544 -0.00703544 0.00703902 -0.00703902 0.0140745 -0.00703544 0.0281489 -0.000354457 0.0503186 -0.01372 -0.00809523 -0.014078 -0.00703544 -0.0703723 0 -0.0140745 0.00703544 -0.014078 0.00703902 0 -0.0562978 -0.00703544 -0.0211135 -0.00703902 -0.00703902 -0.00703544 -0.0140745 -0.00703902 -0.00703544 -0.00703544 -0.00703902 -0.00703902 -0.00703544 -0.00703902 -0.00703902 -0.0140745 -0.00703902 -0.00703544 -0.00703544 -0.0211135 -0.00703902 -0.0492624 -0.00703544 -0.00703902 0c-0.0882491,0.0559935 -0.506691,-0.0898997 -0.506691,0.133709l0 0.267422c-0.0190476,0.00443967 -0.0492624,0.012696 -0.0492624,0.0351879l0 0.00703902c0,0.0162155 0.00489438,0.0211135 0.0211099,0.0211135 0.0304368,0 0.0283637,-0.014078 0.0492624,-0.014078 0.00153956,0 0.0574257,0.0492624 0.0985248,0.0492624l0.387057 0c0.0912029,0 0.147787,-0.0565843 0.147787,-0.147787l0 -0.0703723 0.0281525 0.0140745z"/>
   <path id="_114905416" class="fil6" d="M4.18024 1.23859l0 -0.380021c-0.107569,0 -0.253347,-0.0229431 -0.253347,0.0844468l0 0.211124c0,0.107984 0.145288,0.0844504 0.253347,0.0844504z"/>
   <path id="_114615016" class="fil1" d="M2.85016 1.0908l-0.0351879 0.0703759c0.00451127,0.0542033 0.0323487,0.0914858 0.0914858,0.0914858l0.0140745 0c0.0427783,0 0.0740601,-0.0441604 0.0774113,-0.0844504l-0.0281489 -0.0774113c-0.028174,-0.00752237 -0.0230433,-0.0211135 -0.0562978,-0.0211135l-0.0140745 0c-0.025836,0 -0.0340172,0.0109058 -0.0492624,0.0211135z"/>
   <polygon id="_114573392" class="fil5" points="1.5412,1.25971 1.5412,1.16822 0.682631,1.16822 0.682631,1.25971 "/>
   <polygon id="_114905320" class="fil8" points="1.5412,1.25971 1.63972,1.25971 1.63972,1.16822 1.5412,1.16822 "/>
   <polygon id="_114614272" class="fil1" points="0.225199,1.29489 0.499656,1.29489 0.499656,1.21748 0.225199,1.21748 "/>
   <polygon id="_114573464" class="fil5" points="1.5412,1.39341 1.5412,1.30193 0.682631,1.30193 0.682631,1.39341 "/>
   <polygon id="_114904912" class="fil8" points="1.5412,1.39341 1.63972,1.39341 1.63972,1.30193 1.5412,1.30193 "/>
   <polygon id="_114613888" class="fil9" points="0.232234,1.47083 0.499656,1.47083 0.499656,1.39341 0.232234,1.39341 "/>
   <polygon id="_114573536" class="fil5" points="1.5412,1.52713 1.5412,1.43564 0.682631,1.43564 0.682631,1.52713 "/>
   <polygon id="_114901936" class="fil8" points="1.5412,1.52713 1.63972,1.52713 1.63972,1.43564 1.5412,1.43564 "/>
   <path id="_114617056" class="fil10" d="M3.96208 1.55528c0.00733619,0.010956 0.00933046,0.0211135 0.0281489,0.0211135l-0.0351879 0 1.32304 0 -0.0140745 0 0 -0.0422234 -0.0140745 0 -1.26674 0 0.00703544 0c-0.0175761,0 -0.0220802,0.00989974 -0.0281489,0.0211099z"/>
   <path id="_114573608" class="fil4" d="M3.95504 1.57639l0.0351879 0c-0.0188185,0 -0.0208127,-0.0101575 -0.0281489,-0.0211135 0.00606874,-0.0112102 0.0105729,-0.0211099 0.0281489,-0.0211099l-0.00703544 0 1.26674 0 0.0140745 0 0 0.0422234 0.0140745 0 -1.32304 0zm-0.0281489 0.00703902c0.0245793,0.00572144 0.0236949,0.0140745 0.0492624,0.0140745l1.32304 0 0 -0.0844504 -1.32304 0c-0.0255675,0 -0.0246831,0.00834944 -0.0492624,0.0140745l0 0.0563014z"/>
   <polygon id="_114904696" class="fil11" points="0.225199,1.6538 0.499656,1.6538 0.499656,1.56935 0.225199,1.56935 "/>
   <polygon id="_114616912" class="fil5" points="1.5412,1.6538 1.5412,1.56935 0.682631,1.56935 0.682631,1.6538 "/>
   <polygon id="_114573680" class="fil8" points="1.5412,1.6538 1.63972,1.6538 1.63972,1.56935 1.5412,1.56935 "/>
   <polygon id="_114904984" class="fil12" points="2.55459,2.09716 2.73756,2.09716 2.73756,1.74529 2.55459,1.74529 "/>
   <path id="_114613912" class="fil13" d="M2.97684 2.09716c0.109409,-0.0254887 0.125503,-0.0281489 0.267422,-0.0281489l-0.0563014 -0.00703902 -0.0281489 0 0 -0.211121 -0.182972 0 0 0.246308z"/>
   <path id="_114573752" class="fil14" d="M3.39908 1.51305l0.190014 0 0 0.584106 -0.190014 0 0 -0.584106zm-0.633369 0.40817l0.190011 0 0 0.175936 -0.190011 0 0 -0.175936zm-0.211124 -0.175936l0.182975 0 0 0.351872 -0.182975 0 0 -0.351872zm-0.21816 -0.0633369l0.190011 0 0 0.415209 -0.190011 0 0 -0.415209zm-0.211124 0.175936l0.182975 0 0 0.239273 -0.182975 0 0 -0.239273zm-0.211124 0.0703759l0.182975 0 0 0.168897 -0.182975 0 0 -0.168897zm1.08377 -0.760046c-0.00335123,0.04029 -0.034633,0.0844504 -0.0774113,0.0844504l-0.0140745 0c-0.0591371,0 -0.0869745,-0.0372825 -0.0914858,-0.0914858l-0.253347 -0.168901c-0.0157823,0.00367705 -0.0161797,0.00703902 -0.0351879,0.00703902 -0.0242642,0 -0.0272502,-0.00520587 -0.0492624,-0.00703902l-0.520103 0.380927 -0.0500179 -0.0641747 0.520863 -0.387125c0,-0.0682312 0.0318045,-0.105564 0.0985212,-0.105564 0.050426,0 0.0844504,0.0499176 0.0844504,0.105564l0.239273 0.168897c0.0152452,-0.0102077 0.0234264,-0.0211135 0.0492624,-0.0211135l0.0140745 0c0.0332545,0 0.0281239,0.0135911 0.0562978,0.0211135l0.473541 -0.327801 -0.0583315 -0.00295739 0 -0.0633369 0.211124 0 0 0.211124 -0.0633369 0 0 -0.0985248 -0.534847 0.358908zm-1.35119 -0.337794l0 1.3723 -0.000175438 0.163183 -0.105385 -0.0153956 -0.00703902 0 0.00703902 0.10556 0.0985248 0.014078 0 0.0633369 0 0.858564 0.520769 0 1.49194 -0.00703544 -0.0901754 -0.0971499 0.040913 -0.0365628 0.00703544 -0.0211099 -0.0633369 -0.0633369c-0.0199534,0.00464733 -0.107322,0.0581095 -0.143101,0.075059 -0.0290834,0.0137773 -0.142091,0.0445757 -0.180623,0.0445757l-0.0914858 0c-0.133319,0 -0.265191,-0.0763229 -0.343673,-0.134873 -0.116624,-0.0870103 -0.135191,-0.15604 -0.19821,-0.287372l-0.753007 0 0 -0.0562978 0.731897 0 0 -0.0211135 0 -0.0140745 -0.731897 0 0 -0.0563014 0.724858 0 0.0211135 -0.21816 -0.745972 -0.00703902 0 -0.0562978 0.77412 0 0.00703544 -0.0281525 -0.781156 -0.00703544 0 -0.0563014 0.801274 0.00019334 0.00803437 0.0209201c0.0546795,-0.103337 0.203974,-0.237884 0.330759,-0.267422l0 -0.246308 0.182972 0 0 0.211121 0.0281489 0 0 -0.316684 0.182975 0 0 0.351872c0.099223,0.0476083 0.193985,0.0863193 0.257579,0.171704 0.0470676,0.0632008 0.141339,0.193254 0.143555,0.292767l0.00708199 -2.19568 -2.13239 0 0 0.464472z"/>
   <polygon id="_114904744" class="fil3" points="4.22246,2.10419 4.96843,2.10419 4.96843,1.87196 4.22246,1.87196 "/>
   <polygon id="_114614800" class="fil12" points="3.18796,2.06197 3.24426,2.06901 3.37093,2.09716 3.37093,1.74529 3.18796,1.74529 "/>
   <polygon id="_114573848" class="fil15" points="1.91418,2.09716 2.09716,2.09716 2.09716,1.92826 1.91418,1.92826 "/>
   <polygon id="_114906520" class="fil13" points="2.33643,2.09716 2.52644,2.09716 2.52644,1.68195 2.33643,1.68195 "/>
   <polygon id="_114614224" class="fil16" points="3.39908,2.09716 3.5891,2.09716 3.5891,1.51305 3.39908,1.51305 "/>
   <polygon id="_114573944" class="fil11" points="2.1253,2.09716 2.30828,2.09716 2.30828,1.85789 2.1253,1.85789 "/>
   <polygon id="_114903568" class="fil16" points="2.76571,2.09716 2.95572,2.09716 2.95572,1.92122 2.76571,1.92122 "/>
   <path id="_114617272" class="fil17" d="M4.22246 1.87196l0.745972 0 0 0.232234 -0.745972 0 0 -0.232234zm-0.0985212 0.323723l0.935846 0 0.0071715 0.696706 0 -1.08377 -0.00703902 -0.0140745 -0.00703902 -0.0140745 -0.0211099 -0.00703544 -0.295571 -0.00703902 -0.00703902 0 0 0.0140745 -0.570035 0c-0.0198747,0 -0.02715,0.0161475 -0.0351844,0.0281489l0 0.38706z"/>
   <path id="_114574016" class="fil1" d="M0.612255 2.01975l0.281496 0.161862c0.0197637,-0.0295095 0.0873755,-0.0735553 0.133713,-0.0774149l0 -0.32372c-0.161364,0 -0.360945,0.13672 -0.415209,0.239273z"/>
   <path id="_114904288" class="fil18" d="M1.53416 2.35051l0.00703902 0 0 -0.344833c-0.0240601,-0.0901109 -0.266946,-0.225199 -0.40817,-0.225199l0 0.32372c0.0822592,0.00684926 0.154665,0.0788829 0.183143,0.14058 0.0320981,0.0695417 -0.00685642,0.0844754 0.0694951,0.092363 0.0440852,0.00455782 0.0995237,0.0133691 0.148493,0.0133691z"/>
   <path id="_114614368" class="fil19" d="M1.5412 2.35051l0.105385 0.0153956 0.000175438 -0.163183c-0.0324311,-0.0511135 -0.0501181,-0.159921 -0.10556,-0.197046l0 0.344833z"/>
   <polygon id="_114574088" class="fil5" points="2.61793,2.4068 2.64608,2.36458 2.63804,2.34366 1.83677,2.34347 1.83677,2.39977 "/>
   <path id="_114904384" class="fil20" d="M4.22246 2.4068l0.323723 0 0 -0.0985248c0,-0.0162119 -0.00489438,-0.0211099 -0.0211135,-0.0211099l-0.30261 0 0 0.119635z"/>
   <path id="_114614464" class="fil21" d="M4.64471 2.30828l0 0.0985248 0.0914894 0c0.0162119,0 0.0211099,-0.00489438 0.0211099,-0.0211099l0 -0.0774149c0,-0.0162119 -0.00489796,-0.0211099 -0.0211099,-0.0211099l-0.0703759 0c-0.0162191,0 -0.0211135,0.00489796 -0.0211135,0.0211099z"/>
   <polygon id="_114574160" class="fil6" points="4.85583,2.4068 4.96843,2.4068 4.96843,2.28717 4.85583,2.28717 "/>
   <polygon id="_114904480" class="fil5" points="2.58274,2.49829 2.61089,2.43496 1.83677,2.43496 1.83677,2.49125 "/>
   <path id="_114614560" class="fil14" d="M4.22246 2.61793l0.0914858 0c0.0162191,0 0.0211135,-0.00489796 0.0211135,-0.0211135l0 -0.0774113c0,-0.0162191 -0.00489438,-0.0211135 -0.0211135,-0.0211135l-0.0914858 0 0 0.119638z"/>
   <path id="_114574232" class="fil14" d="M4.43358 2.51941l0 0.0985248 0.0914858 0c0.0162191,0 0.0211135,-0.00489796 0.0211135,-0.0211135l0 -0.0774113c0,-0.0162191 -0.00489438,-0.0211135 -0.0211135,-0.0211135l-0.0703723 0c-0.0162155,0 -0.0211135,0.00489438 -0.0211135,0.0211135z"/>
   <path id="_114904552" class="fil14" d="M4.64471 2.51941l0 0.0985248 0.112599 0 0 -0.0985248c0,-0.0162191 -0.00489796,-0.0211135 -0.0211099,-0.0211135l-0.0703759 0c-0.0162191,0 -0.0211135,0.00489438 -0.0211135,0.0211135z"/>
   <path id="_114614632" class="fil14" d="M4.85583 2.51941l0 0.0985248 0.112599 0 0 -0.0985248c0,-0.0162191 -0.00489796,-0.0211135 -0.0211135,-0.0211135l-0.0703723 0c-0.0162191,0 -0.0211135,0.00489438 -0.0211135,0.0211135z"/>
   <polygon id="_114574304" class="fil9" points="1.53416,2.72349 1.63972,2.53348 1.63972,2.47015 1.5412,2.45607 1.32873,2.43809 1.27401,2.53332 1.46653,2.79632 "/>
   <path id="_114904624" class="fil14" d="M0.436319 3.35686l0 -0.140748 0.154823 0 0 0.40817 0.126674 0 0 -0.464472 0.154826 0 0 0.0774113 0.00703544 0.38706 0.119252 0 0.00742212 -0.19705 0 -0.140748 0.154826 0 0 0.140748 0 0.19705 0.126674 0 0 -0.225199 0.154823 0 0 0.112599 0.00703902 0.112599 0.485581 0 0 0.0563014 -1.7101 0 0 -0.668557 0.0633369 0 0 0.612255 0.140444 0 0.00733977 -0.267422zm0.38706 -0.999319c0,0.11478 0.112238,0.253351 0.211124,0.253351l0.0844468 0c0.0310526,0 0.050136,-0.0104046 0.0687218,-0.0199284l0.184629 0.259201c-0.0323559,0.0483136 -0.191178,0.0844504 -0.2815,0.0844504 -0.310838,0 -0.584106,-0.242771 -0.584106,-0.541886l0 -0.112599c0,-0.0356104 0.036484,-0.142266 0.0514679,-0.172678l0.279291 0.158604c-0.00085571,0.0385105 -0.0140745,0.049624 -0.0140745,0.0914858zm-0.211124 -0.337794c0.0542642,-0.102553 0.253845,-0.239273 0.415209,-0.239273l0 0.32372c-0.0463372,0.00385965 -0.113949,0.0479054 -0.133713,0.0774149l-0.281496 -0.161862zm0.928943 -0.450394l0.0985248 0 0 0.0844468 -0.0985248 0 -0.858567 0 0 -0.0844468 0.858567 0zm-1.316 0l0.274457 0 0 0.0844468 -0.274457 0 0 -0.0844468zm1.316 -0.133713l0.0985248 0 0 0.0914858 -0.0985248 0 -0.858567 0 0 -0.0914858 0.858567 0zm-1.30896 -0.042227l0.267422 0 0 0.0774149 -0.267422 0 0 -0.0774149zm1.30896 -0.0914858l0.0985248 0 0 0.0914858 -0.0985248 0 -0.858567 0 0 -0.0914858 0.858567 0zm-1.316 -0.0844504l0.274457 0 0 0.0774113 -0.274457 0 0 -0.0774113zm1.316 -0.0492624l0.0985248 0 0 0.0914894 -0.0985248 0 -0.858567 0 0 -0.0914894 0.858567 0zm-0.858567 -0.126674l0.957092 0 0 0.0844504 -0.957092 0 0 -0.0844504zm-0.457433 -0.00703544l0.274457 0 0 0.0844468 -0.274457 0 0 -0.0844468zm-0.225199 2.8572l2.16753 0 0 -0.00703902 -0.00703544 -0.394099 -0.619176 0 -0.00715717 -0.767078 -0.0676297 0.072832 -0.192524 -0.263007 0.0547225 -0.0952309 0.21247 0.0179807 -0.00703902 -0.10556c-0.0489688,0 -0.104407,-0.00881131 -0.148493,-0.0133691 -0.0763515,-0.00788757 -0.037397,-0.0228213 -0.0694951,-0.092363 -0.0284783,-0.0616971 -0.100884,-0.133731 -0.183143,-0.14058l0 -0.32372c0.141224,0 0.38411,0.135088 0.40817,0.225199 0.0554421,0.0371249 0.0731292,0.145933 0.10556,0.197046l0 -1.3723 -0.781156 -0.00703902 -0.865603 0 0 3.06833z"/>
   <polygon id="_114614704" class="fil5" points="2.56867,2.77275 2.56163,2.71645 1.83677,2.71645 1.83677,2.77275 "/>
   <path id="_114574376" class="fil6" d="M4.22246 2.82905l0.0914858 0c0.0162191,0 0.0211135,-0.00489796 0.0211135,-0.0211099l0 -0.0774113c0,-0.0162191 -0.00489438,-0.0211135 -0.0211135,-0.0211135l-0.0914858 0 0 0.119635z"/>
   <path id="_114904960" class="fil6" d="M4.43358 2.82905l0.112599 0 0 -0.0985212c0,-0.0162191 -0.00489438,-0.0211135 -0.0211135,-0.0211135l-0.0914858 0 0 0.119635z"/>
   <path id="_114614776" class="fil22" d="M4.85583 2.73053l0 0.0985212 0.112599 0 0 -0.0985212c0,-0.0162191 -0.00489796,-0.0211135 -0.0211135,-0.0211135l-0.0703723 0c-0.0162191,0 -0.0211135,0.00489438 -0.0211135,0.0211135z"/>
   <polygon id="_114574448" class="fil22" points="4.64471,2.82905 4.75731,2.82905 4.75731,2.70942 4.64471,2.70942 "/>
   <polygon id="_114902056" class="fil5" points="2.58978,2.86424 2.56867,2.78683 2.56867,2.80794 1.83677,2.80794 1.83677,2.86424 "/>
   <path id="_114616816" class="fil6" d="M2.71645 2.65312l0 0.0211135c0,0.231998 0.204869,0.457433 0.422245,0.457433l0.042227 0c0.21764,0 0.443358,-0.204672 0.443358,-0.415209l0 -0.0844468c0,-0.206856 -0.221529,-0.408174 -0.443358,-0.408174l-0.0563014 0c-0.197379,0 -0.40817,0.225066 -0.40817,0.429284z"/>
   <path id="_114574520" class="fil15" d="M0.823379 2.35754c0,-0.0418618 0.0132188,-0.0529753 0.0140745,-0.0914858l-0.279291 -0.158604c-0.0149839,0.0304117 -0.0514679,0.137068 -0.0514679,0.172678l0 0.112599c0,0.299115 0.273269,0.541886 0.584106,0.541886 0.0903222,0 0.249144,-0.0361367 0.2815,-0.0844504l-0.184629 -0.259201c-0.0185857,0.0095238 -0.0376691,0.0199284 -0.0687218,0.0199284l-0.0844468 0c-0.0988864,0 -0.211124,-0.138571 -0.211124,-0.253351z"/>
   <path id="_114904648" class="fil23" d="M4.85583 2.92758l0.112599 0 0 0.112599 -0.112599 0 0 -0.112599zm-0.211124 0l0.112599 0 0 0.112599 -0.112599 0 0 -0.112599zm-0.211124 0l0.112599 0 0 0.112599 -0.112599 0 0 -0.112599zm-0.211124 0l0.112599 0 0 0.112599 -0.112599 0 0 -0.112599zm0.633372 -0.197046c0,-0.0162191 0.00489438,-0.0211135 0.0211135,-0.0211135l0.0703723 0c0.0162155,0 0.0211135,0.00489438 0.0211135,0.0211135l0 0.0985212 -0.112599 0 0 -0.0985212zm-0.211124 -0.0211135l0.112599 0 0 0.119635 -0.112599 0 0 -0.119635zm-0.211124 0l0.0914858 0c0.0162191,0 0.0211135,0.00489438 0.0211135,0.0211135l0 0.0985212 -0.112599 0 0 -0.119635zm-0.211124 0l0.0914858 0c0.0162191,0 0.0211135,0.00489438 0.0211135,0.0211135l0 0.0774113c0,0.0162119 -0.00489438,0.0211099 -0.0211135,0.0211099l-0.0914858 0 0 -0.119635zm0.633372 -0.190011c0,-0.0162191 0.00489438,-0.0211135 0.0211135,-0.0211135l0.0703723 0c0.0162155,0 0.0211135,0.00489438 0.0211135,0.0211135l0 0.0985248 -0.112599 0 0 -0.0985248zm-0.211124 0c0,-0.0162191 0.00489438,-0.0211135 0.0211135,-0.0211135l0.0703759 0c0.0162119,0 0.0211099,0.00489438 0.0211099,0.0211135l0 0.0985248 -0.112599 0 0 -0.0985248zm-0.211124 0c0,-0.0162191 0.00489796,-0.0211135 0.0211135,-0.0211135l0.0703723 0c0.0162191,0 0.0211135,0.00489438 0.0211135,0.0211135l0 0.0774113c0,0.0162155 -0.00489438,0.0211135 -0.0211135,0.0211135l-0.0914858 0 0 -0.0985248zm-0.211124 -0.0211135l0.0914858 0c0.0162191,0 0.0211135,0.00489438 0.0211135,0.0211135l0 0.0774113c0,0.0162155 -0.00489438,0.0211135 -0.0211135,0.0211135l-0.0914858 0 0 -0.119638zm0.633372 -0.211124l0.112599 0 0 0.119635 -0.112599 0 0 -0.119635zm-0.633372 0l0.30261 0c0.0162191,0 0.0211135,0.00489796 0.0211135,0.0211099l0 0.0985248 -0.323723 0 0 -0.119635zm0.422248 0.0211099c0,-0.0162119 0.00489438,-0.0211099 0.0211135,-0.0211099l0.0703759 0c0.0162119,0 0.0211099,0.00489796 0.0211099,0.0211099l0 0.0774149c0,0.0162155 -0.00489796,0.0211099 -0.0211099,0.0211099l-0.0914894 0 0 -0.0985248zm-0.365947 0.837457l0.00703544 0 0.753007 -0.00703544 0.0140745 -0.00703902 0.00703902 -0.0140745 0.00703902 -0.00703902 0 -0.21816 -0.0071715 -0.696706 -0.935846 0 0 0.90783c0.00803437,0.0120014 0.0153097,0.0281489 0.0351844,0.0281489l0.119638 0 0 0.0140745z"/>
   <polygon id="_114615064" class="fil14" points="4.22246,3.04018 4.33506,3.04018 4.33506,2.92758 4.22246,2.92758 "/>
   <polygon id="_114574592" class="fil14" points="4.43358,3.04018 4.54618,3.04018 4.54618,2.92758 4.43358,2.92758 "/>
   <polygon id="_114904216" class="fil22" points="4.64471,3.04018 4.75731,3.04018 4.75731,2.92758 4.64471,2.92758 "/>
   <polygon id="_114615136" class="fil22" points="4.85583,3.04018 4.96843,3.04018 4.96843,2.92758 4.85583,2.92758 "/>
   <path id="_114574664" class="fil14" d="M3.65947 3.05425l0.0633369 0.0703723 0.0211135 -0.0140745 0.0351879 -0.0422234 -0.00703902 -0.281496c-0.0145435,0.0624203 -0.018507,0.0909022 -0.0444826,0.145532 -0.0161869,0.0340458 -0.062474,0.100759 -0.0681167,0.12189z"/>
   <polygon id="_114905008" class="fil24" points="3.54687,3.16685 3.61021,3.23019 3.7228,3.12462 3.65947,3.05425 "/>
   <path id="_114615208" class="fil17" d="M2.71645 2.65312c0,-0.204218 0.210791,-0.429284 0.40817,-0.429284l0.0563014 0c0.221829,0 0.443358,0.201317 0.443358,0.408174l0 0.0844468c0,0.210537 -0.225718,0.415209 -0.443358,0.415209l-0.042227 0c-0.217375,0 -0.422245,-0.225435 -0.422245,-0.457433l0 -0.0211135zm0.260386 -0.555957c-0.126785,0.0295381 -0.276079,0.164085 -0.330759,0.267422l-0.0281525 0.0422234 -0.00703544 0.0281525 -0.0281489 0.0633369 -0.0211135 0.21816 0.00703902 0.0563014 0 0.0140745 0.0211099 0.0774113c0.0630182,0.131332 0.0815861,0.200361 0.19821,0.287372 0.0784819,0.0585499 0.210354,0.134873 0.343673,0.134873l0.0914858 0c0.038532,0 0.151539,-0.0307984 0.180623,-0.0445757 0.0357787,-0.0169495 0.123147,-0.0704117 0.143101,-0.075059l0.112599 -0.112599c0.00564267,-0.0211314 0.0519298,-0.0878445 0.0681167,-0.12189 0.0259756,-0.0546294 0.0299391,-0.0831113 0.0444826,-0.145532l0.00863229 -0.0772144 -0.00159327 -0.0564983 -0.00703902 -0.0914858c-0.00221625,-0.099513 -0.0964876,-0.229567 -0.143555,-0.292767 -0.0635947,-0.0853848 -0.158356,-0.124096 -0.257579,-0.171704l-0.126674 -0.0281489c-0.141919,0 -0.158013,0.00266022 -0.267422,0.0281489z"/>
   <polygon id="_114574736" class="fil9" points="1.00635,3.42723 1.16118,3.42723 1.16118,3.28649 1.00635,3.28649 "/>
   <polygon id="_114904192" class="fil6" points="1.53416,2.72349 1.54132,3.49057 2.16049,3.49057 2.16049,3.39205 1.63972,3.39205 1.63972,2.53348 "/>
   <polygon id="_114615616" class="fil9" points="1.28785,3.62428 1.29489,3.62428 1.29489,3.51168 1.44267,3.51168 1.44267,3.39908 1.28785,3.39908 "/>
   <polygon id="_114574808" class="fil1" points="0.436319,3.35686 0.436319,3.62428 0.584106,3.62428 0.584106,3.35686 "/>
   <polygon id="_114906544" class="fil1" points="0.872642,3.23722 0.724854,3.23722 0.724854,3.62428 0.872642,3.62428 "/>
   <polygon id="_114615352" class="fil1" points="1.16118,3.62428 1.16118,3.42723 1.00635,3.42723 1.00635,3.62428 "/>
   <polygon id="_114592496" class="fil1" points="1.29489,3.62428 1.44267,3.62428 1.44267,3.51168 1.29489,3.51168 "/>
   <polygon id="_114906616" class="fil22" points="3.74392,3.11055 4.3227,3.70341 4.19265,3.83004 3.60317,3.2513 3.56226,3.28786 3.65243,3.38501 3.80725,3.54687 3.81429,3.55391 3.82133,3.56095 3.82836,3.56799 3.8354,3.57502 3.84244,3.58206 3.84948,3.5891 3.85652,3.59613 3.86355,3.60317 3.87059,3.61021 3.87763,3.61725 3.88467,3.62428 3.8917,3.63132 3.89874,3.63836 3.90578,3.6454 3.91281,3.65243 3.91985,3.65947 3.92689,3.66651 3.93393,3.67355 3.94096,3.68058 3.948,3.68762 3.95504,3.69466 3.96208,3.70169 3.96911,3.70873 3.97615,3.71577 3.98319,3.72281 3.99023,3.72985 3.99727,3.73688 4.0043,3.74392 4.01134,3.75096 4.01838,3.758 4.02541,3.76503 4.03245,3.77207 4.03949,3.77911 4.04652,3.78614 4.05356,3.79318 4.0606,3.80022 4.06764,3.80726 4.07468,3.8143 4.08171,3.82133 4.08875,3.82837 4.09579,3.83541 4.10283,3.84245 4.10986,3.84948 4.1169,3.85652 4.12394,3.86356 4.13097,3.8706 4.13801,3.87763 4.14505,3.89171 4.15209,3.89874 4.15912,3.90578 4.16616,3.91282 4.1732,3.91986 4.18024,3.92689 4.18728,3.93393 4.19431,3.94097 4.20135,3.94801 4.20839,3.95505 4.21542,3.96208 4.22246,3.96912 4.2295,3.97616 4.23653,3.98319 4.24357,3.99023 4.26469,3.99023 4.27172,3.98319 4.27876,3.97616 4.2858,3.96912 4.29284,3.96208 4.29987,3.95505 4.30691,3.94801 4.31395,3.94097 4.32802,3.93393 4.33506,3.91986 4.34913,3.91282 4.35617,3.89874 4.36321,3.89171 4.37025,3.88467 4.37728,3.87763 4.38432,3.8706 4.39136,3.86356 4.3984,3.85652 4.40544,3.84948 4.41247,3.84245 4.41951,3.83541 4.43358,3.82837 4.44062,3.8143 4.44766,3.80726 4.4547,3.80022 4.46173,3.79318 4.46877,3.78614 4.47581,3.77911 4.48285,3.77207 4.48285,3.758 4.47581,3.74392 4.46173,3.73688 4.4547,3.72281 4.44062,3.71577 4.43358,3.70169 4.41951,3.69466 4.41247,3.68058 4.3984,3.67355 4.39136,3.65947 4.37728,3.65243 4.37025,3.63836 4.35617,3.63132 4.34913,3.61725 4.33506,3.61021 4.32802,3.59613 4.31395,3.5891 4.30691,3.57502 4.29284,3.56799 4.2858,3.55391 4.27172,3.54687 4.26469,3.5328 4.25061,3.52576 4.24357,3.51168 4.2295,3.50464 4.22246,3.49057 4.20839,3.48353 4.20135,3.46946 4.18728,3.46242 4.18024,3.44835 4.16616,3.44131 4.15912,3.42723 4.14505,3.4202 4.13801,3.40612 4.12394,3.39908 4.1169,3.38501 4.10283,3.37797 4.09579,3.3639 4.08171,3.35686 4.07468,3.34982 3.77911,3.06833 "/>
   <path id="_114615448" class="fil5" d="M0.872642 3.23722l0 0.38706 -0.147787 0 0 -0.38706 0.147787 0zm-0.436323 0.119638l0.147787 0 0 0.267422 -0.147787 0 0 -0.267422zm1.00635 0.154823l0 0.112599 -0.147784 0 -0.00703902 0 -0.126674 0 -0.154826 0 0 -0.19705 -0.00742212 0.19705 -0.119252 0 -0.00703544 -0.38706 0 -0.0774113 -0.154826 0 0 0.464472 -0.126674 0 0 -0.40817 -0.154823 0 0 0.140748 -0.00733977 0.267422 -0.140444 0 0 -0.612255 -0.0633369 0 0 0.668557 1.7101 0 0 -0.0563014 -0.485581 0 -0.00703902 -0.112599z"/>
   <polygon id="_114592568" class="fil0" points="2.16049,3.39205 2.16049,3.49057 2.16753,3.88467 2.16788,3.70064 2.18161,3.70873 2.20975,3.71577 2.22383,3.72281 2.24494,3.72985 2.27309,3.73688 2.28717,3.74392 2.31532,3.75096 2.34347,3.758 2.36458,3.76503 2.39977,3.77207 2.44199,3.77911 2.4631,3.78614 2.50533,3.79318 2.56867,3.80022 2.59682,3.80726 2.6883,3.8143 2.9698,3.8143 3.05425,3.80726 3.08943,3.80022 3.14573,3.79318 3.195,3.78614 3.21611,3.77911 3.25833,3.77207 3.28648,3.76503 3.3076,3.758 3.34278,3.75096 3.37093,3.74392 3.38501,3.73688 3.41316,3.72985 3.43427,3.72281 3.44834,3.71577 3.46946,3.70873 3.49761,3.70169 3.51168,3.69466 3.53279,3.68762 3.54687,3.68058 3.56094,3.67355 3.58206,3.66651 3.59613,3.65947 3.61021,3.65243 3.63132,3.6454 3.64539,3.63836 3.65243,3.63132 3.67354,3.62428 3.68762,3.61725 3.69466,3.61021 3.71577,3.60317 3.72984,3.59613 3.73688,3.5891 3.75799,3.58206 3.76503,3.57502 3.77911,3.56799 3.78614,3.56095 3.80725,3.55391 3.80725,3.54687 3.65243,3.38501 "/>
   <polygon id="_114906688" class="fil17" points="3.7228,3.12462 3.61021,3.23019 3.60317,3.2513 4.19265,3.83004 4.3227,3.70341 3.74392,3.11055 "/>
  </g>
 </g>
</svg>
