<?xml version="1.0" encoding="UTF-8"?>
<!DOCTYPE svg PUBLIC "-//W3C//DTD SVG 1.1//EN" "http://www.w3.org/Graphics/SVG/1.1/DTD/svg11.dtd">
<!-- Creator: CorelDRAW -->
<svg xmlns="http://www.w3.org/2000/svg" xml:space="preserve" width="6.01552in" height="4.45324in" style="shape-rendering:geometricPrecision; text-rendering:geometricPrecision; image-rendering:optimizeQuality; fill-rule:evenodd; clip-rule:evenodd"
viewBox="0 0 6.60611 4.89045"
 xmlns:xlink="http://www.w3.org/1999/xlink">
 <defs>
  <style type="text/css">
   <![CDATA[
    .str6 {stroke:#1F1A17;stroke-width:0.00329453}
    .str1 {stroke:#75C5F0;stroke-width:0.00329453}
    .str3 {stroke:#E77844;stroke-width:0.00329453}
    .str4 {stroke:#E7785F;stroke-width:0.00329453}
    .str2 {stroke:#F7C5B4;stroke-width:0.00329453}
    .str5 {stroke:white;stroke-width:0.00329453}
    .str0 {stroke:#75C5F0;stroke-width:0.0305069}
    .fil23 {fill:none}
    .fil29 {fill:#1F1A17}
    .fil24 {fill:#75C5F0}
    .fil26 {fill:#E77844}
    .fil27 {fill:#E7785F}
    .fil25 {fill:#F7C5B4}
    .fil28 {fill:white}
    .fil9 {fill:#252A45}
    .fil21 {fill:#2D3134}
    .fil20 {fill:#313654}
    .fil8 {fill:#454758}
    .fil12 {fill:#49A9EC}
    .fil22 {fill:#4B5E91}
    .fil5 {fill:#87BBED}
    .fil2 {fill:#96C7FB}
    .fil14 {fill:#98A8B7}
    .fil13 {fill:#D3CBCA}
    .fil3 {fill:#D4D3E5}
    .fil0 {fill:#E0DFEB}
    .fil15 {fill:#E98E5A}
    .fil11 {fill:#F3F2F4}
    .fil18 {fill:#F9734D}
    .fil10 {fill:#FDC393}
    .fil4 {fill:#FED271}
    .fil7 {fill:#FEDD8A}
    .fil19 {fill:#FF6759}
    .fil17 {fill:#FF865A}
    .fil16 {fill:#FF985A}
    .fil6 {fill:#FFB170}
    .fil1 {fill:#FFC271}
   ]]>
  </style>
 </defs>
 <g id="Layer_x0020_1">
  <metadata id="CorelCorpID_0Corel-Layer"/>
  <g id="_114614032">
   <g>
    <path id="_114623968" class="fil0" d="M1.95618 0.545163l-0.0160317 0.577235c0.0284575,0.0102987 0.0155777,0.0240518 0.0561195,0.0240518l0.344737 0c0.018695,0 0.0400835,-0.0213928 0.0400835,-0.0400878l0.00196721 -0.112291 -0.00998304 -0.440888c-0.0136797,-0.0118897 -0.0139304,-0.016036 -0.0400878,-0.016036l-0.336717 0c-0.0216566,0 -0.0221062,0.00383065 -0.0400878,0.00801583z"/>
    <path id="_61035512" class="fil0" d="M4.5377 0.737578l0.232494 0c0.0184745,0 0.0240518,0.00557736 0.0240518,0.0240518l0 0.272577 -0.256546 0 0 -0.296629zm-0.497064 -0.120259l0 0.432924c0,0.0184745 0.00557736,0.0240518 0.0240518,0.0240518l0.745594 0c0.0184745,0 0.0240518,-0.00557736 0.0240518,-0.0240518l0 -0.432924c0,-0.0184745 -0.00557736,-0.0240518 -0.0240518,-0.0240518l-0.745594 0c-0.0184745,0 -0.0240518,0.00557736 -0.0240518,0.0240518z"/>
    <path id="_80046336" class="fil1" d="M2.46927 0.288618l-0.096203 0.00801583 -0.016036 0.00801583 -0.0721555 0.00802016 -0.0160317 0.00801583 -0.0481036 0.00801583 -0.0160317 0.00802016 -0.0481036 0.00801583 -0.016036 0.00801583 -0.0400835 0.00801583 -0.016036 0.00802016 -0.0320677 0.00801583 -0.016036 0.00801583 -0.0320677 0.00801583 -0.00801583 0.00802016 -0.0320677 0.00801583 -0.00802016 0.00801583 -0.0320677 0.00802016 -0.016036 0.00801583 -0.0240518 0.00801583 -0.00801583 0.00802016 -0.0320677 0.00801583 -0.00802016 0.00801583 -0.0240475 0.00802016 -0.00802016 0.00801583 -0.0240475 0.00801583 -0.00802016 0.00802016 -0.0240475 0.00801583 -0.00802016 0.00801583 -0.0240518 0.00802016 -0.00801583 0.00801583 -0.016036 0.00801583 -0.00801583 0.00801583 -0.0240518 0.00802016 -0.00801583 0.00801583 -0.016036 0.00801583 -0.00801583 0.00801583 -0.0240518 0.00802016 -0.00802016 0.00801583 -0.0160317 0.00801583 0 0.016036 -0.0240518 0 -0.00801583 0.00801583 -0.016036 0.00801583 0 0.016036 -0.0240475 0 -0.00802016 0.00801583 -0.00801583 0.00802016 -0.00801583 0.00801583 -0.016036 0.00801583 -0.00801583 0.00802016 -0.016036 0.00801583 -0.00801583 0.00801583 -0.00802016 0.00802016 -0.00801583 0.00801583 -0.016036 0.00801583 -0.00801583 0.00802016 -0.00801583 0.00801583 -0.00802016 0.00801583 -0.0160317 0.00802016 -0.00801583 0.00801583 -0.00802016 0.00801583 -0.00801583 0.00801583 -0.00801583 0.00802016 -0.00801583 0.00801583 -0.00802016 0.00801583 -0.00801583 0.00801583 -0.016036 0.00802016 0 0.0160317 -0.0160317 0 0 0.016036 -0.016036 0 -0.00801583 0.00801583 -0.00801583 0.00801583 -0.00802016 0.00802016 -0.00801583 0.00801583 -0.00801583 0.00801583 -0.00802016 0.00802016 0 0.0160317 -0.0160317 0 0 0.016036 -0.016036 0 0 0.016036 -0.016036 0 0 0.0160317 -0.0160317 0 -0.00802016 0.016036 -0.00801583 0.00801583 -0.00801583 0.00801583 -0.00801583 0.00802016 -0.00802016 0.00801583 -0.00801583 0.00801583 -0.00801583 0.016036 -0.00801583 0.00801583 0 0.016036 -0.016036 0 0 0.0160317 -0.0160317 0 -0.00802016 0.016036 -0.00801583 0.00801583 -0.00801583 0.016036 -0.00802016 0.00801583 0 0.016036 -0.0160317 0 -0.00802016 0.016036 -0.00801583 0.0160317 -0.00801583 0.016036 0 0.0160317 0.19241 0c0.0569626,0 0.0320677,0.388945 0.0320677,0.464996l0.0320677 0 -0.00842224 -0.00444892 0.0725619 -0.147878c0.0317131,-0.016784 0.101568,-0.13994 0.134791,-0.177875 0.052518,-0.0599588 0.0955328,-0.104491 0.15183,-0.16084 0.0378396,-0.0378742 0.12639,-0.118793 0.170295,-0.14237 0.0270913,-0.0145444 0.0584239,-0.0395128 0.0915163,-0.0608105 0.0395171,-0.0254354 0.067672,-0.0296767 0.0929387,-0.0674082l0.000419383 -0.360086 0.0156123 -0.00870327c0.0179816,-0.00418518 0.0184312,-0.00801583 0.0400878,-0.00801583l0.336717 0c0.0261574,0 0.0264081,0.00414627 0.0400878,0.016036l0.00828822 0.210967 0.256278 -0.0265724 0.144307 0c0.260679,0 0.561065,0.10418 0.723582,0.206401 0.0312116,0.0196332 0.0358853,0.00873354 0.0739151,0.0383238 0.0252667,0.0196678 0.0430581,0.0329237 0.0711092,0.0491499 0.0407969,0.0236065 0.0985333,0.0691722 0.131704,0.100795 0.0446146,0.0425263 0.212874,0.196371 0.226311,0.246701l-0.128275 0c-0.0517095,0 -0.229204,0.264566 -0.304649,0.264566l-0.152327 0 0 0.0641353 0.464992 0 0 -0.0561195 -0.256546 0c0.00834442,-0.0312635 0.235023,-0.24853 0.272582,-0.24853l0.0962073 0c0.0216523,0 0.0221062,0.00382633 0.0400835,0.00801583 0.0389594,-0.024722 0.520368,-0.013537 0.545167,0.00801583l0.416888 0 0.00802016 -0.00801583 0 -0.0400878 -0.016036 -0.00801583 -0.328701 0 -0.120259 0.00801583 0 -0.0160317 -0.00801583 -0.00802016c-0.00977983,-0.00549089 -0.00857357,-0.00801583 -0.0240518,-0.00801583l-0.304649 0 0 -0.0320677 0.176374 0 0 -0.144307 -0.336721 0c-0.0260579,0 -0.00605295,-0.00694792 -0.0400835,-0.016036l0 -0.384821c0,-0.0216566 -0.00383065,-0.0221062 -0.00801583,-0.0400878l-0.00802016 -0.00801583 -0.00801583 -0.00802016 -0.00801583 -0.00801583 -0.00801583 -0.00801583 -0.00802016 -0.00802016 -0.0160317 -0.00801583 -0.00802016 -0.00801583 -0.0160317 -0.00802016 -0.00802016 -0.00801583 -0.0160317 -0.00801583 -0.00802016 -0.00802016 -0.0160317 -0.00801583 -0.00802016 -0.00801583 -0.0160317 -0.00802016 -0.00802016 -0.00801583 -0.0160317 -0.00801583 -0.00801583 -0.00801583 -0.016036 -0.00802016 -0.00801583 -0.00801583 -0.0240518 -0.00801583 -0.00801583 -0.00801583 -0.016036 -0.00802016 -0.00801583 -0.00801583 -0.0240518 -0.00801583 -0.00801583 -0.00801583 -0.0240518 -0.00802016 -0.00802016 -0.00801583 -0.0160317 -0.00801583 -0.016036 -0.00802016 -0.016036 -0.00801583 -0.0160317 -0.00801583 -0.0240518 -0.00802016 -0.00801583 -0.00801583 -0.0240518 -0.00801583 -0.00801583 -0.00802016 -0.0320677 -0.00801583 -0.00802016 -0.00801583 -0.0320677 -0.00802016 -0.00801583 -0.00801583 -0.032072 -0.00801583 -0.0160317 -0.00802016 -0.032072 -0.00801583 -0.00801583 -0.00801583 -0.0400835 -0.00801583 -0.016036 -0.00802016 -0.0400835 -0.00801583 -0.00801583 -0.00801583 -0.0481036 -0.00801583 -0.016036 -0.00802016 -0.0561195 -0.00801583 -0.016036 -0.00801583 -0.0641353 -0.00802016 -0.0240518 -0.00801583 -0.0881871 -0.00801583 -0.032072 -0.00801583 -0.432924 0 -0.0240518 0.00801583z"/>
    <path id="_114629728" class="fil2" d="M4.04063 0.617319c0,-0.0184745 0.00557736,-0.0240518 0.0240518,-0.0240518l0.745594 0c0.0184745,0 0.0240518,0.00557736 0.0240518,0.0240518l0 0.432924c0,0.0184745 -0.00557736,0.0240518 -0.0240518,0.0240518l-0.745594 0c-0.0184745,0 -0.0240518,-0.00557736 -0.0240518,-0.0240518l0 -0.432924zm-0.0240518 -0.0561195l-0.0160317 0.00801583 0 0.152327c0.00418518,0.0179816 0.00801583,0.0184312 0.00801583,0.0400878l0 0.384821c0.0340305,0.00908807 0.0140255,0.016036 0.0400835,0.016036l0.336721 0 0 0.144307 -0.176374 0 0 0.0320677 0.304649 0c0.0154783,0 0.014272,0.00252494 0.0240518,0.00801583l0.136291 0 0 -0.0561195 -0.176379 0 0 -0.112239 0.344737 0 0.00802016 -0.00801583 0.0160317 -0.00801583 0 -0.016036 0.016036 0 0 -0.561199 -0.00801583 -0.00802016 -0.00802016 -0.0160317 -0.00801583 -0.00801583 -0.833781 0 -0.00802016 0.00801583z"/>
    <path id="_114900736" class="fil3" d="M4.5377 1.03421l0.256546 0 0 -0.272577c0,-0.0184745 -0.00557736,-0.0240518 -0.0240518,-0.0240518l-0.232494 0 0 0.296629z"/>
    <path id="_114900880" class="fil0" d="M0.545163 1.65153l0.609303 0c0.0184745,0 0.0240518,-0.00557736 0.0240518,-0.0240518l0 -0.360773c0,-0.0184745 -0.00557736,-0.0240518 -0.0240518,-0.0240518l-0.609303 0 0 0.408877z"/>
    <path id="_114630016" class="fil4" d="M5.08286 0.0160317l-0.0240475 0.00802016 -0.00802016 0.00801583 -0.0160317 0.00801583 -0.00802016 0.00802016 -0.0160317 0.00801583 -0.00802016 0.00801583 -0.0160317 0.00802016 -0.016036 0.00801583 -0.016036 0.00801583 -0.00801583 0.00802016 -0.016036 0.00801583 -0.00801583 0.00801583 -0.0160317 0.00801583 -0.00802016 0.00802016 -0.0240475 0.00801583 -0.00802016 0.00801583 -0.0160317 0.00801583 -0.00802016 0.00802016 -0.0160317 0.00801583 -0.00802016 0.00801583 -0.0240518 0.00801583 -0.00801583 0.00802016 -0.016036 0.00801583 -0.00801583 0.00801583 -0.0320677 0.00802016 0 0.0481036 0.0160317 0.00801583 0.00802016 0.00802016 0.0160317 0 0 0.0160317 0.016036 0 0 0.016036 0.016036 0 0 0.0160317 0.0160317 0 0 0.016036 0.016036 0 0 0.0160317 0.016036 0 0 0.016036 0.0160317 0.00801583 0.00802016 0.00801583 0.00801583 0.00802016 0.00801583 0.00801583 0.00801583 0.00801583 0.00802016 0.00802016 0.00801583 0.00801583 0.00801583 0.00801583 0.00801583 0.00802016 0.00802016 0.00801583 0.00801583 0.00801583 0.00801583 0.00802016 0.00802016 0.00801583 0.00801583 0.00801583 0.00801583 0.00802016 0.00802016 0.00801583 0.00801583 0.00801583 0.00801583 0.00802016 0.00802016 0.00801583 0.00801583 0.00801583 0.00801583 0.00801583 0.00802016 0.00802016 0.00801583 0.00801583 0.016036 0.00801583 0.0160317 0 0.00801583 -0.00801583 0 -0.016036 0 -0.0400835 0.00802016 -0.0240518 3.45883e-005 -0.0730331 0.0721166 0.00889351 0.00801583 0.00802016 0.0400878 0.00801583 0.016036 0.00801583 0.0320677 0.00802016 0.00801583 0.00801583 0.0240518 0.00801583 0.00802016 0.00802016 0.0240475 0.00801583 0.00802016 0.00801583 0.0160317 0.00802016 0.00801583 0.00801583 0.016036 0.00801583 0.00801583 0.00802016 0.016036 0.00801583 0.00801583 0.00801583 0.00801583 0.00801583 0.00802016 0.00802016 0.00801583 0.00801583 0.00801583 0.00801583 0.016036 0 0 0.016036 0.016036 0 0 0.0160317 0.00801583 0.00801583 0.00801583 0.00802016 0.00802016 0.00801583 0.00801583 0.00801583 0.00801583 0.016036 0.016036 0 0 0.016036 0.00801583 0.00801583 0.00801583 0.0240518 0.016036 0 0 0.016036 0.00801583 0.0160317 0.00801583 0.016036 0.00802016 0.00801583 0.00801583 0.0240518 0.00801583 0.016036 0.00802016 0.0320677 0.00801583 0.00801583 0.00801583 0.0400835 0.00801583 0.016036 0.00802016 0.0641396 0.00801583 0.0320677 0 0.104219 -0.00801583 0.032072 -0.00802016 0.0721555 -0.00801583 0.00801583 -0.00801583 0.0400835 -0.00801583 0.016036 0 0.0320677 -0.016036 0 0 0.0320677 -0.016036 0 0 0.032072 -0.0160317 0 0 0.0320677 -0.016036 0 -0.00801583 0.016036 -0.00801583 0.00801583 -0.00801583 0.0160317 -0.00802016 0.00802016 0 0.0160317 -0.0160317 0 -0.00802016 0.016036 -0.00801583 0.00801583 -0.00801583 0.00801583 -0.00802016 0.00802016 -0.00801583 0.00801583 -0.00801583 0.00801583 -0.00802016 0.00801583 -0.00801583 0.00802016 -0.016036 0.00801583 -0.00801583 0.00801583 -0.016036 0.00802016 -0.00801583 0.00801583 -0.00801583 0.00801583 -0.00801583 0.00802016 -0.0240518 0.00801583 0 0.016036 -0.0240518 0 -0.00801583 0.00801583 -0.0240518 0.00801583 -0.00801583 0.00802016 -0.0240518 0.00801583 -0.00802016 0.00801583 -0.0400835 0.00802016 -0.00802016 0.00801583 -0.0561195 0.00801583 -0.00801583 0.00801583 -0.240514 0 -0.0160317 -0.00801583 -0.0561238 -0.00801583 -0.00801583 -0.00801583 -0.0320677 -0.00802016 -0.016036 -0.00801583 -0.0240518 -0.00801583 -0.00801583 -0.00802016 -0.0240518 -0.00801583 -0.00801583 -0.00801583 -0.0240518 -0.00802016 -0.00801583 -0.00801583 -0.00802016 -0.00801583 -0.00801583 -0.00802016 -0.00801583 -0.0240518 -0.00801583 -0.00801583 -0.00802016 -0.0320677 -0.0160317 0 0 -0.0320677 -0.016036 0 0 -0.0320677 -0.0172379 -0.000402089 0.0092221 -0.0156339c-0.0247998,-0.0215528 -0.506208,-0.0327378 -0.545167,-0.00801583 0.0337409,0.0503821 0.168363,0.250034 0.169323,0.311506l0.021021 0.0178432 0.0931635 0.28764 0.0291622 0.304978 0 0.112239c0,0.0773394 -0.0371737,0.354668 -0.0721555,0.368789 0,0.0559509 0.00367933,0.164052 -0.0502395,0.168069l0.010156 -0.0718615 -0.0240518 0 0.00623454 0.00623454 -0.0320677 0.0320677 -0.00623454 -0.00623454c0.00042803,-0.019257 0.0194429,-0.075584 -0.00824498,-0.0739713l-0.0879623 0.00983172c-0.00208827,0.0250808 -0.00801583,0.0284834 -0.00801583,0.0561238l0 0.0240518c0,0.0494872 0.0178519,0.110038 0.0561195,0.120255l0 0.0400878c0,0.0278522 0.016036,0.0122313 0.016036,0.0400835l0 0.00802016c0,0.0278479 -0.016036,0.0122313 -0.016036,0.0400835l0 0.0481036c-0.0395258,0.0159538 -0.0320677,0.160753 -0.0320677,0.216462l0 0.0480993c0,0.0478226 0.0234119,0.128837 0.0394609,0.156983l-0.111616 0.0193954 0 0.00801583 0.0721555 0 0 0.0240518 0.0481036 0c0.00128841,-0.0578835 0.0417697,-0.0353362 0.096203,-0.0641353 -0.0202341,-0.055899 -0.0468455,-0.0572782 -0.0570015,-0.135409 -0.0077521,-0.0596388 -0.0151497,-0.114604 -0.0151497,-0.185276l0 -0.016036c0,-0.0597253 0.0811354,-0.158799 0.096203,-0.200426l0.0481036 0c0.0205584,0 0.0950443,0.0446059 0.112239,0.0561195l0 0.0400878c0.0679746,0.0455182 0.0202082,0.221707 0.0721511,0.240514l0.00802016 -0.00802016 0.00801583 -0.0160317 0.00801583 -0.00802016 0 -0.0240475 0.016036 0 0 -0.032072 0.016036 0 0.00801583 -0.0240518 0.00801583 -0.00801583 0.00802016 -0.0240518 0.00801583 -0.00801583 0.00801583 -0.0240518 0.00802016 -0.00802016 0 -0.0320677 0.0160317 0 0 -0.0320677 0.016036 0 0.00801583 -0.0320677 0.00801583 -0.00801583 0.00802016 -0.0320677 0.00801583 -0.00802016 0.00801583 -0.0320677 0.00801583 -0.016036 0.00802016 -0.0320677 0.00801583 -0.00801583 0.00801583 -0.0400878 0.00801583 -0.0160317 0.00802016 -0.0320677 0.00801583 -0.016036 0.00801583 -0.0481036 0.00802016 -0.016036 0.00801583 -0.0480993 0.00801583 -0.016036 0.00802016 -0.0641353 0.00801583 -0.0240518 0.00801583 -0.0881915 0.00802016 -0.0240518 0 -0.473008 -0.00802016 -0.0320677 -0.00801583 -0.0881871 -0.00801583 -0.016036 -0.00802016 -0.0721555 -0.00801583 -0.00801583 -0.00779966 -0.0412206 0.0238356 0.00915292 0.00801583 0.00801583 0.0561195 0.00801583 0.0240518 0.00802016 0.280597 0 0.0240518 -0.00802016 0.0561238 -0.00801583 0.00801583 -0.00801583 0.0481036 -0.00802016 0.00801583 -0.00801583 0.0320677 -0.00801583 0.00802016 -0.00801583 0.0320677 -0.00802016 0.00801583 -0.00801583 0.0240518 -0.00801583 0.00801583 -0.00802016 0.0240518 -0.00801583 0.00801583 -0.00801583 0.016036 -0.00802016 0.00801583 -0.00801583 0.0240518 -0.00801583 0.00802016 -0.00802016 0.00801583 -0.00801583 0.00801583 -0.00801583 0.016036 -0.00802016 0.00801583 -0.00801583 0.016036 -0.00801583 0.00801583 -0.00802016 0.00801583 -0.00801583 0.00801583 -0.00801583 0.016036 -0.00801583 0 -0.016036 0.016036 0 0.00801583 -0.00801583 0.00801583 -0.00801583 0.00801583 -0.00802016 0.00802016 -0.00801583 0.00801583 -0.00801583 0.00801583 -0.00801583 0 -0.016036 0.016036 0 0 -0.016036 0.016036 0 0 -0.0160317 0.0160317 0 0.00802016 -0.016036 0.00801583 -0.00801583 0.00801583 -0.016036 0.00802016 -0.00801583 0 -0.016036 0.0160317 0 0.00802016 -0.0240518 0.00801583 -0.00801583 0.00801583 -0.016036 0.00801583 -0.00801583 0 -0.0240518 0.016036 0 0.00801583 -0.0320677 0.00801583 -0.00801583 0.00802016 -0.0240518 0.00801583 -0.00801583 0 -0.0400878 0.0160317 0 0.00802016 -0.0400878 0.00801583 -0.00801583 0.00801583 -0.0561195 0.00802016 -0.00801583 0.00801583 -0.0881871 0.00801583 -0.0240561 0 -0.152322 -0.00801583 -0.0240518 -0.00801583 -0.0801713 -0.00802016 -0.016036 -0.00801583 -0.0480993 -0.00801583 -0.016036 -0.00802016 -0.0320677 -0.00801583 -0.016036 -0.00801583 -0.0320677 -0.016036 0 0 -0.0320677 -0.00801583 -0.00802016 -0.00801583 -0.0240518 -0.016036 0 0 -0.0320677 -0.0160317 0 0 -0.0240518 -0.00801583 -0.00801583 -0.00802016 -0.0160317 -0.0160317 0 0 -0.0240518 -0.00802016 -0.00801583 -0.00801583 -0.016036 -0.016036 0 0 -0.016036 -0.00801583 -0.00801583 -0.00801583 -0.00801583 -0.00802016 -0.00802016 -0.00801583 -0.0160317 -0.00801583 -0.00802016 -0.00802016 -0.00801583 -0.00801583 -0.00801583 -0.00801583 -0.00802016 -0.00802016 -0.00801583 -0.00801583 -0.00801583 -0.00801583 -0.00802016 -0.00801583 -0.00801583 -0.00802016 -0.00801583 -0.0160317 0 0 -0.016036 -0.016036 -0.00801583 -0.00801583 -0.00801583 -0.016036 -0.00801583 -0.00801583 -0.00802016 -0.00801583 -0.00801583 -0.00801583 -0.00801583 -0.016036 -0.00802016 -0.00801583 -0.00801583 -0.016036 -0.00801583 -0.00801583 -0.00801583 -0.0240518 -0.00802016 -0.00802016 -0.00801583 -0.0160317 -0.00801583 -0.00802016 -0.00802016 -0.0240518 -0.00801583 -0.00801583 -0.00802016 -0.0320677 -0.00801583 -0.00801583 -0.00801583 -0.0320677 -0.00802016 -0.00801583 -0.00801583 -0.0400878 -0.00801583 -0.00801583 -0.00802016 -0.0481036 -0.00801583 -0.016036 -0.00801583 -0.0649741 -3.02647e-005 0.0088546 -0.080141 0.00801583 -0.0400835 0 -0.0481036 -0.0480993 0 -0.00802016 0.0160317z"/>
    <path id="_114901024" class="fil5" d="M0.545163 1.24265l0.609303 0c0.0184745,0 0.0240518,0.00557736 0.0240518,0.0240518l0 0.360773c0,0.0184745 -0.00557736,0.0240518 -0.0240518,0.0240518l-0.609303 0 0 -0.408877zm0 -0.0400835l-0.0240518 0.00801583 -0.00801583 0.00802016 -0.00801583 0.00801583 0 0.432924 -0.0320677 0 0 0.0481036 0.0160317 0.00801583 0.00801583 0.00801583 0.216462 0.00801583 -0.360769 0.00802016 0 0.0481036 0.344737 0.00801583 0.00801583 -0.016036 0.456976 0 0.016036 0 0.16467 -0.00425868 0.252218 0.260809 -0.0400835 0 0 0.0400878c0,0.0372213 0.0639451,0.0240518 0.10677,0.0214836l0.133744 0.138859 -0.240514 0 0 0.0641353 0.50508 0c0.0184701,0 0.0240518,-0.00557736 0.0240518,-0.0240518l0 -0.0400835 -0.224482 0c-0.0415708,0 -0.135379,-0.104266 -0.152322,-0.136291 0.0459548,0 0.216462,0.0180767 0.216462,-0.0240518l0 -0.0400878 -0.272582 0c-0.0207746,0 -0.279127,-0.254379 -0.288618,-0.280602l-0.169625 -0.000687442 0.0333345 -0.0474119 -0.0002205 -0.0229191 -0.0238313 -0.0091486c0,-0.076051 0.0248949,-0.464996 -0.0320677,-0.464996l-0.19241 0 0 -0.0160317 -0.00802016 0 -0.424908 0.00801583z"/>
    <path id="_114901096" class="fil6" d="M0.69749 1.79584l-0.00801583 0.016036 -0.00802016 0.00801583 -0.00801583 0.0481036 -0.00801583 0.0160317 -0.00801583 0.0561195 -0.00802016 0.016036 -0.00801583 0.0721555 -0.00801583 0.016036 0 0.080167 0.128271 0 0 0.0320677 -0.128271 0 -0.00801583 0.00802016 -0.00802016 0.00801583 0 0.0962073 0.0320677 0.00801583 0.00802016 0.00802016 0.0160317 0.00801583 0.00801583 0.00801583 0.0240518 0.00802016 0.00801583 0.00801583 0.016036 0.00801583 0.00801583 0.00801583 0 0.00802016 -0.0160317 0.00801583 -0.00802016 0.00801583 -0.0240475 0.00801583 -0.00802016 0.00802016 -0.0160317 0.00801583 -0.00801583 0.00801583 -0.0240518 0.00801583 -0.00801583 0.00802016 -0.00802016 0.00801583 0 0.160343 0.00802016 0.0320677 0.00801583 0.0962073 0.00801583 0.0240518 0.00801583 0.0721555 0.00802016 0.0160317 0.00801583 0.0481036 0.00801583 0.0160317 0.00801583 0.048108 0.00802016 0.0160317 0.00801583 0.0400878 0.00801583 0.00801583 0.00801583 0.0481036 0.016036 0 0 0.0480993 0.016036 0 0 0.032072 0.00801583 0.0160317 0.00801583 0.032072 0.016036 0 0 0.0320677 0.00801583 0.0160317 0.00802016 0.0240518 0.00801583 0.00801583 0.00801583 0.0320677 0.016036 0 0 0.032072 0.016036 0 0 0.0320677 0.0160317 0 0 0.0320677 0.016036 0 0 0.0240518 0.00801583 0.00802016 0.00801583 0.0160317 0.00802016 0.00801583 0.00801583 0.0240518 0.0160317 0 0 0.0240518 0.00802016 0.00801583 0.00801583 0.016036 0.00801583 0.00801583 0.00802016 0.0240518 0.0160317 0 0 0.016036 0.00802016 0.00801583 0.00801583 0.016036 0.00801583 0.00801583 0.00802016 0.016036 0.0160317 0 0 0.0240518 0.00802016 0.00801583 0.00801583 0.016036 0.016036 0 0 0.0160317 0.0160317 0 0 0.016036 0.00801583 0.00801583 0.00802016 0.0160317 0.00801583 0.00802016 0.00801583 0.00801583 0.00801583 0.00801583 0.00802016 0.016036 0.0160317 0.00801583 0.0320677 -0.184394 0 -0.0240518c-0.023814,-0.00635992 -0.080167,-0.0546668 -0.080167,-0.080167l-0.00467806 -0.0888357 0.0296508 -0.215692 -0.00309565 -0.00787316 0.138466 -0.0403559c-0.0261185,-0.0978113 -0.104227,-0.192817 -0.10306,-0.305613l-0.0164943 -0.0232001 -0.0488084 -0.304537 0 -0.184394c0,-0.0990349 0.0264514,-0.183742 0.038406,-0.266248 0.0106878,-0.0737725 0.00422842,-0.0650605 0.0258418,-0.126481 0.0068528,-0.0194732 0.0389853,-0.108503 0.0399754,-0.120372l-0.016036 0 -0.456976 0 -0.00801583 0.016036z"/>
    <path id="_114629800" class="fil7" d="M4.91717 2.59755l0 0.0240518 0 -0.0240518zm-0.0507756 0.0561195l0.0561195 0.00801583 -0.120255 0.00802016 -0.00802016 0.0160317 0 0.0561238 0.00802016 0.00801583 0.168358 0 0.00801583 -0.00801583 0 -0.0641396 0.240514 -0.00801583 0 -0.144307 -0.296633 0 0 0.0561152 -0.00801583 0 0 -0.176374 -0.0481036 0 0 0.24853z"/>
    <path id="_114901216" class="fil8" d="M4.08874 2.87815l0.0879623 -0.00983172c0.0276879,-0.00161268 0.00867301,0.0547143 0.00824498,0.0739713l0.00623454 0.00623454 0.0320677 -0.0320677 -0.00623454 -0.00623454 0.0240518 0 -0.010156 0.0718615c0.0539188,-0.00401656 0.0502395,-0.112118 0.0502395,-0.168069 -0.0129965,-0.0194083 -0.0234898,-0.0320677 -0.0561195,-0.0320677l-0.0480993 0c-0.0599977,0 -0.0671315,0.0209648 -0.104227,0.0240518l0.000402089 0.0629334 0.0156339 0.00921778z"/>
    <path id="_114901360" class="fil9" d="M2.18066 2.83005l0 0.0641353 0.0561195 0c0.0184701,0 0.0240475,0.00558168 0.0240475,0.0240518l0 0.032072 0.0240518 0 0 -0.048108 0.0400878 0 0 0.0561238c0,0.0325087 0.00741919,0.0415189 0.0320677,0.0480993l0.0481036 -0.120255 0.0400835 0c0.0184745,0 0.0240518,-0.00558168 0.0240518,-0.0240518 0,-0.0381984 -0.0511258,-0.013965 -0.0930857,-0.0432008 -0.03675,-0.025604 -0.0454231,-0.0369705 -0.10734,-0.0369705l-0.0400878 0c-0.0317607,0 -0.0183188,0.0262784 -0.0480993,0.0481036z"/>
    <path id="_114629752" class="fil10" d="M1.19455 2.89418c0,0.0517786 0.0402651,0.0989052 0.0721555,0.120259l-9.94413e-005 0.040144 0.0161311 0.0320071 0.104223 0c0.00166024,-0.0746415 0.0481036,-0.0167494 0.0481036,-0.0721511l0 -0.0400878c0,-0.0441865 -0.0426776,-0.160343 -0.0881915,-0.160343l-0.0400835 0c-0.0225429,0 -0.112239,0.0598637 -0.112239,0.0801713z"/>
    <path id="_114901480" class="fil8" d="M3.05453 3.01444l0.120255 -0.00802016 0 0.032072 0.0160317 0 0 -0.016036 0.032072 0 0 0.0240518 0.0160317 0c0.00549521,-0.00977983 0.00802016,-0.00857357 0.00802016,-0.0240518l0 -0.104223c-0.0338273,-0.00370095 -0.034999,-0.0240518 -0.0962073,-0.0240518 -0.102814,0 -0.0736168,0.0405331 -0.112239,0.0561238l0 0.0400835c0,0.0225732 0.00346747,0.0148427 0.016036,0.0240518z"/>
    <path id="_114901600" class="fil11" d="M1.66756 3.31108c0.0400403,0.0293352 0.0396252,0.107142 0.113571,0.150999 0.0427079,0.0253316 0.148358,0.0611045 0.175047,0.0975303 0.00977983,0.00549521 0.00857357,0.00801583 0.0240518,0.00801583l0.0547446 0.000964148 0.0254267 0.0471395 0.0721555 0 0 -0.136291 -0.25655 0 0 -0.0641353 0.176379 0c-0.0316526,-0.027515 -0.143092,-0.0789045 -0.120272,-0.130004l-0.272128 0.0015608 0.00757483 0.0242204z"/>
    <path id="_114630208" class="fil12" d="M3.87227 3.44737l0.0176357 0.0865874 0.014432 0.0176357 0.0400878 0 0.0243631 -0.0872057 0.0317564 -0.0090016 0 0.0641353c0,0.0909542 -0.00814122,0.119546 -0.0321541,0.184312 -0.011198,0.0301999 -0.0456608,0.146892 -0.0319855,0.168445l0.0240518 0.016036 0.0271691 -0.0416054 0.0449864 -0.142793 0 -0.00801583 0.0801713 -0.561199c-0.0780398,0.00173806 -0.135097,0.0625702 -0.161289,0.114902l-0.0792244 0.197767z"/>
    <path id="_114901720" class="fil13" d="M3.38323 3.28702l0.016036 0.368789c0.0118897,-0.0136797 0.016036,-0.0139304 0.016036,-0.0400878l0 -0.136291 0.200426 0c0.0556871,0 0.0248041,0.112239 0.0801713,0.112239l0.0962073 0 0 0.016036 0.0240518 -0.016036 0.0655405 0.0003675 0.00667121 -0.031471 0.0560633 -0.00897998 -0.0400878 0 -0.014432 -0.0176357 -0.0176357 -0.0865874c-0.0259542,-0.0409093 0.000159971,-0.081637 -0.0380903,-0.0965229l-0.0100133 -0.0638197 0.0240518 0 0 -0.0641353 -0.44896 0c-0.0375888,0 -0.0255521,0.0442989 -0.016036,0.0641353z"/>
    <path id="_114901864" class="fil14" d="M1.61144 3.22289l0.0561195 0.0881871 -0.00757483 -0.0242204 0.272128 -0.0015608c-0.0228196,0.0510999 0.0886195,0.102489 0.120272,0.130004l-0.176379 0 0 0.0641353 0.25655 0 0 0.136291 -0.0721555 0 -0.0254267 -0.0471395 -0.0547446 -0.000964148c-0.0154783,0 -0.014272,-0.00252062 -0.0240518,-0.00801583l-0.0189241 0.0685496 0.0509918 0.0276576 0.0481036 0 0 0.0160317 0.0721555 0c0.0830464,0 0.0641785,0.0283278 0.0641396,-0.096203 -2.16177e-005,-0.0574684 -0.00806772,-0.12668 0.00450945,-0.179885 0.0120021,-0.0507756 0.0154869,-0.0983518 0.0329367,-0.143438 0.0159711,-0.0412422 0.0496774,-0.0859519 0.0507367,-0.133653l-0.0160317 0c-0.0214274,0.0156944 -0.112239,0.249706 -0.112239,0.288618l0 0.0480993 -0.0266676 -0.000600971 0.0207789 -0.0822682 -0.0902408 -0.0690685 -0.046331 0.00578057 -0.0480993 -0.0481036 0.00750133 -0.00916589 0.0708152 0.027048 0 -0.0240475c0,-0.0184745 -0.00557736,-0.0240518 -0.0240475,-0.0240518l-0.0469017 0.000402089 -0.00921778 0.0156296 -0.000968472 -0.0549564 -0.0230834 -0.0171947 0 0.0400835 -0.0240518 0 0.0039863 -0.00695657 -0.0841576 -0.0411428 0 0.0240518 -0.0320677 0 0 0.0320677 -0.152327 0 -0.016036 0z"/>
    <path id="_114630064" class="fil12" d="M4.24908 3.66383c0.0092783,0.00879839 0.0320677,0.0486527 0.0320677,0.0641353l-0.00167753 0.0377574 -0.0303901 0.0183621 0 0.032072 0.0320677 0 0.000345883 0.0178346 0.0395128 -0.00971931 0.0322968 0.072056 0.00801583 -0.016036 0.016036 -0.00801583 0.00801583 -0.00801583 0.0240518 -0.00802016 0.00801583 -0.00801583 0.0240518 -0.00801583 0.00802016 -0.00801583 0 -0.104227 -0.016036 0 0 -0.0320677 -0.0171688 -0.000216177 0.00915292 -0.0238356 0.00801583 -0.00801583 0.00801583 -0.0160317 0.00802016 -0.016036 0.00801583 -0.016036 0.00801583 -0.00801583 0 -0.0240518 0.016036 0 0 -0.0320677 0.0160317 0 0.00801583 -0.0240518 0.00802016 -0.00802016 0 -0.0480993 -0.00802016 -0.00801583c-0.0519429,-0.0188074 -0.00417653,-0.194996 -0.0721511,-0.240514l0 -0.0400878c-0.0171947,-0.0115136 -0.0916805,-0.0561195 -0.112239,-0.0561195l-0.0481036 0c-0.0150675,0.041627 -0.096203,0.140701 -0.096203,0.200426l0 0.016036c0,0.0706725 0.00739757,0.125638 0.0151497,0.185276 0.010156,0.0781306 0.0367673,0.0795098 0.0570015,0.135409z"/>
    <path id="_114902032" class="fil1" d="M3.05453 3.01444l0.0160879 0.0929992 0.0239956 0.0673434 0.0240518 0 0 0.0240518c-0.103678,0.00862545 -0.166728,0.0846202 -0.182592,0.178181 -0.00331183,0.0195553 -0.0237405,0.155881 -0.0253921,0.158998 -0.0160187,0.030308 -0.068541,0.0584672 -0.0842397,0.104967l-0.00441001 -0.0172379 -0.0561238 0c0.00278868,0.0334685 0.0304809,0.152322 0.0641396,0.152322l0.0898214 0.000410736 -0.00965013 0.0396771c0.00835739,0.0124777 0.0106272,0.0240518 0.0320677,0.0240518 0.0338014,0 0.0188506,-0.0304377 0.0647103,-0.0475935 0.0359156,-0.0134375 0.0593881,-0.000510177 0.103648,-0.000510177l0.128543 0.0017813 0.0718874 -0.00980145 -0.00600539 -0.076479 0.0941925 -0.0517916 -0.016036 -0.368789c-0.0274285,-0.00993116 -0.0434645,-0.0350509 -0.0672612,-0.0529936 -0.0341386,-0.025738 -0.0850612,-0.00564221 -0.0850612,-0.0432094l0 -0.104227c0,-0.0216523 0.00382633,-0.0221019 0.00801583,-0.0400835l-0.0160317 0 0 -0.0240518 -0.032072 0 0 0.016036 -0.0160317 0 0 -0.032072 -0.120255 0.00802016z"/>
    <path id="_114902200" class="fil11" d="M1.19455 2.89418c0,-0.0203076 0.089696,-0.0801713 0.112239,-0.0801713l0.0400835 0c0.0455138,0 0.0881915,0.116156 0.0881915,0.160343l0 0.0400878c0,0.0554018 -0.0464434,-0.00249036 -0.0481036,0.0721511l-0.104223 0 -0.0161311 -0.0320071 9.94413e-005 -0.040144c-0.0318904,-0.0213539 -0.0721555,-0.0684805 -0.0721555,-0.120259zm0.00801583 -1.2186l0.0238313 0.0091486 0.0002205 0.0229191 -0.0333345 0.0474119 0.169625 0.000687442c0.00949016,0.0262222 0.267843,0.280602 0.288618,0.280602l0.272582 0 0 0.0400878c0,0.0421285 -0.170507,0.0240518 -0.216462,0.0240518 0.0169439,0.0320244 0.110752,0.136291 0.152322,0.136291l0.224482 0 0 0.0400835c0,0.0184745 -0.00558168,0.0240518 -0.0240518,0.0240518l-0.50508 0 0 -0.0641353 0.240514 0 -0.133744 -0.138859c-0.0428246,0.00256818 -0.10677,0.0157377 -0.10677,-0.0214836l0 -0.0400878 0.0400835 0 -0.252218 -0.260809 -0.16467 0.00425868c-0.000990089,0.0118681 -0.0331226,0.100898 -0.0399754,0.120372 -0.0216133,0.0614201 -0.015154,0.0527082 -0.0258418,0.126481 -0.0119546,0.082506 -0.038406,0.167213 -0.038406,0.266248l0 0.184394 0.0488084 0.304537 0.0164943 0.0232001c-0.00116735,0.112797 0.0769416,0.207802 0.10306,0.305613 0.0906126,0 0.156983,-0.00703007 0.225952,0.0145617 0.124414,0.0389594 0.0656918,0.0163559 0.142832,0.0976816l0.016036 0 0.152327 0 0 -0.0320677 0.0320677 0 0 -0.0240518 0.0841576 0.0411428 -0.0039863 0.00695657 0.0240518 0 0 -0.0400835 0.0230834 0.0171947 0.000968472 0.0549564 0.00921778 -0.0156296 0.0469017 -0.000402089c0.0184701,0 0.0240475,0.00557736 0.0240475,0.0240518l0 0.0240475 -0.0708152 -0.027048 -0.00750133 0.00916589 0.0480993 0.0481036 0.046331 -0.00578057 0.0902408 0.0690685 -0.0207789 0.0822682 0.0266676 0.000600971 0 -0.0480993c0,-0.0389118 0.0908115,-0.272923 0.112239,-0.288618 0.00549521,-0.00977983 0.00801583,-0.00857789 0.00801583,-0.0240518l0 -0.0240518 -0.0160317 0 0 0.0160317 -0.352757 0 0 -0.0480993 0.317922 -0.0041895 -0.0373207 -0.0358983c0.00106791,-0.0480388 0.016036,-0.0350033 0.016036,-0.0721511l0 -0.00802016c0,-0.0184701 -0.00558168,-0.0240518 -0.0240518,-0.0240518l-0.144311 0 0 -0.0561195 0.144311 0c0.0306495,0 0.00291839,0.00246441 0.0240518,-0.00801583 0.0297805,-0.0218252 0.0163386,-0.0481036 0.0480993,-0.0481036l0.0400878 0c0.0619173,0 0.0705903,0.0113666 0.10734,0.0369705 0.0419599,0.0292357 0.0930857,0.00500233 0.0930857,0.0432008 0,0.0184701 -0.00557736,0.0240518 -0.0240518,0.0240518l-0.0400835 0 -0.0481036 0.120255 0 0.0240518 0.240514 0c0.0184745,0 0.0240518,0.00557736 0.0240518,0.0240518l0 0.00801583c0,0.0216566 -0.00382633,0.0221062 -0.00801583,0.0400878l-0.227318 -0.0017813 0.0349082 0.12204 0.0561195 0c0.0184701,0 0.0240475,0.00557736 0.0240475,0.0240475l0 0.016036c0,0.0184745 -0.00557736,0.0240518 -0.0240475,0.0240518l-0.0481036 0c0.00312592,0.0375845 0.0160317,0.0396468 0.0160317,0.0801713l0 0.0481036 0.0141682 0.000172941 0.0098836 0.120082 0.26428 7.35001e-005 0.00830119 0.0400143 0.0240518 0.0481036 0.0561238 0 0.00441001 0.0172379c0.0156988,-0.0464996 0.068221,-0.0746588 0.0842397,-0.104967 0.00165159,-0.00311727 0.0220803,-0.139443 0.0253921,-0.158998 0.015863,-0.0935613 0.0789131,-0.169556 0.182592,-0.178181l0 -0.0240518 -0.0240518 0 -0.0239956 -0.0673434 -0.0160879 -0.0929992c-0.0125685,-0.00920913 -0.016036,-0.00147865 -0.016036,-0.0240518l0 -0.0400835c0.0386221,-0.0155907 0.0094253,-0.0561238 0.112239,-0.0561238 0.0612083,0 0.06238,0.0203509 0.0962073,0.0240518l0 0.104223c0,0.0154783 -0.00252494,0.014272 -0.00802016,0.0240518 -0.0041895,0.0179816 -0.00801583,0.0184312 -0.00801583,0.0400835l0 0.104227c0,0.0375672 0.0509226,0.0174714 0.0850612,0.0432094 0.0237967,0.0179427 0.0398327,0.0430624 0.0672612,0.0529936 -0.0095161,-0.0198364 -0.0215528,-0.0641353 0.016036,-0.0641353l0.44896 0 0 0.0641353 -0.0240518 0 0.0100133 0.0638197c0.0382503,0.0148859 0.0121362,0.0556136 0.0380903,0.0965229l0.0792244 -0.197767c0.026192,-0.0523321 0.0832497,-0.113164 0.161289,-0.114902l-0.0801713 0.561199 0.111616 -0.0193954c-0.016049,-0.0281462 -0.0394609,-0.109161 -0.0394609,-0.156983l0 -0.0480993c0,-0.0557087 -0.0074581,-0.200508 0.0320677,-0.216462l0 -0.0481036c0,-0.0278522 0.016036,-0.0122356 0.016036,-0.0400835l0 -0.00802016c0,-0.0278522 -0.016036,-0.0122313 -0.016036,-0.0400835l0 -0.0400878c-0.0382676,-0.0102165 -0.0561195,-0.0707676 -0.0561195,-0.120255l0 -0.0240518c0,-0.0276404 0.00592757,-0.031043 0.00801583,-0.0561238l-0.0156339 -0.00921778 -0.000402089 -0.0629334c0.0370959,-0.003087 0.0442298,-0.0240518 0.104227,-0.0240518l0.0480993 0c0.0326297,0 0.0431229,0.0126593 0.0561195,0.0320677 0.0349817,-0.0141207 0.0721555,-0.291449 0.0721555,-0.368789l0 -0.112239 -0.0291622 -0.304978 -0.0931635 -0.28764 -0.021021 -0.0178432c-0.000959825,-0.061472 -0.135582,-0.261124 -0.169323,-0.311506 -0.0179773,-0.0041895 -0.0184312,-0.00801583 -0.0400835,-0.00801583l-0.0962073 0c-0.0375585,0 -0.264237,0.217266 -0.272582,0.24853l0.256546 0 0 0.0561195 -0.464992 0 0 -0.0641353 0.152327 0c0.0754457,0 0.25294,-0.264566 0.304649,-0.264566l0.128275 0c-0.0134375,-0.0503303 -0.181697,-0.204175 -0.226311,-0.246701 -0.0331702,-0.0316223 -0.0909066,-0.0771881 -0.131704,-0.100795 -0.0280511,-0.0162262 -0.0458424,-0.0294822 -0.0711092,-0.0491499 -0.0380298,-0.0295903 -0.0427035,-0.0186906 -0.0739151,-0.0383238 -0.162517,-0.102221 -0.462904,-0.206401 -0.723582,-0.206401l-0.144307 0 -0.256278 0.0265724 -0.00828822 -0.210967 0.00998304 0.440888 -0.00196721 0.112291c0,0.018695 -0.0213885,0.0400878 -0.0400835,0.0400878l-0.344737 0c-0.0405418,0 -0.027662,-0.0137532 -0.0561195,-0.0240518l0.0160317 -0.577235 -0.0156123 0.00870327 -0.000419383 0.360086c-0.0252667,0.0377315 -0.0534216,0.0419729 -0.0929387,0.0674082 -0.0330923,0.0212977 -0.064425,0.0462661 -0.0915163,0.0608105 -0.0439055,0.0235762 -0.132456,0.104496 -0.170295,0.14237 -0.0562967,0.0563486 -0.0993116,0.100881 -0.15183,0.16084 -0.033222,0.0379347 -0.103077,0.161091 -0.134791,0.177875l-0.0725619 0.147878 0.00842224 0.00444892 -0.0320677 0z"/>
    <path id="_114629776" class="fil6" d="M1.53929 4.36933l0.00801583 -0.00801583 0 -0.288613 0.00801583 0 0.00530065 0.0503778 0.0187512 -0.0503778 0.481028 0 0.0017813 0.0243156 -0.00758348 0.073258 0.0130744 -0.017493 -0.00727218 0.0802578 0.0721555 -0.344733c-0.0379044,-0.0240518 -0.0785024,0.0117081 -0.120648,-0.0236627 -0.0263779,-0.0221365 -0.0596432,-0.0402824 -0.092943,-0.0593837 -0.0352887,-0.0202471 -0.0708022,-0.0261271 -0.103955,-0.0483674 -0.02515,-0.0168704 -0.0648963,-0.0539404 -0.091326,-0.0610007l0 -0.0240518 0.0400835 0 0 -0.0480993 -0.104223 0c-0.0265033,0 -0.109922,-0.094586 -0.136291,-0.112243l0.0320677 0.360773 0 0.016036c0,0.0221754 -0.00618698,0.0192786 -0.0206103,0.0239999l0.00457862 0.457024z"/>
    <path id="_114902272" class="fil3" d="M3.39926 3.65581l-0.0941925 0.0517916 0.00600539 0.076479 0.0481036 0.0881915 0.0320677 0c0.0343937,-0.0298972 0.186137,-0.106692 0.23434,-0.134449 0.0456436,-0.0262828 0.053988,-0.0584066 0.126226,-0.0581688 0.0418129,0.000138353 0.168566,0.0174195 0.168566,-0.0238443l0 -0.0320677 -0.136978 -0.000423706 0.00870327 -0.0156123 0 -0.016036 -0.0962073 0c-0.0553672,0 -0.0244842,-0.112239 -0.0801713,-0.112239l-0.200426 0 0 0.136291c0,0.0261574 -0.00414627,0.0264081 -0.016036,0.0400878z"/>
    <path id="_114902344" class="fil3" d="M2.2448 3.11866l0.0160317 0c-0.00105927,0.0477016 -0.0347655,0.0924112 -0.0507367,0.133653 -0.0174498,0.0450858 -0.0209346,0.092662 -0.0329367,0.143438 -0.0125772,0.0532054 -0.00453106,0.122417 -0.00450945,0.179885 3.89118e-005,0.124531 0.0189068,0.096203 -0.0641396,0.096203l-0.0721555 0 0 -0.0160317 -0.0481036 0 0 0.0160317 -0.144307 0 0 -0.0400835c0,-0.0141942 -0.0692457,-0.0531968 -0.0849185,-0.0593924 -0.0628685,-0.0248474 -0.0440006,-0.0162003 -0.0883341,-0.0559725 -0.0259326,-0.0232649 -0.128919,-0.127432 -0.131397,-0.157217l-0.0240518 0 0 0.128271c0,0.0306539 -0.00246441,0.00291839 0.00801583,0.0240518 0.0263692,0.0176573 0.109788,0.112243 0.136291,0.112243l0.104223 0 0 0.0480993 -0.0400835 0 0 0.0240518c0.0264298,0.00706033 0.066176,0.0441303 0.091326,0.0610007 0.0331529,0.0222403 0.0686664,0.0281203 0.103955,0.0483674 0.0332999,0.0191014 0.0665651,0.0372472 0.092943,0.0593837 0.0421458,0.0353708 0.0827438,-0.000389118 0.120648,0.0236627 0.0149248,-0.0214793 0.0213928,-0.063997 0.02368,-0.0965791 0.00543901,-0.0773653 0.0107051,-0.0410909 0.072523,-0.039716 -0.00157809,0.0708714 -0.0320677,0.0185826 -0.0320677,0.0641396l0.00331615 0.0271431 0.0287515 0.0289763 0.0266157 -0.00469103 0.0695916 -0.0754803c0.0256645,-0.0159365 0.0351547,0.00801583 0.0801713,0.00801583l0.00801583 0c0.0417135,0 0.0240518,-0.148509 0.0240518,-0.19241 0.0152275,-0.0227418 0.0187944,-0.0561195 0.0481036,-0.0561195l0.224478 0c0.0224867,0 0.0195337,0.00962419 0.0320677,0.0240518l-0.00830119 -0.0400143 -0.26428 -7.35001e-005 -0.0098836 -0.120082 -0.0141682 -0.000172941 0 -0.0481036c0,-0.0405245 -0.0129058,-0.0425868 -0.0160317,-0.0801713l0.0481036 0c0.0184701,0 0.0240475,-0.00557736 0.0240475,-0.0240518l0 -0.016036c0,-0.0184701 -0.00557736,-0.0240475 -0.0240475,-0.0240475l-0.0561195 0 -0.0349082 -0.12204 0.227318 0.0017813c0.0041895,-0.0179816 0.00801583,-0.0184312 0.00801583,-0.0400878l0 -0.00801583c0,-0.0184745 -0.00557736,-0.0240518 -0.0240518,-0.0240518l-0.240514 0 0 -0.0240518c-0.0246485,-0.00658042 -0.0320677,-0.0155907 -0.0320677,-0.0480993l0 -0.0561238 -0.0400878 0 0 0.048108 -0.0240518 0 0 -0.032072c0,-0.0184701 -0.00557736,-0.0240518 -0.0240475,-0.0240518l-0.0561195 0 0 -0.0641353c-0.0211334,0.0104802 0.00659771,0.00801583 -0.0240518,0.00801583l-0.144311 0 0 0.0561195 0.144311 0c0.0184701,0 0.0240518,0.00558168 0.0240518,0.0240518l0 0.00802016c0,0.0371478 -0.0149681,0.0241124 -0.016036,0.0721511l0.0373207 0.0358983 -0.317922 0.0041895 0 0.0480993 0.352757 0 0 -0.0160317 0.0160317 0 0 0.0240518c0,0.0154739 -0.00252062,0.014272 -0.00801583,0.0240518z"/>
    <path id="_114629944" class="fil4" d="M3.94443 3.55159l-0.0560633 0.00897998 -0.00667121 0.031471 -0.0655405 -0.0003675 -0.0240518 0.016036 -0.00870327 0.0156123 0.136978 0.000423706 0 0.0320677c0,0.0412638 -0.126753,0.0239826 -0.168566,0.0238443 -0.0722376,-0.000237794 -0.080582,0.0318861 -0.126226,0.0581688 -0.0482031,0.0277571 -0.199946,0.104552 -0.23434,0.134449l0.545163 0c-0.0136753,-0.0215528 0.0207876,-0.138245 0.0319855,-0.168445 0.0240129,-0.0647665 0.0321541,-0.0933581 0.0321541,-0.184312l0 -0.0641353 -0.0317564 0.0090016 -0.0243631 0.0872057z"/>
    <path id="_114902416" class="fil4" d="M5.94069 3.77607l0.00802016 0.216462 -1.59541 0c-0.0252365,0.0290325 -0.041039,0.428916 -0.016036,0.481028l1.61187 4.32353e-006 -0.00844819 0.232494 0 0.032072 0.0400878 0 0.00801583 -0.00802016 0.016036 -0.00801583 0 -0.016036 0.0160317 0 0.00802016 -0.00801583 0.0160317 -0.00801583 0.00801583 -0.00802016 0.00802016 -0.00801583 0.00801583 -0.00802016 0.016036 -0.00801583 0.00801583 -0.00801583 0.016036 -0.00802016 0.00801583 -0.00801583 0.00801583 -0.00801583 0.00802016 -0.00801583 0.0160317 -0.00802016 0.00802016 -0.00801583 0.0160317 -0.00801583 0 -0.016036 0.016036 0 0.00801583 -0.00801583 0.016036 -0.00801583 0 -0.016036 0.0160317 0 0.00801583 -0.00801583 0.016036 -0.00801583 0.00801583 -0.00802016 0.00801583 -0.00801583 0.00802016 -0.00801583 0.0160317 -0.00802016 0.00802016 -0.00801583 0.0160317 -0.00801583 0.00802016 -0.00802016 0.00801583 -0.00801583 0.00801583 -0.00801583 0.016036 -0.00802016 0.00801583 -0.00801583 0.00802016 -0.00801583 0.00801583 -0.00802016 0.016036 -0.00801583 0.00801583 -0.00801583 0.00801583 -0.00802016 0.00801583 -0.00801583 0.016036 -0.00801583 0.00801583 -0.00801583 0.016036 -0.00802016 0.00801583 -0.00801583 0.00801583 -0.00801583 0.00802016 -0.00801583 0.0160317 -0.00802016 0.00801583 -0.00801583 0.016036 -0.00801583 0.00801583 -0.00801583 0.00802016 -0.00802016 0.00801583 -0.00801583 0.016036 -0.00801583 0 -0.016036 0.0160317 0 0.00802016 -0.00801583 0.0160317 -0.00802016 0 -0.0481036 -0.0240518 -0.00801583 -0.00801583 -0.00801583 -0.00801583 -0.00802016 -0.00802016 -0.00801583 -0.0160317 -0.00801583 -0.00802016 -0.00802016 -0.0160317 -0.00801583 -0.00802016 -0.00801583 -0.00801583 -0.00801583 -0.00801583 -0.00802016 -0.016036 -0.00801583 -0.00801583 -0.00801583 -0.00801583 -0.00801583 -0.00801583 -0.00802016 -0.016036 -0.00801583 -0.00801583 -0.00801583 -0.00802016 -0.00801583 -0.00801583 -0.00802016 -0.0160317 -0.00801583 -0.00802016 -0.00801583 -0.0160317 -0.00802016 -0.00802016 -0.00801583 -0.00801583 -0.00801583 -0.00801583 -0.00802016 -0.016036 -0.00801583 -0.00801583 -0.00801583 -0.016036 0 0 -0.016036 -0.016036 -0.00801583 -0.00801583 -0.00802016 -0.016036 0 0 -0.0160317 -0.0160317 -0.00802016 -0.00801583 -0.00801583 -0.016036 -0.00801583 -0.00801583 -0.00801583 -0.00801583 -0.00802016 -0.00802016 -0.00801583 -0.0160317 -0.00801583 -0.00801583 -0.00801583 -0.016036 -0.00802016 -0.00801583 -0.00801583 -0.00802016 -0.00801583 -0.00801583 -0.00802016 -0.016036 -0.00801583 -0.00801583 -0.00801583 -0.016036 0 0 -0.016036 -0.0160317 -0.00801583 -0.00802016 -0.00801583 -0.00801583 -0.00802016 -0.00801583 -0.00801583 -0.016036 -0.00802016 -0.00801583 -0.00801583 -0.016036 -0.00801583 -0.00801583 -0.00802016 -0.00801583 -0.00801583 -0.00802016 -0.00801583 -0.00801583 -0.00802016 -0.0160317 -0.00801583 -0.032072 0 0 0.0481036z"/>
    <path id="_114902488" class="fil15" d="M2.42117 3.84021l0.0320677 0.489044 0.0240518 -0.0641353 0.144307 0c0.0285526,0 0.0314234,0.0190106 0.0320677,0.0481036l0.0240518 0c0,-0.0428765 -0.0204676,-0.18126 -0.0480993,-0.192415l0 -0.0480993 -0.016036 0 0 -0.0561238c0,-0.0350206 -0.016036,-0.0291147 -0.016036,-0.0641353l0 -0.0400878c0,-0.0443206 0.0180075,0.00713816 0.0239048,-0.0459246l-0.162197 -0.0144233 -0.0294779 -0.041908 -0.00860383 0.00605295 0 0.0240518z"/>
    <path id="_114634552" class="fil16" d="M3.30306 4.11279l0.0147433 0.0151886 0.0253402 -0.0392404c0.0179816,0.0041895 0.0184312,0.00801583 0.0400835,0.00801583l0.50508 0 0 0.0240518c0,0.0216523 0.00383065,0.0221062 0.0114012,0.0412725l0.0126507 -0.0252365 0.0481036 -0.24853 -0.0240518 -0.016036 -0.545163 0 -0.0320677 0 0.00493748 0.0868555 -0.061057 0.153658z"/>
    <polygon id="_114902560" class="fil17" points="1.54731,4.36132 1.57014,4.35303 1.57937,4.3052 2.01016,4.30549 2.02253,4.37872 2.03635,4.36132 2.0604,4.23304 2.06767,4.15279 2.0546,4.17028 2.06218,4.09702 2.0604,4.0727 1.57937,4.0727 1.56062,4.12308 1.55532,4.0727 1.54731,4.0727 "/>
    <path id="_114902656" class="fil18" d="M1.21861 4.51364l0.168358 0c0.0206362,-0.0325216 0.0137878,-0.255888 0.00753592,-0.312185 -0.00306106,-0.0275366 -0.019577,-0.0939634 -0.0280814,-0.132261 -0.00776074,-0.0349428 -0.0139088,-0.104612 -0.05161,-0.108737l0 0.0561195c0,0.071641 -0.141055,0.426378 -0.096203,0.497064z"/>
    <path id="_114630376" class="fil16" d="M2.83005 4.28115l0.0149119 0.0156642 0.0171558 -0.0557477 0.158298 0.000332912 0.0100652 0.0557866c0.0129663,-0.0186647 0.112235,-0.260324 0.112235,-0.288618 0,-0.0391669 -0.0477578,-0.0721555 -0.0721511,-0.0721555l-0.00801583 0c-0.0430019,0 -0.121915,0.0193176 -0.153161,0.0312332 -0.0500406,0.0190884 -0.119425,-0.00352368 -0.119425,0.0649741l0 0.0481036c0,0.0252105 0.0219722,0.0661328 0.0289677,0.0912914 0.0106705,0.0383973 -0.00736298,0.080007 0.0111201,0.109135z"/>
    <path id="_114902752" class="fil19" d="M2.17265 4.51364l0.19241 0 -0.0689388 -0.216886 -0.0192527 -0.159919 -0.016036 0 0 0.0240475 -0.0160317 0 0 0.032072c0,0.00920048 -0.0233644,0.0491586 -0.0287169,0.067486 -0.0101733,0.0348304 -8.64707e-005,0.0577797 -0.0267454,0.0688609l-0.0166888 0.184338z"/>
    <path id="_114902848" class="fil20" d="M2.32497 3.7921l0.00805042 0.0318515 0.0881569 0.0162522 0 -0.0240518 0.00860383 -0.00605295 0.0294779 0.041908 0.162197 0.0144233c-0.0058973,0.0530627 -0.0239048,0.00160403 -0.0239048,0.0459246l0 0.0400878c0,0.0350206 0.016036,0.0291147 0.016036,0.0641353l0 0.0561238 0.016036 0 0 0.0480993c0.0276317,0.0111547 0.0480993,0.149538 0.0480993,0.192415 0.0405548,0.0466553 0.0328113,0.176374 0.0721555,0.176374l0.0902408 -0.000112412 -0.0100695 -0.208334c-0.0184831,-0.0291277 -0.000449648,-0.0707373 -0.0111201,-0.109135 -0.00699548,-0.0251586 -0.0289677,-0.0660809 -0.0289677,-0.0912914l0 -0.0481036c0,-0.0684978 0.0693841,-0.0458857 0.119425,-0.0649741 0.0312462,-0.0119157 0.110159,-0.0312332 0.153161,-0.0312332l0.00801583 0c0.0243934,0 0.0721511,0.0329886 0.0721511,0.0721555 0,0.0282932 -0.0992683,0.269953 -0.112235,0.288618l-0.0320547 0.144242 0.0721382 0.0161008c0.055298,-0.0370311 0.0292833,-0.0280295 0.0640964,-0.0802102 0.0228499,-0.0342554 0.0501271,-0.0493186 0.0623713,-0.0819396 0.014246,-0.0379477 0.0287602,-0.061913 0.0534864,-0.0908202 0.033663,-0.0393485 0.0286953,-0.0742956 0.0525439,-0.091767l0.061057 -0.153658 -0.00493748 -0.0868555 -0.0481036 -0.0881915 -0.0718874 0.00980145 -0.128543 -0.0017813c-0.04426,0 -0.0677325,-0.0129274 -0.103648,0.000510177 -0.0458597,0.0171558 -0.0309089,0.0475935 -0.0647103,0.0475935 -0.0214404,0 -0.0237103,-0.0115741 -0.0320677,-0.0240518l0.00965013 -0.0396771 -0.0898214 -0.000410736c-0.0336587,0 -0.061351,-0.118854 -0.0641396,-0.152322l-0.0240518 -0.0481036c-0.0125339,-0.0144276 -0.00958095,-0.0240518 -0.0320677,-0.0240518l-0.224478 0c-0.0293092,0 -0.0328762,0.0333777 -0.0481036,0.0561195 0,0.0439012 0.0176616,0.19241 -0.0240518,0.19241l-0.00801583 0c-0.0450166,0 -0.0545068,-0.0239524 -0.0801713,-0.00801583z"/>
    <path id="_114630448" class="fil20" d="M1.13041 3.75202l-0.00801583 0.00801583 -0.00801583 0.016036 0 0.0801713 -0.016036 0 0 0.0481036 0.016036 0 0 0.0881871c0.0275755,0.0434688 -0.0400878,0.446241 -0.0400878,0.537152l0 0.0641353 -0.0160317 0 0 0.00801583 0.00801583 0.152327 0 0.016036 -0.00801583 0.0480993 0 0.0320677 0.00801583 0.016036 0.0240518 0.00801583 0.144307 0 0.0400878 -0.00801583 0.00801583 -0.016036 0 -0.0320677 -0.00801583 -0.0160317 -0.0240518 -0.00802016 -0.00801583 -0.00801583 -0.0400878 -0.00801583 -0.00801583 -0.00801583 -0.016036 -0.00802016 0.016036 -0.00801583 0.00801583 -0.0481036 0.00801583 -0.0320677 0.00802016 -0.128275 0 -0.0320677c-0.0448523,-0.0706855 0.096203,-0.425423 0.096203,-0.497064l0 -0.0561195c0.0377012,0.00412465 0.0438493,0.0737941 0.05161,0.108737 0.00850439,0.0382979 0.0250203,0.104725 0.0280814,0.132261 0.00625183,0.0562967 0.0131003,0.279663 -0.00753592,0.312185l-0.00802016 0.016036 0 0.0400835 0.00802016 0.184394 0.0172336 0.000402089 -0.00921778 0.0156339 -0.00801583 0.00801583 0 0.0881871 0.0320677 0.00801583 0.160343 0 0.0481036 -0.00801583 0.0160317 -0.00801583 0 -0.0481036 -0.00801583 -0.00801583 -0.0400878 -0.00802016 -0.0160317 -0.00801583 -0.0481036 -0.00801583 -0.00801583 -0.00801583 -0.0160317 -0.00802016 0.0240475 -0.00801583 0.00802016 -0.112243 0.00801583 -0.0400835 0 -0.0801713 -0.00801583 -0.152327 -0.00457862 -0.457024c0.0144233,-0.0047213 0.0206103,-0.00182453 0.0206103,-0.0239999l0 -0.016036 -0.0320677 -0.360773c-0.0104802,-0.0211334 -0.00801583,0.00660204 -0.00801583,-0.0240518l0 -0.128271 0.0240518 0c0.00247739,0.0297848 0.105464,0.133952 0.131397,0.157217 0.0443335,0.0397722 0.0254656,0.0311251 0.0883341,0.0559725 0.0156728,0.00619562 0.0849185,0.0451982 0.0849185,0.0593924l0 0.0400835 0.144307 0 0 -0.0160317 -0.0509918 -0.0276576 0.0189241 -0.0685496c-0.0266892,-0.0364258 -0.132339,-0.0721987 -0.175047,-0.0975303 -0.0739454,-0.0438579 -0.0735303,-0.121664 -0.113571,-0.150999l-0.0561195 -0.0881871c-0.0771405,-0.0813257 -0.0184183,-0.0587222 -0.142832,-0.0976816 -0.068969,-0.0215917 -0.13534,-0.0145617 -0.225952,-0.0145617l-0.138466 0.0403559 0.00309565 0.00787316 -0.0296508 0.215692 0.00467806 0.0888357c0,0.0255002 0.0563529,0.0738071 0.080167,0.080167l0 0.0240518 -0.0320677 0.184394z"/>
    <path id="_114902944" class="fil6" d="M0 4.00055l0 0.473008 1.06741 0.0002205 -0.0091486 0.0238313 0 0.0962073 0.0160317 0 0 -0.0641353c0,-0.090911 0.0676633,-0.493683 0.0400878,-0.537152l-1.11438 0.00802016z"/>
    <path id="_114903040" class="fil21" d="M4.03262 3.70391l-0.0449864 0.142793 -0.0271691 0.0416054 -0.0481036 0.24853c0,0.0570317 -0.00969336,0.154342 0.00456133,0.203889 0.0172639,0.0600063 0.0355265,0.10121 0.0355265,0.180931l0 0.0561195 0.00801583 0.016036 0.00802016 0.0480993 0.00801583 0.016036 0.00801583 0.0641396 0.00801583 0.00801583 0 0.00802016 -0.00801583 0.00801583 -0.0160317 0.00801583 -0.00802016 0.00801583 -0.0320677 0.00802016 -0.016036 0.00801583 -0.0240518 0.00801583 0 0.0481036 0.016036 0.00801583 0.00801583 0.00801583 0.112243 0 0.00801583 -0.00801583 0.0240518 -0.00801583 0.00801583 -0.00802016 0.0320677 -0.00801583 0 -0.0160317 0.016036 0 0 -0.0481036 -0.016036 0 0 -0.0160317 0.016036 0 0 -0.0561238 -0.00801583 -0.0240518 -0.00802016 -0.0721555 -0.00801583 -0.0240475 -0.00801583 -0.0400878c-0.0162305,-0.0118897 -0.0240518,-0.0184053 -0.0240518,-0.0481036l0 -0.0481036 -0.016036 0 0 -0.136286c0,-0.00647233 0.0447961,-0.176392 0.051022,-0.189496 0.0185307,-0.0389853 0.0336241,-0.161769 0.0681,-0.171134l0.00915292 0.0880445 0 0.0240518 0.0149767 5.62059e-005 0.0170909 0.384764 0.0168013 2.16177e-005 -0.0087811 0.0961857 0 0.104223 0.00801583 0.0320677 0.00801583 0.0801756 0 0.00801583 -0.0160317 0.00801583 0 0.016036 -0.0320677 0 -0.00802016 0.00801583 -0.0160317 0.00801583 -0.00802016 0.00801583 0 0.0561195 0.0400878 0.00802016 0.0480993 0 0.0400878 -0.00802016 0.00801583 -0.00801583 0.016036 -0.00801583 0.00801583 -0.00802016 0.016036 -0.00801583 0.00801583 -0.00801583 0.00801583 -0.00801583 0.00802016 -0.248534 0 -0.0641353 -0.00802016 -0.016036c-0.025003,-0.0521116 -0.00920048,-0.451995 0.016036,-0.481028l0 -0.096203 -0.0322968 -0.072056 -0.0395128 0.00971931 -0.000345883 -0.0178346 -0.0320677 0 0 -0.032072 0.0303901 -0.0183621 0.00167753 -0.0377574c0,-0.0154826 -0.0227893,-0.0553369 -0.0320677,-0.0641353 -0.0544333,0.0287991 -0.0949146,0.00625183 -0.096203,0.0641353l-0.0481036 0 0 -0.0240518 -0.0721555 0z"/>
    <polygon id="_114630520" class="fil19" points="1.54731,4.36132 1.53929,4.36933 1.54731,4.52166 2.02031,4.51364 2.03635,4.36132 2.02253,4.37872 2.01016,4.30549 1.57937,4.3052 1.57014,4.35303 "/>
    <path id="_114903112" class="fil19" d="M3.30306 4.11279c-0.0238486,0.0174714 -0.0188809,0.0524185 -0.0525439,0.091767 -0.0247263,0.0289072 -0.0392404,0.0528725 -0.0534864,0.0908202 -0.0122442,0.0326211 -0.0395214,0.0476843 -0.0623713,0.0819396 -0.0348131,0.0521807 -0.00879839,0.0431791 -0.0640964,0.0802102l-0.0721382 -0.0161008 0.0320547 -0.144242 -0.0100652 -0.0557866 -0.158298 -0.000332912 -0.0171558 0.0557477 -0.0149119 -0.0156642 0.0100695 0.208334 -0.0902408 0.000112412c-0.0393442,0 -0.0316007,-0.129719 -0.0721555,-0.176374l-0.0240518 0c-0.000644207,-0.0290931 -0.00351503,-0.0481036 -0.0320677,-0.0481036l-0.144307 0 -0.0240518 0.0641353 0.0337884 0.158622 0.0223311 0.0257726 0.216462 0 0.120259 0 0.096203 0 0.0367068 -0.0442773 -0.00232606 -0.00899295 0.10191 0.0532703 0.865853 0.00801583 0.00801583 0c0,-0.0797217 -0.0182626,-0.120925 -0.0355265,-0.180931 -0.0142547,-0.0495477 -0.00456133,-0.146857 -0.00456133,-0.203889l-0.0126507 0.0252365c-0.00757051,-0.0191662 -0.0114012,-0.0196202 -0.0114012,-0.0412725l0 -0.0240518 -0.50508 0c-0.0216523,0 -0.0221019,-0.00382633 -0.0400835,-0.00801583l-0.0253402 0.0392404 -0.0147433 -0.0151886z"/>
    <path id="_114903208" class="fil19" d="M4.08072 4.52166l0.128275 0 0.0087811 -0.0961857 -0.0168013 -2.16177e-005 -0.0170909 -0.384764 -0.0149767 -5.62059e-005 0 -0.0240518 -0.00915292 -0.0880445c-0.0344759,0.00936478 -0.0495693,0.132149 -0.0681,0.171134 -0.00622589,0.0131046 -0.051022,0.183024 -0.051022,0.189496l0 0.136286 0.016036 0 0 0.0481036c0,0.0296984 0.00782127,0.0362139 0.0240518,0.0481036z"/>
    <polygon id="_114621064" class="fil22" points="2.94229,4.51364 2.94229,4.56175 2.9503,4.60985 2.95832,4.62588 2.97435,4.6339 2.98237,4.64192 3.00643,4.64994 3.01444,4.65795 3.06255,4.66597 3.07858,4.66597 3.10263,4.65795 3.10263,4.64192 3.11866,4.64192 3.11866,4.57778 3.10263,4.57778 3.10263,4.54571 3.0866,4.54571 3.0866,4.52968 3.07858,4.51364 2.97667,4.46037 2.97899,4.46937 "/>
    <polygon id="_114903280" class="fil22" points="2.7178,4.52166 2.70177,4.52968 2.69376,4.54571 2.68574,4.55373 2.67772,4.56175 2.6697,4.56976 2.64565,4.57778 2.63764,4.5858 2.6216,4.59382 2.61359,4.60985 2.61359,4.65795 2.6216,4.67399 2.64565,4.682 2.66169,4.69002 2.7178,4.69002 2.73384,4.682 2.75789,4.67399 2.76591,4.66597 2.78194,4.65795 2.78194,4.64192 2.79798,4.64192 2.806,4.62588 2.81401,4.61787 2.83005,4.60985 2.84608,4.60183 2.8541,4.59382 2.86211,4.5858 2.86211,4.5377 2.8541,4.52968 2.84608,4.51364 2.72582,4.51364 "/>
    <path id="_114903352" class="fil20" d="M2.13256 3.88831l-0.0721555 0.344733 -0.0240518 0.128275 -0.016036 0.152327 -0.00801583 0.016036 -0.00801583 0.112235 -0.00801583 0.0240518 -0.00802016 0.120259 -0.00801583 0.00801583 -0.0160317 0.00802016 -0.00802016 0.00801583 -0.0641353 0.00801583 -0.016036 0.00801583 -0.0240518 0.00802016 0 0.0561195 0.272586 0 0 -0.104223 0.0160317 0 0.00802016 -0.0641353 0.00801583 -0.016036 0.00801583 -0.0801713 0.00802016 -0.016036 0 -0.096203 0.0166888 -0.184338c0.0266589,-0.0110812 0.0165721,-0.0340305 0.0267454,-0.0688609 0.00535254,-0.0183275 0.0287169,-0.0582856 0.0287169,-0.067486l0 -0.032072 0.0160317 0 0 -0.0240475 0.016036 0 0.0192527 0.159919 0.0689388 0.216886 0 0.0481036 0.00801583 0.00801583 0.00801583 0.0400835 0.00802016 0.00802016 0.00801583 0.0400835 0.00801583 0.00801583 0.00801583 0.0400878 0.00802016 0.00802016 0.00801583 0.0400835 0.0160317 0 0 0.016036 -0.0160317 0 0 0.0160317 -0.016036 0 0 0.016036 -0.0240475 0 -0.00802016 0.00801583 -0.0240518 0.00801583 -0.00801583 0.00801583 -0.0240518 0.00802016 -0.00801583 0.0160317 0 0.032072 0.00801583 0.00801583 0.0881871 0 0.00802016 -0.00801583 0.0160317 -0.00802016 0.0320677 -0.00801583 0.00802016 -0.00801583 0.0240475 -0.00802016 0.00802016 -0.00801583 0.0400835 -0.00801583 0.016036 -0.00802016 0.0240518 -0.00801583 0 -0.0641353 -0.016036 0 0 -0.0240518 -0.00801583 -0.00801583 0 -0.016036 0 -0.0160317 -0.00801583 -0.048108 -0.00802016 -0.00801583 -0.00801583 -0.0481036 -0.00801583 -0.00801583 -0.00802016 -0.0480993 -0.00801583 -0.00802016 -0.00801583 -0.00801583 -0.0223311 -0.0257726 -0.0337884 -0.158622 -0.0320677 -0.489044 -0.0881569 -0.0162522 -0.00805042 -0.0318515 -0.0695916 0.0754803 -0.0266157 0.00469103 -0.0287515 -0.0289763 -0.00331615 -0.0271431c0,-0.0455571 0.0304896,0.00673174 0.0320677,-0.0641396 -0.0618179,-0.00137488 -0.067084,-0.0376493 -0.072523,0.039716 -0.00228715,0.0325822 -0.00875516,0.0750998 -0.02368,0.0965791z"/>
   </g>
   <rect id="_114594176" class="fil23 str0" x="1.95641" y="0.536918" width="0.416663" height="0.590699"/>
   <rect id="_114599672" class="fil24 str1" x="2.6858" y="1.68785" width="0.412396" height="0.0518694"/>
   <polyline id="_114599264" class="fil23 str0" points="2.16474,1.12762 2.16822,1.27224 2.7031,1.27224 2.892,1.68785 "/>
   <polygon id="_114905464" class="fil25 str2" points="2.18066,2.89418 2.23678,2.89418 2.25928,2.90534 2.26083,2.95031 2.28488,2.95031 2.28488,2.9022 2.32898,2.89819 2.32497,2.95832 2.3259,2.97493 2.35704,3.00642 2.35704,3.03844 2.25281,3.08258 2.23177,3.04951 2.17287,3.00634 2.16717,2.9738 2.17683,2.95059 2.18066,2.92224 "/>
   <polygon id="_114905392" class="fil25 str2" points="3.05453,3.01444 3.07062,3.1163 3.09461,3.17478 3.11866,3.17478 3.11866,3.19884 3.2309,3.19082 3.23179,3.07212 3.23892,3.04651 3.22289,3.04651 3.22289,3.02246 3.19082,3.01744 3.19082,3.03849 3.17478,3.03088 3.17478,3.00642 3.04672,3.00997 "/>
   <rect id="_81896472" class="fil24 str1" x="3.0351" y="2.02846" width="0.639606" height="0.092074"/>
   <rect id="_114906784" class="fil26 str3" x="2.5371" y="2.49878" width="0.774656" height="0.0645547"/>
   <rect id="_114595952" class="fil27 str4" x="1.78089" y="1.55813" width="0.580992" height="0.0737768"/>
   <polygon id="_114599624" class="fil25 str2" points="4.08874,2.87815 4.15884,2.87031 4.17893,2.86831 4.18821,2.87351 4.19169,2.89128 4.18494,2.94229 4.19118,2.94852 4.22325,2.91645 4.21701,2.91022 4.24106,2.91022 4.23091,2.98208 4.2332,3.06588 4.23486,3.12982 4.13802,3.12934 4.13684,3.07858 4.12047,3.0704 4.11005,3.06025 4.10206,3.04873 4.09656,3.03811 4.09037,3.02201 4.08317,2.99084 4.08144,2.97582 4.08072,2.94629 4.08136,2.92022 4.0849,2.90126 "/>
   <polygon id="_81896808" class="fil28 str5" points="4.11969,3.12779 4.27313,3.12668 4.23773,3.18996 4.19585,3.26327 4.17793,3.31492 4.1777,3.38226 4.20036,3.52014 4.23204,3.62837 4.24908,3.66383 4.18054,3.68514 4.15594,3.70714 4.15288,3.72796 4.10477,3.72796 4.10477,3.70391 4.03262,3.70391 4.05184,3.56131 4.0964,3.2494 "/>
   <polygon id="_114903520" class="fil29 str6" points="4.13722,3.12766 4.14056,3.1347 4.10477,3.47142 4.12812,3.6377 4.18097,3.12514 "/>
  </g>
 </g>
</svg>
