<?xml version="1.0" encoding="UTF-8"?>
<!DOCTYPE svg PUBLIC "-//W3C//DTD SVG 1.1//EN" "http://www.w3.org/Graphics/SVG/1.1/DTD/svg11.dtd">
<!-- Creator: CorelDRAW -->
<svg xmlns="http://www.w3.org/2000/svg" xml:space="preserve" width="6.08184in" height="4.8145in" style="shape-rendering:geometricPrecision; text-rendering:geometricPrecision; image-rendering:optimizeQuality; fill-rule:evenodd; clip-rule:evenodd"
viewBox="0 0 6.49919 5.14488"
 xmlns:xlink="http://www.w3.org/1999/xlink">
 <defs>
  <style type="text/css">
   <![CDATA[
    .str0 {stroke:#0093DD;stroke-width:0.00320586}
    .fil13 {fill:#0093DD}
    .fil8 {fill:#2CBDE5}
    .fil10 {fill:#332AAD}
    .fil4 {fill:#3634C2}
    .fil7 {fill:#575AFC}
    .fil12 {fill:#5B39A3}
    .fil11 {fill:#6767F8}
    .fil9 {fill:#A9B0DA}
    .fil5 {fill:#C4CCF1}
    .fil0 {fill:#DBE3F8}
    .fil1 {fill:#EDF3FC}
    .fil3 {fill:#FDCDCB}
    .fil6 {fill:#FE4E6C}
    .fil2 {fill:#FFA79D}
   ]]>
  </style>
 </defs>
 <g id="Layer_x0020_1">
  <metadata id="CorelCorpID_0Corel-Layer"/>
  <g id="_117742584">
   <g>
    <path id="_116867968" class="fil0" d="M1.93577 0.228172l-0.0368001 0.00735834 -0.0294418 0.00735834 -0.0220792 0.00736255 -0.0220834 0.00735834 -0.0220792 0.00736255 -0.0147209 0.00735834 -0.0147209 0.00736255 -0.0147209 0.00735834 -0.0147209 0.00736255 -0.0147209 0.00735834 -0.0147209 0.00736255 -0.00735834 0.00735834 -0.0147251 0.00736255 -0.00735834 0.00735834 -0.0147209 0.00736255 -0.00735834 0.00735834 -0.00736255 0.00736255 -0.00735834 0.00735834 -0.0147209 0.00736255 -0.00736255 0.00735834 -0.00735834 0.00735834 -0.00736255 0.00736255 -0.00735834 0.00735834 -0.00736255 0.00736255 -0.00735834 0.00735834 -0.00736255 0.00736255 -0.00735834 0.00735834 -0.00736255 0.00736255 -0.00735834 0.00735834 -0.00735834 0.00736255 -0.00736255 0.00735834 -0.00736255 0.00736255 -0.00735834 0.0147209 -0.00735834 0.00735834 -0.00736255 0.00736255 -0.00735834 0.0147209 -0.00736255 0.00735834 -0.00735834 0.0147209 -0.00736255 0.00735834 -0.00735834 0.0147209 -0.00736255 0.0147209 -0.00735834 0.00736255 -0.00736255 0.0220792 -0.00735834 0.0147209 -0.00736255 0.0147209 -0.00735834 0.0220834 -0.00736255 0.0220792 0 0.0368001 0.00736255 0.0147209 0.00735834 0.00736255 0.00736255 0.00735834 0.00735834 0.00736255c0.0919771,-0.0486685 0.457786,-0.0220834 0.603548,-0.0220834 0,-0.177576 0.144575,-0.139846 0.316497,-0.139846 0.209568,0 0.287051,0.0394422 0.287051,-0.176646l-0.00735834 -0.00736255 -0.0147209 -0.00735834 -0.00735834 -0.00736255 -0.0147209 -0.00735834 -0.0147209 -0.00735834 -0.00736255 -0.00736255 -0.0147209 -0.00735834 -0.0147209 -0.00736255 -0.0147209 -0.00735834 -0.0147209 -0.00736255 -0.0147209 -0.00735834 -0.0147167 -0.00736255 -0.0147209 -0.00735834 -0.0220834 -0.00736255 -0.0147209 -0.00735834 -0.0147209 -0.00736255 -0.0220792 -0.00735834 -0.0220834 -0.00736255 -0.0147209 -0.00735834 -0.0294376 -0.00736255 -0.0220834 -0.00735834 -0.0220792 -0.00736255 -0.0294418 -0.00735834 -0.0441627 -0.00735834 -0.0588835 -0.00736255 -0.191367 0 -0.0515252 0.00736255z"/>
    <path id="_117750384" class="fil1" d="M2.84109 0.390097c0,0.122778 0.0893982,0.213451 0.213451,0.213451l0.00735834 0c0.11308,0 0.206092,-0.100804 0.206092,-0.213451l0 -0.0147209c0,-0.080601 -0.0993818,-0.191367 -0.176651,-0.191367l-0.0736044 0c-0.086592,0 -0.176646,0.110022 -0.176646,0.206088z"/>
    <path id="_120380520" class="fil2" d="M2.12714 1.11877c0.0165047,0.00384535 0.0169212,0.00736255 0.0368001,0.00736255l1.78856 0c0.0713536,0 0.0733183,-0.0604402 0.0956837,-0.0956879l0 -0.309134 0 -0.0441585 -0.00735834 -0.0220834 -0.00736255 -0.0220792 -0.00735834 -0.0147209 -0.00736255 -0.00736255 -0.0147209 -0.00735834 -0.0147209 -0.00736255 -0.0147167 -0.00735834 -0.0294418 0c-0.0832683,0 -0.242009,-0.00946192 -0.316266,0.000231394 -0.0192773,0.00251168 -0.226198,0.0797764 -0.235761,0.0880939l0.537306 0c-0.00366865,0.0440785 -0.0305146,0.0295638 -0.0809628,0.0294418 -0.0392529,-9.25577e-005 -0.0785142,-4.20717e-006 -0.117767,-4.20717e-006 -0.07851,0 -0.15702,0 -0.235534,0 -0.0739242,0 -0.16503,-0.00829654 -0.226838,0.00869622 -0.0297489,0.00817874 -0.153082,0.0496656 -0.170618,0.0649082l0.83172 0c-0.00390005,0.0468426 -0.0635114,0.0294418 -0.117767,0.0294418 -0.051521,0 -0.103046,0 -0.154567,0 -0.103046,0 -0.206088,0 -0.309134,0 -0.103004,0 -0.206181,0.000593211 -0.309164,-2.94502e-005 -0.0569693,-0.000344988 -0.207801,0.0495563 -0.235501,0.0736339l1.12613 0c-0.00379066,0.0455258 -0.0433507,0.0294586 -0.0956879,0.0294418 -0.0417057,-1.26215e-005 -0.0834156,0 -0.125125,0 -0.0858683,0 -0.171741,0 -0.257609,0 -0.169288,0 -0.338576,0 -0.507864,0 -0.052253,0 -0.208575,-0.00696707 -0.248976,0.00127477 -0.0434685,0.00886451 -0.135492,0.0490724 -0.191132,0.0664817 -0.0473054,0.0148008 -0.357121,0.12115 -0.376891,0.138332z"/>
    <path id="_116880184" class="fil3" d="M2.84109 0.390097c0,-0.0960665 0.0900545,-0.206088 0.176646,-0.206088l0.0736044 0c0.0772689,0 0.176651,0.110766 0.176651,0.191367l0 0.0147209c0,0.112647 -0.0930121,0.213451 -0.206092,0.213451l-0.00735834 0c-0.124053,0 -0.213451,-0.0906729 -0.213451,-0.213451zm0.117767 -0.382739l-0.0220834 0.00736255 -0.0220792 0.00735834 -0.0147209 0.00736255 -0.0220834 0.00735834 -0.0147209 0.00736255 -0.00735834 0.00735834 -0.0147209 0.00735834 -0.00735834 0.00736255 -0.0147251 0.00736255 -0.00735834 0.00735834 -0.00735834 0.00735834 -0.0147209 0.00736255 -0.00736255 0.00735834 -0.00735834 0.00736255 -0.00736255 0.00735834 -0.00735834 0.00736255 -0.00736255 0.00735834 -0.00735834 0.0147209 -0.00736255 0.00736255 -0.00735834 0.00735834 -0.00736255 0.0147209 -0.00735834 0.00736255 -0.00736255 0.0147209 -0.00735834 0.0147167 -0.00736255 0.0147251 -0.00735834 0.0147167 -0.00735834 0.0220834 -0.00736255 0.0220792 -0.00736255 0.0294418 0 0.0883253c0,0.216089 -0.0774834,0.176646 -0.287051,0.176646 -0.171922,0 -0.316497,-0.0377299 -0.316497,0.139846l0 0.309134c0.0250958,0.0522951 0.0115276,0.0593716 0.0662461,0.0883253 0.0197695,-0.0171821 0.329585,-0.123531 0.376891,-0.138332 0.0556398,-0.0174093 0.147663,-0.0576172 0.191132,-0.0664817 0.0404015,-0.00824185 0.196723,-0.00127477 0.248976,-0.00127477 0.169288,0 0.338576,0 0.507864,0 0.0858683,0 0.171741,0 0.257609,0 0.0417099,0 0.0834198,-1.26215e-005 0.125125,0 0.0523372,1.68287e-005 0.0918972,0.016084 0.0956879,-0.0294418l-1.12613 0c0.0277,-0.0240776 0.178531,-0.0739789 0.235501,-0.0736339 0.102983,0.000622661 0.20616,2.94502e-005 0.309164,2.94502e-005 0.103046,0 0.206088,0 0.309134,0 0.051521,0 0.103046,0 0.154567,0 0.0542557,0 0.113867,0.0174009 0.117767,-0.0294418l-0.83172 0c0.0175355,-0.0152426 0.140869,-0.0567295 0.170618,-0.0649082 0.0618075,-0.0169928 0.152914,-0.00869622 0.226838,-0.00869622 0.0785142,0 0.157024,0 0.235534,0 0.0392529,0 0.0785142,-8.83506e-005 0.117767,4.20717e-006 0.0504482,0.000122008 0.0772941,0.0146367 0.0809628,-0.0294418l-0.537306 0c0.0095629,-0.00831757 0.216484,-0.0855822 0.235761,-0.0880939 0.0742565,-0.00969332 0.232997,-0.000231394 0.316266,-0.000231394l0 -0.00736255 -0.404822 -0.00735834 -0.0294418 -0.00736255 -0.0220792 -0.00735834 -0.00735834 -0.00736255 -0.00736255 -0.0147209 -0.00736255 -0.00735834 -0.00735834 -0.0147209 -0.00735834 -0.0220792 -0.00736255 -0.16193 -0.00735834 -0.0368001 -0.00736255 -0.0220834 -0.00735834 -0.0220792 -0.00736255 -0.0220792 -0.00735834 -0.0147251 -0.00736255 -0.00735834 -0.00735834 -0.0147209 -0.00736255 -0.0147209 -0.00735834 -0.00735834 -0.00736255 -0.0147209 -0.00735834 -0.00736255 -0.00736255 -0.00735834 -0.00735834 -0.00736255 -0.00736255 -0.00735834 -0.00735834 -0.00736255 -0.00735834 -0.00735834 -0.00736255 -0.00736255 -0.00736255 -0.00735834 -0.00735834 -0.00736255 -0.00735834 -0.00735834 -0.00736255 -0.00735834 -0.0147209 -0.00736255 -0.00735834 -0.00736255 -0.0147209 -0.00735834 -0.00736255 -0.00735834 -0.0220792 -0.00736255 -0.0147209 -0.00735834 -0.0147209 -0.00736255 -0.0220792 -0.00735834 -0.0294418 -0.00736255 -0.0441627 -0.00735834 -0.110405 0 -0.0294418 0.00735834z"/>
    <path id="_117736152" class="fil4" d="M4.8063 0.897961l-0.0220792 0.00735834 -0.0147209 0.00736255 -0.0147209 0.00735834 -0.0147209 0.00736255 -0.0147209 0.00735834 -0.00735834 0.00736255 -0.00736255 0.00735834 -0.00735834 0.00736255c-0.0115192,0.0217679 -0.0294418,0.0384409 -0.0294418,0.0662419l0 0.0147209c0,0.043641 0.0194371,0.0623923 0.0368001,0.0883253l0 0.00735834 0.00736255 0.00736255 0.00735834 0.00735834 0.00736255 0.00735834 0.00735834 0.00736255 0.00735834 0.00736255 0.00736255 0.00735834 0.0147209 0.00735834 0.00735834 0.00736255 0.00736255 0.00736255 0.00735834 0c0.110606,-0.0024654 0.0860324,-0.169292 0.169288,-0.169292l0.0294418 0c0.029223,0 0.0453365,0.0691322 0.0515252,0.0956879l0.00734993 0.00142623 0.00737096 -0.0529514 0 -0.0294418 -0.00736255 -0.0220792 -0.00735834 -0.0220834 -0.00736255 -0.0147167 -0.00735834 -0.00736255 -0.00736255 -0.0147209 -0.00735834 -0.00735834 -0.00736255 -0.00736255 -0.0147209 -0.00735834 -0.00735834 -0.00736255 -0.0147209 -0.00735834 -0.00736255 -0.00736255 -0.0147167 -0.00735834 -0.00736255 -0.00736255 -0.0220792 -0.00735834 -0.0294418 -0.00736255 -0.0515252 0 -0.0294418 0.00736255z"/>
    <path id="_116868400" class="fil3" d="M4.79158 1.19974l-0.00735834 0.00735834 0 0.0368001 0.00735834 0.00736255 0.00736255 0.00735834 0.00735834 0.00736255 0.0147209 0.00735834 0.00736255 0.0147209 0.00735834 0.00736255 0.00736255 0.0147209 0.00735834 0.0147209 0.00736255 0.0147167 0.00735834 0.0147251 0.00736255 0.0220792 0 0.051521 -0.00736255 0.0147209 0 0.0147209c0.0290589,0.043397 0.105406,0.103046 0.176651,0.103046l0.00735834 0c0.0865457,0 0.137368,-0.111065 0.176651,-0.139846l0 -0.00736255 -0.0147209 -0.00735834 -0.00736255 -0.00736255 -0.00735834 -0.00735834 -0.00736255 -0.00736255 -0.00735834 -0.00735834 -0.00736255 -0.00736255 -0.00735834 -0.00735834 -0.00736255 -0.0147209 -0.00735834 -0.00736255 -0.00736255 -0.00735834 -0.00735834 -0.0147209 -0.00736255 -0.00735834 -0.00735834 -0.0147209 -0.00736255 -0.0220834 -0.00735834 -0.0220792 -0.00735834 -0.0147209 -0.00736255 -0.0220834 -0.00736255 -0.0294418 -0.00735834 -0.0294418 -0.00735834 -0.0588793 -0.00736255 -0.0220834 -0.00735834 0 -0.00737096 0.0529514 -0.00734993 -0.00142623c-0.00618875,-0.0265557 -0.0223022,-0.0956879 -0.0515252,-0.0956879l-0.0294418 0c-0.0832557,0 -0.0586816,0.166827 -0.169288,0.169292z"/>
    <path id="_116868472" class="fil1" d="M4.37941 1.73704l0.0441627 -0.0294418 0 -0.360655c-0.056822,0.0416299 -0.0767724,0.121562 -0.0972824,0.204494 -0.0093273,0.0377173 -0.0352056,0.223279 -0.0335985,0.268194l0.0867182 -0.0825909z"/>
    <path id="_117733416" class="fil0" d="M1.31014 1.45735l-0.00736255 0.00736255 -0.00735834 0.0220792 -0.00736255 0.0147209 -0.00735834 0.0220792 -0.00736255 0.0147209 -0.00735834 0.0220834 -0.00736255 0.0147209 -0.00735834 0.0220792 -0.00736255 0.0147209 -0.00735834 0.0147209 -0.0588835 0.00736255 0.00736255 0.0956837 0 0.0883253c0,0.101704 -0.080967,0.249994 -0.080967,0.345935l0 0.110405c0,0.107619 0.0880771,0.223451 0.137831,0.28907 0.0327612,0.0432076 0.0622956,0.0751611 0.0946613,0.118789 0.0343389,0.0462789 0.054079,0.0863774 0.0840046,0.129446l0 -1.97257 -0.00736255 0 0 0.618269 -0.103042 0z"/>
    <path id="_116868544" class="fil3" d="M4.42357 1.99465l0.0779336 -0.0243469 -0.122096 -0.233267 -0.0867182 0.0825909c-0.00160714,-0.0449157 0.0242712,-0.230477 0.0335985,-0.268194 0.02051,-0.0829317 0.0404604,-0.162864 0.0972824,-0.204494l0.0869117 -0.137936 -0.0869117 -0.0681519 -0.0741766 -0.0522278 -0.101633 0.0740041 -0.0155623 -0.0512181c-0.0168665,0.00140099 -0.0441627,0.00679458 -0.0441627,0.0220792 0,0.0159746 0.0623376,0.108301 0.0736044,0.125125 -0.0463967,0.0966976 -0.089335,0.291973 -0.130279,0.407027 -0.0695656,0.195495 -0.0689639,0.216059 -0.0154992,0.443309l0.307708 -0.1143z"/>
    <path id="_116868616" class="fil1" d="M2.33323 3.54032l0 0.213451 -0.323855 0c-0.0169591,0 -0.0220792,-0.00512013 -0.0220792,-0.0220792l0 -0.323855 0.345935 0 0 0.051521c0.0374564,-0.0100004 0.0932309,-0.0736044 0.117767,-0.0736044l0.00735834 0c0.014216,0 0.0294418,0.0131222 0.0294418,0.0220834 0,0.0285583 -0.127877,0.109285 -0.154567,0.132484zm0 -0.485781l0 0.206088 -0.323855 0c-0.0169591,0 -0.0220792,-0.00512013 -0.0220792,-0.0220792l0 -0.323855 0.345935 0 0 0.0662419c0.0192352,-0.0128824 0.0999455,-0.0809628 0.117767,-0.0809628l0.00735834 0c0.014216,0 0.0294418,0.0131222 0.0294418,0.0220792 0,0.0315748 -0.127334,0.11425 -0.154567,0.132488zm0 -0.485785l0 0.19873 -0.323855 0c-0.0169591,0 -0.0220792,-0.00512013 -0.0220792,-0.0220792l0 -0.323855 0.345935 0 0 0.0736002c0.0169549,-0.0113509 0.104523,-0.0809628 0.117767,-0.0809628l0.00735834 0c0.0172284,0 0.0294418,0.0122134 0.0294418,0.0294418 0,0.0226851 -0.131381,0.109601 -0.154567,0.125125zm0 -0.500502l0 0.206088 -0.323855 0c-0.0169591,0 -0.0220792,-0.00512013 -0.0220792,-0.0220792l0 -0.323855 0.345935 0 0 0.0588793c0.0374564,-0.0100004 0.0932309,-0.0736002 0.117767,-0.0736002l0.00735834 0c0.014216,0 0.0294418,0.0131222 0.0294418,0.0220792 0,0.0285583 -0.127877,0.10929 -0.154567,0.132488zm-0.647711 1.39846l0 1.3175 2.25227 0 0 -0.500506 0.478423 0 0.00736255 -2.25962 0 -0.0294418 -0.307708 0.1143c-0.0534647,-0.22725 -0.0540663,-0.247815 0.0154992,-0.443309 0.0409442,-0.115053 0.0838826,-0.310329 0.130279,-0.407027 -0.0112668,-0.0168245 -0.0736044,-0.109151 -0.0736044,-0.125125 0,-0.0152846 0.0272961,-0.0206782 0.0441627,-0.0220792l0.0155623 0.0512181 0.101633 -0.0740041 0.0741766 0.0522278 0 -0.110409 -0.375381 0c-0.0223653,0.0352477 -0.0243301,0.0956879 -0.0956837,0.0956879l-1.78856 0c-0.0198789,0 -0.0202954,-0.00351719 -0.0368001,-0.00736255 -0.0547184,-0.0289537 -0.0411503,-0.0360302 -0.0662461,-0.0883253l-0.375376 0 0 2.43628z"/>
    <path id="_117734664" class="fil4" d="M2.33323 2.06826l-0.0294418 0.0220792 0 0.154567 -0.287051 0 0 -0.287051 0.287051 0 0 0.051521 0.0294418 -0.0220834 0 -0.0588793 -0.345935 0 0 0.323855c0,0.0169591 0.00512013,0.0220792 0.0220792,0.0220792l0.323855 0 0 -0.206088z"/>
    <path id="_116868688" class="fil5" d="M0.728673 0.912682l-0.0220792 0.00735834 -0.0147209 0.00736255 -0.0147209 0.00735834 -0.00736255 0.00736255 -0.0147209 0.00735834 -0.00735834 0.00736255 -0.00736255 0.00735834 -0.0147209 0.00736255 -0.00735834 0.00735834 -0.00735834 0.00736255 -0.00736255 0.00735834 -0.00736255 0.00735834 -0.00735834 0.00736255 -0.00735834 0.00736255 -0.00736255 0.00735834 -0.00735834 0.00735834 -0.00736255 0.0147209 -0.00735834 0.00736255 -0.00736255 0.00735834 -0.00735834 0.00736255 -0.00736255 0.00735834 -0.00735834 0.0147209 -0.00736255 0.00736255 -0.00735834 0.00735834 -0.00736255 0.0147209 -0.00735834 0.00736255 -0.00736255 0.0147209 -0.00735834 0.00735834 -0.00736255 0.0147209 -0.00735834 0.00736255 -0.00735834 0.0147167 -0.00736255 0.00736255 -0.00736255 0.0147209 -0.00735834 0.0147209 -0.00735834 0.0147209 -0.00736255 0.0147209 -0.00735834 0.0147209 -0.00736255 0.00735834 -0.00735834 0.0147209 -0.00736255 0.0147209 -0.00735834 0.0147209 -0.00736255 0.0147209 -0.00735834 0.0220834 -0.00736255 0.0147167 -0.00735834 0.0147209 -0.00736255 0.0147209 -0.00735834 0.0147209 -0.00736255 0.0220834 -0.00735834 0.0147209 -0.00736255 0.0220792 -0.00735834 0.0147209 -0.00736255 0.0220834 -0.00735834 0.0220792 -0.00736255 0.0220792 -0.00735834 0.0220834 -0.00735834 0.0220792 -0.00736255 0.0220834 -0.00736255 0.0294418 -0.00735834 0.0368001 0 0.139846 0.00735834 0.0294418 0.00736255 0.0220792 0.00736255 0.0147209 0.00735834 0.00736255 0.00735834 0.0147209 0.00736255 0.00735834 0.00735834 0.0147209 0.00736255 0.00736255 0.00735834 0.00735834 0.00736255 0.00736255 0.0147209 0.00735834 0.00735834 0.00736255 0.00736255 0.00735834 0.0147209 0.00735834 0.00735834 0.00736255 0.0147209 0.00735834 0.0220834 0.00736255 0.0147209 0.00735834 0.0294418 0.00736255 0.051521 0.00735834 0.0368001 0 0 0.110409 0.00736255 0c0,-0.243103 0.0419707,-0.270437 0.184055,-0.37533 0.0613111,-0.0452649 0.0898651,-0.0804495 0.12749,-0.152207 0.0337121,-0.0643024 0.0661662,-0.127536 0.159515,-0.127536l0 -0.00735834 -0.0229249 -4.20717e-005 0.00820398 -0.0588415 0 -0.206092 -0.00735834 -0.0588835 -0.00736255 -0.0368001 -0.00735834 -0.0220792 -0.00736255 -0.0220834 -0.00735834 -0.0220792 -0.00736255 -0.0147209 -0.00735834 -0.0147209 -0.00736255 -0.0147209 -0.00735834 -0.00736255 -0.00736255 -0.0147167 -0.00735834 -0.00736255 -0.00736255 -0.00735834 -0.00735834 -0.00736255 -0.00735834 -0.00735834 -0.00736255 -0.00736255 -0.00735834 -0.00735834 -0.0147209 -0.00736255 -0.00736255 -0.00735834 -0.0147209 -0.00736255 -0.0147209 -0.00735834 -0.0220792 -0.00736255 -0.0662461 0 -0.0220792 0.00736255z"/>
    <path id="_116868760" class="fil1" d="M2.30379 2.09034c-0.0200934,0.0134587 -0.106029,0.0809628 -0.125125,0.0809628 -0.0211663,0 -0.0956837,-0.0836722 -0.0956837,-0.103042l0 -0.00736255c0,-0.0169591 0.00512013,-0.0220792 0.0220792,-0.0220792l0.00736255 0c0.0235097,0 0.0544576,0.0460601 0.0750307,0.0608441l0.116337 -0.0902859 0 -0.051521 -0.287051 0 0 0.287051 0.287051 0 0 -0.154567z"/>
    <path id="_117734784" class="fil6" d="M2.33323 1.98729l-0.0294418 0.0220834 -0.116337 0.0902859c-0.0205731,-0.014784 -0.051521,-0.0608441 -0.0750307,-0.0608441l-0.00736255 0c-0.0169591,0 -0.0220792,0.00512013 -0.0220792,0.0220792l0 0.00736255c0,0.0193698 0.0745174,0.103042 0.0956837,0.103042 0.0190963,0 0.105032,-0.067504 0.125125,-0.0809628l0.0294418 -0.0220792c0.0266903,-0.0231983 0.154567,-0.10393 0.154567,-0.132488 0,-0.00895706 -0.0152257,-0.0220792 -0.0294418,-0.0220792l-0.00735834 0c-0.0245362,0 -0.0803107,0.0635998 -0.117767,0.0736002z"/>
    <path id="_116868832" class="fil0" d="M5.71899 1.94313c0.00911273,0.0391267 0.0572049,0.162914 0.0760109,0.203678 0.0103707,0.0224747 0.0350121,0.0823091 0.0403089,0.0995374 0.00689555,0.0224453 0.0230048,0.107863 0.0235265,0.108961l0.220809 -0.0883211c0.0206404,-0.00990368 0.0602383,-0.0294418 0.0883253,-0.0294418 0.0277168,0 0.0139173,0.00484245 0.0441585,0.00735834l0 -0.0368001 -0.00735834 -0.0294418 -0.00735834 -0.00736255 -0.00736255 -0.0147209 -0.00736255 -0.0147167 -0.00735834 -0.00736255 -0.00735834 -0.0147209 -0.00736255 -0.00735834 -0.00735834 -0.0147209 -0.00736255 -0.00736255 -0.00735834 -0.00735834 -0.00736255 -0.0147209 -0.00735834 -0.00736255 -0.00736255 -0.00735834 -0.00735834 -0.00736255 -0.00736255 -0.0147209 -0.00735834 -0.00735834 -0.00736255 -0.00736255 -0.00735834 -0.00735834 -0.00736255 -0.00736255 -0.00735834 -0.00735834 -0.00736255 -0.00736255 -0.00735834 -0.00735834 -0.00735834 -0.0147209 -0.00736255 -0.00735834 -0.00736255 -0.00736255 -0.00735834 -0.00735834 -0.00735834 -0.00736255 -0.00736255 -0.00735834 -0.00735834 -0.00736255 -0.0147209 -0.00735834 -0.00736255 -0.00736255 -0.00735834 -0.00735834 -0.00736255 -0.00736255 -0.00735834 -0.00735834 -0.00736255 -0.00736255 -0.00735834 -0.00735834 -0.0147209 -0.00736255 -0.00736255 -0.00735834 -0.00735834 -0.00736255 -0.00736255 -0.00735834 -0.0147167 -0.00736255 -0.00736255 -0.00735834 -0.0147209 -0.00735834 -0.00735834 -0.00736255 -0.00736255 -0.00735834 -0.0147209 -0.00736255 -0.00735834 -0.00735834 -0.0147209 -0.00736255 -0.0147209 -0.00735834 -0.00736255 -0.00736255 -0.0147209 -0.00735834 -0.0220792 -0.00736255 -0.0294418 -0.00735834 -0.0809628 0 0.0736044 0.19873z"/>
    <path id="_116868928" class="fil4" d="M5.38041 2.55404c0.0323405,-0.0155202 0.121192,-0.0350457 0.132484,-0.0662419 -0.0168665,-0.072397 -0.0997183,-0.207106 -0.109428,-0.266507 -0.00348354,-0.0213009 0.0316337,-0.294035 0.0358283,-0.344403 -0.0133367,0.0153393 -0.169292,0.351593 -0.169292,0.368018 0,0.0258404 0.0975432,0.253911 0.110409,0.309134z"/>
    <path id="_117734928" class="fil7" d="M4.04819 1.03045l0.375381 0 0 0.110409 0.0869117 0.0681519 -0.0869117 0.137936 0 0.360655 -0.0441627 0.0294418 0.122096 0.233267 -0.0779336 0.0243469 0 0.0294418 0.176646 -0.0883253c0.00506964,0.0609282 0.039682,0.172751 0.0546722,0.239741 0.0207498,0.0927471 0.0336532,0.155228 0.0336532,0.268123l0.00735834 0 0.00445119 -0.0373849 0.00291136 0.0300224 0.00735834 0.0368043 0.00736255 0.0294418 0.00735834 0.0368001 0.00736255 0.0294418 0.00735834 0.0368043 0.00735834 0.0368001 0.00736255 0.0294418 0.00736255 0.0294418 0.00735834 0.0368001 0.00735834 0.0294418 0.00736255 0.0294418 0.59619 -0.242893c-0.0128655,-0.0552233 -0.110409,-0.283294 -0.110409,-0.309134 0,-0.0164248 0.155956,-0.352679 0.169292,-0.368018l0.0736002 0.19873 0.206092 -0.132484 -0.0736044 -0.19873 0 -0.0220834 -0.00736255 -0.0220792 -0.00735834 -0.0220834 -0.00736255 -0.0220792 -0.00735834 -0.0220792 -0.00736255 -0.0147209 -0.00735834 -0.0220834 -0.00736255 -0.0147209 -0.00735834 -0.0147209 -0.00736255 -0.0147209 -0.0220792 -0.00735834 -0.0147209 -0.00736255 -0.0220792 -0.00735834 -0.0147209 -0.00736255 -0.0220834 -0.00735834 -0.0147209 -0.00735834 -0.0220792 -0.00736255 -0.0147209 -0.00736255 -0.0220792 -0.00735834 -0.0220834 -0.00735834 -0.0147209 -0.00736255 -0.0220792 -0.00735834 -0.0147209 -0.00736255 -0.0220834 -0.00735834 -0.0147209 -0.00736255 -0.0220792 -0.00735834 -0.0147209 -0.00736255 -0.0220834 -0.00735834 -0.0147167 0c-0.0392823,0.0287812 -0.090105,0.139846 -0.176651,0.139846l-0.00735834 0c-0.0712442,0 -0.147592,-0.0596493 -0.176651,-0.103046l-0.0220792 0 -0.0368043 0.00736255 -0.0220792 0.00735834 -0.0220792 0.00736255 -0.0220834 0.00735834 -0.0294418 0.00735834 -0.00735834 0 -0.00736255 -0.0736002 0 -0.279693 0 -0.0147209 0.0147209 0c-0.017363,-0.025933 -0.0368001,-0.0446843 -0.0368001,-0.0883253l0 -0.0147209c0,-0.027801 0.0179225,-0.044474 0.0294418,-0.0662419l-0.00736255 -0.0662461 -0.00735834 -0.103042 -0.00736255 -0.00736255 -0.00735834 -0.00735834 -0.00736255 -0.00736255 -0.00735834 -0.00735834 -0.00736255 -0.00736255 -0.00735834 -0.00735834 -0.0147209 -0.00736255 -0.0147209 -0.00735834 -0.0294418 -0.00736255 -0.537306 0 0 0.309134z"/>
    <path id="_116869000" class="fil0" d="M5.5129 2.4878l0.0146031 0.0070975 0.0369221 -0.01446c0.103282,-0.195187 -0.0369852,-0.230103 -0.0515252,-0.404818l-0.0736002 -0.19873c-0.00419455,0.0503682 -0.0393118,0.323102 -0.0358283,0.344403 0.00971015,0.059401 0.0925619,0.19411 0.109428,0.266507z"/>
    <path id="_116869072" class="fil2" d="M6.07965 2.26699l0.0883253 0.220809c0.0938199,-0.0450167 0.0540579,-0.0150322 0.117763,-0.0883253l0 -0.0736044 -0.00735834 -0.0147209 -0.00736255 -0.0147167 -0.00735834 -0.0147251 -0.00736255 -0.00735834 -0.00735834 -0.00735834 -0.00736255 -0.00736255 -0.00735834 -0.00735834 -0.0147209 -0.00736255 -0.00736255 0c-0.0302411,-0.00251589 -0.0164416,-0.00735834 -0.0441585,-0.00735834 -0.0280871,0 -0.0676849,0.0195381 -0.0883253,0.0294418z"/>
    <path id="_117735048" class="fil1" d="M2.30379 2.59084c-0.0169549,0.0113509 -0.104523,0.0809628 -0.117763,0.0809628l-0.00736255 0c-0.0182717,0 -0.0956837,-0.0774161 -0.0956837,-0.0956837l0 -0.0294418c0.0197358,-0.00472886 0.0138752,-0.00736255 0.0294418,-0.00736255 0.0251757,0 0.0531576,0.0374438 0.0588835,0.0588835 0.0361817,-0.000803569 0.116804,-0.0649082 0.132484,-0.0883253l0 -0.0588793 -0.287051 0 0 0.287051 0.287051 0 0 -0.0809628 0 -0.0662419z"/>
    <polygon id="_116870416" class="fil6" points="5.85884,2.35531 5.68955,2.67916 6.16797,2.4878 6.07965,2.26699 "/>
    <path id="_116870968" class="fil6" d="M2.33323 2.49515l-0.0294418 0.0147209c-0.0156801,0.0234171 -0.0963021,0.0875218 -0.132484,0.0883253 -0.00572596,-0.0214397 -0.0337078,-0.0588835 -0.0588835,-0.0588835 -0.0155665,0 -0.00970594,0.00263369 -0.0294418,0.00736255l0 0.0294418c0,0.0182675 0.0774119,0.0956837 0.0956837,0.0956837l0.00736255 0c0.01324,0 0.100808,-0.0696118 0.117763,-0.0809628l0.0294418 -0.0220834c0.0231857,-0.0155245 0.154567,-0.10244 0.154567,-0.125125 0,-0.0172284 -0.0122134,-0.0294418 -0.0294418,-0.0294418l-0.00735834 0c-0.0132442,0 -0.100812,0.0696118 -0.117767,0.0809628z"/>
    <path id="_116881120" class="fil4" d="M2.33323 2.56876l-0.0294418 0.0220834 0 0.0662419 0 0.0809628 -0.287051 0 0 -0.287051 0.287051 0 0 0.0588793 0.0294418 -0.0147209 0 -0.0736002 -0.345935 0 0 0.323855c0,0.0169591 0.00512013,0.0220792 0.0220792,0.0220792l0.323855 0 0 -0.19873z"/>
    <path id="_116870848" class="fil3" d="M5.5129 2.07562c0.01454,0.174715 0.154807,0.209631 0.0515252,0.404818l-0.104742 0.290051 -0.160234 0.0706089 0.0808702 0.0722161 0.11786 -0.00597418 0.0369432 -0.00725737 0.154428 -0.220914 0.169288 -0.323855c-0.000521689,-0.00109807 -0.0166309,-0.0865162 -0.0235265,-0.108961 -0.00529683,-0.0172284 -0.0299382,-0.0770627 -0.0403089,-0.0995374 -0.018806,-0.0407633 -0.0668982,-0.164551 -0.0760109,-0.203678l-0.206092 0.132484z"/>
    <polygon id="_116871064" class="fil2" points="4.68854,3.07662 4.61494,2.87789 4.43829,3.07662 "/>
    <path id="_80259888" class="fil6" d="M5.5129 2.4878c-0.011292,0.0311962 -0.100143,0.0507216 -0.132484,0.0662419l-0.59619 0.242893 -0.0147209 0 -0.0147209 0.00735834 -0.0220792 0.00736255 -0.0147209 0.00735834 -0.0147209 0.00736255 -0.00736255 -0.0736044 -0.00735834 0 -0.000189323 0.0878794 -0.0734151 0.0372461 0.0736044 0.19873 0.0220792 0 0.0220834 -0.00735834 0.0147167 -0.00736255 0.0220834 -0.00735834 0.0147209 -0.00736255 0.515223 -0.206088 0.160234 -0.0706089 0.104742 -0.290051 -0.0369221 0.01446 -0.0146031 -0.0070975z"/>
    <path id="_116871760" class="fil6" d="M2.33323 2.98094l-0.0294418 0.0147209 -0.117763 0.0883253c-0.0191468,-0.0128235 -0.0500948,-0.0588835 -0.0736044,-0.0588835l-0.00736255 0c-0.0169591,0 -0.0220792,0.00512013 -0.0220792,0.0220792 0,0.0348017 0.0790864,0.110405 0.0883253,0.110405 0.0336489,0 0.104435,-0.062182 0.132484,-0.0809628l0.0294418 -0.0220792c0.027233,-0.0182381 0.154567,-0.100913 0.154567,-0.132488 0,-0.00895706 -0.0152257,-0.0220792 -0.0294418,-0.0220792l-0.00735834 0c-0.0178216,0 -0.0985319,0.0680804 -0.117767,0.0809628z"/>
    <path id="_116870368" class="fil4" d="M2.33323 3.05454l-0.0294418 0.0220792 0 0.154567 -0.287051 0 0 -0.287051 0.287051 0 0 0.051521 0.0294418 -0.0147209 0 -0.0662419 -0.345935 0 0 0.323855c0,0.0169591 0.00512013,0.0220792 0.0220792,0.0220792l0.323855 0 0 -0.206088z"/>
    <path id="_116869984" class="fil1" d="M2.30379 3.07662c-0.0280492,0.0187808 -0.0988348,0.0809628 -0.132484,0.0809628 -0.00923894,0 -0.0883253,-0.0756028 -0.0883253,-0.110405 0,-0.0169591 0.00512013,-0.0220792 0.0220792,-0.0220792l0.00736255 0c0.0235097,0 0.0544576,0.0460601 0.0736044,0.0588835l0.117763 -0.0883253 0 -0.051521 -0.287051 0 0 0.287051 0.287051 0 0 -0.154567z"/>
    <path id="_116870488" class="fil0" d="M0.552027 2.28907l-0.00736255 0.00736255 -0.0147209 0.00735834 -0.00735834 0.00735834 -0.0147209 0.00736255 -0.00736255 0.00735834 -0.0147209 0.00736255 -0.00735834 0.00735834 -0.0147209 0.00736255 -0.00735834 0.00735834 -0.0147251 0.00736255 -0.00735834 0.00735834 -0.0147209 0.00736255 -0.00735834 0.00735834 -0.00736255 0.00736255 -0.0147209 0.00735834 -0.00735834 0.00736255 -0.00736255 0.00735834 -0.0147209 0.00736255 -0.00735834 0.00735834 -0.00736255 0.00735834 -0.00735834 0.00736255 -0.00736255 0.00736255 -0.00735834 0.00735834 -0.00736255 0.00735834 -0.00735834 0.00736255 -0.00736255 0.00735834 -0.00735834 0.00736255 -0.00736255 0.00735834 -0.00735834 0.00736255 -0.00735834 0.00735834 -0.00736255 0.00736255 -0.00736255 0.00735834 -0.00735834 0.00736255 -0.00735834 0.00735834 -0.00736255 0.00736255 -0.00735834 0.00735834 -0.00736255 0.0147209 -0.00735834 0.00736255 -0.00736255 0.00735834 -0.00735834 0.0147209 -0.00736255 0.00736255 -0.00735834 0.0147167 -0.00736255 0.00736255 -0.00735834 0.0147209 -0.00736255 0.00735834 -0.00735834 0.0147209 -0.00736255 0.0147209 -0.00735834 0.00736255 -0.00736255 0.0147209 -0.00735834 0.0147209 -0.00735834 0.0147209 -0.00736255 0.0147209 -0.00736255 0.0147209 -0.00735834 0.0147167 -0.00735834 0.0220834 -0.00736255 0.0147209 -0.00735834 0.0220792 -0.00736255 0.0147209 -0.00735834 0.0220834 -0.00736255 0.0220792 -0.00735834 0.0220834 -0.00736255 0.0294418 -0.00735834 0.0294376 -0.00736255 0.0294418 -0.00735834 0.0441627 -0.00736255 0.0441627 -0.00735834 0.0662419 0 0.206092 0.00735834 0.0736044 0.00736255 0.051521 0.00735834 0.0368001 0.00736255 0.0294418 0.00735834 0.0368001 0.00736255 0.0220834 0.00735834 0.0220792 0.00736255 0.0220834 0.00735834 0.0220792 0.00736255 0.0220834 0.00735834 0.0147209 0.00736255 0.0147209 0.00735834 0.0220792 0.00735834 0.0147209 0.00736255 0.0147209 0.00736255 0.0147209 0.00735834 0.0147209 0.00735834 0.0147209 0.00736255 0.0147209 0.00735834 0.00735834 0.00736255 0.0147209 0.00735834 0.0147209 0.00736255 0.00736255 0.00735834 0.0147167 0.00736255 0.00736255 0.00735834 0.0147209 0.00736255 0.00735834 0.00735834 0.0147209 0.00736255 0.00736255 0.00735834 0.0147209 0.00736255 0.00735834 0.00735834 0.00736255 0.00736255 0.00735834 0.00735834 0.00736255 0.00735834 0.00735834 0.00736255 0.00736255 0.00736255 0.0662419 0.00735834 0.00735834 0.051521 0.00736255 0.0147209 0.00735834 0.0147209 0.00736255 0.00736255 0.00735834 0.0147209 0.00736255 0.0147209 0.00735834 0.0147209 0.00736255 0.00735834 0.0220792 0.00736255 0 0 -0.0441627 0.0294418 0c-0.0839583,-0.125374 -0.0800835,-0.0907655 -0.108844,-0.273895 -0.00957552,-0.0609619 0.00625185,-0.126863 -0.00450167,-0.18687 -0.0154403,-0.0861797 -0.0279735,-0.100623 -0.0417982,-0.154407l0.118339 0.018987c-0.0124701,-0.0535194 -0.051521,-0.114132 -0.051521,-0.184009l0 -0.103046c0,-0.236923 0.287051,-0.343974 0.287051,-0.574106l0 -0.0441627c0,-0.0576593 -0.0614878,-0.290627 -0.0809628,-0.331218l-0.00735834 0 -0.0147209 0.00736255z"/>
    <path id="_116872192" class="fil7" d="M0.419539 3.51825l-0.118339 -0.018987c0.0138248,0.0537845 0.0263579,0.0682277 0.0417982,0.154407 0.0107535,0.0600069 -0.00507385,0.125908 0.00450167,0.18687 0.0287602,0.18313 0.0248854,0.148522 0.108844,0.273895l0.47106 0 0.0147209 -0.147205 -0.0147209 -0.154567 -0.00174598 -0.840824 0.202222 -0.202605 -0.00673989 -0.00677775 -0.193736 0.189045 0 -1.07461 -0.0147209 0 -0.00354244 0.444555 -0.195187 -0.231104c0.0120367,0.0516725 0.19873,0.234701 0.19873,0.264972l-0.00247382 1.04881 -0.23805 -0.161694 -0.00544828 0.00788003 0.245972 0.179617 0 0.426902c-0.0311499,-0.0358409 -0.0437251,-0.0773656 -0.0864742,-0.119618 -0.0371956,-0.0367665 -0.0673189,-0.067239 -0.112453,-0.0936348 -0.0477177,-0.0279019 -0.0809544,-0.0458329 -0.137398,-0.0686905 -0.0451766,-0.018297 -0.124276,-0.0340192 -0.156818,-0.0566327z"/>
    <path id="_116878120" class="fil7" d="M1.45735 0.743394l-0.00735834 0 -0.00736255 0.00735834 -0.00735834 0.0147209 -0.00736255 0.0147209 -0.00735834 0.0220834 0 0.0368001 0 1.97257c0.0205604,0.0388574 0.051521,0.111065 0.051521,0.169288l0 0.0662419c0,0.045673 -0.0324625,0.0966681 -0.051521,0.125125l0 0.426902 0.264972 -0.132488 0 -2.43628 0.375376 0 0 -0.309134c-0.145762,0 -0.511571,-0.0265851 -0.603548,0.0220834z"/>
    <path id="_116873632" class="fil1" d="M2.30379 3.56241c-0.0196138,0.0131348 -0.108638,0.0809628 -0.125125,0.0809628 -0.0211663,0 -0.0956837,-0.0836764 -0.0956837,-0.103046l0 -0.00735834c0,-0.0169633 0.00512013,-0.0220834 0.0220792,-0.0220834l0.00736255 0c0.0235097,0 0.0544576,0.0460643 0.0750307,0.0608483l0.116337 -0.0902901 0 -0.0441585 -0.287051 0 0 0.287051 0.287051 0 0 -0.110405 0 -0.051521z"/>
    <path id="_116879008" class="fil6" d="M2.33323 3.45936l-0.0294418 0.0220792 -0.116337 0.0902901c-0.0205731,-0.014784 -0.051521,-0.0608483 -0.0750307,-0.0608483l-0.00736255 0c-0.0169591,0 -0.0220792,0.00512013 -0.0220792,0.0220834l0 0.00735834c0,0.0193698 0.0745174,0.103046 0.0956837,0.103046 0.0164879,0 0.105512,-0.067828 0.125125,-0.0809628l0.0294418 -0.0220834c0.0266903,-0.0231983 0.154567,-0.103926 0.154567,-0.132484 0,-0.00896127 -0.0152257,-0.0220834 -0.0294418,-0.0220834l-0.00735834 0c-0.0245362,0 -0.0803107,0.063604 -0.117767,0.0736044z"/>
    <path id="_116870920" class="fil4" d="M2.33323 3.54032l-0.0294418 0.0220834 0 0.051521 0 0.110405 -0.287051 0 0 -0.287051 0.287051 0 0 0.0441585 0.0294418 -0.0220792 0 -0.051521 -0.345935 0 0 0.323855c0,0.0169591 0.00512013,0.0220792 0.0220792,0.0220792l0.323855 0 0 -0.213451z"/>
    <path id="_116879032" class="fil0" d="M6.16797 2.4878l-0.478423 0.191367 -0.154428 0.220914 -0.0369432 0.00725737 0.0324709 0.000580589 -0.157596 0.831139c0.00126636,0.0568431 0.0311457,0.0296269 0.0810932,0.0513948 0.0219572,0.0095671 0.0786657,0.0397788 0.0955574,0.0442889l0 -0.00735834 -0.00736255 -0.00736255 -0.00735834 -0.00735834 -0.00736255 -0.0147209 0.206088 -0.00736255 0.0515252 -0.00735834 0.0220792 -0.00736255 0.0220834 -0.00735834 0.0147209 -0.00736255 0.0220792 -0.00735834 0.0220834 -0.00736255 0.0147167 -0.00735834 0.0147209 -0.00735834 0.0147209 -0.00736255 0.0147209 -0.00735834 0.00736255 -0.00736255 0.0147209 -0.00735834 0.00735834 -0.00736255 0.0147209 -0.00735834 0.00736255 -0.00736255 0.0147209 -0.00735834 0.00735834 -0.00736255 0.00735834 -0.00735834 0.0147251 -0.00736255 0.00735834 -0.00735834 0.00735834 -0.00736255 0.00736255 -0.00735834 0.00735834 -0.00736255 0.00736255 -0.00735834 0.00735834 -0.00736255 0.00736255 -0.00735834 0.00735834 -0.00736255 0.00736255 -0.00735834 0.00735834 -0.00735834 0.00736255 -0.00736255 0.00735834 -0.00735834 0.00736255 -0.0147209 0.00735834 -0.00736255 0.00736255 -0.00735834 0.00735834 -0.00736255 0.00736255 -0.0147209 0.00735834 -0.00735834 0.00735834 -0.0147209 0.00736255 -0.00736255 0.00736255 -0.00735834 0.00735834 -0.0147209 0.00735834 -0.00736255 0.00736255 -0.0147167 0.00735834 -0.0147251 0.00736255 -0.0147167 0.00735834 -0.0147209 0.00736255 -0.0147209 0.00735834 -0.0147209 0.00736255 -0.0147209 0.00735834 -0.0147209 0.00736255 -0.0220834 0.00735834 -0.0147209 0.00736255 -0.0147167 0.00735834 -0.0220834 0.00736255 -0.0220792 0.00735834 -0.0147209 0.00736255 -0.0294418 0.00735834 -0.0294418 0.00736255 -0.0220834 0.00735834 -0.0368001 0.00736255 -0.0294418 0.00735834 -0.0441627 0.00735834 -0.0441627 0.00736255 -0.0736002 0 -0.213451 -0.00736255 -0.0736044 -0.00735834 -0.0441627 -0.00735834 -0.0368001 -0.00736255 -0.0368043 -0.00735834 -0.0220792 -0.00736255 -0.0220834 -0.00735834 -0.0147167 -0.00736255 -0.0147251 -0.00735834 -0.0147167 -0.00736255 -0.00736255 -0.00735834 -0.0147209 -0.00736255 0c-0.063705,0.0732931 -0.023943,0.0433086 -0.117763,0.0883253z"/>
    <path id="_80259456" class="fil2" d="M0.552027 2.14186l0 0.0588793 0.00735834 0.0368043 0.00736255 0.0294418 0.00735834 0.0147167c0.019475,0.0405908 0.0809628,0.273559 0.0809628,0.331218l0 0.0441627c0,0.230132 -0.287051,0.337184 -0.287051,0.574106l0 0.103046c0,0.0698769 0.0390509,0.13049 0.051521,0.184009 0.0325425,0.0226135 0.111641,0.0383357 0.156818,0.0566327 0.0564434,0.0228576 0.08968,0.0407885 0.137398,0.0686905 0.0451345,0.0263958 0.0752579,0.0568683 0.112453,0.0936348 0.0427491,0.0422526 0.0553243,0.0837774 0.0864742,0.119618l0 -0.426902 -0.245972 -0.179617 0.00544828 -0.00788003 0.23805 0.161694 0.00247382 -1.04881c0,-0.0302706 -0.186693,-0.213299 -0.19873,-0.264972l0.195187 0.231104 0.00354244 -0.444555 0.0147209 0 0 1.07461 0.193736 -0.189045 0.00673989 0.00677775 -0.202222 0.202605 0.00174598 0.840824c0.206256,-0.0171653 0.239767,-0.105268 0.28411,-0.282638 0.05479,-0.219151 0.0853971,-0.215474 0.209033,-0.357715 0.0190585,-0.0284573 0.051521,-0.0794524 0.051521,-0.125125l0 -0.0662419c0,-0.058223 -0.0309606,-0.130431 -0.051521,-0.169288 -0.0299256,-0.0430688 -0.0496656,-0.0831673 -0.0840046,-0.129446 -0.0323658,-0.0436284 -0.0619001,-0.0755818 -0.0946613,-0.118789 -0.049754,-0.0656192 -0.137831,-0.181451 -0.137831,-0.28907l0 -0.110405c0,-0.0959403 0.080967,-0.24423 0.080967,-0.345935l0 -0.0883253 -0.00736255 -0.0956837 -0.00735834 -0.0220834 -0.00736255 -0.0147209 -0.00735834 -0.0147209 -0.00736255 -0.0147209 -0.00735834 -0.0147209 -0.00736255 -0.00735834 -0.00735834 -0.00736255 -0.00736255 -0.00735834 -0.00735834 -0.00736255 -0.0147209 -0.00735834 -0.00736255 -0.00735834 -0.00735834 -0.00736255 -0.0147209 -0.00736255 -0.0147209 -0.00735834 -0.0294418 0c-0.0933487,0 -0.125803,0.0632338 -0.159515,0.127536 -0.0376247,0.0717575 -0.0661788,0.106942 -0.12749,0.152207 -0.142085,0.104893 -0.184055,0.132227 -0.184055,0.37533z"/>
    <path id="_116873272" class="fil6" d="M0.942124 3.96723l-0.0147209 0.147205 0.294414 0c0.0447853,-0.0668814 0.137406,-0.177509 0.139846,-0.287051 -0.0734446,0.0352393 -0.187417,-0.00317221 -0.26217,0.0175187 -0.10443,0.0289033 -0.101856,0.0816528 -0.157369,0.122328z"/>
    <polygon id="_116871160" class="fil1" points="6.24157,4.12179 6.24893,4.12915 6.25629,4.13651 6.27101,4.13651 6.27101,4.12915 6.26366,4.12179 6.25629,4.11443 6.24893,4.10707 6.23421,4.10707 6.23421,4.11443 "/>
    <polygon id="_116870296" class="fil1" points="6.27838,4.14387 6.27838,4.13651 6.27101,4.13651 6.27101,4.14387 "/>
    <polygon id="_116871472" class="fil1" points="6.28573,4.15124 6.28573,4.14387 6.27838,4.14387 6.27838,4.15124 "/>
    <polygon id="_116870440" class="fil1" points="6.2931,4.16596 6.30782,4.16596 6.30782,4.15859 6.30046,4.15124 6.28573,4.15124 6.28573,4.15859 "/>
    <path id="_116872720" class="fil0" d="M0.927403 3.81266l0.0147209 0.154567c0.0555136,-0.0406749 0.0529388,-0.0934244 0.157369,-0.122328 0.074753,-0.0206909 0.188725,0.0177206 0.26217,-0.0175187 -0.00244016,0.109542 -0.095061,0.22017 -0.139846,0.287051l0.0882664 -4.20717e-006 -0.014662 0.147213 0.0147209 0 0.0147209 -0.00736255 0.0220792 -0.00735834 0.0147209 -0.00736255 0.0220792 -0.00735834 0.0294418 -0.00735834 0 0.0662419 0.00736255 0 0 -0.691873 0 -0.426902c-0.123636,0.14224 -0.154243,0.138563 -0.209033,0.357715 -0.0443436,0.17737 -0.0778537,0.265472 -0.28411,0.282638z"/>
    <path id="_116871256" class="fil5" d="M5.52026 4.46037l0.00735834 -0.0147209 0.0147209 -0.00736255 0.0147209 -0.00735834 0.00736255 -0.00736255 0.0147167 -0.00735834 0.00736255 -0.00735834 0.0147209 -0.00736255 0.00735834 -0.00736255 0.00736255 -0.00735834 0.0147209 -0.00735834 0.00735834 -0.00736255 0.00736255 -0.00736255 0.00735834 -0.00735834 0.00736255 -0.00735834 0.00735834 -0.0147209 0.00736255 -0.00736255 0.00735834 -0.00735834 0.00736255 -0.00736255 0.00735834 -0.0147209 0.00736255 -0.0147209 0.00735834 -0.0147209 0.00736255 -0.0147209 0.00735834 -0.0220792 0.00735834 -0.0220834 0 -0.125125 -0.00735834 -0.0294418 -0.00735834 -0.0220792 -0.00736255 -0.0147209 -0.00735834 -0.0220792 -0.00736255 -0.00736255 -0.00735834 -0.0147209 -0.00736255 -0.0147209 -0.00735834 -0.00735834 -0.00736255 -0.0147209 -0.00735834 -0.00736255 -0.00736255 -0.00735834 -0.00735834 -0.00736255 -0.00736255 -0.00735834 -0.00735834 -0.00736255 -0.00736255 -0.00735834 -0.00735834 -0.00735834 -0.00736255 -0.00736255 -0.00735834 -0.00736255 -0.00736255 -0.00735834 -0.00735834 -0.00735834 -0.00736255 -0.00736255 -0.0147167 -0.00735834 -0.00736255 -0.00736255 -0.00735834 0c-0.0168918,-0.00451009 -0.0736002,-0.0347218 -0.0955574,-0.0442889 -0.0499475,-0.0217679 -0.0798268,0.00544828 -0.0810932,-0.0513948 -0.00531366,0.00837647 -0.0736044,0.362511 -0.0736044,0.390097 0,0.0271615 0.197342,0.314023 0.220813,0.331218z"/>
    <path id="_116877928" class="fil8" d="M4.78423 3.04718l-0.00736255 0.00736255 -0.00735834 0.0220792 -0.00735834 0.0368001 -0.00736255 0.0368043 -0.00736255 0.0368001 -0.00735834 0.0368043 -0.00735834 0.0441585 -0.00736255 0.0368043 -0.00735834 0.0368001 -0.00736255 0.0441627 -0.00735834 0.0368001 0 0.0368043 -0.00736255 0 0 -0.0588835 -0.00735834 0c0,0.1182 -0.0325887,0.415639 -0.0644833,0.484022l0.0792042 0.0827256 0 0.00735834 0.00735834 0.00736255 0.00736255 0.00735834 0.00735834 0.00736255 0.00736255 0.00735834 0.00735834 0.00736255 0.00735834 0.00735834 0.00736255 0.00736255 0.00736255 0.00735834 0.00735834 0.00736255 0.00735834 0.00735834 0.00736255 0.00735834 0.00735834 0.00736255 0.00736255 0.00736255 0.00735834 0.00735834 0.00736255 0.00735834 0.00735834 0.00736255 0.00736255 0.00735834 0.00735834 0.00736255 0.00736255 0.00735834 0.00735834 0.00736255 0.00736255 0.00735834 0.00735834 0.00736255 0.00736255 0.00735834 0.00735834 0.00736255 0.00736255 0.00735834 0.00735834 0.00736255 0.00735834 0.00735834 0.00736255 0.00736255 0.00736255 0.00735834 0.00735834 0.00736255 0.0147209 0.00735834 0.00736255 0.00735834 0.00735834 0.00736255 0.00735834 0.00736255 0.00736255 0.00735834 0.00735834 0.00735834 0.00736255 0.00736255 0 0.110405 -0.00736255 0.0736044 -0.00735834 0.0809628 -0.00736255 0.0809628 0 0.139846 0.0147209 0 0.0368043 0 0.0736002 0.0147209 0.0294418 0 0 0.0736044c0,0.0240145 0.00380749,0.0242459 0.0147209,0.0368043l0 -0.0220834 0 -0.0736044 0.0441627 -0.00735834 0.00736255 -0.0147209 0.00735834 -0.0147209 0.00736255 -0.0294418 0.00735834 -0.0368001 0.00736255 -0.0368043 0.00735834 -0.0441627 0.00736255 -0.0368001 0.00735834 -0.0368001 0.00735834 0 0.00736255 0.00735834 0.0147209 0.00736255 0.00735834 0.00735834 0.00736255 0.00736255 0.00735834 0.00735834 0.00736255 0.00735834 0.00735834 0.00736255 0.00736255 0.00736255 0.00735834 0.00735834 0.00736255 0.00735834 0.00735834 0.00736255 0.00736255 0.00735834 0.00735834 0.00736255 0.00736255 0.00735834 0.00735834 0.00736255 0.00736255 0.00735834 0.00735834 0.00736255 0.0147209 0.00735834 0.00736255 0.00736255 0.00735834 0.00735834 0.00736255 0.00736255 0.0147167 0.00735834 0.0147251 0.00736255 0.00735834 0 0.110405 -0.12513 0 -0.0368001 -0.00735834 -0.0147209 -0.00736255 -0.0147209 -0.00735834 -0.00735834 -0.00736255 -0.0147209 -0.00735834 0c-0.0234718,-0.0171947 -0.220813,-0.304056 -0.220813,-0.331218 0,-0.0275864 0.0682908,-0.381721 0.0736044,-0.390097l0.157596 -0.831139 -0.0324709 -0.000580589 -0.11786 0.00597418 -0.0808702 -0.0722161 -0.515223 0.206088z"/>
    <polygon id="_78011528" class="fil9" points="3.93778,4.78423 4.41621,4.28372 3.93778,4.28372 "/>
    <polygon id="_118994536" class="fil10" points="5.44666,4.67382 5.44666,4.68118 5.46138,4.68118 5.46138,4.70326 5.46874,4.74006 5.4761,4.79158 5.4761,4.84311 5.46874,4.87991 5.46138,4.90935 5.45401,4.93143 5.44666,4.96087 5.4393,4.98296 5.43194,5.0124 5.43194,5.0492 5.4393,5.05656 5.44666,5.07128 5.45401,5.07864 5.46138,5.086 5.46874,5.10072 5.4761,5.11544 5.41721,5.11544 5.41721,5.1228 5.54234,5.1228 5.54234,5.11544 5.52652,5.11507 5.53498,5.10072 5.54234,5.086 5.5497,5.07128 5.55706,5.05656 5.56442,5.04183 5.57178,5.02712 5.57914,5.0124 5.5865,4.99768 5.59386,4.98296 5.60122,4.96823 5.60858,4.95351 5.61594,4.93879 5.6233,4.92407 5.63067,4.90935 5.63802,4.89463 5.64539,4.87255 5.65274,4.86519 5.66011,4.85047 5.66747,4.83575 5.67483,4.82103 5.68219,4.8063 5.68955,4.79158 5.69691,4.77686 5.70427,4.75478 5.71163,4.74006 5.71899,4.72534 5.72635,4.71062 5.73371,4.6959 5.74107,4.68118 5.74843,4.66646 5.74843,4.63702 5.73371,4.62966 5.71163,4.6223 5.70427,4.61494 5.68955,4.60757 5.67483,4.60022 5.66011,4.59285 5.64539,4.5855 5.63067,4.57813 5.61594,4.57077 5.60122,4.56342 5.5865,4.55605 5.57178,4.54869 5.55706,4.54869 "/>
    <polygon id="_116870248" class="fil2" points="5.99132,4.41621 5.98396,4.42357 5.9766,4.43093 5.96924,4.43829 5.96188,4.45301 5.95452,4.46037 5.94716,4.47509 5.94716,4.56342 5.95452,4.59285 5.96188,4.61494 5.96924,4.63702 5.9766,4.64438 5.98396,4.6591 5.99132,4.67382 5.99868,4.68118 6.00604,4.6959 6.0134,4.70326 6.02076,4.71062 6.02812,4.72534 6.03548,4.7327 6.04285,4.74006 6.0502,4.74742 6.05756,4.75478 6.06493,4.76214 6.087,4.7695 6.10173,4.7695 6.07228,4.65174 6.08505,4.6523 6.13117,4.79895 6.13853,4.74006 6.14589,4.71062 6.14589,4.57077 6.13853,4.54133 6.13117,4.52661 6.12381,4.51189 6.11645,4.49717 6.10909,4.48245 6.10173,4.46773 6.09437,4.46037 6.087,4.45301 6.07965,4.44565 6.07228,4.43829 6.06493,4.43093 6.0502,4.42357 6.04285,4.41621 6.0134,4.40885 5.99868,4.40885 "/>
    <polygon id="_78011408" class="fil11" points="6.38142,4.09971 6.3667,4.10707 6.35934,4.11443 6.35198,4.12179 6.34462,4.12915 6.33726,4.13651 6.3299,4.14387 6.32254,4.15859 6.30782,4.16596 6.30046,4.17331 6.2931,4.21011 6.28573,4.2322 6.27838,4.26164 6.27101,4.28372 6.26366,4.32052 6.25629,4.34997 6.24893,4.40149 6.24157,4.46773 6.24157,4.71798 6.24893,4.74006 6.25629,4.7695 6.26366,4.79895 6.26366,4.82839 6.25629,4.87255 6.24893,4.90935 6.24157,4.94615 6.23421,4.98296 6.22685,5.01976 6.21949,5.0492 6.21618,5.07238 6.21213,5.05656 6.20477,5.04183 6.19741,5.01976 6.19005,4.99768 6.18269,4.96823 6.17533,4.94615 6.16797,4.91671 6.16061,4.89463 6.15325,4.86519 6.14589,4.84311 6.13853,4.81367 6.13117,4.79895 6.08505,4.6523 6.07228,4.65174 6.10173,4.7695 6.10173,4.78423 6.10909,4.8063 6.11645,4.83575 6.12381,4.85783 6.13117,4.88727 6.13853,4.90935 6.14589,4.93879 6.15325,4.96087 6.16061,4.99031 6.16797,5.0124 6.17533,5.04183 6.18269,5.07128 6.19005,5.09336 6.19741,5.10808 6.18269,5.10808 6.15325,5.11544 6.15325,5.1228 6.20477,5.1228 6.21949,5.11544 6.22685,5.10808 6.23421,5.07128 6.24157,5.03448 6.24893,4.99768 6.25629,4.95351 6.26366,4.91671 6.27101,4.89463 6.28573,4.88727 6.2931,4.87991 6.2931,4.86519 6.28573,4.85047 6.27838,4.79895 6.32254,4.79895 6.35198,4.79158 6.35934,4.77686 6.3667,4.7695 6.37406,4.76214 6.38142,4.75478 6.38878,4.74006 6.39614,4.7327 6.4035,4.71798 6.41086,4.71062 6.41822,4.6959 6.42558,4.68118 6.43294,4.66646 6.4403,4.65174 6.44766,4.63702 6.45502,4.61494 6.46239,4.60022 6.46974,4.57077 6.47711,4.54133 6.48446,4.51189 6.49183,4.46037 6.49919,4.36468 6.49919,4.21748 6.49183,4.17331 6.48446,4.14387 6.47711,4.12915 6.46974,4.11443 6.44766,4.10707 6.4403,4.09971 6.41822,4.09235 6.38878,4.09235 "/>
    <path id="_80259480" class="fil4" d="M5.086 4.74742l-0.0736002 -0.0147209c0,0.0448484 -0.0316043,0.14739 -0.0309353,0.162153l0.0162144 0.124902 0.0662419 0c0.00436284,-0.0187219 0.0308091,-0.112845 0.0292482,-0.125104l-0.00716902 -0.14723z"/>
    <path id="_116871568" class="fil12" d="M4.97559 4.76214l-0.00735834 0.0220834 -0.00736255 0.0220792 -0.00735834 0.0220834 -0.00735834 0.0147209 -0.00736255 0.0220792 -0.00736255 0.0147209 -0.00735834 0.0294418 0 0.051521 0.00735834 0.0294418 0.00736255 0.0294418 0.00736255 0.0294418 0.00735834 0.0294418 0.00735834 0.0294418 -0.0662419 0 -0.161926 0.00735834 0 0.00736255 0.110405 0.00735834 0.316493 0 0 -0.00735834 -0.0220792 -0.00736255 -0.0379066 -0.000366024 0.00846483 -0.0143549 0.00735834 -0.0147209 0.00736255 -0.0147209 0.00735834 -0.0147209 0.00736255 -0.00735834 0.00735834 -0.0147209 0.00736255 -0.0147209 0.00735834 -0.0147209 0.00736255 -0.00735834 0.00735834 -0.0147209 0 -0.0294418 -0.00735834 -0.0220834 -0.00736255 -0.0147209 -0.00735834 -0.0220792 -0.00736255 -0.0147209 -0.00735834 -0.0220792 -0.00736255 0c-0.0109134,-0.0125584 -0.0147209,-0.0127898 -0.0147209,-0.0368043l0 -0.0736044 -0.0294418 0 0.00716902 0.14723c0.00156086,0.0122597 -0.0248854,0.106382 -0.0292482,0.125104l-0.0662419 0 -0.0162144 -0.124902c-0.00066894,-0.014763 0.0309353,-0.117304 0.0309353,-0.162153l-0.0368043 0 0 0.00736255 0 0.0220792z"/>
    <polygon id="_116873776" class="fil8" points="0.426902,4.15859 0.426902,4.2322 0.43426,4.29108 0.441618,4.34997 0.448981,4.42357 0.456343,4.48981 0.463702,4.55605 0.47106,4.6223 0.478423,4.68854 0.485781,4.75478 0.493143,4.82839 0.500502,4.89463 0.507864,4.96087 0.515223,5.02712 0.515223,5.07128 0.515223,5.086 0.522585,5.11544 0.537306,5.1228 0.713952,5.13016 0.787557,5.13016 1.2439,5.1228 1.2439,5.11544 1.20629,5.11541 1.21446,5.0492 1.22182,4.97559 1.22918,4.90935 1.23654,4.84311 1.2439,4.77686 1.25126,4.71062 1.25862,4.64438 1.26598,4.57813 1.27334,4.50453 1.2807,4.43829 1.28806,4.37204 1.29542,4.269 1.29542,4.26164 1.31008,4.11443 1.22182,4.11443 0.927403,4.11443 0.456343,4.11443 0.426902,4.11443 "/>
    <path id="_80259360" class="fil4" d="M4.42357 2.02409l-0.00736255 2.25962 -0.478423 0.500506 -2.25227 0 0 -1.3175 -0.264972 0.132488 0 0.691873 0 0.750753 0.00735834 0.0220834 0.00736255 0.0220792 0.00735834 0.00736255 0.00736255 0.00735834 0.00735834 0.0147209 -0.0220792 0 0 0.00736255 0.0956837 0.00735834 0.655073 0 0.323855 0 0.0368001 0 0.743394 0 0.0294418 0 0.0588835 0 0.103046 0 0.640348 0 0.0588835 0 0.515223 -0.00735834 0 -0.00736255 -0.0441627 -0.00735834 0.00736255 -0.00736255 0.00735834 -0.0147209 0.00736255 -0.00735834 0.00735834 -0.0147209 0.00736255 -0.0147209 0.00735834 -1.00101 0.00736255 -0.0809628 -0.0792042 -0.0827256c0.0318946,-0.0683833 0.0644833,-0.365822 0.0644833,-0.484022l0.00735834 -0.00735834 0 -0.250255 -0.00735834 -0.0662419 -0.250255 0 0.176651 -0.19873 0.0734151 -0.0372461 0.000189323 -0.0878794 0 -0.309134c0,-0.112895 -0.0129034,-0.175376 -0.0336532,-0.268123 -0.0149901,-0.0669908 -0.0496025,-0.178813 -0.0546722,-0.239741l-0.176646 0.0883253z"/>
    <polygon id="_80259792" class="fil5" points="5.99132,5.14488 5.99868,5.14488 5.99868,5.13016 6.11645,5.13016 6.11645,5.1228 5.95452,5.1228 5.95452,5.13016 5.99132,5.13016 "/>
   </g>
   <rect id="_117732816" class="fil13 str0" x="2.57094" y="1.9848" width="1.38325" height="0.0269427"/>
   <rect id="_117736176" class="fil13 str0" x="2.60926" y="2.15224" width="1.38325" height="0.0269427"/>
   <rect id="_116881408" class="fil13 str0" x="2.76254" y="2.47156" width="1.38325" height="0.0269427"/>
   <rect id="_116868160" class="fil13 str0" x="2.62842" y="2.67733" width="1.38325" height="0.0269427"/>
   <rect id="_118972000" class="fil13 str0" x="2.74338" y="3.01581" width="1.38325" height="0.0269427"/>
   <rect id="_116871832" class="fil13 str0" x="2.6859" y="3.14853" width="1.38325" height="0.0269427"/>
   <rect id="_118995040" class="fil13 str0" x="2.6859" y="3.51396" width="1.38325" height="0.0269427"/>
   <rect id="_117738240" class="fil13 str0" x="2.80086" y="3.68999" width="1.38325" height="0.0269427"/>
  </g>
 </g>
</svg>
