<?xml version="1.0" encoding="UTF-8"?>
<!DOCTYPE svg PUBLIC "-//W3C//DTD SVG 1.1//EN" "http://www.w3.org/Graphics/SVG/1.1/DTD/svg11.dtd">
<!-- Creator: CorelDRAW -->
<svg xmlns="http://www.w3.org/2000/svg" xml:space="preserve" width="6.02719in" height="5.64128in" style="shape-rendering:geometricPrecision; text-rendering:geometricPrecision; image-rendering:optimizeQuality; fill-rule:evenodd; clip-rule:evenodd"
viewBox="0 0 5.78214 5.41192"
 xmlns:xlink="http://www.w3.org/1999/xlink">
 <defs>
  <style type="text/css">
   <![CDATA[
    .str0 {stroke:#007CC3;stroke-width:0.00287803}
    .str1 {stroke:#1F1A17;stroke-width:0.00287803}
    .str3 {stroke:#DA251D;stroke-width:0.00287803}
    .str2 {stroke:#E77817;stroke-width:0.00287803}
    .str4 {stroke:white;stroke-width:0.00287803}
    .fil12 {fill:#007CC3}
    .fil13 {fill:#1F1A17}
    .fil15 {fill:#DA251D}
    .fil14 {fill:#E77817}
    .fil16 {fill:white}
    .fil10 {fill:#235C74}
    .fil1 {fill:#24809B}
    .fil9 {fill:#274F6A}
    .fil5 {fill:#28305D}
    .fil11 {fill:#778CC5}
    .fil6 {fill:#ABD4E6}
    .fil7 {fill:#D77766}
    .fil2 {fill:#DC8951}
    .fil3 {fill:#E6F3F6}
    .fil0 {fill:#FBC954}
    .fil4 {fill:#FBCAB5}
    .fil8 {fill:#FEEAAB}
   ]]>
  </style>
 </defs>
 <g id="Layer_x0020_1">
  <metadata id="CorelCorpID_0Corel-Layer"/>
  <g id="_118972000">
   <g>
    <path id="_120381576" class="fil0" d="M1.74393 0.421692l0 0.00714597c0,0.0361264 0.0257852,0.071471 0.0643251,0.071471l0.0214417 0c0.0353257,0 0.0643251,-0.0289956 0.0643251,-0.0643251l0 -0.0142919c0,-0.0368138 -0.0411498,-0.0714748 -0.071471,-0.0714748 -0.0374068,0 -0.0786208,0.031934 -0.0786208,0.0714748z"/>
    <path id="_116871664" class="fil1" d="M1.78682 0.957734l0 0.0214417c0,0.0333655 0.0166676,0.0500331 0.0500331,0.0500331 0.0345703,0 0.0571753,-0.022605 0.0571753,-0.0571791l0 -0.00714597c0,-0.0222575 -0.0226125,-0.0428834 -0.0500294,-0.0428834l-0.0214417 0c-0.0166676,0 -0.0357374,0.0190698 -0.0357374,0.0357336z"/>
    <polygon id="_116881360" class="fil2" points="5.41763,0.807642 5.41763,0.814792 5.49087,0.813028 5.7607,1.08639 5.7607,1.10783 5.76785,1.10783 5.775,1.09353 5.78214,1.07924 5.78214,0.800496 5.47481,0.800496 "/>
    <polygon id="_116877880" class="fil2" points="2.34431,1.09353 2.6159,0.814792 2.62305,0.800496 2.33001,0.800496 2.33001,1.09353 "/>
    <polygon id="_118984792" class="fil0" points="3.98818,0.636109 3.96674,0.643255 3.95244,0.650404 3.93815,0.65755 3.92385,0.664696 3.91671,0.671846 3.90956,0.678992 3.90241,0.686138 3.89526,0.693288 3.88811,0.700434 3.88097,0.70758 3.87382,0.714729 3.86667,0.729025 3.85953,0.736171 3.85238,0.750467 3.82379,0.757613 3.49501,0.764759 3.46643,0.764759 3.46643,0.814792 3.46643,1.05065 3.46643,1.15786 4.63858,1.15786 4.63858,1.05065 4.63858,0.814792 4.853,0.814792 4.853,0.807642 4.66717,0.800496 4.64573,0.800496 4.64573,0.764759 4.33839,0.757613 4.25263,0.750467 4.24548,0.736171 4.23833,0.729025 4.23119,0.721875 4.22404,0.714729 4.21689,0.700434 4.20974,0.693288 4.2026,0.686138 4.19545,0.678992 4.18116,0.671846 4.17401,0.664696 4.16686,0.65755 4.15256,0.650404 4.13827,0.643255 4.11683,0.636109 4.08824,0.628963 4.01677,0.628963 "/>
    <polygon id="_116879896" class="fil1" points="3.19483,1.48663 4.91732,1.48663 4.91732,1.36513 3.19483,1.36513 "/>
    <path id="_116883160" class="fil3" d="M1.78682 0.957734c0,-0.0166639 0.0190698,-0.0357336 0.0357374,-0.0357336l0.0214417 0c0.0274168,0 0.0500294,0.0206259 0.0500294,0.0428834l0 0.00714597c0,0.0345741 -0.022605,0.0571791 -0.0571753,0.0571791 -0.0333655,0 -0.0500331,-0.0166676 -0.0500331,-0.0500331l0 -0.0214417zm-0.0428834 -0.536042c0,-0.0395408 0.041214,-0.0714748 0.0786208,-0.0714748 0.0303213,0 0.071471,0.034661 0.071471,0.0714748l0 0.0142919c0,0.0353295 -0.0289994,0.0643251 -0.0643251,0.0643251l-0.0214417 0c-0.0385399,0 -0.0643251,-0.0353446 -0.0643251,-0.071471l0 -0.00714597zm0.0285877 -0.414542l-0.0428834 0.00714597 -0.0357336 0.00714597 -0.0285914 0.00714975 -0.0214417 0.00714597 -0.0285877 0.00714597 -0.0214417 0.00714975 -0.0142957 0.00714597 -0.0214417 0.00714597 -0.0142919 0.00714975 -0.0214417 0.00714597 -0.0142957 0.00714597 -0.0142957 0.00714975 -0.0142919 0.00714597 -0.00714975 0.00714597 -0.0142957 0.00714975 -0.0142919 0.00714597 -0.0142957 0.00714597 -0.00714597 0.00714975 -0.0142957 0.00714597 -0.00714597 0.00714597 -0.0142957 0.00714975 -0.00714597 0.00714597 -0.00714975 0.00714975 -0.0142919 0.00714597 -0.00714975 0.00714597 -0.00714597 0.00714975 -0.00714975 0.00714597 -0.0142919 0.00714597 -0.00714975 0.00714975 -0.00714597 0.00714597 -0.00714597 0.00714597 -0.00714975 0.00714975 -0.00714597 0.00714597 -0.00714597 0.00714597 -0.00714975 0.00714975 -0.00714597 0.0142919 -0.00714597 0.00714975 -0.00714975 0.00714597 -0.00714597 0.00714975 -0.00714597 0.00714597 -0.00714975 0.0142957 -0.00714597 0.00714597 -0.00714597 0.0142957 -0.00714975 0.00714597 -0.00714597 0.0142957 -0.00714597 0.00714597 -0.00714975 0.0142957 -0.00714597 0.0142919 -0.00714597 0.0142957 -0.00714975 0.0142957 -0.00714597 0.0142919 -0.00714597 0.0142957 -0.00714975 0.0214417 -0.00714597 0.0214417 -0.00714597 0.0214417 -0.00714975 0.0285877 -0.00714597 0.0357374 -0.00714597 0.0428834 -0.00714975 0.0643251 0 0.243008 0 0.407396 -0.00714597 0.0500294 -0.00714597 0.0357374 0 0.0643251 0.00714597 0.00714597 0.00714597 0.00714975 0.00714975 0.00714597 0.00714597 0.0142957 0.00714597 0.00714597 0.00714975 0.00714597 0.00714597 0.00714975 0.00714597 0.00714597 0.00714975 0.00714597 0.00714597 0.0142957 0.00714597 0.00714597 0.0428834 -0.0142919 0 -0.0285914c0,-0.0193039 0.00341435,-0.0197043 0.00714975,-0.0357336l0.00789758 -0.00409798 0.0278361 0.0612733c0.048292,-0.00401866 0.0592942,-0.0211962 0.143021,-0.0215172 0.0508716,-0.000192624 0.100013,0.0138576 0.157325,0.00860765l0.0856081 -0.00853211c0.0523257,0.0350387 0.071471,0.128858 0.071471,0.214421l0 0.00714597c0,0.0509245 -0.0231111,0.0695146 -0.0500294,0.0929127l-0.0571791 0.0214417c0.000577872,0.0259363 0.00313486,0.0428834 0.0285914,0.0428834l0.0214417 0c0.0193039,0 0.0197043,-0.00341058 0.0357336,-0.00714597 0.00638681,0.0767361 0.0571791,0.13827 0.0571791,0.26445l0 0.0285877c0,0.145884 -0.11199,0.180081 -0.228713,0.207271l0 0.0714748 0.107208 0.0142919 0.00714975 0c0.151127,0 0.337398,-0.105377 0.427652,-0.172716 0.13875,-0.103511 0.170842,-0.196911 0.251337,-0.349035l0.0285914 0 0 -0.0214417c-0.046022,-0.02208 -0.127181,-0.0267747 -0.128654,-0.0929127 0.012445,-0.00298001 0.0220875,-0.00824506 0.0287992,-0.0083697l0.0569714 0.0083697c-0.00509887,-0.061262 -0.0285914,-0.103537 -0.0285914,-0.171534 0,-0.0273299 -0.0021944,-0.00260231 0.00714975,-0.0214417l0.00642835 -0.00326328 0.0423131 0.0835799 0.0227296 -0.0803166 0 -0.571783 -0.0142957 0 0 -0.293038 0.293038 0 -0.00714597 0.0142957 0.850525 0 0 -0.0500331 0.0285877 0 0 -0.00714597 -0.0357336 0 -0.00714975 0.00714597 -0.00714597 -0.00714597 -0.0142957 -0.00714597 -0.00714597 -0.00714975 -0.0142957 -0.00714597 -0.00714597 -0.00714597 -0.00714597 -0.00714975 -0.0142957 -0.00714597 -0.00714597 -0.00714975 -0.0142957 -0.00714597 -0.00714597 -0.00714597 -0.0142957 -0.00714975 -0.00714597 -0.00714597 -0.0142957 -0.00714597 -0.00714597 -0.00714975 -0.0142957 -0.00714597 -0.00714597 -0.00714597 -0.00714975 -0.00714975 -0.0142919 -0.00714597 -0.00714975 -0.00714597 -0.0142957 -0.00714975 -0.00714597 -0.00714597 -0.0142957 -0.00714597 -0.00714597 -0.00714975 -0.0142957 -0.00714597 -0.00714597 -0.00714975 -0.0142957 -0.00714597 -0.00714597 -0.00714597 -0.0142957 -0.00714975 -0.00714597 -0.00714597 -0.0142957 -0.00714597 -0.00714597 -0.00714975 -0.0142957 -0.00714597 -0.00714597 -0.00714597 -0.0142957 -0.00714975 -0.00714597 -0.00714597 -0.0142957 -0.00714597 -0.00714597 -0.00714975 -0.00714975 -0.00714597 -0.0142919 -0.00714597 -0.00714975 -0.00714975 -0.0142919 -0.00714597 -0.00714975 -0.00714597 -0.0142919 -0.00714975 -0.00714975 -0.00714597 -0.0142919 -0.00714597 -0.00714975 -0.00714975 -0.0142919 -0.00714597 -0.00714975 -0.00714597 -0.0142919 -0.00714975 -0.00714975 -0.00714597 -0.0142919 -0.00714597 -0.00714975 -0.00714975 -0.0142919 -0.00714597 -0.00714975 -0.00714597 -0.0142919 -0.00714975 -0.00714975 -0.00714597 -0.00714597 -0.00714597 -0.0142957 -0.00714975 -0.00714597 -0.00714597 -0.0142957 -0.00714597 -0.00714597 -0.00714975 -0.0142957 -0.00714597 -0.00714597 -0.00714597 -0.0142957 0 0 -0.0142957 -0.0142957 -0.00714597 -0.0142919 -0.00714975 -0.0142957 -0.00714597 -0.00714597 -0.00714975 -0.0142957 -0.00714597 -0.0142957 -0.00714597 -0.00714597 -0.00714975 -0.0142957 -0.00714597 -0.0142957 -0.00714597 -0.00714597 -0.00714975 -0.0142957 -0.00714597 -0.0142919 -0.00714597 -0.0142957 -0.00714975 -0.0142957 -0.00714597 -0.00714597 -0.00714597 -0.0142957 -0.00714975 -0.0142919 -0.00714597 -0.0142957 -0.00714597 -0.0142957 -0.00714975 -0.0142919 -0.00714597 -0.0142957 -0.00714975 -0.0142957 -0.00714597 -0.0214417 -0.00714597 -0.0142919 -0.00714975 -0.0142957 -0.00714597 -0.0142957 -0.00714597 -0.0214417 -0.00714975 -0.0142919 -0.00714597 -0.0214417 -0.00714597 -0.0142957 -0.00714975 -0.0214417 -0.00714597 -0.0214417 -0.00714597 -0.0214417 -0.00714975 -0.0214417 -0.00714597 -0.0214417 -0.00714597 -0.0285914 -0.00714975 -0.0285877 -0.00714597 -0.0285914 -0.00714597 -0.0285877 -0.00714975 -0.0428834 -0.00714597 -0.0428834 -0.00714597 -0.0857668 -0.00714975 -0.121504 0 -0.0714748 0.00714975z"/>
    <path id="_118984624" class="fil4" d="M2.34431 1.66532l-0.0227296 0.0803166 -0.0423131 -0.0835799 -0.00642835 0.00326328c-0.00934415,0.0188394 -0.00714975,-0.00588825 -0.00714975,0.0214417 0,0.0679963 0.0234926,0.110272 0.0285914,0.171534l-0.0569714 -0.0083697c-0.00671162,0.000124639 -0.0163542,0.00538969 -0.0287992,0.0083697 0.00147301,0.066138 0.0826319,0.0708327 0.128654,0.0929127l0 0.0214417 0.121504 0.0428834c0.0125923,-0.0237985 0.0285877,-0.0500445 0.0285877,-0.0857668l0 -0.0357374c0,-0.0348083 -0.0214417,-0.0407759 -0.0214417,-0.0500294 0,-0.0208412 0.0428834,-0.0488547 0.0428834,-0.0786208 0,-0.0315903 -0.0625839,0.00341058 -0.0786208,0.00714975 0.00820352,-0.0155043 0.0214417,-0.0411875 0.0214417,-0.0643251 0,-0.011701 -0.00427927,-0.0214417 -0.0142919,-0.0214417 -0.0251771,0 -0.0306952,0.0287161 -0.0513702,0.0430609l-0.00667008 -0.0563217 -0.0209582 -0.0159387 -0.013918 0.00775784z"/>
    <path id="_116879176" class="fil5" d="M1.165 1.57955l-0.00714597 0.00714975 -0.00714597 0.0142919 -0.00714975 0.0142957 -0.00714597 0.0142957 -0.00714597 0.00714597 -0.0142957 0.00714975 -0.0214417 0.00714597 -0.0142957 0.00714597 -0.0142919 0.00714975 -0.0142957 0.00714597 -0.00714597 0.00714597 -0.0142957 0.00714975 -0.00714597 0.00714597 -0.00714975 0.00714597 -0.00714597 0.00714975 -0.00714975 0.00714597 -0.00714597 0.0142957 -0.00714597 0.00714597 -0.00714975 0.0142957 -0.00714597 0.0142919 -0.00714597 0.0142957 -0.00714975 0.0214417 0 0.0357374 0.00714975 0.078617 0.00714597 0.0571791 0.00714597 0.0357374 0.00714975 0.0285877c0.0121542,0.0174986 0.0371424,0.148215 0.0508678,0.184991 0.0279305,0.0748325 0.0470267,0.093755 0.149253,0.093755 -0.0278512,-0.0415954 -0.0643251,-0.0788021 -0.0643251,-0.150092 -0.0233188,-0.0156176 -0.0571753,-0.0559063 -0.0571753,-0.0929165l0 -0.0428834c0,-0.0385172 0.0384946,-0.0857668 0.078617,-0.0857668l0.0142957 0c0.0317187,0 0.0571791,0.0638379 0.0571791,0.100062l0 0.0428834c0.0441902,-0.000985782 0.0677621,-0.0231413 0.0857668,-0.0500331 0,-0.107329 -0.0211509,-0.186607 0.0545277,-0.224214 0.0406663,-0.0202104 0.0782507,-0.00949523 0.131581,-0.0113648 0.044821,-0.00157121 0.0790665,-0.0207127 0.112628,-0.0278474l0.0586257 0.0775972c0.0269183,-0.0233981 0.0500294,-0.0419882 0.0500294,-0.0929127l0 -0.00714597c0,-0.0855628 -0.0191453,-0.179382 -0.071471,-0.214421l-0.0856081 0.00853211c-0.0573113,0.00524995 -0.106453,-0.00880027 -0.157325,-0.00860765 -0.0837272,0.00032104 -0.0947294,0.0174986 -0.143021,0.0215172l-0.0278361 -0.0612733 -0.00789758 0.00409798c-0.00373539,0.0160293 -0.00714975,0.0164297 -0.00714975,0.0357336l0 0.0285914 -0.0428834 0.0142919z"/>
    <polygon id="_116878096" class="fil6" points="2.85176,1.99409 2.85176,2.2228 3.26631,2.2228 3.26631,1.89403 3.02162,2.16016 "/>
    <path id="_118984480" class="fil1" d="M2.85176 1.99409l0.169857 0.166068 0.244685 -0.266131c0.0217325,-0.0324553 0.100059,-0.0972222 0.100059,-0.135796l0 -0.00714597c0,-0.0185712 -0.0255132,-0.0357374 -0.0357336,-0.0357374 -0.0334108,0 -0.279902,0.280661 -0.307333,0.321625 -0.0337885,-0.0226239 -0.190177,-0.185829 -0.207271,-0.185829 -0.0182124,0 -0.0428834,0.0154552 -0.0428834,0.0357374l0 0.0142957c0,0.0253282 0.0636792,0.0706024 0.0786208,0.0929127z"/>
    <path id="_116881960" class="fil4" d="M1.18645 2.31572c0.0252677,0.0185108 0.0323155,0.123238 0.0353786,0.163315l-0.0139369 0.00821862c0.0298303,0.0120409 0.00601289,0.029192 0.0302911,0.0554795 0.00522351,0.00565408 0.0355712,0.0294337 0.0464413,0.0393255 0.00944991,0.00859632 0.0921649,0.0767285 0.094805,0.0767285 0.0214077,0 0.115646,-0.109233 0.127789,-0.128703l0.00800711 -0.0499765 0 -0.0714748c0.116723,-0.0271902 0.228713,-0.0613866 0.228713,-0.207271l0 -0.0285877c0,-0.12618 -0.0507923,-0.187714 -0.0571791,-0.26445 -0.0160293,0.00373539 -0.0164297,0.00714597 -0.0357336,0.00714597l-0.0214417 0c-0.0254566,0 -0.0280136,-0.0169471 -0.0285914,-0.0428834l0.0571791 -0.0214417 -0.0586257 -0.0775972c-0.0335619,0.00713464 -0.0678074,0.0262762 -0.112628,0.0278474 -0.0533304,0.00186959 -0.0909147,-0.00884559 -0.131581,0.0113648 -0.0756786,0.037607 -0.0545277,0.116885 -0.0545277,0.224214 -0.0180047,0.0268918 -0.0415766,0.0490474 -0.0857668,0.0500331l0 -0.0428834c0,-0.0362246 -0.0254604,-0.100062 -0.0571791,-0.100062l-0.0142957 0c-0.0401224,0 -0.078617,0.0472495 -0.078617,0.0857668l0 0.0428834c0,0.0370102 0.0338565,0.0772989 0.0571753,0.0929165 0,0.0712898 0.0364739,0.108496 0.0643251,0.150092z"/>
    <path id="_116883520" class="fil1" d="M2.85176 2.6302l0.167164 0.166903 0.247378 -0.266965c0.018405,-0.0347894 0.100059,-0.103756 0.100059,-0.12865l0 -0.0142957c0,-0.0166639 -0.0190698,-0.0357374 -0.0357336,-0.0357374l-0.00714975 0c-0.0342946,0 -0.251578,0.277148 -0.307333,0.314483 -0.047208,-0.031613 -0.154526,-0.178683 -0.207267,-0.178683 -0.0166676,0 -0.0357374,0.0190698 -0.0357374,0.0357374l0 0.0142957c0,0.0253282 0.0636792,0.0706024 0.0786208,0.0929127z"/>
    <polygon id="_118984528" class="fil6" points="2.85176,2.6302 2.85176,2.85176 3.26631,2.85176 3.26631,2.53013 3.01893,2.7971 "/>
    <path id="_116878360" class="fil3" d="M0.779054 2.04412l-0.00714975 0.00714597 -0.00714597 0.00714597 -0.00714597 0.00714975 -0.00714975 0.0142957 -0.00714597 0.00714597 -0.00714597 0.00714597 -0.00714975 0.0142957 -0.00714597 0.00714597 -0.00714597 0.0142957 -0.00714975 0.00714597 -0.00714597 0.00714975 -0.00714597 0.0142919 -0.00714975 0.00714975 -0.00714597 0.0142919 -0.00714597 0.00714975 -0.00714975 0.0142919 -0.00714597 0.00714975 -0.00714597 0.0142919 -0.00714975 0.00714975 -0.00714597 0.0142919 -0.00714597 0.00714975 -0.00714975 0.0142919 -0.00714597 0.00714975 -0.00714597 0.0142919 -0.00714975 0.0142957 -0.00714597 0.00714597 -0.00714597 0.0142957 -0.00714975 0.00714597 -0.00714597 0.0142957 -0.00714975 0.0142957 -0.00714597 0.00714597 -0.00714597 0.0142957 -0.00714975 0.0142919 -0.00714597 0.0142957 -0.00714597 0.00714975 -0.00714975 0.0142919 -0.00714597 0.0142957 -0.00714597 0.0142957 -0.00714975 0.0142919 -0.00714597 0.0142957 -0.00714597 0.0142957 -0.00714975 0.0142957 -0.00714597 0.0214417 -0.00714597 0.0142919 -0.00714975 0.0142957 -0.00714597 0.0214417 -0.00714975 0.0214417 -0.00714597 0.0142957 -0.00714597 0.0214417 -0.00714975 0.0285877 -0.00714597 0.0214417 -0.00714597 0.0285877 -0.00714975 0.0357374 -0.00714597 0.0428834 -0.00714597 0.0571791 0 0.1358 0.00714597 0.071471 0.00714597 0.0500294 0.00714975 0.0357374 0.00714597 0.0357374 0.00714597 0.0500294 0.1358 -0.0357374c-0.00628861,-0.0269938 -0.0142957,-0.0447076 -0.0142957,-0.078617 0,-0.1784 0.105101,-0.368278 0.207263,-0.443141 0.0662249,-0.0485224 0.118411,-0.0880783 0.201081,-0.120549 0.042026,-0.016509 0.210266,-0.0713917 0.256352,-0.0724191l0.0139369 -0.00821862c-0.0030631,-0.0400771 -0.0101109,-0.144804 -0.0353786,-0.163315 -0.102227,0 -0.121323,-0.0189225 -0.149253,-0.093755 -0.0137254,-0.0367761 -0.0387136,-0.167492 -0.0508678,-0.184991l-0.207271 0.00714975z"/>
    <path id="_116883616" class="fil7" d="M1.06495 3.31634c0.0298869,0 0.082885,0.00800711 0.0972827,0.0049138 0.0294639,-0.00632638 0.0482655,-0.0263555 0.0813968,-0.0263555 0.0116972,0 0.0214417,0.00427927 0.0214417,0.0142957 0,0.0219251 -0.0176308,0.0308992 -0.0357374,0.0357336 0.00357676,0.00636414 0.00465319,0.0142957 0.0142957,0.0142957 0.0286254,0 0.0651333,-0.014968 0.0929127,-0.0214417l0.335925 -0.0929165 0.0142919 0 0.0285914 -0.00714597 0.0285877 -0.00714597 0.0214417 -0.00714975 0.0285914 -0.00714597 0.0214417 -0.00714597 0.0285877 -0.00714975 0.0214417 -0.00714597 0.0285877 -0.00714597 0.0214455 -0.00714975 0.0285877 -0.00714597 0.0214417 -0.00714597 0.0285877 -0.00714975 0.0214417 -0.00714597 0.0214417 -0.00714597 0 -0.00714975 -0.0857668 -0.328775 -0.0428834 0 -0.0285877 0.00714975 -0.0285914 0.00714597 -0.0285877 0.00714597 -0.0214417 0.00714975 -0.0357374 0.00714597 -0.0214417 0.00714975 -0.0214417 0.00714597 -0.0285877 0.00714597 -0.0151946 0.00708176 0.00804488 -0.0428192 0 -0.00714597 0.00714975 -0.00714597 0 -0.00714975 -0.0285914 0 -0.000955566 0.0752593 -0.75932 0.217227 0.0312542 -0.163832c-0.0411007,0.0275226 -0.0929127,0.0817859 -0.0929127,0.150092 0,0.129915 0.158137,0.173581 0.221567,0.228713z"/>
    <polygon id="_118984216" class="fil8" points="2.03697,3.13765 2.05127,3.13765 2.05841,3.13051 2.06556,3.12336 2.07271,3.11621 2.07986,3.10906 2.08701,3.10192 2.09415,3.09477 2.1013,3.08762 2.10845,3.08048 2.11559,3.07333 2.12274,3.05903 2.12989,3.05189 2.13703,3.04474 2.14418,3.03759 2.15133,3.03044 2.15848,3.01615 2.16562,3.009 2.16562,2.98756 2.18706,2.98756 2.18706,2.97327 2.17992,2.95897 2.17277,2.93753 2.16562,2.91609 2.15848,2.88035 2.15133,2.85176 2.12989,2.84461 2.10845,2.83747 2.07271,2.83032 2.05127,2.82317 2.02268,2.81603 1.98694,2.80888 1.95121,2.80888 "/>
    <polygon id="_116880280" class="fil6" points="2.85176,3.25201 2.85176,3.48072 3.26631,3.48072 3.26631,3.1448 3.02276,3.40981 "/>
    <path id="_116878456" class="fil1" d="M2.85176 3.25201l0.171001 0.157801 0.243541 -0.265009c0.0142504,-0.0212831 0.100059,-0.105448 0.100059,-0.121504l0 -0.00714597c0,-0.0219478 -0.0066172,-0.0428834 -0.0285877,-0.0428834l-0.0214417 0c-0.0298001,0 -0.250294,0.281069 -0.300187,0.314476 -0.0359376,-0.0240629 -0.16526,-0.17868 -0.192975,-0.17868l-0.0214417 0c-0.0192926,0 -0.0285877,0.0190282 -0.0285877,0.0357374 0,0.04294 0.0548298,0.0716826 0.0786208,0.107208z"/>
    <path id="_118984096" class="fil7" d="M0.421688 3.23771l-0.0214417 0 -0.0214417 0.00714597 -0.0285877 0.00714975 -0.0214417 0.00714597 -0.0285877 0.00714597 -0.0214417 0.00714975 -0.0285914 0.00714597 -0.0214417 0.00714597 -0.0285877 0.00714975 -0.0214417 0.00714597 0 0.00714975 0.0929127 0.335921 0.0285914 0 0.0214417 -0.00714975 0.0285877 -0.00714597 0.0214417 -0.00714597 0.0285877 -0.00714975 0.0214417 -0.00714597 0.0285914 -0.00714597 0.0214417 -0.00714975 0.0285877 -0.00714597 0.0214417 -0.00714597 0.0214417 -0.00714975 0.0214417 -0.00714597 0.0357374 -0.00714597 0.0214417 -0.00714975 0.0285914 -0.00714597 0.0214417 -0.00714597 0.0285877 -0.00714975 0.00714597 -0.00714597 0.121504 -0.0357374 0.0714748 -0.0214417c-0.0140804,-0.0122373 -0.160841,-0.0561556 -0.210277,-0.0899063 -0.0600156,-0.0409723 -0.114438,-0.095753 -0.132793,-0.174544l-0.1358 0.0357374z"/>
    <path id="_116873968" class="fil4" d="M1.06495 3.31634l-0.0212793 0.13464 0.128488 0.0154515 0.0285877 0c0.0709574,0 0.130286,-0.0624102 0.135796,-0.12865 -0.0277794,0.00647368 -0.0642873,0.0214417 -0.0929127,0.0214417 -0.00964253,0 -0.010719,-0.00793158 -0.0142957,-0.0142957 0.0181067,-0.00483448 0.0357374,-0.0138085 0.0357374,-0.0357336 0,-0.0100164 -0.00974451,-0.0142957 -0.0214417,-0.0142957 -0.0331313,0 -0.0519329,0.0200291 -0.0813968,0.0263555 -0.0143977,0.00309331 -0.0673957,-0.0049138 -0.0972827,-0.0049138z"/>
    <polygon id="_116883640" class="fil9" points="0.128654,3.31634 0.107208,3.32348 0.0857668,3.33063 0.0643251,3.33778 0.0500331,3.34492 0.0428834,3.35207 0.0285914,3.35922 0.0214417,3.36636 0.0142957,3.38066 0.00714975,3.39496 0,3.4164 0,3.48787 0.00714975,3.51646 0.0142957,3.54505 0.0214417,3.56649 0.0285914,3.58793 0.0357374,3.60223 0.0428834,3.61652 0.0500331,3.63081 0.0571791,3.63796 0.0643251,3.64511 0.0714748,3.65226 0.0857668,3.6594 0.0929165,3.66655 0.114358,3.6737 0.192979,3.6737 0.221567,3.66655 0.250154,3.6594 0.271596,3.65226 0.271596,3.64511 0.178683,3.30919 0.150096,3.30919 "/>
    <polygon id="_118983952" class="fil6" points="2.85176,4.10968 3.26631,4.10968 3.26631,3.69514 2.85176,3.69514 "/>
    <polygon id="_116879200" class="fil6" points="2.85176,4.73864 3.26631,4.73864 3.26631,4.3241 2.85176,4.3241 "/>
    <path id="_116871304" class="fil3" d="M2.85176 4.3241l0.414542 0 0 0.414538 -0.414542 0 0 -0.414538zm0 -0.628963l0.414542 0 0 0.414542 -0.414542 0 0 -0.414542zm0.414542 -0.550338l0 0.335921 -0.414542 0 0 -0.228713c-0.0237909,-0.0355259 -0.0786208,-0.0642684 -0.0786208,-0.107208 0,-0.0167092 0.00929505,-0.0357374 0.0285877,-0.0357374l0.0214417 0c0.0277152,0 0.157038,0.154617 0.192975,0.17868 0.0498934,-0.033407 0.270387,-0.314476 0.300187,-0.314476l0.0214417 0c0.0219705,0 0.0285877,0.0209356 0.0285877,0.0428834l0 0.00714597c0,0.0160558 -0.0858083,0.100221 -0.100059,0.121504zm0 -0.614667l0 0.321629 -0.414542 0 0 -0.221567c-0.0149416,-0.0223104 -0.0786208,-0.0675846 -0.0786208,-0.0929127l0 -0.0142957c0,-0.0166676 0.0190698,-0.0357374 0.0357374,-0.0357374 0.0527412,0 0.160059,0.14707 0.207267,0.178683 0.0557552,-0.0373351 0.273039,-0.314483 0.307333,-0.314483l0.00714975 0c0.0166639,0 0.0357336,0.0190736 0.0357336,0.0357374l0 0.0142957c0,0.0248938 -0.0816537,0.0938608 -0.100059,0.12865zm0 -0.636109l0 0.328775 -0.414542 0 0 -0.228713c-0.0149416,-0.0223104 -0.0786208,-0.0675846 -0.0786208,-0.0929127l0 -0.0142957c0,-0.0202822 0.024671,-0.0357374 0.0428834,-0.0357374 0.0170944,0 0.173482,0.163205 0.207271,0.185829 0.0274319,-0.0409647 0.273923,-0.321625 0.307333,-0.321625 0.0102204,0 0.0357336,0.0171662 0.0357336,0.0357374l0 0.00714597c0,0.0385739 -0.0783262,0.103341 -0.100059,0.135796zm-0.0714748 -0.528896l1.72249 0 0 0.121504 -1.72249 0 0 -0.121504zm1.44375 -0.314479l0 0.107208 -1.17215 0 0 -0.107208 -0.914851 0 0 4.08824 3.00186 0 0 -4.08824 -0.914851 0z"/>
    <path id="_116873080" class="fil10" d="M2.34431 1.09353l0 0.571783 0.013918 -0.00775784 0.0209582 0.0159387 0.00667008 0.0563217c0.020675,-0.0143448 0.0261931,-0.0430609 0.0513702,-0.0430609 0.0100127,0 0.0142919,0.00974073 0.0142919,0.0214417 0,0.0231375 -0.0132382,0.0488207 -0.0214417,0.0643251 0.0160369,-0.00373917 0.0786208,-0.0387401 0.0786208,-0.00714975 0,0.0297661 -0.0428834,0.0577796 -0.0428834,0.0786208 0,0.0092535 0.0214417,0.0152211 0.0214417,0.0500294l0 0.0357374c0,0.0357223 -0.0159953,0.0619683 -0.0285877,0.0857668 0.00185825,0.0223595 0.00714597,0.0253924 0.00714597,0.0500331 0,0.081631 -0.121504,0.273379 -0.121504,0.30733l0 2.73741c0,0.0173777 0.229963,0.246143 0.2573,0.26445l2.00124 0 0.0142957 0 0.0357336 0 0.100062 0 0.121504 0 0.0285877 0.00714597 0.571783 0.00714975 0.0142919 0.00714597 0.00714975 0.00714597 0.0929127 0.00714975 0.0786208 0 0.114354 -0.00714975 0 -0.271596 -0.00714597 -0.0285877 -0.00714597 -3.01615 0 -0.0714748 0 -0.2573 0 -0.0142957 0 -0.371659 -0.00714975 -0.264446 0 -0.0214417 -0.269832 -0.27336 -0.0732349 0.00176383 -0.564634 0 -0.214417 0 0 0.235859 0.914851 0 0 4.08824 -3.00186 0 0 -4.08824 0.914851 0 0 -0.235859 -0.850525 0 -0.271596 0.278742z"/>
    <path id="_59578400" class="fil11" d="M0.70758 3.52361l0 0.0786208 0.00714975 0.0142919 0.00714597 0.00714975 0.00714597 0.00714597 0.00714975 0.00714597 0.00714597 0.00714975 0.00714597 0.00714597 0.00714975 0.00714597 0.00714597 0.00714975 0.00714597 0.00714597 0.00714975 0.0142957 0.00714597 0.00714597 0 0.0643251 -0.00714597 0.0500331 -0.00714975 0.0357336 -0.00714597 0.0428872 -0.00714597 0.0500294 -0.00714975 0.0428834 -0.00714597 0.0357374 -0.00714597 0.0428834 -0.00714975 0.0428834 -0.00714597 0.0428834 -0.00714597 0.0428834 -0.00714975 0.0428834 -0.00714597 0.0428834 -0.00714597 0.0428834 -0.00714975 0.0428834 -0.00714597 0.0428834 -0.00714597 0.0428834 -0.00714975 0.0428834 -0.00714597 0.0428834 -0.00714597 0.0428834 -0.00714975 0.0500331 -0.00714597 0.0428834 -0.00714597 0.0428834 -0.00714975 0.0428834 -0.00714597 0.0571791 -0.00714597 0.0357374 -0.00714975 0.0500294 -0.00714597 0.0428834 -0.00714597 0.0428834 -0.00714975 0.0500294 -0.00714597 0.0500331 -0.00714975 0.0571791 0 0.0571753 0 0.0571791 0 0.0428834 -0.0142919 0 -0.0285914 0.00714975 -0.0214417 0.00714597 -0.0214417 0.00714597 -0.0214417 0.00714975 -0.0214417 0.00714597 -0.0214417 0.00714597 -0.00714597 0.00714975 -0.00714975 0.00714597 0 0.0428834 0.0142957 0.00714597 0.307333 0 0.0142957 -0.00714597 0.00714597 -0.00714597 0.0142957 -0.00714975 0.00714597 -0.0428834 0.00714597 -0.0357336 0.00714975 -0.0357374 0.00714597 -0.0357374 0.00714597 -0.0214417 0.00714975 -0.0214417 0.00714597 -0.0214417 0.00714597 -0.0214417 0.00714975 -0.0214417 0.00714597 -0.0285877 0.00714597 -0.0285914 0.00714975 -0.0214417 0.00714597 -0.0214417 0.00714597 -0.0285877 0.00714975 -0.0214417 0.00714597 -0.0357374 0.00714597 -0.0214417 0.00714975 -0.0285877 0.00714597 -0.0214417 0.00714975 -0.0285914 0.00714597 -0.0214417 0.00714597 -0.0285877 0.00714975 -0.0214417 0.00714597 -0.0285914 0.00714597 -0.0214417 0.00714975 -0.0285877 0.00714597 -0.0285877 0.00714597 -0.0214417 0.00714975 -0.0285914 0.00714597 -0.0214417 0.00714597 -0.0285877 0.00714975 -0.0285914 0.00714597 -0.0214417 0.00714597 -0.0285877 0.00714975 -0.0214417 0.00714597 -0.0285877 0.00714975 -0.0285914 0.00714597 -0.0214417 0.00714597 -0.0285877 0.00714975 -0.0285877 0.00714597 -0.0214455 0.00714597 -0.0285877 0.00714975 -0.0214417 0.00714597 -0.0285877 0.00714597 -0.0214417 0.00714975 -0.0285914 0.00714597 -0.0285877 0.00714597 -0.0214417 0.00714975 -0.0285914 0.00714597 -0.0214417 0.00714597 -0.0285877 0.00714975 -0.0214417 0.00714597 -0.0285877 0.00714597 -0.0285914 0 -0.0214417 0.157242 0 0 0.150092 0.00714597 0.178683 0.00714597 0.207271 0.00714975 0.207271 0.00714597 0.178683 0.00714597 0.278742 0.00714975 0.0571791 0.00714597 0.0643251 0.00714975 0.12865 0.0500294 0.00714597 0.107208 0.00714975 0.100062 0 0.0857668 -0.00714975 0.0285877 -0.00714597 0.00714975 -0.00714597 0 -0.0142957 -0.00714975 -0.00714597 -0.00714597 -0.00714975 -0.0142957 0 0 -0.0142919 -0.0142919 -0.00714975 -0.0214417 -0.00714597 -0.0142957 -0.00714597 -0.0214417 -0.00714975 -0.0214417 -0.00714597 -0.0142957 -0.00714597 -0.0142919 -0.00714975 -0.0142957 -0.00714597 -0.00714597 -0.00714597 -0.00714975 -0.0357374 0.00714975 -0.0500331 0.00714597 -0.0285877 0.00714597 -0.0643251 0.00714975 -0.0857668 0.00714597 -0.114358 0.00714597 -0.100059 0.00714975 -0.107212 0.00714597 -0.107208 0.00714597 -0.107208 0.00714975 -0.114354 0.00714597 -0.121504 0.00714597 -0.121504 0.00714975 -0.1358 0.00714597 -0.142946 0 -0.135796 -0.221567 0.0285877 -0.164388 0c-0.152811,0 -0.375322,-0.109535 -0.435122,-0.200174l-0.00800711 -0.0499803 -0.121504 0.0357374z"/>
    <path id="_116873416" class="fil0" d="M1.51522 2.48011l-0.00800711 0.0499765c-0.0121429,0.0194701 -0.106381,0.128703 -0.127789,0.128703 -0.00264008,0 -0.0853551,-0.0681322 -0.094805,-0.0767285 -0.01087,-0.00989181 -0.0412178,-0.0336714 -0.0464413,-0.0393255 -0.0242782,-0.0262875 -0.000460787,-0.0434386 -0.0302911,-0.0554795 -0.0460862,0.00102733 -0.214326,0.0559101 -0.256352,0.0724191 -0.0826697,0.0324704 -0.134856,0.0720263 -0.201081,0.120549 -0.102162,0.0748627 -0.207263,0.264741 -0.207263,0.443141 0,0.0339094 0.00800711,0.0516232 0.0142957,0.078617 0.0183559,0.0787908 0.0727779,0.133572 0.132793,0.174544 0.0494364,0.0337507 0.196197,0.077669 0.210277,0.0899063l-0.0714748 0.0214417 0.00800711 0.0499803c0.0598003,0.090639 0.282311,0.200174 0.435122,0.200174l0.164388 0 0.221567 -0.0285877 0.00714597 -0.100062 0.00714975 -0.278742 0 -0.0857705 -0.335925 0.0929165c-0.00551056,0.06624 -0.0648387,0.12865 -0.135796,0.12865l-0.0285877 0 -0.128488 -0.0154515 0.0212793 -0.13464c-0.0634299,-0.055132 -0.221567,-0.0987972 -0.221567,-0.228713 0,-0.068306 0.0518121,-0.122569 0.0929127,-0.150092l-0.0312542 0.163832 0.75932 -0.217227 0.000955566 -0.0752593 0.0285914 0 0.0857668 0 0.0357374 -0.00714597 0.0285877 -0.00714597 0.0285877 -0.00714975 0.0285914 -0.00714597 0.0142957 -0.00714597 0.0142919 -0.00714975 0.0142957 -0.00714597 0.0214417 -0.00714597 0.0142957 -0.00714975 0.0142919 -0.00714597 0.00714975 -0.00714597 0.0142919 -0.00714975 0.0142957 -0.00714597 0.00714597 -0.00714597 0.0142957 -0.00714975 0.00714597 -0.00714597 0.0142957 -0.00714597 0.00714597 -0.00714975 0.00714975 -0.00714597 0.0142919 -0.00714597 0.00714975 -0.00714975 0.00714597 -0.00714597 0.00714597 -0.00714597 0.00714975 -0.00714975 0.0142919 -0.00714597 0.00714975 -0.00714597 0.00714597 -0.00714975 0.00714597 -0.00714597 0.00714975 -0.00714597 0.00714597 -0.00714975 0.00714597 -0.00714597 0.00714975 -0.00714597 0.00714597 -0.00714975 0.00714597 -0.0142919 0.00714975 -0.00714975 0.00714597 -0.00714597 0.00714597 -0.00714597 0.00714975 -0.00714975 0.00714597 -0.00714597 0.00714975 -0.0142957 0.00714597 -0.00714597 0.00714597 -0.00714975 0.00714975 -0.0142919 0.00714597 -0.00714975 0.00714597 -0.00714597 0.00714975 -0.0142957 0.00714597 -0.00714597 0.00714597 -0.0142957 0.00714975 -0.00714597 0.00714597 -0.0142957 0.00714597 -0.00714597 0.00718752 -0.0142957 -0.00718752 2.71596 -0.00714597 0.0285877 0 0.228713 0 0.0142957 0 0.0214417 0.00714597 0.00714597 0.293038 0 0 -0.00714597 0.0142957 -0.00714597 1.9655 -0.00714975 0 -0.00714597 -2.00124 0c-0.0273375,-0.0183068 -0.2573,-0.247072 -0.2573,-0.26445l0 -2.73741c0,-0.0339509 0.121504,-0.225699 0.121504,-0.30733 0,-0.0246408 -0.00528772,-0.0276736 -0.00714597,-0.0500331l-0.121504 -0.0428834 -0.0285914 0c-0.0804942,0.152124 -0.112587,0.245524 -0.251337,0.349035 -0.0902538,0.0673391 -0.276525,0.172716 -0.427652,0.172716l-0.00714975 0 -0.107208 -0.0142919z"/>
   </g>
   <rect id="_116871952" class="fil12 str0" x="3.52276" y="1.84403" width="1.82451" height="0.0323495"/>
   <rect id="_117736008" class="fil12 str0" x="3.55511" y="2.47161" width="1.82451" height="0.0323495"/>
   <rect id="_116870080" class="fil12 str0" x="3.56158" y="3.09272" width="1.82451" height="0.0323495"/>
   <rect id="_117747240" class="fil12 str0" x="3.56158" y="3.75265" width="1.82451" height="0.0323495"/>
   <rect id="_117748368" class="fil12 str0" x="3.54864" y="4.39964" width="1.82451" height="0.0323495"/>
   <rect id="_116867872" class="fil12 str0" x="3.67804" y="1.94108" width="1.66923" height="0.0323495"/>
   <rect id="_117743256" class="fil12 str0" x="3.71039" y="2.56866" width="1.66923" height="0.0323495"/>
   <rect id="_116872912" class="fil12 str0" x="3.71686" y="3.18977" width="1.66923" height="0.0323495"/>
   <rect id="_117741936" class="fil12 str0" x="3.71686" y="3.8497" width="1.66923" height="0.0323495"/>
   <rect id="_117740592" class="fil12 str0" x="3.70392" y="4.49669" width="1.66923" height="0.0323495"/>
   <rect id="_117738840" class="fil12 str0" x="3.52923" y="2.064" width="1.66923" height="0.0323495"/>
   <rect id="_116872048" class="fil12 str0" x="3.56158" y="2.69158" width="1.66923" height="0.0323495"/>
   <rect id="_80259024" class="fil12 str0" x="3.56805" y="3.31269" width="1.66923" height="0.0323495"/>
   <rect id="_117750240" class="fil12 str0" x="3.56805" y="3.97262" width="1.66923" height="0.0323495"/>
   <rect id="_117728328" class="fil12 str0" x="3.55511" y="4.61961" width="1.66923" height="0.0323495"/>
   <ellipse id="_8838664" class="fil13 str1" cx="1.4017" cy="2.00581" rx="0.0199422" ry="0.0211886"/>
   <ellipse id="_116868064" class="fil13 str1" cx="1.56871" cy="1.95097" rx="0.0199422" ry="0.0211886"/>
   <polygon id="_116873896" class="fil14 str2" points="1.53506,2.02824 1.6248,2.09804 1.55127,2.1292 "/>
   <path id="_118968328" class="fil15 str3" d="M1.64952 2.19421c0.00104621,0.0016543 0.00198667,0.00337658 0.00279116,0.0051593 0.012192,0.0270316 -0.00920063,0.058535 -0.0477707,0.0703493 -0.0385663,0.0118105 -0.079735,-0.000532549 -0.091927,-0.0275641 -0.000804488,-0.00178272 -0.0014579,-0.00359187 -0.00197156,-0.00540858l0.138878 -0.0425359z"/>
   <ellipse id="_118997080" class="fil16 str4" cx="4.05966" cy="0.724802" rx="0.06028" ry="0.031647"/>
   <polygon id="_116870752" class="fil13 str1" points="0.564634,5.29613 0.771905,5.30328 0.757613,5.37475 0.729025,5.39619 0.407392,5.39976 0.407396,5.34616 "/>
   <polygon id="_117740256" class="fil13 str1" points="1.34369,5.26104 1.55811,5.2461 1.56168,5.26478 1.60813,5.30961 1.74393,5.34324 1.75514,5.39979 1.72964,5.40302 1.52237,5.41049 1.35798,5.40302 "/>
   <rect id="_116870608" class="fil14 str2" x="3.46643" y="0.932723" width="1.17215" height="0.171534"/>
  </g>
 </g>
</svg>
