<?xml version="1.0" encoding="UTF-8"?>
<!DOCTYPE svg PUBLIC "-//W3C//DTD SVG 1.1//EN" "http://www.w3.org/Graphics/SVG/1.1/DTD/svg11.dtd">
<!-- Creator: CorelDRAW -->
<svg xmlns="http://www.w3.org/2000/svg" xml:space="preserve" width="5.79237in" height="5.99443in" style="shape-rendering:geometricPrecision; text-rendering:geometricPrecision; image-rendering:optimizeQuality; fill-rule:evenodd; clip-rule:evenodd"
viewBox="0 0 6.96639 7.20941"
 xmlns:xlink="http://www.w3.org/1999/xlink">
 <defs>
  <style type="text/css">
   <![CDATA[
    .fil7 {fill:#0C2A43}
    .fil20 {fill:#113E65}
    .fil1 {fill:#186299}
    .fil3 {fill:#1A6EB1}
    .fil18 {fill:#344653}
    .fil9 {fill:#48AE56}
    .fil16 {fill:#5698C9}
    .fil14 {fill:#84571B}
    .fil8 {fill:#8D8F90}
    .fil6 {fill:#8EC541}
    .fil21 {fill:#92C5EE}
    .fil19 {fill:#9A651D}
    .fil0 {fill:#BDBEC0}
    .fil12 {fill:#C67159}
    .fil2 {fill:#C9C9CA}
    .fil15 {fill:#CB8E4B}
    .fil17 {fill:#CE8873}
    .fil22 {fill:#CFB091}
    .fil4 {fill:#D8DADA}
    .fil10 {fill:#F08F73}
    .fil13 {fill:#F9B046}
    .fil11 {fill:#FAFCFC}
    .fil5 {fill:#FEEDDA}
   ]]>
  </style>
 </defs>
 <g id="Layer_x0020_1">
  <metadata id="CorelCorpID_0Corel-Layer"/>
  <g id="_116879176">
   <path id="_116869144" class="fil0" d="M2.33113 0.333021l0 0.0180024 -0.0180024 0 0 0.0179977 -0.0179977 0 -0.0090012 0.0180024 -0.0090012 0.0090012 -0.0090012 0.0090012 -0.0720048 0.0090012 -0.00899646 0 -0.0270036 -0.0090012 -0.0180024 -0.0090012 -0.0090012 -0.0090012 -0.0269989 -0.0090012 -0.0180024 -0.0090012 -0.0180024 -0.00899646 -0.0179977 -0.0090012 -0.0188263 -1.89399e-005 0.00982508 -0.116987 0.0090012 -0.0270036 0.00899646 -0.0090012 0.0090012 -0.0179977 0.0090012 -0.0180024 0 -0.0180024 0.0360048 0 0.0090012 -0.0090012 0.036 -0.0090012 0.0450012 0 0.0540024 0.0090012 0.0270036 0.0090012 0.0090012 0.0090012 0.0090012 0.0090012 0.00899646 0.0090012 0.0090012 0.0090012 0.0090012 0.00899646 0.0090012 0.0090012 0 0.126007 -0.0090012 0.0090012zm-0.306017 -0.324019l-0.0180024 0.0090012 -0.0269989 0.0090012 -0.0090012 0.0090012 -0.036 0.0090012 -0.0090012 0.00899646 -0.0180024 0.0090012 -0.0270036 0.0090012 -0.00899646 0.0090012 -0.0270036 0.0090012 -0.0180024 0.0090012 -0.0180024 0.0090012 -0.00899646 0.0179977 -0.0090012 0.0180024 -0.0090012 0.0090012 -0.0090012 0.0180024 -0.0090012 0.0179977 -0.0090012 0.0180024 -0.000241484 0.0192761 -0.0267574 -0.0102749 -0.0090012 0 0 0.0269989 0 0.0270036 0 0.081006 0.0090012 0.0450012 0.0090012 0.0090012 0.0090012 0.0180024 0.00899646 0.00899646 0.0180024 0.0090012 0.0090012 0.0090012 0.0090012 0.0090012 0.0090012 0.0090012 0.0179977 0.0090012 0.0090012 0.00899646 0.0090012 0.045006 -0.0090012 0.036 -0.0090012 0.0270036 -0.0090012 0.0090012 -0.00899646 0.0269989 -0.0090012 0.0180024 -0.0090012 0.0090012 -0.0090012 0.036 -0.0090012 0.0090012 -0.036 0.0090012 -0.0270036 0.0090012 -0.0540024 0.0090012 -0.0180024 0.00899646 -0.00899646 0 -0.0283531 -0.000445088 0.0103507 -0.0175526 0.0090012 -0.0090012 0.0090012 -0.0180024 0.0179977 -0.0090012 0.0090012 -0.0179977 0 -0.0090012 -0.0180024 0 -0.00899646 0.0090012 -0.0090012 0.0090012 -0.0090012 0.00899646 -0.0180024 0.0090012 0 0.0180024 -0.0180024 0 0 0.0180024 -0.0179977 0 -0.0180024 0.00899646 -0.0270036 0.0090012 0 0.0090012c0.0936437,0 0.147035,0.0237696 0.171013,0.0900072l0.0540024 0.234012c0.036573,-0.0147637 0.0090012,-0.0666448 0.00899646,-0.108422l1.49409 0.000416678c0.0335426,0.0633872 -0.00793582,0.0816784 0.0715124,0.081489 0.0511472,-0.000118374 0.102318,-0.000487703 0.153499,-0.000487703l0.477025 -0.0090012 0.189011 0 -0.00217336 0.0901114 0.0111746 0.278914 0.0144417 0.000303039 0.0485619 0.449719 -0.0630036 -0.774041 0 -0.0540024 -0.666036 0 -0.194598 -0.00100382 -0.0484152 -0.161008 -0.0090012 -0.036 0.924604 0.000227279 0.038448 0.34179 -0.0269989 -0.351018c-0.0201852,-0.00470183 -0.0206966,-0.0090012 -0.0450012,-0.0090012l-0.909054 0c-0.0269562,-0.100964 -0.151363,-0.0994677 -0.270268,-0.107749 -0.0504417,-0.00351335 -0.0828953,-0.0182675 -0.170758,-0.0182581 -0.0763326,9.46996e-006 -0.120979,-0.0090012 -0.189011,-0.0090012l-0.00808734 0.00602289 -0.0819151 -0.123029 0 -0.0630036 0.0090012 -0.0180024 0.00899646 -0.0450012 0.0090012 -0.0269989 0 -0.171013 -0.0090012 -0.0179977 -0.00899646 -0.0360048 -0.0090012 -0.00899646 -0.0090012 -0.0270036 -0.0090012 -0.0090012 -0.0090012 -0.0180024 -0.0179977 0 0 -0.0179977 -0.0090012 -0.0090012 -0.0090012 -0.0090012 -0.0090012 -0.0090012 -0.0090012 -0.0090012 -0.0090012 -0.0090012 -0.00899646 -0.0090012 -0.0090012 -0.00899646 -0.0180024 0 0 -0.0180024 -0.0180024 -0.0090012 -0.0269989 -0.0090012 -0.0540072 -0.0090012 -0.207009 0 -0.0180024 0.0090012z"/>
   <polygon id="_117745248" class="fil1" points="3.22218,0.87305 3.2706,1.03406 3.46519,1.03506 3.43864,0.856401 3.45619,0.846051 3.22218,0.846051 "/>
   <path id="_118993216" class="fil2" d="M1.7281 1.08006c-0.141008,0 -0.282015,0 -0.423023,0 -0.064462,0 -0.396024,-0.0215584 -0.396024,0.0270036l-0.00591872 0.180469 0.114402 1.48385 0.0175242 0.009773c0,-0.256517 -0.0526672,-0.571327 -0.0628805,-0.828172 -0.00491017,-0.123408 -0.0345796,-0.282299 -0.0364688,-0.413558 -0.00223491,-0.155397 -0.00865554,-0.284605 -0.00865554,-0.441366l0.810046 0c0,0.0590026 0.00913377,0.087242 0.0090012,0.153006 -8.52296e-005,0.0420419 -0.0169039,0.135008 0.0269989,0.135008l1.45808 0c0,-0.0706222 0.0269989,-0.059585 0.0269989,-0.108005l4.73498e-006 -0.215423 0.198007 -0.00959307c-0.0511804,0 -0.102351,0.000369328 -0.153499,0.000487703 -0.0794482,0.000189399 -0.0379698,-0.0181018 -0.0715124,-0.081489l-1.49409 -0.000416678c4.73498e-006,0.0417767 0.0275765,0.0936579 -0.00899646,0.108422z"/>
   <path id="_118995712" class="fil3" d="M3.22218 0.87305l0 -0.0269989 0.234012 0 -0.0175526 0.0103507 0.0265538 0.17866 0.666036 0 0 0.0540024 0.0630036 0.774041 0.0990084 1.06206 0 0.0630036c0,0.0517012 -0.0424633,0.250324 -0.0720048,0.261016l0 0.036c0,0.0201805 -0.00712614,0.0197591 -0.0177136,0.0360332l-0.0182912 0.224983 -0.0269989 0.225016 0.000156254 0.124729 0.0988474 0.0102749 0.0360048 0c0.0201757,0 0.0197543,-0.00712141 0.036,-0.0179977l0.108005 -0.216014 0.0363883 -0.0844673 0.00861766 0.00346127 0 -0.0540024c0,-0.0124861 0.0588132,-0.13543 0.073913,-0.2051 0.0115107,-0.0531123 0.0592441,-0.134985 0.0610907,-0.217923 0,-0.102328 0.0133148,-0.0725067 0.0279411,-0.143067 0.011828,-0.0570612 0.000961201,-0.111035 0.0098819,-0.170133 0.0157059,-0.104117 0.0251806,-0.207932 0.0251806,-0.334834l0 -0.0360048c0,-0.00683257 -0.0442673,-0.0716118 -0.0541587,-0.0912809l-0.0988474 0.0102796 -0.0630036 0c-0.00234381,-0.0281542 -0.0090012,-0.0319753 -0.0090012,-0.0630036l0 -0.0630084 0.00904854 0.00567724 0.0657404 -0.107948 0.0422171 -0.0327329c-0.0248776,-0.0470183 -0.0942924,-0.128498 -0.142646,-0.154375 -0.0239685,-0.0128271 -0.146443,-0.120742 -0.15437,-0.142646l-0.0517912 0.000549258 -0.0472172 -0.612583 -0.038448 -0.34179 -0.924604 -0.000227279 0.0090012 0.036z"/>
   <path id="_117729864" class="fil4" d="M3.30319 1.98011l0 -0.0179977c0.0963,0.00214495 0.0784681,0.0552998 0.171009,0.0630036 0.00525109,0.0480032 0.0300056,0.0338977 0.0659393,0.051062 0.035555,0.0169844 0.0370323,0.0659441 0.0600679,0.0659441 0.0285898,0 0.0872041,-0.0923605 0.0900025,-0.126007l0.0270036 0 -0.00656268 -0.00641116 0.141571 -0.137598 0 -0.0269989 -0.324019 0.0179977 -0.234012 0 0 0.0360048c0,0.0243094 0.00429463,0.024816 0.0090012,0.0450012l-0.0360048 0 0.000350388 0.0259003 0.0356544 0.0100997z"/>
   <path id="_122863032" class="fil5" d="M3.4742 0.315018l-0.0180024 0 -0.0270036 0 -0.0720001 0.0090012 -0.10801 0.0090012 -0.036 0.0090012 -0.081006 0.0090012 -0.0450012 0.0090012 -0.0540024 0.00899646 -0.0270036 0.0090012 -0.0630036 0.0090012 -0.0269989 0.0090012 -0.0270036 0.0090012 -0.036 0.0090012 -0.0270036 0.0090012 -0.0450012 0.00899646 -0.0180024 0.0090012 -0.036 0.0090012 -0.0180024 0.0090012 -0.0450012 0.0090012 -0.0180024 0.0090012 -0.0180024 0.00899646 -0.036 0.0090012 -0.0180024 0.0090012 -0.0269989 0.0090012 -0.0090012 0.0090012 -0.0270036 0.0090012 -0.0090012 0.00899646 -0.0179977 0.0090012 -0.0090012 0.0090012 0 0.0090012 0.0819151 0.123029 0.00808734 -0.00602289c0.0680322,0 0.112678,0.00901067 0.189011,0.0090012 0.0878623,-9.46996e-006 0.120316,0.0147447 0.170758,0.0182581 0.118905,0.00828148 0.243312,0.00678522 0.270268,0.107749l0.909054 0c0.0243046,0 0.024816,0.00429936 0.0450012,0.0090012l0.0269989 0.351018 0.0472172 0.612583 0.0517912 -0.000549258c0.00792635,0.021904 0.130401,0.129819 0.15437,0.142646 0.0483536,0.0258767 0.117768,0.107356 0.142646,0.154375l0.0270036 0 0 -0.0720048c0,-0.0510904 0.05494,-0.142916 0.0810013,-0.162007 0.0356212,-0.0409812 0.0750447,-0.10801 0.153011,-0.10801l0.0269989 0c-0.00367908,-0.04422 -0.0179977,-0.0329744 -0.0179977,-0.0720048l0 -0.036 0.036 0c0.0243094,0 0.024816,0.00429936 0.0389405,0.0128981l0.0420656 0.0681079c0.04422,-0.00368381 0.0329744,-0.0180024 0.0720048,-0.0180024l0.0528992 0.000350388 0.00879759 0.0331733 -0.0616968 0.0384812c0.0328844,0.0448829 0.155961,0.0464596 0.170866,0.180152 0.00157675,0.0141765 0.0237412,0.13534 0.0269752,0.144033 0.0264733,0.0711762 0.0509815,0.0576342 0.0811717,0.098838 -0.0191625,0.026156 -0.0530554,0.0450012 -0.0990037,0.0450012l-0.0270036 0c-0.0243094,0 -0.024816,-0.00429463 -0.0450012,-0.0090012 -0.0241342,-0.00577667 -0.0169654,-0.0090012 -0.0360048,-0.0090012 -0.0392909,0 -0.187638,0.207013 -0.351018,0.207013l-0.036 0 0 -0.0180024 -0.0180024 0 0 0.234017 0.0089207 0.00149152 -0.0899267 0.466533c-0.00184664,0.0829379 -0.04958,0.16481 -0.0610907,0.217923 -0.0150998,0.0696705 -0.073913,0.192614 -0.073913,0.2051l0 0.0540024 -0.00861766 -0.00346127 -0.0363883 0.0844673c-0.0348447,0.149559 -0.00559201,0.237904 -0.0180024,0.387023l0.0180024 -0.0090012c0.00145837,-0.0653711 0.0478564,-0.0652859 0.0747227,-0.132291 0.0219372,-0.0547032 0.0482116,-0.0857599 0.0872893,-0.119724l0 -0.0269989c0.0692443,-0.0463744 0.115467,-0.105164 0.174512,-0.149507 0.0788043,-0.059173 0.111158,-0.0754235 0.167505,-0.15651l0 -0.0360048c0.0361752,-0.00965936 0.0360048,-0.0263738 0.0360048,-0.0720048 0.0184238,-0.00743392 0.168949,-0.271134 0.270012,-0.207013l0.0270036 0c0.0524541,-0.0351241 0.0671231,-0.00762805 0.123839,-0.0651675 0.026942,-0.0273303 0.0710057,-0.0683778 0.110173,-0.0788374l0 -0.0270036 -0.0169228 -0.00916218 -0.0100808 -0.0808403 0 -0.0630036c0,-0.0675824 0.0572175,-0.0851586 0.0720048,-0.126007l0.0720048 0c0.0258577,0 0.0630036,0.0692775 0.0630036,0.081006l0 0.036 0.00753809 0.00870763 0.0914656 -0.0807125c0.0330217,-0.0688182 0.0397549,-0.033178 0.0810818,-0.0899267 0.00668106,-0.00917165 0.0815127,-0.0636476 0.0971097,-0.0739036 0.0102654,-0.00674261 0.100921,-0.0673693 0.102228,-0.0687803 0.0247639,-0.0266816 0.0431167,-0.0778715 0.0976021,-0.0824076 0.00505222,-0.0607119 0.0561095,-0.0506264 0.0720048,-0.0900025 0.0638654,0.00142049 0.0777152,0.045631 0.0990084,0.0900025l0.0990037 0.0900072c0.0346553,0.00925215 0.126007,0.102299 0.126007,0.153006l0 0.0090012c0,0.0225054 -0.152608,0.129165 -0.183746,0.158271 -0.0372501,0.0348258 -0.0554466,0.0394755 -0.0878244,0.0831888 -0.0250291,0.0337841 -0.0564315,0.0677102 -0.0974506,0.0825591l0 0.0270036c0.0151709,0.0105401 0.0180024,0.00128791 0.0180024,0.0269989l0 0.117006c0,0.0401005 -0.0679896,0.111798 -0.0900072,0.135008l-0.115926 0.108166 -0.0100808 0.080845 0 0.0450012c0,0.0143754 0.0908595,0.0707879 0.108005,0.135008 0.0258861,0.0372501 0.045006,0.0921569 0.045006,0.153006l0 0.0990084c0,0.0720238 -0.0230688,0.143195 -0.0343333,0.199679 -0.0135373,0.067857 0.0118185,0.0311088 -0.0252043,0.0918065 -0.0189068,0.0309999 -0.0214684,0.0572317 -0.0201615,0.105618l-0.0193092 0.0259193c0,0.0814085 -0.0602289,0.36073 -0.107304,0.378031l-0.00970197 0.153001 -0.0090012 0.135004c-0.0406261,0.0147068 -0.103729,0.301154 -0.108052,0.368978 -0.008826,0.13855 -0.0269562,0.295955 -0.0230593,0.44854l0.131112 0.325549 0 -0.036 -0.0090012 -0.0180024 -0.00899646 -0.0360048 -0.0090012 -0.0179977 -0.0090012 -0.0270036 -0.0090012 -0.0180024 -0.0090012 -0.036 -0.0090012 -0.0090012 -0.0090012 -0.0269989 -0.0090012 -0.0270036 -0.00899646 -0.0090012 -0.0090012 -0.036 -0.0090012 -0.0180024 0 -0.162007 0 -0.0360048 0.0269989 -0.0090012 0.0900072 -0.00899646 0.14401 -0.0090012 0.0179977 -0.0090012 0.0360048 -0.0090012 0.0090012 -0.0090012 0.0180024 -0.0090012 0.0179977 -0.0090012 0.0090012 -0.00899646 0.0270036 -0.0090012 0.0090012 -0.0090012 0.0179977 -0.0090012 0.0090012 -0.0180024 0.0090012 -0.036 0.0090012 -0.0180024 0.0090012 -0.0180024 0.00899646 -0.0179977 0.0090012 -0.0090012 0.0090012 -0.0180024 0.0090012 -0.0090012 0.0090012 -0.0179977 0.0090012 -0.0180024 0.0090012 -0.0090012 0.00899646 -0.0090012 0.0090012 -0.0269989 0.0090012 -0.0090012 0.0090012 -0.0090012 0 -0.0180024 0.0180024 0 0.0090012 -0.0180024 0.0090012 -0.0179977 0.00899646 -0.0090012 0.0090012 -0.0180024 0.0090012 -0.0179977 0.0090012 -0.0090012 0.0090012 -0.0090012 0.0090012 -0.0270036 0.00899646 -0.0090012 0.0090012 -0.0179977 0.0090012 -0.0090012 0.0090012 -0.0180024 0.0090012 -0.0180024 0.0090012 -0.0179977 0.00899646 -0.0180024 0.0090012 -0.0180024 0.0090012 -0.0090012 0.0090012 -0.0179977 0.0090012 -0.0270036 0.0090012 -0.0090012 0.0090012 -0.0269989 0.00899646 -0.0090012 0.0090012 -0.0270036 0.0090012 -0.0179977 0.0090012 -0.0180024 0.0090012 -0.0270036 0.0090012 -0.0090012 0.0090012 -0.036 0.0090012 -0.0090012 0.0090012 -0.0269989 0.00899646 -0.0180024 0.0090012 -0.0270036 0.0090012 -0.0179977 0.0090012 -0.0360048 0.0090012 -0.0179977 0.0090012 -0.0180024 0.00899646 -0.0270036 0.0090012 -0.0269989 0.0090012 -0.0360048 0.0090012 -0.0180024 0.0090012 -0.036 0.0090012 -0.0269989 0.00899646 -0.0360048 0.0090012 -0.0269989 0.0090012 -0.0180024 0.0090012 -0.045006 0.0090012 -0.0269989 0.0090012 -0.0450012 0.0090012 -0.0360048 0.00899646 -0.0540024 0.0090012 -0.036 0.0090012 -0.0720048 0.0090012 -0.0270036 0.0090012 -0.036 0.0090012 -0.126007 0.0090012 -0.0450012 0 -0.612034 -0.0090012 -0.045006 -0.0090012 -0.0990037 -0.0090012 -0.0450012 -0.0090012 -0.0360048 -0.0090012 -0.0720048 -0.0090012 -0.036 -0.00899646 -0.0540024 -0.0090012 -0.0360048 -0.0090012 -0.0450012 -0.0090012 -0.0270036 -0.0090012 -0.0450012 -0.0090012 -0.0180024 -0.0090012 -0.0269989 -0.00899646 -0.036 -0.0090012 -0.0180024 -0.0090012 -0.036 -0.0370181 0.000828621 -0.151993 -0.18984 -0.0090012 0 0 0.036 -0.00818204 -0.00879286 -0.108824 0.107797c-0.0373306,-0.00996713 -0.160999,-0.152552 -0.158906,-0.193736l0.104903 -0.085277 0.036 0 0 0.0179977 0.0180024 0c-0.00577667,-0.0241342 -0.0090012,-0.0169654 -0.0090012,-0.036 0,-0.0102607 0.123749,-0.122754 0.14401,-0.153006l0 -0.0090012 -0.0180024 -0.0090012 -0.0090012 -0.0090012 -0.0090012 -0.0090012 -0.0090012 -0.0180024 -0.0179977 0 0 -0.0179977 -0.0090012 -0.0090012 -0.0090012 -0.0180024 -0.0090012 -0.0090012 -0.0090012 -0.0269989 -0.00899646 -0.0090012 -0.0090012 -0.0180024 -0.0090012 -0.0090012 -0.0090012 -0.0179977 -0.0090012 -0.0180024 -0.0090012 -0.0090012 -0.00899646 -0.0180024 -0.0090012 -0.0090012 -0.0090012 -0.0179977 -0.0090012 -0.0090012 -0.0090012 -0.0180024 -0.0090012 -0.0090012 -0.0090012 -0.0179977 -0.0090012 -0.0180024 -0.0179977 0 0 -0.0180024 -0.0090012 -0.0090012 -0.0090012 -0.0179977 -0.0090012 -0.0180024 -0.0180024 0 0 -0.0180024 -0.00899646 -0.0090012 -0.0090012 -0.0179977 -0.0090012 -0.0090012 -0.0090012 -0.0090012 -0.0090012 -0.0180024 -0.0090012 -0.0090012 -0.00899646 -0.00899646 -0.0090012 -0.0090012 -0.0090012 -0.0090012 -0.0090012 -0.0180024 -0.0090012 -0.0090012 -0.0090012 -0.0090012 -0.0090012 -0.0090012 -0.00899646 -0.0179977 -0.0090012 -0.0090012 -0.0090012 -0.0090012 -0.0090012 -0.0090012 -0.0090012 -0.0090012 -0.0090012 -0.0179977 -0.0090012 -0.0090012 -0.0090012 -0.0090012 -0.00899646 -0.0090012 -0.0090012 -0.0090012 -0.0090012 -0.00899646 -0.0090012 -0.0090012 -0.0090012 -0.0090012 -0.0090012 -0.0090012 -0.0090012 -0.0180024 -0.0179977 0 0 -0.0180024 -0.0180024 0 0 -0.0179977 -0.0180024 0 0 -0.0180024 -0.00899646 -0.0090012 -0.0090012 -0.0090012 -0.0090012 -0.0090012 -0.0090012 -0.00899646 -0.0090012 -0.0090012 -0.0090012 -0.0090012 -0.0090012 -0.0090012 -0.0179977 -0.0090012 -0.0090012 -0.0090012 -0.0090012 -0.00899646 -0.0090012 -0.0180024 -0.0180024 -0.0090012 -0.0090012 -0.0090012 -0.00899646 -0.0090012 -0.0090012 -0.0090012 -0.0180024 0 0 -0.0179977 -0.0180024 -0.0090012 -0.00899646 -0.0090012 -0.0090012 -0.0090012 -0.0090012 -0.0090012 -0.0090012 -0.0090012 -0.0090012 -0.0090012 -0.0090012 -0.00899646 -0.0179977 -0.0090012 -0.0090012 -0.0090012 -0.0090012 -0.0090012 -0.0180024 -0.0090012 -0.0090012 -0.0090012 -0.0090012 -0.0090012 -0.00899646 -0.00899646 -0.0180024 -0.0090012 -0.0090012 -0.0090012 -0.0090012 -0.0090012 -0.0090012 -0.0090012 -0.0179977 -0.0090012 -0.0090012 -0.00899646 -0.0180024 -0.0090012 -0.0090012 -0.0090012 -0.0090012 -0.0090012 -0.0179977 -0.0090012 -0.0090012 -0.0090012 -0.0180024 -0.0090012 -0.0090012 -0.00899646 -0.0179977 -0.0090012 -0.0090012 -0.0090012 -0.0180024 -0.0090012 -0.0090012 -0.0090012 -0.0090012 -0.0090012 -0.0179977 -0.0090012 -0.0090012 -0.0090012 -0.0270036 -0.00899646 -0.0090012 -0.0090012 -0.0180024 -0.0090012 -0.00899646 -0.0090012 -0.0180024 -0.0090012 -0.0090012 -0.0090012 -0.0090012 -0.00899646 -0.0269989 -0.0090012 -0.0090012 -0.0090012 -0.0270036 -0.0090012 -0.00899646 -0.0090012 -0.0270036 -0.0090012 -0.0090012 -0.00899646 -0.0180024 -0.0090012 -0.0179977 -0.0090012 -0.0090012 -0.0090012 -0.0270036 -0.0090012 -0.0090012 -0.0090012 -0.0269989 -0.0090012 -0.0180024 -0.00899646 -0.0269989 -0.0090012 -0.0090012 -0.0090012 -0.0270036 -0.0090012 -0.0180024 -0.0090012 -0.0269989 -0.0090012 -0.0180024 -0.0090012 -0.0090012 -0.0090012 -0.036 -0.0090012 -0.0090012 -0.00899646 -0.0360048 -0.0090012 -0.0179977 -0.0090012 -0.0270036 -0.0090012 -0.0179977 -0.0090012 -0.0360048 -0.0090012 -0.0180024 -0.00899646 -0.0179977 -0.0090012 -0.045006 -0.0090012 -0.0179977 -0.0090012 -0.0360048 -0.0090012 -0.0179977 -0.0090012 -0.045006 -0.00899646 -0.0179977 -0.0090012 -0.045006 -0.0090012 -0.0269989 -0.0090012 -0.0180024 -0.0090012 -0.0630036 -0.0090012 -0.036 -0.0090012 -0.0630036 -0.00899646 -0.045006 -0.0090012 -0.0630036 -0.0090012 -0.0269989 -0.0090012 -0.108005 -0.0090012 -0.0990084 -0.0090012 -0.0540024 -0.0090012 -0.297016 0 -0.117006 0.0090012z"/>
   <path id="_118992232" class="fil6" d="M1.18807 2.00711c-0.00578141,0.0241342 -0.0090012,0.0169654 -0.0090012,0.036 0,0.0206161 0.00304933,0.0104643 0.0090012,0.0360048l0.198017 0.000165724 0.774036 -0.0271693c0.0108762,-0.016241 0.0180024,-0.0158196 0.0180024,-0.036 0,-0.0696847 -0.398733,-0.0268473 -0.47703,-0.0270036 -0.0885867,-0.000175194 -0.447493,0.00273682 -0.513026,0.0180024z"/>
   <path id="_117745320" class="fil7" d="M4.68026 1.85411l-0.00862713 0.0427048 0.0626296 0.0112977 0 0.0629989 0.045006 0c0.0591304,0 0.0465922,-0.0396933 0.106045,-0.0533301l0.0199627 0.0713325c0.0410617,0.0044935 0.034821,0.0291154 0.0540451,0.062961 0.0220034,0.0387463 0.032695,0.0322499 0.0557591,0.061247 0.0225101,0.0282915 0.119601,0.107399 0.124208,0.118805 0.0201852,0.00470657 0.0206919,0.0090012 0.0450012,0.0090012l0.0270036 0c0.0459482,0 0.0798412,-0.0188452 0.0990037,-0.0450012 -0.0301902,-0.0412038 -0.0546985,-0.0276617 -0.0811717,-0.098838 -0.00323399,-0.00869342 -0.0253984,-0.129857 -0.0269752,-0.144033 -0.0149057,-0.133692 -0.137982,-0.135269 -0.170866,-0.180152l0.0616968 -0.0384812 -0.00879759 -0.0331733 -0.0528992 -0.000350388c-0.0390304,0 -0.0277849,0.0143186 -0.0720048,0.0180024l-0.0420656 -0.0681079c-0.0141244,-0.00859872 -0.0146311,-0.0128981 -0.0389405,-0.0128981l-0.036 0 0 0.036c0,0.0390304 0.0143186,0.0277849 0.0179977,0.0720048l-0.0269989 0c-0.0779662,0 -0.11739,0.0670284 -0.153011,0.10801z"/>
   <path id="_116871496" class="fil8" d="M1.23305 2.17766c-0.00934211,0.0181492 -0.0179882,0.0270083 -0.0179882,0.0544665l0 0.0270036c0.108497,0.0252753 0.828688,-0.0105211 0.963691,-0.0263644 0.130008,-0.0152561 0.953416,0.0273634 0.953416,-0.0546417l0 -0.0090012c0,-0.0243094 -0.00429463,-0.024816 -0.00905328,-0.0468384l-1.89007 0.0553756z"/>
   <path id="_122853336" class="fil9" d="M3.85222 1.84511l0 0.0269989 -0.141571 0.137598 0.00656268 0.00641116 -0.0270036 0c-0.00279837,0.0336468 -0.0614127,0.126007 -0.0900025,0.126007 -0.0230357,0 -0.024513,-0.0489597 -0.0600679,-0.0659441 -0.0359338,-0.0171643 -0.0606882,-0.0030588 -0.0659393,-0.051062 -0.0925404,-0.00770381 -0.0747085,-0.0608587 -0.171009,-0.0630036l0 0.0179977 0 0.0090012c0.0626201,0.0331354 0.0411044,0.0344422 0.0815505,0.0714556 0.0328418,0.0300529 0.0551152,0.0212743 0.089458,0.0725541l0.036 0.0720048c0.0455316,0.0106064 0.104444,0.110183 0.108005,0.153006l0.0270036 0c0.00126424,-0.0568671 0.0242715,-0.10551 0.0591304,-0.127035l0.0308721 -0.088975 0.13954 -0.248496 0.0494711 -0.0575205c0.0277754,-0.0379082 0.0664176,-0.0408581 0.0720048,-0.10801 -0.0505317,0.0267384 -0.1282,0.112787 -0.144005,0.117011z"/>
   <path id="_118975696" class="fil10" d="M6.66038 1.98911l-0.0270036 0.0090012 -0.0180024 0.0090012 -0.0180024 0.0090012 -0.0179977 0.0090012 -0.0090012 0.0090012c-0.020261,0.0302518 -0.14401,0.142745 -0.14401,0.153006 0,0.0190346 0.00322452,0.0118659 0.0090012,0.036l0.117006 0.126012 0.0090012 0 0.324019 -0.270017 0 -0.0270036 0 -0.0090012 -0.0090012 -0.00899646 -0.0090012 -0.0090012 -0.0090012 -0.0090012 -0.0090012 -0.0090012 -0.0179977 -0.0090012 -0.0090012 -0.0090012 -0.0090012 -0.0090012 -0.126007 0 -0.0269989 0.0090012z"/>
   <path id="_117751488" class="fil11" d="M6.55237 2.34914l-0.117006 -0.126012 -0.0180024 0 0 -0.0179977 -0.036 0 -0.104903 0.085277c-0.00209286,0.0411848 0.121575,0.183769 0.158906,0.193736l0.108824 -0.107797 0.00818204 0.00879286 0 -0.036z"/>
   <path id="_122853552" class="fil11" d="M3.73521 2.14212l-0.0308721 0.088975c-0.0348589,0.0215252 -0.0578662,0.0701677 -0.0591304,0.127035l-0.0270036 0c-0.0035607,-0.0428232 -0.0624733,-0.1424 -0.108005,-0.153006l-0.036 -0.0720048 -0.0650776 -0.0357822 0.0110751 0.116788 0.0158574 0.000146784 0.0156112 0.187505 0.022619 0.0932744 0.296931 -0.0109141 0.12561 6.15547e-005 -0.0626059 -0.477087c-0.0708306,0.0474303 -0.0535668,0.118559 -0.0990084,0.135008z"/>
   <path id="_118976128" class="fil8" d="M1.28718 2.37018c-0.0191956,0.00973985 -0.0451054,0.0164919 -0.0451054,0.0419566l0 0.0090012c0,0.0210707 0.0149341,0.0360048 0.036,0.0360048l0.369191 0.00393003 1.32291 -0.0579325 0.18001 0c0.00470183,-0.0201852 0.0090012,-0.0206966 0.0090012,-0.045006l0 -0.0179977c0,-0.0207392 -0.00626438,-0.0270036 -0.0270036,-0.0270036l-0.441025 0 0.000312509 0.00904381 -1.40429 0.0480032z"/>
   <path id="_117750336" class="fil2" d="M3.73521 2.14212c0.0454416,-0.0164493 0.0281779,-0.0875782 0.0990084,-0.135008l0.0626059 0.477087 -0.12561 -6.15547e-005 -0.296931 0.0109141 -0.022619 -0.0932744 -0.0156112 -0.187505 -0.0158574 -0.000146784 -0.0110751 -0.116788 0.0650776 0.0357822c-0.0343428,-0.0512798 -0.0566161,-0.0425012 -0.089458,-0.0725541 -0.0404462,-0.0370133 -0.0189304,-0.0383202 -0.0815505,-0.0714556l0.0179977 0.153011 0.0102844 0.00123583 0.0708069 0.441508 0.584945 -0.0287224c0,-0.0578046 0.00553519,-0.172244 -0.0305927,-0.189754l-0.0594098 -0.449283c-0.0039395,-0.0285377 0.0205072,-0.0566919 0.0269989,-0.0810013l-0.0494711 0.0575205 -0.13954 0.248496z"/>
   <polygon id="_122853456" class="fil12" points="6.56137,2.34914 6.71336,2.53898 6.75038,2.53815 6.75938,2.52915 6.76838,2.52015 6.77738,2.51114 6.78638,2.50214 6.79538,2.49314 6.80438,2.48414 6.81338,2.47514 6.82239,2.46614 6.83139,2.45714 6.84038,2.44814 6.84938,2.43914 6.85839,2.43014 6.86739,2.42114 6.87639,2.41214 6.88539,2.40314 6.89439,2.39414 6.89439,2.37614 6.91239,2.37614 6.92139,2.35813 6.93039,2.34914 6.93939,2.33113 6.94839,2.32213 6.95739,2.30413 6.96639,2.27713 6.96639,2.19613 6.95739,2.14212 6.94839,2.12412 6.93939,2.11512 6.93039,2.09712 6.92139,2.07912 6.91239,2.07012 6.90339,2.06112 6.89439,2.05212 6.88539,2.05212 6.88539,2.07912 "/>
   <path id="_118976512" class="fil8" d="M1.31426 2.55231l-0.027193 0.0218377 0 0.0269989c0,0.0210707 0.0149341,0.0360048 0.036,0.0360048l0.0180971 0.00284099 0.94496 -0.0388458 0 -0.0269989c0,-0.0276381 -0.00833356,-0.0540024 -0.0360048,-0.0540024l-0.170876 0.00352756 -0.764983 0.0286372z"/>
   <path id="_117735288" class="fil3" d="M1.29607 6.47137l0.112295 0.00241484 0.0497125 0.0785912 -0.043344 -0.108237 -0.0106584 -0.0897752 -0.0269989 -0.0090012c-0.00103696,-0.0463696 -0.0934685,-0.252867 -0.117011,-0.288015l0 -0.045006c-0.00908169,-0.013561 -0.0787616,-0.156718 -0.0857789,-0.175232 -0.0177372,-0.0468147 -0.0406451,-0.180905 -0.0762284,-0.193788l0 -0.0720001c-0.0220129,-0.00796897 -0.0270036,-0.0103507 -0.0270036,-0.045006l0 -0.036c-0.0300103,-0.0121168 -0.0990037,-0.190929 -0.0990037,-0.243013l0 -0.0360048c0,-0.10631 0.234012,-0.110429 0.234012,-0.171009 0,-0.0591825 -0.0179977,-0.0698504 -0.0202326,-0.131756l-0.0787711 -0.0662566 -0.0180024 -0.0990037 0.0270036 0c0.0310283,0 0.0348494,0.00665738 0.0630036,0.0090012 0.00470183,-0.0201852 0.0090012,-0.0206966 0.0090012,-0.0450012l0.00199816 -0.0633067 -0.0103601 -0.0781035 0.178599 -0.0390778 0.009773 -0.0175242c-0.0350341,0.000776537 -0.216014,0.0222544 -0.216014,0.0540024 0,0.0219514 0.0270036,0.0339782 0.0270036,0.0900025l0 0.0540072c0,0.0459482 -0.031355,0.0179977 -0.0540024,0.0179977 -0.0338977,0 -0.0170222,0.00592346 -0.0540072,0.0090012l-0.000393003 0.0277943 -0.0716071 -0.0277943c-0.0295747,-0.055887 -0.0720048,-0.0726156 -0.0720048,-0.18001l0 -0.0270036c0,-0.0823176 0.0317196,-0.0868585 0.036,-0.126007 0.0545043,-0.00453137 0.105495,-0.124312 0.234017,-0.135004 -0.00447456,-0.0537325 -0.0233719,-0.119871 -0.0270793,-0.170937 -0.0049007,-0.0676013 0.00616494,-0.136116 -0.00529844,-0.201715 -0.0194276,-0.111182 -0.0166387,-0.273407 -0.0450344,-0.368983 -0.0246598,-0.0829758 -0.0250338,-0.26863 -0.0434103,-0.370616 -0.00619335,-0.0343759 -0.0141008,-0.160625 -0.0145317,-0.192482 -0.00145364,-0.108251 -0.0207061,-0.108833 -0.0266579,-0.180351l-0.0175242 -0.009773 -0.114402 -1.48385 0.00591872 -0.180469c0,-0.0485619 0.331562,-0.0270036 0.396024,-0.0270036 0.141008,0 0.282015,0 0.423023,0l-0.0540024 -0.234012 -1.12506 0 0 0.0990037c0,0.0326761 0.0274771,0.12068 0.0270983,0.188916 -0.000530318,0.0953577 0.01465,0.119052 0.0175952,0.207411 0.00383533,0.115022 0.0264827,0.288185 0.0433961,0.397634 0.0203131,0.131448 0.000407208,0.287716 0.0235092,0.417512 0.0210422,0.118209 0.0414074,0.280727 0.0414074,0.408619l0 0.117006 0.0131443 0.000421413 0.0498593 0.620614 0.0116386 0.000539788 0.276381 3.18564 0.0269941 -7.57597e-005 0.216019 -0.0179266z"/>
   <path id="_122853840" class="fil13" d="M5.78732 2.74516c0.0379224,-0.0031535 0.0477286,-0.0180024 0.081006,-0.0180024 0.032695,0 0.0315681,0.0106774 0.0630036,0.0180024l0 0.0270036 0.0270036 0c0.0146595,-0.0218945 0.0652385,-0.060745 0.0921095,-0.0879002 0.0361279,-0.0364972 0.0786906,-0.0504843 0.104132,-0.075878 0.0264307,-0.0263928 0.174934,-0.161288 0.181781,-0.178244 -0.0212932,-0.0443715 -0.035143,-0.088582 -0.0990084,-0.0900025 -0.0158953,0.0393761 -0.0669526,0.0292906 -0.0720048,0.0900025 -0.0544854,0.00453611 -0.0728382,0.055726 -0.0976021,0.0824076 -0.00130685,0.00141102 -0.0919628,0.0620377 -0.102228,0.0687803 -0.015597,0.010256 -0.0904286,0.0647319 -0.0971097,0.0739036 -0.0413269,0.0567487 -0.04806,0.0211085 -0.0810818,0.0899267z"/>
   <path id="_118976608" class="fil14" d="M5.93133 2.77216l0 0.0540024c0.0475629,-0.00395844 0.0517723,-0.0270036 0.108005,-0.0270036l0.0630036 0c0.00470657,0.0201852 0.0090012,0.0206966 0.0090012,0.045006l-0.00290728 0.030981 -0.0600964 0.0320179 0.000814416 0.0338693 0.0801916 0.0291343 -0.0550015 -0.0461424 0.393785 -0.344574 0.0095978 -0.000838091 -0.0423639 -0.0584675 -0.0990037 -0.0900072c-0.00684678,0.016956 -0.15535,0.151851 -0.181781,0.178244 -0.025441,0.0253937 -0.0680038,0.0393808 -0.104132,0.075878 -0.026871,0.0271551 -0.0774501,0.0660056 -0.0921095,0.0879002l-0.0270036 0z"/>
   <path id="_117753840" class="fil7" d="M5.50831 2.97917c0.0290491,0.0334195 0.0313976,0.0637565 0.081006,0.0900072l0.135008 0.0090012 0.198007 0.0179977 0.0270036 0c0.0153745,0.0575773 0.0630036,0.0377046 0.0630036,0.180014l0.0269989 0 0 -0.0180024 0.0270036 0c0.0514219,0 0.0150383,0.0382728 0.0540024,0.0540024 0.0220177,-0.0232109 0.0900072,-0.0949079 0.0900072,-0.135008l0 -0.117006c0,-0.0257109 -0.00283152,-0.0164588 -0.0180024,-0.0269989l-0.0630036 -0.0630084 -0.0801916 -0.0291343 -0.000814416 -0.0338693 0.0600964 -0.0320179 0.00290728 -0.030981c0,-0.0243094 -0.00429463,-0.0248208 -0.0090012,-0.045006l-0.0630036 0c-0.0562326,0 -0.060442,0.0230451 -0.108005,0.0270036l0 -0.0540024 0 -0.0270036c-0.0314355,-0.00732501 -0.0303086,-0.0180024 -0.0630036,-0.0180024 -0.0332774,0 -0.0430836,0.0148489 -0.081006,0.0180024l-0.0914656 0.0807125 -0.00753809 -0.00870763 0 -0.036c0,-0.0117285 -0.0371459,-0.081006 -0.0630036,-0.081006l-0.0720048 0c-0.0147873,0.0408487 -0.0720048,0.0584249 -0.0720048,0.126007l0 0.0630036 0.0100808 0.0808403 0.0169228 0.00916218z"/>
   <path id="_122853408" class="fil15" d="M6.12935 2.97017l0.0630036 0.0630084 0 -0.0270036c0.0410191,-0.0148489 0.0724215,-0.048775 0.0974506,-0.0825591 0.0323778,-0.0437133 0.0505743,-0.0483631 0.0878244,-0.0831888 0.0311372,-0.0291059 0.183746,-0.135766 0.183746,-0.158271l0 -0.0090012c0,-0.0507069 -0.091352,-0.143754 -0.126007,-0.153006l0.0423639 0.0584675 -0.0095978 0.000838091 -0.393785 0.344574 0.0550015 0.0461424z"/>
   <path id="_118976704" class="fil16" d="M1.45808 0.765045l-0.0269989 0.0090012 -0.0090012 0.0090012 -0.0270036 0.00899646 -0.0179977 0.0090012 -0.045006 0.0090012 -0.0990037 0.0090012 -0.69304 0.0090012 -0.0180024 0.0090012 -0.00899646 0.0090012 -0.0090012 0.0090012 -0.0090012 0.00899646 -0.0180024 0.0090012 -0.0090012 0.0090012 -0.0179977 0.0090012 -0.0090012 0.0090012 -0.0090012 0.0090012 -0.0090012 0.0090012 -0.0090012 0.00899646 0 0.117006 0.0090012 0.0630084 0.0090012 0.153006 0.0090012 0.0720048 0.0090012 0.081006 0.00899646 0.144005 0.0090012 0.045006 0.0090012 0.162007 0.0090012 0.0450012 0.0090012 0.14401 0.0090012 0.0630036 0.0090012 0.126007 0.00899646 0.0720048 0.0090012 0.0900025 0.0090012 0.117006 0.0090012 0.081006 0.0090012 0.126007 0.0090012 0.0720048 0.00899646 0.135008 0.0090012 0.0540024 0.0090012 0.153006 0.0090012 0.045006 0.0090012 0.0810013 0.0090012 0.162012 0.00899646 0.0540024 0.0090012 0.14401 0.0090012 0.0629989 0.0090012 0.126012 0.0090012 0.0720001 0.0090012 0.117006 0.0090012 0.081006 0.0090012 0.117006 0.00899646 0.081006 0.0090012 0.0900025 0.0090012 0.126007 0.0090012 0.0720048 0 0.189011 -0.0180024 0c0.0111556,0.0417767 0.0438743,0.0974648 0.0630036,0.108005 0.00164777,0.00343286 0.0796187,0.720067 0.0813469,0.764704 0.00618862,0.159896 0.0266579,0.243165 0.0266579,0.396365 0,0.0808214 0.00705512,0.354451 0.0245177,0.394485l-0.0155165 0.0195365 0 0.0090012 0.0090012 0.0540024 0.0090012 0.0180024 0.0090012 0.0540024 0.0090012 0.0540024 0.0090012 0.0360048 0.0179977 0 0 -0.0180024 0.0180024 0 0 -0.0180024 0.0180024 0 0.0090012 -0.0180024 0.0090012 -0.0090012 0.0629989 0 0.0630036 0 0.152244 -0.0184759 0.00976826 -0.0175242 -0.216019 0.0179266 -0.0269941 7.57597e-005 -0.276381 -3.18564 -0.0116386 -0.000539788 -0.0498593 -0.620614 -0.0131443 -0.000421413 0 -0.117006c0,-0.127892 -0.0203651,-0.29041 -0.0414074,-0.408619 -0.023102,-0.129795 -0.00319611,-0.286064 -0.0235092,-0.417512 -0.0169133,-0.109449 -0.0395607,-0.282612 -0.0433961,-0.397634 -0.00294516,-0.0883594 -0.0181255,-0.112053 -0.0175952,-0.207411 0.000378798,-0.0682358 -0.0270983,-0.15624 -0.0270983,-0.188916l0 -0.0990037 1.12506 0c-0.0239779,-0.0662376 -0.0773696,-0.0900072 -0.171013,-0.0900072l-0.0269989 0 -0.0180024 0.0090012z"/>
   <path id="_117728832" class="fil17" d="M4.57226 2.08812l-0.0422171 0.0327329 -0.0657404 0.107948 -0.00904854 -0.00567724 0 0.0630084c0,0.0310283 0.00665738,0.0348494 0.0090012,0.0630036l0.0630036 0 0.0988474 -0.0102796c0.00989137,0.0196691 0.0541587,0.0844484 0.0541587,0.0912809l0 0.0360048c0,0.126902 -0.00947469,0.230717 -0.0251806,0.334834 -0.0089207,0.0590973 0.00194608,0.113071 -0.0098819,0.170133 -0.0146264,0.0705607 -0.0279411,0.0407398 -0.0279411,0.143067l0.0899267 -0.466533 -0.0089207 -0.00149152 0 -0.234017 0.0180024 0 0 0.0180024 0.036 0c0.16338,0 0.311727,-0.207013 0.351018,-0.207013 0.0190394,0 0.0118706,0.00322452 0.0360048,0.0090012 -0.00460713,-0.0114066 -0.101698,-0.0905139 -0.124208,-0.118805 -0.0230641,-0.028997 -0.0337557,-0.0225006 -0.0557591,-0.061247 -0.019224,-0.0338456 -0.0129833,-0.0584675 -0.0540451,-0.062961l-0.0199627 -0.0713325c-0.0594524,0.0136367 -0.0469142,0.0533301 -0.106045,0.0533301l-0.045006 0 0 -0.0629989 -0.0626296 -0.0112977 0.00862713 -0.0427048c-0.0260613,0.0190914 -0.0810013,0.110917 -0.0810013,0.162007l0 0.0720048 -0.0270036 0z"/>
   <path id="_122853888" class="fil4" d="M3.5012 3.28519l-0.0090012 -0.0269989c0.0832646,0.00692727 0.251442,0.153006 0.288019,0.153006 0.0235234,0 0.258317,-0.273615 0.261177,-0.304786l0.0358391 -0.0102323 -0.0180024 0 0 -0.0179977 -0.11747 -0.00521795 -0.287551 0.0322168 -0.172533 0.000142049 0.0105211 0.134866 -0.0312177 0.00312982 0.0402189 0.0418714z"/>
   <path id="_118976800" class="fil6" d="M1.41308 3.35719l0 0.0180024c0,0.0243094 0.00429936,0.024816 0.0090012,0.0450012l0.098497 -0.00582402 0.855559 -0.075182c0.0101991,-0.0382065 0.0179977,-0.0157438 0.0179977,-0.0450012l0 -0.0090012c0,-0.0207392 -0.00626438,-0.0269989 -0.0269989,-0.0269989l-0.045006 0c-0.169787,0 -0.318692,0.0306685 -0.467683,0.036341 -0.0760011,0.00289781 -0.441366,0.00437986 -0.441366,0.0626627z"/>
   <path id="_117734064" class="fil9" d="M4.07723 3.09617l-0.0358391 0.0102323c-0.00285993,0.0311704 -0.237653,0.304786 -0.261177,0.304786 -0.0365777,0 -0.204755,-0.146079 -0.288019,-0.153006l0.0090012 0.0269989 0.135008 0.126007 0.168418 0.23879 -0.000350388 0.00915271 0.0479464 -0.0499304 0 -0.036c0,-0.0285756 0.0450012,-0.0320227 0.0458346,-0.125515l0.0981703 -0.162504c0.0108762,-0.0407256 0.0267053,-0.0211843 0.0521369,-0.0558728 0.0240632,-0.0328229 0.00217336,-0.0529797 0.0378704,-0.0791357l0.0266532 -0.0641021 -0.0356544 0.0100997z"/>
   <path id="_122863248" class="fil18" d="M4.94128 3.4652l0 0.0179977c0.0243804,-0.0065106 0.270017,-0.222923 0.270017,-0.234012 0,-0.023083 -0.00216389,-0.0217572 -0.0121973,-0.0387889l0.0481974 -0.0602195c-0.101063,-0.0641211 -0.251588,0.199579 -0.270012,0.207013 0,0.045631 0.000170459,0.0623455 -0.0360048,0.0720048l0 0.0360048z"/>
   <path id="_118991200" class="fil11" d="M3.6362 3.41119l-0.0391962 -0.0175289 0.0482684 0.334834 0.428364 -0.010862 -0.0504133 -0.43245 -0.0270036 0 -0.0981703 0.162504c-0.000833356,0.0934922 -0.0458346,0.0969392 -0.0458346,0.125515l0 0.036 -0.0479464 0.0499304 0.000350388 -0.00915271 -0.168418 -0.23879z"/>
   <path id="_117741336" class="fil8" d="M1.48508 3.5102c-0.0124199,0.0185422 -0.0270036,0.0233624 -0.0270036,0.0450012l0 0.0090012c0,0.0276665 0.0263691,0.036 0.0540024,0.036l0.0533727 -0.00794529 0.765675 -0.0640548 0.0720048 0 0 -0.0180024 0.000918586 0.0094889 0.953137 -0.0904949c0.00935632,-0.0176851 0.0179977,-0.0265443 0.0179977,-0.0540024 0,-0.0207392 -0.00625964,-0.0270036 -0.0269989,-0.0270036l-0.0540024 0c-0.115879,0 -0.371118,0.0092995 -0.451305,0.0347263 -0.0862003,0.027335 -0.338717,0.017955 -0.453815,0.041218 -0.0418998,0.00846614 -0.0697226,0.0020976 -0.112044,0.00495752 -0.0435003,0.00293569 -0.0658162,0.0202989 -0.099534,0.0264733 -0.0608019,0.0111319 -0.167187,0.0161321 -0.233629,0.0183859 -0.144209,0.0049007 -0.304099,0.036251 -0.458777,0.036251z"/>
   <path id="_122862864" class="fil13" d="M5.24729 3.15018l-0.0481974 0.0602195c0.0100334,0.0170317 0.0121973,0.0157059 0.0121973,0.0387889 0,0.0110893 -0.245637,0.227502 -0.270017,0.234012l0 -0.0179977c-0.0563463,0.0810865 -0.0887004,0.097337 -0.167505,0.15651 -0.0590452,0.0443431 -0.105268,0.103133 -0.174512,0.149507l0 0.0269989 0.0990037 0.117006 0 -0.0269989c0.0101187,-0.00366487 0.434217,-0.37394 0.450027,-0.396024 0.0298825,-0.0417483 0.172543,-0.139573 0.225593,-0.197425 0.0523073,-0.0570376 0.187799,-0.143891 0.226109,-0.199243l-0.0106774 -0.0263549c-0.0496084,-0.0262507 -0.0519569,-0.0565877 -0.081006,-0.0900072l0 0.0270036c-0.0391677,0.0104596 -0.0832315,0.0515071 -0.110173,0.0788374 -0.0567156,0.0575395 -0.0713845,0.0300434 -0.123839,0.0651675l-0.0270036 0z"/>
   <path id="_118975216" class="fil10" d="M5.59831 3.28519c0,0.0382681 -0.00156254,0.0795619 -0.000378798,0.11739 0.00170933,0.0544759 0.0273824,0.0694527 0.0273824,0.0896237 0,0.0526056 -0.103473,0.0753193 -0.117006,0.126007l0.0540024 0 0.153011 -0.0090012 0.0720001 -0.0090012 0 -0.0179977c0.0617773,0 0.0480222,-0.0180024 0.0900072,-0.0180024l0.0270036 0c0.159275,0 0.1264,0.0690549 0.198007,0.117006 -0.0171454,-0.0642205 -0.108005,-0.120633 -0.108005,-0.135008l0 -0.0450012 0.0100808 -0.080845 0.115926 -0.108166c-0.0389641,-0.0157296 -0.00258056,-0.0540024 -0.0540024,-0.0540024l-0.0270036 0 0 0.0180024 -0.0269989 0c0,-0.14231 -0.0476292,-0.122437 -0.0630036,-0.180014l-0.0270036 0 -0.198007 -0.0179977 -0.0630747 0.00888756 -0.0359338 0.0181113 0 0.0630036c-0.0365398,0.0147495 -0.0270036,0.0659819 -0.0270036,0.117006z"/>
   <path id="_117735984" class="fil8" d="M2.36713 3.6092l-0.027122 0.0164588 -0.818929 0.0645472c-0.00307774,0.0369849 -0.0090012,0.0201047 -0.0090012,0.0540024 0,0.0210659 0.0149341,0.036 0.0360048,0.036l0.0185895 0.00637328 0.962465 -0.0873746 0.036 0 0 -0.0180024 0.126007 0c0.072019,0 0.0860204,-0.0270462 0.162007,-0.0270036 0.0441489,2.36749e-005 0.126897,-0.00494805 0.180085,-0.00892544 0.118071,-0.00883074 0.225394,-0.0270746 0.359948,-0.0270746 0.0153508,-0.0102796 0.036,-0.0195839 0.036,-0.0450012l0 -0.0090012c0,-0.067 -0.181908,-0.0194844 -0.233681,-0.0176709 -0.10577,0.00371222 -0.163953,0.018116 -0.27944,0.0175762 -0.175668,-0.000823886 -0.357751,0.0450959 -0.548936,0.0450959z"/>
   <path id="_122862792" class="fil7" d="M5.56231 3.61821l-0.0990037 0.0269989c-0.00413837,0.0497078 -0.219045,0.189338 -0.260836,0.25075l0.170829 0.0192666 0.162012 0.0090012c0.00702197,-0.0844199 0.157111,-0.274089 0.21601,-0.315018l-0.036 0 -0.153011 0.0090012z"/>
   <path id="_118992904" class="fil0" d="M3.99622 3.28519l0.0270036 0 0.0504133 0.43245 -0.428364 0.010862 -0.0482684 -0.334834 0.0391962 0.0175289 -0.135008 -0.126007c0,0.0484199 0.0678191,0.506032 0.0754566,0.51858 0.0215394,0.035394 0.498645,-0.0145506 0.563581,-0.0145506l0 0.0450012c0,0.0310331 -0.00665738,0.0348542 -0.0090012,0.0630036 0.0123962,0.0307111 0.0660009,0.0360048 0.108005,0.0360048l0.0796566 -0.000449823 0.0103507 -0.0175526 0 -0.0269989c-0.0162457,0.0108762 -0.0158243,0.0179977 -0.036,0.0179977l-0.0360048 0 -0.0988474 -0.0102749 -0.000156254 -0.124729 0.0269989 -0.225016 -0.0167239 0.00916218 -0.0175005 0.0999317 -0.0647792 -0.505118c-0.035697,0.026156 -0.0138072,0.0463128 -0.0378704,0.0791357 -0.0254316,0.0346885 -0.0412606,0.0151472 -0.0521369,0.0558728z"/>
   <path id="_117751584" class="fil8" d="M1.55709 3.89722l0 0.0540072c0.0241342,0.00577667 0.0169654,0.0090012 0.036,0.0090012 0.191393,0 0.333148,-0.0464028 0.495052,-0.0449823 0.0913709,0.000804946 0.149696,-0.018438 0.252086,-0.0179266 0.0596655,0.000298304 0.215915,0.000823886 0.215915,-0.0541019l0 -0.0179977c0,-0.0207392 -0.00625964,-0.0270036 -0.0269989,-0.0270036l-0.0900072 0c-0.163423,0 -0.300112,0.0278275 -0.450022,0.0360048 -0.0649781,0.00354176 -0.155378,0.0122257 -0.21957,0.0234429 -0.0417909,0.00730134 -0.0811102,-0.000236749 -0.121921,0.00408629 -0.0605935,0.0064159 -0.0532875,0.0255263 -0.0905328,0.0354697z"/>
   <path id="_122862720" class="fil10" d="M4.32924 3.91522l-0.0103507 0.0175526 -0.0796566 0.000449823c-0.042004,0 -0.0956087,-0.00529371 -0.108005,-0.0360048l-0.036412 0.100585 0.039073 0.0078506 -0.0206634 0.15258c0.042236,-0.000937526 0.0890129,-0.0363599 0.0900072,-0.0810013 0.0225574,-0.00187979 0.0724404,-0.0374868 0.0920385,-0.0519711 0.0368097,-0.0271977 0.0339687,-0.0504891 0.0339687,-0.110041z"/>
   <path id="_118975144" class="fil15" d="M4.69826 3.91522c0.00850876,0.0127087 0.0450012,0.0477191 0.0450012,0.0540024 0,0.0166198 -0.367146,0.351023 -0.387023,0.351023 -0.0381024,0 -0.00475392,-0.0124341 -0.0450012,-0.0270036l0.081006 0.081006 0 0.0269989c0.0504559,-0.0337841 0.0650113,-0.0313266 0.123304,-0.0567061 0.0519048,-0.0226001 0.0664554,-0.0433014 0.121197,-0.0678144 0.0837381,-0.037501 0.179143,-0.0706932 0.250528,-0.118493l0.0180024 -0.0090012 0 -0.0179977 -0.0180024 0 0 -0.0270036c0,-0.0346506 0.00498593,-0.0370323 0.0269989,-0.0450012 -0.00350862,-0.0421981 -0.0179977,-0.0445088 -0.0179977,-0.0900072l0 -0.036 0.0450012 0c0.0626627,0 0.0692017,0.0550205 0.108076,0.0811149l0.0359338 -0.0181113 0.0267574 -0.0102749 -0.00764226 -0.00738183 0.0888898 -0.0723505c0.0487892,0.0113687 0.10149,0.0273729 0.161884,0.0271267 0.0399111,-0.000160989 0.162135,-0.00310615 0.162135,0.0358769l0 0.0090012c0,0.0201805 -0.00712614,0.0197591 -0.0141197,0.0369044l-0.0218851 0.0801016 -0.324015 0 0.331217 0.0072019 0.0198017 -0.0162031c0,-0.072502 0.0270036,-0.0887714 0.0270036,-0.135004 0,-0.0291864 -0.130619,-0.0160847 -0.162012,-0.0360048l-0.170829 -0.0192666c0.0417909,-0.0614127 0.256697,-0.201042 0.260836,-0.25075l0.0990037 -0.0269989 -0.0540024 0c0.0135326,-0.050688 0.117006,-0.0734016 0.117006,-0.126007 0,-0.020171 -0.0256731,-0.0351477 -0.0273824,-0.0896237 -0.00118374,-0.0378277 0.000378798,-0.0791215 0.000378798,-0.11739l-0.00998134 0.0809681 -0.0063212 -0.00777957 -0.242005 0.226091 0.00629279 0.00673788c-0.0289402,0.0024101 -0.195787,0.145965 -0.222781,0.173239 -0.0389926,0.0393903 -0.0606788,0.0562421 -0.0988474,0.0991647 -0.0529655,0.0595613 -0.0554371,0.0415258 -0.139076,0.0603899l-0.00732028 0.0722321c-0.0127039,0.00850876 -0.0477191,0.0450012 -0.0540024,0.0450012 -0.0543007,0 -0.0626106,-0.10908 -0.126007,-0.126007z"/>
   <path id="_117733344" class="fil19" d="M4.69826 3.91522c0.0633966,0.0169276 0.0717065,0.126007 0.126007,0.126007 0.00628332,0 0.0412985,-0.0364925 0.0540024,-0.0450012l0.00732028 -0.0722321c0.0836387,-0.0188642 0.0861103,-0.000828621 0.139076,-0.0603899 0.0381687,-0.0429226 0.0598549,-0.0597744 0.0988474,-0.0991647 0.0269941,-0.0272735 0.193841,-0.170829 0.222781,-0.173239l-0.00629279 -0.00673788 0.242005 -0.226091 0.0063212 0.00777957 0.00998134 -0.0809681c0,-0.0510241 -0.00953625,-0.102257 0.0270036,-0.117006l0 -0.0630036 0.0359338 -0.0181113 0.0630747 -0.00888756 -0.135008 -0.0090012 0.0106774 0.0263549c-0.0383107,0.0553519 -0.173802,0.142206 -0.226109,0.199243 -0.0530507,0.057852 -0.195711,0.155677 -0.225593,0.197425 -0.0158101,0.0220839 -0.439908,0.392359 -0.450027,0.396024l0 0.0269989z"/>
   <path id="_122862624" class="fil5" d="M5.08529 3.99623l-0.0222781 0.0191198 0.0223254 0.0698504 0.0719575 0.0100334 0.324015 0 0.0218851 -0.0801016c0.00699356,-0.0171454 0.0141197,-0.0167239 0.0141197,-0.0369044l0 -0.0090012c0,-0.0389831 -0.122224,-0.0360379 -0.162135,-0.0358769 -0.0603947,0.000246219 -0.113095,-0.015758 -0.161884,-0.0271267l-0.0888898 0.0723505 0.00764226 0.00738183 -0.0267574 0.0102749z"/>
   <path id="_118977208" class="fil10" d="M4.88727 4.15823l0.133659 0.0274534 0.0103507 0.0175526 0.00206445 -0.0691307 0.0429368 -0.0388789 0.081006 0 -0.0719575 -0.0100334 -0.0223254 -0.0698504 0.0222781 -0.0191198 -0.0359338 0.0181113c-0.0388742,-0.0260945 -0.0454132,-0.0811149 -0.108076,-0.0811149l-0.0450012 0 0 0.036c0,0.0454984 0.014489,0.0478091 0.0179977,0.0900072 -0.0220129,0.00796897 -0.0269989,0.0103507 -0.0269989,0.0450012l0 0.0270036 0.0180024 0 0 0.0179977 -0.0180024 0.0090012z"/>
   <path id="_117738744" class="fil10" d="M4.41925 4.05923l-0.0117001 0.0426669 -0.071806 0.0786717 -0.0604988 0.0766735 0 0.0269989 0.036 0.0090012c0.0402473,0.0145695 0.00689886,0.0270036 0.0450012,0.0270036 0.0198774,0 0.387023,-0.334403 0.387023,-0.351023 0,-0.00628332 -0.0364925,-0.0412938 -0.0450012,-0.0540024l-0.0990037 -0.117006c-0.0390778,0.033964 -0.0653522,0.0650207 -0.0872893,0.119724 -0.0268663,0.0670047 -0.0732643,0.0669195 -0.0747227,0.132291l-0.0180024 0.0090012z"/>
   <path id="_122862528" class="fil4" d="M3.70821 4.48225l0 -0.0269989 0.00534579 -0.00984876 0.221299 0.124071 0.0523689 0.0657878 0.0360048 0c0.00298304,-0.0128176 0.106239,-0.165208 0.119146,-0.177869 0.0643152,-0.0630889 0.0832125,-0.089993 0.132868,-0.164152l-0.0360048 0.0180024c-0.0469473,0 -0.238676,0.00357964 -0.286102,0.0109094 -0.0308294,0.00476339 -0.0904097,0.0159048 -0.127575,0.0164351 -0.0412511,0.000587137 -0.126353,-0.0175668 -0.126353,0.0266579l0 0.0180024c0,0.0310283 0.00665738,0.0348494 0.0090012,0.0630036l-0.0180024 0 0 0.036 0.0180024 0z"/>
   <path id="_118977280" class="fil7" d="M1.19707 4.26624c-0.128522,0.0106916 -0.179513,0.130472 -0.234017,0.135004 -0.00428042,0.0391488 -0.036,0.0436897 -0.036,0.126007l0 0.0270036c0,0.107394 0.0424301,0.124123 0.0720048,0.18001l0.0716071 0.0277943 0.000393003 -0.0277943c0.0369849,-0.00307774 0.0201095,-0.0090012 0.0540072,-0.0090012 0.0226474,0 0.0540024,0.0279506 0.0540024,-0.0179977l0 -0.0540072c0,-0.0560243 -0.0270036,-0.0680511 -0.0270036,-0.0900025 0,-0.031748 0.18098,-0.0532259 0.216014,-0.0540024l0.126007 -0.045006c0.100509,-0.105959 0.0720001,-0.0285377 0.0639838,-0.19457l-0.0279837 -0.0754424 -0.0270036 0c-0.00303512,-0.0364972 -0.0575063,-0.0864512 -0.0902108,-0.0899741l0.00599922 0.076039 -0.105003 -0.076039 0.0092048 0.0719717 0.0157249 0.000303039 0.0112787 0.0897042 -0.153006 0z"/>
   <path id="_117740112" class="fil6" d="M1.76441 4.61122l-0.0273114 0.0150478c-0.0374963,0 -0.117006,9.46996e-006 -0.117006,0.036l0 0.0180024c0,0.0173821 0.0160468,0.036 0.0269989,0.036 0.173144,0 0.33517,-0.0530696 0.485922,-0.0631078 0.084884,-0.00564883 0.164252,-0.00829568 0.251484,-0.0185327 0.0470941,-0.00552572 0.234651,0.00959307 0.234651,-0.0443668l0 -0.0179977c0,-0.0243094 -0.00429936,-0.0248208 -0.00957413,-0.0504181l-0.845165 0.0893727z"/>
   <path id="_122862456" class="fil9" d="M3.70821 4.48225l0.126007 0.108005 0.189011 0.252015 0.0270036 0c0.00168565,-0.0757691 0.119662,-0.261002 0.153006,-0.324019l0.000686572 -0.0256967 0.116319 -0.0553046 0.0450012 -0.0270036 0.0270036 0 0 -0.0090012 0 -0.0269989 -0.081006 -0.081006 -0.036 -0.0090012 0 0.0090012c-0.0496557,0.0741592 -0.068553,0.101063 -0.132868,0.164152 -0.0129076,0.0126613 -0.116163,0.165052 -0.119146,0.177869l-0.0360048 0 -0.0523689 -0.0657878 -0.221299 -0.124071 -0.00534579 0.00984876 0 0.0269989z"/>
   <path id="_118990744" class="fil20" d="M5.71532 3.6092l0.036 0c-0.0588984,0.0409292 -0.208988,0.230598 -0.21601,0.315018l-0.162012 -0.0090012c0.0313929,0.0199201 0.162012,0.00681837 0.162012,0.0360048 0,0.0462323 -0.0270036,0.0625017 -0.0270036,0.135004l-0.0198017 0.0162031 -0.331217 -0.0072019 -0.081006 0 -0.0429368 0.0388789 -0.00206445 0.0691307c0.0965652,0.0646609 0.0706601,0.0513887 0.195138,0.0928766 0.0680369,0.0226758 0.165402,0.0344754 0.233008,0.0509247l-0.0138356 0.351416 -0.0272924 0.0448118 0.045006 -0.036c0.0422597,0.0112835 0.136647,0.0720001 0.189011,0.0720001l0.162007 0c0.0508442,0 0.0492296,-0.0179977 0.106736,-0.0182439l0.0102702 -0.0267574 0 0.153011 0.00970197 -0.153001c0.0470752,-0.0173016 0.107304,-0.296623 0.107304,-0.378031l0.0193092 -0.0259193c-0.00130685,-0.0483868 0.00125477,-0.0746185 0.0201615,-0.105618 0.0370228,-0.0606977 0.011667,-0.0239495 0.0252043,-0.0918065 0.0112645,-0.0564836 0.0343333,-0.127655 0.0343333,-0.199679l0 -0.0990084c0,-0.0608492 -0.0191198,-0.115756 -0.045006,-0.153006 -0.0716071,-0.0479511 -0.0387321,-0.117006 -0.198007,-0.117006l-0.0270036 0c-0.0419851,0 -0.0282299,0.0180024 -0.0900072,0.0180024l0 0.0179977 -0.0720001 0.0090012z"/>
   <path id="_117747168" class="fil8" d="M2.97033 4.66403l-0.000165724 0.016241 -0.0807598 0.00281731 -0.234258 0.0151851c-0.0460524,0.0308342 -0.413283,0.063212 -0.504024,0.0630036 -0.0946238,-0.000217809 -0.166539,0.0162599 -0.252654,0.0263644 -0.0759727,0.00891597 -0.224376,-0.0166624 -0.224376,0.0636381 0,0.0243094 0.00429463,0.024816 0.0090012,0.0450012l0.0630036 0c0.331827,0 0.6623,-0.0990037 1.01814,-0.0976968l0.0259193 -0.0193092c0.0517344,0 0.12882,0.01063 0.144005,-0.0269989l0.0721658 0.00148205 0.555593 -0.0574258 0.031445 -0.0254931 -0.0111651 -0.0535716c-0.0201852,-0.00470183 -0.0206919,-0.0090012 -0.0450012,-0.0090012l-0.017652 0.00369802 -0.549215 0.0520658z"/>
   <path id="_122862384" class="fil8" d="M3.26743 4.8176l-0.000445088 0.0139019 -1.50296 0.163669 -0.0359338 0.0181066 0 0.0270036c0,0.0210707 0.0149341,0.036 0.036,0.036l0.0900072 0 0 -0.0179977 0.235073 -0.00450297 -0.0367861 -0.0106348 0.72985 -0.0645614 0.0260519 -0.0177751 0.440888 -0.0375342 0 -0.0180024c0.0703381,0 0.387023,-0.00777957 0.387023,-0.0630036l0 -0.0450012c-0.0201852,-0.00470183 -0.0206919,-0.0090012 -0.0450012,-0.0090012l-0.00943681 -0.00409576 -0.314332 0.033429z"/>
   <path id="_118977400" class="fil11" d="M4.20324 4.51825c-0.0333437,0.0630178 -0.15132,0.24825 -0.153006,0.324019l-0.0270036 0 -0.189011 -0.252015 -0.0280121 -0.00884494 0.0550157 0.395868c0.0724925,0 0.429141,-0.00823886 0.447162,-0.0395465 0.0050901,-0.00884494 -0.0691449,-0.36671 -0.0691449,-0.41048l-0.00257583 -0.0313172 -0.0334242 0.022316z"/>
   <path id="_117750312" class="fil0" d="M4.20324 4.51825l0.0334242 -0.022316 0.00257583 0.0313172c0,0.0437701 0.074235,0.401635 0.0691449,0.41048 -0.0180213,0.0313077 -0.374669,0.0395465 -0.447162,0.0395465l-0.0550157 -0.395868 0.0280121 0.00884494 -0.126007 -0.108005c0.0135468,0.0581408 0.036,0.160686 0.036,0.225016l0 0.0269989 0.0162931 0.000274629 0.0467106 0.314744 0.108573 0.00543102 0.305453 -0.0324346 0.171009 0 0 -0.0900025c0,-0.0154692 -0.0398306,-0.194949 -0.0472504,-0.231768 -0.00776537,-0.0385285 -0.0114255,-0.0798033 -0.0164777,-0.127527 -0.00446035,-0.042165 -0.0244136,-0.0620945 -0.0346364,-0.10809l0.0263596 -0.0276428 -0.116319 0.0553046 -0.000686572 0.0256967z"/>
   <path id="_122862312" class="fil10" d="M1.36808 4.50926l-0.009773 0.0175242 -0.178599 0.0390778 0.0103601 0.0781035 -0.00199816 0.0633067c0,0.0243046 -0.00429936,0.024816 -0.0090012,0.0450012 -0.0281542,-0.00234381 -0.0319753,-0.0090012 -0.0630036,-0.0090012l-0.0270036 0 0.0180024 0.0990037 0.0900072 0.0540024c0,0.0490781 0.0143517,0.225016 0.0629989,0.225016l0.081006 0c0.0243094,0 0.024816,-0.00429936 0.0450012,-0.0090012 0.0101423,-0.0435334 -0.00355597,-0.117006 0.0360048,-0.117006l0.0450012 0c0.0427048,0 0.0650113,0.0100808 0.0990037,0.0179977l-0.0810013 -0.036c0.0388268,-0.0529986 0.117006,-0.0493101 0.117006,-0.18001l0 -0.0270036c0,-0.161056 -0.0871283,-0.216407 -0.108005,-0.306017l-0.126007 0.045006z"/>
   <path id="_118993120" class="fil8" d="M1.7911 5.17529l-0.0090012 0.0720048c0.0201852,0.00470183 0.0206919,0.0090012 0.0450012,0.0090012l0.0273445 0.00285046 0.919954 -0.11122 -0.0112456 -0.071645 -0.108005 0c-0.0496321,0 -0.350199,0.0465401 -0.417284,0.059746 -0.130439,0.0256731 -0.307854,0.0277044 -0.446764,0.0392624z"/>
   <path id="_117738120" class="fil6" d="M4.62626 5.2473l0.0090012 0.0450012 0.081006 0.369021 0.0179977 0c0.00718296,-0.0268994 0.0491207,-0.0518906 0.0781366,-0.119875 0.0139398,-0.0326619 0.0357538,-0.11998 0.065873,-0.132139 0,-0.0982603 0.0630036,-0.163447 0.0630036,-0.297016l0.00199816 -0.126306 -0.0109994 -0.0807077 -0.0226143 0.00289781 -0.0660624 0.100045 0.00767067 0.00506169 -0.030015 0.00585243 -0.0533679 0.054618 -0.0066195 -0.00646325 0 -0.234017c0,-0.107091 -0.0556834,-0.194106 -0.0630036,-0.261011l-0.0360048 0 0 0.0450012c-0.0240395,0.00870289 -0.0990037,0.181994 -0.0990037,0.225011l-0.00205025 0.0272924 0.0200526 0.17072 0.0171264 0.000127844 0.0278748 0.206885z"/>
   <path id="_122863128" class="fil11" d="M1.7911 5.17529c0.13891,-0.0115581 0.316325,-0.0135894 0.446764,-0.0392624 0.0670852,-0.0132059 0.367652,-0.059746 0.417284,-0.059746l0.108005 0 0.0112456 0.071645 -0.919954 0.11122 -0.0273445 -0.00285046c-0.0243094,0 -0.024816,-0.00429936 -0.0450012,-0.0090012l0.0090012 -0.0720048zm1.79066 -0.391119l0.00943681 0.00409576c0.0243094,0 0.024816,0.00429936 0.0450012,0.0090012l0 0.0450012c0,0.0552241 -0.316685,0.0630036 -0.387023,0.0630036l0 0.0180024 -0.440888 0.0375342 -0.0260519 0.0177751 -0.72985 0.0645614 0.0367861 0.0106348 -0.235073 0.00450297 0 0.0179977 -0.0900072 0c-0.0210659,0 -0.036,-0.0149294 -0.036,-0.036l0 -0.0270036 0.0359338 -0.0181066 1.50296 -0.163669 0.000445088 -0.0139019 0.314332 -0.033429zm-0.0622176 -0.172216l0.017652 -0.00369802c0.0243094,0 0.024816,0.00429936 0.0450012,0.0090012l0.0111651 0.0535716 -0.031445 0.0254931 -0.555593 0.0574258 -0.0721658 -0.00148205c-0.0151851,0.0376289 -0.0922705,0.0269989 -0.144005,0.0269989l-0.0259193 0.0193092c-0.355838,-0.00130685 -0.686312,0.0976968 -1.01814,0.0976968l-0.0630036 0c-0.00470657,-0.0201852 -0.0090012,-0.0206919 -0.0090012,-0.0450012 0,-0.0803005 0.148404,-0.0547222 0.224376,-0.0636381 0.0861151,-0.0101044 0.15803,-0.0265822 0.252654,-0.0263644 0.0907411,0.000208339 0.457972,-0.0321694 0.504024,-0.0630036l0.234258 -0.0151851 0.0807598 -0.00281731 0.000165724 -0.016241 0.549215 -0.0520658zm-0.909973 -0.0901161c0.00527477,0.0255973 0.00957413,0.0261087 0.00957413,0.0504181l0 0.0179977c0,0.0539598 -0.187557,0.038841 -0.234651,0.0443668 -0.0872325,0.010237 -0.1666,0.0128839 -0.251484,0.0185327 -0.150752,0.0100382 -0.312779,0.0631078 -0.485922,0.0631078 -0.010952,0 -0.0269989,-0.0186179 -0.0269989,-0.036l0 -0.0180024c0,-0.0359906 0.0795098,-0.036 0.117006,-0.036l0.0273114 -0.0150478 0.845165 -0.0893727zm-1.05249 -0.624624c0.0372453,-0.00994346 0.0299393,-0.0290538 0.0905328,-0.0354697 0.0408108,-0.00432304 0.0801301,0.00321505 0.121921,-0.00408629 0.0641921,-0.0112172 0.154592,-0.0199011 0.21957,-0.0234429 0.149909,-0.00817731 0.286599,-0.0360048 0.450022,-0.0360048l0.0900072 0c0.0207392,0 0.0269989,0.00626438 0.0269989,0.0270036l0 0.0179977c0,0.0549258 -0.15625,0.0544002 -0.215915,0.0541019 -0.102389,-0.000511378 -0.160715,0.0187316 -0.252086,0.0179266 -0.161903,-0.00142049 -0.303659,0.0449823 -0.495052,0.0449823 -0.0190346,0 -0.0118659,-0.00322452 -0.036,-0.0090012l0 -0.0540072zm0.810046 -0.288015c0.191184,0 0.373268,-0.0459198 0.548936,-0.0450959 0.115486,0.000539788 0.17367,-0.013864 0.27944,-0.0175762 0.0517723,-0.0018135 0.233681,-0.049329 0.233681,0.0176709l0 0.0090012c0,0.0254174 -0.0206492,0.0347216 -0.036,0.0450012 -0.134554,0 -0.241877,0.0182439 -0.359948,0.0270746 -0.053188,0.00397738 -0.135937,0.00894911 -0.180085,0.00892544 -0.0759869,-4.26148e-005 -0.0899883,0.0270036 -0.162007,0.0270036l-0.126007 0 0 0.0180024 -0.036 0 -0.962465 0.0873746 -0.0185895 -0.00637328c-0.0210707,0 -0.0360048,-0.0149341 -0.0360048,-0.036 0,-0.0338977 0.00592346,-0.0170175 0.0090012,-0.0540024l0.818929 -0.0645472 0.027122 -0.0164588zm-0.882051 -0.0990037c0.154678,0 0.314568,-0.0313503 0.458777,-0.036251 0.0664412,-0.00225385 0.172827,-0.00725399 0.233629,-0.0183859 0.0337178,-0.00617441 0.0560337,-0.0235376 0.099534,-0.0264733 0.0423212,-0.00285993 0.070144,0.00350862 0.112044,-0.00495752 0.115098,-0.023263 0.367614,-0.013883 0.453815,-0.041218 0.0801869,-0.0254268 0.335426,-0.0347263 0.451305,-0.0347263l0.0540024 0c0.0207392,0 0.0269989,0.00626438 0.0269989,0.0270036 0,0.0274581 -0.00864134,0.0363173 -0.0179977,0.0540024l-0.953137 0.0904949 -0.000918586 -0.0094889 0 0.0180024 -0.0720048 0 -0.765675 0.0640548 -0.0533727 0.00794529c-0.0276333,0 -0.0540024,-0.00833356 -0.0540024,-0.036l0 -0.0090012c0,-0.0216389 0.0145837,-0.0264591 0.0270036,-0.0450012zm-0.0720048 -0.153011c0,-0.0582829 0.365365,-0.0597649 0.441366,-0.0626627 0.148991,-0.0056725 0.297896,-0.036341 0.467683,-0.036341l0.045006 0c0.0207345,0 0.0269989,0.00625964 0.0269989,0.0269989l0 0.0090012c0,0.0292574 -0.00779851,0.00679469 -0.0179977,0.0450012l-0.855559 0.075182 -0.098497 0.00582402c-0.00470183,-0.0201852 -0.0090012,-0.0206919 -0.0090012,-0.0450012l0 -0.0180024zm0.666169 -0.833517l0.170876 -0.00352756c0.0276712,0 0.0360048,0.0263644 0.0360048,0.0540024l0 0.0269989 -0.94496 0.0388458 -0.0180971 -0.00284099c-0.0210659,0 -0.036,-0.0149341 -0.036,-0.0360048l0 -0.0269989 0.027193 -0.0218377 0.764983 -0.0286372zm0.612214 -0.201497l-0.000312509 -0.00904381 0.441025 0c0.0207392,0 0.0270036,0.00626438 0.0270036,0.0270036l0 0.0179977c0,0.0243094 -0.00429936,0.0248208 -0.0090012,0.045006l-0.18001 0 -1.32291 0.0579325 -0.369191 -0.00393003c-0.0210659,0 -0.036,-0.0149341 -0.036,-0.0360048l0 -0.0090012c0,-0.0254647 0.0259098,-0.0322168 0.0451054,-0.0419566l1.40429 -0.0480032zm0.43166 -0.199892c0.00475865,0.0220224 0.00905328,0.022529 0.00905328,0.0468384l0 0.0090012c0,0.0820051 -0.823408,0.0393856 -0.953416,0.0546417 -0.135004,0.0158432 -0.855194,0.0516397 -0.963691,0.0263644l0 -0.0270036c0,-0.0274581 0.00864607,-0.0363173 0.0179882,-0.0544665l1.89007 -0.0553756zm-1.93505 -0.115169c0.0655321,-0.0152656 0.424439,-0.0181776 0.513026,-0.0180024 0.0782976,0.000156254 0.47703,-0.0426811 0.47703,0.0270036 0,0.0201805 -0.00712614,0.0197591 -0.0180024,0.036l-0.774036 0.0271693 -0.198017 -0.000165724c-0.00595187,-0.0255405 -0.0090012,-0.0153887 -0.0090012,-0.0360048 0,-0.0190346 0.00321979,-0.0118659 0.0090012,-0.036zm2.73615 -0.171009c-0.00649166,0.0243094 -0.0309384,0.0524636 -0.0269989,0.0810013l0.0594098 0.449283c0.0361279,0.01751 0.0305927,0.13195 0.0305927,0.189754l-0.584945 0.0287224 -0.0708069 -0.441508 -0.0102844 -0.00123583 -0.0179977 -0.153011 0 -0.0090012 -0.0356544 -0.0100997 -0.000350388 -0.0259003 0.0360048 0c-0.00470657,-0.0201852 -0.0090012,-0.0206919 -0.0090012,-0.0450012l0 -0.0360048 0.234012 0 0.324019 -0.0179977c0.0158054,-0.0042236 0.0934732,-0.0902724 0.144005,-0.117011 -0.00558728,0.0671515 -0.0442294,0.0701014 -0.0720048,0.10801zm-0.468024 -0.783047l-0.198007 0.00959307 -4.73498e-006 0.215423c0,0.0484199 -0.0269989,0.0373827 -0.0269989,0.108005l-1.45808 0c-0.0439027,0 -0.0270841,-0.0929666 -0.0269989,-0.135008 0.000132579,-0.0657641 -0.0090012,-0.0940035 -0.0090012,-0.153006l-0.810046 0c0,0.156761 0.00642063,0.285969 0.00865554,0.441366 0.00188926,0.131258 0.0315586,0.29015 0.0364688,0.413558 0.0102133,0.256844 0.0628805,0.571654 0.0628805,0.828172 0.00595187,0.0715171 0.0252043,0.0720995 0.0266579,0.180351 0.000430883,0.0318569 0.0083383,0.158106 0.0145317,0.192482 0.0183765,0.101987 0.0187505,0.287641 0.0434103,0.370616 0.0283957,0.0955756 0.0256068,0.257801 0.0450344,0.368983 0.0114634,0.0655984 0.000397738,0.134114 0.00529844,0.201715 0.00370749,0.0510667 0.0226048,0.117205 0.0270793,0.170937l0.153006 0 -0.0112787 -0.0897042 -0.0157249 -0.000303039 -0.0092048 -0.0719717 0.105003 0.076039 -0.00599922 -0.076039c0.0327045,0.00352282 0.0871757,0.0534769 0.0902108,0.0899741l0.0270036 0 0.0279837 0.0754424c0.00801632,0.166032 0.0365256,0.0886104 -0.0639838,0.19457 0.0208765,0.0896095 0.108005,0.144961 0.108005,0.306017l0 0.0270036c0,0.1307 -0.0781792,0.127011 -0.117006,0.18001l0.0810013 0.036c0.0715313,0.0166671 0.162012,0.129483 0.162012,0.216014 0.0598312,0.0316581 0.086385,0.0970765 0.141903,0.137116 0.022368,0.0161273 0.0455931,0.0437323 0.0672746,0.0677291 0.0341865,0.0378372 0.0653853,0.0334858 0.0698362,0.0741687l0.00700303 -0.0069983 0.0294326 0.0408392 0.0535716 0.0111651c0.0430031,-0.0618862 -0.00326714,-0.167481 0.0209097,-0.240106 0.012292,-0.0369092 0.159124,-0.0659109 0.1951,-0.0659109l0.117011 0c0.0166766,-0.0460713 0.21056,-0.0473072 0.264359,-0.0596607 0.0335663,-0.00770381 0.262649,-0.0393477 0.284672,-0.0393477l0.036 0c0.0303323,0 0.0630036,0.0159095 0.0630036,0.045006l-0.0033429 0.017562 -0.0686619 0.603473 0.045006 0.0450012c0.0715171,0.0343191 0.609122,-0.0703002 0.738373,-0.0716734 0.258989,-0.00274629 0.514574,-0.0363315 0.791712,-0.0363315 0.0105401,-0.0151709 0.00128791,-0.0180024 0.0269989,-0.0180024l0.0990084 0c-0.033661,-0.144493 -0.0720048,-0.259126 -0.0720048,-0.441025l-0.0090012 -0.0450012 -0.0269989 -0.0360048 0.00130212 -0.0460856 -0.0139635 -0.0266343 -0.0580414 -0.459392 -0.0167192 -0.0262176 -0.0320132 -0.276305 -0.0875782 0.0335899 -0.0270036 0 -0.0450012 0.0270036 -0.0263596 0.0276428c0.0102228,0.0459956 0.030176,0.0659251 0.0346364,0.10809 0.00505222,0.0477239 0.00871236,0.0889987 0.0164777,0.127527 0.00741971,0.0368192 0.0472504,0.216299 0.0472504,0.231768l0 0.0900025 -0.171009 0 -0.305453 0.0324346 -0.108573 -0.00543102 -0.0467106 -0.314744 -0.0162931 -0.000274629 0 -0.0269989c0,-0.0643294 -0.0224533,-0.166875 -0.036,-0.225016l-0.0180024 0 0 -0.036 0.0180024 0c-0.00234381,-0.0281542 -0.0090012,-0.0319753 -0.0090012,-0.0630036l0 -0.0180024c0,-0.0442247 0.0851018,-0.0260708 0.126353,-0.0266579 0.0371649,-0.000530318 0.0967451,-0.0116717 0.127575,-0.0164351 0.0474256,-0.00732975 0.239154,-0.0109094 0.286102,-0.0109094l0.0360048 -0.0180024 0 -0.0090012 0 -0.0269989 0.0604988 -0.0766735 0.071806 -0.0786717 0.0117001 -0.0426669c0.0124104,-0.149119 -0.0168423,-0.237464 0.0180024,-0.387023l-0.108005 0.216014 0 0.0269989c0,0.0595518 0.00284099,0.0828432 -0.0339687,0.110041 -0.0195981,0.0144843 -0.0694811,0.0500913 -0.0920385,0.0519711 -0.000994346,0.0446414 -0.0477712,0.0800638 -0.0900072,0.0810013l0.0206634 -0.15258 -0.039073 -0.0078506 0.036412 -0.100585c0.00234381,-0.0281495 0.0090012,-0.0319706 0.0090012,-0.0630036l0 -0.0450012c-0.0649355,0 -0.542041,0.0499446 -0.563581,0.0145506 -0.00763752,-0.0125477 -0.0754566,-0.47016 -0.0754566,-0.51858l-0.0402189 -0.0418714 0.0312177 -0.00312982 -0.0105211 -0.134866 0.172533 -0.000142049 0.287551 -0.0322168 0.11747 0.00521795 0 0.0179977 0.0180024 0 0.0356544 -0.0100997 -0.0266532 0.0641021 0.0647792 0.505118 0.0175005 -0.0999317 0.0167239 -0.00916218 0.0182912 -0.224983c0.0105874,-0.0162741 0.0177136,-0.0158527 0.0177136,-0.0360332l0 -0.036c0.0295415,-0.0106916 0.0720048,-0.209314 0.0720048,-0.261016l0 -0.0630036 -0.0990084 -1.06206 -0.0485619 -0.449719 -0.0144417 -0.000303039 -0.0111746 -0.278914 0.00217336 -0.0901114 -0.189011 0 -0.477025 0.0090012z"/>
   <path id="_118985224" class="fil5" d="M4.39225 4.40125l0 0.0090012 0.0875782 -0.0335899 0.0320132 0.276305 0.0167192 0.0262176 0.0580414 0.459392 0.0139635 0.0266343 -0.00130212 0.0460856 0.0269989 0.0360048 -0.0278748 -0.206885 -0.0171264 -0.000127844 -0.0200526 -0.17072 0.00205025 -0.0272924c0,-0.0430173 0.0749642,-0.216308 0.0990037,-0.225011l0 -0.0450012 0.0360048 0c0.00732028,0.0669053 0.0630036,0.15392 0.0630036,0.261011l0 0.234017 0.0066195 0.00646325 0.0533679 -0.054618 0.030015 -0.00585243 -0.00767067 -0.00506169 0.0660624 -0.100045 0.0226143 -0.00289781 0.0109994 0.0807077 -0.00199816 0.126306c0,0.133569 -0.0630036,0.198755 -0.0630036,0.297016 -0.0301192,0.0121594 -0.0519333,0.0994772 -0.065873,0.132139 -0.029016,0.0679848 -0.0709537,0.092976 -0.0781366,0.119875l-0.0179977 0 -0.081006 -0.369021c0,0.181899 0.0383439,0.296533 0.0720048,0.441025l-0.0990084 0c-0.0257109,0 -0.0164588,0.00283152 -0.0269989,0.0180024l0.0900025 0 0.00756176 0.00517533 -0.0795619 0.10283 0 0.0270036 0.0179977 0 0.0090012 -0.0180024 0.0090012 -0.0180024 0.0090012 -0.0090012 0.0090012 -0.0180024 0.00899646 -0.00899646 0.0090012 -0.0090012 0.0090012 -0.0180024 0.0090012 -0.0090012 0.0090012 -0.0090012 0.0180024 -0.0090012 0.0269989 -0.00899646 0.0090012 -0.0630036 0.0090012 -0.0180024 0.0090012 -0.0180024 0.0090012 -0.0090012 0 -0.0179977 0.0179977 0 0 -0.0180024 0.0822797 0.000246219 -0.0102749 0.0267574 -0.0090012 0.036 -0.0090012 0.036 -0.00899646 0.0270036 -0.0090012 0.0450012 -0.0090012 0.0270036 -0.0090012 0.0450012 -0.0090012 0.0360048 0 0.0450012c0.00990558,-0.0113924 0.101428,-0.345653 0.108677,-0.386355 0.0189873,-0.106618 0.133645,-0.329592 0.134336,-0.360687 0.0546559,-0.0289213 0.115794,-0.173172 0.174683,-0.230343 0.0569665,-0.0552998 0.153333,-0.149445 0.194338,-0.210683l0.0272924 -0.0448118 0.0138356 -0.351416c-0.067606,-0.0164493 -0.164971,-0.0282489 -0.233008,-0.0509247 -0.124478,-0.0414879 -0.0985728,-0.0282157 -0.195138,-0.0928766l-0.0103507 -0.0175526 -0.133659 -0.0274534c-0.0713845,0.0477996 -0.16679,0.0809918 -0.250528,0.118493 -0.0547411,0.024513 -0.0692917,0.0452143 -0.121197,0.0678144 -0.0582923,0.0253795 -0.0728477,0.022922 -0.123304,0.0567061z"/>
   <path id="_117745344" class="fil6" d="M1.40408 6.35436l0.0090012 -0.0630036c0.0831036,-0.124104 0.0400248,-0.071323 0.162007,-0.153011 0.0692585,0 0.139474,-0.0376289 0.216711,-0.0533017 0.0485335,-0.00984876 0.201857,-0.0303654 0.215314,-0.0637044l-0.144005 0.0270036 0 -0.0180024c0.0254079,-0.0021118 0.036,0.000208339 0.036,-0.0270036l0 -0.036 0.0900072 0c0.0387132,0 0.0487845,-0.0104927 0.0810013,-0.0180024l0.000250954 -0.0926209 -0.0907459 -0.00619335 -0.00850876 -0.027193c-0.0331401,-0.000738657 -0.0990037,-0.0128081 -0.0990037,-0.0450012l0 -0.0990037c0.0469757,0.0109425 0.135501,0.117006 0.198007,0.117006 0.0473024,0 0.0270036,-0.191421 0.0270036,-0.243013l-0.0535716 -0.0111651 -0.0294326 -0.0408392 -0.00700303 0.0069983c-0.00445088,-0.0406829 -0.0356497,-0.0363315 -0.0698362,-0.0741687 -0.0216815,-0.0239969 -0.0449065,-0.0516018 -0.0672746,-0.0677291 -0.0555176,-0.040039 -0.0820714,-0.105457 -0.141903,-0.137116 0,-0.0865317 -0.0904807,-0.199347 -0.162012,-0.216014 -0.0339924,-0.00791688 -0.0562989,-0.0179977 -0.0990037,-0.0179977l-0.0450012 0c-0.0395607,0 -0.0258625,0.0734727 -0.0360048,0.117006 -0.0201852,0.00470183 -0.0206919,0.0090012 -0.0450012,0.0090012l-0.081006 0c-0.0486472,0 -0.0629989,-0.175938 -0.0629989,-0.225016l-0.0900072 -0.0540024 0.0787711 0.0662566c0.00223491,0.0619051 0.0202326,0.072573 0.0202326,0.131756 0,0.0605793 -0.234012,0.0646988 -0.234012,0.171009l0 0.0360048c0,0.0520848 0.0689934,0.230897 0.0990037,0.243013l0 0.036c0,0.0346553 0.00499067,0.037037 0.0270036,0.045006l0 0.0720001c0.0355834,0.0128839 0.0584912,0.146974 0.0762284,0.193788 0.00701724,0.0185138 0.0766972,0.161671 0.0857789,0.175232l0 0.045006c0.0235423,0.0351477 0.115974,0.241645 0.117011,0.288015l0.0269989 0.0090012z"/>
   <path id="_122863200" class="fil1" d="M3.05117 5.85933c0.011042,0.0413553 0.0269989,0.0227232 0.0269989,0.0540024l0 0.0450012c0,0.0508442 -0.0180024,0.0492343 -0.0180024,0.10801 -0.0263596,0.00954098 -0.0365256,0.0659488 -0.0594429,0.102564 -0.0180213,0.0287934 -0.0127039,0.0265206 -0.0229931,0.058013 -0.0127039,0.0388884 -0.0345701,0.0292385 -0.0345701,0.0464312 0,0.0234571 0.0462844,0.0922563 0.0630036,0.0990084l0 -0.0270036 -0.0090012 -0.0090012 -0.0090012 -0.0269989 -0.00899646 -0.0090012 0.0179977 -0.0090012 0.0180024 -0.0090012 0.0360048 -0.0090012 0.0990037 -0.0090012 0.0269989 -0.0090012 0.117011 -0.00899646 0.0630036 -0.0090012 0.0900025 -0.0090012 0.0540024 -0.0090012 0.0990084 -0.0090012 0.0450012 -0.0090012 0.108005 -0.0090012 0.045006 -0.00899646 0.0630036 -0.0090012 0.0990037 -0.0090012 0.0450012 -0.0090012 0.126007 -0.0090012 0.0450012 -0.0090012 0.126007 -0.00899646 0.0360048 -0.0090012 0.0090012 0 0.036 0 0.081006 -0.0090012 0.036 -0.0090012 0.0540024 -0.0090012 0.045006 -0.0090012 0 -0.081006 0 -0.0990037 0 -0.0179977 0 -0.0270036 0.0795619 -0.10283 -0.00756176 -0.00517533 -0.0900025 0c-0.277138,0 -0.532723,0.0335852 -0.791712,0.0363315 -0.129251,0.00137314 -0.666856,0.105993 -0.738373,0.0716734z"/>
   <path id="_116883208" class="fil21" d="M2.09712 5.55332c0,0.0515923 0.0202989,0.243013 -0.0270036,0.243013 -0.0625065,0 -0.151032,-0.106064 -0.198007,-0.117006l0 0.0990037c0,0.0321931 0.0658636,0.0442626 0.0990037,0.0450012l0.00850876 0.027193 0.0907459 0.00619335 -0.000250954 0.0926209c-0.0322168,0.00750968 -0.0422881,0.0180024 -0.0810013,0.0180024l-0.0900072 0 0 0.036c0,0.0272119 -0.0105921,0.0248918 -0.036,0.0270036l0 0.0180024 0.144005 -0.0270036c0.0525393,0 0.287134,-0.0803337 0.315018,-0.0990037 0.0814985,0 0.118195,-0.0450012 0.216014,-0.0450012 0.0549968,0 0.113673,0.0269989 0.14401,0.0269989 0.059012,0 0.132381,-0.0540024 0.224414,-0.055314l0.0726014 -0.0346885 0.0269989 0 0.0686619 -0.603473 0.0033429 -0.017562c0,-0.0290964 -0.0326714,-0.045006 -0.0630036,-0.045006l-0.036 0c-0.0220224,0 -0.251105,0.0316439 -0.284672,0.0393477 -0.0537988,0.0123536 -0.247682,0.0135894 -0.264359,0.0596607l-0.117011 0c-0.0359764,0 -0.182808,0.0290017 -0.1951,0.0659109 -0.0241768,0.0726251 0.0220934,0.17822 -0.0209097,0.240106z"/>
   <path id="_120381576" class="fil6" d="M0.567033 4.55426l-0.0090012 0.0180024 -0.0090012 0.171009 0 0.0720048 0.0090012 0.189011 0.0090012 0.0450012 0.00899646 0.0630036 0.0090012 0.0270036 0.0090012 0.0450012 0.0090012 0.0180024 0.0090012 0.0179977 0.0090012 0.0360048 0.00899646 0.0179977 0.0090012 0.0270036 0.0090012 0.0180024 0 0.0269989 -0.0090012 -0.0180024 -0.0090012 -0.00899646 -0.00899646 -0.0090012 -0.0090012 -0.0090012 -0.0090012 -0.0090012 -0.0090012 -0.0090012 -0.0090012 -0.0180024 -0.0179977 0 0 -0.0179977 -0.0180024 0 0 -0.0180024 -0.0180024 0 0 -0.0180024 -0.0090012 -0.00899646 -0.00899646 -0.0090012 -0.0090012 -0.0090012 -0.0090012 -0.0090012 -0.0090012 -0.0090012 -0.0180024 0 0 -0.0180024 -0.0179977 0 0 -0.0179977 -0.0180024 -0.0090012 -0.0090012 -0.0180024 -0.0180024 -0.0090012 -0.0090012 -0.0090012 -0.0180024 -0.0090012 -0.00899646 -0.00899646 -0.0090012 -0.0090012 -0.0090012 -0.0090012 -0.0180024 -0.0090012 -0.0090012 -0.0090012 -0.00899646 -0.0090012 -0.0180024 -0.0090012 -0.0090012 -0.00899646 -0.0180024 -0.0090012 -0.00899646 -0.0090012 -0.0270036 -0.0090012 -0.0090012 -0.0090012 -0.0180024 -0.0090012 -0.0179977 -0.00899646 -0.0090012 -0.0090012 -0.0270036 -0.0090012 -0.0090012 -0.0090012 -0.0269989 -0.0090012 -0.0180024 0 -0.0090012 0.0180024 0 0.0720048 0.0090012 0.0269989 0.0090012 0.0270036 0.0090012 0.0450012 0.0090012 0.0270036 0.00899646 0.036 0.0090012 0.0270036 0.0090012 0.0450012 0.0090012 0.0180024 0.0090012 0.036 0.0090012 0.0180024 0.0090012 0.0269989 0.0090012 0.0360048 0.00899646 0.0180024 0.0090012 0.036 0.0090012 0.0180024 0.0090012 0.036 0.0090012 0.0180024 0.0090012 0.0269989 0.0090012 0.0180024 0.00899646 0.0180024 0.0090012 0.0269989 0.0090012 0.0180024 0.0090012 0.0180024 0.0090012 0.0179977 0.0090012 0.0270036 0.00899646 0.0090012 0.0090012 0.0269989 0.0090012 0.0090012 0.0090012 0.0180024 0.0090012 0.0180024 0.0090012 0.0179977 0.00899646 0.0180024 0.0090012 0.0090012 0.0090012 0.0180024 0.0090012 0.00899646 0.00894911 0.0190346 -0.0719527 -0.0100334 -0.0540024 -0.0090012 -0.0269989 -0.00899646 -0.081006 -0.0090012 -0.0630036 -0.0090012 -0.0630036 0 -0.0540024 0.0090012 0 0.0450012 0.0090012 0.0180024 0.0090012 0.0090012 0.00899646 0.0090012 0.0090012 0.0179977 0.0180024 0 0 0.0180024 0.0180024 0 0 0.0180024 0.00899646 0.00899646 0.0090012 0.0090012 0.0090012 0.0090012 0.0090012 0.0090012 0.0090012 0.0090012 0.0090012 0.0090012 0.00899646 0.00899646 0.0090012 0.0090012 0.0090012 0.0090012 0.0090012 0.0090012 0.0090012 0.0090012 0.0090012 0.0090012 0.0180024 0 0 0.0180024 0.0179977 0.00899646 0.0090012 0.0090012 0.0090012 0.0090012 0.0090012 0.0090012 0.0090012 0.0090012 0.0179977 0.0090012 0.0090012 0.0090012 0.0180024 0 0 0.0179977 0.0180024 0.0090012 0.00899646 0.0090012 0.0180024 0.0090012 0.0090012 0.0090012 0.0090012 0.00899646 0.0179977 0.0090012 0.0090012 0.0090012 0.0270036 0.0090012 0.0090012 0.0090012 0.0180024 0.0090012 0.0179977 0.0090012 0.0180024 0.00899646 0.0180024 0.0090012 0.0180024 0.0090012 0.0269989 0.0090012 0.0180024 0.0090012 0.036 0.0090012 0.0180024 0.0090012 0.0540024 0.0090012 0.0270036 0.00899646 0.117006 0.0090012 0.0630036 0.0090012 0.0179977 0 0.0155165 -0.0195365c-0.0174626,-0.0400342 -0.0245177,-0.313664 -0.0245177,-0.394485 0,-0.1532 -0.0204693,-0.23647 -0.0266579,-0.396365 -0.00172827,-0.0446366 -0.0796992,-0.761271 -0.0813469,-0.764704 -0.0191293,-0.0105401 -0.051848,-0.0662282 -0.0630036,-0.108005l0 -0.0090012 -0.0090012 -0.00899646 -0.00899646 -0.0090012 -0.0090012 -0.0090012 -0.0090012 -0.0090012 -0.0090012 -0.0090012 -0.0090012 -0.0090012 -0.0180024 -0.0090012 -0.0090012 -0.0090012 -0.00899646 -0.00899646 -0.0090012 -0.0090012 -0.0090012 -0.0090012 -0.0090012 -0.0090012 -0.0180024 0 -0.00899646 0.0090012z"/>
   <path id="_116871664" class="fil7" d="M4.71627 6.32736c0.0159995,-0.0159995 -0.0160042,0.0160042 0,0zm0.702036 -1.58409c-0.0410049,0.0612375 -0.137371,0.155383 -0.194338,0.210683 -0.0588889,0.0571701 -0.120027,0.201421 -0.174683,0.230343 -0.000691307,0.0310946 -0.115349,0.25407 -0.134336,0.360687 -0.00724925,0.0407019 -0.0987717,0.374963 -0.108677,0.386355l-0.0090012 0 -0.00899646 0.0269989 -0.0090012 0.0450012 -0.0090012 0.0270036 -0.0090012 0.0270036 -0.0090012 0.0540024 -0.0090012 0.0269989 -0.0090012 0.045006 -0.00899646 0.0269989 -0.0090012 0.0450012 -0.0090012 0.0090012 -0.0090012 0.0090012 0 0.0090012 0.000506643 0.0609392 0.134502 0.029068 0 0.0179977 0.0269989 0c0.0326998,0 0.0315728,0.0106821 0.0630036,0.0180024l0.0180024 0 0.0090012 -0.0090012 0.0090012 -0.0090012 0.0090012 -0.00899646 0.0090012 -0.0090012 0.00899646 -0.0180024 0.0090012 -0.0180024 0 -0.0179977 -0.0090012 -0.0090012 0.0090012 -0.0180024 0.0090012 -0.0270036 0.0090012 -0.036 0.0090012 -0.0180024 0.0090012 -0.0450012 0.0090012 -0.0180024 0.00899646 -0.036 0.0090012 -0.0270036 0.0090012 -0.036 0.0090012 -0.0180024 0.0090012 -0.0180024 0.0090012 -0.036 0.00899646 -0.0180024 0.0090012 -0.036 0.0090012 -0.0180024 0.0090012 -0.0540024 0.0090012 -0.0180024 0.0090012 -0.0269989 0.0090012 -0.0270036 0.00899646 -0.036 0.0090012 -0.0180024 0.0090012 -0.0180024 0.0090012 -0.036 0.0090012 -0.0180024 0.0090012 -0.0269989 0.0090012 -0.0180024 0.0090012 -0.0270036 0.00899646 -0.00899646 0.0090012 -0.0180024 0.0090012 -0.0090012 0.0090012 -0.0090012 0.0090012 -0.0090012 0.0090012 -0.0090012 0.00899646 -0.0179977 0.0090012 -0.0090012 0.0090012 -0.0090012 0.0090012 -0.0090012 0.0090012 -0.0090012 0.0090012 -0.0090012 0.00899646 -0.00899646 0.0090012 -0.0090012 0.0090012 -0.0090012 0.0090012 -0.0090012 0.0090012 -0.0090012 0.0090012 -0.0090012 0.0090012 -0.00899646 0.0090012 0.108005 0.00899646 0.0450012 0.0090012 0.135008 0.0090012 0.0540024 0.0090012 0.081006 0.0090012 0.0269989 0.0090012 0.0270036 0.0090012 0.036 0.00899646 0.0180024 0.0090012 0.036 0.0090012 0.0180024 0.0090012 0.0269989 0.0090012 0.0180024 0.0090012 0.0270036 0.0090012 0.0180024 0.00899646 0.00899646 0.0090012 0.0270036 0.0090012 0.0090012 0.0090012 0.0269989 0.0090012 0.0090012 0.0090012 0.0270036 0.00899646 0.0090012 0.0090012 0.0179977 0.0090012 0.0180024 0.0090012 0.0090012 0.0090012 0.0180024 0.0090012 0.0179977 0.0090012 0.0180024 0.00899646 0.0090012 0.0090012 0.0180024 0.0090012 0.0090012 0.0090012 0.0269989 0.0090012 0.0090012 0.0090012 0.0180024 0.0090012 0.0090012 0.0090012 0.00899646 0.00899646 0.0180024 0.0090012 0.0180024 0.0090012 0.0179977 0.0090012 0.0090012 0.0090012 0.0180024 0.0090012 0.0090012 0.00899646 0.0090012 0.0090012 0.0179977 0.0090012 0.0180024 0.0090012 0.0180024 0.0090012 0.0090012 0.0090012 0.0269989 0.00899646 0.0180024 0.0090012 0.036 0.0090012 0.0180024 0.0090012 0.036 0.0450012 0c0.0186984,-0.0516492 0.114601,-0.0246219 0.135008,-0.0810013l0.0360048 0 0 -0.036 -0.0090012 -0.0180024 -0.0090012 -0.0270036 -0.0090012 -0.0090012 -0.0090012 -0.0179977 -0.0090012 -0.0180024 -0.0090012 -0.0270036 -0.00899646 -0.0179977 -0.0090012 -0.0180024 -0.0090012 -0.036 -0.0090012 -0.0270036 -0.0090012 -0.036 -0.0090012 -0.0270036 -0.00899646 -0.0270036 -0.0090012 -0.0179977 -0.0090012 -0.045006 -0.0090012 -0.0179977 -0.0090012 -0.0180024 -0.0090012 0 -0.131112 -0.325549c-0.00389689,-0.152585 0.0142333,-0.30999 0.0230593,-0.44854 0.00432304,-0.0678238 0.0674261,-0.354271 0.108052,-0.368978l0.0090012 -0.135004 0 -0.153011 -0.0102702 0.0267574c-0.0575063,0.000246219 -0.0558917,0.0182439 -0.106736,0.0182439l-0.162007 0c-0.0523641,0 -0.146751,-0.0607166 -0.189011,-0.0720001l-0.045006 0.036z"/>
   <path id="_116881360" class="fil5" d="M4.68026 6.29136l-0.0090012 0.0090012 -0.0090012 0.0090012 -0.00899646 0.0090012 -0.0090012 0.00899646 -0.0090012 0.0090012 -0.0180024 0.0090012 -0.0179977 0.0090012 -0.0090012 0.0090012 -0.0180024 0.0090012 -0.0090012 0.0090012 -0.0179977 0.00899646 -0.0180024 0.0090012 -0.0090012 0.0090012 -0.0180024 0.0090012 -0.0090012 0.0090012 -0.0179977 0.0090012 -0.0090012 0.00899646 -0.0180024 0.0090012 -0.0180024 0.0090012 -0.0090012 0.0090012 -0.0179977 0.0090012 -0.0090012 0.0090012 -0.0180024 0.0090012 0 0.0269989 0.0090012 0.0270036 0.0090012 0 0 -0.0270036 0.0720048 0 0.261016 0 0.00899646 0.0090012 0.0090012 0 0.0630036 -0.0090012 0.0990084 -0.0090012 0.00899646 -0.0090012 0.0090012 -0.0630036 0 -0.036c-0.0314308,-0.00732028 -0.0303039,-0.0180024 -0.0630036,-0.0180024l-0.0269989 0 0 -0.0179977 -0.134502 -0.029068 -0.000506643 -0.0609392 -0.0090012 0 -0.0090012 0.0090012z"/>
   <path id="_116877880" class="fil7" d="M2.00711 6.02134c-0.0134568,0.033339 -0.16678,0.0538557 -0.215314,0.0637044 -0.077237,0.0156728 -0.147452,0.0533017 -0.216711,0.0533017 -0.121983,0.0816879 -0.0789037,0.028907 -0.162007,0.153011l-0.0090012 0.0630036 0.0106584 0.0897752 0.043344 0.108237c0.00592346,0.0221739 0.0719622,0.0821282 0.0934306,0.104577 0.0242715,0.0253748 0.1097,0.0394282 0.158584,0.0394282l0.0540024 0c0.0960064,0 0.15875,-0.0450012 0.234505,-0.0448118l0.00850876 -0.0271882c0.157253,-0.00350388 0.350204,-0.29702 0.459028,-0.29702l0.0540024 0 0 0.0180024 0 0.0090012 -0.0090012 0.0270036 -0.0090012 0.036 -0.0090012 0.0180024 -0.00899646 0.0450012 -0.0090012 0.0180024 -0.0090012 0.0269989 0 0.0360048 0 0.0900025c-0.0250954,0.0101281 -0.0270036,0.0267053 -0.0270036,0.0630036l0 0.0450012 0.0270036 0c0.0362936,0 0.0702055,0.000246219 0.081006,0.0270036l0.0720048 0.0270036 0.0269989 0c0.00366487,-0.0440495 0.096996,-0.157111 0.117006,-0.243013 0.0553472,0.0046024 0.0312461,0.0279553 0.0572175,0.068785 0.0132532,0.0208292 0.0419377,0.0402047 0.0625207,0.0634913 0.0360237,0.0407492 0.0204646,0.0509626 0.0443715,0.0816358 0.0200148,0.0256825 0.0416962,0.0454179 0.0609013,0.0741024l0.0270036 0c0.00141576,-0.0634487 0.0883594,-0.126007 0.135008,-0.126007l0.036 0 0 -0.0180024 0 -0.0270036 -0.0090012 -0.0179977 -0.00899646 -0.0270036 -0.0090012 -0.0179977 -0.0090012 -0.0270036 -0.0090012 -0.0090012 -0.0090012 -0.0090012 -0.0090012 -0.0179977 -0.00899646 -0.0180024 -0.0090012 -0.0270036 -0.0090012 -0.0090012 -0.0090012 -0.0179977 -0.0090012 -0.0090012 -0.0090012 -0.0270036 -0.0090012 -0.0090012 -0.00899646 -0.0179977 -0.0090012 -0.0180024 -0.0090012 -0.0090012 -0.0090012 -0.0179977 -0.0090012 -0.0090012 -0.0090012 0c-0.0167192,-0.00675208 -0.0630036,-0.0755513 -0.0630036,-0.0990084 0,-0.0171927 0.0218661,-0.00754282 0.0345701,-0.0464312 0.0102891,-0.0314923 0.00497173,-0.0292196 0.0229931,-0.058013 0.0229173,-0.0366156 0.0330833,-0.0930234 0.0594429,-0.102564 0,-0.0587753 0.0180024,-0.0571654 0.0180024,-0.10801l0 -0.0450012c0,-0.0312793 -0.0159569,-0.0126471 -0.0269989,-0.0540024l-0.045006 -0.0450012 -0.0269989 0 -0.0726014 0.0346885c-0.0920338,0.00131159 -0.165402,0.055314 -0.224414,0.055314 -0.030337,0 -0.0890129,-0.0269989 -0.14401,-0.0269989 -0.0978199,0 -0.134516,0.0450012 -0.216014,0.0450012 -0.0278843,0.01867 -0.262479,0.0990037 -0.315018,0.0990037z"/>
   <path id="_118984792" class="fil11" d="M5.86833 6.68738l-0.0090012 0.0090012 -0.0090012 0.0090012 -0.0179977 0.0090012 -0.0090012 0.0090012 -0.0090012 0.0090012 -0.0180024 0.0090012 -0.0090012 0.0179977 0 0.081006 0.0270036 0 0.0090012 0 0.225011 0 0.0900072 -0.0090012 0.0090012 -0.00899646 0 -0.0540072 -0.0090012 -0.0269989 -0.0090012 -0.0270036 -0.0090012 -0.0180024 -0.0090012 -0.036 -0.0090012 -0.0180024 -0.0090012 -0.0269989 -0.00899646 -0.0090012 -0.0360048 0c-0.0204078,0.0563794 -0.11631,0.0293521 -0.135008,0.0810013l-0.0450012 0z"/>
   <path id="_116879896" class="fil11" d="M3.01517 6.85839l0.0180024 0.0720048 0.0990037 0c0.0948274,0 0.406782,-0.0471793 0.423028,-0.108005l0.0720001 0 0.0090012 -0.0090012 0 -0.0180024 -0.0090012 -0.0090012 -0.0090012 -0.0090012 -0.00899646 -0.0090012 -0.0090012 -0.0090012 -0.0090012 -0.0090012 -0.0090012 -0.00899646 -0.0180024 0 -0.00899646 0.00899646 -0.0180024 0.0090012 -1.89399e-005 0.0188263 -0.116987 -0.00982508 -0.0360048 -0.0090012 -0.0720048 -0.0090012 -0.0269989 -0.00899646 -0.0540024 -0.0090012 -0.0180024 -0.0090012 -0.0180024 -0.0090012 -0.0090012 0 0 0.0180024 -0.036 0c-0.046649,0 -0.133593,0.0625585 -0.135008,0.126007z"/>
   <path id="_116883160" class="fil11" d="M2.61915 6.81339l-0.0720048 -0.0270036c-0.0495847,-0.00110325 -0.0460287,-0.0180024 -0.0720048,-0.0180024 -0.0310283,0 -0.0348494,0.00665738 -0.0630036,0.0090012 -0.00497173,0.0213406 -0.0270036,0.0956608 -0.0270036,0.108005l0 0.0540024c0.0468053,0.00389689 0.060532,0.0270036 0.126007,0.0270036l0.297016 0c0.0310331,0 0.0348542,-0.00665738 0.0674072,-0.0106111l-0.0195744 -0.0534295 -0.00581455 0.00826727 -0.231024 -0.0972328z"/>
   <path id="_118984624" class="fil22" d="M1.45808 6.55237l-0.0497125 -0.0785912 -0.112295 -0.00241484 -0.00976826 0.0175242 -0.152244 0.0184759 0 0.0270036 0.0090012 0.0360048 0.0090012 0.0179977 0.0090012 0.0180024 0.0090012 0.0090012 0.0180024 0 0 0.0179977 0.0179977 0.0090012 0.0090012 0.0090012 0.0180024 0.0090012 0.0090012 0.0090012 0.0179977 0 0 0.0990037 0.0090012 0.0090012 0.0090012 0.0090012 0.0090012 0.0090012 0.0269989 0.0090012 0.0180024 0.0090012 0.0270036 0.0090012 0.0180024 0.00899646 0.036 0.0090012 0.0270036 0.0090012 0.036 0.0090012 0.0180024 0.0090012 0.0269989 0 0.14401 0 0.108005 0.0090012 0.126007 0.00899646 0.0630036 0.0090012 0.126007 0.0090012 0.0270036 0.0090012 -0.0180024 0.0090012 -0.0090012 0.0090012 -0.0180024 0.00899646 -0.0090012 0.0090012 -0.0179977 0.0090012 -0.0090012 0.0090012 -0.0090012 0.0090012 0 0.0630036 0.0180024 0.0090012 0.0090012 0.0090012 0.0269989 0.0090012 0.0090012 0.00899646 0.0270036 0.0090012 0.0090012 0.0090012 0.0269989 0.0090012 0.0090012 0.0090012 0.0180024 0.0090012 0.0269989 0.00899646 0.0090012 0.0090012 0.0270036 0.0090012 0.0630036 0.0090012 0.117006 0.0090012 0.0540024 0.0090012 0.117006 0.00899646 0.0900072 0.0090012 0.0810013 0.0090012 0.171009 0.0090012 0.378022 0 0.270017 -0.0090012 0.036 -0.0090012 0.0360048 -0.0090012 0.0630036 -0.00899646 0.0269989 -0.0090012 0.0540072 -0.0090012 0.0269989 -0.0090012 0.0360048 -0.0090012 0.00899646 -0.0090012 0.0180024 -0.00899646 0.0090012 -0.0090012 0.0090012 -0.0180024 0.0090012 -0.0090012 0.00899646 -0.0269989 0 -0.0360048 -0.0179977 -0.0090012 -0.0090012 -0.0090012 -0.0180024 -0.00899646 -0.0090012 -0.0090012 -0.00899646 -0.0090012 -0.0090012 -0.0090012 -0.0090012 -0.0090012 -0.0180024 -0.0090012 -0.0090012 -0.0090012 -0.0090012 -0.00899646 -0.00899646 -0.0090012 -0.0180024 -0.0090012 -0.0090012 -0.0090012 -0.0180024 -0.0090012 -0.0090012 -0.0179977 -0.0179977 -0.0090012 -0.0090012 -0.0090012 -0.0180024 -0.0090012 -0.0090012 -0.0090012 -0.0269989 -0.0090012 -0.0180024 -0.00899646 -0.0180024 0 -0.0720001 0c-0.0162457,0.0608255 -0.3282,0.108005 -0.423028,0.108005l-0.0990037 0 -0.0180024 -0.0720048 -0.0270036 0c-0.0192051,-0.0286845 -0.0408865,-0.0484199 -0.0609013,-0.0741024 -0.0239069,-0.0306732 -0.00834777,-0.0408865 -0.0443715,-0.0816358 -0.020583,-0.0232866 -0.0492675,-0.0426622 -0.0625207,-0.0634913 -0.0259714,-0.0408297 -0.00187032,-0.0641826 -0.0572175,-0.068785 -0.02001,0.085902 -0.113341,0.198964 -0.117006,0.243013l-0.0269989 0 0.231024 0.0972328 0.00581455 -0.00826727 0.0195744 0.0534295c-0.032553,0.00395371 -0.0363741,0.0106111 -0.0674072,0.0106111l-0.297016 0c-0.0654753,0 -0.079202,-0.0231067 -0.126007,-0.0270036l0 -0.0540024c0,-0.0123441 0.0220319,-0.0866643 0.0270036,-0.108005 0.0281542,-0.00234381 0.0319753,-0.0090012 0.0630036,-0.0090012 0.0259761,0 0.0224201,0.0168991 0.0720048,0.0180024 -0.0108005,-0.0267574 -0.0447124,-0.0270036 -0.081006,-0.0270036l-0.0270036 0 0 -0.0450012c0,-0.0362983 0.0019082,-0.0528755 0.0270036,-0.0630036l0 -0.0900025 -0.0270036 0 0 -0.0180024 -0.00899646 -0.0090012 -0.0090012 -0.0090012 -0.0090012 -0.0090012 -0.0090012 -0.0090012 -0.0180024 -0.00899646 -0.036 -0.0090012 -0.0180024 -0.0090012 -0.0373542 -0.000449823 0.0103554 -0.0175526 0.0179977 -0.0090012 0.0090012 -0.0090012 0.0090012 -0.00899646 0.0090012 -0.0090012 0.0090012 -0.0090012 0.0180024 -0.0090012 0 -0.0180024 0.0179977 0 0.0090012 -0.00899646 0.0180024 -0.0090012 0 -0.0180024 0.0179977 0 0.0090012 -0.0090012 0.0540024 0 0.0180024 0 0 -0.0180024 -0.0540024 0c-0.108824,0 -0.301774,0.293517 -0.459028,0.29702l-0.00850876 0.0271882c-0.0757549,-0.000189399 -0.138498,0.0448118 -0.234505,0.0448118l-0.0540024 0c-0.0488839,0 -0.134312,-0.0140534 -0.158584,-0.0394282 -0.0214684,-0.0224485 -0.0875071,-0.0824028 -0.0934306,-0.104577z"/>
  </g>
 </g>
</svg>
