<?xml version="1.0" encoding="UTF-8"?>
<!DOCTYPE svg PUBLIC "-//W3C//DTD SVG 1.1//EN" "http://www.w3.org/Graphics/SVG/1.1/DTD/svg11.dtd">
<!-- Creator: CorelDRAW -->
<svg xmlns="http://www.w3.org/2000/svg" xml:space="preserve" width="6.30754in" height="5.78717in" style="shape-rendering:geometricPrecision; text-rendering:geometricPrecision; image-rendering:optimizeQuality; fill-rule:evenodd; clip-rule:evenodd"
viewBox="0 0 6.04789 5.54895"
 xmlns:xlink="http://www.w3.org/1999/xlink">
 <defs>
  <style type="text/css">
   <![CDATA[
    .fil12 {fill:#02C7D2}
    .fil13 {fill:#04283B}
    .fil6 {fill:#08C4BA}
    .fil14 {fill:#18353F}
    .fil20 {fill:#1B6B75}
    .fil10 {fill:#1D414E}
    .fil17 {fill:#234B5C}
    .fil0 {fill:#3A6374}
    .fil1 {fill:#406D83}
    .fil3 {fill:#4267AE}
    .fil16 {fill:#5B889B}
    .fil4 {fill:#662A29}
    .fil21 {fill:#689CB1}
    .fil19 {fill:#77A9E6}
    .fil5 {fill:#893938}
    .fil22 {fill:#98C3FB}
    .fil18 {fill:#DE8865}
    .fil7 {fill:#E2DDDE}
    .fil11 {fill:#F6C9A6}
    .fil15 {fill:#FA3451}
    .fil2 {fill:#FAFCFA}
    .fil8 {fill:#FBA95B}
    .fil9 {fill:#FBAA7E}
   ]]>
  </style>
 </defs>
 <g id="Layer_x0020_1">
  <metadata id="CorelCorpID_0Corel-Layer"/>
  <g id="_117187568">
   <path id="_116900816" class="fil0" d="M0.687946 1.28518c0,0.017629 0.0201733,0.0377985 0.0377985,0.0377985l0.680392 0c0.0176932,0 0.0302373,-0.0125441 0.0302373,-0.0302373l0 -0.00756121c0,-0.0176969 -0.0125441,-0.0302411 -0.0302373,-0.0302411l-0.680392 0c-0.0156849,0 -0.0377985,0.0221174 -0.0377985,0.0302411z"/>
   <path id="_116967144" class="fil1" d="M4.61152 1.28518l0 0.00756121c0,0.0176932 0.0125441,0.0302373 0.0302411,0.0302373l0.680388 0c0.0176969,0 0.0302411,-0.0125441 0.0302411,-0.0302373l0 -0.00756121c0,-0.0176969 -0.0125441,-0.0302411 -0.0302411,-0.0302411l-0.680388 0c-0.0176969,0 -0.0302411,0.0125441 -0.0302411,0.0302411z"/>
   <path id="_117936864" class="fil2" d="M0.907183 1.73121c0.071169,-0.0376588 0.168672,-0.113399 0.272155,-0.113399l0.0604784 0c0.0879449,0 0.129031,0.0465073 0.188996,0.0604784 0.0329251,-0.0518866 -0.0202526,-0.113396 -0.0680358,-0.113396l-1.08862 0c-0.0234726,0 -0.0680396,0.0445632 -0.0680396,0.0680358l0 0.0226799c0,0.109534 0.201627,0.0756008 0.309953,0.0756008 0.13104,0 0.262076,0 0.393115,0z"/>
   <path id="_116967312" class="fil2" d="M4.15793 1.59513c0.130466,0 0.143637,0.00447331 0.143637,0.136079 0.186478,0 0.372953,0 0.559432,0 0.111731,0 0.506511,0.0408298 0.506511,-0.0604784l0 -0.0453597c0,-0.0269644 -0.0438573,-0.0604784 -0.0756008,-0.0604784l-1.0735 0c-0.0286443,0 -0.0481758,0.0134464 -0.0604784,0.0302373z"/>
   <path id="_116967456" class="fil3" d="M0.0831582 1.82949l0.680388 0 0.143637 -0.0982769c-0.13104,0 -0.262076,0 -0.393115,0 -0.108326,0 -0.309953,0.033933 -0.309953,-0.0756008l0 -0.0226799c0,-0.0234726 0.044567,-0.0680358 0.0680396,-0.0680358l1.08862 0c0.0477832,0 0.100961,0.0615089 0.0680358,0.113396 0.00833508,0.0113739 0.0537741,0.0501992 0.0699422,0.066137 0.0366887,0.0361753 0.0324607,0.055016 0.0585758,0.0850608l0.188996 0c0,-0.294778 -0.00155528,-0.234356 0.302396,-0.234356 0,-0.0601575 -0.00835018,-0.105838 -0.0680396,-0.105838l-1.82949 0c-0.0364433,0 -0.0533966,0.0234953 -0.0680358,0.0453597l0 0.294834z"/>
   <path id="_117936936" class="fil3" d="M3.99917 1.59513l0.158759 0c0.0123025,-0.016791 0.0318341,-0.0302373 0.0604784,-0.0302373l1.0735 0c0.0317435,0 0.0756008,0.033514 0.0756008,0.0604784l0 0.0453597c0,0.101308 -0.39478,0.0604784 -0.506511,0.0604784 -0.186478,0 -0.372953,0 -0.559432,0l0 0.0982769 1.66317 0c0,-0.104879 0.0381269,-0.340194 -0.0680396,-0.340194l-1.82949 0c-0.0364433,0 -0.0533966,0.0234953 -0.0680396,0.0453597l0 0.0604784z"/>
   <path id="_116967576" class="fil4" d="M0.725744 1.85973l-0.0824523 0.0849778 0.00548122 0.00791228 -0.0591043 -0.0324117 0 0.0226799c0,0.0546914 0.0188332,0.0851174 0.0376664,0.119149l-0.0905873 0.00936941c0.00393727,0.0472774 0.0501917,0.0791568 0.0955401,0.0830714l-0.0048206 0.211763 0.0831582 -0.0151187 0.0102225 -0.155724 0.057817 -0.0559522c0.116427,0 0.168963,-0.0680396 0.332633,-0.0680396l0.219237 0c0.00924484,0.039686 0.0535514,0.0959138 0.0907195,0.105838l0 0.136075c0,0.0204187 0.00360885,0.0208452 0.00755744,0.0378023l0.0831582 0.0151187c0,-0.154724 0.00378249,-0.221551 -0.0604784,-0.317514 0.0490894,-0.0114381 0.113399,-0.0645025 0.113399,-0.120957l0 -0.0378023c0,-0.0260622 -0.00559447,-0.0292709 -0.00756121,-0.0529172 -0.0516563,0.0743438 -0.0432307,0.0917878 -0.160073,0.112082 -0.0335366,0.00582474 -0.227448,0.00877675 -0.263072,0.00908252 -0.10702,0.000928636 -0.415999,0.134679 -0.415999,-0.0153263l0 -0.0302411c0,-0.0384667 0.0213171,-0.0292822 0.00755744,-0.0529172z"/>
   <path id="_116967696" class="fil5" d="M0.907183 1.73121l-0.143637 0.0982769 -0.0378023 0.0302411c0.0137597,0.0236349 -0.00755744,0.0144505 -0.00755744,0.0529172l0 0.0302411c0,0.150005 0.308979,0.0162549 0.415999,0.0153263 0.0356241,-0.00030577 0.229535,-0.00325778 0.263072,-0.00908252 0.116842,-0.0202941 0.108416,-0.0377381 0.160073,-0.112082l0 -0.00756121c-0.0261151,-0.0300448 -0.0218871,-0.0488855 -0.0585758,-0.0850608 -0.0161681,-0.0159378 -0.0616071,-0.0547631 -0.0699422,-0.066137 -0.059965,-0.0139711 -0.101051,-0.0604784 -0.188996,-0.0604784l-0.0604784 0c-0.103483,0 -0.200986,0.0757405 -0.272155,0.113399z"/>
   <path id="_117937056" class="fil6" d="M1.74633 1.82949l-0.00128348 0.263782 -0.127234 0.20493c0.0662201,0 0.138265,-0.020698 0.200997,-0.0333592 0.0766087,-0.0154659 0.141262,-0.0120005 0.229917,-0.0120005l0.075597 0 0 0.0151187 0.00756121 -0.0151187 0.718187 0c0.0324079,0 0.0907195,-0.0400106 0.0907195,-0.0680396l0 -0.506511c0,-0.125513 -0.240256,-0.0831582 -0.362874,-0.0831582 -0.151198,0 -0.302392,0 -0.453594,0l-0.075597 0c-0.303951,0 -0.302396,-0.0604218 -0.302396,0.234356z"/>
   <path id="_116967864" class="fil7" d="M2.71399 0.00756121l-0.0680396 0.00756121 -0.0529209 0.00755744 -0.045356 0.00756121 -0.0453597 0.00756121 -0.0377985 0.00755744 -0.0378023 0.00756121 -0.0377985 0.00755744 -0.0302411 0.00756121 -0.0302373 0.00756121 -0.0302411 0.00755744 -0.0302373 0.00756121 -0.0226799 0.00756121 -0.0302411 0.00755744 -0.0226799 0.00756121 -0.0302373 0.00756121 -0.0226799 0.00755744 -0.0226799 0.00756121 -0.0226799 0.00756121 -0.0226799 0.00755744 -0.0151187 0.00756121 -0.0226799 0.00756121 -0.0226799 0.00755744 -0.0151187 0.00756121 -0.0226799 0.00756121 -0.0151187 0.00755744 -0.0226799 0.00756121 -0.0151224 0.00755744 -0.0226799 0.00756121 -0.0151187 0.00756121 -0.0151187 0.00755744 -0.0151224 0.00756121 -0.0226799 0.00756121 -0.0151187 0.00755744 -0.0151187 0.00756121 -0.0151187 0.00756121 -0.0151224 0.00755744 -0.0151187 0.00756121 -0.0151187 0.00755744 -0.0151187 0.00756121 -0.0151224 0.00756121 -0.0151187 0.00755744 -0.0151187 0.00756121 -0.0151224 0.00756121 -0.00755744 0.00755744 -0.0151224 0.00756121 -0.0151187 0.00756121 -0.0151187 0.00755744 -0.00756121 0.00756121 -0.0151187 0.00755744 -0.0151224 0.00756121 -0.0151187 0.00756121 -0.00755744 0.00755744 -0.0151224 0.00756121 -0.00755744 0.00756121 -0.0151224 0.00755744 -0.0151187 0.00756121 -0.00756121 0.00756121 -0.0151187 0.00755744 -0.00755744 0.00756121 -0.0151224 0.00756121 -0.00755744 0.00755744 -0.0151224 0.00756121 -0.00755744 0.00756121 -0.0151187 0.00755744 -0.00756121 0.00756121 -0.00756121 0.00756121 -0.0151187 0.00755744 -0.00756121 0.00756121 -0.0151187 0.00755744 -0.00756121 0.00756121 -0.00755744 0.00756121 -0.0151224 0.00755744 -0.00755744 0.00756121 -0.00756121 0.00756121 -0.0151187 0.00755744 -0.00756121 0.00756121 -0.00756121 0.00756121 -0.00755744 0.00755744 -0.0151224 0.00756121 -0.00755744 0.00755744 -0.00756121 0.00756121 -0.00755744 0.00756121 -0.0151224 0.00755744 -0.00755744 0.00756121 -0.00756121 0.00756121 -0.00756121 0.00755744 -0.00755744 0.00756121 -0.0151224 0.00756121 -0.00755744 0.00755744 -0.00756121 0.00756121 -0.00755744 0.00756121 -0.00756121 0.00755744 -0.00756121 0.00756121 -0.00755744 0.00756121 -0.00756121 0.00755744 -0.0151187 0.00756121 -0.00756121 0.00756121 -0.00756121 0.00755744 -0.00755744 0.00756121 -0.00756121 0.00755744 -0.00756121 0.00756121 -0.00755744 0.00756121 -0.00756121 0.00755744 -0.00756121 0.00756121 -0.00755744 0.00756121 -0.00756121 0.00755744 -0.00756121 0.00756121 -0.00755744 0.00756121 -0.00756121 0.00755744 -0.00755744 0.00756121 -0.00756121 0.00755744 -0.00756121 0.00756121 -0.00755744 0.00756121 -0.00756121 0.00755744 -0.00756121 0.00756121 -0.00755744 0.00756121 -0.00756121 0.00755744 -0.00756121 0.0151224 -0.00755744 0.00755744 -0.00756121 0.00756121 -0.00755744 0.00755744 -0.00756121 0.00756121 -0.00756121 0.00756121 -0.00755744 0.00755744 -0.00756121 0.00756121 -0.00756121 0.0151187 -0.00755744 0.00756121 -0.00756121 0.00756121 -0.00756121 0.00755744 -0.00755744 0.00756121 -0.00756121 0.0151187 -0.00756121 0.00756121 -0.00755744 0.00756121 -0.00756121 0.00755744 -0.00756121 0.0151224 -0.00755744 0.00755744 -0.00756121 0.00756121 -0.00756121 0.00755744 -0.00755744 0.0151224 -0.00756121 0.00755744 -0.00755744 0.00756121 0 0.00756121 0.400673 0 0.854266 0c0.0990319,0 0.0982769,0.0870691 0.0982769,0.188996 0,0.096178 0.00755744,0.205685 0.00755744,0.287273 0.151202,0 0.302396,0 0.453594,0 0.122618,0 0.362874,-0.0423549 0.362874,0.0831582l0 0.506511c0,0.028029 -0.0583116,0.0680396 -0.0907195,0.0680396l-0.718187 0 -0.00756121 0.0151187 0 1.31542 0.00756121 0.0302373c0.119092,-0.0277458 0.174825,-0.297043 0.14364,-0.43091 -0.0138389,-0.0261528 -0.0604822,-0.0965178 -0.0604822,-0.128522l0 -0.0377985 0.00603236 -0.00818408 0.0998058 0.0762237c-0.00947511,-0.0406675 -0.045356,-0.167804 -0.045356,-0.204115l0 -0.0226799c0,-0.0382138 0.0121666,-0.0401579 0.0151187,-0.0756008l0.0226799 0c0.0336952,0 0.0331478,0.052853 0.0529172,0.0756008l-0.00167985 -0.0923993 0.0367604 -0.0306261 0.0556389 0.130583c0,-0.0587797 -0.0100678,-0.069391 0.0359865,-0.0925579l0.0345672 0.13121 0.0201658 -0.0613315c0.0170174,0.0124686 0.0377985,0.0466772 0.0377985,0.0756008l0 0.0907195c0,0.0452352 -0.0570658,0.147974 -0.0604784,0.188996 -0.0372587,0.159926 -0.016874,0.261596 -0.0831092,0.408283 -0.0356506,0.0789567 -0.156113,0.234303 -0.257085,0.234303l-0.0226799 0 -0.000294446 0.0160473 -0.0288745 -0.00827845 -0.0086333 0.0224722c0,0.151432 0.0263906,0.883873 -0.0244088,0.943253 -0.0874655,0.102244 -0.232386,0.0697685 -0.414062,0.0697685 -0.163795,0 -0.327593,0 -0.491392,0l0 0.00756121 0.00756121 0.00756121 0.00756121 0.00755744 0.00755744 0.00756121 0.0151224 0.00756121 0.00755744 0.00755744 0.00756121 0.00756121 0.00755744 0.00756121 0.0151224 0.00755744 0.00755744 0.00756121 0.00756121 0.00755744 0.00756121 0.00756121 0.0151187 0.00756121 0.00756121 0.00755744 0.00755744 0.00756121 0.0151224 0.00756121 0.00755744 0.00755744 0.00756121 0.00756121 0.0151187 0.00756121 0.00756121 0.00755744 0.0151187 0.00756121 0.00756121 0.00756121 0.00756121 0.00755744 0.0151187 0.00756121 0.00755744 0.00756121 0.0151224 0.00755744 0.00755744 0.00756121 0.0151224 0.00756121 0.00755744 0.00755744 0.0151187 0.00756121 0.00756121 0.00755744 0.0151187 0.00756121 0.0151224 0.00756121 0.00755744 0.00755744 0.0151224 0.00756121 0.00755744 0.00756121 0.0151187 0.00755744 0.0151224 0.00756121 0.0151187 0.00756121 0.00756121 0.00755744 0.0151187 0.00756121 0.0151187 0.00755744 0.0151224 0.00756121 0.00755744 0.00756121 0.0151224 0.00755744 0.0151187 0.00756121 0.0151187 0.00756121 0.0151224 0.00755744 0.0151187 0.00756121 0.0151187 0.00756121 0.0151187 0.00755744 0.0151224 0.00756121 0.0151187 0.00756121 0.0151187 0.00755744 0.0151187 0.00756121 0.0226799 0.00756121 0.0151224 0.00755744 0.0151187 0.00756121 0.0151187 0.00756121 0.0226799 0.00755744 0.0151224 0.00756121 0.0226799 0.00755744 0.0151187 0.00756121 0.0226799 0.00756121 0.0151187 0.00755744 0.0226799 0.00756121 0.0226799 0.00756121 0.0151187 0.00755744 0.0226799 0.00756121 0.0226799 0.00756121 0.0226799 0.00755744 0.0226799 0.00756121 0.0302373 0.00755744 0.0226799 0.00756121 0.0302411 0.00756121 0.0226799 0.00755744 0.0302373 0.00756121 0.0302411 0.00756121 0.0302373 0.00755744 0.0302411 0.00756121 0.0377985 0.00756121 0.0378023 0.00755744 0.0377985 0.00756121 0.0453597 0.00755744 0.045356 0.00756121 0.0529209 0.00756121 0.0680396 0.00755744 0.0831582 0.00756121 0.423352 0 0.0831582 -0.00756121 0.0680396 -0.00755744 0.0529172 -0.00756121 0.0453597 -0.00756121 0.0453597 -0.00755744 0.0377985 -0.00756121 0.0378023 -0.00755744 0.0377985 -0.00756121 0.0302373 -0.00756121 0.0302411 -0.00755744 0.0302373 -0.00756121 0.0302411 -0.00756121 0.0226799 -0.00755744 0.0302411 -0.00756121 0.0226799 -0.00756121 0.0302373 -0.00755744 0.0226799 -0.00756121 0.0226799 -0.00755744 0.0226799 -0.00756121 0.0226799 -0.00756121 0.0151187 -0.00755744 0.0226799 -0.00756121 0.0226799 -0.00756121 0.0151187 -0.00755744 0.0226799 -0.00756121 0.0151187 -0.00756121 0.0226799 -0.00755744 0.0151224 -0.00756121 0.0226799 -0.00755744 0.0151187 -0.00756121 0.0151187 -0.00756121 0.0151224 -0.00755744 0.0226761 -0.00756121 0.0151224 -0.00756121 0.0151187 -0.00755744 0.0151187 -0.00756121 0.0151187 -0.00756121 0.0151224 -0.00755744 0.0151187 -0.00756121 0.0151187 -0.00756121 0.0151224 -0.00755744 0.0151187 -0.00756121 0.0151187 -0.00756121 0.0151224 -0.00755744 0.00755744 -0.00756121 0.0151224 -0.00756121 0.0151187 -0.00755744 0.0151187 -0.00756121 0.00756121 -0.00755744 0.0151187 -0.00756121 0.0151187 -0.00756121 0.0151224 -0.00755744 0.00755744 -0.00756121 0.0151224 -0.00756121 0.00755744 -0.00755744 0.0151187 -0.00756121 0.0151224 -0.00756121 0.00755744 -0.00755744 0.0151224 -0.00756121 0.00755744 -0.00755744 0.0151187 -0.00756121 0.00756121 -0.00756121 0.0151187 -0.00755744 0.00756121 -0.00756121 0.0151187 -0.00756121 0.00756121 -0.00755744 0.00756121 -0.00756121 0.0151187 -0.00756121 0.00756121 -0.00755744 0.0151187 -0.00756121 0.00756121 -0.00756121 0.00755744 -0.00755744 0.0151224 -0.00756121 0.00755744 -0.00756121 0.00756121 -0.00755744 0.0151187 -0.00756121 0.00756121 -0.00756121 0.00755744 -0.00755744 0.00756121 -0.00756121 0.0151187 -0.00755744 0.00756121 -0.00756121 0.00756121 -0.00756121 0.00755744 -0.00755744 0.0151224 -0.00756121 0.00755744 -0.00756121 0.00756121 -0.00755744 0.00755744 -0.00756121 0 -0.00756121c-0.156234,0 -0.312471,0 -0.468708,0 -0.170341,0 -0.328148,0.0279459 -0.409325,-0.0669449 -0.0460996,-0.0538873 -0.0215889,-0.787385 -0.0215889,-0.930958 -0.0326042,-0.0283385 -0.104566,-0.0672129 -0.146713,-0.0952041 -0.0585267,-0.0388668 -0.0832413,-0.0724638 -0.11811,-0.131361 -0.0548084,-0.0925767 -0.0980504,-0.2524 -0.0980504,-0.400903 -0.00748571,-0.0117967 -0.0453597,-0.130417 -0.0453597,-0.151198l0 -0.188996c0,-0.0277609 0.00697987,-0.0831582 0.0302411,-0.0831582 0.0355336,0 0.0390027,0.0170174 0.0529172,0.0377985 0,0.0469414 -0.0131934,0.0811387 0.0226799,0.0907195 0.00395237,-0.016957 0.00756121,-0.0173836 0.00756121,-0.0377985l0 -0.0982807c0,-0.0204187 -0.00360885,-0.0208415 -0.00756121,-0.0377985 0.00608899,-0.00423171 0.0186671,-0.0151187 0.0226799,-0.0151187 0.0327816,0 0.0233367,0.012027 0.0604784,0.0151187l0 0.136079c0,0.0209132 0.00583229,0.0181801 0.0226799,0.0226799l0 -0.0907195c0,-0.0112267 0.0163266,-0.0333516 0.0254431,-0.0499425l0.0610748 0.0368057 -0.0052585 0.00564732 0.00946001 0.173806c0.0191201,-0.0128046 0.0408713,-0.0453597 0.0604784,-0.0453597 0.0112267,0 0.0333516,0.0163266 0.0453597,0.0226799l0 -0.748428c-0.14868,0 -0.297356,0 -0.446032,0 -0.114985,0 -0.370435,0.039871 -0.370435,-0.075597l0 -0.468712c0,-0.16344 0.179812,-0.113399 0.347755,-0.113399 0.156237,0 0.312475,0 0.468712,0 0,-0.10788 -0.0141372,-0.356317 0.0191503,-0.426882 0.0399125,-0.0846041 0.286911,-0.0493876 0.404202,-0.0493876 0.302396,0 0.604791,0 0.907183,0l0 -0.00756121 -0.00755744 -0.00756121 -0.00756121 -0.00755744 -0.00756121 -0.0151224 -0.00755744 -0.00755744 -0.00756121 -0.00756121 -0.00756121 -0.00755744 -0.00755744 -0.0151224 -0.00756121 -0.00755744 -0.00755744 -0.00756121 -0.00756121 -0.00756121 -0.00756121 -0.0151187 -0.00755744 -0.00756121 -0.00756121 -0.00755744 -0.00756121 -0.00756121 -0.00755744 -0.00756121 -0.00756121 -0.0151187 -0.00756121 -0.00756121 -0.00755744 -0.00755744 -0.00756121 -0.00756121 -0.00756121 -0.00756121 -0.00755744 -0.00755744 -0.00756121 -0.00756121 -0.00756121 -0.00755744 -0.00755744 -0.0151224 -0.00756121 -0.00755744 -0.00756121 -0.00756121 -0.00755744 -0.00756121 -0.00756121 -0.00755744 -0.00755744 -0.00756121 -0.00756121 -0.00756121 -0.00756121 -0.00755744 -0.00755744 -0.00756121 -0.00756121 -0.00755744 -0.00756121 -0.00756121 -0.00755744 -0.00756121 -0.00756121 -0.00755744 -0.00756121 -0.00756121 -0.00755744 -0.00756121 -0.00756121 -0.00755744 -0.00755744 -0.00756121 -0.00756121 -0.00756121 -0.00756121 -0.00755744 -0.00755744 -0.00756121 -0.00756121 -0.00755744 -0.00756121 -0.00756121 -0.0151187 -0.00756121 -0.00756121 -0.00755744 -0.00755744 -0.00756121 -0.00756121 -0.00756121 -0.00756121 -0.00755744 -0.00755744 -0.00756121 -0.00756121 -0.00756121 -0.00756121 -0.00755744 -0.0151187 -0.00756121 -0.00756121 -0.00756121 -0.00755744 -0.00755744 -0.00756121 -0.00756121 -0.00755744 -0.00756121 -0.0151224 -0.00755744 -0.00755744 -0.00756121 -0.00756121 -0.00756121 -0.00756121 -0.00755744 -0.0151187 -0.00756121 -0.00756121 -0.00755744 -0.00755744 -0.00756121 -0.00756121 -0.00756121 -0.0151187 -0.00755744 -0.00756121 -0.00756121 -0.00755744 -0.00756121 -0.0151224 -0.00755744 -0.00755744 -0.00756121 -0.00756121 -0.00756121 -0.0151187 -0.00755744 -0.00756121 -0.00756121 -0.0151187 -0.00755744 -0.00756121 -0.00756121 -0.00756121 -0.00756121 -0.0151187 -0.00755744 -0.00756121 -0.00756121 -0.0151187 -0.00756121 -0.00756121 -0.00755744 -0.0151187 -0.00756121 -0.00755744 -0.00756121 -0.0151224 -0.00755744 -0.00755744 -0.00756121 -0.0151224 -0.00756121 -0.0151187 -0.00755744 -0.00755744 -0.00756121 -0.0151224 -0.00756121 -0.00755744 -0.00755744 -0.0151224 -0.00756121 -0.0151187 -0.00756121 -0.0151187 -0.00755744 -0.00756121 -0.00756121 -0.0151187 -0.00755744 -0.0151187 -0.00756121 -0.0151224 -0.00756121 -0.00755744 -0.00755744 -0.0151224 -0.00756121 -0.0151187 -0.00756121 -0.0151187 -0.00755744 -0.0151224 -0.00756121 -0.0151187 -0.00756121 -0.0151187 -0.00755744 -0.0151224 -0.00756121 -0.0151187 -0.00755744 -0.0151187 -0.00756121 -0.0151187 -0.00756121 -0.0151224 -0.00755744 -0.0226761 -0.00756121 -0.0151224 -0.00756121 -0.0151187 -0.00755744 -0.0151187 -0.00756121 -0.0226799 -0.00756121 -0.0151224 -0.00755744 -0.0226799 -0.00756121 -0.0151187 -0.00755744 -0.0226799 -0.00756121 -0.0151187 -0.00756121 -0.0226799 -0.00755744 -0.0226799 -0.00756121 -0.0151187 -0.00756121 -0.0226799 -0.00755744 -0.0226799 -0.00756121 -0.0226799 -0.00756121 -0.0226799 -0.00755744 -0.0302373 -0.00756121 -0.0226799 -0.00756121 -0.0302411 -0.00755744 -0.0226799 -0.00756121 -0.0302411 -0.00756121 -0.0302373 -0.00755744 -0.0302411 -0.00756121 -0.0302373 -0.00756121 -0.0377985 -0.00755744 -0.0378023 -0.00756121 -0.0377985 -0.00755744 -0.0453597 -0.00756121 -0.0453597 -0.00756121 -0.0529172 -0.00755744 -0.0680396 -0.00756121 -0.0831582 -0.00756121 -0.423352 0 -0.0831582 0.00756121z"/>
   <path id="_116968032" class="fil8" d="M3.92357 2.25284l0.075597 0c0.197135,0 0.275329,0.0166739 0.434772,0.0504861l-0.132376 -0.209241 0 -0.264597 0 -0.0982769c0,-0.131606 -0.0131708,-0.136079 -0.143637,-0.136079l-0.158759 0 -0.075597 0c-0.156237,0 -0.312475,0 -0.468712,0 -0.167943,0 -0.347755,-0.0500407 -0.347755,0.113399l0 0.468712c0,0.115468 0.25545,0.075597 0.370435,0.075597 0.148676,0 0.297352,0 0.446032,0z"/>
   <path id="_117919008" class="fil4" d="M1.21714 2.25284l0 0.0453597c0.0266209,0.00620223 0.132731,0.0377985 0.14364,0.0377985 0.0105925,0 0.0151187,-0.0103056 0.0151187,-0.0226799l0 -0.00755744c0,-0.0308979 -0.0841322,-0.0604784 -0.120961,-0.0604784 -0.0119099,0 -0.0286443,0.00400522 -0.0377985,0.00755744z"/>
   <path id="_116968128" class="fil4" d="M0.755985 2.30576l0 0.00755744c0,0.0123743 0.00452616,0.0226799 0.0151187,0.0226799 0.015851,0 0.151198,-0.0342576 0.151198,-0.0529172 0,-0.0173157 -0.00256319,-0.00879185 -0.00755744,-0.0302411 -0.0480437,-0.0111927 -0.158759,0.0132387 -0.158759,0.0529209z"/>
   <path id="_116968224" class="fil9" d="M1.3759 2.31332c0,0.0123743 -0.00452616,0.0226799 -0.0151187,0.0226799 -0.0109096,0 -0.117019,-0.0315963 -0.14364,-0.0377985l0 -0.0453597c0.00915424,-0.00355222 0.0258886,-0.00755744 0.0377985,-0.00755744 0.0368284,0 0.120961,0.0295805 0.120961,0.0604784l0 0.00755744zm-0.61991 -0.00755744c0,-0.0396822 0.110715,-0.0641137 0.158759,-0.0529209 0.00499425,0.0214492 0.00755744,0.0129254 0.00755744,0.0302411 0,0.0186595 -0.135347,0.0529172 -0.151198,0.0529172 -0.0105925,0 -0.0151187,-0.0103056 -0.0151187,-0.0226799l0 -0.00755744zm-0.0453597 0.0453597l0.718187 0c-0.00394859,-0.016957 -0.00755744,-0.0173836 -0.00755744,-0.0378023l0 -0.136075c-0.0371681,-0.00992433 -0.0814746,-0.0661521 -0.0907195,-0.105838l-0.219237 0c-0.16367,0 -0.216206,0.0680396 -0.332633,0.0680396l-0.057817 0.0559522 -0.0102225 0.155724z"/>
   <path id="_117936600" class="fil10" d="M1.2247 2.43428l0 0.0529172c0,0.017629 0.0201695,0.0377985 0.0377985,0.0377985 0.035292,0 0.0529209,-0.0176252 0.0529209,-0.0529172l0 -0.0302411c0,-0.0277496 -0.0117137,-0.0365415 -0.0226799,-0.0529172l0.0907195 0 0 0.105838c0,0.030309 -0.0467716,0.0680396 -0.083162,0.0680396l-0.0680358 0c-0.0380099,0 -0.0756008,-0.0375909 -0.0756008,-0.0756008l0 -0.0982769 0.0907195 0c-0.0133331,0.0126461 -0.0226799,0.0182972 -0.0226799,0.0453597zm-0.400673 0.00755744l0 0.0378023c0,0.0235406 0.023918,0.045356 0.0529172,0.045356 0.017629,0 0.0378023,-0.0201695 0.0378023,-0.0377985l0 -0.0529172c0,-0.0270626 -0.00935054,-0.0327137 -0.0226799,-0.0453597l0.0907157 0 0 0.0907195c0,0.0441706 -0.0389876,0.0831582 -0.0831582,0.0831582l-0.0680396 0c-0.0380061,0 -0.075597,-0.0375909 -0.075597,-0.0756008l0 -0.0982769 0.0982769 0c-0.016387,0.0142429 -0.0302373,0.0213775 -0.0302373,0.0529172zm-0.113399 -0.0907157l-0.0831582 0.0151187 -0.0377985 0.0377985 0.0377985 0 0 0.0756008c0.043174,-0.0289123 0.0351749,-0.0894813 0.0907195,-0.0907195l0 0.105838c0,0.0472095 0.0586287,0.105838 0.105838,0.105838l0.0831582 0c0.10004,0 0.113396,-0.0988054 0.113396,-0.204115 0.0131293,-0.00630038 0.0335291,-0.0151224 0.0529209,-0.0151224 0.0178328,0 0.0336385,0.0148318 0.0453597,0.0226799 0,0.100757 0.0109058,0.196558 0.105838,0.196558l0.0831582 0c0.0567412,0 0.113399,-0.0586136 0.113399,-0.120957l0 -0.0907195 0.034435 0.00216304 0.0498821 0.0775525 0.00639853 -0.00411846 0 -0.0604784 0.0378023 0 -0.0378023 -0.0377985 -0.0831582 -0.0151187 -0.718187 0z"/>
   <path id="_116982552" class="fil0" d="M4.69468 2.54012l0 -0.0302411c0,-0.035292 0.0176252,-0.0529172 0.0529172,-0.0529172 0.017629,0 0.0377985,0.0201695 0.0377985,0.0377985l0 0.0529172c0,0.0204187 -0.00360885,0.0208452 -0.00755744,0.0378023 -0.0202715,0.0048508 -0.0142504,0.00755744 -0.0302411,0.00755744 -0.035292,0 -0.0529172,-0.0176252 -0.0529172,-0.0529172zm-0.0378023 -0.0529209l0 0.0756008c0,0.0356317 0.0421586,0.075597 0.0680396,0.075597l0.0226799 0c0.0441744,0 0.0831582,-0.0389876 0.0831582,-0.0831582l0 -0.0604784c0,-0.0405958 -0.0425625,-0.0831582 -0.0831582,-0.0831582l-0.00756121 0c-0.0395652,0 -0.0831582,0.0337782 -0.0831582,0.075597z"/>
   <path id="_116982480" class="fil11" d="M1.2247 2.43428c0,-0.0270626 0.00934676,-0.0327137 0.0226799,-0.0453597l-0.0907195 0 0 0.0982769c0,0.0380099 0.0375909,0.0756008 0.0756008,0.0756008l0.0680358 0c0.0363905,0 0.083162,-0.0377306 0.083162,-0.0680396l0 -0.105838 -0.0907195 0c0.0109662,0.0163757 0.0226799,0.0251676 0.0226799,0.0529172l0 0.0302411c0,0.035292 -0.017629,0.0529172 -0.0529209,0.0529172 -0.017629,0 -0.0377985,-0.0201695 -0.0377985,-0.0377985l0 -0.0529172z"/>
   <path id="_117937512" class="fil12" d="M4.69468 2.54012c0,0.035292 0.0176252,0.0529172 0.0529172,0.0529172 0.0159907,0 0.00996963,-0.00270664 0.0302411,-0.00755744 0.00394859,-0.016957 0.00755744,-0.0173836 0.00755744,-0.0378023l0 -0.0529172c0,-0.017629 -0.0201695,-0.0377985 -0.0377985,-0.0377985 -0.035292,0 -0.0529172,0.0176252 -0.0529172,0.0529172l0 0.0302411z"/>
   <path id="_116982408" class="fil11" d="M0.824025 2.44184c0,-0.0315397 0.0138503,-0.0386743 0.0302373,-0.0529172l-0.0982769 0 0 0.0982769c0,0.0380099 0.0375909,0.0756008 0.075597,0.0756008l0.0680396 0c0.0441706,0 0.0831582,-0.0389876 0.0831582,-0.0831582l0 -0.0907195 -0.0907157 0c0.0133293,0.0126461 0.0226799,0.0182972 0.0226799,0.0453597l0 0.0529172c0,0.017629 -0.0201733,0.0377985 -0.0378023,0.0377985 -0.0289991,0 -0.0529172,-0.0218154 -0.0529172,-0.045356l0 -0.0378023z"/>
   <path id="_116982336" class="fil12" d="M5.20119 2.50988l0 0.0302411c0,0.0254733 0.0133595,0.0529172 0.0377985,0.0529172l0.00756121 0c0.0204187,0 0.0208415,-0.00360885 0.0377985,-0.00755744 0.00394859,-0.016957 0.00755744,-0.0173836 0.00755744,-0.0378023l0 -0.0529172c0,-0.017629 -0.0201695,-0.0377985 -0.0377985,-0.0377985 -0.035292,0 -0.0529172,0.0176252 -0.0529172,0.0529172z"/>
   <path id="_117909384" class="fil0" d="M5.20119 2.50988c0,-0.035292 0.0176252,-0.0529172 0.0529172,-0.0529172 0.017629,0 0.0377985,0.0201695 0.0377985,0.0377985l0 0.0529172c0,0.0204187 -0.00360885,0.0208452 -0.00755744,0.0378023 -0.016957,0.00394859 -0.0173798,0.00755744 -0.0377985,0.00755744l-0.00756121 0c-0.024439,0 -0.0377985,-0.0274438 -0.0377985,-0.0529172l0 -0.0302411zm-0.0377985 -0.0226799l0 0.0756008c0,0.0356317 0.0421586,0.075597 0.0680358,0.075597l0.0226799 0c0.0441744,0 0.0831582,-0.0389876 0.0831582,-0.0831582l0 -0.0604784c0,-0.0449671 -0.0451295,-0.0831582 -0.0907157,-0.0831582 -0.039569,0 -0.0831582,0.0337782 -0.0831582,0.075597z"/>
   <path id="_117202616" class="fil13" d="M0.604788 4.56616l0 -0.0151187c0,-0.0577227 0.0535098,-0.0831582 0.113399,-0.0831582l0.710626 0c0.0363905,0 0.0831582,0.0377268 0.0831582,0.0680396l0 0.0377985c0,0.0380099 -0.0375871,0.075597 -0.075597,0.075597l-0.748428 0c-0.0441706,0 -0.0831582,-0.0389839 -0.0831582,-0.0831582zm0.831586 -3.27342c0,0.0176932 -0.0125441,0.0302373 -0.0302373,0.0302373l-0.680392 0c-0.0176252,0 -0.0377985,-0.0201695 -0.0377985,-0.0377985 0,-0.00812368 0.0221136,-0.0302411 0.0377985,-0.0302411l0.680392 0c0.0176932,0 0.0302373,0.0125441 0.0302373,0.0302411l0 0.00756121zm-1.28518 -0.16632l-0.0907157 0.00756121 -0.0226799 0.00756121 -0.0151187 0.00755744 -0.00756121 0.0151187 -0.00756121 0.0151224 -0.00755744 0.0377985 0 2.4116 0.00755744 1.1491 0.00756121 0.0226799 0.00756121 0.0151224 0.00755744 0.00755744 0.00756121 0.00756121 0.00756121 0.00756121 0.00755744 0.00755744 0.00756121 0.00756121 0.00755744 0.00756121 0.00756121 0.00755744 0.0151187 0.00756121 0.0226799 0.00755744 1.08106 0c0.163799,0 0.327597,0 0.491392,0 0.181677,0 0.326597,0.0324758 0.414062,-0.0697685 0.0507994,-0.0593799 0.0244088,-0.791821 0.0244088,-0.943253l0 -0.0302411 -0.075597 0c0,0.103007 0.0388819,0.438143 -0.0299542,0.47656 -0.0557559,0.0311131 -0.397313,0.0148318 -0.499236,0.0148318l-0.298421 -0.000505843 -0.107084 -0.865417 0.0728715 -0.0563788 -0.0982807 -0.113399 -0.0453597 0 -0.0982769 0.113399 0.0753819 0.0528945 -0.0980617 0.869407 -0.680388 0c-0.11896,0 -0.115691,0.0151262 -0.166362,-0.0604784l0.00760651 -2.44184 0 -0.294834c0.0146392,-0.0218645 0.0315925,-0.0453597 0.0680358,-0.0453597l1.82949 0c0.0596894,0 0.0680396,0.0456806 0.0680396,0.105838l0.075597 0c0,-0.0815879 -0.00755744,-0.191095 -0.00755744,-0.287273 0,-0.101927 0.000754989,-0.188996 -0.0982769,-0.188996l-0.854266 0 -0.400673 0 -0.559432 0 -0.0529209 0.00755744z"/>
   <polygon id="_117933576" class="fil2" points="0.861824,2.69887 1.27006,2.69887 1.27761,2.65352 0.861824,2.65352 "/>
   <path id="_117911136" class="fil0" d="M4.49812 2.82739l0 -0.370432c-0.0796136,0 -0.143637,0.0577491 -0.143637,0.136075 -0.0401126,0.000894662 -0.0604822,0.0126989 -0.0604822,0.0529209 0,0.040222 0.0203696,0.0520263 0.0604822,0.0529172 0,0.0762426 0.0656652,0.128518 0.143637,0.128518z"/>
   <path id="_117192584" class="fil14" d="M0.914745 2.79715c0.0337593,-0.00786698 0.0853137,-0.0302411 0.120957,-0.0302411l0.0302373 0c0.0572206,0 0.112833,0.0118307 0.151198,0.0302411l0.0529209 -0.0982807 -0.408234 0 0.0529209 0.0982807z"/>
   <path id="_117934536" class="fil0" d="M5.48846 2.82739l0.0680396 0c0.0466243,-0.0312188 0.0814482,-0.0517885 0.0831582,-0.128518 0.0377721,-0.000841813 0.0529209,-0.0147336 0.0529209,-0.0529172 0,-0.037489 -0.0177347,-0.0499916 -0.0529209,-0.0529209l0 -0.0226799c0,-0.0743211 -0.0685001,-0.113396 -0.151198,-0.113396l0 0.370432z"/>
   <path id="_117923040" class="fil15" d="M0.914745 2.79715c0.0191578,0.0286141 0.0875636,0.0680358 0.136075,0.0680358 0.0752082,0 0.136234,-0.023114 0.166316,-0.0680358 -0.0383648,-0.0184104 -0.0939772,-0.0302411 -0.151198,-0.0302411l-0.0302373 0c-0.035643,0 -0.0871974,0.0223741 -0.120957,0.0302411z"/>
   <path id="_117199592" class="fil16" d="M4.75516 2.78959c0,-0.0174176 0.0052585,-0.0226799 0.0226799,-0.0226799l0.43091 0c0.0146053,0 0.0302411,0.0134803 0.0302411,0.0226799 0,0.050086 -0.123044,0.128518 -0.181439,0.128518l-0.0907157 0c-0.0842266,0 -0.211676,-0.0635625 -0.211676,-0.128518zm0.408234 -0.302396c0,-0.0418188 0.0435893,-0.075597 0.0831582,-0.075597 0.0455862,0 0.0907157,0.0381911 0.0907157,0.0831582l0 0.0604784c0,0.0441706 -0.0389839,0.0831582 -0.0831582,0.0831582l-0.0226799 0c-0.0258772,0 -0.0680358,-0.0399653 -0.0680358,-0.075597l0 -0.0756008zm-0.506514 0c0,-0.0418188 0.0435931,-0.075597 0.0831582,-0.075597l0.00756121 0c0.0405958,0 0.0831582,0.0425625 0.0831582,0.0831582l0 0.0604784c0,0.0441706 -0.0389839,0.0831582 -0.0831582,0.0831582l-0.0226799 0c-0.025881,0 -0.0680396,-0.0399653 -0.0680396,-0.075597l0 -0.0756008zm-0.158755 -0.0302373l0 0.370432c0,0.108171 -0.0168363,0.18786 0.0782395,0.209038 0.0706292,0.0157302 0.227995,-0.0209396 0.277073,0.0101999l0.279716 0c0.0490554,-0.0311282 0.207395,0.00516035 0.278485,-0.00879185 0.0934034,-0.0183274 0.0768277,-0.101644 0.0768277,-0.210446l0 -0.370432c0,-0.132923 0.0262925,-0.234356 -0.111508,-0.234356l-0.364762 0 0 -0.196558c0.0375871,-0.00875787 0.0680358,-0.0376664 0.0680358,-0.0831582 0,-0.0233631 -0.0222986,-0.0501011 -0.0377985,-0.0604784 -0.0182821,-0.00877297 -0.0330723,-0.0151187 -0.0604784,-0.0151187 -0.030309,0 -0.0680396,0.0467678 -0.0680396,0.0831545 0,0.0609238 0.0604784,0.0590024 0.0604784,0.0907195l0 0.181439 -0.385554 0c-0.0492781,0 -0.071086,0.0387196 -0.0907157,0.0680358l0 0.16632z"/>
   <path id="_117922992" class="fil2" d="M5.20875 2.76691l-0.43091 0c-0.0174214,0 -0.0226799,0.00526227 -0.0226799,0.0226799 0,0.0649555 0.12745,0.128518 0.211676,0.128518l0.0907157 0c0.0583946,0 0.181439,-0.078432 0.181439,-0.128518 0,-0.00919954 -0.0156358,-0.0226799 -0.0302411,-0.0226799z"/>
   <path id="_117905784" class="fil9" d="M1.21714 2.79715c-0.0300825,0.0449218 -0.0911083,0.0680358 -0.166316,0.0680358 -0.0485118,0 -0.116918,-0.0394217 -0.136075,-0.0680358l-0.0529209 -0.0982807 0 -0.045356 0.415791 0 -0.00755744 0.045356 -0.0529209 0.0982807zm-0.627467 -0.393115c-0.0477077,0.00106453 -0.0831582,0.0200978 -0.0831582,0.0680396l0 0.0604784c0,0.063555 0.0366698,0.131655 0.0698553,0.164497 0.0169533,0.0167759 0.0640382,0.0496518 0.0674469,0.0535136 0.00166853,0.00189125 0.0311584,0.0740795 0.0364584,0.0844984 0.039954,0.0785037 0.160624,0.202899 0.26471,0.211563l0 0.151198 0.00756121 0 -0.000237821 -0.141844 0.121195 0.0133256c0.0299127,0.00394859 0.0899154,-0.00964876 0.113399,-0.0151224 0.125732,-0.0603274 0.202182,-0.086265 0.267194,-0.216633 0.0172477,-0.0345823 0.0214379,-0.0596366 0.0338839,-0.0870766 0.0119364,-0.0263189 0.0411695,-0.0391084 0.0598706,-0.0610861 0.0350202,-0.0411431 0.0624036,-0.105446 0.0624036,-0.179514l0 -0.0226799c0,-0.0712974 -0.0253148,-0.0608446 -0.0604784,-0.0831582l-0.0378023 0 0 0.0604784 -0.00639853 0.00411846 -0.0498821 -0.0775525 -0.034435 -0.00216304 0 0.0907195c0,0.0623432 -0.0566581,0.120957 -0.113399,0.120957l-0.0831582 0c-0.0949323,0 -0.105838,-0.0958005 -0.105838,-0.196558 -0.0117212,-0.00784811 -0.0275269,-0.0226799 -0.0453597,-0.0226799 -0.0193919,0 -0.0397917,0.00882204 -0.0529209,0.0151224 0,0.10531 -0.0133558,0.204115 -0.113396,0.204115l-0.0831582 0c-0.0472095,0 -0.105838,-0.0586287 -0.105838,-0.105838l0 -0.105838c-0.0555445,0.00123818 -0.0475454,0.0618072 -0.0907195,0.0907195l0 -0.0756008 -0.0377985 0z"/>
   <path id="_117201704" class="fil17" d="M4.85343 3.04663l-0.00865595 0.0462695 0.0162172 0.0217701c-0.00913537,0.0136426 -0.0151224,0.0132878 -0.0151224,0.0302373l0 0.0226799c0,0.0212907 0.00327288,0.0139975 0.0151224,0.0226799l0.264593 0c0.0127442,-0.00885224 0.0151224,-0.00108341 0.0151224,-0.0226799l0 -0.0226799c0,-0.0169495 -0.00598329,-0.0165947 -0.0162172,-0.0311471l0.0171684 -0.0218418 -0.0085125 -0.045288 -0.279716 0z"/>
   <path id="_117906936" class="fil9" d="M2.27552 3.18271l0.0151187 0.0226799 0.211676 0c0.028901,0 0.00275193,0.00231782 0.0226799,-0.00756121 0.00341255,-0.0410223 0.0604784,-0.143761 0.0604784,-0.188996l0 -0.0907195c0,-0.0289236 -0.0207811,-0.0631322 -0.0377985,-0.0756008l-0.0201658 0.0613315 -0.0345672 -0.13121c-0.0460543,0.0231668 -0.0359865,0.0337782 -0.0359865,0.0925579l-0.0556389 -0.130583 -0.0367604 0.0306261 0.00167985 0.0923993c-0.0197694,-0.0227478 -0.019222,-0.0756008 -0.0529172,-0.0756008l-0.0226799 0c-0.00295201,0.035443 -0.0151187,0.037387 -0.0151187,0.0756008l0 0.0226799c0,0.0363112 0.0358808,0.163448 0.045356,0.204115l-0.0998058 -0.0762237 -0.00603236 0.00818408 0 0.0377985c0,0.032004 0.0466432,0.102369 0.0604822,0.128522z"/>
   <path id="_117907632" class="fil1" d="M3.5607 3.25831l0 -0.0377985c0.0368888,0.00859177 0.0664239,0.0226799 0.113399,0.0226799 0.0364018,0 0.0814822,-0.0109926 0.104842,-0.0225855l0.00855402 0.0377041c0.000973936,-0.0436686 0.1095,-0.203666 0.136079,-0.241917l0 -0.0151187c-0.0120081,-0.00635323 -0.034133,-0.0226799 -0.0453597,-0.0226799 -0.0196071,0 -0.0413583,0.0325551 -0.0604784,0.0453597l-0.00946001 -0.173806 0.0052585 -0.00564732 -0.0610748 -0.0368057c-0.00911649,0.0165909 -0.0254431,0.0387158 -0.0254431,0.0499425l0 0.0907195c-0.0168476,-0.00449973 -0.0226799,-0.00176667 -0.0226799,-0.0226799l0 -0.136079c-0.0371417,-0.00309168 -0.0276968,-0.0151187 -0.0604784,-0.0151187 -0.00401277,0 -0.0165909,0.0108869 -0.0226799,0.0151187 0.00395237,0.016957 0.00756121,0.0173798 0.00756121,0.0377985l0 0.0982807c0,0.0204149 -0.00360885,0.0208415 -0.00756121,0.0377985 -0.0358733,-0.00958081 -0.0226799,-0.043778 -0.0226799,-0.0907195 -0.0139144,-0.0207811 -0.0173836,-0.0377985 -0.0529172,-0.0377985 -0.0232612,0 -0.0302411,0.0553973 -0.0302411,0.0831582l0 0.188996c0,0.0207811 0.037874,0.139401 0.0453597,0.151198z"/>
   <path id="_117192464" class="fil18" d="M0.952543 3.19783c0,0.0751554 0.031332,0.0844417 0.0907157,0.0982769l0.0453597 0c0.0383685,-0.0243446 0.0961025,-0.000573792 0.0982807,-0.0982769l0 -0.14364c-0.0234839,0.00547367 -0.0834867,0.019071 -0.113399,0.0151224l-0.121195 -0.0133256 0.000237821 0.141844z"/>
   <path id="_117926304" class="fil19" d="M1.08862 3.2961l0.0982807 0.113399 0.0831582 0.0680396 0 -0.279716 -0.0831582 0c-0.00217814,0.0977031 -0.0599121,0.0739323 -0.0982807,0.0982769z"/>
   <path id="_117914568" class="fil19" d="M0.944982 3.4095l0.0982769 -0.113399c-0.0593836,-0.0138352 -0.0907157,-0.0231215 -0.0907157,-0.0982769l-0.00756121 0 -0.075597 0 0.00106453 0.273291 0.0745325 -0.0616146z"/>
   <path id="_117192320" class="fil2" d="M0.241914 4.33181c0,-0.183141 0.0700592,-0.625859 0.120847,-0.756095 0.0433401,-0.111138 0.0832753,-0.199091 0.156841,-0.281633 0.0947511,-0.106314 0.161579,-0.0962498 0.349783,-0.0962498l0.075597 0 0 -0.151198c-0.104087,-0.0086635 -0.224756,-0.133059 -0.26471,-0.211563 -0.00530002,-0.0104188 -0.0347899,-0.0826071 -0.0364584,-0.0844984 -0.00340877,-0.00386177 -0.0504937,-0.0367378 -0.0674469,-0.0535136 -0.0331855,-0.032842 -0.0698553,-0.100942 -0.0698553,-0.164497l0 -0.0604784c0,-0.0479418 0.0354505,-0.0669751 0.0831582,-0.0680396l0.0377985 -0.0377985 0.0048206 -0.211763c-0.0453484,-0.00391462 -0.0916028,-0.035794 -0.0955401,-0.0830714l0.0905873 -0.00936941c-0.0188332,-0.0340311 -0.0376664,-0.0644572 -0.0376664,-0.119149l0 -0.0226799 0.0591043 0.0324117 -0.00548122 -0.00791228 0.0824523 -0.0849778 0.0378023 -0.0302411 -0.680388 0 -0.00760651 2.44184c0.0506711,0.0756046 0.047402,0.0604784 0.166362,0.0604784z"/>
   <path id="_117917640" class="fil13" d="M2.04872 3.60606c0.016957,0.00395237 0.0173798,0.00756121 0.0377985,0.00756121l0.0377985 0 0 -0.0302373 0 -1.31542 0 -0.0151187 -0.075597 0 0 1.35322z"/>
   <polygon id="_117929760" class="fil20" points="4.70224,3.58338 5.31459,3.58338 5.31459,3.34902 4.70224,3.34902 "/>
   <path id="_117203072" class="fil7" d="M3.78749 3.25831c0,0.0926107 0.0402145,0.325076 0.113399,0.325076 0.0434307,0 0.0226799,-0.203205 0.0226799,-0.264597 0,-0.100799 0,-0.201597 0,-0.302396 -0.0265794,0.0382515 -0.135105,0.198249 -0.136079,0.241917z"/>
   <path id="_117915840" class="fil2" d="M3.99917 2.25284l0 1.32298c0.0333403,0.00277458 0.0330761,0.0151187 0.0529209,0.0151187 0.0666882,0 0.281784,-0.158087 0.340194,-0.188996l0.0302373 -0.0302373 0.0151224 -0.00756121 0 -0.0302411c0,-0.0600027 0.0807461,-0.134475 0.143267,-0.136445 0.0629774,-0.00198562 0.240536,0.0179008 0.280086,-0.00719127 -0.0118496,-0.00868237 -0.0151224,-0.00138918 -0.0151224,-0.0226799l0 -0.0226799c0,-0.0169495 0.00598706,-0.0165947 0.0151224,-0.0302373l-0.0162172 -0.0217701 0.00865595 -0.0462695c-0.0490781,-0.0311395 -0.206444,0.00553029 -0.277073,-0.0101999 -0.0950757,-0.0211774 -0.0782395,-0.100867 -0.0782395,-0.209038 -0.0779715,0 -0.143637,-0.0522754 -0.143637,-0.128518 -0.0401126,-0.000890887 -0.0604822,-0.0126951 -0.0604822,-0.0529172 0,-0.040222 0.0203696,-0.0520263 0.0604822,-0.0529209 0,-0.0783263 0.0640231,-0.136075 0.143637,-0.136075l0 -0.16632c0.0196297,-0.0293162 0.0414376,-0.0680358 0.0907157,-0.0680358l0.385554 0 0 -0.181439c0,-0.0317171 -0.0604784,-0.0297956 -0.0604784,-0.0907195 0,-0.0363867 0.0377306,-0.0831545 0.0680396,-0.0831545 0.0274061,0 0.0421963,0.00634568 0.0604784,0.0151187l0.922306 -0.00756121 0 -0.0453597 -1.66317 0 0 0.264597 0.132376 0.209241c-0.159442,-0.0338122 -0.237637,-0.0504861 -0.434772,-0.0504861z"/>
   <path id="_117923232" class="fil2" d="M1.51197 2.36624l0.0378023 0.0377985c0.0351636,0.0223137 0.0604784,0.0118609 0.0604784,0.0831582l0 0.0226799c0,0.0740682 -0.0273834,0.138371 -0.0624036,0.179514 -0.0187011,0.0219777 -0.0479342,0.0347672 -0.0598706,0.0610861 -0.012446,0.0274401 -0.0166362,0.0524944 -0.0338839,0.0870766 -0.0650121,0.130368 -0.141462,0.156305 -0.267194,0.216633l0 0.14364 0.0831582 0 0.204115 0c0.0426002,0.0285235 0.0784396,0.0819767 0.119077,0.122837 0.042487,0.0427173 0.0874504,0.0764464 0.135883,0.113596 0.111674,0.0856497 0.198498,0.107726 0.319591,0.171798l0 -1.35322c-0.0886546,0 -0.153308,-0.0034654 -0.229917,0.0120005 -0.062732,0.0126612 -0.134777,0.0333592 -0.200997,0.0333592l0.127234 -0.20493 0.00128348 -0.263782 -0.188996 0 0 0.00756121c0.00196675,0.0236463 0.00756121,0.026855 0.00756121,0.0529172l0 0.0378023c0,0.0564543 -0.06431,0.109519 -0.113399,0.120957 0.0642609,0.0959629 0.0604784,0.162791 0.0604784,0.317514z"/>
   <path id="_117192608" class="fil21" d="M4.70224 3.34902l0.612349 0 0 0.234356 -0.612349 0 0 -0.234356zm-0.0907195 0.0680396l0 0.113396c0,0.0807498 0.0854685,0.166316 0.16632,0.166316l0.461151 0c0.0759745,0 0.166316,-0.0827543 0.166316,-0.151198l0 -0.136075c0,-0.0768088 -0.0819465,-0.158759 -0.158755,-0.158759l-0.483835 0c-0.0684397,0 -0.151198,0.090342 -0.151198,0.16632z"/>
   <path id="_117916128" class="fil17" d="M3.92357 3.00127l0 0.0151187c0,0.100799 0,0.201597 0,0.302396 0,0.0613919 0.0207509,0.264597 -0.0226799,0.264597 -0.0731848,0 -0.113399,-0.232465 -0.113399,-0.325076l-0.00855402 -0.0377041c-0.0233594,0.0115929 -0.0684397,0.0225855 -0.104842,0.0225855 -0.0469754,0 -0.0765106,-0.0140881 -0.113399,-0.0226799l0 0.0377985c0,0.148503 0.043242,0.308326 0.0980504,0.400903 0.0348692,0.0588967 0.0595837,0.0924937 0.11811,0.131361 0.0421473,0.0279912 0.114109,0.0668656 0.146713,0.0952041l0.0677829 3.77494e-006 0.00781413 0.38555 0 -0.393111c0.0547933,-0.00456013 0.075095,-0.0413168 0.105838,-0.0680396 0.0181688,-0.0779752 0.0065533,-0.052551 0.0680887,-0.0831092 0.0330043,-0.016387 0.0668278,-0.031585 0.100829,-0.0503691 0.0366811,-0.0202639 0.16159,-0.0978013 0.172749,-0.121074l-0.0543894 -0.153682c-0.0584097,0.0309092 -0.273506,0.188996 -0.340194,0.188996 -0.0198449,0 -0.0195806,-0.0123441 -0.0529209,-0.0151187l0 -1.32298 -0.075597 0 0 0.748428z"/>
   <path id="_117929832" class="fil22" d="M2.12432 3.58338l0 0.0302373 -0.0377985 0c-0.0204187,0 -0.0208415,-0.00360885 -0.0377985,-0.00756121 -0.121093,-0.0640721 -0.207916,-0.086148 -0.319591,-0.171798 -0.0484325,-0.0371492 -0.0933959,-0.0708784 -0.135883,-0.113596 -0.0406373,-0.04086 -0.0764766,-0.0943132 -0.119077,-0.122837l-0.204115 0 0 0.279716 -0.0831582 -0.0680396 -0.0728715 0.0563788 0.107084 0.865417 0.298421 0.000505843 0 -0.771104c0.08494,0.0568771 0.148533,0.104838 0.241793,0.15888 0.0473491,0.0274363 0.0840831,0.0443027 0.1362,0.067915 0.0255299,0.0115627 0.142074,0.0471302 0.151198,0.0529172l0.075597 0 0 0.0302411 0.0086333 -0.0224722 0.0288745 0.00827845 0.000294446 -0.0160473 0.0226799 0c0.100972,0 0.221434,-0.155347 0.257085,-0.234303 0.0662352,-0.146687 0.0458505,-0.248357 0.0831092,-0.408283 -0.0199279,0.00987903 0.00622111,0.00756121 -0.0226799,0.00756121l-0.211676 0 -0.0151187 -0.0226799c0.0311848,0.133867 -0.0245485,0.403164 -0.14364,0.43091l-0.00756121 -0.0302373z"/>
   <path id="_117187112" class="fil14" d="M4.39228 3.40194l0.0543894 0.153682c-0.0111587,0.0232725 -0.136068,0.10081 -0.172749,0.121074 -0.0340009,0.0187841 -0.0678244,0.033982 -0.100829,0.0503691 -0.0615354,0.0305582 -0.0499199,0.00513392 -0.0680887,0.0831092 0.125128,-0.0104113 0.362213,-0.195844 0.453594,-0.257036 -0.00904477,-0.0249864 -0.0575792,-0.0296786 -0.087843,-0.0709161 -0.0343067,-0.0467414 -0.0279044,-0.0784773 -0.0482362,-0.110519l-0.0302373 0.0302373z"/>
   <path id="_117905400" class="fil17" d="M5.47334 4.05965c0.00435251,0.0523207 0.0487987,0.0748307 0.075597,0.113399l0.0529209 0 -0.0604784 -0.294834c0.0270588,-0.00630416 0.0355185,-0.0151224 0.0680358,-0.0151224l0.0378023 0c0.0274627,0 0.0265152,0.00896927 0.0529172,0.0151224l0 -0.0226799 -0.0907195 -0.453594c-0.0299542,0.06243 -0.0553747,0.136294 -0.143637,0.143637l0 0.219237c0,0.0662389 0.0226799,0.106838 0.0226799,0.151198 0,0.027927 -0.0226799,0.0623394 -0.0226799,0.113399 0,0.0173157 0.00256319,0.00878807 0.00756121,0.0302373z"/>
   <path id="_117917328" class="fil1" d="M5.60186 4.17305c0.100995,0 0.094853,-0.0227516 0.151198,-0.0604784 0.0070969,-0.0304676 0.0226799,-0.0377759 0.0226799,-0.0680396l0 -0.0529172c0,-0.0348352 -0.0556804,-0.104687 -0.0756008,-0.136079l0 0.0226799c-0.026402,-0.00615316 -0.0254544,-0.0151224 -0.0529172,-0.0151224l-0.0378023 0c-0.0325174,0 -0.040977,0.00881827 -0.0680358,0.0151224l0.0604784 0.294834z"/>
   <path id="_117217688" class="fil16" d="M4.61152 3.41706c0,-0.0759783 0.0827581,-0.16632 0.151198,-0.16632l0.483835 0c0.0768088,0 0.158755,0.0819503 0.158755,0.158759l0 0.136075c0,0.0684435 -0.090342,0.151198 -0.166316,0.151198l-0.461151 0c-0.0808518,0 -0.16632,-0.0855667 -0.16632,-0.166316l0 -0.113396zm-0.188996 -0.0453597c0.0203319,0.0320417 0.0139295,0.0637777 0.0482362,0.110519 0.0302637,0.0412375 0.0787982,0.0459297 0.087843,0.0709161l0 0.778665 0.907183 0 0.00756121 -0.272155c-0.00499803,-0.0214492 -0.00756121,-0.0129216 -0.00756121,-0.0302373 0,-0.0510599 0.0226799,-0.0854723 0.0226799,-0.113399 0,-0.0443594 -0.0226799,-0.0849589 -0.0226799,-0.151198l0 -0.219237c0.088262,-0.00734227 0.113682,-0.0812066 0.143637,-0.143637 0,-0.340326 -0.373889,-0.141919 -0.483831,-0.211676l-0.264593 0c-0.0395501,0.0250921 -0.217108,0.00520565 -0.280086,0.00719127 -0.0625206,0.00197052 -0.143267,0.0764426 -0.143267,0.136445l0 0.0302411 -0.0151224 0.00756121z"/>
   <path id="_117918216" class="fil22" d="M0.468708 4.24109c0,-0.167683 0.0656954,-0.585483 0.14364,-0.64259l0 0.725748 -0.14364 0 0 -0.0831582zm-0.226795 0.0907157l0.680388 0 0.0980617 -0.869407 -0.0753819 -0.0528945 -0.0745325 0.0616146 -0.00106453 -0.273291c-0.188204,0 -0.255031,-0.010064 -0.349783,0.0962498 -0.0735661,0.0825429 -0.113501,0.170495 -0.156841,0.281633 -0.0507881,0.130236 -0.120847,0.572953 -0.120847,0.756095z"/>
   <path id="_117916056" class="fil2" d="M0.468708 4.32425l0.14364 0 0 -0.725748c-0.0779451,0.0571074 -0.14364,0.474907 -0.14364,0.64259l0 0.0831582z"/>
   <path id="_117194168" class="fil2" d="M1.51953 4.33181c0.101923,0 0.44348,0.0162813 0.499236,-0.0148318 0.0688361,-0.0384176 0.0299542,-0.373553 0.0299542,-0.47656 -0.00912404,-0.00578699 -0.125668,-0.0413545 -0.151198,-0.0529172 -0.0521169,-0.0236123 -0.0888509,-0.0404787 -0.1362,-0.067915 -0.09326,-0.0540421 -0.156853,-0.102003 -0.241793,-0.15888l0 0.771104z"/>
   <path id="_117932760" class="fil2" d="M4.10501 3.81018c-0.0307431,0.0267228 -0.0510448,0.0634795 -0.105838,0.0680396l0 0.393111 0.0529209 0.0604784 0.506511 0 0 -0.778665c-0.0913801,0.0611918 -0.328465,0.246625 -0.453594,0.257036z"/>
   <path id="_117918120" class="fil2" d="M5.46578 4.33181l0.115593 -0.000479418 -0.0324343 -0.158276c-0.0267983,-0.0385686 -0.0712445,-0.0610786 -0.075597,-0.113399l-0.00756121 0.272155z"/>
   <path id="_117189872" class="fil2" d="M5.48846 2.45696c0.0826977,0 0.151198,0.0390744 0.151198,0.113396l0 0.0226799c0.0351863,0.00292936 0.0529209,0.015432 0.0529209,0.0529209 0,0.0381836 -0.0151489,0.0520754 -0.0529209,0.0529172 -0.00171005,0.0767295 -0.0365339,0.0972992 -0.0831582,0.128518l-0.0680396 0c0,0.108801 0.0165758,0.192118 -0.0768277,0.210446 -0.0710898,0.0139522 -0.22943,-0.0223363 -0.278485,0.00879185l0.0085125 0.045288 -0.0171684 0.0218418c0.0102339,0.0145524 0.0162172,0.0141976 0.0162172,0.0311471l0 0.0226799c0,0.0215965 -0.00237821,0.0138276 -0.0151224,0.0226799 0.109941,0.0697572 0.483831,-0.12865 0.483831,0.211676l0.0907195 0.453594c0.0199204,0.0313924 0.0756008,0.101244 0.0756008,0.136079l0 0.0529172c0,0.0302637 -0.015583,0.037572 -0.0226799,0.0680396l0.0453597 0.219234c0.166418,0 0.166316,0.00280856 0.166316,-0.158755 0,-0.10836 0,-0.216716 0,-0.325076 0,-0.219237 0,-0.438471 0,-0.657709 0,-0.438471 0,-0.876946 0,-1.31542l-0.922306 0.00756121c0.0154999,0.0103773 0.0377985,0.0371153 0.0377985,0.0604784 0,0.0454919 -0.0304487,0.0744004 -0.0680358,0.0831582l0 0.196558 0.364762 0c0.137801,0 0.111508,0.101433 0.111508,0.234356z"/>
   <path id="_117922152" class="fil17" d="M5.60186 4.17305l0.0377985 0.158755 0.158759 0 -0.0453597 -0.219234c-0.0563448,0.0377268 -0.050203,0.0604784 -0.151198,0.0604784z"/>
   <path id="_117933864" class="fil13" d="M4.52836 4.5586c0,-0.0454164 0.0453069,-0.0907195 0.0907195,-0.0907195l0.733309 0c0.042,0 0.0907157,0.0454315 0.0907157,0.0831582 0,0.0501086 -0.0352278,0.0982769 -0.0831582,0.0982769l-0.748428 0c-0.0424379,0 -0.0831582,-0.0499765 -0.0831582,-0.0907157zm0.824029 -3.26586c0,0.0176932 -0.0125441,0.0302373 -0.0302411,0.0302373l-0.680388 0c-0.0176969,0 -0.0302411,-0.0125441 -0.0302411,-0.0302373l0 -0.00756121c0,-0.0176969 0.0125441,-0.0302411 0.0302411,-0.0302411l0.680388 0c0.0176969,0 0.0302411,0.0125441 0.0302411,0.0302411l0 0.00756121zm-1.42882 0.302392l0.075597 0 0 -0.0604784c0.014643,-0.0218645 0.0315963,-0.0453597 0.0680396,-0.0453597l1.82949 0c0.106167,0 0.0680396,0.235315 0.0680396,0.340194l0 0.0453597c0,0.438471 0,0.876946 0,1.31542 0,0.219237 0,0.438471 0,0.657709 0,0.10836 0,0.216716 0,0.325076 0,0.161564 0.000101923,0.158755 -0.166316,0.158755l-0.158759 0 -0.0377985 -0.158755 -0.0529209 0 0.0324343 0.158276 -0.115593 0.000479418 -0.907183 0 -0.506511 0 -0.0529209 -0.0604784 -0.00781413 -0.38555 -0.0677829 -3.77494e-006c0,0.143572 -0.0245107,0.877071 0.0215889,0.930958 0.0811764,0.0948908 0.238984,0.0669449 0.409325,0.0669449 0.156237,0 0.312475,0 0.468708,0l1.1113 0 0.0226799 -0.00755744 0.0151187 -0.00756121 0.00756121 -0.00755744 0.0151187 -0.00756121 0.00756121 -0.00756121 0.00756121 -0.00755744 0.00755744 -0.00756121 0.00756121 -0.00756121 0.00756121 -0.0226799 0.00755744 -0.0302373 0.00756121 -0.0831582 0 -0.0907195 0 -0.899626 0 -0.249475 -0.00756121 -2.24528 -0.00755744 -0.0226799 -0.00756121 -0.0226799 -0.00756121 -0.00756121 -0.00755744 -0.0151187 -0.0151224 -0.00756121 -0.0226799 -0.00755744 -0.718187 0c-0.302392,0 -0.604788,0 -0.907183,0 -0.117291,0 -0.36429,-0.0352165 -0.404202,0.0493876 -0.0332875,0.070565 -0.0191503,0.319002 -0.0191503,0.426882z"/>
   <path id="_117187352" class="fil1" d="M0.604788 4.56616c0,0.0441744 0.0389876,0.0831582 0.0831582,0.0831582l0.748428 0c0.0380099,0 0.075597,-0.0375871 0.075597,-0.075597l0 -0.0377985c0,-0.0303128 -0.0467678,-0.0680396 -0.0831582,-0.0680396l-0.710626 0c-0.0598895,0 -0.113399,0.0254356 -0.113399,0.0831582l0 0.0151187z"/>
   <path id="_117921360" class="fil1" d="M4.52836 4.5586c0,0.0407392 0.0407203,0.0907157 0.0831582,0.0907157l0.748428 0c0.0479305,0 0.0831582,-0.0481683 0.0831582,-0.0982769 0,-0.0377268 -0.0487157,-0.0831582 -0.0907157,-0.0831582l-0.733309 0c-0.0454126,0 -0.0907195,0.0453031 -0.0907195,0.0907195z"/>
  </g>
 </g>
</svg>
