<?xml version="1.0" encoding="UTF-8"?>
<!DOCTYPE svg PUBLIC "-//W3C//DTD SVG 1.1//EN" "http://www.w3.org/Graphics/SVG/1.1/DTD/svg11.dtd">
<!-- Creator: CorelDRAW -->
<svg xmlns="http://www.w3.org/2000/svg" xml:space="preserve" width="6.67803in" height="5.98138in" style="shape-rendering:geometricPrecision; text-rendering:geometricPrecision; image-rendering:optimizeQuality; fill-rule:evenodd; clip-rule:evenodd"
viewBox="0 0 6.4813 5.80517"
 xmlns:xlink="http://www.w3.org/1999/xlink">
 <defs>
  <style type="text/css">
   <![CDATA[
    .str0 {stroke:#1F1A17;stroke-width:0.00291162}
    .str1 {stroke:white;stroke-width:0.00291162}
    .fil9 {fill:#3C746B}
    .fil11 {fill:white}
    .fil3 {fill:#09241F}
    .fil8 {fill:#0E413E}
    .fil7 {fill:#174C49}
    .fil6 {fill:#30615E}
    .fil5 {fill:#44A79B}
    .fil0 {fill:#73DED1}
    .fil1 {fill:#C3DAE3}
    .fil4 {fill:#DAFBF0}
    .fil2 {fill:#F8B056}
    .fil10 {fill:white;fill-rule:nonzero}
   ]]>
  </style>
 </defs>
 <g id="Layer_x0020_1">
  <metadata id="CorelCorpID_0Corel-Layer"/>
  <g id="_116881408">
   <g>
    <path id="_116871664" class="fil0" d="M3.66067 0.334653l-0.0204883 0.00682817 -0.0204883 0.006832 -0.0136602 0.00682817 -0.00682817 0.00682817 -0.00682817 0.006832 -0.0136602 0.00682817 -0.00682817 0.00682817 -0.006832 0.006832 -0.00682817 0.00682817 -0.006832 0.00682817 -0.00682817 0.006832 -0.006832 0.00682817 -0.00682817 0.0136602 -0.00682817 0.00682817 -0.006832 0.006832 -0.00682817 0.0136602 -0.00682817 0.0204883 -0.006832 0.0136563 -0.00682817 0.0273203 -0.00682817 0.0273165 0 0.0478087 0.00682817 0.0273203 0.00682817 0.0341447 0.006832 0.0136602 0.00682817 0.0136602 0.00682817 0.0204883 0.006832 0.006832 0.00682817 0.00682817 0.00682817 0.00682817 0.006832 0.0136602 0.00682817 0.00682817 0.006832 0.006832 0.00682817 0.00682817 0.006832 0.00682817 0.0136563 0.006832 0.006832 0.00682817 0.0136563 0.006832 0.006832 0.00682817 0.0136563 0.00682817 0.0136602 0.006832 0.0204883 0.00682817 0.0409767 0.00682817 0.068297 0 0.0136602 -0.00682817c0.0577816,-0.0366628 0.0698598,-0.0122999 0.131581,-0.0801384 0.0283673,-0.0311796 0.05965,-0.0946124 0.05965,-0.152069l0 -0.00682817c0,-0.144488 -0.0876009,-0.192591 -0.184403,-0.239036l-0.0136563 -0.006832 -0.0887854 0 -0.0273203 0.006832z"/>
    <path id="_116881360" class="fil1" d="M3.99532 0.006832l-0.006832 0.00682817 -0.00682817 0 -0.00682817 0 -0.0136602 0.006832 -0.0136602 0.00682817 -0.0204883 0.00682817 -0.00682817 0.006832 -0.006832 0.00682817 -0.00682817 0.00682817 -0.0136602 0.006832 -0.00682817 0.00682817 -0.006832 0.00682817 -0.00682817 0.006832 -0.006832 0.00682817 -0.00682817 0.006832 -0.00682817 0.00682817 -0.006832 0.00682817 -0.00682817 0.006832 -0.00682817 0.0136563 -0.006832 0.0136602 -0.00682817 0.0136602 -0.00682817 0.0136602 -0.006832 0.0136602 -0.00682817 0.0136563 -0.006832 0.0273203 0 0.00682817 0 0.0136602 0 0.0887854c0.0968019,0.0464446 0.184403,0.0945475 0.184403,0.239036l0 0.00682817c0,0.0574568 -0.0312827,0.12089 -0.05965,0.152069 -0.061721,0.0678385 -0.0737993,0.0434756 -0.131581,0.0801384l0 0.0887854 0 0.00682817 0.00682817 0.0341485 0.006832 0.0409767 0.00682817 0.0204883 0.006832 0.006832 0.00682817 0.0204883 0.00682817 0.0136602 0.006832 0.00682817 0.00682817 0.0136602 0.00682817 0.0136602 0.0136602 0.00682817 0.00682817 0.0136602 0.006832 0.00682817 0.00682817 0.006832 0.0136602 0.00682817 0.006832 0.00682817 0.00682817 0.006832 0.00682817 0.00682817 0.0136602 0.006832 0.0136602 0.00682817 0.00682817 0.00682817 0.0136602 0.006832 0.0273165 0.00682817 0.0136602 0.00682817 0.006832 0 0.00682817 0 0.0204883 0.006832 0.00682817 0 0.0204883 0 1.7757 0.00682817 0.0136602 0.006832 0.00682817 0.00682817 0.0136602 0.00682817 0.0136602 0.006832 0.0136602 0.00682817 0.0204883 0.00682817 0.0136563 0.006832 0.0136602 0.00682817 0.0136602 0.00682817 0.0204883 0.006832 0.00682817 0 0.006832 0 0.0136602 0.00682817 0.0204883 0.006832 0.0341485 0.00682817 0.0341447 0.00682817 0.0273203 0.006832 0.0478087 0.00682817 0.00682817 0 0.00682817 0 0.0273203 0 0 -0.0136602 -0.0136602 0 0 -0.0136563 -0.00682817 -0.006832 -0.0136602 -0.00682817 -0.00682817 -0.006832 -0.006832 -0.00682817 -0.00682817 -0.00682817 -0.00682817 -0.006832 -0.006832 -0.00682817 -0.00682817 -0.00682817 -0.006832 -0.006832 -0.00682817 -0.00682817 -0.00682817 -0.00682817 -0.006832 -0.006832 0.0409805 -0.00682817 0.0136563 0 0.006832 0 0.0273165 -0.006832 0.006832 0 0.00682817 0 0.0136602 -0.00682817 0.0273165 -0.00682817 0.0136602 -0.006832 0.00682817 -0.00682817 0.0136602 -0.00682817 0.0136602 -0.006832 0 -0.0136602 0.0204883 0 0.00682817 -0.00682817 0.006832 -0.00682817 0.00682817 -0.006832 0.00682817 -0.00682817 0 -0.0136602 0.0136602 0 0.006832 -0.00682817 0.00682817 -0.0136602 0.00682817 -0.0136602 0.006832 -0.00682817 0.00682817 -0.00682817 0.00682817 -0.0273203 0.006832 -0.006832 0.00682817 -0.0204883 0.00682817 -0.0273165 0.006832 -0.0546369 0 -0.00682817 0 -0.601005 0 -0.0136602 -0.006832 -0.0546369 -0.00682817 -0.0273203 -0.00682817 -0.0136563 -0.006832 -0.0204922 -0.00682817 -0.0136563 -0.00682817 -0.0136602 -0.006832 -0.006832 -0.00682817 -0.0136563 -0.00682817 -0.006832 -0.006832 -0.00682817 -0.00682817 -0.00682817 -0.006832 -0.006832 -0.00682817 -0.00682817 -0.00682817 -0.006832 -0.006832 -0.00682817 -0.00682817 -0.00682817 -0.00682817 -0.006832 -0.0136602 -0.00682817 -0.006832 -0.00682817 -0.00682817 -0.006832 -0.0136602 -0.00682817 -0.0273165 -0.00682817 -0.006832 -0.006832 -0.0204883 -0.00682817 -0.0273165 -0.006832 -2.17182 0 -0.0273165 0.006832z"/>
    <polygon id="_116877880" class="fil2" points="2.20596,1.25665 2.19231,1.26348 2.17865,1.27031 2.17181,1.27714 2.16499,1.28397 2.15815,1.2908 2.15133,1.30446 2.1445,1.31129 2.13767,1.32494 2.13767,1.40007 2.1445,1.41373 2.15133,1.42739 2.15815,1.43422 2.16499,1.44105 2.17181,1.44788 2.18547,1.45471 2.19231,1.46154 2.21279,1.46837 2.21962,1.76204 2.27426,1.76204 2.28109,1.46837 2.29475,1.46154 2.30841,1.45471 2.32207,1.44788 2.3289,1.44105 2.33572,1.43422 2.34256,1.42056 2.34939,1.41373 2.35622,1.39324 2.35622,1.32494 2.34939,1.31129 2.34256,1.30446 2.33572,1.2908 2.3289,1.28397 2.32207,1.27714 2.31524,1.27031 2.30158,1.26348 2.28792,1.25665 2.2606,1.24982 2.23328,1.24982 "/>
    <polygon id="_118984792" class="fil2" points="0.355138,1.25665 0.341481,1.26348 0.327821,1.27031 0.320993,1.27714 0.314161,1.28397 0.307333,1.2908 0.300501,1.30446 0.293673,1.31129 0.286844,1.33861 0.286844,1.37958 0.293673,1.4069 0.300501,1.42056 0.307333,1.43422 0.320993,1.44105 0.327821,1.44788 0.334649,1.45471 0.34831,1.46154 0.36197,1.46837 0.375626,1.46837 0.375626,1.76204 0.423435,1.76204 0.430263,1.46837 0.450755,1.46154 0.457583,1.45471 0.471243,1.44788 0.478072,1.44105 0.484904,1.43422 0.491732,1.42056 0.49856,1.41373 0.505392,1.39324 0.505392,1.33178 0.49856,1.31129 0.491732,1.29763 0.484904,1.2908 0.478072,1.27714 0.464411,1.27031 0.450755,1.26348 0.437095,1.25665 0.402946,1.24982 0.389286,1.24982 "/>
    <path id="_116879896" class="fil1" d="M4.0363 1.54349l-0.0204883 0.006832 -0.00682817 0 -0.006832 0 -0.0136602 0.00682817 -0.00682817 0.006832 -0.0136602 0.00682817 -0.0136602 0.00682817 0 0.0136602 -0.0204883 0 -0.00682817 0.00682817 -0.00682817 0.0136602 -0.006832 0.00682817 -0.00682817 0.006832 -0.0136602 0.00682817 -0.00682817 0.0136602 -0.006832 0.0136602 -0.00682817 0.00682817 -0.006832 0.0136602 -0.00682817 0.0136563 -0.00682817 0.0136602 -0.006832 0.0273203 -0.00682817 0.0341485 0 0.0136563 0.00682817 0.614666 0.006832 0.0273203 0.00682817 0.00682817 0.00682817 0.0204883 0.006832 0.0136602 0.00682817 0.00682817 0.006832 0.0136602 0.00682817 0.006832 0.006832 0.00682817 0.00682817 0.00682817 0.00682817 0.006832 0.006832 0.00682817 0.00682817 0.00682817 0.00682817 0.006832 0.006832 0.00682817 0.00682817 0.00682817 0.0136602 0.006832 0.00682817 0.00682817 0.0136602 0.006832 0.0136602 0.00682817 0.0204883 0.006832 0.0136602 0.00682817 0.0546369 0.00682817 0.0488289 0.00307593 -0.0146842 0.00375607 -0.00682817 0.00682817 -0.00682817 0.00682817 -0.006832 0.0136602 -0.00682817 0.00682817 -0.00682817 0.006832 -0.006832 0.00682817 -0.0136602 0.006832 -0.00682817 0.00682817 -0.00682817 0.00682817 -0.006832 0.006832 -0.0136563 0.00682817 0 0.0136602 0.0204883 0 0.0409767 -0.006832 0.0136602 0 0.0136563 0 0.0341485 -0.00682817 0.0341485 -0.00682817 0.0136602 -0.006832 0.0273165 -0.00682817 0.006832 -0.00682817 0.00682817 0 0.006832 0 0.0136563 -0.006832 0.0273203 -0.00682817 0.0136602 -0.006832 0.00682817 -0.00682817 0.0136602 -0.00682817 0.0204883 -0.006832 0.00682817 -0.00682817 0.0136602 -0.00682817 1.57764 -0.006832 0.0136602 0 0.0136563 0 0.0341485 -0.00682817 0.0136602 -0.00682817 0.0136602 -0.006832 0.0204883 -0.00682817 0.00682817 -0.006832 0.0136602 -0.00682817 0.0136602 -0.006832 0.00682817 -0.00682817 0.00682817 -0.00682817 0.006832 -0.006832 0.00682817 -0.00682817 0.006832 -0.00682817 0.00682817 -0.006832 0.00682817 -0.00682817 0.006832 -0.0136602 0.00682817 -0.00682817 0.006832 -0.0136602 0.00682817 -0.00682817 0.00682817 -0.0136602 0.006832 -0.0136602 0.00682817 -0.0341485 0.00682817 -0.0136602 0 -0.00682817 0 -0.0273165 0 -0.0204883 0.0204922 0c-0.00711857,-0.00451645 -0.0595125,-0.0161171 -0.0819648,-0.0273127 -0.0391006,-0.0194949 -0.0366016,-0.0197356 -0.0665967,-0.0495052 -0.0339575,-0.0336976 -0.0699897,-0.0917772 -0.0699897,-0.15539 0,-0.0734172 0.0237477,-0.125349 0.0594437,-0.165936 0.0648046,-0.0736885 0.0817279,-0.0472317 0.138615,-0.0867602l0 -0.068297 0 -0.0204883 0 -0.00682817 -0.00682817 -0.0136602 0 -0.00682817 0 -0.006832 -0.00682817 -0.0204883 -0.006832 -0.0204883 -0.00682817 -0.006832 -0.00682817 -0.00682817 -0.006832 -0.0136602 -0.00682817 -0.0136563 -0.006832 -0.006832 -0.00682817 -0.00682817 -0.00682817 -0.006832 -0.006832 -0.00682817 -0.00682817 -0.00682817 -0.006832 -0.006832 -0.00682817 -0.00682817 -0.00682817 -0.00682817 -0.0136602 -0.006832 -0.0136602 -0.00682817 -0.00682817 -0.00682817 -0.0136602 -0.006832 -0.0136602 -0.00682817 -0.0204883 -0.006832 -0.00682817 0 -0.006832 0 -0.0136563 -0.00682817 -0.006832 0 -0.0136563 0 -1.87815 0 -0.0204883 0 -0.00682817 0 -0.0136602 0.00682817z"/>
    <path id="_116883160" class="fil3" d="M0.881018 1.90546c0,0.0330366 0.0216041,0.0546369 0.0546369,0.0546369l0.006832 0c0.0283444,0 0.0399488,-0.0478049 0.068297,-0.0478049l0.0273165 0c0.0513126,0 0.0391464,0.0478049 0.0751252,0.0478049l0.0204883 0c0.0193,0 0.0409805,-0.0284819 0.0409805,-0.0478049 0,-0.053418 -0.0666846,-0.102446 -0.122934,-0.102446l-0.0273203 0c-0.0621184,0 -0.143422,0.0432769 -0.143422,0.0956136z"/>
    <path id="_118984624" class="fil3" d="M1.46837 1.90546c0,0.0330366 0.0216003,0.0546369 0.0546369,0.0546369l0.00682817 0c0.0283482,0 0.0399488,-0.0478049 0.068297,-0.0478049l0.0273165 0c0.0513164,0 0.0391464,0.0478049 0.0751252,0.0478049l0.0204883 0c0.0193,0 0.0409805,-0.0284819 0.0409805,-0.0478049 0,-0.053418 -0.0666846,-0.102446 -0.122934,-0.102446l-0.0273165 0c-0.0621223,0 -0.143422,0.0432769 -0.143422,0.0956136z"/>
    <path id="_116879176" class="fil4" d="M1.46837 1.90546c0,-0.0523366 0.0813,-0.0956136 0.143422,-0.0956136l0.0273165 0c0.0562493,0 0.122934,0.0490276 0.122934,0.102446 0,0.0193229 -0.0216805,0.0478049 -0.0409805,0.0478049l-0.0204883 0c-0.0359788,0 -0.0238088,-0.0478049 -0.0751252,-0.0478049l-0.0273165 0c-0.0283482,0 -0.0399488,0.0478049 -0.068297,0.0478049l-0.00682817 0c-0.0330366,0 -0.0546369,-0.0216003 -0.0546369,-0.0546369zm-0.587349 0c0,-0.0523366 0.0813038,-0.0956136 0.143422,-0.0956136l0.0273203 0c0.0562493,0 0.122934,0.0490276 0.122934,0.102446 0,0.0193229 -0.0216805,0.0478049 -0.0409805,0.0478049l-0.0204883 0c-0.0359788,0 -0.0238126,-0.0478049 -0.0751252,-0.0478049l-0.0273165 0c-0.0283482,0 -0.0399527,0.0478049 -0.068297,0.0478049l-0.006832 0c-0.0330328,0 -0.0546369,-0.0216003 -0.0546369,-0.0546369zm-0.211715 -0.0409767l0 0.0546369c0,0.136395 0.142142,0.273184 0.280012,0.273184l0.7376 0c0.138466,0 0.286841,-0.13189 0.286841,-0.259524l0 -0.068297c0,-0.132827 -0.137599,-0.273184 -0.266352,-0.273184l-0.778576 0c-0.119411,0 -0.259524,0.146685 -0.259524,0.273184z"/>
    <path id="_116878096" class="fil0" d="M6.20812 2.3289l0.0819534 0 0.0273203 -0.006832 0.0204883 -0.00682817 0.0136563 -0.006832 0.006832 -0.00682817 0.0136602 -0.00682817 0.00682817 -0.006832 0.00682817 -0.00682817 0.0136602 -0.006832 0.00682817 -0.00682817 0.006832 -0.00682817 0.00682817 -0.006832 0.00682817 -0.0136563 0.006832 -0.006832 0.00682817 -0.00682817 0.006832 -0.00682817 0.00682817 -0.0136602 0.00682817 -0.0136602 0.006832 -0.0204883 0.00682817 -0.0204883 0.006832 -0.0478087 0 -0.0409767 -0.006832 -0.0409767 -0.00682817 -0.0204883 -0.006832 -0.0204922 -0.00682817 -0.0136563 -0.00682817 -0.0136602 -0.006832 -0.006832 -0.00682817 -0.00682817 -0.006832 -0.0136602 -0.00682817 -0.00682817 -0.00682817 -0.00682817 -0.006832 -0.006832 -0.00682817 -0.00682817 -0.0136602 -0.00682817 -0.00682817 -0.006832 -0.00682817 -0.00682817 -0.006832 -0.006832 -0.0136602 -0.00682817 -0.0204883 -0.006832 -0.0136563 -0.00682817 -0.0273203 -0.00682817 -0.102446 0c-0.0568874,0.0395285 -0.0738108,0.0130717 -0.138615,0.0867602 -0.035696,0.0405869 -0.0594437,0.0925185 -0.0594437,0.165936 0,0.0636125 0.0360323,0.121692 0.0699897,0.15539 0.0299951,0.0297696 0.0274961,0.0300103 0.0665967,0.0495052 0.0224524,0.0111956 0.0748463,0.0227962 0.0819648,0.0273127z"/>
    <path id="_118984480" class="fil5" d="M2.18547 2.41085l0.129762 0 0.0204883 -0.00682817 0.006832 -0.006832 0.0136602 -0.00682817 0.00682817 -0.006832 0.00682817 -0.00682817 0.006832 -0.00682817 0.00682817 -0.006832 0.00682817 -0.0204883 0.006832 -0.00682817 0.00682817 -0.0204883 0 -0.450755 -0.00682817 -0.0273203 -0.006832 -0.0136563 -0.00682817 -0.006832 -0.00682817 -0.0136563 -0.006832 -0.006832 -0.00682817 -0.00682817 -0.00682817 -0.006832 -0.006832 -0.00682817 -0.0136602 -0.00682817 -0.0204883 -0.006832 -0.0409767 0 -0.0546369 0 -0.0751252 0c0.0067785,0.0814796 0.0478087,0.143835 0.0478087,0.266356l0 0.34831c0,0.0184479 -0.00326316,0.01883 -0.006832,0.0341485z"/>
    <path id="_116881960" class="fil5" d="M0.307333 1.76887l-0.0136602 0.00682817 -0.00682817 0.00682817 -0.006832 0.006832 -0.00682817 0.00682817 -0.006832 0.006832 -0.00682817 0.00682817 -0.00682817 0.0136602 -0.006832 0.0204883 0 0.484904 0.006832 0.0204883 0.00682817 0.0136563 0.00682817 0.006832 0.006832 0.00682817 0.00682817 0.00682817 0.0136602 0.006832 0.00682817 0.00682817 0.006832 0.006832 0.0204883 0.00682817 0.122934 0 0 -0.061465 0 -0.300505c0,-0.0565359 0.0077414,-0.0978221 0.0143747,-0.149536 0.00610982,-0.0476367 0.0300027,-0.0961256 0.0334302,-0.137309l-0.0751252 0 -0.0478087 0 -0.0478049 0 -0.0204883 0.006832z"/>
    <path id="_116883520" class="fil6" d="M2.69769 2.3289l-0.0204883 0.00682817 -0.0204883 0.00682817 -0.0136602 0.006832 -0.0136563 0.00682817 -0.0136602 0.00682817 -0.0136602 0.006832 -0.0136602 0.00682817 -0.0136602 0.00682817 0 0.0136602 -0.0136563 0 -0.006832 0.006832 -0.0136563 0.00682817 -0.006832 0.006832 -0.00682817 0.00682817 -0.00682817 0.00682817 -0.006832 0.006832 -0.00682817 0.0136563 -0.006832 0.006832 -0.00682817 0.00682817 -0.00682817 0.00682817 -0.006832 0.0136602 -0.00682817 0.006832 -0.00682817 0.0136563 -0.006832 0.0136602 -0.00682817 0.0136602 -0.006832 0.0204883 -0.00682817 0.0136602 -0.00682817 0.0273165 -0.006832 0.0204883 -0.00682817 0.484904 -0.006832 0.0341485 -0.00682817 0.0204883 -0.00682817 0.0136602 -0.006832 0.0204883 -0.00682817 0.00682817 -0.00682817 0.006832 -0.006832 0.00682817 -0.00682817 0.00682817 -0.00682817 0.0136602 -0.006832 0.00682817 -0.0136602 0.006832 -0.0136563 0.00682817 -0.0136602 0.006832 0 -0.0136602 -0.00682817 -0.006832 -0.006832 -0.0204883 -0.00682817 -0.00682817 -0.006832 -0.0136602 -0.00682817 -0.00682817 -0.00682817 -0.00682817 -0.006832 -0.0136602 -0.00682817 -0.006832 -0.006832 -0.00682817 -0.00682817 -0.00682817 -0.00682817 -0.006832 -0.0136602 -0.00682817 -0.00682817 -0.006832 -0.006832 -0.00682817 -0.00682817 -0.00682817 -0.0136602 -0.006832 -0.0136602 -0.00682817 -0.0136602 -0.00682817 -0.0136563 -0.006832 -0.0204883 -0.00682817 -0.0136602 -0.006832 -0.0273203 0c-0.00293837,0.00624356 0.021692,0.0856177 0.0278629,0.115559 0.00907494,0.0440259 0.00628559,0.0969318 0.00628559,0.150797 0,0.0564519 -0.0114402,0.28537 0.006832,0.314161l0.0204883 0 0.0136563 -0.00682817 0.006832 -0.00682817 0.0136602 -0.006832 0.0136602 -0.00682817 0.00682817 -0.00682817 0.0136602 -0.006832 0.00682817 -0.00682817 0.0136602 -0.00682817 0.00682817 -0.0136602 0.00682817 -0.006832 0.006832 -0.00682817 0.00682817 -0.006832 0.006832 -0.00682817 0.00682817 -0.00682817 0.00682817 -0.0136602 0.006832 -0.00682817 0.00682817 -0.0136602 0.006832 -0.0136602 0.00682817 -0.00682817 0.00682817 -0.0204883 0.006832 -0.0136602 0 -0.0341485 0.0204883 0 0.0204883 -0.00682817 0.0136602 -0.006832 0.0136563 -0.00682817 0.006832 -0.006832 0.0136563 -0.00682817 0.0136602 -0.00682817 0.006832 -0.006832 0.0136563 -0.00682817 0.006832 -0.00682817 0.00682817 -0.006832 0.006832 -0.00682817 0.00682817 -0.00682817 0.00682817 -0.006832 0.006832 -0.00682817 0.0136563 -0.006832 0.006832 -0.0136563 0.00682817 -0.006832 0.006832 -0.0136563 0.00682817 -0.006832 0.00682817 -0.00682817 0.006832 -0.0136602 0.00682817 -0.0136602 0.00682817 -0.0136602 0.006832 -0.0204883 0.00682817 -0.0204883 0.00682817 -0.0204883 0.006832 -0.0204883 0.00682817 -0.061465 0 -0.0136602 0 -0.136594 0 -0.0478049 0 -0.109274 0 -0.0136602 0 -0.00682817 0 -0.0136602 0 -0.00682817 0 -0.006832 0 -0.068297 0.006832 -0.0341485 0.00682817 -0.0273165 0.00682817 -0.0136602 0.006832 -0.0136563 0.00682817 -0.0136602 0.006832 -0.006832 0.00682817 -0.00682817 0.00682817 -0.006832 0.006832 -0.00682817 0.00682817 -0.00682817 0.00682817 -0.006832 0.0136602 -0.00682817 0.0136602 -0.00682817 0.0136602 -0.006832 0.0204883 -0.00682817 0.0273165 -0.00682817 0.006832 -0.006832 0.195526 -0.00673265 -0.00429866 -0.157178 -0.204887 0 -0.0478087 0.006832z"/>
    <polygon id="_118984528" class="fil0" points="3.2987,1.94644 3.27138,1.95327 3.24406,1.9601 3.23041,1.96693 3.20992,1.97376 3.20309,1.98059 3.18943,1.98742 3.17577,1.99425 3.16211,2.00108 3.14845,2.00791 3.14162,2.01474 3.13479,2.02157 3.12113,2.0284 3.1143,2.03522 3.10747,2.04206 3.09381,2.04888 3.08698,2.05572 3.08015,2.06254 3.08015,2.0762 3.0665,2.0762 3.05966,2.08303 3.05284,2.08986 3.04601,2.10352 3.03918,2.11035 3.03235,2.12401 3.02552,2.13084 3.01869,2.13767 3.01186,2.1445 3.00503,2.15816 2.9982,2.17182 2.99137,2.18548 2.98454,2.19913 2.97771,2.20597 2.97088,2.22646 2.96405,2.24694 2.95722,2.27426 2.95039,2.30158 2.95039,2.32207 2.95469,2.47925 2.75916,2.48598 2.95722,2.48598 2.95722,2.5133 2.96405,2.54062 2.97088,2.5611 2.97771,2.57476 2.98454,2.58842 2.99137,2.60208 2.9982,2.61574 3.00503,2.62257 3.01186,2.63623 3.01869,2.64989 3.02552,2.65672 3.03235,2.66355 3.03918,2.67721 3.04601,2.68404 3.05284,2.69087 3.05966,2.6977 3.0665,2.70453 3.07332,2.71135 3.08015,2.71819 3.08698,2.72501 3.09381,2.73185 3.10064,2.73868 3.10747,2.74551 3.12113,2.75234 3.12796,2.75916 3.13479,2.766 3.14162,2.77282 3.15528,2.77965 3.16894,2.78648 3.1826,2.79331 3.18943,2.80014 3.20992,2.80697 3.22357,2.8138 3.23724,2.82063 3.25772,2.82746 3.28504,2.83429 3.31236,2.84112 3.4831,2.84112 3.50359,2.83429 3.50359,2.61574 3.4831,2.61574 3.46944,2.62257 3.44212,2.6294 3.35334,2.6294 3.32602,2.62257 3.31236,2.61574 3.2987,2.60891 3.28504,2.60208 3.27138,2.59525 3.25772,2.58842 3.2509,2.5816 3.24406,2.57476 3.23724,2.56794 3.23041,2.5611 3.21675,2.55428 3.20992,2.54062 3.20309,2.53379 3.19626,2.52013 3.18943,2.50647 3.1826,2.49281 3.17577,2.47915 3.16894,2.46549 3.16211,2.43817 3.16211,2.34256 3.16894,2.32207 3.17577,2.30841 3.1826,2.28792 3.18943,2.27426 3.19626,2.26743 3.20309,2.25377 3.20992,2.24012 3.21675,2.23328 3.22357,2.22646 3.23041,2.21963 3.23724,2.21279 3.24406,2.20597 3.25772,2.19913 3.26455,2.19231 3.27821,2.18548 3.29187,2.17865 3.30553,2.17182 3.31919,2.16499 3.33968,2.15816 3.39432,2.15133 3.40115,2.15133 3.45578,2.15816 3.47627,2.16499 3.48993,2.17182 3.50359,2.17182 3.50359,1.95327 3.49676,1.94644 3.45578,1.93961 3.33968,1.93961 "/>
    <path id="_116878360" class="fil5" d="M1.63911 2.89576l0 -0.259528c-0.00832984,-0.00468076 -0.0073058,-0.00682817 -0.0204883,-0.00682817l-0.607834 0 0 0.273322 0.628322 -0.00696573z"/>
    <path id="_116883616" class="fil0" d="M3.66067 3.29188l-0.0204883 0.00682817 -0.0204883 0.00682817 -0.00682817 0.006832 -0.0136602 0.00682817 -0.00682817 0.00682817 -0.0136602 0.006832 -0.00682817 0.00682817 -0.006832 0.006832 -0.00682817 0.00682817 -0.006832 0.00682817 -0.00682817 0.006832 -0.006832 0.0136563 -0.00682817 0.006832 -0.00682817 0.00682817 -0.006832 0.00682817 -0.00682817 0.0136602 -0.00682817 0.0204922 -0.006832 0.0204883 -0.00682817 0.0204883 -0.00682817 0.0273165 0 0.0478087 0.00682817 0.0341485 0.00682817 0.0273165 0.006832 0.0136602 0.00682817 0.0204883 0.00682817 0.0136602 0.006832 0.00682817 0.00682817 0.006832 0.00682817 0.00682817 0.006832 0.0136602 0.00682817 0.00682817 0.006832 0.006832 0.00682817 0.00682817 0.006832 0.00682817 0.0136563 0 0 0.0136602 0.0136602 0.00682817 0.0136602 0.006832 0.0136563 0.00682817 0.0136602 0.00682817 0.0204883 0.006832 0.0341485 0.00682817 0.0751252 0 0.0136602 -0.00682817c0.061358,-0.0389324 0.0632036,-0.0116388 0.131581,-0.0801384 0.0337473,-0.0338046 0.05965,-0.0928815 0.05965,-0.158897 0,-0.0629285 -0.0248099,-0.123075 -0.0561691,-0.15555 -0.0626725,-0.0648963 -0.0723168,-0.0446334 -0.128234,-0.0834856l-0.0136563 -0.006832 -0.0887854 0 -0.0273203 0.006832z"/>
    <path id="_118984216" class="fil4" d="M1.05176 3.84507l0.0546369 0c0.015735,0 0.0204883,-0.00475336 0.0204883,-0.0204883l0 -0.116102 0.129762 0 0 0.13659 0.0546369 0c0.015735,0 0.0204883,-0.00475336 0.0204883,-0.0204883l0 -0.293673c0,-0.0157388 -0.00475336,-0.0204883 -0.0204883,-0.0204883l-0.0546369 0 0 0.129762 -0.129762 0 0 -0.109274c0,-0.0157388 -0.00475336,-0.0204883 -0.0204883,-0.0204883l-0.0546369 0 0 0.334649z"/>
    <path id="_116880280" class="fil7" d="M1.05176 3.51042l0.0546369 0c0.015735,0 0.0204883,0.00474954 0.0204883,0.0204883l0 0.109274 0.129762 0 0 -0.129762 0.0546369 0c0.015735,0 0.0204883,0.00474954 0.0204883,0.0204883l0 0.293673c0,0.015735 -0.00475336,0.0204883 -0.0204883,0.0204883l-0.0546369 0 0 -0.13659 -0.129762 0 0 0.116102c0,0.015735 -0.00475336,0.0204883 -0.0204883,0.0204883l-0.0546369 0 0 -0.334649zm-0.348313 -0.0614689l0 0.437095c0,0.162367 0.148084,0.314165 0.307337,0.314165l0.621494 0c0.17054,0 0.307333,-0.153399 0.307333,-0.334653l0 -0.402946c0,-0.167143 -0.138803,-0.320993 -0.300505,-0.320993l-0.635154 0c-0.153112,0 -0.300505,0.152914 -0.300505,0.307333z"/>
    <path id="_116878456" class="fil1" d="M3.99532 2.93673l-0.0136602 0.00682817 -0.0136602 0.006832 -0.0204883 0.00682817 -0.0136602 0.00682817 -0.0136563 0.006832 -0.006832 0.00682817 -0.00682817 0.006832 -0.0136602 0.00682817 -0.00682817 0.00682817 -0.006832 0.006832 -0.00682817 0.00682817 -0.006832 0.006832 -0.00682817 0.00682817 -0.00682817 0.00682817 -0.006832 0.0136602 -0.00682817 0.00682817 -0.00682817 0.006832 -0.006832 0.0136563 -0.00682817 0.0136602 -0.00682817 0.0136602 -0.006832 0.0136602 -0.00682817 0.0204883 -0.006832 0.0204883 0 0.0136602 0 0.00682817 0 0.116106c0.0559169,0.0388522 0.0655612,0.0185893 0.128234,0.0834856 0.0313592,0.0324749 0.0561691,0.0926217 0.0561691,0.15555 0,0.0660159 -0.0259027,0.125093 -0.05965,0.158897 -0.0683773,0.0684995 -0.0702228,0.041206 -0.131581,0.0801384l0.00682817 0.102446 0.006832 0.0341447 0.00682817 0.0273203 0.006832 0.0136602 0.00682817 0.0136563 0.00682817 0.0136602 0.006832 0.0136602 0.00682817 0.00682817 0.00682817 0.0136602 0.006832 0.00682817 0.00682817 0.006832 0.00682817 0.00682817 0.0136602 0 0 0.0136602 0.006832 0.00682817 0.00682817 0.006832 0.006832 0.00682817 0.0136563 0.00682817 0.006832 0.006832 0.0136563 0.00682817 0.0136602 0.00682817 0.0136602 0.006832 0.0136602 0.00682817 0.0204883 0.006832 0.0204883 0.00682817 0.0136602 0 0.00682817 0 1.80302 0.006832 0.006832 0.00682817 0.0136563 0.00682817 0.0136602 0.006832 0.006832 0.00682817 0.0204883 0.00682817 0.00682817 0.006832 0.0204883 0.00682817 0.0136602 0.00682817 0.0204883 0.006832 0.0204883 0.00682817 0.0136602 0.006832 0.0273165 0.00682817 0.0409805 0.00682817 0.0136563 0.006832 0.006832 0 0.0136563 0 0.0204922 0.00682817 0.00682817 0 0.0204883 0 0.0341485 0.00682817 0.0341485 0 0 -0.0136563 -0.00682817 -0.006832 -0.0136602 -0.00682817 -0.006832 -0.00682817 -0.00682817 -0.006832 -0.00682817 -0.00682817 -0.006832 -0.006832 -0.00682817 -0.00682817 -0.00682817 -0.00682817 -0.006832 -0.006832 -0.00682817 -0.00682817 -0.006832 -0.00682817 -0.00682817 -0.006832 -0.00682817 -0.00682817 -0.006832 -0.00682817 0.0273203 0 0.00682817 0 0.0341485 -0.006832 0.0136602 0 0.00682817 0 0.0273203 -0.00682817 0.0136563 -0.006832 0.0136602 -0.00682817 0.0136602 -0.006832 0.0136602 -0.00682817 0.0136563 -0.00682817 0.006832 -0.006832 0.0136602 -0.00682817 0.00682817 -0.00682817 0.00682817 -0.006832 0.006832 -0.00682817 0.00682817 -0.00682817 0.00682817 -0.006832 0.006832 -0.00682817 0.00682817 -0.006832 0.006832 -0.00682817 0.00682817 -0.0136602 0.00682817 -0.00682817 0.006832 -0.0136602 0.00682817 -0.00682817 0.00682817 -0.0136602 0.006832 -0.0136602 0.00682817 -0.0341485 0.00682817 -0.0136563 0.006832 -0.0546369 0 -0.0136602 0 -0.601005 0 -0.0136602 -0.006832 -0.0546369 -0.00682817 -0.0204883 -0.00682817 -0.0204883 -0.006832 -0.0204883 -0.00682817 -0.0136602 -0.00682817 -0.006832 -0.006832 -0.0136563 -0.00682817 -0.006832 -0.00682817 -0.00682817 -0.006832 -0.0136602 -0.00682817 -0.00682817 -0.006832 -0.00682817 -0.00682817 -0.006832 -0.00682817 -0.00682817 -0.006832 -0.006832 -0.00682817 -0.00682817 -0.00682817 -0.00682817 -0.0136602 -0.006832 -0.006832 -0.00682817 -0.0136563 -0.006832 -0.0136602 -0.00682817 -0.0204883 -0.00682817 -0.0136602 -0.006832 -0.0136602 -0.00682817 -0.0273165 -0.00682817 -0.006832 0 -0.0136563 0 -2.13084 0 -0.0136563 0 -0.006832 0 -0.0273165 0.00682817z"/>
    <path id="_118984096" class="fil6" d="M0.519048 3.08016l-0.0204883 0.00682817 -0.0136563 0.006832 -0.0136602 0.00682817 -0.0136602 0.00682817 -0.0136602 0.006832 -0.00682817 0.00682817 -0.006832 0.00682817 -0.00682817 0.006832 -0.00682817 0.00682817 -0.006832 0.006832 -0.0136563 0.00682817 -0.006832 0.00682817 -0.00682817 0.006832 -0.006832 0.0136602 -0.00682817 0.00682817 0 0.0136602 -0.0136602 0 -0.00682817 0.0136563 -0.00682817 0.0136602 -0.006832 0.0204883 -0.00682817 0.0136602 -0.00682817 0.0273203 -0.006832 0.0136563 0 0.129766 0.006832 0.0136563 0.00682817 0.0273203 0.00682817 0.0136563 0.006832 0.0204922 0.00682817 0.00682817 0.00682817 0c0.0138245,0.0101295 0.0204883,0.0156777 0.0204883,0.0409767l0 1.1064c0.0213634,-0.00177678 0.0242635,-0.00682817 0.0478087,-0.00682817l0.0546369 0c0.0235452,0 0.0264453,0.0050514 0.0478087,0.00682817l0 -0.519048c0,-0.183409 0.00746247,-0.382137 0.00683582,-0.553193 -0.000340071,-0.0933133 -7.64205e-006,-0.186699 -7.64205e-006,-0.28002 0,-0.0361431 -0.00381721,-0.102793 0.00128387,-0.13531 0.00432158,-0.0275381 0.0332888,-0.0912652 0.0260365,-0.103729l-0.0273203 0 -0.0136602 0.006832z"/>
    <path id="_116873968" class="fil5" d="M0.901506 5.05392l0.0546369 0 0 0.423435 0.006832 -0.423435 0.716909 0 0.00703069 0.409775 0 -0.409775 0.13659 0 0.0204883 -0.006832 0.0136602 -0.00682817 0.006832 -0.006832 0.00682817 -0.00682817 0.00682817 -0.00682817 0.006832 -0.006832 0.00682817 -0.00682817 0.00682817 -0.00682817 0.006832 -0.0136602 0.00682817 -0.0204883 0.00682817 -0.0273203 0.006832 -0.0273165 0.00682817 -0.0341485 0.006832 -0.0136602 0.00682817 -0.0341485 0.00682817 -0.0273165 0.006832 -0.0273203 0 -0.0341485 0 -0.0409767c-0.0485041,0.0324787 -0.11037,0.0546369 -0.191231,0.0546369l-0.908338 0c-0.0637385,0 -0.138768,-0.0286539 -0.177571,-0.0546369 0,0.0624661 0.0325513,0.179982 0.0476406,0.239204 0.0221085,0.0867564 0.0629896,0.115938 0.170907,0.115938z"/>
    <path id="_116883640" class="fil0" d="M6.1808 5.28612l0.109274 0 0.0273203 -0.00682817 0.0204883 -0.006832 0.0136563 -0.00682817 0.0136602 -0.00682817 0.006832 -0.006832 0.00682817 -0.00682817 0.00682817 -0.00682817 0.0136602 -0.006832 0.00682817 -0.00682817 0.006832 -0.00682817 0.00682817 -0.006832 0.00682817 -0.0136602 0.006832 -0.00682817 0.00682817 -0.00682817 0.006832 -0.006832 0.00682817 -0.0136563 0.00682817 -0.0136602 0.006832 -0.0204883 0.00682817 -0.0204922 0.006832 -0.0478049 0 -0.0341485 -0.006832 -0.0478049 -0.00682817 -0.0204922 -0.006832 -0.0204883 -0.00682817 -0.0136602 -0.00682817 -0.0136563 -0.006832 -0.006832 -0.00682817 -0.00682817 -0.006832 -0.00682817 -0.00682817 -0.0136602 -0.00682817 -0.006832 -0.006832 -0.00682817 -0.00682817 -0.00682817 -0.0136602 -0.006832 -0.00682817 -0.00682817 -0.00682817 -0.006832 -0.006832 -0.00682817 -0.0136602 -0.00682817 -0.0204883 -0.006832 -0.0136563 -0.00682817 -0.0273203 -0.00682817 -0.102446 0c-0.0573918,0.0398801 -0.0677162,0.0172175 -0.134947,0.0835964 -0.0331512,0.0327347 -0.0631119,0.0927975 -0.0631119,0.155439l0 0.0136602c0,0.0531505 0.0361698,0.119101 0.062577,0.149142 0.0548279,0.0623821 0.0921861,0.0513661 0.128654,0.0830615z"/>
    <path id="_118983952" class="fil0" d="M0.703447 3.44895c0,-0.154419 0.147392,-0.307333 0.300505,-0.307333l0.635154 0c0.161702,0 0.300505,0.15385 0.300505,0.320993l0 0.402946c0,0.181254 -0.136793,0.334653 -0.307333,0.334653l-0.621494 0c-0.159253,0 -0.307337,-0.151798 -0.307337,-0.314165l0 -0.437095zm-0.0341447 -1.58447c0,-0.126499 0.140113,-0.273184 0.259524,-0.273184l0.778576 0c0.128753,0 0.266352,0.140358 0.266352,0.273184l0 0.068297c0,0.127634 -0.148374,0.259524 -0.286841,0.259524l-0.7376 0c-0.13787,0 -0.280012,-0.136789 -0.280012,-0.273184l0 -0.0546369zm0.505392 -0.676131l-0.0204922 0.00682817 -0.0341485 0.006832 -0.0273165 0.00682817 -0.0273203 0.00682817 -0.0204883 0.006832 -0.0204883 0.00682817 -0.0204883 0.00682817 -0.0136602 0.006832 -0.0136563 0.00682817 -0.0204922 0.00682817 -0.0136563 0.006832 -0.0136602 0.00682817 -0.0136602 0.006832 -0.0136602 0.00682817 -0.00682817 0.00682817 -0.0136602 0.006832 -0.0136602 0.00682817 -0.0136563 0.006832 -0.006832 0.00682817 -0.0136563 0.00682817 -0.006832 0.006832 -0.00682817 0.00682817 -0.0136602 0.00682817 -0.00682817 0.006832 -0.0136602 0.00682817 -0.00682817 0.006832 -0.0136602 0.00682817 -0.00682817 0.0136602 -0.0136602 0.00682817 -0.006832 0.00682817 -0.00682817 0.006832 -0.00682817 0.00682817 -0.006832 0.00682817 -0.00682817 0.006832 -0.006832 0.00682817 -0.00682817 0.006832 -0.00682817 0.00682817 -0.006832 0.00682817 -0.00682817 0.006832 -0.00682817 0.00682817 -0.006832 0.006832 -0.00682817 0.00682817 -0.00682817 0.0136602 -0.006832 0.00682817 -0.00682817 0.00682817 -0.006832 0.006832 -0.00682817 0.00682817 -0.00682817 0.0136602 -0.006832 0.00682817 -0.00682817 0.0136602 -0.00682817 0.006832 -0.006832 0.00682817 -0.00682817 0.0136602 -0.006832 0.00682817 -0.00682817 0.0136602 -0.00682817 0.0136563 -0.006832 0.0136602 -0.00682817 0.0136602 -0.006832 0.00682817 -0.00682817 0.0136602 -0.00682817 0.0136602 -0.006832 0.0204883 -0.00682817 0.0136602 -0.00682817 0.0204883 -0.006832 0.0136602 0 0.0136563c-0.00342746,0.041183 -0.0273203,0.0896719 -0.0334302,0.137309 -0.0066333,0.0517138 -0.0143747,0.093 -0.0143747,0.149536l0 0.300505 0 0.061465 0 0.006832 0.00682817 0.0136563 0.00682817 0.0273203 0.006832 0.0136563 0.00682817 0.0136602 0.006832 0.0136602 0.00682817 0.0136602 0.00682817 0.00682817 0.006832 0.00682817 0.00682817 0.006832 0.00682817 0.0136563 0.006832 0.006832 0.00682817 0.00682817 0.0136602 0.006832 0.00682817 0.00682817 0.006832 0.006832 0.00682817 0.00682817 0.0136602 0.00682817 0.0136602 0.006832 0.0136563 0.00682817 0.0136602 0.00682817 0.0204883 0.006832 0.0204883 0.00682817 0.0204883 0.00682817 0.314165 0 0 0.068297 0 0.143422 0 0.0478087 -0.177571 0 -0.0409767 0.00682817 -0.0273203 0.006832 -0.0136602 0.00682817 -0.0204883 0.00682817 -0.0136602 0.006832 -0.0136563 0.00682817 -0.006832 0.00682817 -0.0136563 0.006832 -0.006832 0.00682817 -0.00682817 0.00682817 -0.0136602 0.006832 -0.00682817 0.00682817 -0.006832 0.006832 -0.00682817 0.00682817 -0.00682817 0.00682817 -0.006832 0.006832 -0.00682817 0.00682817 -0.00682817 0.006832 -0.006832 0.0136563 -0.00682817 0.006832 -0.006832 0.0136563 -0.00682817 0.006832 -0.00682817 0.00682817 0 0.00682817c0.00725231,0.0124642 -0.0217149,0.0761913 -0.0260365,0.103729 -0.00510107,0.0325169 -0.00128387,0.0991671 -0.00128387,0.13531 0,0.0933209 -0.000332429,0.186707 7.64205e-006,0.28002 0.000626648,0.171056 -0.00683582,0.369784 -0.00683582,0.553193l0 0.519048c-0.0213634,-0.00177678 -0.0242635,-0.00682817 -0.0478087,-0.00682817l-0.0546369 0c-0.0235452,0 -0.0264453,0.0050514 -0.0478087,0.00682817l0 -1.1064c0,-0.025299 -0.00666387,-0.0308471 -0.0204883,-0.0409767l0 0.0136602 0.006832 0.0136563 0.00682817 1.12006 -0.0341485 0 -0.0204883 0.00682817 -0.0204883 0.006832 -0.0204883 0.00682817 -0.0136602 0.006832 -0.0136602 0.00682817 -0.0136563 0.00682817 -0.0136602 0.006832 -0.006832 0.00682817 -0.0136563 0.006832 -0.0136602 0.00682817 0 0.0136602 -0.0136602 0 -0.00682817 0.00682817 -0.00682817 0.00682817 -0.0136602 0.006832 -0.006832 0.00682817 -0.00682817 0.00682817 -0.00682817 0.006832 -0.006832 0.00682817 -0.00682817 0.0136602 -0.006832 0.00682817 -0.00682817 0.006832 -0.00682817 0.00682817 -0.006832 0.00682817 -0.00682817 0.0136602 -0.00682817 0.006832 -0.006832 0.0136563 -0.00682817 0.0136602 -0.006832 0.0136602 -0.00682817 0.0136602 -0.00682817 0.00682817 -0.006832 0.0204883 -0.00682817 0.0136602 -0.006832 0.0273203 -0.00682817 0.0273165 -0.00682817 0.0409767 0 0.122934 0.00682817 0.0409767 0.218547 0 0 -0.0273165 -0.00682817 -0.0204883 -0.006832 -0.0478087 0 -0.0204883 0.006832 -0.0478087 0.00682817 -0.0204883 0.006832 -0.0204883 0.00682817 -0.0136602 0.00682817 -0.00682817 0.006832 -0.0136602 0.00682817 -0.00682817 0.00682817 -0.0136602 0.006832 -0.006832 0.00682817 -0.00682817 0.006832 -0.00682817 0.00682817 -0.006832 0.00682817 -0.00682817 0.0136602 -0.00682817 0.006832 -0.006832 0.0136563 -0.00682817 0.0204883 -0.00682817 0.006832 -0.006832 0.0204883 -0.00682817 0.0273165 -0.006832 0.0819572 0 0.0273165 0.006832 0.0204883 0.00682817 0.0136602 0.006832 0.0136602 0.00682817 0.0136602 0.00682817 0.0136602 0.006832 0.00682817 0.00682817 0.00682817 0.00682817 0.006832 0.006832 0.00682817 0.00682817 0.00682817 0.00682817 0.006832 0.006832 0.00682817 0.00682817 0.006832 0.006832 0.00682817 0.0136602 0.00682817 0.0136563 0.006832 0.0136602 0.00682817 0.0204883 0.00682817 0.0204883 0.006832 0.0204883 0 0.0751252 -0.006832 0.0204922 -0.00682817 0.0273165 0 0.0204883 0.218547 0 0.00682817 -0.0204883 0 -0.13659c-0.107917,0 -0.148798,-0.0291812 -0.170907,-0.115938 -0.0150892,-0.0592221 -0.0476406,-0.176738 -0.0476406,-0.239204 0.0388025,0.025983 0.113832,0.0546369 0.177571,0.0546369l0.908338 0c0.0808606,0 0.142727,-0.0221581 0.191231,-0.0546369l0 0.0409767 0.00682817 0 0.00682817 -0.0409767 0.006832 -0.00682817 0.0136563 -0.006832 0.006832 -0.00682817 0.00682817 -0.006832 0.006832 -0.00682817 0.00682817 -0.00682817 0.006832 -0.006832 0.00682817 -0.00682817 0.00682817 -0.00682817 0.006832 -0.006832 0.00682817 -0.00682817 0.00682817 -0.0136602 0.006832 -0.0136602 0.00682817 -0.00682817 0.00682817 -0.00682817 0.006832 -0.0136602 0.00682817 -0.0204883 0.006832 -0.0204883 0.00682817 -0.0204922 0.00682817 -0.0341447 0.006832 -0.812725 0 -0.006832c-0.0182722,-0.0287914 -0.006832,-0.257709 -0.006832,-0.314161 0,-0.053865 0.00278935,-0.106771 -0.00628559,-0.150797 -0.00617096,-0.0299416 -0.0308013,-0.109316 -0.0278629,-0.115559l0 -0.00682817 -0.00682817 -0.00682817 -0.00682817 -0.006832 -0.006832 -0.0136563 -0.00682817 -0.0136602 -0.00682817 -0.00682817 -0.006832 -0.006832 -0.00682817 -0.00682817 -0.00682817 -0.006832 -0.006832 -0.00682817 -0.00682817 -0.00682817 -0.006832 -0.006832 -0.00682817 -0.00682817 -0.006832 -0.006832 -0.0136563 -0.00682817 -0.006832 -0.00682817 -0.0136563 -0.006832 -0.006832 -0.00682817 -0.0136563 -0.00682817 -0.0136602 -0.006832 -0.0136602 -0.00682817 -0.0204883 -0.00682817 -0.0273165 -0.006832 -0.0341485 -0.00682817 -0.191231 0 -0.628322 0.00696573 0 -0.273322 0.607834 0c0.0131825,0 0.0121585,0.00214742 0.0204883,0.00682817l0.327821 0 0.0136602 -0.00682817 0.0273165 -0.00682817 0.0136602 -0.006832 0.0136602 -0.00682817 0.0136602 -0.00682817 0.0136563 -0.006832 0.0136602 -0.00682817 0.00682817 -0.00682817 0.006832 -0.006832 0.00682817 -0.00682817 0.006832 -0.006832 0.0136563 -0.00682817 0.006832 -0.006832 0.00682817 -0.00682817 0.00682817 -0.0136602 0.006832 -0.00682817 0.00682817 -0.0136602 0.00682817 -0.00682817 0.006832 -0.0136602 0.00682817 -0.00682817 0.006832 -0.0204883 0.00682817 -0.0204883 0 -0.0273203c0.00356884,-0.0153185 0.006832,-0.0157006 0.006832,-0.0341485l0 -0.34831c0,-0.122521 -0.0410302,-0.184877 -0.0478087,-0.266356l0 -0.0136563 -0.006832 -0.0204883 -0.00682817 -0.0136602 -0.00682817 -0.0204922 -0.006832 -0.00682817 -0.00682817 -0.0136602 -0.00682817 -0.0136563 -0.006832 -0.0204883 -0.00682817 -0.0136602 -0.006832 -0.006832 -0.00682817 -0.0136563 -0.00682817 -0.006832 -0.006832 -0.0136563 -0.00682817 -0.006832 -0.00682817 -0.0136563 -0.006832 -0.0136602 -0.00682817 -0.006832 -0.00682817 -0.00682817 -0.006832 -0.00682817 -0.00682817 -0.0136602 -0.006832 -0.006832 -0.00682817 -0.0136563 -0.006832 -0.006832 -0.00682817 -0.00682817 -0.00682817 -0.00682817 -0.006832 -0.006832 -0.00682817 -0.00682817 -0.00682817 -0.006832 -0.006832 -0.00682817 -0.00682817 -0.00682817 -0.00682817 -0.006832 -0.006832 -0.00682817 -0.00682817 -0.006832 -0.006832 -0.00682817 -0.00682817 -0.00682817 -0.00682817 -0.006832 -0.006832 -0.00682817 -0.0136563 -0.00682817 -0.006832 -0.006832 -0.00682817 -0.00682817 -0.00682817 -0.00682817 -0.006832 -0.006832 -0.0136602 -0.00682817 -0.00682817 -0.006832 -0.0136602 -0.00682817 -0.00682817 -0.00682817 -0.006832 -0.006832 -0.0136563 -0.00682817 -0.006832 -0.00682817 -0.0136563 -0.006832 -0.0136602 -0.00682817 -0.0136602 -0.006832 -0.00682817 -0.00682817 -0.0136602 -0.00682817 -0.0136602 -0.006832 -0.0136602 -0.00682817 -0.0136563 -0.006832 -0.0204883 -0.00682817 -0.0136602 -0.00682817 -0.0136602 -0.006832 -0.0204883 -0.00682817 -0.0204883 -0.00682817 -0.0204883 -0.006832 -0.0273203 -0.00682817 -0.0273165 -0.00682817 -0.0341485 -0.006832 -0.0204883 -0.00682817 -0.0614689 -0.006832 -0.170739 0 -0.061465 0.006832z"/>
    <path id="_116879200" class="fil1" d="M4.04996 4.4734l-0.006832 0 -0.00682817 0 -0.0136602 0.00682817 -0.00682817 0 -0.00682817 0 -0.0136602 0.00682817 -0.0136602 0.006832 -0.0136602 0.00682817 -0.00682817 0.00682817 -0.006832 0.006832 -0.0136563 0.00682817 -0.006832 0.006832 -0.0136563 0.00682817 -0.006832 0.00682817 -0.00682817 0.0136602 -0.00682817 0.006832 -0.006832 0.00682817 -0.00682817 0.00682817 -0.006832 0.0136602 -0.00682817 0.00682817 -0.006832 0.0204883 -0.00682817 0.0136602 -0.00682817 0.0136602 -0.006832 0.0204883 0 0.00682817 0 0.006832 -0.00682817 0.0273165 0 0.006832 0.00682817 0.601005 0.006832 0.0341485 0.00682817 0.0136563 0.00682817 0.0204922 0.006832 0.0136563 0.00682817 0.0136602 0.006832 0.006832 0.00682817 0.00682817 0.006832 0.00682817 0.00682817 0.0136602 0.00682817 0.00682817 0.006832 0.006832 0.00682817 0.00682817 0.0136602 0.00682817 0.00682817 0.006832 0.0136602 0 0 0.0136602 0.0136602 0.00682817 0.0204883 0.00682817 0.0136602 0.006832 0.0204883 0.00682817 0.0273165 0.00682817 0.0761492 0.00307593 -0.0146842 0.00375607 -0.00682817 0.0136602 -0.00682817 0.00682817 -0.006832 0.00682817 -0.00682817 0.006832 -0.00682817 0.00682817 -0.006832 0.006832 -0.0136602 0.00682817 -0.00682817 0.00682817 -0.00682817 0.006832 -0.006832 0.00682817 -0.00682817 0.00682817 -0.00682817 0.006832 0 0.00682817 0.0546369 0 0.0273165 -0.00682817 0.0409767 -0.006832 0.0204922 -0.00682817 0.00682817 0 0.00682817 0 0.0136602 -0.00682817 0.00682817 0 0.006832 0 0.0204883 -0.006832 0.0204883 -0.00682817 0.0204883 -0.00682817 0.0136602 -0.006832 0.0136602 -0.00682817 0.0136563 -0.006832 0.0136602 -0.00682817 0.0136602 -0.00682817 0.0136602 -0.006832 0.0136563 -0.00682817 1.59813 -0.006832 0.0341485 -0.00682817 0.006832 -0.00682817 0.00682817 0 0.00682817 0 0.0136602 -0.006832 0.0136602 -0.00682817 0.0136602 -0.00682817 0.00682817 -0.006832 0.0136602 -0.00682817 0.00682817 -0.006832 0.00682817 -0.00682817 0.006832 -0.00682817 0.00682817 -0.006832 0.006832 -0.00682817 0.00682817 -0.00682817 0.00682817 -0.006832 0.006832 -0.00682817 0.00682817 -0.0136602 0.006832 -0.00682817 0.00682817 -0.0204883 0.00682817 -0.006832 0.006832 -0.0136602 0.00682817 -0.0341447 0.00682817 -0.0136602 0 -0.0136602 -0.00682817 -0.0136602c-0.0364679,-0.0316954 -0.0738261,-0.0206794 -0.128654,-0.0830615 -0.0264071,-0.0300409 -0.062577,-0.0959918 -0.062577,-0.149142l0 -0.0136602c0,-0.0626419 0.0299607,-0.122705 0.0631119,-0.155439 0.067231,-0.0663789 0.0775554,-0.0437164 0.134947,-0.0835964l0 -0.0956174 0 -0.0136563 0 -0.0136602 -0.00682817 -0.0273203 -0.00682817 -0.0204883 -0.006832 -0.0136602 -0.00682817 -0.00682817 -0.00682817 -0.0136602 -0.006832 -0.0136563 -0.00682817 -0.006832 -0.006832 -0.0136563 -0.00682817 -0.006832 -0.00682817 -0.00682817 -0.006832 -0.006832 -0.0136602 0 0 -0.0136563 -0.00682817 -0.006832 -0.0136602 -0.00682817 -0.00682817 -0.006832 -0.0136602 -0.00682817 -0.00682817 -0.00682817 -0.0136602 -0.006832 -0.0204883 -0.00682817 -0.0204883 -0.00682817 -0.0136602 0 -0.00682817 0 -0.0204883 -0.006832 -1.87815 0 -0.0273165 0.006832z"/>
    <polygon id="_116871304" class="fil8" points="0.956143,5.47735 0.956143,5.50467 0.962975,5.52516 0.969803,5.55248 0.976635,5.57296 0.983464,5.59345 0.990292,5.60711 0.997124,5.62077 1.00395,5.6276 1.01078,5.64126 1.01761,5.64809 1.02444,5.66175 1.03127,5.66858 1.0381,5.68224 1.05176,5.68907 1.05859,5.6959 1.06542,5.70273 1.07225,5.71639 1.07908,5.72321 1.09274,5.73005 1.09957,5.73687 1.11323,5.74371 1.12005,5.75053 1.13371,5.75736 1.14055,5.76419 1.1542,5.77102 1.16786,5.77785 1.18835,5.78468 1.20884,5.79151 1.22933,5.79834 1.26348,5.80517 1.37275,5.80517 1.41373,5.79834 1.43422,5.79151 1.45471,5.78468 1.4752,5.77785 1.48886,5.77102 1.50252,5.76419 1.50934,5.75736 1.523,5.75053 1.53666,5.74371 1.54349,5.73687 1.55032,5.73005 1.55715,5.72321 1.57081,5.71639 1.57764,5.70956 1.58447,5.70273 1.5913,5.6959 1.59813,5.68907 1.60496,5.67541 1.61179,5.66858 1.61862,5.66175 1.62545,5.65492 1.63228,5.64126 1.63911,5.63443 1.64593,5.61394 1.65277,5.60711 1.65959,5.59345 1.66643,5.5798 1.67325,5.5593 1.68008,5.53199 1.68691,5.49784 1.68691,5.46369 1.67988,5.05392 0.962975,5.05392 "/>
   </g>
   <polygon id="_116873080" class="fil9 str0" points="0.720218,3.3571 0.705705,3.41554 0.703447,3.85096 0.704483,3.90963 0.711582,3.95244 0.732602,4.01134 0.756815,4.05401 0.788431,4.09449 0.837309,4.13905 0.890429,4.17152 0.938593,4.18995 0.978596,4.19817 1.6755,4.19689 1.72141,4.18573 1.77696,4.16039 1.82483,4.12557 1.87083,4.07543 1.90592,4.0168 1.92829,3.95483 1.93828,3.89644 1.93464,3.40762 1.9191,3.35137 1.89202,3.29543 1.85718,3.24746 1.80914,3.20207 1.74304,3.16321 1.68635,3.14601 1.63911,3.14162 1.01866,3.14162 0.962475,3.14529 0.908717,3.16079 0.86069,3.18528 0.818976,3.21602 0.795591,3.23809 0.747702,3.30003 "/>
   <polygon id="_59578400" class="fil10" points="1.05636,3.77417 1.05636,3.4654 1.11877,3.4654 1.11877,3.58689 1.24091,3.58689 1.24091,3.4654 1.30324,3.4654 1.30324,3.77417 1.24091,3.77417 1.24091,3.63916 1.11877,3.63916 1.11877,3.77417 "/>
   <path id="_595784001" class="fil10" d="M1.3673 3.52018l0 -0.0547821 0.0591686 0 0 0.0547821 -0.0591686 0zm0 0.253995l0 -0.223656 0.0591686 0 0 0.223656 -0.0591686 0z"/>
   <path id="_5957840012" class="fil10" d="M1.63013 3.69459l-0.0153873 -0.156723 0 -0.0724696 0.0640557 0 0 0.0724696 -0.0151695 0.156723 -0.0334989 0zm-0.0128692 0.0795843l0 -0.0591686 0.0591648 0 0 0.0591686 -0.0591648 0z"/>
   <path id="_116873416" class="fil10" d="M3.72172 0.634401c-0.000106989,-0.00377135 -0.000164304,-0.00662948 -0.000164304,-0.00851707 0,-0.0111612 0.00156662,-0.0208131 0.00474572,-0.0289022 0.00231936,-0.00609072 0.00604104,-0.0122387 0.0112147,-0.0184938 0.00377517,-0.00452792 0.0106225,-0.0111077 0.0204349,-0.0197891 0.00986971,-0.00873487 0.0162317,-0.0156356 0.0191968,-0.0208131 0.00296512,-0.00512018 0.00442093,-0.0107829 0.00442093,-0.0168737 0,-0.0110542 -0.00431394,-0.0207596 -0.0129418,-0.0291735 -0.00862406,-0.00835659 -0.0192465,-0.0125597 -0.0317566,-0.0125597 -0.0121318,0 -0.0222154,0.00382485 -0.0303007,0.0113752 -0.00814261,0.00760384 -0.0134271,0.0194643 -0.0159604,0.0355852l-0.029227 -0.00350388c0.00264415,-0.0215659 0.010462,-0.0381186 0.0234573,-0.0496046 0.0129915,-0.011486 0.0301938,-0.0172023 0.0515457,-0.0172023 0.0226472,0 0.0407092,0.00614803 0.0541898,0.0184976 0.0134768,0.0122922 0.0202171,0.0271751 0.0202171,0.0446984 0,0.0100799 -0.00237286,0.0194108 -0.00711475,0.0279279 -0.00474572,0.00852089 -0.0139659,0.0189255 -0.0277712,0.0311108 -0.00927363,0.0082496 -0.0153109,0.0142906 -0.018169,0.0181728 -0.00285813,0.00393566 -0.00495969,0.00841008 -0.00630852,0.0134271 -0.00140232,0.00506668 -0.00215506,0.0132628 -0.00237286,0.024638l-0.0273356 0zm-0.0017271 0.0570479l0 -0.0324061 0.0323526 0 0 0.0324061 -0.0323526 0z"/>
   <rect id="_116883208" class="fil11 str1" x="4.19807" y="0.184873" width="1.87049" height="0.0699248"/>
   <rect id="_116867968" class="fil11 str1" x="4.32743" y="0.440098" width="1.87049" height="0.0699248"/>
   <rect id="_116872456" class="fil11 str1" x="4.1666" y="0.705812" width="1.87049" height="0.0699248"/>
   <rect id="_116867872" class="fil11 str1" x="4.04424" y="1.71972" width="1.58729" height="0.0804135"/>
   <rect id="_116872048" class="fil11 str1" x="4.18409" y="1.97844" width="1.58729" height="0.0804135"/>
   <rect id="_116870080" class="fil11 str1" x="4.01627" y="2.22668" width="1.58729" height="0.0804135"/>
   <path id="_116872912" class="fil10" d="M6.24452 2.13117c-0.000106989,-0.00377135 -0.000164304,-0.00662948 -0.000164304,-0.00851707 0,-0.0111612 0.00156662,-0.0208131 0.00474572,-0.0289022 0.00231936,-0.00609072 0.00604104,-0.0122387 0.0112147,-0.0184938 0.00377517,-0.00452792 0.0106225,-0.0111077 0.0204349,-0.0197891 0.00986971,-0.00873487 0.0162317,-0.0156356 0.0191968,-0.0208131 0.00296512,-0.00512018 0.00442093,-0.0107829 0.00442093,-0.0168737 0,-0.0110542 -0.00431394,-0.0207596 -0.0129418,-0.0291735 -0.00862406,-0.00835659 -0.0192465,-0.0125597 -0.0317566,-0.0125597 -0.0121318,0 -0.0222154,0.00382485 -0.0303007,0.0113752 -0.00814261,0.00760384 -0.0134271,0.0194643 -0.0159604,0.0355852l-0.029227 -0.00350388c0.00264415,-0.0215659 0.010462,-0.0381186 0.0234573,-0.0496046 0.0129915,-0.011486 0.0301938,-0.0172023 0.0515457,-0.0172023 0.0226472,0 0.0407092,0.00614803 0.0541898,0.0184976 0.0134768,0.0122922 0.0202171,0.0271751 0.0202171,0.0446984 0,0.0100799 -0.00237286,0.0194108 -0.00711475,0.0279279 -0.00474572,0.00852089 -0.0139659,0.0189255 -0.0277712,0.0311108 -0.00927363,0.0082496 -0.0153109,0.0142906 -0.018169,0.0181728 -0.00285813,0.00393566 -0.00495969,0.00841008 -0.00630852,0.0134271 -0.00140232,0.00506668 -0.00215506,0.0132628 -0.00237286,0.024638l-0.0273356 0zm-0.0017271 0.0570479l0 -0.0324061 0.0323526 0 0 0.0324061 -0.0323526 0z"/>
   <path id="_80259024" class="fil10" d="M3.69865 3.56127c-0.000106989,-0.00377135 -0.000164304,-0.00662948 -0.000164304,-0.00851707 0,-0.0111612 0.00156662,-0.0208131 0.00474572,-0.0289022 0.00231936,-0.00609072 0.00604104,-0.0122387 0.0112147,-0.0184938 0.00377517,-0.00452792 0.0106225,-0.0111077 0.0204349,-0.0197891 0.00986971,-0.00873487 0.0162317,-0.0156356 0.0191968,-0.0208131 0.00296512,-0.00512018 0.00442093,-0.0107829 0.00442093,-0.0168737 0,-0.0110542 -0.00431394,-0.0207596 -0.0129418,-0.0291735 -0.00862406,-0.00835659 -0.0192465,-0.0125597 -0.0317566,-0.0125597 -0.0121318,0 -0.0222154,0.00382485 -0.0303007,0.0113752 -0.00814261,0.00760384 -0.0134271,0.0194643 -0.0159604,0.0355852l-0.029227 -0.00350388c0.00264415,-0.0215659 0.010462,-0.0381186 0.0234573,-0.0496046 0.0129915,-0.011486 0.0301938,-0.0172023 0.0515457,-0.0172023 0.0226472,0 0.0407092,0.00614803 0.0541898,0.0184976 0.0134768,0.0122922 0.0202171,0.0271751 0.0202171,0.0446984 0,0.0100799 -0.00237286,0.0194108 -0.00711475,0.0279279 -0.00474572,0.00852089 -0.0139659,0.0189255 -0.0277712,0.0311108 -0.00927363,0.0082496 -0.0153109,0.0142906 -0.018169,0.0181728 -0.00285813,0.00393566 -0.00495969,0.00841008 -0.00630852,0.0134271 -0.00140232,0.00506668 -0.00215506,0.0132628 -0.00237286,0.024638l-0.0273356 0zm-0.0017271 0.0570479l0 -0.0324061 0.0323526 0 0 0.0324061 -0.0323526 0z"/>
   <path id="_80259480" class="fil10" d="M6.22643 5.09248c-0.000106989,-0.00377135 -0.000164304,-0.00662948 -0.000164304,-0.00851707 0,-0.0111612 0.00156662,-0.0208131 0.00474572,-0.0289022 0.00231936,-0.00609072 0.00604104,-0.0122387 0.0112147,-0.0184938 0.00377517,-0.00452792 0.0106225,-0.0111077 0.0204349,-0.0197891 0.00986971,-0.00873487 0.0162317,-0.0156356 0.0191968,-0.0208131 0.00296512,-0.00512018 0.00442093,-0.0107829 0.00442093,-0.0168737 0,-0.0110542 -0.00431394,-0.0207596 -0.0129418,-0.0291735 -0.00862406,-0.00835659 -0.0192465,-0.0125597 -0.0317566,-0.0125597 -0.0121318,0 -0.0222154,0.00382485 -0.0303007,0.0113752 -0.00814261,0.00760384 -0.0134271,0.0194643 -0.0159604,0.0355852l-0.029227 -0.00350388c0.00264415,-0.0215659 0.010462,-0.0381186 0.0234573,-0.0496046 0.0129915,-0.011486 0.0301938,-0.0172023 0.0515457,-0.0172023 0.0226472,0 0.0407092,0.00614803 0.0541898,0.0184976 0.0134768,0.0122922 0.0202171,0.0271751 0.0202171,0.0446984 0,0.0100799 -0.00237286,0.0194108 -0.00711475,0.0279279 -0.00474572,0.00852089 -0.0139659,0.0189255 -0.0277712,0.0311108 -0.00927363,0.0082496 -0.0153109,0.0142906 -0.018169,0.0181728 -0.00285813,0.00393566 -0.00495969,0.00841008 -0.00630852,0.0134271 -0.00140232,0.00506668 -0.00215506,0.0132628 -0.00237286,0.024638l-0.0273356 0zm-0.0017271 0.0570479l0 -0.0324061 0.0323526 0 0 0.0324061 -0.0323526 0z"/>
   <rect id="_116871568" class="fil11 str1" x="4.1701" y="3.19513" width="1.94391" height="0.0559398"/>
   <rect id="_116873776" class="fil11 str1" x="4.30645" y="3.45735" width="1.94391" height="0.0559398"/>
   <rect id="_80259360" class="fil11 str1" x="4.11766" y="3.71957" width="1.94391" height="0.0559398"/>
   <rect id="_80259792" class="fil11 str1" x="4.00927" y="4.66705" width="1.94391" height="0.0559398"/>
   <rect id="_116881312" class="fil11 str1" x="3.93236" y="4.89081" width="1.94391" height="0.0559398"/>
   <rect id="_116872432" class="fil11 str1" x="3.95683" y="5.12506" width="1.94391" height="0.0559398"/>
  </g>
 </g>
</svg>
