<?xml version="1.0" encoding="UTF-8"?>
<!DOCTYPE svg PUBLIC "-//W3C//DTD SVG 1.1//EN" "http://www.w3.org/Graphics/SVG/1.1/DTD/svg11.dtd">
<!-- Creator: CorelDRAW -->
<svg xmlns="http://www.w3.org/2000/svg" xml:space="preserve" width="6.20357in" height="5.18298in" style="shape-rendering:geometricPrecision; text-rendering:geometricPrecision; image-rendering:optimizeQuality; fill-rule:evenodd; clip-rule:evenodd"
viewBox="0 0 6.16483 5.15061"
 xmlns:xlink="http://www.w3.org/1999/xlink">
 <defs>
  <style type="text/css">
   <![CDATA[
    .fil26 {fill:#0993FD}
    .fil11 {fill:#0B0B0B}
    .fil24 {fill:#11E7CA}
    .fil2 {fill:#1597B5}
    .fil14 {fill:#192436}
    .fil10 {fill:#1A122A}
    .fil6 {fill:#1AFBC7}
    .fil12 {fill:#232788}
    .fil7 {fill:#29449B}
    .fil30 {fill:#344DCC}
    .fil9 {fill:#3A3647}
    .fil21 {fill:#4F5AB3}
    .fil15 {fill:#5F34D0}
    .fil13 {fill:#636468}
    .fil0 {fill:#66C3DF}
    .fil16 {fill:#6C4DCE}
    .fil25 {fill:#71F9E4}
    .fil17 {fill:#7F50FF}
    .fil8 {fill:#9698A6}
    .fil28 {fill:#B4D4FC}
    .fil27 {fill:#C4304B}
    .fil34 {fill:#C8CCDA}
    .fil4 {fill:#CBF1F7}
    .fil23 {fill:#D9AC67}
    .fil20 {fill:#D9E8FB}
    .fil3 {fill:#EA3764}
    .fil32 {fill:#F0E470}
    .fil5 {fill:#F3F6FD}
    .fil18 {fill:#FA6EA2}
    .fil31 {fill:#FB9801}
    .fil19 {fill:#FD4283}
    .fil22 {fill:#FEC7A5}
    .fil29 {fill:#FF8500}
    .fil33 {fill:#FFAC61}
    .fil1 {fill:#FFC802}
   ]]>
  </style>
 </defs>
 <g id="Layer_x0020_1">
  <metadata id="CorelCorpID_0Corel-Layer"/>
  <g id="_118990480">
   <path id="_116870512" class="fil0" d="M1.12027 1.79642c-0.0119681,0 -0.0265145,-0.036409 -0.0265145,-0.053029l0 -0.00662764c0,-0.0333299 0.0329622,-0.0662882 0.0662882,-0.0662882l0.00662764 0c0.01662,0 0.0530329,0.0145425 0.0530329,0.0265145 0,0.0411548 -0.0649188,0.0994303 -0.0994342,0.0994303zm-0.417616 -1.56441l3.00287 0 0 0.298299 -0.464017 0 -2.54548 0 0.00663155 0 0 -0.298299zm0.0331421 -0.225383l-0.0132553 0.00663155 -0.0265184 0.00662764 -0.00662764 0.00662764 -0.0198868 0.00663155 -0.00662764 0.00662764 -0.0132592 0.00662764 -0.00662764 0.00663155 -0.0132592 0.00662764 -0.00662764 0.00662764 -0.0132592 0.00662764 0 0.0132592 -0.0132553 0 0 0.0132592 -0.0132592 0 0 0.0132553 -0.0132553 0 -0.00663155 0.0132592 -0.00662764 0.00662764 -0.00662764 0.0132592 -0.00663155 0.00662764 -0.00662764 0.0198868 -0.00662764 0.00662764 -0.00662764 0.0265184 -0.00663155 0.0132553 -0.00662764 0.0265145 -0.00662764 0.0464052 0 0.391101 0.00662764 0.0132553 0.0662882 0c0.108738,0 0.270028,0.101437 0.319422,0.164486 0.070271,0.0896962 0.13134,0.194326 0.13134,0.352564 0,0.106606 -0.0596605,0.221545 -0.0596605,0.24527 0,0.0428058 0.0477511,0.122173 0.0530759,0.185151l-0.205539 -0.019433c-0.0578608,0.0387486 -0.156446,0.0928066 -0.251897,0.0928066l-0.0596566 0.0132553 0 0.755688 0.00662764 0.033146 0.00662764 0.033146 0.00663155 0.0132553 0.00662764 0.0198868 0.00662764 0.00662764 0.00662764 0.0132592 0.00663155 0.0132592 0.00662764 0.0132553 0.0132592 0 0 0.0132592 0.00662764 0.00662764 0.00662764 0.00663155 0.00662764 0.00662764 0.00663155 0.0132553 0.0132553 0.00663155 0.00663155 0.00662764 0.00662764 0.00662764 0.0132592 0.00663155 0.00662764 0.00662764 0.00662764 0.00662764 0.0132592 0.00662764 0.0132592 0.00663155 0.0132553 0.00662764 0.0198868 0.00662764 0.0132592 0.00663155 0.0331421 0.00662764 0.033146 0.00662764 0.464017 0 0.00663155 -0.178978 -0.0928066 0c-0.127694,0 -0.308076,-0.200535 -0.245266,-0.331441 -0.027297,-0.00728884 -0.124939,-0.117353 -0.218751,-0.139208 0.00921375,-0.0395546 0.0397737,-0.051061 0.0397737,-0.106062l0 -0.0265145c0.0673797,0.00150237 0.190985,0.100667 0.238638,0.132576l0.0397737 -0.0397737c-0.0253095,-0.0478254 -0.0347697,-0.0633695 -0.0674775,-0.104872 -0.0283572,-0.0359904 -0.0667381,-0.0601065 -0.0849895,-0.0873644 0.0355717,-0.0531189 0.0465226,-0.0344645 0.0662882,-0.119317 0.0754706,0.020149 0.181032,0.187233 0.218755,0.258525l0.0596566 -0.00663155c-0.00667459,-0.0802125 -0.0765504,-0.169494 -0.0795434,-0.205492 0.0692772,-0.0161387 0.0683226,-0.0518944 0.109786,-0.0817853l0.055932 0.0884129 0 -0.291667c-0.00503529,-0.0605291 -0.0464013,-0.110189 -0.0464013,-0.205496l0 -0.0928026c0,-0.138355 0.113006,-0.344673 0.192237,-0.397733 0.0667146,-0.0910538 0.268603,-0.165718 0.437503,-0.165718l0.642999 0c0.11605,0 0.169224,0.0161935 0.252856,0.0454428 0.0447659,0.0156575 0.163383,0.0885185 0.184651,0.120276 0.105256,0.0704862 0.198864,0.279453 0.198864,0.464021l1.30588 0 -0.00663155 -0.00662764 -0.563451 0 -0.469334 0.00131457 0.469334 -0.471963 0.00662764 0 0 -0.159091 0 -0.298303 0 -0.0464013 0 -0.00662764 0 -0.00662764 -0.00662764 -0.0662882 -0.00662764 -0.0132592 -0.00662764 -0.0265145 -0.00663155 -0.00662764 -0.00662764 -0.0198868 -0.00662764 -0.00663155 -0.00663155 -0.0198868 -0.0132553 0 0 -0.0132553 -0.00662764 -0.00663155 -0.00663155 -0.0132553 -0.00662764 -0.00662764 -0.00662764 -0.00663155 -0.00663155 -0.00662764 -0.00662764 -0.00662764 -0.00662764 -0.00663155 -0.0132592 -0.00662764 -0.00662764 -0.00662764 -0.00663155 -0.00662764 -0.0132553 -0.00663155 -0.0132592 -0.00662764 -0.00662764 -0.00662764 -0.0198868 -0.00663155 -0.00662764 -0.00662764 -0.0265184 -0.00662764 -0.0132553 -0.00663155 -0.0464013 -0.00662764 -2.84378 0 -0.0464013 0.00662764z"/>
   <path id="_118986040" class="fil1" d="M3.48015 0.377842l0 0.0132592c0,0.0159627 0.023811,0.0397737 0.0397737,0.0397737l0.0198829 0c0.0159627,0 0.0397737,-0.023811 0.0397737,-0.0397737l0 -0.0132592c0,-0.0159588 -0.023811,-0.0397698 -0.0397737,-0.0397698l-0.0198829 0c-0.0159627,0 -0.0397737,0.023811 -0.0397737,0.0397698z"/>
   <path id="_117746760" class="fil2" d="M3.02938 0.377842c0,0.0242257 0.0182945,0.0530329 0.0397737,0.0530329l0.0132553 0c0.0309473,0 0.0464052,-0.015458 0.0464052,-0.0464013 0,-0.0223399 -0.0117177,-0.0464013 -0.033146,-0.0464013l-0.0198868 0c-0.0254307,0 -0.0464013,0.0191278 -0.0464013,0.0397698z"/>
   <path id="_122853312" class="fil3" d="M3.25476 0.377842l0 0.0132592c0,0.0159627 0.0238149,0.0397737 0.0397737,0.0397737l0.0132592 0c0.0254268,0 0.0464013,-0.0191278 0.0464013,-0.0397737l0 -0.00662764c0,-0.0309473 -0.015458,-0.0464013 -0.0464013,-0.0464013l-0.0132592 0c-0.0159588,0 -0.0397737,0.023811 -0.0397737,0.0397698z"/>
   <path id="_118968328" class="fil4" d="M3.5398 0.338072c0.0159627,0 0.0397737,0.023811 0.0397737,0.0397698l0 0.0132592c0,0.0159627 -0.023811,0.0397737 -0.0397737,0.0397737l-0.0198829 0c-0.0159627,0 -0.0397737,-0.023811 -0.0397737,-0.0397737l0 -0.0132592c0,-0.0159588 0.023811,-0.0397698 0.0397737,-0.0397698l0.0198829 0zm-0.232007 0c0.0309433,0 0.0464013,0.0154541 0.0464013,0.0464013l0 0.00662764c0,0.0206458 -0.0209745,0.0397737 -0.0464013,0.0397737l-0.0132592 0c-0.0159588,0 -0.0397737,-0.023811 -0.0397737,-0.0397737l0 -0.0132592c0,-0.0159588 0.0238149,-0.0397698 0.0397737,-0.0397698l0.0132592 0zm-0.232011 0l0.0198868 0c0.0214283,0 0.033146,0.0240614 0.033146,0.0464013 0,0.0309433 -0.015458,0.0464013 -0.0464052,0.0464013l-0.0132553 0c-0.0214792,0 -0.0397737,-0.0288072 -0.0397737,-0.0530329 0,-0.0206419 0.0209706,-0.0397698 0.0464013,-0.0397698zm-2.37313 0.192237l-0.00663155 0 2.54548 0 0.464017 0 0 -0.298299 -3.00287 0 0 0.298299z"/>
   <path id="_117741984" class="fil5" d="M2.63828 1.40531l-0.868382 0c-0.0741482,-0.00616989 -0.17235,-0.0975797 -0.17235,-0.17235l0 -0.0928026c0,-0.0658265 0.0456619,-0.11747 0.0850208,-0.14699 0.0631504,-0.0473599 0.0966759,-0.0386195 0.200019,-0.0386195 0.159095,0 0.318186,0 0.47728,0 0.214276,0 0.35301,-0.0344606 0.430875,0.112689 0.00940546,0.017778 0.0265145,0.0661512 0.0265145,0.0928066l0 0.0397737c0,0.0967503 -0.0886594,0.197976 -0.178978,0.205492zm-1.19319 -0.576711c0.0521721,0.077912 0.106062,0.116704 0.106062,0.251897l0 0.410988c0,0.0740348 -0.0658734,0.195938 -0.106062,0.225383 0.0266592,0.0398089 0.142209,0.112748 0.198864,0.125949 0.0297188,-0.0341907 0.0545,-0.094082 0.0910968,-0.134286 0.0389599,-0.0427941 0.0667929,-0.0751615 0.117044,-0.108339 0.0818792,-0.0540618 0.203876,-0.115334 0.335428,-0.115334l0.0331421 0c0.248482,0 0.456595,0.218751 0.464021,0.218751l0.258525 0c-0.00525438,-0.0196795 -0.0472816,-0.0778142 -0.060666,-0.111684 -0.0165848,-0.0419803 -0.025509,-0.0862963 -0.025509,-0.146841l0 -0.331441c0,-0.0809167 0.023365,-0.193935 0.0662882,-0.225383l0.0397737 -0.0596605c-0.0212679,-0.0317571 -0.139885,-0.104618 -0.184651,-0.120276 -0.0836319,-0.0292493 -0.136806,-0.0454428 -0.252856,-0.0454428l-0.642999 0c-0.168899,0 -0.370788,0.0746647 -0.437503,0.165718z"/>
   <path id="_122863056" class="fil6" d="M0.583338 1.06724c0,0.0684987 0,0.136997 0,0.205496 0,0.0684126 -0.0196404,0.159091 0.0464013,0.159091l0.0132592 0c0.0673328,0 0.0464013,-0.101688 0.0464013,-0.172346 0,-0.0751302 0,-0.150257 0,-0.225383 -0.0103679,-0.0119251 -0.00792265,-0.0198868 -0.0265145,-0.0198868l-0.0397737 0c-0.0179032,0 -0.0182788,0.00316515 -0.0339559,0.00649853l-0.00581777 0.0465304z"/>
   <path id="_118995040" class="fil7" d="M0.450762 0.6894l-0.0331421 0.00662764 -0.033146 0.00663155 -0.0265145 0.00662764 -0.0198868 0.00662764 -0.0198868 0.00662764 -0.0132592 0.00663155 -0.0132553 0.00662764 -0.0132592 0.00662764 -0.0132592 0.00663155 -0.0132553 0.00662764 -0.00663155 0.00662764 -0.0198868 0.00663155 0 0.0132553 -0.0132553 0 -0.00662764 0.00663155 -0.0132592 0.00662764 -0.00662764 0.00662764 -0.0132592 0.00662764 0 0.0132592 -0.0132553 0 0 0.0132592 -0.0132592 0 0 0.0132553 -0.0132592 0 0 0.0132592 -0.0132553 0 -0.00663155 0.0132592 -0.00662764 0.00662764 -0.00662764 0.00662764 -0.00663155 0.0132592 -0.00662764 0.00662764 -0.00662764 0.00662764 -0.00662764 0.00663155 -0.00663155 0.0198868 -0.00662764 0.00662764 -0.00662764 0.0132592 -0.00663155 0.00662764 -0.00662764 0.0198868 -0.00662764 0.0132592 -0.00663155 0.0198829 -0.00662764 0.0132592 -0.00662764 0.0265145 -0.00663155 0.0198868 -0.00662764 0.0397737 0 0.178978 0.00662764 0.0397737 0.00663155 0.0132592 0.00662764 0.0265145 0.00662764 0.0132592 0.00663155 0.0265145 0.00662764 0.00662764 0.00662764 0.0198868 0.00663155 0.00662764 0.00662764 0.0198868 0.00662764 0.00663155 0.00663155 0.0132553 0.00662764 0.00663155 0.00662764 0.00662764 0.00662764 0.0132553 0.00663155 0.00663155 0.00662764 0.00662764 0.00662764 0.00662764 0.00663155 0.0132592 0.0132553 0 0 0.0132592 0.0132592 0 0 0.0132553 0.0132592 0 0 0.0132592 0.0132553 0 0 0.0132592 0.0132592 0.00662764 0.00662764 0.00662764 0.00662764 0.00662764 0.0132592 0.00663155 0.00662764 0.00662764 0.00662764 0.00662764 0.0132592 0.00663155 0.0132592 0.00662764 0.0132553 0.00662764 0.00663155 0.00663155 0.0198868 0.00662764 0.00662764 0.00662764 0.0198868 0.00663155 0.0132553 0.00662764 0.0265184 0.00662764 0.0198868 0.00663155 0.0331421 0.00662764 0.0265145 0.00662764 0.0662921 0.00662764 0.0596566 -0.0132553 -0.0679275 0.0016393 -0.2834 -0.286683c-0.0143703,-0.0124884 -0.0265145,-0.0187405 -0.0265145,-0.0464013l0 -0.331441c0,-0.0203524 0.00613468,-0.0397737 0.0265145,-0.0397737l0.0397737 0c0.0179032,0 0.0182749,0.00316515 0.0331421,0.00662764l0 0.159095 0.152463 0 0 -0.125949c0,-0.0203524 0.00613859,-0.0397737 0.0265184,-0.0397737l0.0397737 0c0.0237288,0 0.028682,0.00819652 0.0397698,0.0198868l0.0397737 0.0331421 0.00581777 -0.0465304c0.0156771,-0.00333338 0.0160527,-0.00649853 0.0339559,-0.00649853l0.0397737 0c0.0185918,0 0.0161466,0.00796178 0.0265145,0.0198868l0.0464013 0.0397737 0 -0.0397737c0.00757054,-0.011303 0.0144251,-0.0265145 0.033146,-0.0265145l0.0265145 0c0.0202233,0 0.0267492,0.00636551 0.0397737,0.0132553l0 0.238642 0.00819652 -0.226956 0.18404 0.18055c0,-0.158238 -0.061069,-0.262868 -0.13134,-0.352564 -0.0493943,-0.0630487 -0.210684,-0.164486 -0.319422,-0.164486l-0.0662882 0 -0.00662764 -0.0132553 -0.0530329 0.00662764z"/>
   <path id="_117745248" class="fil7" d="M4.71311 1.49812l-0.0397737 0c-0.0485884,0 -0.112689,-0.0641011 -0.112689,-0.112693l0 -0.0397698c0,-0.0707522 0.0679118,-0.125949 0.139204,-0.125949 0.0707953,0 0.139208,0.0622623 0.139208,0.132576l0 0.0132592c0,0.0659282 -0.0596018,0.132576 -0.125949,0.132576zm-0.165722 -0.357959l-0.0132553 0.00662764 -0.0132592 0.00663155 -0.00662764 0.00662764 -0.00663155 0.00662764 -0.00662764 0.00662764 -0.00662764 0.00663155 -0.00663155 0.00662764 -0.00662764 0.00662764 -0.00662764 0.00663155 -0.00662764 0.0198868 -0.00663155 0.0198868 0 0.0464013 0.00663155 0.00662764 0 0.0397737 0 0.205492 0 0.0464052 1.48486 0 0 -0.357959 -0.00663155 -0.0198868 -0.00662764 -0.00662764 -0.00662764 -0.0132592 -0.00663155 -0.00662764 -0.00662764 -0.00663155 -0.00662764 -0.00662764 -0.00663155 -0.00662764 -0.00662764 -0.00662764 -0.0132553 -0.00663155 -0.0132592 -0.00662764 -0.0397737 -0.00662764 -1.25285 0 -0.033146 0.00662764z"/>
   <path id="_122863008" class="fil6" d="M2.0682 1.23296l0.0132592 -0.0132553 0.00662764 -0.033146c-0.026178,-0.039089 -0.0936399,-0.0795474 -0.159091,-0.0795474l-0.033146 0c-0.0539679,0 -0.159091,0.0403527 -0.159091,0.086175 0,0.0206458 0.0209706,0.0397737 0.0464013,0.0397737 0.0200277,0 0.0528999,-0.0464013 0.125949,-0.0464013l0.0198868 0c0.0450633,0 0.072192,0.0281616 0.0994303,0.0464013l0.0397737 0z"/>
   <path id="_118983688" class="fil6" d="M2.28032 1.19319l0 0.00663155c0,0.015458 0.0176881,0.0331421 0.033146,0.0331421l0.00662764 0c0.0200277,0 0.0528999,-0.0464013 0.125949,-0.0464013l0.00662764 0c0.0824425,0 0.0917424,0.0464013 0.132576,0.0464013l0.00662764 0c0.015458,0 0.033146,-0.0176841 0.033146,-0.0331421l0 -0.00663155c0,-0.0455367 -0.110291,-0.086175 -0.17235,-0.086175l-0.00662764 0c-0.0614328,0 -0.165722,0.0303956 -0.165722,0.086175z"/>
   <path id="_117742056" class="fil6" d="M0.735801 1.07387l0.00663155 0.198864c0.0148672,0.00346249 0.0152389,0.00662764 0.0331421,0.00662764l0.033146 0c0.0177272,0 0.0196051,-0.00956587 0.0265145,-0.0198829l0 -0.238642c-0.0130245,-0.00688977 -0.0195504,-0.0132553 -0.0397737,-0.0132553l-0.0265145 0c-0.0187209,0 -0.0255755,0.0152115 -0.033146,0.0265145l0 0.0397737z"/>
   <polygon id="_122853096" class="fil0" points="3.89776,1.286 3.89776,0.815349 3.42843,1.28731 "/>
   <path id="_118971832" class="fil8" d="M3.1023 1.53789l0.0729197 0 0.722542 0 0 -0.053029c-0.0607443,0 -0.27178,0.0224417 -0.27178,-0.033146l0 -0.0265145c0,-0.0311585 0.0149181,-0.0341985 0.0331421,-0.0464013l0.238638 0 0 -0.0464013 0.570083 0 0 -0.0397737 -1.30588 0 -0.0222617 0.144955 -0.0373988 0.100311z"/>
   <path id="_117750384" class="fil9" d="M1.7699 1.40531l0.14251 -0.0032747 0.155789 -0.169075 -0.0397737 0c-0.0272383,-0.0182397 -0.054367,-0.0464013 -0.0994303,-0.0464013l-0.0198868 0c-0.0730488,0 -0.105921,0.0464013 -0.125949,0.0464013 -0.0254307,0 -0.0464013,-0.0191278 -0.0464013,-0.0397737 0,-0.0458223 0.105123,-0.086175 0.159091,-0.086175l0.033146 0c0.0654509,0 0.132913,0.0404584 0.159091,0.0795474l-0.00662764 0.033146c0.0176294,0.00830607 0.114039,-0.102028 0.140331,-0.124822 0.0191826,-0.0166317 0.128065,-0.125381 0.138081,-0.140335 -0.159095,0 -0.318186,0 -0.47728,0 -0.103343,0 -0.136868,-0.00874035 -0.200019,0.0386195 -0.039359,0.0295192 -0.0850208,0.0811632 -0.0850208,0.14699l0 0.0928026c0,0.0747703 0.0982018,0.16618 0.17235,0.17235z"/>
   <path id="_122853864" class="fil6" d="M0.212124 1.43183c0.0473051,0 0.0795474,0.000610338 0.0795474,-0.0464013l0 -0.119317 0.145832 0 0 0.119317c0,0.0309473 0.015458,0.0464013 0.0464052,0.0464013l0.0132553 0c0.0673328,0 0.0464013,-0.101688 0.0464013,-0.172346 0,-0.0751302 0,-0.150257 0,-0.225383 -0.0110878,-0.0116903 -0.0160409,-0.0198868 -0.0397698,-0.0198868l-0.0397737 0c-0.0203798,0 -0.0265184,0.0194213 -0.0265184,0.0397737l0 0.125949 -0.152463 0 0 -0.159095c-0.0148672,-0.00346249 -0.0152389,-0.00662764 -0.0331421,-0.00662764l-0.0397737 0c-0.0203798,0 -0.0265145,0.0194213 -0.0265145,0.0397737l0 0.331441c0,0.0276608 0.0121442,0.0339129 0.0265145,0.0464013z"/>
   <path id="_118998208" class="fil10" d="M2.63828 1.40531c0.0903183,-0.00751576 0.178978,-0.108742 0.178978,-0.205492l0 -0.0397737c0,-0.0266553 -0.017109,-0.0750285 -0.0265145,-0.0928066l-0.338072 0.338072 0.185609 0z"/>
   <path id="_117738120" class="fil9" d="M2.28032 1.19319c0,-0.0557794 0.10429,-0.086175 0.165722,-0.086175l0.00662764 0c0.0620588,0 0.17235,0.0406383 0.17235,0.086175l0 0.00663155c0,0.015458 -0.0176881,0.0331421 -0.033146,0.0331421l-0.00662764 0c-0.0408339,0 -0.0501338,-0.0464013 -0.132576,-0.0464013l-0.00662764 0c-0.0730488,0 -0.105921,0.0464013 -0.125949,0.0464013l-0.00662764 0c-0.015458,0 -0.033146,-0.0176841 -0.033146,-0.0331421l0 -0.00663155zm-0.198864 0.0265184l-0.0132592 0.0132553 -0.155789 0.169075 -0.14251 0.0032747 0.868382 0 -0.185609 0 0.338072 -0.338072c-0.077865,-0.14715 -0.216599,-0.112689 -0.430875,-0.112689 -0.0100158,0.0149533 -0.118898,0.123703 -0.138081,0.140335 -0.0262915,0.0227938 -0.122701,0.133128 -0.140331,0.124822z"/>
   <path id="_122863128" class="fil6" d="M0.735801 1.35229l0 0.0464013c0,0.015458 0.0176881,0.0331421 0.033146,0.0331421l0.0265145 0c0.0309433,0 0.0464013,-0.0154541 0.0464013,-0.0464013l0 -0.0265145c0,-0.015458 -0.0176841,-0.0331421 -0.0331421,-0.0331421l-0.0464013 0c-0.0155206,0 -0.0265184,0.0109978 -0.0265184,0.0265145z"/>
   <path id="_118985224" class="fil11" d="M3.89776 1.48486c0.0607443,0 0.271784,0.0224417 0.271784,-0.033146l0 -0.0265145c0,-0.0761357 -0.19611,-0.0464013 -0.271784,-0.0464013l0 0.106062z"/>
   <path id="_117745344" class="fil12" d="M0.735801 1.35229c0,-0.0155167 0.0109978,-0.0265145 0.0265184,-0.0265145l0.0464013 0c0.015458,0 0.0331421,0.0176841 0.0331421,0.0331421l0 0.0265145c0,0.0309473 -0.015458,0.0464013 -0.0464013,0.0464013l-0.0265145 0c-0.015458,0 -0.033146,-0.0176841 -0.033146,-0.0331421l0 -0.0464013zm-0.523678 0.0795434l0.2834 0.286683 0.0679275 -0.0016393c0.0954513,0 0.194037,-0.0540579 0.251897,-0.0928066l0.205539 0.019433c-0.00532481,-0.0629782 -0.0530759,-0.142346 -0.0530759,-0.185151 0,-0.0237249 0.0596605,-0.138664 0.0596605,-0.24527l-0.18404 -0.18055 -0.00819652 0.226956c-0.00690934,0.0103171 -0.0087873,0.0198829 -0.0265145,0.0198829l-0.033146 0c-0.0179032,0 -0.0182749,-0.00316515 -0.0331421,-0.00662764l-0.00663155 -0.198864 -0.0464013 -0.0397737c0,0.0751263 0,0.150253 0,0.225383 0,0.0706583 0.0209315,0.172346 -0.0464013,0.172346l-0.0132592 0c-0.0660417,0 -0.0464013,-0.0906782 -0.0464013,-0.159091 0,-0.0684987 0,-0.136997 0,-0.205496l-0.0397737 -0.0331421c0,0.0751263 0,0.150253 0,0.225383 0,0.0706583 0.0209315,0.172346 -0.0464013,0.172346l-0.0132553 0c-0.0309473,0 -0.0464052,-0.0154541 -0.0464052,-0.0464013l0 -0.119317 -0.145832 0 0 0.119317c0,0.0470117 -0.0322423,0.0464013 -0.0795474,0.0464013z"/>
   <path id="_122863200" class="fil13" d="M3.89776 1.48486l0 -0.106062 -0.238638 0c-0.0182241,0.0122028 -0.0331421,0.0152428 -0.0331421,0.0464013l0 0.0265145c0,0.0555877 0.211036,0.033146 0.27178,0.033146z"/>
   <path id="_118995712" class="fil14" d="M3.89776 1.3788c0.0756741,0 0.271784,-0.0297344 0.271784,0.0464013l0 0.0265145c0,0.0555877 -0.21104,0.033146 -0.271784,0.033146l0 0.053029 0.570083 0 0 -0.205492 -0.570083 0 0 0.0464013z"/>
   <path id="_117729864" class="fil10" d="M4.71311 1.49812c0.0663468,0 0.125949,-0.0666481 0.125949,-0.132576l0 -0.0132592c0,-0.070314 -0.0684126,-0.132576 -0.139208,-0.132576 -0.0712921,0 -0.139204,0.0551964 -0.139204,0.125949l0 0.0397698c0,0.0485923 0.0641011,0.112693 0.112689,0.112693l0.0397737 0z"/>
   <path id="_122863032" class="fil15" d="M2.92332 0.888264c-0.00464796,0.0558498 -0.0397737,0.0925092 -0.0397737,0.192237l0 0.424247c0,0.0291358 0.020012,0.0847704 0.0265145,0.112689l0.139208 0 0.053029 -0.0795474 0.0373988 -0.100311 0.0222617 -0.144955c0,-0.184568 -0.0936086,-0.393535 -0.198864,-0.464021l-0.0397737 0.0596605z"/>
   <path id="_118992232" class="fil16" d="M1.29925 1.52464l0.0994342 0.152463 0.0464013 0.0397737c0.0401884,-0.0294449 0.106062,-0.151348 0.106062,-0.225383l0 -0.410988c0,-0.135194 -0.0538897,-0.173985 -0.106062,-0.251897 -0.0792304,0.0530603 -0.192237,0.259378 -0.192237,0.397733l0 0.0928026c0,0.0953066 0.041366,0.144967 0.0464013,0.205496z"/>
   <path id="_117745320" class="fil17" d="M1.91574 1.69699l0 0.00662764c0,0.0320662 0.0209667,0.0530329 0.0530329,0.0530329l0.437503 0c0.0320662,0 0.053029,-0.0209667 0.053029,-0.0530329l0 -0.00662764c0,-0.0320662 -0.0209628,-0.0530329 -0.053029,-0.0530329l-0.424247 0c-0.039535,0 -0.0662882,0.0135213 -0.0662882,0.0530329z"/>
   <path id="_122853336" class="fil18" d="M4.64682 1.75665l0 0.0132553c0,0.0320662 0.0209667,0.0530329 0.053029,0.0530329l0.0265184 0c0.0193704,0 0.0464013,-0.0330404 0.0464013,-0.0530329 0,-0.0279895 -0.0206302,-0.0662882 -0.0464013,-0.0662882l-0.0265184 0c-0.0320623,0 -0.053029,0.0209667 -0.053029,0.0530329z"/>
   <path id="_118975696" class="fil16" d="M1.12027 1.79642c0.0345154,0 0.0994342,-0.0582755 0.0994342,-0.0994303 0,-0.011972 -0.0364129,-0.0265145 -0.0530329,-0.0265145l-0.00662764 0c-0.033326,0 -0.0662882,0.0329582 -0.0662882,0.0662882l0 0.00662764c0,0.01662 0.0145464,0.053029 0.0265145,0.053029z"/>
   <path id="_117751488" class="fil19" d="M2.87692 1.78316l0.139204 0c0.0113069,-0.00757054 0.0265145,-0.0144251 0.0265145,-0.033146l0 -0.00662764c0,-0.0187209 -0.0152076,-0.0255755 -0.0265145,-0.0331421l-0.0331421 0c-0.0617654,0 -0.371218,-0.0204933 -0.371218,0.0265145l0 0.00662764c0,0.0179032 0.00316906,0.0182749 0.00658461,0.0380679l0.258572 0.00170582z"/>
   <path id="_122853552" class="fil20" d="M4.64682 1.75665c0,-0.0320662 0.0209667,-0.0530329 0.053029,-0.0530329l0.0265184 0c0.0257711,0 0.0464013,0.0382987 0.0464013,0.0662882 0,0.0199925 -0.0270309,0.0530329 -0.0464013,0.0530329l-0.0265184 0c-0.0320623,0 -0.053029,-0.0209667 -0.053029,-0.0530329l0 -0.0132553zm0.053029 0.106062c0.0455015,0 0.0353683,-0.0132592 0.0662921,-0.0132592l0.0266514 1.56497e-005 0.00649071 -0.125964c-0.0181262,-0.0342533 -0.0403684,-0.0596605 -0.0928026,-0.0596605l-0.00663155 0c-0.0394059,0 -0.086175,0.0397267 -0.086175,0.0795474l0 0.0265145c0,0.0784558 0.0509789,0.0704705 0.086175,0.0928066z"/>
   <path id="_118976128" class="fil21" d="M1.21308 2.01517c0.089348,0.00743751 0.122553,0.0351335 0.178982,0.0729197l0.0132553 -0.033146 -0.00662764 -0.377842 -0.0994342 -0.152463 0 0.291667 -0.055932 -0.0884129c-0.0414638,0.0298909 -0.0405092,0.0656465 -0.109786,0.0817853 0.002993,0.0359982 0.0728689,0.12528 0.0795434,0.205492z"/>
   <path id="_117750336" class="fil15" d="M2.38639 2.00854l0.17235 -0.086175 0.0397737 -0.0397737 -0.788834 0c0.0424341,0.0633695 0.241193,0.145836 0.357959,0.145836l0.086175 0c0.0535728,0 0.0857603,-0.0188422 0.132576,-0.0198868z"/>
   <path id="_122853456" class="fil22" d="M3.04927 1.61744l-0.0662882 0.0928066 0.0331421 0c0.0113069,0.00756662 0.0265145,0.0144212 0.0265145,0.0331421l0 0.00662764c0,0.0187209 -0.0152076,0.0255755 -0.0265145,0.033146l-0.139204 0c-0.0566832,0.0773603 -0.251897,0.0139752 -0.251897,0.053029 0,0.0152741 0.00461275,0.0198868 0.0198868,0.0198868l0.0772508 0.00143195 0.0155519 0.0250825 -0.112689 0c0.00106809,0.047935 0.0210097,0.033146 0.0729158,0.033146l0.08211 -0.00213227 0.0703532 0.0816796c0.172354,0 0.3447,0 0.517054,0 0.0914059,0 0.171145,0.00857603 0.240868,-0.0176568 0.0497543,-0.0187248 0.110459,-0.0899779 0.110459,-0.154693l0 -0.0198868c0,-0.253697 -0.374211,-0.185609 -0.624473,-0.187033l0.0809089 -0.0781232 -0.0729197 0 -0.053029 0.0795474z"/>
   <path id="_118976512" class="fil23" d="M1.48486 1.96214l-0.0132553 0c-0.0285137,0 -0.0359356,-0.00773095 -0.0596605,-0.0132553l0 -0.0795474c0,-0.0293471 0.040341,-0.0530329 0.0729158,-0.0530329 0.0520782,0 0.0662882,0.0534632 0.0662882,0.106062 0,0.0208102 -0.0460179,0.0397737 -0.0662882,0.0397737zm-0.0795474 0.0928026l0.00663155 -0.086175c0.0231498,0.00539523 0.0223204,0.0132592 0.0464013,0.0132592l0.0198868 0c0.0366046,0 0.0443356,-0.0132279 0.0729158,-0.0198868l0 0.0397737 0.132068 -0.144063 -0.0392651 -0.0150276c-0.0566558,-0.0132005 -0.172205,-0.0861398 -0.198864,-0.125949l-0.0464013 -0.0397737 0.00662764 0.377842z"/>
   <path id="_117735288" class="fil24" d="M4.79929 1.96877l0.0265145 0.0132592c0,-0.0429623 -0.00161583,-0.0994342 0.0397737,-0.0994342l0.0198868 0c0.0413934,0 0.0397737,0.0564719 0.0398245,0.0995164l0.0264636 -0.0133414c-0.0143351,0.0214127 -0.0374106,0.033146 -0.0729158,0.033146l-0.00663155 0c-0.0355052,0 -0.0585768,-0.0117334 -0.0729158,-0.033146zm0 -0.245266l-0.00649071 0.125964 -0.0266514 -1.56497e-005c-0.0309238,0 -0.0207906,0.0132592 -0.0662921,0.0132592 0,0.251193 0.284179,0.185605 0.536937,0.185605 0.0934678,0 0.683942,-0.0136583 0.715918,0.00662764l0.00662764 0 0 -0.0198868 -0.00662764 -0.318182 -1.15342 0.00662764z"/>
   <path id="_122853840" class="fil16" d="M1.48486 1.96214c0.0202703,0 0.0662882,-0.0189635 0.0662882,-0.0397737 0,-0.0525986 -0.0142099,-0.106062 -0.0662882,-0.106062 -0.0325748,0 -0.0729158,0.0236858 -0.0729158,0.0530329l0 0.0795474c0.0237249,0.00552434 0.0311468,0.0132553 0.0596605,0.0132553l0.0132553 0z"/>
   <path id="_118976608" class="fil16" d="M1.02084 2.07483l0.132576 -0.053029c-0.0377236,-0.0712921 -0.143285,-0.238376 -0.218755,-0.258525 -0.0197656,0.0848526 -0.0307164,0.0661982 -0.0662882,0.119317 0.0182514,0.0272578 0.0566323,0.051374 0.0849895,0.0873644 0.0327078,0.041503 0.0421681,0.057047 0.0674775,0.104872z"/>
   <path id="_117753840" class="fil25" d="M4.79929 1.96877c0.014339,0.0214127 0.0374106,0.033146 0.0729158,0.033146l0.00663155 0c0.0355052,0 0.0585807,-0.0117334 0.0729158,-0.033146l-0.0264636 0.0133414c-5.08615e-005,-0.0430445 0.00156888,-0.0995164 -0.0398245,-0.0995164l-0.0198868 0c-0.0413895,0 -0.0397737,0.0564719 -0.0397737,0.0994342l-0.0265145 -0.0132592z"/>
   <path id="_122853408" class="fil16" d="M0.92141 2.25381l0.0596605 -0.139208c-0.0476533,-0.0319097 -0.171258,-0.131074 -0.238638,-0.132576l0 0.0265145c0,0.0550008 -0.0305599,0.0665073 -0.0397737,0.106062 0.093812,0.0218548 0.191454,0.131919 0.218751,0.139208z"/>
   <path id="_118976704" class="fil16" d="M1.40531 2.05494l-0.0132553 0.033146c-0.0101762,0.0436822 -0.0530329,0.101778 -0.0530329,0.125949l0 0.00662764c0,0.0366555 0.0298792,0.0596605 0.0662882,0.0596605 0.0949858,0 0.12551,-0.191161 0.145836,-0.278412l0 -0.0397737c-0.0285802,0.00665894 -0.0363112,0.0198868 -0.0729158,0.0198868l-0.0198868 0c-0.024081,0 -0.0232515,-0.00786397 -0.0464013,-0.0132592l-0.00663155 0.086175z"/>
   <path id="_117728832" class="fil26" d="M1.94888 2.21404l0 0.0198868c0,0.0155167 0.0109978,0.0265145 0.0265145,0.0265145l0.357959 0c0.0179032,0 0.0182749,-0.00316515 0.0331421,-0.00662764 0.00346249,-0.0148672 0.00662764,-0.0152428 0.00662764,-0.033146l0 -0.00662764c0,-0.015458 -0.0176841,-0.033146 -0.0331421,-0.033146l-0.357959 0c-0.015458,0 -0.0331421,0.0176881 -0.0331421,0.033146z"/>
   <path id="_122853888" class="fil27" d="M4.76614 2.31347l0 0.0132553c0,0.0453684 0.0239518,0.083272 0.0596566,0.0928026l0 -0.053029c0,-0.0206458 0.0209745,-0.0397737 0.0464013,-0.0397737l0.0132592 0c0.0214792,0 0.0397737,0.0288072 0.0397737,0.053029l0 0.0397737c0.0296679,-0.00791874 0.0596605,-0.0426571 0.0596605,-0.0795434l0 -0.033146c0,-0.0481736 -0.048827,-0.0928026 -0.0994342,-0.0928026l-0.0198868 0c-0.0565932,0 -0.0994303,0.0428371 -0.0994303,0.0994342z"/>
   <path id="_118976800" class="fil22" d="M3.0095 2.74434l0 0.0132592 0.00662764 0 0 -0.285039 0.51705 0c0.0995124,0 0.185609,-0.0804042 0.185609,-0.178978l0 -0.0132592c0,-0.0693085 -0.0451533,-0.129626 -0.0904004,-0.154865 -0.0633969,-0.0353644 -0.128664,-0.0241123 -0.221157,-0.0241123 -0.163508,0 -0.327024,0 -0.490532,0l0.0794065 0.196396 -0.00649071 0.00246874 0.298299 0c0.0186662,0 0.0122733,0.00286781 0.0198868,0.0132592 -0.0189205,0.025822 -0.255653,0.0132553 -0.311558,0.0132553 0.00454232,0.00808698 0.00663155,0.00708931 0.00663155,0.0198868l0 0.0198868c0.0148672,-0.00346249 0.0152389,-0.00662764 0.0331421,-0.00662764l0.510422 0c0.0108491,0 0.0198868,0.0039672 0.0198868,0.0132553 0,0.0356695 -0.225974,0.0198868 -0.271784,0.0198868 -0.0580642,0 -0.25045,0.00996885 -0.285039,-0.00662764l0 0.357955z"/>
   <path id="_117734064" class="fil19" d="M4.76614 2.31347c0,-0.0565971 0.0428371,-0.0994342 0.0994303,-0.0994342l0.0198868 0c0.0506072,0 0.0994342,0.044629 0.0994342,0.0928026l0 0.033146c0,0.0368863 -0.0299926,0.0716247 -0.0596605,0.0795434l0 -0.0397737c0,-0.0242218 -0.0182945,-0.053029 -0.0397737,-0.053029l-0.0132592 0c-0.0254268,0 -0.0464013,0.0191278 -0.0464013,0.0397737l0 0.053029c-0.0357048,-0.00953066 -0.0596566,-0.0474342 -0.0596566,-0.0928026l0 -0.0132553zm1.18656 0.172346l0.00662764 0 0 -0.331441 -0.00662764 0c-0.0316828,0.020102 -0.610565,0.00662764 -0.702659,0.00662764 -0.215578,0 -0.550196,-0.0607677 -0.550196,0.159095l0 0.0132553c0,0.0972002 0.0737413,0.159095 0.17235,0.159095l1.07387 0 0.00663155 -0.00663155z"/>
   <path id="_122863248" class="fil28" d="M1.94888 2.21404c0,-0.015458 0.0176841,-0.033146 0.0331421,-0.033146l0.357959 0c0.015458,0 0.0331421,0.0176881 0.0331421,0.033146l0 0.00662764c0,0.0179032 -0.00316515,0.0182788 -0.00662764,0.033146 -0.0148672,0.00346249 -0.0152389,0.00662764 -0.0331421,0.00662764l-0.357959 0c-0.0155167,0 -0.0265145,-0.0109978 -0.0265145,-0.0265145l0 -0.0198868zm0.609853 -0.291671l-0.17235 0.086175 0.0456306 0.000489053 0.0537997 0.0923175 -0.477276 0c-0.0846531,0 -0.172346,0.0910773 -0.172346,0.17235l0 0.0198868c0,0.0833385 0.0870436,0.178978 0.165718,0.178978l0.583338 0 0 0.27178 0.371214 0 0.0530329 0 0 -0.357955c0.0345897,0.0165965 0.226975,0.00662764 0.285039,0.00662764 0.0458105,0 0.271784,0.0157827 0.271784,-0.0198868 0,-0.00928809 -0.00903769,-0.0132553 -0.0198868,-0.0132553l-0.510422 0c-0.0179032,0 -0.0182749,0.00316515 -0.0331421,0.00662764l0 -0.0198868c0,-0.0127975 -0.00208923,-0.0117999 -0.00663155,-0.0198868 0.0559046,0 0.292637,0.0125667 0.311558,-0.0132553 -0.00761357,-0.0103914 -0.00122068,-0.0132592 -0.0198868,-0.0132592l-0.298299 0 0.00649071 -0.00246874 -0.0794065 -0.196396 -0.0662921 -0.106062 -0.0703532 -0.0816796 -0.08211 0.00213227 0.0795474 0.0729158c-0.170304,0 -0.120209,-0.000301256 -0.218751,-0.0662882z"/>
   <polygon id="_118991200" class="fil29" points="3.89776,2.47256 4.26235,2.47256 4.26235,1.73013 3.89776,1.73013 "/>
   <path id="_117741336" class="fil30" d="M5.34285 3.14207l0.0994342 0 0.0397737 0 0 0.0132592 0.00662764 0 0.391101 -0.00663155 0.0198868 -0.00662764 0.0132592 -0.00662764 0.00662764 -0.00663155 0.00662764 -0.00662764 0.00663155 -0.00662764 0.00662764 -0.00663155 0.00662764 -0.00662764 0.00663155 -0.0198868 0.00662764 -0.0198868 0 -0.00662764 -0.00662764 -0.112689c-0.238638,0 -0.477276,0 -0.715918,0 -0.241244,0 -0.536937,0.0600205 -0.536937,-0.178982 -0.0333534,-0.0160018 -0.086175,-0.0246287 -0.086175,-0.0795434l0 -0.0397737c0,-0.0374419 0.0488231,-0.0795474 0.086175,-0.0795474l0.0198868 0c0.03538,0 0.0626926,0.0336429 0.0795474,0.0530329 0.0967894,-0.0464404 1.10204,0.0127115 1.15342,-0.0198868l0 -0.112693 -0.00663155 0.00663155 -1.07387 0c-0.0986087,0 -0.17235,-0.0618945 -0.17235,-0.159095l0 -0.0132553c0,-0.219862 0.334618,-0.159095 0.550196,-0.159095 0.0920945,0 0.670976,0.0134744 0.702659,-0.00662764l0 -0.0994342c-0.0319762,-0.0202859 -0.622451,-0.00662764 -0.715918,-0.00662764 -0.252758,0 -0.536937,0.0655878 -0.536937,-0.185605 -0.0351961,-0.022336 -0.086175,-0.0143508 -0.086175,-0.0928066l0 -0.0265145c0,-0.0398206 0.0467691,-0.0795474 0.086175,-0.0795474l0.00663155 0c0.0524343,0 0.0746764,0.0254073 0.0928026,0.0596605l1.15342 -0.00662764 0 -0.132576 -1.48486 0c0,0.404357 0,0.808717 0,1.21308 0,0.067235 -0.0131927,0.251643 0.0106887,0.294238 0.0416477,0.0742734 0.143085,0.0504624 0.254464,0.0504624 0.203286,0 0.406571,0 0.609853,0z"/>
   <path id="_122862864" class="fil18" d="M4.64682 2.65817l0 0.0132553c0,0.0327665 0.026894,0.0596605 0.0596605,0.0596605 0.033729,0 0.0662882,-0.0286468 0.0662882,-0.0596605 0,-0.0279895 -0.0206302,-0.0662882 -0.0464013,-0.0662882l-0.0265184 0c-0.0320623,0 -0.053029,0.0209667 -0.053029,0.0530329z"/>
   <path id="_118975216" class="fil20" d="M2.55211 4.62031l1.69659 9.38981e-005 0.0799386 0.351234 -1.8627 0c0.000989843,-0.0445234 0.0258142,-0.131043 0.0347345,-0.184017 0.00453058,-0.0269096 0.022023,-0.167311 0.0514405,-0.167311zm-1.36554 -0.0928066c0,-0.023185 0.204764,-0.330881 0.23219,-0.377662 0.036722,-0.06263 0.0822352,-0.123339 0.118957,-0.185969 0.0370193,-0.0631387 0.0736865,-0.132396 0.172534,-0.132396l3.34094 0c0.107556,0 0.127619,0.0628335 0.16841,0.129888 0.0388973,0.0639329 0.0721333,0.124262 0.11132,0.186975 0.0288463,0.0461627 0.217433,0.349051 0.217433,0.379165l0 0.0198868c0,0.0382478 -0.0892541,0.0464013 -0.132576,0.0464013l-4.09 0c-0.0578373,0 -0.139208,-0.0124219 -0.139208,-0.0662882zm0.729174 -2.83052c0,-0.0395115 0.0267531,-0.0530329 0.0662882,-0.0530329l0.424247 0c0.0320662,0 0.053029,0.0209667 0.053029,0.0530329l0 0.00662764c0,0.0320662 -0.0209628,0.0530329 -0.053029,0.0530329l-0.437503 0c-0.0320662,0 -0.0530329,-0.0209667 -0.0530329,-0.0530329l0 -0.00662764zm-0.271784 0.145836l0.0392651 0.0150276 -0.132068 0.144063c-0.020325,0.0872509 -0.0508497,0.278412 -0.145836,0.278412 -0.036409,0 -0.0662882,-0.023005 -0.0662882,-0.0596605l0 -0.00662764c0,-0.0241709 0.0428567,-0.0822665 0.0530329,-0.125949 -0.0564289,-0.0377862 -0.0896336,-0.0654822 -0.178982,-0.0729197l-0.0596566 0.00663155 -0.132576 0.053029 -0.0397737 0.0397737 -0.0596605 0.139208c-0.06281,0.130906 0.117572,0.331441 0.245266,0.331441l0.0928066 0 -0.00663155 0.178978 0 0.928038 0.00663155 0.0198868 0.00662764 0.0198868 0.00662764 0.0132592 0.00662764 0.0132592 0.00663155 0.00662764 0.00662764 0.00662764 0.00662764 0.00662764 0.00663155 0.00663155 0.00662764 0.00662764 0.00662764 0.00662764 0.00663155 0.00663155 0.00662764 0.00662764 0.0132592 0.00662764 0.0132553 0.00663155 0.0198868 0.00662764 0.0132592 0.00662764 0 0.00663155 -0.0265145 0.00662764 -0.00663155 0.00662764 -0.0132553 0.00663155 -0.00663155 0.00662764 -0.00662764 0.00662764 -0.00662764 0.00662764 -0.00663155 0.00663155 -0.00662764 0.0132553 -0.00662764 0.00663155 -0.00663155 0.0132553 -0.00662764 0.00663155 -0.00662764 0.0132553 -0.00663155 0.00663155 -0.00662764 0.0132553 -0.00662764 0.00663155 -0.00662764 0.0132553 -0.00663155 0.00662764 -0.00662764 0.0132592 -0.00662764 0.00662764 -0.00663155 0.0132592 -0.00662764 0.0132553 -0.00662764 0.00663155 -0.00663155 0.0132553 -0.00662764 0.00663155 -0.00662764 0.0132553 -0.00663155 0.0132592 -0.00662764 0.00662764 -0.00662764 0.0132592 -0.00662764 0.00662764 -0.00663155 0.0132592 -0.00662764 0.00662764 -0.00662764 0.0132592 -0.00663155 0.00662764 -0.00662764 0.0132592 -0.00662764 0.00662764 -0.00662764 0.0132592 -0.00663155 0.00662764 -0.00662764 0.0132592 -0.00662764 0.00662764 -0.00663155 0.0132553 -0.00662764 0.0132592 -0.00662764 0.00662764 -0.00663155 0.00663155 -0.00662764 0.0132553 -0.00662764 0.0132592 0 0.0132592 -0.0132592 0 -0.00662764 0.0132553 -0.00663155 0.0132592 -0.00662764 0.0132553 -0.00662764 0.00663155 -0.00662764 0.0132553 -0.00663155 0.00663155 -0.00662764 0.0132553 -0.00662764 0.00662764 -0.00663155 0.0132592 -0.00662764 0.00662764 -0.00662764 0.0132592 -0.00663155 0.00662764 -0.00662764 0.0132592 -0.00662764 0.00662764 -0.00663155 0.0132592 -0.00662764 0.00662764 -0.00662764 0.0132592 -0.00663155 0.00662764 -0.00662764 0.0132592 -0.00662764 0.00662764 -0.00662764 0.0132592 -0.00663155 0.00662764 -0.00662764 0.0132592 -0.00662764 0.0132553 -0.00663155 0.00663155 -0.00662764 0.00662764 -0.00662764 0.0132592 -0.00663155 0.0132553 -0.00662764 0.00662764 -0.00662764 0.0132592 -0.00663155 0.00662764 -0.00662764 0.0132592 -0.00662764 0.0132592 -0.00663155 0.00662764 -0.00662764 0.00662764 -0.00662764 0.0132592 -0.00662764 0.0132553 -0.00663155 0.00663155 -0.00662764 0.00662764 -0.00662764 0.0132592 -0.00663155 0.00662764 -0.00662764 0.0132553 -0.00662764 0.0132592 -0.00662764 0.00662764 -0.00663155 0.00663155 0 0.0198868 -0.0132553 0 -0.00663155 0.0132553 -0.00662764 0.0132592 -0.00662764 0.0132592 -0.00663155 0.00662764 -0.00662764 0.00662764 -0.00662764 0.0132592 -0.00663155 0.0132553 -0.00662764 0.00663155 -0.00662764 0.0132553 -0.00662764 0.00663155 -0.00663155 0.0132553 -0.00662764 0.00663155 -0.00662764 0.0132553 -0.00663155 0.00663155 -0.00662764 0.0132553 -0.00662764 0.00662764 -0.00663155 0.0265184 -0.00662764 0.0132553 0 0.0662882 0.00662764 0.0198868 0.00663155 0.0132592 0.00662764 0.00662764 0.00662764 0.0132592 0.00663155 0.00662764 0.00662764 0.00662764 0.00662764 0.00663155 0.0132592 0.00662764 0.00662764 0.00662764 0.0198868 0.00663155 0.00662764 0.00662764 0.033146 0.00662764 2.6184 0 2.69131 -0.00662764 0.0198868 -0.00662764 0.0198868 -0.00663155 0.00662764 -0.00662764 0.0132553 -0.00662764 0 -0.0132592 0.0132592 0 0 -0.0132592 0.0132553 0 0.00663155 -0.0198829 0.00662764 -0.00663155 0.00662764 -0.0265145 0 -0.086175 -0.00662764 -0.0132592 -0.00662764 -0.0132553 -0.00663155 -0.00662764 -0.00662764 -0.0132592 -0.00662764 -0.00662764 -0.00662764 -0.00663155 -0.00663155 -0.0132553 -0.00662764 -0.0132592 -0.00662764 -0.00662764 -0.00662764 -0.00663155 -0.00663155 -0.0132553 -0.00662764 -0.00663155 -0.00662764 -0.0132553 -0.00663155 -0.00662764 -0.00662764 -0.0132592 -0.00662764 -0.00662764 -0.00663155 -0.0132592 -0.00662764 -0.00662764 -0.00662764 -0.0132592 -0.00663155 -0.00662764 -0.00662764 -0.0132592 -0.00662764 -0.00662764 -0.00663155 -0.0132592 -0.00662764 -0.00662764 -0.00662764 -0.00662764 -0.00662764 -0.0132592 -0.00663155 -0.0132592 -0.0132553 0 0 -0.0132553 -0.00663155 -0.0132592 -0.00662764 -0.0132553 -0.0132592 0 0 -0.0132592 -0.00662764 -0.0132592 -0.00662764 -0.00662764 -0.00663155 -0.00662764 -0.00662764 -0.0132592 -0.00662764 -0.00662764 -0.00663155 -0.0132592 -0.00662764 -0.00662764 -0.00662764 -0.0132592 -0.00662764 -0.00662764 -0.00663155 -0.0132592 -0.00662764 -0.00662764 -0.00662764 -0.0132592 -0.00663155 -0.00662764 -0.00662764 -0.0132592 -0.00662764 -0.00662764 -0.00663155 -0.0132553 -0.0132553 0 0 -0.0132592 -0.00663155 -0.0132592 -0.00662764 -0.0132553 -0.0132592 0 0 -0.0132592 -0.00662764 -0.00662764 -0.00662764 -0.0132592 -0.00662764 -0.00662764 -0.00663155 -0.0132592 -0.00662764 -0.00662764 -0.00662764 -0.0132592 -0.00663155 -0.00662764 -0.00662764 -0.0132592 -0.00662764 -0.00662764 -0.00662764 -0.0132553 -0.00663155 -0.00663155 -0.00662764 -0.00662764 -0.00662764 -0.0132592 -0.00663155 -0.0132553 -0.00662764 -0.00663155 -0.00662764 -0.00662764 -0.00663155 -0.0132592 -0.00662764 -0.0132553 -0.00662764 -0.00663155 -0.00663155 -0.00662764 -0.00662764 -0.00662764 -0.00662764 -0.0132592 -0.00663155 -0.0132553 -0.0132553 0 0 -0.0132592 -0.00662764 -0.0132592 -0.00663155 -0.00662764 -0.00662764 -0.00662764 -0.00662764 -0.0132592 -0.00663155 -0.00662764 -0.00662764 -0.0132592 -0.00662764 -0.00662764 -0.00663155 -0.0132592 -0.00662764 -0.00662764 -0.00662764 -0.0132592 -0.00663155 -0.00662764 -0.00662764 -0.0132592 -0.00662764 -0.00662764 -0.00662764 -0.0132592 -0.00663155 -0.00662764 -0.00662764 -0.0132592 -0.00662764 -0.00662764 -0.00663155 -0.0132553 -0.00662764 -0.00663155 -0.00662764 -0.0132553 -0.00662764 -0.00662764 -0.00663155 -0.0132592 -0.00662764 -0.00662764 -0.00662764 -0.00663155 -0.00663155 -0.0132553 -0.00662764 -0.0132592 -0.0132592 0 0 -0.0132592 -0.00662764 -0.0132553 -0.00662764 -0.0132592 -0.0132592 0 0 -0.0132553 -0.0198868 -0.00663155 -0.00662764 -0.00662764 -0.0198868 -0.00662764 -0.0132592 -0.00663155 0 -0.00662764 0.0198868 -0.00662764 0.00663155 -0.00663155 0.0198829 -0.00662764 0 -0.0132592 0.0132592 0 0.00662764 -0.00662764 0.00663155 -0.00662764 0.00662764 -0.00663155 0.00662764 -0.00662764 0.00663155 -0.0132553 0.00662764 -0.00663155 0.00662764 -0.0198868 0.00663155 -0.00662764 0.00662764 -0.0265145 0.00662764 -0.0397737 0 -0.00662764 0 -0.437507 0 -0.0265145 -0.00662764 -0.0331421 0 -0.0132592 -0.0397737 0c0,0.134787 0,0.269574 0,0.404361 0,0.138218 -0.0252938,0.245266 -0.159091,0.245266l-3.82485 0c-0.202976,0 -0.159095,-0.236791 -0.159095,-0.437503 0,-0.198864 0,-0.397733 0,-0.596597l0.00132631 -0.183442 0.0981079 -0.0618241 0 0.245266 1.61081 0 0 -0.0132592 -0.0530329 0 -0.371214 0 0 -0.27178 -0.583338 0c-0.0786749,0 -0.165718,-0.0956391 -0.165718,-0.178978l0 -0.0198868c0,-0.0812727 0.087693,-0.17235 0.172346,-0.17235l0.477276 0 -0.0537997 -0.0923175 -0.0456306 -0.000489053c-0.046816,0.00104462 -0.0790035,0.0198868 -0.132576,0.0198868l-0.086175 0c-0.116766,0 -0.315525,-0.082466 -0.357959,-0.145836l0.788834 0 -0.0397737 0.0397737c0.0985422,0.0659869 0.0484475,0.0662882 0.218751,0.0662882l-0.0795474 -0.0729158c-0.0519061,0 -0.0718477,0.014789 -0.0729158,-0.033146l0.112689 0 -0.0155519 -0.0250825 -0.0772508 -0.00143195c-0.0152741,0 -0.0198868,-0.00461275 -0.0198868,-0.0198868 0,-0.0390538 0.195214,0.0243313 0.251897,-0.053029l-0.258572 -0.00170582c-0.00341554,-0.0197929 -0.00658461,-0.0201646 -0.00658461,-0.0380679l0 -0.00662764c0,-0.0470077 0.309453,-0.0265145 0.371218,-0.0265145l0.0662882 -0.0928066 -0.139208 0c-0.00650244,-0.027919 -0.0265145,-0.0835537 -0.0265145,-0.112689l0 -0.424247c0,-0.0997276 0.0351257,-0.136387 0.0397737,-0.192237 -0.0429232,0.031448 -0.0662882,0.144466 -0.0662882,0.225383l0 0.331441c0,0.0605447 0.00892423,0.104861 0.025509,0.146841 0.0133844,0.0338698 0.0554116,0.0920045 0.060666,0.111684l-0.258525 0c-0.00742578,0 -0.215539,-0.218751 -0.464021,-0.218751l-0.0331421 0c-0.131551,0 -0.253548,0.0612724 -0.335428,0.115334 -0.0502511,0.0331773 -0.0780841,0.0655448 -0.117044,0.108339 -0.0365968,0.040204 -0.0613781,0.100095 -0.0910968,0.134286z"/>
   <path id="_117735984" class="fil20" d="M4.64682 2.65817c0,-0.0320662 0.0209667,-0.0530329 0.053029,-0.0530329l0.0265184 0c0.0257711,0 0.0464013,0.0382987 0.0464013,0.0662882 0,0.0310138 -0.0325592,0.0596605 -0.0662882,0.0596605 -0.0327665,0 -0.0596605,-0.026894 -0.0596605,-0.0596605l0 -0.0132553zm0.053029 0.106058l0.0662921 -0.0132553 0.0265145 0 0 -0.0198868c0,-0.0287446 0.0105479,-0.020462 0.0132553,-0.0530329l-0.00662764 -0.0596566c-0.0168547,-0.01939 -0.0441673,-0.0530329 -0.0795474,-0.0530329l-0.0198868 0c-0.0373519,0 -0.086175,0.0421055 -0.086175,0.0795474l0 0.0397737c0,0.0549147 0.0528216,0.0635416 0.086175,0.0795434z"/>
   <polygon id="_122862792" class="fil13" points="1.29925,2.7576 1.39869,2.7576 1.39869,2.51233 1.30058,2.57416 "/>
   <path id="_118992904" class="fil29" d="M3.62598 2.86366l0.636367 0 0 -0.238638 -0.417616 0c-0.0362329,0.0541049 -0.131688,0.130636 -0.218751,0.132576l0 0.0928026 0 0.0132592z"/>
   <path id="_117751584" class="fil31" d="M4.80591 2.67805c-0.0027074,0.0325709 -0.0132553,0.0242883 -0.0132553,0.0530329l0 0.0198868 -0.0265145 0 0.0331421 0.106062 0.0265145 0.0132553 0 -0.0662882c0.00774268,-0.0115612 0.0214518,-0.0331421 0.0397737,-0.0331421l0.0198868 0c0.0507598,0 0.0315615,0.0760418 0.0464013,0.0994303 0.0116629,-0.0174142 0.0530329,-0.0514014 0.0530329,-0.0729158l0 -0.0464013c0,-0.0413973 -0.0514092,-0.0928026 -0.0928066,-0.0928026l-0.0198868 0c-0.0292454,0 -0.047219,0.0097967 -0.0662882,0.0198829z"/>
   <path id="_122862720" class="fil32" d="M4.79929 2.85703c0.014339,0.0214088 0.0374106,0.0331421 0.0729158,0.0331421l0.0132592 0c0.0228446,0 0.034308,-0.00937416 0.0464013,-0.0198868 -0.0148398,-0.0233885 0.00435844,-0.0994303 -0.0464013,-0.0994303l-0.0198868 0c-0.0183219,0 -0.032031,0.0215809 -0.0397737,0.0331421l0 0.0662882 -0.0265145 -0.0132553z"/>
   <path id="_118975144" class="fil31" d="M3.89776 1.73013l0.364587 0 0 0.742433 -0.364587 0c0,0.0632169 -0.0275669,0.114438 -0.053029,0.152463l0.417616 0 0 0.238638 -0.636367 0 0 0.225379c-0.0117529,0.0175511 -0.0235802,0.033146 -0.0530329,0.033146 -0.0286428,0 -0.362012,-0.330122 -0.371214,-0.364587l-0.185609 0 -0.00662764 0 -1.61081 0 0 0.855122 3.94416 0 0 -0.470649c-0.203282,0 -0.406567,0 -0.609853,0 -0.111379,0 -0.212816,0.023811 -0.254464,-0.0504624 -0.0238814,-0.0425945 -0.0106887,-0.227003 -0.0106887,-0.294238 0,-0.404361 0,-0.808721 0,-1.21308l0 -0.0464052 -0.570083 0 0 0.192237z"/>
   <path id="_117733344" class="fil1" d="M4.79929 2.6184l0.00662764 0.0596566c0.0190691,-0.0100862 0.0370428,-0.0198829 0.0662882,-0.0198829l0.0198868 0c0.0413973,0 0.0928066,0.0514053 0.0928066,0.0928026l0 0.0464013c0,0.0215144 -0.0413699,0.0555016 -0.0530329,0.0729158 -0.0120933,0.0105127 -0.0235567,0.0198868 -0.0464013,0.0198868l-0.0132592 0c-0.0355052,0 -0.0585768,-0.0117334 -0.0729158,-0.0331421l-0.0331421 -0.106062 -0.0662921 0.0132553c0,0.239002 0.295693,0.178982 0.536937,0.178982 0.238642,0 0.47728,0 0.715918,0l0.00662764 0 0 -0.3447 -0.00662764 0c-0.0513779,0.0325983 -1.05663,-0.0265536 -1.15342,0.0198868z"/>
   <path id="_122862624" class="fil33" d="M2.8504 1.99528l0.0662921 0.106062c0.163508,0 0.327024,0 0.490532,0 0.0924936,0 0.157761,-0.0112521 0.221157,0.0241123 0.0452472,0.025239 0.0904004,0.0855568 0.0904004,0.154865l0 0.0132592c0,0.0985735 -0.0860967,0.178978 -0.185609,0.178978l-0.51705 0 0 0.285039 0.185609 0c0.00920202,0.0344645 0.342572,0.364587 0.371214,0.364587 0.0294527,0 0.04128,-0.0155949 0.0530329,-0.033146l0 -0.225379 0 -0.0132592 0 -0.0928026c0.0870631,-0.00194056 0.182518,-0.0784714 0.218751,-0.132576 0.025462,-0.0380248 0.053029,-0.0892462 0.053029,-0.152463l0 -0.742433 0 -0.192237 -0.722542 0 -0.0809089 0.0781232c0.250262,0.00142412 0.624473,-0.0666638 0.624473,0.187033l0 0.0198868c0,0.0647154 -0.0607051,0.135968 -0.110459,0.154693 -0.0697233,0.0262328 -0.149462,0.0176568 -0.240868,0.0176568 -0.172354,0 -0.3447,0 -0.517054,0z"/>
   <path id="_118977208" class="fil14" d="M5.44228 3.14207l-0.0994342 0 0 0.470649 -3.94416 0 0 -0.855122 -0.0994342 0c0,0.198864 0,0.397733 0,0.596597 0,0.200711 -0.0438817,0.437503 0.159095,0.437503l3.82485 0c0.133797,0 0.159091,-0.107048 0.159091,-0.245266 0,-0.134787 0,-0.269574 0,-0.404361z"/>
   <path id="_117738744" class="fil11" d="M1.5843 3.96405l3.59946 0c-0.028232,-0.0421603 -0.0477785,-0.0662882 -0.119321,-0.0662882l-3.34757 0c-0.0616793,0 -0.120898,0.0161466 -0.132576,0.0662882z"/>
   <path id="_122862528" class="fil11" d="M1.53126 4.05022l3.6989 0c-0.0045032,-0.0193313 -0.0309199,-0.0729158 -0.053029,-0.0729158l-3.59284 0c-0.0164713,0 -0.0497777,0.0607247 -0.0530329,0.0729158z"/>
   <polygon id="_118977280" class="fil11" points="1.48882,4.12833 5.27923,4.12833 5.24342,4.05685 1.52684,4.05805 "/>
   <path id="_117740112" class="fil11" d="M1.44509 4.21595l3.88451 0c-0.00484749,-0.0181575 -0.032923,-0.0729197 -0.0530329,-0.0729197l-3.78507 0c-0.0218313,0 -0.0417807,0.0530916 -0.0464013,0.0729197z"/>
   <path id="_122862456" class="fil11" d="M1.39206 4.30875l3.99056 0c-0.00448364,-0.0192569 -0.0328839,-0.0795474 -0.053029,-0.0795474l-3.88451 0c-0.0221873,0 -0.0480954,0.0583616 -0.053029,0.0795474z"/>
   <path id="_118990744" class="fil11" d="M1.36554 4.36178c0,0.0293197 0.054727,0.0596566 0.0928026,0.0596566l3.85136 0c0.0408535,0 0.0994303,-0.0286468 0.0994303,-0.0662882 0,-0.0154932 -0.00862298,-0.0331421 -0.0265145,-0.0331421l-3.99056 0c-0.0203798,0 -0.0265145,0.0194173 -0.0265145,0.0397737z"/>
   <path id="_117747168" class="fil11" d="M2.79737 4.55402l1.96877 0c-0.00655331,-0.0281147 -0.0103092,-0.0928066 -0.0397737,-0.0928066l-1.929 0 0 0.0928066z"/>
   <path id="_122862384" class="fil11" d="M5.22353 4.55402l0.232011 0c0.0236154,0 0.053029,-0.00323949 0.053029,-0.0265184 0,-0.0362564 -0.0351883,-0.0729158 -0.0729158,-0.0729158l-0.265157 0c0.00514092,0.0220582 0.0300044,0.0994342 0.0530329,0.0994342z"/>
   <path id="_118977400" class="fil11" d="M1.26611 4.5275c0.0117529,0.0175511 0.0235802,0.033146 0.053029,0.033146l0.230825 -0.000434279 0.0343315 -0.0989999 -0.232011 0c-0.0609281,0 -0.0656622,0.0275239 -0.086175,0.0662882z"/>
   <polygon id="_117750312" class="fil11" points="4.799,4.55407 4.97779,4.55419 4.94512,4.45459 4.77847,4.45478 "/>
   <polygon id="_122862312" class="fil11" points="5.01294,4.55343 5.17318,4.553 5.13736,4.45459 4.97559,4.45561 "/>
   <path id="_118993120" class="fil11" d="M1.58356 4.56037l0.146571 0.00027387c0.0224886,0 0.0444216,-0.0756623 0.0464013,-0.0994342l-0.156458 0.000982018 -0.0365146 0.0981783z"/>
   <path id="_117738240" class="fil11" d="M1.78316 4.56065l0.180194 0.000269957 0.0186701 -0.0997042 -0.152463 0c-0.0255325,0 -0.0458145,0.0730097 -0.0464013,0.0994342z"/>
   <polygon id="_122862240" class="fil11" points="2.0009,4.55379 2.76423,4.55402 2.76423,4.46121 2.02195,4.46125 "/>
   <path id="_118990552" class="fil34" d="M2.79737 4.46121l1.929 0c0.0294644,0 0.0332204,0.0646919 0.0397737,0.0928066l-1.96877 0 0 -0.0928066zm-0.775422 3.52118e-005l0.74228 -3.52118e-005 0 0.0928066 -0.763329 -0.000230833 0.0210488 -0.0925405zm-0.238791 0.099399c0.000586863,-0.0264245 0.0208689,-0.0994342 0.0464013,-0.0994342l0.152463 0 -0.0186701 0.0997042 -0.180194 -0.000269957zm-0.163085 -0.0984522l0.156458 -0.000982018c-0.00197969,0.0237719 -0.0239127,0.0994342 -0.0464013,0.0994342l-0.146571 -0.00027387 0.0365146 -0.0981783zm3.5531 0.0908034l-0.160233 0.000434279 -0.0373519 -0.0978262 0.161767 -0.00102114 0.0358182 0.0984131zm-0.19539 0.00118938l-0.178782 -0.00011346 -0.0205363 -0.0992973 0.166654 -0.000191709 0.0326648 0.0996024zm-3.71168 -0.0266866c0.0205128,-0.0387643 0.0252469,-0.0662882 0.086175,-0.0662882l0.232011 0 -0.0343315 0.0989999 -0.230825 0.000434279c-0.0294488,0 -0.041276,-0.0155949 -0.053029,-0.033146zm3.95742 0.0265184c-0.0230285,0 -0.047892,-0.077376 -0.0530329,-0.0994342l0.265157 0c0.0377275,0 0.0729158,0.0366594 0.0729158,0.0729158 0,0.0232789 -0.0294136,0.0265184 -0.053029,0.0265184l-0.232011 0zm-3.85799 -0.192237c0,-0.0203563 0.00613468,-0.0397737 0.0265145,-0.0397737l3.99056 0c0.0178915,0 0.0265145,0.0176489 0.0265145,0.0331421 0,0.0376414 -0.0585768,0.0662882 -0.0994303,0.0662882l-3.85136 0c-0.0380757,0 -0.0928026,-0.0303369 -0.0928026,-0.0596566zm0.0265145 -0.0530329c0.00493356,-0.0211858 0.0308416,-0.0795474 0.053029,-0.0795474l3.88451 0c0.0201451,0 0.0485453,0.0602904 0.053029,0.0795474l-3.99056 0zm0.053029 -0.0928026c0.00462057,-0.0198282 0.02457,-0.0729197 0.0464013,-0.0729197l3.78507 0c0.0201098,0 0.0481854,0.0547622 0.0530329,0.0729197l-3.88451 0zm0.08175 -0.157901l3.71658 -0.00119329 0.0358104 0.071476 -3.79041 0 0.038017 -0.0702827zm0.00442495 -0.00782093c0.00325513,-0.0121911 0.0365616,-0.0729158 0.0530329,-0.0729158l3.59284 0c0.0221091,0 0.0485258,0.0535845 0.053029,0.0729158l-3.6989 0zm0.0530329 -0.086175c0.0116786,-0.0501416 0.070897,-0.0662882 0.132576,-0.0662882l3.34757 0c0.0715425,0 0.091089,0.0241279 0.119321,0.0662882l-3.59946 0zm-0.397733 0.563451c0,0.0538662 0.0813705,0.0662882 0.139208,0.0662882l4.09 0c0.0433222,0 0.132576,-0.00815349 0.132576,-0.0464013l0 -0.0198868c0,-0.0301139 -0.188587,-0.333002 -0.217433,-0.379165 -0.0391868,-0.0627122 -0.0724228,-0.123042 -0.11132,-0.186975 -0.0407909,-0.067055 -0.0608538,-0.129888 -0.16841,-0.129888l-3.34094 0c-0.0988473,0 -0.135515,0.0692577 -0.172534,0.132396 -0.036722,0.06263 -0.0822352,0.123339 -0.118957,0.185969 -0.0274261,0.0467808 -0.23219,0.354477 -0.23219,0.377662z"/>
   <path id="_117732912" class="fil34" d="M2.55211 4.62031c-0.0294175,0 -0.0469099,0.140401 -0.0514405,0.167311 -0.00892032,0.0529742 -0.0337446,0.139493 -0.0347345,0.184017l1.8627 0 -0.0799386 -0.351234 -1.69659 -9.38981e-005z"/>
  </g>
 </g>
</svg>
