<?xml version="1.0" encoding="UTF-8"?>
<!DOCTYPE svg PUBLIC "-//W3C//DTD SVG 1.1//EN" "http://www.w3.org/Graphics/SVG/1.1/DTD/svg11.dtd">
<!-- Creator: CorelDRAW -->
<svg xmlns="http://www.w3.org/2000/svg" xml:space="preserve" width="4.96061in" height="3.75608in" style="shape-rendering:geometricPrecision; text-rendering:geometricPrecision; image-rendering:optimizeQuality; fill-rule:evenodd; clip-rule:evenodd"
viewBox="0 0 4.02173 3.04518"
 xmlns:xlink="http://www.w3.org/1999/xlink">
 <defs>
  <style type="text/css">
   <![CDATA[
    .str0 {stroke:white;stroke-width:0.0024322}
    .fil13 {fill:white}
    .fil10 {fill:#051621}
    .fil12 {fill:#0ABFD7}
    .fil11 {fill:#0E2C48}
    .fil9 {fill:#152B36}
    .fil0 {fill:#1AD3E8}
    .fil2 {fill:#49D4C7}
    .fil4 {fill:#66E2C5}
    .fil6 {fill:#82E8B8}
    .fil1 {fill:#9AECAD}
    .fil3 {fill:#B8F2A3}
    .fil5 {fill:#D5F892}
    .fil8 {fill:#E2F7EE}
    .fil7 {fill:#FDFFFE}
   ]]>
  </style>
 </defs>
 <g id="Layer_x0020_1">
  <metadata id="CorelCorpID_0Corel-Layer"/>
  <g id="_117738912">
   <g>
    <path id="_116880184" class="fil0" d="M0.446276 0.687791l0.0367511 -0.0052538c-0.00274181,-0.0117716 -0.00525061,-0.0120684 -0.00525061,-0.0262498l0 -0.0209992 -0.0105012 0 -0.00159593 -0.0315483 0.00157997 -0.0309068 -0.0524869 -0.00579961c0,-0.0329144 0.00695825,-0.147007 -0.0210024,-0.147007l-0.0630009 0c-0.0190331,0 -0.0293076,0.00440476 -0.0420017,0.010498 0,0.0729531 0.0107693,0.131259 0.0104916,0.20477 -0.000150017,0.0408622 0.00529529,0.0618774 0.00526018,0.104996 -2.55349e-005,0.0259881 -0.0106512,0.0945077 0.0157486,0.0945077l0.0787527 0c0.0141814,0 0.0144783,-0.00250561 0.026253,-0.00525061l0 -0.141757 0.0210024 0z"/>
    <path id="_117736152" class="fil1" d="M1.28107 0.635288c0,0.0768727 0.0455191,0.157509 0.120754,0.157509l0.0472523 0c0.0628828,0 0.110256,-0.0759982 0.110256,-0.147007l0 -0.0052538c0,-0.0870452 -0.0508655,-0.157509 -0.136506,-0.157509l-0.0157518 0c-0.0723722,0 -0.126005,0.0744182 -0.126005,0.152261z"/>
    <polygon id="_116868400" class="fil2" points="2.82466,0.472529 2.81941,0.47778 2.81416,0.483027 2.80891,0.488278 2.80366,0.498779 2.80366,0.561783 2.80887,0.591796 3.01069,0.585489 2.87716,0.467275 2.85091,0.467275 2.83516,0.467275 "/>
    <path id="_116868472" class="fil3" d="M1.59084 0.36752l0.0209992 0.267768 0 0.0209992 0.0735053 0c0.0120971,0 0.0157486,-0.00365468 0.0157486,-0.0157518l0 -0.273016c0,-0.0120971 -0.00365149,-0.0157518 -0.0157486,-0.0157518 -0.0191575,0 -0.0959441,0.000405366 -0.0945045,0.0157518z"/>
    <path id="_117733416" class="fil4" d="M0.960804 0.393776l0 0.0209992c0,0.0727265 0.00978305,0.135587 0.0107023,0.199312 0.000536232,0.0374565 -0.00887975,0.194461 0.0208013,0.194461l0.00535275 0.00123206 0.0891518 -0.00648266c0,-0.0734542 -0.0105236,-0.136573 -0.0105012,-0.210012 1.27674e-005,-0.0356339 0.0052921,-0.204764 -0.0210024,-0.204764l-0.0682515 0c-0.0082733,0 -0.019898,0.00278649 -0.026253,0.0052538z"/>
    <path id="_116868544" class="fil3" d="M1.60659 0.687791l0 0.0945045 0.0262498 0c0.0245773,0 0.0840033,0.00270031 0.0840033,-0.0209992l0 -0.0787591 -0.0840033 0c-0.0082733,0 -0.019898,0.00278649 -0.0262498,0.0052538z"/>
    <path id="_116868616" class="fil0" d="M0.414772 0.567034l0.0524869 0.00579961 -0.00157997 0.0309068 0.00159593 0.0315483 0.0105012 0 0 0.0209992c0,0.0141814 0.0025088,0.0144783 0.00525061,0.0262498l-0.0367511 0.0052538 0.0583951 -2.87267e-005 0.00460585 0.131284c0.00947663,0.00634861 0.00923405,0.0105012 0.0210024,0.0105012l0.0157518 0c0.100183,0 0.0836363,0.00112992 0.0840608,-0.0893082 0.000229814,-0.049477 -0.00530806,-0.10927 -0.00530806,-0.167956l-0.00524742 0 0 0.194263 -0.00608368 2.55349e-005 -0.00966814 -0.330795 0.00449414 4.4686e-005 0.00600708 0.12071 0.00686569 -7.34127e-005 -0.00686569 -0.141683c-0.0164253,-0.00136931 -0.0186532,-0.0052538 -0.0367511,-0.0052538l-0.00554745 -0.00204598 -0.07949 0.0126142 0.00628158 0.120691 0 0.026253 -0.0840065 0z"/>
    <path id="_117734664" class="fil5" d="M3.5387 0.777045c-0.00395152,-0.0169647 -0.0105012,-0.0325538 -0.0105012,-0.0525029 0,-0.00988199 0.0193682,-0.0157486 0.0315036,-0.0157486l0.0105012 0c0.054635,0 0.168007,0.0692474 0.168007,0.126005l0 0.0157518c0,0.0284427 -0.0300226,0.0622508 -0.0525029,0.0682547l-0.00589217 0.0163902 0.315659 0.319626 0.0157518 0 0 -0.0367511 -0.00524742 -0.0262498 -0.00525061 -0.0210024 -0.0052538 -0.0157518 -0.00524742 -0.0209992 -0.00525061 -0.0157518 -0.00525061 -0.0157518 -0.00525061 -0.010498 -0.00525061 -0.0157518 -0.00524742 -0.0105012 -0.00525061 -0.0157518 -0.0052538 -0.0105012 -0.00524742 -0.0105012 -0.00525061 -0.010498 -0.0052538 -0.0105012 -0.00524742 -0.0105012 -0.00525061 -0.0105012 -0.00525061 -0.00524742 -0.00525061 -0.0105044 -0.00525061 -0.010498 -0.00524742 -0.0052538 -0.00525061 -0.010498 -0.0052538 -0.0105012 -0.00524742 -0.00525061 -0.00525061 -0.00524742 -0.0052538 -0.0105044 -0.00524742 -0.00524742 -0.00525061 -0.0105012 -0.00525061 -0.00525061 -0.00525061 -0.00525061 -0.00525061 -0.00525061 -0.00524742 -0.0105012 -0.00525061 -0.00524742 -0.0052538 -0.00525061 -0.00524742 -0.0052538 -0.00525061 -0.00524742 -0.0052538 -0.00525061 -0.00524742 -0.0105012 -0.00525061 -0.00525061 -0.00525061 -0.00525061 -0.00525061 -0.00525061 -0.00525061 -0.00525061 -0.00524742 -0.00524742 -0.00525061 -0.00525061 -0.0052538 -0.0052538 -0.00524742 -0.00524742 -0.00525061 -0.00525061 -0.0105012 -0.00525061 -0.00525061 -0.00525061 -0.00524742 -0.00525061 -0.0052538 -0.00524742 -0.00525061 -0.00525061 -0.00524742 -0.0052538 -0.0105044 -0.00524742 -0.00524742 -0.00525061 -0.00525061 -0.0052538 -0.0105012 -0.00524742 -0.00525061 -0.00525061 -0.0105012 -0.00525061 -0.00525061 -0.00525061 -0.00524742 -0.00525061 -0.0105044 -0.00524742 -0.010498 -0.00525061 -0.00525061 -0.0052538 -0.0105012 -0.00524742 -0.0105012 -0.00525061 -0.00525061 -0.0052538 -0.010498 -0.00524742 -0.0105012 -0.00525061 -0.0105012 -0.00525061 -0.0105012 -0.00525061 -0.010498 -0.00525061 -0.0105012 -0.00524742 -0.0157518 -0.00525061 -0.010498 -0.0052538 -0.0105044 -0.00524742 -0.0157518 -0.00525061 -0.0157518 -0.0052538 -0.0157454 -0.00524742 -0.0157518 -0.00525061 -0.0210024 -0.00525061 -0.0209992 -0.00525061 -0.0262562 -0.00525061 -0.0262498 0 -0.0157518 0c0.00995541,0.018816 0.0525603,0.0694868 0.0675365,0.0630999l0.00470799 0.0206545 0.00651139 -0.0312483c0.0140793,-0.00337379 0.00989795,-0.00525061 0.0209992,-0.00525061 0.012244,0 0.0262562,0.0140059 0.0262562,0.0262498l0 0.00525061c0,0.019199 -0.0142165,0.0113343 -0.0184202,0.0342359l0.0711848 0.0715583 0.0102363 -0.006039z"/>
    <path id="_116868688" class="fil6" d="M1.13931 0.798044l0.0787559 0c0.0141814,0 0.0144751,-0.00250561 0.0289119,-0.00536551l-0.0184138 -0.409407 -0.0892539 0c-0.0292789,0 -0.0112098,0.164317 -0.0106991,0.199715 0.000906488,0.0632116 0.0106991,0.150254 0.0106991,0.215058z"/>
    <path id="_116868760" class="fil2" d="M0.672036 0.640536l0 0.0525061c0,0.0593207 0.0560427,0.126005 0.115507,0.126005l0.0577535 0c0.0216472,0 0.0787527,-0.0210088 0.0787527,-0.0367511 0,-0.0284235 -0.0098022,-0.0410345 -0.0209992,-0.0577535 -0.0251901,0.00586983 -0.0518677,0.0210024 -0.0787559,0.0210024l-0.00524742 0c-0.0249156,0 -0.0320016,-0.0111013 -0.0367543,-0.0315036l0.0210024 0c0.0698028,0 0.126008,-0.0205811 0.126008,-0.0892571l0 -0.00524742c0,-0.0662438 -0.0444754,-0.105006 -0.110256,-0.105006l-0.0367543 0c-0.0507633,0 -0.110256,0.0717179 -0.110256,0.126005z"/>
    <path id="_117734784" class="fil6" d="M2.58315 0.65104l-0.0105012 0.00524742 -0.0105012 0.00525061 -0.0105012 0.00525061 -0.010498 0.00525061 -0.0105044 0.00525061 -0.010498 0.00524742 -0.0105012 0.0052538 -0.00525061 0.00525061 -0.0105012 0.00524742 -0.010498 0.0052538 -0.0052538 0.00525061 -0.010498 0.00524742 -0.00525061 0.00525061 -0.0105012 0.00525061 -0.00525061 0.00525061 -0.00525061 0.00525061 -0.0105012 0.00524742 -0.00524742 0.0052538 -0.0052538 0.00525061 -0.010498 0.00524742 -0.00525061 0.0052538 -0.00525061 0.00525061 -0.00525061 0.00524742 -0.00525061 0.00525061 -0.0105012 0.00525061 -0.00525061 0.00525061 -0.00524742 0.00525061 -0.0052538 0.00524742 -0.00524742 0.0052538 -0.00525061 0.00525061 -0.00525061 0.00524742 -0.00525061 0.00525061 -0.00525061 0.00525061 0 0.00525061 0.043138 -0.0326399 0.25088 0.242651c0.0379544,-0.00315675 0.0653884,-0.0246411 0.11018,-0.0263233 0.0295151,-0.00110757 0.104744,-0.00311206 0.133429,-0.00833394 0.0560075,-0.0101884 0.214308,-0.00209386 0.28142,-0.00209386l-0.17454 -0.00397067 -0.350488 -0.353048 -0.0210024 0 -0.0157518 0 -0.010498 0.00525061z"/>
    <path id="_116868832" class="fil7" d="M3.5387 0.777045c0.0416474,0.0479162 0.0598665,0.14176 0.147007,0.14176 0.0224803,-0.00600389 0.0525029,-0.0398121 0.0525029,-0.0682547l0 -0.0157518c0,-0.0567576 -0.113372,-0.126005 -0.168007,-0.126005l-0.0105012 0c-0.0121354,0 -0.0315036,0.00586664 -0.0315036,0.0157486 0,0.0199491 0.00654969,0.0355382 0.0105012,0.0525029z"/>
    <path id="_116868928" class="fil1" d="M2.80366 0.561783l-0.00524742 0.026253 -0.0210024 0.00525061 -0.026253 0.00524742 -0.0262498 0.00525061 -0.0210024 0.00525061 -0.0209992 0.00525061 -0.0157518 0.00525061 -0.0157518 0.00524742 -0.0157518 0.0052538 -0.0157486 0.00525061 -0.0105012 0.00524742 0 0.0052538 0.0210024 0 0.350488 0.353048 0.17454 0.00397067 0.278266 0.0157518c-0.00785197,-0.0216887 -0.379285,-0.356598 -0.425255,-0.424313l0.157489 -0.00621136 0 -0.0157518 -0.00391003 0.00465054 -0.132596 -0.109659 -0.152261 0 0.133528 0.118214 -0.201821 0.00630711 -0.0052123 -0.030013z"/>
    <path id="_117734928" class="fil8" d="M1.60659 0.687791c0.0063518,-0.00246731 0.0179765,-0.0052538 0.0262498,-0.0052538l0.0840033 0 0 0.0787591c0,0.0236995 -0.059426,0.0209992 -0.0840033,0.0209992l-0.0262498 0 0 -0.0945045zm-0.325519 -0.0525029c0,-0.077843 0.0536328,-0.152261 0.126005,-0.152261l0.0157518 0c0.0856408,0 0.136506,0.0704635 0.136506,0.157509l0 0.0052538c0,0.0710093 -0.0473736,0.147007 -0.110256,0.147007l-0.0472523 0c-0.0752353,0 -0.120754,-0.0806359 -0.120754,-0.157509zm-0.609039 0.00524742c0,-0.0542871 0.0594931,-0.126005 0.110256,-0.126005l0.0367543 0c0.065781,0 0.110256,0.0387619 0.110256,0.105006l0 0.00524742c0,0.068676 -0.0562054,0.0892571 -0.126008,0.0892571l-0.0210024 0c0.00475268,0.0204024 0.0118386,0.0315036 0.0367543,0.0315036l0.00524742 0c0.0268882,0 0.0535658,-0.0151326 0.0787559,-0.0210024 0.011197,0.016719 0.0209992,0.02933 0.0209992,0.0577535 0,0.0157422 -0.0571055,0.0367511 -0.0787527,0.0367511l-0.0577535 0c-0.0594643,0 -0.115507,-0.0666843 -0.115507,-0.126005l0 -0.0525061zm0.288767 -0.246759c0.00635499,-0.00246731 0.0179797,-0.0052538 0.026253,-0.0052538l0.0682515 0c0.0262945,0 0.0210152,0.16913 0.0210024,0.204764 -2.2343e-005,0.0734383 0.0105012,0.136557 0.0105012,0.210012l-0.0891518 0.00648266 -0.00535275 -0.00123206c-0.0296811,0 -0.0202651,-0.157004 -0.0208013,-0.194461 -0.000919255,-0.0637255 -0.0107023,-0.126586 -0.0107023,-0.199312l0 -0.0209992zm0.178511 0.404268c0,-0.0648043 -0.00979262,-0.151846 -0.0106991,-0.215058 -0.000510697,-0.0353977 -0.0185798,-0.199715 0.0106991,-0.199715l0.0892539 0 0.0184138 0.409407c-0.0144368,0.00285991 -0.0147304,0.00536551 -0.0289119,0.00536551l-0.0787559 0zm-0.693039 -0.110253l-0.0210024 0 0 0.141757c-0.0117748,0.002745 -0.0120716,0.00525061 -0.026253,0.00525061l-0.0787527 0c-0.0263999,0 -0.0157742,-0.0685196 -0.0157486,-0.0945077 3.51104e-005,-0.0431188 -0.0054102,-0.064134 -0.00526018,-0.104996 0.000277692,-0.0735117 -0.0104916,-0.131817 -0.0104916,-0.20477 0.012694,-0.00609326 0.0229686,-0.010498 0.0420017,-0.010498l0.0630009 0c0.0279607,0 0.0210024,0.114093 0.0210024,0.147007l0.0840065 0 0 -0.026253 -0.00628158 -0.120691 0.07949 -0.0126142 0.00554745 0.00204598c0.0180978,0 0.0203258,0.00388449 0.0367511,0.0052538l0.00686569 0.141683 -0.00686569 7.34127e-005 -0.00600708 -0.12071 -0.00449414 -4.4686e-005 0.00966814 0.330795 0.00608368 -2.55349e-005 0 -0.194263 0.00524742 0c0,0.0586855 0.00553787,0.118479 0.00530806,0.167956 -0.000424517,0.0904381 0.0161221,0.0893082 -0.0840608,0.0893082l-0.0157518 0c-0.0117684,0 -0.0115258,-0.00415261 -0.0210024,-0.0105012l-0.00460585 -0.131284 -0.0583951 2.87267e-005zm1.14457 -0.320271c-0.00143953,-0.0153465 0.075347,-0.0157518 0.0945045,-0.0157518 0.0120971,0 0.0157486,0.00365468 0.0157486,0.0157518l0 0.273016c0,0.0120971 -0.00365149,0.0157518 -0.0157486,0.0157518l-0.0735053 0 0 -0.0209992 -0.0209992 -0.267768zm-1.09206 -0.362266l-0.0315036 0.00524742 -0.0209992 0.00525061 -0.0210024 0.00525061 -0.0157518 0.00525061 -0.0157518 0.00525061 -0.0157486 0.00524742 -0.0105012 0.0052538 -0.0157518 0.00525061 -0.0105012 0.00524742 -0.010498 0.00525061 -0.0105012 0.0052538 -0.0105012 0.00524742 -0.0105012 0.00525061 -0.010498 0.00525061 -0.00525061 0.00525061 -0.0105012 0.00525061 -0.00525061 0.00524742 -0.0105012 0.00525061 -0.00525061 0.0052538 -0.0105012 0.00524742 -0.00525061 0.00525061 -0.00524742 0.0052538 -0.0105012 0.00524742 -0.00525061 0.00525061 -0.00525061 0.00524742 -0.00525061 0.0052538 -0.00525061 0.00525061 -0.00525061 0.00524742 -0.00524742 0.00525061 -0.0052538 0.0052538 -0.00525061 0.00524742 -0.00524742 0.00525061 -0.00525061 0.0052538 -0.00525061 0.00524742 -0.0105012 0.00525061 -0.00525061 0.00524742 -0.00525061 0.0052538 0 0.010498 -0.010498 0 -0.0052538 0.00525061 -0.00525061 0.0157518 -0.00524742 0.00525061 -0.00525061 0.00525061 -0.00525061 0.010498 -0.00525061 0.0052538 -0.00525061 0.010498 -0.00524742 0.00525061 -0.0052538 0.0105012 -0.00525061 0.00525061 -0.00524742 0.0105012 -0.0052538 0.010498 -0.00524742 0.0105044 -0.00525061 0.010498 -0.00525061 0.0052538 -0.00525061 0.0157454 -0.00525061 0.0105044 -0.00525061 0.0105012 -0.00524742 0.0157486 -0.0052538 0.0157518 -0.00525061 0.0157518 -0.00524742 0.0209992 -0.0052538 0.0210024 -0.00524742 0.0262498 -0.00525061 0.0367511 0 0.131259 0.00525061 0.0367543 0.00524742 0.0262498 0.0052538 0.0209992 0.00524742 0.0210056 0.00525061 0.0157486 0.0052538 0.0157518 0.00524742 0.0105012 0.00525061 0.0157486 0.00525061 0.0105012 0.00525061 0.0105012 0.00525061 0.0105012 0.00525061 0.0105012 0.00524742 0.010498 0.0052538 0.0105012 0.00524742 0.0105012 0.00525061 0.00525061 0.0052538 0.0105012 0.00524742 0.00524742 0.00525061 0.0105044 0.00525061 0.00524742 0.00525061 0.0105012 0.00525061 0.00525061 0.00524742 0.00525061 0.00525061 0.0105012 0.0052538 0.00525061 0.00524742 0.00524742 0.00525061 0.0052538 0.00525061 0.00525061 0.00525061 0.00524742 0.00525061 0.00525061 0.00525061 0.00525061 0.00525061 0.00525061 0.00525061 0.00525061 0.00524742 0.00524742 0.00525061 0.0052538 0.0052538 0.00525061 0.00524742 0.00524742 0.00525061 0.0052538 0.00525061 0.00524742 0.00525061 0.00525061 0.00525061 0.00525061 0.0105012 0.00525061 0.00525061 0.00525061 0.00524742 0.00525061 0.0105044 0.00524742 0.00524742 0.0052538 0.00525061 0.00525061 0.0105012 0.00524742 0.010498 0.0052538 0.0052538 0.00524742 0.010498 0.00525061 0.0105044 0.00525061 0.00524742 0.00525061 0.0105012 0.00525061 0.0105012 0.00525061 0.010498 0.00524742 0.0157518 0.0052538 0.0105012 0.00525061 0.0157518 0.00524742 0.010498 0.00525061 0.0157518 0.00525061 0.0210024 0.00525061 0.0209992 0.00525061 0.0210024 0.00525061 0.0367511 0.00525061 0.0525061 0.00525061 0.798044 0 0 0.0105012 0.00525061 0.00525061 0.00524742 0.00524742 0.0052538 0.00525061 0.00525061 0.00525061 0.00524742 0.00525061 0.00525061 0.00525061 0.00525061 0.00525061 0.00525061 0.00525061 0.00525061 0.00525061 0.00525061 0.00524742 0.0105012 0.0052538 0.00524742 0.00524742 0.0105044 0.00525061 0.00524742 0.00525061 0.0105012 0.00525061 0.00525061 0.00525061 0.0105012 0.00525061 0.0105012 0.00525061 0.00524742 0.00525061 0.0105044 0.00525061 0.010498 0.00524742 0.0105012 0.0052538 0.010498 0.00524742 0.0105044 0.00525061 0.0157518 0.00525061 0.010498 0.00525061 0.0105012 0.00525061 0.0157518 0.00525061 0.010498 0.00524742 0.0157518 0.0052538 0.0157518 0.00525061 0.0157518 0.00524742 0.0157518 0.0052538 0.010498 0.00524742 0.0210024 0.00525061 0.0157518 0.00525061 0.0157486 0.00525061 0.0210024 0.00525061 0.0157518 0.00525061 0.0209992 0.00524742 0.0210024 0.0052538 0.0209992 0.00525061 0.0210024 0.00524742 0.0262498 0.0052538 0.026253 0.00524742 0.026253 0.00525061 0.0420017 0 0 -0.00525061 -0.0105012 -0.00524742 -0.0472523 0 0 -0.0157518 -0.00525061 -0.0052538 -0.00525061 -0.00524742 -0.00525061 -0.00525061 -0.00525061 -0.00525061 -0.00525061 -0.0105012 -0.00524742 -0.00525061 -0.0052538 -0.00524742 -0.00524742 -0.0105012 -0.00525061 -0.0105044 -0.00525061 -0.00524742 -0.00525061 -0.0105012 -0.00525061 -0.0105012 -0.00525061 -0.010498 -0.00525061 -0.0105012 -0.00525061 -0.0157518 -0.00525061 -0.0105012 -0.00524742 -0.0157518 -0.0052538 -0.0157486 -0.00524742 -0.0157518 -0.00525061 -0.0157518 -0.00525061 -0.0210024 -0.00525061 -0.0209992 -0.00525061 -0.0262498 -0.00525061 -0.026253 -0.00525061 -0.0315005 0 -0.0210024 0.00525061 -0.00525061 0.00525061 -0.00525061 0.00525061 -0.00525061 0.00525061 -0.00525061 0.0105012 -0.00524742 0.00524742 -0.0052538 0.0052538 -0.00524742 0.00524742 -0.00525061 0.00525061 -0.0052538 0.00525061 -0.00524742 0.00525061 -0.00525061 0.00525061 -0.00525061 0.00525061 -0.00525061 0.00525061 -0.00525061 0.00525061 -0.010498 0.00525061 -0.0052538 0.00524742 -0.00524742 0.0052538 -0.00525061 0.00524742 -0.0052538 0.00525061 -0.010498 0.00525061 -0.00525061 0.00525061 -0.00525061 0.00525061 -0.010498 0.00525061 -0.00525061 0.00524742 -0.0105012 0.0052538 -0.00525061 0.00525061 -0.0105012 0.00524742 -0.0105012 0.0052538 -0.00525061 0.00524742 -0.010498 0.00525061 -0.0105044 0.00525061 -0.010498 0.00525061 -0.0105012 0.00525061 -0.0105012 0.00525061 -0.0157486 0.00524742 -0.0157518 0.0052538 -0.0105012 0.00525061 -0.0157486 0.00524742 -0.0210024 0.0052538 -0.0157518 0.00524742 -0.00525061 0.00525061 0.00525061 0.00525061 0.00525061 0.00525061 0.00524742 0.00525061 0.0052538 0.00525061 0.00525061 0.00524742 0.00524742 0.0052538 0.0052538 0.00524742 0.00525061 0.00525061 0.00524742 0.00525061 0.00525061 0.00525061 0.00525061 0.00525061 0.00525061 0.00525061 0.00525061 0.00525061 0.00524742 0.00525061 0.0052538 0.00525061 0.00525061 0.00524742 0.00524742 0.0052538 0.00525061 0.00524742 0.00525061 0.00525061 0.00525061 0.00525061 0.00525061 0.00525061 0.00525061 0.00525061 0.00525061 0.00525061 0.00525061 0.00525061 0.00524742 0.00525061 0.0052538 0.00525061 0.00525061 0.00524742 0.00524742 0.0052538 0.00525061 0.00524742 0.00525061 0.00525061 0.00525061 0.00525061 0.00525061 0.00525061 0.00525061 0.00525061 0.00525061 0.00525061 0.00525061 0.00525061 0.00524742 0.00525061 0.0052538 0.00525061 0.00525061 0.00524742 0.00524742 0.0052538 0.00525061 0.00524742 0.00525061 0.00525061 0.00525061 0.00525061 0.00525061 0.00525061 0.0157518 0.0105012 -0.0157518 -0.00525061 -0.00525061 -0.00525061 -0.00525061 -0.00525061 -0.00525061 -0.00525061 -0.00525061 -0.00525061 -0.00524742 -0.00524742 -0.00525061 -0.0052538 -0.0052538 -0.00524742 -0.00524742 -0.00525061 -0.00525061 -0.00525061 -0.00525061 -0.00525061 -0.00525061 -0.00525061 -0.00525061 -0.00525061 -0.00525061 -0.00525061 -0.00525061 -0.00525061 -0.00525061 -0.00525061 -0.00524742 -0.00524742 -0.00525061 -0.0052538 -0.0052538 -0.00524742 -0.00524742 -0.00525061 -0.00525061 -0.00525061 -0.00525061 -0.00525061 -0.00525061 -0.00525061 -0.00525061 -0.00525061 -0.00525061 -0.00525061 -0.00525061 -0.00525061 -0.00525061 -0.00525061 -0.00524742 -0.00524742 -0.00525061 -0.0052538 -0.0052538 -0.00524742 -0.00524742 -0.00525061 -0.00525061 -0.00525061 -0.00525061 -0.00525061 -0.00525061 -0.00525061 -0.00525061 -0.00525061 -0.00524742 -0.00525061 -0.00525061 -0.00525061 -0.0052538 -0.00525061 -0.00524742 -0.00524742 -0.00525061 -0.0052538 -0.0052538 -0.00524742 -0.00524742 -0.00525061 -0.00525061 -0.00525061 -0.00525061 -0.00525061 -0.00525061 -0.00525061 -0.00525061 -0.00525061 -0.010498 -0.00524742 -0.0052538 -0.0052538 -0.00524742 -0.00524742 -0.00525061 -0.00525061 -0.0052538 -0.0052538 -0.00524742 -0.00524742 -0.00525061 -0.00525061 -0.00525061 0.0420017 -0.00525061 0 -0.152258 -0.00525061 -0.0315005 -0.00524742 -0.026253 -0.0052538 -0.0210024 -0.00524742 -0.0157486 -0.00525061 -0.0157518 -0.0052538 -0.0157518 -0.00524742 -0.010498 -0.00525061 -0.0157518 -0.00525061 -0.0052538 -0.00525061 -0.0157454 -0.00525061 -0.0105044 -0.00525061 -0.010498 -0.00524742 -0.0105012 -0.0052538 -0.0105012 -0.00524742 -0.00525061 -0.00525061 -0.010498 -0.0052538 -0.0052538 -0.00524742 -0.010498 -0.00525061 -0.00525061 -0.00525061 -0.0105012 -0.00525061 -0.00525061 -0.00525061 -0.00525061 -0.00525061 -0.0105012 -0.00524742 -0.00524742 -0.0052538 -0.0052538 -0.00524742 -0.00525061 -0.00525061 -0.010498 -0.00525061 -0.0052538 -0.00525061 -0.00524742 -0.00525061 -0.00525061 -0.00525061 -0.00524742 -0.00525061 -0.0052538 -0.00525061 -0.00525061 -0.00525061 -0.00524742 -0.00524742 -0.0052538 -0.0052538 -0.00525061 -0.00524742 -0.00524742 -0.00525061 -0.00525061 -0.0105012 -0.0052538 -0.00525061 -0.00524742 -0.00525061 -0.00525061 -0.00525061 -0.00524742 -0.010498 -0.0052538 -0.00525061 -0.00525061 -0.0052538 -0.00524742 -0.010498 -0.0052538 -0.00525061 -0.00525061 -0.0105012 -0.00524742 -0.0105012 -0.00525061 -0.00525061 -0.00525061 -0.010498 -0.00525061 -0.0105012 -0.00525061 -0.0105012 -0.00524742 -0.0105012 -0.0052538 -0.010498 -0.00525061 -0.0105012 -0.00524742 -0.0157518 -0.00525061 -0.0105012 -0.0052538 -0.0157518 -0.00524742 -0.0157486 -0.00525061 -0.0157518 -0.00525061 -0.0210024 -0.00525061 -0.0209992 -0.00525061 -0.0315036 -0.00524742 -0.0420017 -0.0052538 -0.924053 0 -0.0420017 0.0052538z"/>
    <path id="_116869000" class="fil7" d="M3.66996 1.26532l0.0630041 0.0735053c0.0180117,-0.0309515 -0.0883506,-0.164464 -0.111524,-0.187748 -0.0353051,-0.0354711 -0.144023,-0.10627 -0.208748,-0.10627l-0.0157486 0c0.0068625,0.0189628 0.1213,0.0818393 0.146136,0.100627 0.0404632,0.0306131 0.0997009,0.0793017 0.12688,0.119886z"/>
    <path id="_116869072" class="fil2" d="M2.33638 0.829548l-0.00525061 0 -0.00524742 0.00525061 -0.0052538 0.00525061 -0.00525061 0.00525061 -0.00524742 0.010498 -0.0052538 0.0052538 -0.00524742 0.00525061 -0.00525061 0.00524742 -0.00525061 0.00525061 -0.00525061 0.00525061 -0.00525061 0.0105012 -0.00525061 0.00525061 -0.00524742 0.00525061 -0.0052538 0.010498 -0.00525061 0.0052538 -0.00524742 0.010498 -0.0052538 0.00525061 -0.00524742 0.0105012 0 0.00525061 -0.0105012 0.0157518 -0.00525061 0 -0.00525061 0.0105012 -0.00525061 0.010498 -0.00524742 0.0105012 -0.0052538 0.0105012 -0.00524742 0.0105012 0 0.010498 0.0105012 -0.00524742c0.0258413,0.0385928 0.154151,0.161141 0.19426,0.189009 0.0362882,-0.0417495 0.0534189,-0.0647245 0.0987753,-0.100735 0.0423272,-0.0336039 0.0893082,-0.0463426 0.126988,-0.0725254l-0.25088 -0.242651 -0.043138 0.0326399z"/>
    <path id="_117735048" class="fil8" d="M3.33919 1.26532l0 0.0157518c0,0.0253944 0.0166072,0.0420017 0.0420017,0.0420017l0.0157518 0c0.016719,0 0.0367511,-0.026751 0.0367511,-0.0472523 0,-0.0259498 -0.0213025,-0.0472523 -0.0472523,-0.0472523 -0.0205013,0 -0.0472523,0.0200321 -0.0472523,0.0367511z"/>
    <path id="_116870416" class="fil8" d="M2.75641 1.27057l0 0.00525061c0,0.0259498 0.0212993,0.0472523 0.0472491,0.0472523l0.00525061 0c0.0191895,0 0.0420049,-0.014491 0.0420049,-0.0315005l0 -0.0210024c0,-0.0253944 -0.0166072,-0.0420017 -0.0420049,-0.0420017l-0.00525061 0c-0.0237347,0 -0.0472491,0.0243347 -0.0472491,0.0420017z"/>
    <path id="_116870968" class="fil9" d="M3.33919 1.26532c0,-0.016719 0.026751,-0.0367511 0.0472523,-0.0367511 0.0259498,0 0.0472523,0.0213025 0.0472523,0.0472523 0,0.0205013 -0.0200321,0.0472523 -0.0367511,0.0472523l-0.0157518 0c-0.0253944,0 -0.0420017,-0.0166072 -0.0420017,-0.0420017l0 -0.0157518zm-0.115507 0.0315036l0 0.0262498c0,0.0577599 0.0577471,0.115507 0.115507,0.115507l0.0210024 0c0.065248,0 0.120754,-0.0636584 0.120754,-0.131256 0,-0.0633584 -0.0583823,-0.126008 -0.120754,-0.126008l-0.0210024 0c-0.0577599,0 -0.115507,0.0577471 -0.115507,0.115507z"/>
    <path id="_116881120" class="fil8" d="M3.22368 1.29683c0,-0.0577599 0.0577471,-0.115507 0.115507,-0.115507l0.0210024 0c0.0623721,0 0.120754,0.0626498 0.120754,0.126008 0,0.0675972 -0.0555064,0.131256 -0.120754,0.131256l-0.0210024 0c-0.0577599,0 -0.115507,-0.0577471 -0.115507,-0.115507l0 -0.0262498zm-0.026253 0l0 0.0262498c0,0.0760045 0.0779867,0.14176 0.157509,0.14176 0.066879,0 0.147011,-0.0662438 0.147011,-0.126008l0 -0.0577535c0,-0.05535 -0.0799529,-0.126008 -0.136509,-0.126008 -0.0870484,0 -0.16801,0.0586919 -0.16801,0.14176z"/>
    <path id="_116870848" class="fil8" d="M2.6409 1.31258c0,-0.0684717 0.0551521,-0.131256 0.120754,-0.131256l0.0105012 0c0.0657044,0 0.126008,0.0525061 0.126008,0.115507l0 0.0367511c0,0.0470033 -0.0636137,0.105006 -0.115507,0.105006l-0.0210024 0c-0.062969,0 -0.120754,-0.0621455 -0.120754,-0.126008zm-0.0210024 -0.0209992l0 0.0367511c0,0.0657108 0.0747629,0.136509 0.136509,0.136509 0.0870484,0 0.168007,-0.0586919 0.168007,-0.14176l0 -0.00525061c0,-0.0981273 -0.0654076,-0.162759 -0.162759,-0.162759 -0.0667035,0 -0.141757,0.0684207 -0.141757,0.136509z"/>
    <path id="_116871064" class="fil9" d="M2.75641 1.27057c0,-0.0176669 0.0235144,-0.0420017 0.0472491,-0.0420017l0.00525061 0c0.0253976,0 0.0420049,0.0166072 0.0420049,0.0420017l0 0.0210024c0,0.0170094 -0.0228154,0.0315005 -0.0420049,0.0315005l-0.00525061 0c-0.0259498,0 -0.0472491,-0.0213025 -0.0472491,-0.0472523l0 -0.00525061zm-0.115507 0.0420017c0,0.0638627 0.0577854,0.126008 0.120754,0.126008l0.0210024 0c0.0518932,0 0.115507,-0.0580025 0.115507,-0.105006l0 -0.0367511c0,-0.0630009 -0.0603038,-0.115507 -0.126008,-0.115507l-0.0105012 0c-0.0656023,0 -0.120754,0.0627839 -0.120754,0.131256z"/>
    <path id="_80259888" class="fil10" d="M2.48864 1.56984l0.567034 0 0.598534 0c0.074498,-0.00166296 0.0910637,-0.041341 0.131259,-0.0682547 0.00540701,-0.0232176 0.0209992,-0.0355765 0.0209992,-0.0577535l0.00166296 -0.0370032 -0.0121642 -0.0575013 -0.0630009 0 0 -0.0105012 -0.0630041 -0.0735053 -0.110256 -0.00525061c0,0.0372841 -0.000960749,0.0676482 -0.0055666,0.0994424 -0.0045867,0.0316569 -0.030361,0.0448233 -0.041708,0.0632946 -0.0237251,0.0386183 -0.0792251,0.0735277 -0.141738,0.0735277l-0.0735053 0c-0.0321324,0 -0.0796177,-0.0456436 -0.0984561,-0.0643032 -0.0161317,-0.0159816 -0.0279639,-0.0246954 -0.0333741,-0.0506293 -0.00531125,-0.0254678 -0.0204247,-0.0487939 -0.0204247,-0.0635786l-5.74535e-005 -0.0619125 -0.152204 -0.00633903 -0.0157518 0 0 0.0945014c-0.0117014,0.00312483 -0.0157518,0.00122887 -0.0157518,0.0157518l0 0.0210024c-0.0311302,0.0112705 -0.0185192,0.0638053 -0.0608496,0.0809072 -0.031909,0.0128919 -0.0688739,0.0398504 -0.107157,0.0398504l-0.0420049 0c-0.0753534,0 -0.142561,-0.0696655 -0.17326,-0.115507 0,-0.0389694 -0.010498,-0.0345551 -0.010498,-0.0577535l0 -0.0840065 -0.0682547 0 -0.110256 0c-0.0263616,0.0303322 -0.0577535,0.125162 -0.0577535,0.183762 0,0.0683409 0.0842108,0.14176 0.157509,0.14176z"/>
    <polygon id="_116871760" class="fil7" points="2.03712,1.43333 2.03712,1.42808 2.00561,1.42808 2.00561,1.43333 "/>
    <path id="_116870368" class="fil11" d="M3.19743 1.29683c0,-0.0830681 0.0809615,-0.14176 0.16801,-0.14176 0.0565565,0 0.136509,0.0706582 0.136509,0.126008l0 0.0577535c0,0.0597644 -0.0801316,0.126008 -0.147011,0.126008 -0.079522,0 -0.157509,-0.0657555 -0.157509,-0.14176l0 -0.0262498zm-0.577532 -0.00525061c0,-0.0680887 0.0750534,-0.136509 0.141757,-0.136509 0.0973517,0 0.162759,0.0646319 0.162759,0.162759l0 0.00525061c0,0.0830681 -0.0809583,0.14176 -0.168007,0.14176 -0.0617465,0 -0.136509,-0.0707986 -0.136509,-0.136509l0 -0.0367511zm0.0105012 -0.252016c-0.0376799,0.0261828 -0.0846609,0.0389215 -0.126988,0.0725254 -0.0453563,0.0360105 -0.062487,0.0589855 -0.0987753,0.100735l-0.0157518 0.0315005 0.110256 0 0.0682547 0 0 0.0840065c0,0.0231984 0.010498,0.0187841 0.010498,0.0577535 0.0306993,0.0458415 0.0979071,0.115507 0.17326,0.115507l0.0420049 0c0.0382832,0 0.0752481,-0.0269584 0.107157,-0.0398504 0.0423304,-0.017102 0.0297194,-0.0696368 0.0608496,-0.0809072l0 -0.0210024c0,-0.014523 0.00405047,-0.012627 0.0157518,-0.0157518l0 -0.0945014 0.0157518 0 0.152204 0.00633903 5.74535e-005 0.0619125c0,0.0147847 0.0151135,0.0381108 0.0204247,0.0635786 0.0054102,0.0259339 0.0172424,0.0346476 0.0333741,0.0506293 0.0188383,0.0186596 0.0663236,0.0643032 0.0984561,0.0643032l0.0735053 0c0.0625125,0 0.118013,-0.0349094 0.141738,-0.0735277 0.0113471,-0.0184713 0.0371213,-0.0316377 0.041708,-0.0632946 0.00460585,-0.0317941 0.0055666,-0.0621583 0.0055666,-0.0994424l0.110256 0.00525061c-0.0271787,-0.0405845 -0.0864164,-0.0892731 -0.12688,-0.119886 -0.0248359,-0.0187873 -0.139274,-0.0816637 -0.146136,-0.100627l0.0157486 0c0.0647245,0 0.173442,0.0707986 0.208748,0.10627 0.0231729,0.0232846 0.129535,0.156797 0.111524,0.187748l0 0.0105012 0.0630009 0c-0.0132717,-0.159507 -0.211512,-0.295649 -0.36227,-0.330769l-0.278266 -0.0157518c-0.067112,0 -0.225412,-0.00809455 -0.28142,0.00209386 -0.0286852,0.00522188 -0.103914,0.00722637 -0.133429,0.00833394 -0.0447914,0.00168211 -0.0722254,0.0231665 -0.11018,0.0263233z"/>
    <path id="_116869984" class="fil3" d="M3.03467 0.0105012l-0.0105012 0.00525061 -0.00525061 0.00525061 -0.00524742 0.00525061 -0.00525061 0.00525061 -0.00525061 0.00524742 -0.00525061 0.0105044 -0.00525061 0.010498 0 0.0577535 0.00525061 0.0052538 0.00525061 0.010498 0.00525061 0.00524742 0.00525061 0.0052538 0.00524742 0.00525061 0.00525061 0.00524742 0.0052538 0.00525061 0.00524742 0.304519 -0.183758 0 0 0.00524742 0.0262498 0 0.152261 0 0.132596 0.109659 0.00391003 -0.00465054 0 0.0157518 -0.157489 0.00621136c0.0459691,0.0677153 0.417403,0.402624 0.425255,0.424313 0.150758,0.03512 0.348998,0.171262 0.36227,0.330769l0.0121642 0.0575013 -0.00166296 0.0370032c0,0.022177 -0.0155922,0.0345359 -0.0209992,0.0577535 0.0263201,0.00702847 0.0912105,0.0834001 0.114202,0.106308 0.0315962,0.0314909 0.0174052,0.0296109 0.0428826,0.0568662 0.0165211,0.0176765 0.0402685,0.0384364 0.0529242,0.0573385l0 0.0157518 0.0052538 0 0.00525061 -0.0157518 0.00524742 -0.0157518 0.00525061 -0.0262498 0.00525061 -0.0315036 0 -0.357019 -0.00525061 -0.0367543 -0.00525061 0 -0.0157518 0 -0.315659 -0.319626 0.00589217 -0.0163902c-0.0871409,0 -0.10536,-0.0938438 -0.147007,-0.14176l-0.0102363 0.006039 -0.0711848 -0.0715583c0.00420368,-0.0229016 0.0184202,-0.0150368 0.0184202,-0.0342359l0 -0.00525061c0,-0.012244 -0.0140123,-0.0262498 -0.0262562,-0.0262498 -0.0111013,0 -0.00691995,0.00187681 -0.0209992,0.00525061l-0.00651139 0.0312483 -0.00470799 -0.0206545c-0.0149762,0.00638691 -0.0575811,-0.0442838 -0.0675365,-0.0630999l0.0157518 0 0 -0.00524742 -0.0262498 0 0 -0.0840065 -0.0052538 -0.0157486 -0.00524742 -0.0052538 -0.00525061 -0.010498 -0.0105012 -0.00525061 -0.00525061 -0.0052538 -0.0157518 -0.00524742 -0.189258 0 0.00549957 -0.178511 0 -0.00524742 0 -0.0945077 0.00525061 -0.026253 0.00524742 -0.00525061 0.0052538 -0.00524742 0.00525061 -0.00525061 0.00524742 -0.0052538 0.00525061 -0.00524742 0.0052538 -0.00525061 0.00524742 -0.0157518 0 -0.0525029 -0.00524742 -0.010498 -0.0052538 -0.0105044 -0.00525061 -0.00524742 -0.00524742 -0.00525061 -0.00525061 -0.00525061 -0.0105012 -0.00525061 -0.00525061 -0.00525061 -0.0105012 -0.00524742 -0.0472523 0 -0.0157518 0.00524742z"/>
    <path id="_116870488" class="fil4" d="M2.99267 1.65385l0.30977 -0.0262498 0 0.0367511c0,0.0117716 -0.00415899,0.0115258 -0.0105044,0.0209992 0.0153688,0.0264031 -0.0381268,0.0918681 -0.0607985,0.108022l0.223561 0.233114 -0.362273 0.00538467 0.425277 0.00525061 0.010498 0 0 0.0315036 0.0105012 0 0 -0.0367543 0.105006 0 0.026253 -0.00524742 0.0262498 -0.0052538 0 -0.00525061 0.0162242 -0.0108906 -0.0240187 -0.0290044 0.00368021 -0.00392279 0.0227388 0.00972559 -0.0343763 -0.0394099c-0.0140793,0.0033706 -0.00989795,0.00525061 -0.0209992,0.00525061 -0.00141399,0 -0.359023,-0.344398 -0.378021,-0.372774l0.210008 0 0.162762 -0.00524742 -0.598534 0 -0.123407 0.00830522 0.056065 0.0468661 0.014574 0.0227931 -0.0102363 0.006039z"/>
    <path id="_116872192" class="fil8" d="M2.99267 1.65385c-0.012094,0.00100863 -0.0682547,0.00275457 -0.0682547,0.0157518 0,0.0816924 0.0943545,0.0553532 0.163187,0.04768 0.0525571,-0.00586025 0.175619,-0.00697102 0.204333,-0.0319314 0.00634541,-0.00947344 0.0105044,-0.00922766 0.0105044,-0.0209992l0 -0.0367511 -0.30977 0.0262498z"/>
    <path id="_116878120" class="fil1" d="M3.65421 1.56984l-0.162762 0.00524742c0.0376001,0.056148 0.132047,0.122874 0.179954,0.177072 0.0306035,0.0346157 0.0594643,0.0555511 0.0892571,0.0892507 0.038513,0.0435721 0.0571566,0.0491259 0.10401,0.0804763l-0.00569747 0.0102235 0.0105012 0 0.00525061 -0.00525061 0.00524742 -0.00525061 0.0052538 -0.00525061 0.00525061 -0.00524742 0.00524742 -0.0052538 0.0052538 -0.00525061 0.00525061 -0.00524742 0.00524742 -0.00525061 0.00525061 -0.00525061 0.00525061 -0.0105012 0.00525061 -0.00525061 0.00525061 -0.00525061 0.00524742 -0.00525061 0.0052538 -0.0105012 0.00525061 -0.00524742 0.00524742 -0.0105012 0.0052538 -0.00525061 0.00525061 -0.0105012 0.00524742 -0.00524742 0.00525061 -0.0105044 0.00525061 -0.0105012 0.00525061 -0.010498 0.00525061 -0.0157518 0.00524742 -0.010498 0 -0.0157518 0 -0.0157518c-0.0126557,-0.0189022 -0.0364031,-0.039662 -0.0529242,-0.0573385 -0.0254774,-0.0272553 -0.0112864,-0.0253753 -0.0428826,-0.0568662 -0.022991,-0.022908 -0.0878814,-0.0992796 -0.114202,-0.106308 -0.0401951,0.0269138 -0.0567608,0.0665917 -0.131259,0.0682547z"/>
    <path id="_116873632" class="fil6" d="M3.69621 2.01612l0.0157518 0 0.0157518 -0.00524742 0.0157486 -0.0052538 0.0105012 -0.00524742 0.0157518 -0.00525061 0.010498 -0.00525061 0.0105044 -0.00525061 0.010498 -0.00525061 0.00525061 -0.00525061 0.0105012 -0.00524742 0.00524742 -0.0052538 0.0105044 -0.00525061 0.00524742 -0.00524742 0.0105044 -0.00525061 0.00524742 -0.00525061 0.00525061 -0.00525061 0 -0.00525061 0.00569747 -0.0102235c-0.0468533,-0.0313504 -0.0654969,-0.0369043 -0.10401,-0.0804763 -0.0297928,-0.0336996 -0.0586536,-0.054635 -0.0892571,-0.0892507 -0.0479066,-0.0541978 -0.142354,-0.120924 -0.179954,-0.177072l-0.210008 0c0.0189979,0.0283756 0.376607,0.372774 0.378021,0.372774 0.0111013,0 0.00691995,-0.00188 0.0209992,-0.00525061l0.0343763 0.0394099 -0.0227388 -0.00972559 -0.00368021 0.00392279 0.0240187 0.0290044 -0.0162242 0.0108906z"/>
    <path id="_116879008" class="fil0" d="M2.19988 1.02906l-0.00525061 0 -0.00525061 0.0105012 -0.00525061 0.0105012 -0.00525061 0.0105012 -0.00525061 0.0157518 -0.00525061 0.010498 -0.00525061 0.0157518 -0.00525061 0.0105012 -0.00524742 0.0210024 -0.0052538 0.0157486 -0.00524742 0.0157518 -0.00525061 0.0209992 -0.00525061 0.026253 -0.00525061 0.0315005 -0.00525061 0.0367543 0 0.0367511 0.0105012 -0.010498c0.00235878,0.0283246 0.309454,0.320964 0.351682,0.362356 0.0602176,0.059027 0.119302,0.116519 0.179903,0.177119 0.0430231,0.0430199 0.148897,0.137544 0.177206,0.179817l-0.210012 0 -0.0892539 0.00524742 0.456774 0 0.0105012 0 0.0525029 0 0.00525061 -0.0105012 0.00525061 -0.00525061 -0.430527 -0.440741 -0.152258 -0.00553149c-0.0732978,0 -0.157509,-0.0734191 -0.157509,-0.14176 0,-0.0585993 0.0313919,-0.153429 0.0577535,-0.183762l0.0157518 -0.0315005c-0.0401089,-0.0278681 -0.168418,-0.150416 -0.19426,-0.189009l-0.0105012 0.00524742z"/>
    <polygon id="_116870920" class="fil0" points="2.12637,1.6591 2.12637,1.68535 2.13162,1.70635 2.13687,1.72735 2.14212,1.7431 2.15787,1.74835 2.15262,1.7536 2.15262,1.76935 2.15787,1.77985 2.16312,1.79035 2.16837,1.80085 2.17362,1.81136 2.17887,1.8166 2.18412,1.82711 2.18938,1.83761 2.19463,1.84286 2.19988,1.84811 2.20512,1.85861 2.21038,1.86386 2.21563,1.86911 2.22088,1.87961 2.22613,1.88486 2.23138,1.89011 2.23663,1.89536 2.24188,1.90061 2.24713,1.90586 2.25238,1.91111 2.25763,1.91636 2.26288,1.92161 2.26813,1.92686 2.27338,1.93211 2.28388,1.93736 2.28913,1.94261 2.29438,1.94786 2.30488,1.95311 2.31013,1.95836 2.32063,1.96361 2.32588,1.96887 2.33638,1.97411 2.34688,1.97936 2.35213,1.98461 2.36263,1.98987 2.37313,1.99512 2.38889,2.00037 2.39939,2.00561 2.41514,2.01087 2.43089,2.01612 2.44664,2.02137 2.45714,2.02137 2.45714,2.05287 2.46239,2.05287 2.46265,2.02058 2.47289,2.02662 2.49914,2.03187 2.54115,2.03187 2.6304,2.02662 2.12637,1.51734 "/>
    <path id="_116879032" class="fil0" d="M2.12112 1.31783l-0.00525061 0.131259 -0.00525061 0 -0.0105012 -0.00525061 -0.0105012 -0.00525061 -0.010498 -0.00525061 -0.0105012 0 0 0.00525061 0.00525061 0.00525061 0.0105012 0.00525061 0.0105012 0.00525061 0.00524742 0.00524742 0.0105012 0.0052538 0.0105012 0 0 0.19426 0.00525061 0 0 -0.14176 0.50403 0.509283 0.210012 0c-0.0283086,-0.042273 -0.134183,-0.136797 -0.177206,-0.179817 -0.0606006,-0.0606006 -0.119685,-0.118092 -0.179903,-0.177119 -0.0422283,-0.041392 -0.349323,-0.334031 -0.351682,-0.362356l-0.0105012 0.010498z"/>
    <path id="_80259456" class="fil2" d="M3.07143 2.01612l0.00524742 0.00525061 0.00525061 0.0052538 0.0052538 0.00524742 0.00524742 0 0.362273 -0.00538467 -0.223561 -0.233114c0.0226718,-0.016154 0.0761673,-0.081619 0.0607985,-0.108022 -0.028714,0.0249603 -0.151776,0.0260711 -0.204333,0.0319314 -0.0688324,0.00767323 -0.163187,0.0340124 -0.163187,-0.04768 0,-0.0129972 0.0561608,-0.0147432 0.0682547,-0.0157518l0.0102363 -0.006039 -0.014574 -0.0227931 -0.056065 -0.0468661 0.123407 -0.00830522 -0.567034 0 0.152258 0.00553149 0.430527 0.440741z"/>
    <path id="_116873272" class="fil12" d="M2.04762 2.00561l-0.0157518 0.0052538 -0.010498 0.00524742 -0.0105012 0.00525061 -0.00525061 0.0052538 -0.00525061 0.00524742 -0.00524742 0.00525061 -0.0052538 0.00525061 -0.00524742 0.00525061 -0.00525061 0.0105012 0 0.0315005 0.00525061 0.0157518 0.00524742 0.010498 0.0052538 0.0105044 0.00524742 0.00524742 0.00525061 0.0105044 0.00525061 0.00524742 0.00525061 0.00525061 0.00525061 0.00525061 0.00525061 0.00525061 0.00524742 0.00525061 0.0052538 0.00524742 0.00524742 0.00525061 0.00525061 0.0052538 0.00525061 0.00524742 0.00525061 0.00525061 0.00525061 0.00525061 0.0105012 0.00525061 0.00525061 0.00525061 0.00525061 0.00525061 0.00524742 0.00525061 0.0052538 0.00525061 0.010498 0.00524742 0.00525061 0.00525061 0.00525061 0.0052538 0.0105012 0.00524742 0.00525061 0.00525061 0.0105012 0.00525061 0.00524742 0.00525061 0.0105012 0.00525061 0.00525061 0.00525061 0.0105012 0.00525061 0.00525061 0.00525061 0.0105012 0.00524742 0.00525061 0.00525061 0.010498 0.0052538 0.0105012 0.00524742 0.0105012 0.00525061 0.0105012 0.00525061 0.00525061 0.00525061 0.0105012 0.00525061 0.010498 0.00524742 0.0105012 0.0052538 0.0105012 0.00525061 0.0157518 0.00524742 0.0105012 0.00525061 0.010498 0.0052538 0.0157518 0.00524742 0.0157518 0.00525061 0.010498 0.00525061 0.0210056 0.00525061 0.0157486 0.00525061 0.0209992 0.00524742 0.026253 0 0.0554713 0.000494738 -0.0134696 -0.0739969c0,-0.0622891 0.00747852,-0.0923277 0.0367543,-0.126008l0.0637638 -0.0676546 0.00546765 0.0042739 -0.00623051 -0.015372 0 -0.00525061 -0.0105012 -0.00525061 -0.0157486 -0.00525061 -0.0157518 -0.00525061 -0.0157518 -0.00524742 -0.0209992 -0.0052538 -0.0210024 -0.00525061 -0.0262498 -0.00524742 0 -0.0052538 0 -0.00524742 -0.0105012 0 -0.000143634 0.0112417 -0.0156082 -0.00599431 -0.0262498 -0.00524742 -0.0262498 -0.00525061 -0.0210056 -0.00525061 -0.0209992 -0.00525061 -0.026253 -0.00525061 -0.0209992 -0.00525061 -0.0210024 -0.00524742 -0.0157518 -0.0052538 -0.0209992 -0.00525061 -0.0210024 -0.00524742 -0.0209992 -0.0052538 -0.0210024 -0.00524742 -0.105006 0 -0.0210024 0.00524742z"/>
    <path id="_116871160" class="fil1" d="M3.70671 2.16838l0 -0.00525061 -0.00525061 -0.00525061 -0.010498 -0.00525061 -0.0052538 -0.00525061 -0.00525061 -0.00524742 -0.00524742 -0.0052538 -0.00525061 -0.00525061 -0.0105012 -0.00524742 -0.00525061 -0.0052538 -0.0105012 -0.00525061 -0.00525061 -0.00524742 -0.0105012 -0.00525061 -0.010498 -0.00525061 -0.0105044 -0.00525061 -0.0157486 -0.00525061 -0.0105012 -0.00524742 -0.0209992 -0.0052538 -0.0262498 -0.00525061 -0.47778 0c0.0334986,0.0212578 0.053636,-0.0165977 0.11415,0.0433614 0.0238687,0.0236517 0.0571853,0.0491642 0.0839714,0.073534 0.0442551,0.0402589 0.128444,0.11468 0.174649,0.145622 0.0238591,-0.0497292 0.00760939,-0.0781686 0.0682547,-0.110256 -0.00493142,0.0211588 -0.0157518,0.0262339 -0.0157518,0.0472523l0 0.105006c0.0322569,-0.00861483 0.0690527,-0.0775079 0.0882389,-0.106021 0.0134792,-0.0200385 0.0763397,-0.101638 0.0803072,-0.117042l0.0572173 0.0130515z"/>
    <path id="_116870296" class="fil7" d="M3.71196 2.36789c0.00988838,0.0206098 -0.000440476,0.0945045 0.0315005,0.0945045 0.0283948,0 0.0315036,-0.0709837 0.0315036,-0.105003 -0.0013725,-0.0616029 -0.0263488,-0.17326 -0.0840033,-0.17326 -0.0120269,0 -0.00610922,0.00177787 -0.0235846,0.00597835l0.0445839 0.17778z"/>
    <path id="_116871472" class="fil6" d="M2.67765 2.07912l-0.0209992 0.0052538 -0.0157518 0.00524742 -0.0157518 0.00525061 0 0.00525061c0.00131185,0.000437285 0.0844279,0.0752928 0.0987753,0.0902338 0.0269521,0.0280724 0.0788964,0.0587749 0.112676,0.0868377 0.034654,0.0287842 0.0762918,0.0612039 0.107463,0.0920436 0.0185096,0.0183117 0.0879868,0.0975751 0.0993849,0.105379 0.0779931,0.0534253 0.144262,0.129602 0.219118,0.185157 0.0307408,0.0228154 0.2035,0.184052 0.218381,0.175389 -0.0323144,-0.0610666 -0.0315036,-0.117856 -0.0315036,-0.210012l-0.0157486 -0.267762c0.0558767,0.0642808 0.0630041,0.140426 0.0630041,0.257264l0.0210024 0c0.0259594,0 0.0229654,-0.0387715 0.0496238,-0.0422283l0.00287906 -0.031277 0.0125791 -0.00213855 0.0398823 -0.0591802 0.00528891 0.00356531 0 -0.0157518c0,-0.0158731 0.00617944,-0.0145166 0.0210024,-0.0157518l0 -0.0209992c0.0240443,0.00940002 0.0384587,-0.054118 0.0630041,-0.0630041l-0.0445839 -0.17778c0.0174754,-0.00420049 0.0115577,-0.00597835 0.0235846,-0.00597835 0.0576545,0 0.0826308,0.111658 0.0840033,0.17326l0.00994902 1.59593e-005 0.0058028 0.0524837 0.00524742 -0.010498 0 -0.0420017 -0.00524742 -0.0577535 -0.00525061 -0.0210024 -0.0052538 -0.0210024 -0.00524742 -0.0157486 -0.00525061 -0.0157518 -0.00525061 -0.00525061 -0.00525061 -0.0105012 -0.00525061 -0.00525061 -0.00524742 -0.0105012 -0.0052538 -0.00525061 -0.00525061 -0.00524742 -0.00524742 -0.0052538 -0.0105044 -0.00525061 -0.00524742 -0.00524742 -0.0105012 0 -0.0572173 -0.0130515c-0.00396748,0.0154039 -0.0668279,0.0970038 -0.0803072,0.117042 -0.0191863,0.0285129 -0.055982,0.0974059 -0.0882389,0.106021l0 -0.105006c0,-0.0210184 0.0108204,-0.0260934 0.0157518,-0.0472523 -0.0606453,0.0320878 -0.0443956,0.0605272 -0.0682547,0.110256 -0.0462053,-0.0309419 -0.130394,-0.105363 -0.174649,-0.145622 -0.0267861,-0.0243698 -0.0601027,-0.0498824 -0.0839714,-0.073534 -0.0605144,-0.0599591 -0.0806519,-0.0221036 -0.11415,-0.0433614l-0.351772 0 -0.0262498 0.00525061z"/>
    <path id="_116870440" class="fil4" d="M3.44944 2.62515l0.0067029 0.0113981 0.00787751 -0.010964 0.0169232 0.0520688c0.0269489,0.0142612 0.0209673,0.0265754 0.0266871,0.0625668 0.00523146,0.0328889 0.0196618,0.040393 0.0296715,0.0662726l0.237659 -0.317848 0 0.0367511 0.00524742 0 0.0052538 -0.0262498 0.00525061 -0.0367543 0 -0.0525029 -0.0058028 -0.0524837 -0.00994902 -1.59593e-005c0,0.0340188 -0.00310887,0.105003 -0.0315036,0.105003 -0.0319409,0 -0.0216121,-0.0738947 -0.0315005,-0.0945045 -0.0245454,0.00888613 -0.0389598,0.0724041 -0.0630041,0.0630041l0 0.0209992c-0.014823,0.00123525 -0.0210024,-0.000121291 -0.0210024,0.0157518l0 0.0157518 -0.00528891 -0.00356531 -0.0398823 0.0591802 -0.0125791 0.00213855 -0.00287906 0.031277c-0.0266584,0.00345678 -0.0236644,0.0422283 -0.0496238,0.0422283l-0.0210024 0c0,-0.116838 -0.00712742,-0.192983 -0.0630041,-0.257264l0.0157486 0.267762z"/>
    <path id="_116872720" class="fil2" d="M3.44944 2.62515c0,0.0921553 -0.000810732,0.148945 0.0315036,0.210012l0.0367543 0.0367543 0.00524742 0 0.00525061 -0.00525061 0.0052538 -0.00525061 0.00524742 -0.0105012 0.00525061 -0.00524742 0.00524742 -0.0105044 0.0052538 0 0.00525061 0.00525061 0.00524742 0.0052538 0.0105044 0.00524742 0.010498 0.00525061 0.0157518 0.00525061 0.0105012 0 0.010498 -0.00525061 0.0105044 -0.00525061 0.00524742 -0.00524742 0.0105012 -0.0052538 0.00525061 -0.00525061 0.00525061 -0.00524742 0.00524742 -0.00525061 0.0052538 -0.0105012 0.00525061 -0.00525061 0.00524742 -0.00525061 0.00525061 -0.0105012 0.0052538 -0.0105012 0.00524742 -0.010498 0.00525061 -0.00525061 0.00525061 -0.0105012 0.00525061 -0.0157518 0.00525061 -0.010498 0.00524742 -0.0105044 0.0052538 -0.010498 0.00525061 -0.0157518 0.00524742 -0.0157518 0.00525061 -0.010498 0.0052538 -0.0157518 0.00524742 -0.0209992 0.00525061 -0.0157518 0.00525061 -0.0157518 0.00525061 -0.0210024 0.00525061 -0.0209992 0 -0.0315036 0 -0.0367511 -0.237659 0.317848c-0.0100097,-0.0258796 -0.0244401,-0.0333836 -0.0296715,-0.0662726 -0.00571981,-0.0359914 0.000261732,-0.0483056 -0.0266871,-0.0625668l-0.0169232 -0.0520688 -0.00787751 0.010964 -0.0067029 -0.0113981z"/>
    <path id="_116871256" class="fil4" d="M2.60415 2.10537l-0.0157518 0.00525061 0.00623051 0.015372 -0.00546765 -0.0042739 -0.0637638 0.0676546 0.0207598 0.0410824 0.0212418 -0.00432816c0.019365,0.0365947 0.112267,0.10913 0.148948,0.139813 0.0284618,0.0238113 0.0509261,0.0428954 0.080138,0.0668758 0.0156688,0.0128632 0.0261732,0.020064 0.0432401,0.030262 0.0102586,0.00613156 0.024772,0.0255125 0.0374405,0.0360648 0.0335241,0.0279224 0.306348,0.265451 0.315017,0.267765 -0.00869781,0.0210567 0.10919,0.0675206 0.11026,0.115507l-0.0105044 0 0 0.010498c0.0662821,0.0176989 0.0713763,0.0567512 0.121907,0.0685547l-0.00639968 0.0207024 0.0105044 0 0.00524742 -0.0052538 0.0105012 -0.00524742 0.00525061 -0.00525061 0.00525061 -0.00524742 0.00524742 -0.0052538 0.0052538 -0.00525061 0.00525061 -0.00524742 0.00524742 -0.00525061 0.00525061 -0.0052538 0.0052538 -0.00524742 0.00524742 -0.00525061 0.00525061 -0.0052538 0.00524742 -0.00524742 0.0052538 -0.010498 0.00525061 -0.0052538 0.00524742 -0.00525061 0.0052538 -0.00524742 0.00525061 -0.00525061 0 -0.0105012 -0.0367543 -0.0367543c-0.0148804,0.0086627 -0.18764,-0.152574 -0.218381,-0.175389 -0.0748555,-0.0555543 -0.141125,-0.131731 -0.219118,-0.185157 -0.0113981,-0.00780409 -0.0808753,-0.0870675 -0.0993849,-0.105379 -0.0311717,-0.0308397 -0.0728095,-0.0632594 -0.107463,-0.0920436 -0.0337794,-0.0280628 -0.0857237,-0.0587653 -0.112676,-0.0868377 -0.0143474,-0.0149411 -0.0974634,-0.0897966 -0.0987753,-0.0902338l-0.0105012 0 -0.0105012 0.00525061z"/>
    <path id="_116877928" class="fil2" d="M2.48864 2.31538l0.015905 -0.000146825 0.0725382 0.0745842 -0.00443668 0.00431539c0.0396588,0.000884145 0.245269,0.191409 0.282323,0.226957 0.0279447,0.0268148 0.263762,0.23088 0.28022,0.235703l-0.0112609 0.0151198c0.0344721,0.0142389 0.119746,0.0739075 0.141757,0.115507 0.0361925,-0.00766684 0.01835,0.0170733 0.0586504,0.0277021l-0.0113981 0.00904892 0.0157518 0 0.0157518 -0.00525061 0.010498 -0.00525061 0.0157518 -0.00525061 0.0105012 -0.00524742 0.010498 -0.00525061 0.0105044 -0.0052538 0.00524742 -0.00524742 0 -0.00525061 0.00639968 -0.0207024c-0.0505303,-0.0118035 -0.0556245,-0.0508559 -0.121907,-0.0685547l0 -0.010498 0.0105044 0c-0.00106927,-0.0479864 -0.118957,-0.0944503 -0.11026,-0.115507 -0.00866909,-0.0023141 -0.281493,-0.239843 -0.315017,-0.267765 -0.0126685,-0.0105523 -0.0271819,-0.0299332 -0.0374405,-0.0360648 -0.0170669,-0.010198 -0.0275713,-0.0173988 -0.0432401,-0.030262 -0.0292119,-0.0239804 -0.0516762,-0.0430646 -0.080138,-0.0668758 -0.0366808,-0.0306833 -0.129583,-0.103218 -0.148948,-0.139813l-0.0212418 0.00432816 -0.0207598 -0.0410824c-0.0292757,0.0336805 -0.0367543,0.0637191 -0.0367543,0.126008z"/>
    <polygon id="_78011528" class="fil0" points="2.5674,2.57265 2.5674,2.5884 2.57265,2.5989 2.57789,2.61465 2.58315,2.6304 2.5884,2.6409 2.59365,2.65665 2.5989,2.66716 2.60415,2.6829 2.6094,2.69341 2.61465,2.7039 2.6199,2.71441 2.62515,2.72491 2.6304,2.73541 2.63565,2.74591 2.6409,2.75641 2.64615,2.76691 2.6514,2.77741 2.65665,2.78791 2.6619,2.79841 2.66715,2.80366 2.6724,2.81416 2.67765,2.81941 2.6829,2.82991 2.68815,2.83516 2.6934,2.84567 2.69866,2.85091 2.7039,2.86141 2.70915,2.86667 2.71441,2.87716 2.71965,2.88242 2.72491,2.88767 2.73016,2.89292 2.73541,2.90342 2.74066,2.90867 2.7459,2.91392 2.75116,2.91917 2.75641,2.92442 2.76166,2.92967 2.76691,2.93492 2.77216,2.94017 2.77741,2.94542 2.78266,2.95067 2.78791,2.95592 2.79316,2.96117 2.79841,2.96642 2.80366,2.97167 2.81416,2.97692 2.81941,2.98217 2.82991,2.98742 2.83516,2.99267 2.84566,2.99792 2.85616,3.00318 2.86666,3.00842 2.88241,3.01367 2.89292,3.01892 2.90867,3.02417 2.92442,3.02942 2.94542,3.03467 2.96642,3.03993 2.99267,3.04518 3.03467,3.04518 3.14155,3.03773 2.67695,2.64081 2.60293,2.57883 2.5674,2.55165 "/>
    <path id="_118994536" class="fil2" d="M2.44664 2.38889l0 0.00525061 0.0420017 0.0052538 0.0157518 0.00524742 0.00525061 0.0157518 0.00525061 0.0157518 0.00525061 0.0157486 0.00525061 0.0157518 0.00524742 0.0157518 0.00525061 0.0157518 0.0052538 0.0157518 0.00524742 0.0157486 0.00525061 0.0157486 0.00525061 0.0105044 0.00525061 0.0157518 0.00525061 0 0 -0.0210024 0.0355318 0.0271787 0.0740192 0.0619827 0.464601 0.396924 -0.106876 0.00744341 0.204764 0 0.0315005 -0.00525061 0.0209992 -0.0052538 0.0210024 -0.00524742 0 -0.00525061 0.0113981 -0.00904892c-0.0403004,-0.0106289 -0.0224579,-0.035369 -0.0586504,-0.0277021 -0.0220111,-0.0415995 -0.107285,-0.101268 -0.141757,-0.115507l0.0112609 -0.0151198c-0.0164572,-0.0048229 -0.252275,-0.208888 -0.28022,-0.235703 -0.0370543,-0.0355477 -0.242664,-0.226073 -0.282323,-0.226957l0.00443668 -0.00431539 -0.0725382 -0.0745842 -0.015905 0.000146825 0.0134696 0.0739969 -0.0554713 -0.000494738z"/>
   </g>
   <ellipse id="_116870248" class="fil13 str0" cx="0.814259" cy="0.611116" rx="0.0476225" ry="0.0416027"/>
   <ellipse id="_78011408" class="fil13 str0" cx="1.41709" cy="0.636195" rx="0.0578365" ry="0.0685388"/>
  </g>
 </g>
</svg>
