<?xml version="1.0" encoding="UTF-8"?>
<!DOCTYPE svg PUBLIC "-//W3C//DTD SVG 1.1//EN" "http://www.w3.org/Graphics/SVG/1.1/DTD/svg11.dtd">
<!-- Creator: CorelDRAW -->
<svg xmlns="http://www.w3.org/2000/svg" xml:space="preserve" width="6.62943in" height="5.6342in" style="shape-rendering:geometricPrecision; text-rendering:geometricPrecision; image-rendering:optimizeQuality; fill-rule:evenodd; clip-rule:evenodd"
viewBox="0 0 6.29116 5.34672"
 xmlns:xlink="http://www.w3.org/1999/xlink">
 <defs>
  <style type="text/css">
   <![CDATA[
    .str1 {stroke:#007CC3;stroke-width:0.00284692}
    .str0 {stroke:white;stroke-width:0.00284692}
    .str2 {stroke:#1F1A17;stroke-width:0.00659052}
    .str3 {stroke:white;stroke-width:0.013181}
    .fil11 {fill:#007CC3}
    .fil10 {fill:white}
    .fil3 {fill:#293F7F}
    .fil4 {fill:#6CA6EE}
    .fil0 {fill:#737272}
    .fil1 {fill:#89BBEF}
    .fil7 {fill:#C9E6FD}
    .fil9 {fill:#D8D5D5}
    .fil5 {fill:#E5BDAB}
    .fil6 {fill:#ECCE0D}
    .fil2 {fill:#F26699}
    .fil8 {fill:#FDFFFE}
   ]]>
  </style>
 </defs>
 <g id="Layer_x0020_1">
  <metadata id="CorelCorpID_0Corel-Layer"/>
  <g id="_80259792">
   <g>
    <path id="_117732816" class="fil0" d="M2.19332 0.00780849l-0.0390275 0.00780476 -0.023418 0.00780102 -0.0234143 0.00780849 -0.0156095 0.00780476 -0.0312228 0.00780849 -0.00780476 0.00780476 -0.0156133 0.00780476 -0.00780102 0.00780849 -0.00780476 0.00780476 -0.00780849 0.00780102 -0.00780476 0.00780849 -0.00780476 0.00780476 -0.0156095 0.00780476 -0.00780476 0.00780849 -0.00780849 0.00780476 -0.00780476 0.00780102 -0.00780476 0.00780849 -0.00780849 0.0156095 -0.00780476 0.00780849 -0.00780102 0.00780476 -0.00780849 0.00780102 -0.00780476 0.00780849 -0.00780476 0.00780476 -0.00780849 0.00780476 -0.00780476 0.0156133 -0.00780102 0.00780102 -0.00780849 0.0312265 -0.00780476 0.0234143 -0.00780476 0.0312228 -0.00780849 0.031219 -0.00780476 0.0936646 0 0.124891 0.00780476 0.390268 0.13227 -0.0146867 0.0316449 0.00688194 0 -0.320073 2.25577 0.00785706 0.00780849 1.13178 0.124887 0c0.0210829,0 0.0215201,-0.00372491 0.0390275,-0.00780102l0 -1.27229 0 -0.117079 -0.00780849 -0.0390238 -0.00780476 -0.0312265 -0.00780476 -0.023418 -0.00780849 -0.0156058 -0.00780102 -0.0156133 -0.00780476 -0.0156133 -0.00780849 -0.0156058 -0.00780476 -0.0156133 -0.00780476 -0.00780476 -0.00780849 -0.0156095 -0.00780102 -0.00780476 -0.00780476 -0.00780849 -0.00780849 -0.00780476 -0.00780476 -0.00780476 -0.00780476 -0.00780849 -0.00780849 -0.00780102 -0.00780476 -0.00780476 -0.00780102 -0.00780849 -0.00780849 -0.00780476 -0.00780476 -0.00780476 -0.0156133 -0.00780849 -0.00780476 -0.00780102 -0.0156095 -0.00780476 -0.00780476 -0.00780849 -0.0156133 -0.00780476 -0.0156058 -0.00780476 -0.0156133 -0.00780849 -0.0156133 -0.00780476 -0.0234143 -0.00780849 -0.023418 -0.00780102 -0.031219 -0.00780476 -1.02251 -0.00780849 -0.117079 0 -0.764933 0.00780849z"/>
    <polygon id="_59578400" class="fil1" points="1.81866,0.5698 1.81086,0.577601 1.79524,0.585409 1.78744,0.593214 1.77183,0.601019 1.76402,0.608827 1.74841,0.616632 1.74061,0.624433 1.725,0.632241 1.71719,0.640046 1.70158,0.647851 1.69377,0.655659 1.67816,0.663464 1.67036,0.671265 1.65475,0.679074 1.64694,0.686878 1.63133,0.694683 1.62352,0.702492 1.61572,0.710296 1.60011,0.718097 1.5923,0.725906 1.5845,0.733711 1.57669,0.741515 1.56108,0.749324 1.55327,0.757129 1.54547,0.76493 1.53767,0.772738 1.52205,0.780543 1.51425,0.788348 1.50644,0.796156 1.49864,0.803961 1.49084,0.811766 1.48303,0.819574 1.46742,0.827375 1.45961,0.83518 1.4518,0.842988 1.444,0.850793 1.43619,0.858598 1.42839,0.866406 1.42059,0.874208 1.41278,0.882012 1.40497,0.889821 1.39717,0.897626 1.38936,0.90543 1.38156,0.913239 1.37375,0.92104 1.36594,0.928845 1.35814,0.936653 1.35034,0.944458 0.858594,0.944458 0.686875,0.944458 0.686875,0.952263 0.850786,0.960071 0.999117,0.962003 1.84988,0.952263 1.84208,0.561995 1.83427,0.561995 "/>
    <path id="_78011408" class="fil2" d="M1.84988 0.952263l-0.850763 0.00974007 -0.148331 -0.00193157 -0.163911 -0.00780849 -0.0312228 -0.00780476 -0.101473 0 -0.00780102 0 -0.179528 0 -0.00780476 0 -0.124884 0 -0.0936646 0.00780476 -0.023418 0.00780849 -0.0156095 0.00780102 -0.00780476 0.00780476 -0.0156133 0.00780849 -0.00780476 0.00780476 -0.00780849 0.00780476 -0.00780102 0.00780849 -0.00780476 0.00780102 -0.00780849 0.00780849 -0.00780476 0.00780476 -0.00780476 0.0156133 -0.00780849 0.0156095 -0.00780476 0.0234143 -0.00780102 0.0312265 0 0.45271 0.00780102 0.0390313 0.00780476 0.0234143 0.00780849 0.0156095 0.00780476 0.00780849 0.00780476 0.0156058 0.00780849 0.00780849 0.00780476 0.00780476 0.00780102 0.00780476 0.00780849 0.00780849 0.00780476 0.00780102 0.0156133 0.00780476 0.00780476 0.00780849 0.0234143 0.00780476 0.0156133 0.00780476 0.561987 0 1.13959 0 0.17172 0c0.190617,0 0.409673,0.0335392 0.493396,-0.0763999 0.066828,-0.0877503 0.0373724,-0.388108 0.0355492,-0.542048l0.167561 -0.168081 -0.00181575 -0.00897416 -0.694691 -0.000650085 -0.0316449 -0.00688194 -0.13227 0.0146867z"/>
    <path id="_117736176" class="fil3" d="M2.77873 1.30351l0.0159196 -0.00876494 0.0309127 0.00876494c0.00811859,-0.0153368 0.0156133,-0.023022 0.0156133,-0.0468323l0 -0.0624455c0.0191962,0.00447214 0.049612,0.0191439 0.0707733,0.0186918l0.100946 -0.0186918 0 0.0468323c0,0.0282974 0.00655316,0.0435706 0.0156095,0.0624455 0.00915723,-0.00242848 0.0212772,-0.00780849 0.023418,-0.00780849 0.0178811,0 0.00907504,0.00264517 0.031219,0.00780849 0,-0.0930855 -0.0508411,-0.179528 -0.132688,-0.179528l-0.0468323 0c-0.0886955,0 -0.124891,0.0833192 -0.124891,0.179528z"/>
    <path id="_116867872" class="fil4" d="M2.75531 1.5767c0.0114026,-0.0489432 0.0625128,-0.0969299 0.117079,-0.101469l0.00780849 -0.0156133c-0.0251441,-0.0133006 -0.117079,-0.104425 -0.117079,-0.124884 0,-0.0174776 0.00895175,-0.0235637 0.0156058,-0.031219 0,-0.0962089 0.0361955,-0.179528 0.124891,-0.179528l0.0468323 0c0.0818472,0 0.132688,0.0864426 0.132688,0.179528l0.00780849 0.054637c-0.0270346,0.0143019 -0.101738,0.0888599 -0.109278,0.117079 0.0578763,0.00481586 0.10488,0.0491076 0.117083,0.101469 0.0755593,-0.0505946 0.140497,-0.139731 0.140497,-0.26538 0,-0.145167 -0.141543,-0.296611 -0.288798,-0.296611l-0.0624455 0c-0.119593,0 -0.265388,0.145795 -0.265388,0.265388l0 0.078055c0,0.0886993 0.0780065,0.18193 0.132696,0.218548z"/>
    <path id="_116867968" class="fil5" d="M2.77873 1.30351c-0.00665403,0.00765531 -0.0156058,0.0137415 -0.0156058,0.031219 0,0.020459 0.0919347,0.111583 0.117079,0.124884l-0.00780849 0.0156133c0.0211464,0.0333225 -0.000881725,0.0858635 0.0546445,0.0858635 0.0184079,0 0.0347272,-0.0153144 0.0459319,-0.0234628l0.00870143 -0.0624007c0.00753949,-0.0282189 0.0822432,-0.102777 0.109278,-0.117079l-0.00780849 -0.054637c-0.022144,-0.00516332 -0.013338,-0.00780849 -0.031219,-0.00780849 -0.0021408,0 -0.0142608,0.00538001 -0.023418,0.00780849 -0.00905636,-0.0188749 -0.0156095,-0.0341481 -0.0156095,-0.0624455l0 -0.0468323 -0.100946 0.0186918c-0.0211614,0.000452071 -0.0515772,-0.0142197 -0.0707733,-0.0186918l0 0.0624455c0,0.0238103 -0.00749466,0.0314955 -0.0156133,0.0468323l-0.0309127 -0.00876494 -0.0159196 0.00876494z"/>
    <polygon id="_117736008" class="fil1" points="4.44128,1.75622 4.44128,1.77183 6.11945,1.77183 6.11945,1.76402 5.48721,1.76402 5.48721,1.74061 5.4794,1.725 5.4716,1.70159 5.46379,1.68597 5.45598,1.67036 5.44818,1.65475 5.44038,1.63914 5.43257,1.62353 5.42477,1.60792 5.41696,1.59231 5.40915,1.5767 5.40135,1.56109 5.39355,1.54548 5.38574,1.52986 5.37793,1.52206 5.37013,1.50645 5.36232,1.49084 5.35452,1.47523 5.34671,1.45961 5.33891,1.45181 5.3311,1.4362 5.3233,1.42059 5.31549,1.41278 5.30768,1.39717 5.29988,1.38937 5.29207,1.37376 5.28427,1.36595 5.27646,1.35034 5.26866,1.34253 5.26085,1.32692 5.25305,1.31912 5.24524,1.30351 5.23744,1.2957 5.22963,1.28009 5.22182,1.27228 5.21402,1.25668 5.20621,1.24887 5.19841,1.24106 5.1906,1.22545 5.1828,1.21765 5.17499,1.20985 5.16719,1.19423 5.15938,1.18643 5.15157,1.17862 5.14377,1.17081 5.13597,1.1552 5.12816,1.1474 5.12035,1.1396 5.11255,1.13179 5.10474,1.11618 5.09694,1.10837 5.08913,1.10057 5.08133,1.09276 5.07352,1.08495 5.06572,1.07715 5.05791,1.06935 5.0501,1.0147 5.0423,1.0069 5.03449,0.999095 5.02669,0.99129 5.01888,0.983485 5.00327,0.975677 4.99547,0.967872 4.98766,0.960071 4.97205,0.952263 4.96424,0.944458 4.94083,0.936653 4.92522,0.928845 4.91741,0.92104 4.90961,0.913239 4.90181,0.90543 4.894,0.897626 4.88619,0.889821 4.87839,0.882012 4.87058,0.874208 4.86277,0.866406 4.85497,0.858598 4.84717,0.850793 4.83936,0.842988 4.82375,0.83518 4.81594,0.827375 4.80814,0.819574 4.80033,0.811766 4.79253,0.803961 4.78472,0.796156 4.76911,0.788348 4.76131,0.780543 4.7535,0.772738 4.7457,0.76493 4.73008,0.757129 4.72228,0.749324 4.71447,0.741515 4.70666,0.733711 4.69106,0.725906 4.68325,0.718097 4.67545,0.710296 4.65983,0.702492 4.65203,0.694683 4.64423,0.686878 4.62861,0.679074 4.62081,0.671265 4.613,0.663464 4.59739,0.655659 4.58959,0.647851 4.57397,0.640046 4.56617,0.632241 4.55055,0.624433 4.54275,0.616632 4.52714,0.608827 4.51153,0.601019 4.50372,0.593214 4.48812,0.585409 4.4725,0.577601 4.4647,0.5698 4.44909,0.5698 4.44909,0.483936 4.44128,0.483936 "/>
    <path id="_116868064" class="fil6" d="M2.75531 1.5767c0.0387062,0.0259212 0.0999226,0.0546408 0.163915,0.0546408l0.0156095 0c0.0639885,0 0.125209,-0.0287196 0.163915,-0.0546408 -0.0122022,-0.0523617 -0.0592063,-0.0966535 -0.117083,-0.101469l-0.00870143 0.0624007c-0.0112046,0.00814848 -0.027524,0.0234628 -0.0459319,0.0234628 -0.0555262,0 -0.0334981,-0.0525411 -0.0546445,-0.0858635 -0.054566,0.00453939 -0.105676,0.0525261 -0.117079,0.101469z"/>
    <path id="_116868160" class="fil1" d="M3.25694 1.9901c-0.0539944,0.00144214 -0.0645303,0.0176756 -0.0645303,0.0705342l-0.0858598 0c-0.0263023,0 -0.054637,0.0137975 -0.054637,0.0390313l0 0.0702465 -0.023418 0c-0.0182696,0 -0.031219,0.0129531 -0.031219,0.031219l-0.000156917 0.039984 0.054794 0.00685205 0 0.0702465c0,0.0182734 0.0129531,0.0312265 0.031219,0.0312265l0.0858635 0 0 0.0390238 0.187329 0 0 -0.0312228 0.0624455 0c0.0210792,0 0.0215201,-0.00372865 0.0390238,-0.00780102 0.00407611,-0.0175075 0.00780849,-0.0179521 0.00780849,-0.0390313l0 -0.0624418 0.031219 0c0.0182734,0 0.031219,-0.0129494 0.031219,-0.0312228l0 -0.0156133c0,-0.0182659 -0.0129457,-0.031219 -0.031219,-0.031219l-0.031219 0 0 -0.0780513c0,-0.0239971 -0.0228688,-0.0312265 -0.0468323,-0.0312265l-0.0858635 0 0 -0.0234143c0,-0.0282002 -0.0310397,-0.0461336 -0.0645228,-0.04712l0.00988578 -0.0699626 -0.0309276 -4.10973e-005 0.0095981 0.0700037z"/>
    <path id="_117736392" class="fil7" d="M3.19241 2.06063c0,-0.0528586 0.0105359,-0.0690921 0.0645303,-0.0705342l-0.0095981 -0.0700037 0.0309276 4.10973e-005 -0.00988578 0.0699626c0.0334831,0.000986336 0.0645228,0.0189197 0.0645228,0.04712l0 0.0234143 0.0858635 0c0.0239635,0 0.0468323,0.00722939 0.0468323,0.0312265l0 0.0780513 0.031219 0c0.0182734,0 0.031219,0.0129531 0.031219,0.031219l0 0.0156133c0,0.0182734 -0.0129457,0.0312228 -0.031219,0.0312228l-0.031219 0 0 0.0624418c0,0.0210792 -0.00373238,0.0215238 -0.00780849,0.0390313 -0.0175037,0.00407237 -0.0179446,0.00780102 -0.0390238,0.00780102l-0.0624455 0 0 0.0312228 -0.187329 0 0 -0.0390238 -0.0858635 0c-0.0182659,0 -0.031219,-0.0129531 -0.031219,-0.0312265l0 -0.0702465 -0.054794 -0.00685205 0.000156917 -0.039984c0,-0.0182659 0.0129494,-0.031219 0.031219,-0.031219l0.023418 0 0 -0.0702465c0,-0.0252338 0.0283347,-0.0390313 0.054637,-0.0390313l0.0858598 0zm-0.257579 0.0546408l0 0.117083c0,0.11622 0.158643,0.265384 0.288798,0.265384l0.0702503 0c0.153465,0 0.296607,-0.162753 0.296607,-0.320025 0,-0.175422 -0.149934,-0.335631 -0.320025,-0.335631 -0.159241,0 -0.335631,0.133533 -0.335631,0.273189z"/>
    <path id="_116868256" class="fil6" d="M4.92522 2.53677l0 0.054637c0,0.0622587 0.0789069,0.132692 0.148302,0.132692l0.023418 0c0.0771135,0 0.148298,-0.0711881 0.148298,-0.148305l0 -0.023418c0,-0.0712254 -0.0678405,-0.148302 -0.132688,-0.148302l-0.0546408 0c-0.0572112,0 -0.132688,0.0754771 -0.132688,0.132696z"/>
    <polygon id="_116868328" class="fil1" points="0.788348,1.77183 0.780539,1.78744 0.772734,1.80306 0.76493,1.82647 0.757121,1.84989 0.74932,1.8655 0.741515,1.88892 0.733707,1.91233 0.725902,1.93575 0.718097,1.95916 0.710289,1.98258 0.702484,2.006 0.694676,2.02941 0.686875,2.06063 0.67907,2.09186 0.671261,2.11527 0.663457,2.1543 0.655652,2.18552 0.647843,2.22455 0.640042,2.25577 0.632238,2.30261 0.624429,2.34944 0.616624,2.39627 0.60882,2.45871 0.601011,2.53677 0.601011,2.75531 0.499546,2.75531 0.499546,2.76312 1.84091,2.76273 1.84988,2.74751 1.84208,1.74061 0.702484,1.74061 0.702484,1.74842 0.797251,1.74863 "/>
    <path id="_117736152" class="fil0" d="M1.84988 2.74751l0 0.0156058 0.132696 0c0.0218899,0 0.0190131,-0.00937019 0.031219,-0.0234143l0 -0.999095 -0.17172 0 0.00780476 1.0069z"/>
    <path id="_116868400" class="fil7" d="M4.92522 2.53677c0,-0.0572187 0.0754771,-0.132696 0.132688,-0.132696l0.0546408 0c0.0648479,0 0.132688,0.0770762 0.132688,0.148302l0 0.023418c0,0.0771173 -0.0711843,0.148305 -0.148298,0.148305l-0.023418 0c-0.0693947,0 -0.148302,-0.0704334 -0.148302,-0.132692l0 -0.054637zm-0.655659 1.96696l0.171723 0.00780849 0.538573 0 1.1474 0 0.0312228 -0.00780849 0.023418 -0.00780476 0.0156058 -0.00780476 0.00780849 -0.00780849 0.00780476 -0.00780102 0.0156133 -0.00780476 0.00780102 -0.00780849 0.00780476 -0.00780476 0.00780849 -0.0156133 0.00780476 -0.00780102 0.00780476 -0.00780476 0.00780849 -0.0156133 0.00780476 -0.031219 0.00780102 -0.124891 0 -0.359049 -0.00780102 -0.117079 -0.00780476 -0.0312265 -0.00780849 -0.0234143 -0.00780476 -0.0156095 -0.0156133 -0.00780849 -0.00780476 -0.00780102 -0.00780102 -0.00780476 -0.00780849 -0.00780849 -0.00780476 -0.00780476 -0.00780476 -0.00780476 -0.00780849 -0.00780849 -0.00780476 -0.00780476 -0.0156095 -0.00780102 -0.0468323 -0.00780849 -0.569796 -0.00780476 -0.00780849 -0.0156133 -0.00780476 0.0235226 -1.10056 -0.00790937 -0.163915 0 0 -0.725902c0,-0.0179857 0.00543232,-0.023418 0.023418,-0.023418l0.0392181 -0.00179707 0.101279 0.00960183 1.24106 0 0 0.0624455 0.00780849 0 0 -0.0624455 0.429295 0 0.031219 -0.00780476 0.023418 -0.00780849 0.0156095 -0.00780476 0.0156133 -0.00780102 0.00780476 -0.00780849 0.00780476 -0.00780476 0.00780849 -0.00780476 0.00780102 -0.00780849 0.00780476 -0.00780476 0.00780849 -0.00780102 0.00780476 -0.00780849 0.00780476 -0.00780476 0.00780849 -0.0156133 0.00780476 -0.0234143 0.00780102 -0.429299 0 -0.320021 -0.00780102 -0.078055 -0.00780476 -0.0234143 -0.00780849 -0.023418 -0.00780476 -0.00780849 -0.00780476 -0.0156058 -0.00780849 -0.00780849 -0.00780476 -0.00780476 -0.00780102 -0.00780476 -0.00780849 -0.00780849 -0.00780476 -0.00780102 -0.00780476 -0.00780476 -0.0156133 -0.00780849 -0.0156095 -0.00780476 -0.023418 -0.00780476 -0.031219 0 -1.67816 0 0 -0.0156095c-0.0175075,0.00407611 -0.0179446,0.00780102 -0.0390275,0.00780102l-0.124887 0 -0.00780849 -1.13178 0 1.13959 -0.688698 0.00181575 0.165738 0.169904c0,0.179524 0,0.359052 0,0.538573 0,0.180522 -0.0192037,0.382467 0.163915,0.382467l0.359045 0 0 0.764933 -0.684297 0.00516332 0.161337 0.166553c0,0.130495 -0.0218302,0.512465 0.0144102,0.594413 0.0351569,0.0795009 0.0838871,0.108176 0.196337,0.108075 0.104066,-9.3403e-005 0.208143,0 0.312213,0z"/>
    <path id="_116868472" class="fil4" d="M2.75531 3.38755c0.0117426,-0.050404 0.0645079,-0.100121 0.124887,-0.101466 -0.00414709,-0.0155273 -0.117079,-0.127846 -0.117079,-0.132696 0,-0.0254617 0.00403127,-0.0257045 0.0156058,-0.0390238 0,-0.0962089 0.0361955,-0.179524 0.124891,-0.179524l0.023418 0c0.105658,0 0.156103,0.0717858 0.156103,0.179524l0.00780849 0.054637c-0.0739042,0.0391022 -0.0442506,0.0762991 -0.109278,0.0936646l0 0.023418c0.0578763,0.00481586 0.10488,0.0491038 0.117083,0.101466 0.0542933,-0.0363562 0.132692,-0.122791 0.132692,-0.210743l0 -0.0936646c0,-0.121999 -0.14974,-0.257579 -0.280994,-0.257579l-0.0468323 0c-0.142305,0 -0.281001,0.138689 -0.281001,0.280994l0 0.0624455c0,0.0844401 0.081029,0.183955 0.132696,0.218548z"/>
    <polygon id="_117733416" class="fil1" points="4.44128,3.61391 5.54184,3.62182 5.54965,3.5983 5.55746,3.59049 5.56526,3.56708 5.57307,3.54366 5.58088,3.51244 5.58868,3.48903 5.59649,3.46561 5.60429,3.44219 5.61209,3.41097 5.6199,3.37975 5.62771,3.34853 5.63551,3.31731 5.64332,3.27828 5.65112,3.23145 5.65893,3.19242 5.66674,3.14559 5.67454,3.09095 5.68235,3.0207 5.68235,2.93484 5.68235,2.8724 4.44128,2.8724 "/>
    <path id="_116868544" class="fil3" d="M2.77873 3.11437l0.0468323 0c0.00896295,-0.0169284 0.023418,-0.0449792 0.023418,-0.0702465 0,-0.0210867 -0.00372491,-0.0215238 -0.00780476,-0.0390313 0.0279387,0.00650832 0.0366738,0.0156133 0.0702503,0.0156133l0.0156133 0c0.0370324,0 0.0563706,-0.00874252 0.0858561,-0.0156133l0 0.0468323c0,0.0282974 0.00655316,0.0435706 0.0156095,0.0624455 0.00915723,-0.00242848 0.0212772,-0.00780849 0.023418,-0.00780849 0.0178811,0 0.00907504,0.00264517 0.031219,0.00780849 0,-0.107739 -0.0504451,-0.179524 -0.156103,-0.179524l-0.023418 0c-0.0886955,0 -0.124891,0.0833155 -0.124891,0.179524z"/>
    <path id="_116868616" class="fil4" d="M1.84988 2.74751l-0.00897416 0.0152172 -1.34136 0.000388557 -0.359049 0 -0.0312265 0.00780849 -0.0156058 0.00780476 -0.00780849 0.00780476 -0.00780476 0.00780849 -0.00780476 0.00780102 -0.00780849 0.00780476 -0.00780102 0.00780849 -0.00780476 0.00780476 -0.00780849 0.00780476 -0.00780476 0.0156095 -0.00780476 0.00780476 -0.00780849 0.0156133 -0.00780476 0.0234143 -0.00780102 0.0390313 0 0.444909 0.00780102 0.0390275 0.00780476 0.0234143 0.00780849 0.0156095 0.00780476 0.00780849 0.00780476 0.0156095 0.00780849 0.00780849 0.00780476 0.00780102 0.00780102 0.00780476 0.00780849 0.00780849 0.00780476 0.00780476 0.0156133 0.00780476 0.0156058 0.00780849 0.0156133 0.00780102 0.023418 0.00780476 0.0936646 0.00780849 0.241966 0 0.163911 -0.00780849 1.19423 0 0.149243 -0.00112831 0.0224765 0.0167416 0 -0.0156133 0.320021 0c0.28238,0 0.210747,-0.332421 0.208924,-0.618448l0.165738 -0.1699 -0.694683 0 0 -0.0234143c-0.0122059,0.0140441 -0.00932909,0.0234143 -0.031219,0.0234143l-0.132696 0 0 -0.0156058z"/>
    <path id="_117734664" class="fil5" d="M2.77873 3.11437c-0.0115745,0.0133193 -0.0156058,0.0135621 -0.0156058,0.0390238 0,0.00484949 0.112932,0.117168 0.117079,0.132696 0,0.0468958 0.00159532,0.0858598 0.046836,0.0858598 0.0184079,0 0.0347272,-0.0153144 0.0459319,-0.0234628l0.00870143 -0.062397 0 -0.023418c0.0650272,-0.0173655 0.0353736,-0.0545623 0.109278,-0.0936646l-0.00780849 -0.054637c-0.022144,-0.00516332 -0.013338,-0.00780849 -0.031219,-0.00780849 -0.0021408,0 -0.0142608,0.00538001 -0.023418,0.00780849 -0.00905636,-0.0188749 -0.0156095,-0.0341481 -0.0156095,-0.0624455l0 -0.0468323c-0.0294855,0.00687073 -0.0488236,0.0156133 -0.0858561,0.0156133l-0.0156133 0c-0.0335765,0 -0.0423116,-0.00910493 -0.0702503,-0.0156133 0.00407984,0.0175075 0.00780476,0.0179446 0.00780476,0.0390313 0,0.0252674 -0.0144551,0.0533182 -0.023418,0.0702465l-0.0468323 0z"/>
    <path id="_116868688" class="fil6" d="M2.75531 3.38755c0.0411422,0.0217741 0.0770015,0.046836 0.140497,0.046836l0.0624455 0c0.0613508,0 0.103644,-0.0221552 0.140497,-0.046836 -0.0122022,-0.0523617 -0.0592063,-0.0966497 -0.117083,-0.101466l-0.00870143 0.062397c-0.0112046,0.00814848 -0.027524,0.0234628 -0.0459319,0.0234628 -0.0452407,0 -0.046836,-0.038964 -0.046836,-0.0858598 -0.0603795,0.001345 -0.113145,0.0510616 -0.124887,0.101466z"/>
    <path id="_116868760" class="fil8" d="M3.28608 4.35543l-0.054637 0c-0.137056,0 -0.296607,-0.145145 -0.296607,-0.273193l0 -0.0936646c0,-0.143661 0.16452,-0.288798 0.312216,-0.288798 0.187355,0 0.343439,0.14365 0.343439,0.32783 0,0.167759 -0.140773,0.327826 -0.304412,0.327826zm-0.187329 -0.967876c-0.0368531,0.0246808 -0.079146,0.046836 -0.140497,0.046836l-0.0624455 0c-0.0634954,0 -0.0993547,-0.0250619 -0.140497,-0.046836 -0.0516668,-0.0345927 -0.132696,-0.134108 -0.132696,-0.218548l0 -0.0624455c0,-0.142305 0.138696,-0.280994 0.281001,-0.280994l0.0468323 0c0.131254,0 0.280994,0.13558 0.280994,0.257579l0 0.0936646c0,0.087952 -0.0783988,0.174387 -0.132692,0.210743zm-0.163915 -1.27228c0,-0.139656 0.17639,-0.273189 0.335631,-0.273189 0.170091,0 0.320025,0.160209 0.320025,0.335631 0,0.157272 -0.143142,0.320025 -0.296607,0.320025l-0.0702503 0c-0.130155,0 -0.288798,-0.149165 -0.288798,-0.265384l0 -0.117083zm0.163915 -0.538577c-0.0387062,0.0259212 -0.0999263,0.0546408 -0.163915,0.0546408l-0.0156095 0c-0.0639923,0 -0.125209,-0.0287196 -0.163915,-0.0546408 -0.0546893,-0.0366177 -0.132696,-0.129849 -0.132696,-0.218548l0 -0.078055c0,-0.119593 0.145795,-0.265388 0.265388,-0.265388l0.0624455 0c0.147255,0 0.288798,0.151444 0.288798,0.296611 0,0.125649 -0.0649375,0.214786 -0.140497,0.26538zm-1.08495 -0.632238l0.694691 0.000650085 0.00181575 0.00897416 -0.167561 0.168081c0.00182323,0.153939 0.0312788,0.454297 -0.0355492,0.542048 -0.0837227,0.109939 -0.302779,0.0763999 -0.493396,0.0763999l0 0.999095 0 0.0234143 0.694683 0 -0.165738 0.1699c0.00182323,0.286026 0.0734559,0.618448 -0.208924,0.618448l-0.320021 0 0 0.0156133 0 1.08495 0.983485 -0.00212959 0.0624418 0.00212959 1.21765 0 0 -0.109278c0,-0.0210792 -0.00372865,-0.0215201 -0.00780849,-0.0390275 -0.10407,0 -0.208147,-9.3403e-005 -0.312213,0 -0.11245,0.000100875 -0.16118,-0.0285739 -0.196337,-0.108075 -0.0362404,-0.0819481 -0.0144102,-0.463918 -0.0144102,-0.594413l-0.161337 -0.166553 0.684297 -0.00516332 0 -0.764933 -0.359045 0c-0.183119,0 -0.163915,-0.201945 -0.163915,-0.382467 0,-0.179521 0,-0.359049 0,-0.538573l-0.165738 -0.169904 0.688698 -0.00181575 0 -1.13959 -2.25577 -0.00785706 0 0.320073z"/>
    <path id="_117734784" class="fil0" d="M4.44128 3.61391l0 -0.741515 -0.101279 -0.00960183 -0.0392181 0.00179707c-0.0179857,0 -0.023418,0.00543232 -0.023418,0.023418l0 0.725902 0.163915 0z"/>
    <path id="_116868832" class="fil1" d="M3.25694 3.84779c-0.0539944,0.00144214 -0.0645303,0.0176719 -0.0645303,0.0705342l-0.101469 0c-0.0182024,0 -0.0390275,0.0208251 -0.0390275,0.0390275l0 0.0702503 -0.023418 0c-0.0182696,0 -0.031219,0.0129494 -0.031219,0.031219l0 0.0234143c0,0.0179894 0.00542858,0.023418 0.023418,0.023418l0.031219 0 0 0.0546408c0,0.0239635 0.00722566,0.0468323 0.031219,0.0468323l0.0858635 0 0 0.0390238 0.187329 0 0 -0.0390238 0.0780513 0c0.0182734,0 0.0312265,-0.0129531 0.0312265,-0.0312228l0 -0.0702503 0.031219 0c0.0182734,0 0.031219,-0.0129494 0.031219,-0.031219l0 -0.0156133c0,-0.0182696 -0.0129457,-0.031219 -0.031219,-0.031219l-0.031219 0 0 -0.078055c0,-0.0239971 -0.0228688,-0.0312228 -0.0468323,-0.0312228l-0.0858635 0 0 -0.023418c0,-0.0279835 -0.0340136,-0.0444673 -0.0645228,-0.0471162l0.00988578 -0.0699626 -0.0309276 -4.48335e-005 0.0095981 0.0700074z"/>
    <path id="_116868928" class="fil7" d="M3.19241 3.91832c0,-0.0528624 0.0105359,-0.0690921 0.0645303,-0.0705342l-0.0095981 -0.0700074 0.0309276 4.48335e-005 -0.00988578 0.0699626c0.0305092,0.00264891 0.0645228,0.0191327 0.0645228,0.0471162l0 0.023418 0.0858635 0c0.0239635,0 0.0468323,0.00722566 0.0468323,0.0312228l0 0.078055 0.031219 0c0.0182734,0 0.031219,0.0129494 0.031219,0.031219l0 0.0156133c0,0.0182696 -0.0129457,0.031219 -0.031219,0.031219l-0.031219 0 0 0.0702503c0,0.0182696 -0.0129531,0.0312228 -0.0312265,0.0312228l-0.0780513 0 0 0.0390238 -0.187329 0 0 -0.0390238 -0.0858635 0c-0.0239934,0 -0.031219,-0.0228688 -0.031219,-0.0468323l0 -0.0546408 -0.031219 0c-0.0179894,0 -0.023418,-0.00542858 -0.023418,-0.023418l0 -0.0234143c0,-0.0182696 0.0129494,-0.031219 0.031219,-0.031219l0.023418 0 0 -0.0702503c0,-0.0182024 0.0208251,-0.0390275 0.0390275,-0.0390275l0.101469 0zm0.0936646 0.437104c0.163638,0 0.304412,-0.160067 0.304412,-0.327826 0,-0.18418 -0.156084,-0.32783 -0.343439,-0.32783 -0.147696,0 -0.312216,0.145137 -0.312216,0.288798l0 0.0936646c0,0.128048 0.159551,0.273193 0.296607,0.273193l0.054637 0z"/>
    <path id="_117734928" class="fil0" d="M3.22363 5.22183c-0.125448,0 -0.234161,-0.10358 -0.234161,-0.226353 0,-0.131646 0.0990707,-0.24197 0.22636,-0.24197 0.13617,0 0.241966,0.100132 0.241966,0.234161 0,0.129438 -0.104283,0.234161 -0.234165,0.234161zm-1.37375 -0.249767l0 0.0390238 0.00780849 0.0234143 0.00780476 0.0312265 0.00780476 0.0156058 0.00780849 0.0156133 0.00780102 0.0156133 0.00780476 0.0156058 0.00780849 0.0156133 0.00780476 0.0156133 0.00780476 0.00780476 0.00780849 0.00780102 0.00780102 0.0156133 0.00780476 0.00780476 0.00780849 0.00780849 0.00780476 0.00780476 0.00780476 0.00780102 0.00780849 0.00780849 0.00780476 0.00780476 0.00780102 0.00780476 0.00780849 0.00780849 0.00780476 0.00780476 0.0156133 0.00780102 0.00780476 0.00780849 0.0156095 0.00780476 0.00780476 0.00780476 0.0156133 0.00780849 0.0156058 0.00780476 0.0156133 0.00780102 0.023418 0.00780849 0.0156095 0.00780476 0.0312228 0.00780476 0.031219 0.00780849 1.8733 0 0.0390275 -0.00780849 0.0312228 -0.00780476 0.0234143 -0.00780476 0.023418 -0.00780849 0.0156133 -0.00780102 0.0156058 -0.00780476 0.0156133 -0.00780849 0.00780476 -0.00780476 0.0156095 -0.00780476 0.00780476 -0.00780849 0.00780849 -0.00780102 0.00780476 -0.00780476 0.00780476 -0.00780849 0.0156095 -0.00780476 0.00780476 -0.00780476 0.00780849 -0.00780849 0.00780476 -0.00780102 0.00780476 -0.0156133 0.00780849 -0.00780476 0.00780476 -0.00780476 0.00780102 -0.00780849 0.00780849 -0.0156058 0.00780476 -0.00780849 0.00780476 -0.0156095 0.00780849 -0.00780849 0.00780476 -0.0156058 0.00780102 -0.0156133 0.00780849 -0.023418 0.00780476 -0.0234143 0.00780476 -0.023418 0.00780849 -0.0390275 0 -0.0468323 0 -0.429295 -0.171723 -0.00780849c0.00407984,0.0175075 0.00780849,0.0179483 0.00780849,0.0390275l0 0.109278 -1.21765 0 -0.0624418 -0.00212959 -0.983485 0.00212959 0 -1.08495 -0.0224765 -0.0167416 -0.149243 0.00112831 0.00780476 1.42059z"/>
    <polygon id="_116869000" class="fil1" points="0.725902,3.56708 0.733707,3.59049 0.741515,3.61391 0.74932,3.63733 0.757121,3.66074 0.76493,3.67636 0.772734,3.69977 0.780539,3.71538 0.788348,3.7388 0.796152,3.75441 0.803953,3.77783 0.811762,3.79344 0.819567,3.80905 0.827371,3.82466 0.83518,3.84027 0.842985,3.86369 0.850786,3.87929 0.858594,3.89491 0.866399,3.91052 0.874204,3.92613 0.882012,3.94174 0.889817,3.94955 0.897618,3.96516 0.905427,3.98077 0.913231,3.99638 0.921036,4.01199 0.928845,4.0198 0.936649,4.0354 0.94445,4.05102 0.952259,4.05882 0.960064,4.07443 0.967868,4.09004 0.975677,4.09785 0.983482,4.11346 0.991286,4.12907 0.999095,4.13688 1.0069,4.15249 1.0147,4.16029 1.02251,4.1759 1.03031,4.18371 1.03812,4.19932 1.04593,4.20713 1.05373,4.22274 1.06153,4.23054 1.06934,4.23835 1.07715,4.25396 1.08495,4.26176 1.09276,4.26957 1.10056,4.28518 1.10837,4.29298 1.11617,4.30079 1.12398,4.3164 1.13178,4.32421 1.13959,4.33201 1.14739,4.33981 1.1552,4.35543 1.16301,4.36323 1.17081,4.37104 1.17862,4.37884 1.18642,4.39446 1.19422,4.40226 1.20203,4.41007 1.20984,4.41787 1.21764,4.43348 1.22545,4.44129 1.23326,4.44909 1.24106,4.4569 1.24886,4.46471 1.25667,4.47251 1.26448,4.48031 1.27228,4.48812 1.28009,4.49592 1.28789,4.50373 1.29569,4.51154 1.3035,4.51934 1.31131,4.52714 1.31911,4.53495 1.32692,4.54276 1.33473,4.55056 1.34253,4.55837 1.35034,4.56618 1.35814,4.57398 1.36594,4.58178 1.37375,4.58959 1.38156,4.59739 1.38936,4.6052 1.39717,4.61301 1.40497,4.62081 1.41278,4.62862 1.42059,4.63642 1.42839,4.64423 1.43619,4.65203 1.444,4.65984 1.4518,4.66764 1.46742,4.67545 1.47522,4.68325 1.48303,4.69106 1.49084,4.69887 1.49864,4.70667 1.50644,4.71448 1.52205,4.72229 1.52986,4.73009 1.53767,4.73789 1.54547,4.7457 1.56108,4.7535 1.56889,4.76131 1.57669,4.76912 1.5845,4.77692 1.60011,4.78472 1.60791,4.79253 1.61572,4.80034 1.63133,4.80814 1.63913,4.81595 1.64694,4.82375 1.66255,4.83156 1.67036,4.83936 1.68597,4.84717 1.69377,4.85497 1.70938,4.86278 1.71719,4.87058 1.725,4.87839 1.74061,4.8862 1.75622,4.894 1.76402,4.90181 1.77963,4.90961 1.78744,4.91742 1.80305,4.92523 1.81866,4.93303 1.83427,4.94083 1.84208,4.97206 1.84988,4.97206 1.84208,3.55147 0.647843,3.55147 0.647843,3.55928 "/>
    <polygon id="_116869072" class="fil1" points="4.44128,4.94083 4.45689,4.94083 4.4725,4.93303 4.48812,4.92523 4.49592,4.91742 4.51153,4.90961 4.52714,4.90181 4.53495,4.894 4.55055,4.8862 4.55836,4.87839 4.57397,4.87058 4.58178,4.86278 4.59739,4.85497 4.6052,4.84717 4.613,4.83936 4.62861,4.83156 4.63642,4.82375 4.65203,4.81595 4.65983,4.80814 4.66764,4.80034 4.68325,4.79253 4.69106,4.78472 4.69886,4.77692 4.71447,4.76912 4.72228,4.76131 4.73008,4.7535 4.73789,4.7457 4.7535,4.73789 4.76131,4.73009 4.76911,4.72229 4.77691,4.71448 4.78472,4.70667 4.80033,4.69887 4.80814,4.69106 4.81594,4.68325 4.82375,4.67545 4.83156,4.66764 4.83936,4.65984 4.84717,4.65203 4.85497,4.64423 4.87058,4.63642 4.87839,4.62862 4.88619,4.62081 4.894,4.61301 4.90181,4.6052 4.90961,4.59739 4.91741,4.58959 4.92522,4.58178 4.93302,4.57398 4.94083,4.56618 4.94864,4.55837 4.95644,4.55056 4.96424,4.53495 4.97205,4.52714 4.97986,4.51934 4.97986,4.51154 4.44128,4.51154 "/>
    <path id="_117735048" class="fil9" d="M3.22363 5.22183c0.129883,0 0.234165,-0.104723 0.234165,-0.234161 0,-0.13403 -0.105796,-0.234161 -0.241966,-0.234161 -0.12729,0 -0.22636,0.110324 -0.22636,0.24197 0,0.122773 0.108714,0.226353 0.234161,0.226353z"/>
   </g>
   <rect id="_116870416" class="fil10 str0" x="0.118622" y="1.11618" width="2.19218" height="0.027382"/>
   <rect id="_116870968" class="fil10 str0" x="0.352903" y="1.37322" width="1.96103" height="0.027382"/>
   <rect id="_116881120" class="fil10 str0" x="0.156237" y="2.94366" width="2.19218" height="0.027382"/>
   <rect id="_116870848" class="fil10 str0" x="0.153103" y="3.13266" width="1.87612" height="0.027382"/>
   <rect id="_116871064" class="fil11 str1" x="3.9171" y="1.94153" width="2.0518" height="0.0544726"/>
   <rect id="_80259888" class="fil11 str1" x="3.91408" y="2.17455" width="1.52221" height="0.0544726"/>
   <rect id="_116871760" class="fil11 str1" x="3.89895" y="3.84504" width="2.11535" height="0.0635514"/>
   <rect id="_116870368" class="fil11 str1" x="3.89289" y="4.07201" width="1.60694" height="0.0635514"/>
   <ellipse id="_116869984" class="fil10 str2" cx="3.16795" cy="2.1516" rx="0.0351532" ry="0.0334383"/>
   <ellipse id="_116870488" class="fil10 str2" cx="3.15729" cy="4.01472" rx="0.0351532" ry="0.0334383"/>
   <ellipse id="_116872192" class="fil10 str2" cx="3.35775" cy="2.1516" rx="0.0351532" ry="0.0334383"/>
   <ellipse id="_116878120" class="fil10 str2" cx="3.34708" cy="4.01472" rx="0.0351532" ry="0.0334383"/>
   <path id="_116873632" class="fil10 str3" d="M3.32486 2.27164c0,0.0222486 -0.0272662,0.0402978 -0.0608838,0.0402978 -0.0336064,0 -0.0608726,-0.0180492 -0.0608726,-0.0402978l0.121756 0z"/>
   <path id="_116879008" class="fil10 str3" d="M3.3142 4.13477c0,0.0222486 -0.0272662,0.0402978 -0.0608838,0.0402978 -0.0336064,0 -0.0608726,-0.0180492 -0.0608726,-0.0402978l0.121756 0z"/>
   <path id="_116870920" class="fil11 str1" d="M3.03498 4.01949c0.0070127,0 0.0136107,0.00192037 0.0194204,0.00533144l0 0.0835882c-0.00580967,0.00341108 -0.0124077,0.00535386 -0.0194204,0.00535386 -0.0231901,0 -0.041994,-0.0211091 -0.041994,-0.0471386 0,-0.0260258 0.0188039,-0.0471349 0.041994,-0.0471349z"/>
   <path id="_116879032" class="fil11 str1" d="M3.0322 2.15838c0.0070127,0 0.0136107,0.00192037 0.0194204,0.00533144l0 0.0835882c-0.00580967,0.00341108 -0.0124077,0.00535386 -0.0194204,0.00535386 -0.0231901,0 -0.041994,-0.0211091 -0.041994,-0.0471386 0,-0.0260258 0.0188039,-0.0471349 0.041994,-0.0471349z"/>
   <path id="_80259456" class="fil11 str1" d="M3.48743 4.02292c-0.0070127,0 -0.0136107,0.00192037 -0.0194204,0.00533144l0 0.0835882c0.00580967,0.00341108 0.0124077,0.00535386 0.0194204,0.00535386 0.0231901,0 0.041994,-0.0211091 0.041994,-0.0471386 0,-0.0260258 -0.0188039,-0.0471349 -0.041994,-0.0471349z"/>
   <path id="_116873272" class="fil11 str1" d="M3.48465 2.16181c-0.0070127,0 -0.0136107,0.00192037 -0.0194204,0.00533144l0 0.0835882c0.00580967,0.00341108 0.0124077,0.00535386 0.0194204,0.00535386 0.0231901,0 0.041994,-0.0211091 0.041994,-0.0471386 0,-0.0260258 -0.0188039,-0.0471349 -0.041994,-0.0471349z"/>
   <rect id="_116871160" class="fil11 str1" x="3.169" y="2.34944" width="0.187329" height="0.0390238"/>
   <polygon id="_116870296" class="fil11 str1" points="3.25694,1.9901 3.24735,1.92009 3.27827,1.92013 3.26839,1.9901 "/>
   <rect id="_116871472" class="fil11 str1" x="3.169" y="4.20713" width="0.187329" height="0.0390238"/>
   <polygon id="_116870440" class="fil11 str1" points="3.25694,3.84779 3.24735,3.77778 3.27827,3.77783 3.26839,3.84779 "/>
  </g>
 </g>
</svg>
