<?xml version="1.0" encoding="UTF-8"?>
<!DOCTYPE svg PUBLIC "-//W3C//DTD SVG 1.1//EN" "http://www.w3.org/Graphics/SVG/1.1/DTD/svg11.dtd">
<!-- Creator: CorelDRAW -->
<svg xmlns="http://www.w3.org/2000/svg" xml:space="preserve" width="5.31342in" height="5.64354in" style="shape-rendering:geometricPrecision; text-rendering:geometricPrecision; image-rendering:optimizeQuality; fill-rule:evenodd; clip-rule:evenodd"
viewBox="0 0 5.41926 5.75596"
 xmlns:xlink="http://www.w3.org/1999/xlink">
 <defs>
  <style type="text/css">
   <![CDATA[
    .str2 {stroke:#1F1A17;stroke-width:0.00305976}
    .str0 {stroke:#28166F;stroke-width:0.00305976}
    .str3 {stroke:#EE9A85;stroke-width:0.00305976}
    .str1 {stroke:white;stroke-width:0.00305976}
    .fil23 {fill:none}
    .fil22 {fill:none;fill-rule:nonzero}
    .fil20 {fill:#28166F}
    .fil24 {fill:#EE9A85}
    .fil18 {fill:#1A3069}
    .fil11 {fill:#1B999B}
    .fil5 {fill:#25C4C6}
    .fil14 {fill:#298FA4}
    .fil10 {fill:#382424}
    .fil17 {fill:#3A3B75}
    .fil3 {fill:#45477D}
    .fil1 {fill:#666995}
    .fil0 {fill:#6F749C}
    .fil15 {fill:#88BDBA}
    .fil12 {fill:#B8E3E1}
    .fil19 {fill:#C5C7D7}
    .fil13 {fill:#E13E06}
    .fil16 {fill:#E56638}
    .fil4 {fill:#E7ECF1}
    .fil9 {fill:#FABCA4}
    .fil2 {fill:#FC7C48}
    .fil8 {fill:#FE6D33}
    .fil6 {fill:#FEAC93}
    .fil7 {fill:#FFFFFE}
    .fil21 {fill:white;fill-rule:nonzero}
   ]]>
  </style>
 </defs>
 <g id="Layer_x0020_1">
  <metadata id="CorelCorpID_0Corel-Layer"/>
  <g id="_114706400">
   <g>
    <polygon id="_114706880" class="fil0" points="3.24675,0.040082 3.27079,0.0481008 3.27881,0.0561156 3.27881,0.112231 3.27881,0.168351 3.28683,0.184381 3.29484,0.192399 3.29484,0.200414 3.28683,0.208433 3.27881,0.232481 3.27881,0.288597 3.27881,0.344717 3.27079,0.352731 3.24675,0.360746 3.24675,0.400832 3.28683,0.400832 3.30286,0.392813 3.31087,0.384799 3.3189,0.37678 3.32691,0.360746 3.32691,0.272563 3.32691,0.232481 3.33493,0.224467 3.35898,0.216448 3.35898,0.184381 3.35096,0.176366 3.32691,0.176366 3.32691,0.160332 3.32691,0.128265 3.32691,0.040082 3.3189,0.0240484 3.31087,0.0160336 3.30286,0.0080148 3.28683,0 3.24675,0 "/>
    <polygon id="_60643392" class="fil1" points="2.90203,0.0080148 2.88599,0.0160336 2.87798,0.0320672 2.86996,0.168351 2.84591,0.176366 2.84591,0.216448 2.86195,0.224467 2.87798,0.224467 2.87798,0.368765 2.88599,0.37678 2.89401,0.384799 2.90203,0.392813 2.91806,0.400832 2.95013,0.400832 2.95013,0.360746 2.92608,0.352731 2.91806,0.208433 2.91004,0.200414 2.91004,0.192399 2.91806,0.184381 2.92608,0.0481008 2.95013,0.040082 2.95013,0 2.91004,0 "/>
    <polygon id="_80714624" class="fil2" points="3.08641,0.104216 3.07038,0.112231 3.05434,0.12025 3.03831,0.128265 3.03029,0.136284 3.01426,0.144298 3.01426,0.256534 3.03029,0.264549 3.04633,0.272563 3.06236,0.280582 3.07038,0.288597 3.08641,0.296616 3.11848,0.296616 3.12649,0.288597 3.14253,0.280582 3.15856,0.272563 3.16658,0.264549 3.18261,0.256534 3.19062,0.248515 3.19062,0.144298 3.17459,0.136284 3.15856,0.128265 3.14253,0.12025 3.13451,0.112231 3.11848,0.104216 3.10244,0.0961976 3.09443,0.0961976 "/>
    <path id="_114712856" class="fil3" d="M1.94805 0.545131c0,0.0225788 -0.00346532,0.014845 -0.0160336,0.0240484 -0.0135119,-0.00938406 -0.0160336,-0.00114841 -0.0160336,-0.0240484l0 -0.192399 0.0320672 0 0 0.0881829 0.0561156 0 0 -0.0881829 0.0240484 0 0 0.216448 -0.0240484 0 0 -0.080164c0,-0.018471 -0.00557743,-0.0240524 -0.0240484,-0.0240524l-0.0320672 0 0 0.0801681zm0.248519 0c0,0.0306498 0.00246146,0.00291922 -0.00802283,0.0240484 -0.0282807,-0.0207196 -0.00768152,-0.0579346 -0.00798267,-0.112199 -0.000313204,-0.0568826 -0.0173346,-0.100141 0.0304209,-0.103811l0.0443103 0.158618 0.037472 -0.159055c0.0514015,0.00427643 0.0296299,0.0403631 0.031762,0.0965028 0.00148571,0.0391464 0.00832399,0.0678166 0.00832399,0.119945 -0.0330791,-0.00882591 -0.0312561,-0.0997433 -0.0350547,-0.137147l-0.0370945 0.137147c-0.0346612,-0.00925155 -0.0471893,-0.103253 -0.0481008,-0.144298l-0.0160336 0 0 0.12025zm-0.424885 -0.408847l-0.00801881 0.0080148 -0.0080148 0.00801881 -0.00801881 0.0080148 -0.0080148 0.0240484 0 0.553154 0.0080148 0.0240484 0.00801881 0.00801881 0.0080148 0.0080148 0.00801881 0.00801881 0.0080148 0.0080148 0.689433 0 0 0.344717 0.00801881 0 0 -0.344717 0.040082 0c0.135432,0 0.0361148,-0.195122 0.0801681,-0.264553l0 -0.360746 -0.00801881 -0.0160336 -0.0080148 -0.00801881 -0.00801881 -0.0080148 -0.0160336 -0.00801881 -0.777616 0 -0.0080148 0.00801881z"/>
    <path id="_114712976" class="fil4" d="M2.19656 0.424881l0.0160336 0c0.000911503,0.0410457 0.0134396,0.135047 0.0481008,0.144298l0.0370945 -0.137147c0.0037986,0.0374037 0.00197559,0.128321 0.0350547,0.137147 0,-0.0521283 -0.00683828,-0.0807985 -0.00832399,-0.119945 -0.00213219,-0.0561397 0.0196395,-0.0922264 -0.031762,-0.0965028l-0.037472 0.159055 -0.0443103 -0.158618c-0.0477555,0.0036701 -0.0307341,0.0469283 -0.0304209,0.103811 0.000301157,0.0542645 -0.020298,0.0914795 0.00798267,0.112199 0.0104843,-0.0211292 0.00802283,0.00660137 0.00802283,-0.0240484l0 -0.12025z"/>
    <path id="_114713072" class="fil4" d="M1.94805 0.464963l0.0320672 0c0.018471,0 0.0240484,0.00558145 0.0240484,0.0240524l0 0.080164 0.0240484 0 0 -0.216448 -0.0240484 0 0 0.0881829 -0.0561156 0 0 -0.0881829 -0.0320672 0 0 0.192399c0,0.0229 0.00252169,0.0146643 0.0160336,0.0240484 0.0125683,-0.00920336 0.0160336,-0.00146965 0.0160336,-0.0240484l0 -0.0801681z"/>
    <polygon id="_114712904" class="fil5" points="0.513063,0.7215 0.505049,0.737534 0.505049,0.777616 0.513063,0.785635 0.521082,0.79365 0.537116,0.801668 1.17845,0.801668 1.19448,0.79365 1.2025,0.785635 1.21052,0.769601 1.21052,0.737534 1.2025,0.7215 1.19448,0.713486 0.521082,0.713486 "/>
    <polygon id="_114694952" class="fil6" points="3.82394,0.777616 3.82394,0.809683 3.83196,0.817698 3.84799,0.817698 3.85601,0.801668 3.86403,0.817698 3.87204,0.841751 3.88006,0.873818 3.88006,0.929933 3.87204,0.953982 3.86403,0.978034 3.85601,0.994064 3.84799,1.0101 3.83998,1.01812 3.82394,1.02613 3.81593,1.03415 3.80791,1.04216 3.79188,1.05018 3.77585,1.0582 3.75981,1.06622 3.66361,1.06622 3.63956,1.0582 3.61551,1.0582 3.61551,1.08225 3.62353,1.09027 3.64758,1.09828 3.68766,1.1063 3.73576,1.1063 3.76783,1.09828 3.79188,1.09027 3.80791,1.08225 3.82394,1.07423 3.83196,1.06622 3.83998,1.0582 3.85601,1.05018 3.86403,1.03415 3.87204,1.02613 3.88006,1.01812 3.88808,1.00208 3.8961,0.986049 3.90411,0.970015 3.91212,0.945967 3.91212,0.849765 3.90411,0.825717 3.8961,0.809683 3.88808,0.79365 3.88006,0.777616 3.8961,0.777616 3.8961,0.753568 3.88006,0.745549 3.83196,0.745549 "/>
    <polygon id="_114698264" class="fil2" points="0.513063,0.889851 0.505049,0.905881 0.505049,0.945967 0.513063,0.953982 0.521082,0.962001 0.529097,0.970015 0.953978,0.970015 0.961997,0.962001 0.970011,0.953982 0.978034,0.945967 0.978034,0.905881 0.970011,0.889851 0.961997,0.881833 0.521082,0.881833 "/>
    <path id="_114713048" class="fil7" d="M3.02228 0.753568c0,0.0263492 0.0611831,0.0834848 0.080164,0.0961976 -0.00869341,0.0129899 -0.080164,0.090046 -0.080164,0.0962017 0,0.0131224 0.00479844,0.0240484 0.0160336,0.0240484 0.0215026,0 0.112231,-0.0990285 0.112231,-0.112231 0,-0.0218198 -0.0936519,-0.12025 -0.104216,-0.12025 -0.0131184,0 -0.0240484,0.00479442 -0.0240484,0.0160336z"/>
    <path id="_114695000" class="fil6" d="M3.53534 1.0101l0.00935194 0.00133312 -0.00935194 0.00668569 0 -0.00801881zm0.0881829 -0.312645l-0.0160336 0.0080148 -0.0160336 0.00801881 -0.0080148 0.0080148 -0.00801881 0.0080148 -0.0160336 0.00801881 -0.0080148 0.0080148 -0.0080148 0.00801881 -0.00801881 0.0160336 -0.0080148 0.0080148 -0.00801881 0.0160336 -0.0080148 0.0160336 -0.00801881 0.0240484 -0.0080148 0.040086 0 0.0320632 0.0080148 0.040086 0.00801881 0.0240484 0.0080148 0.0160336 0.00801881 0.0160336 0.0080148 0.0080148 -0.0160336 0 -0.0080148 0.00801881 0 0.0080148 0.0080148 0.00801881 0.0320672 0.0080148 0.0320672 0 0.0080148 -0.040082 0 -0.0160336 -0.0080148 -0.0160336 -0.00801881 0 -0.0080148 0.00801881 -0.00801881 0.0080148 -0.0080148 -0.0160336 -0.0080148 -0.0160336 -0.00801881 -0.0160336 0 -0.0961976 0.00801881 -0.0160336 0.0080148 -0.0160336 0.0080148 -0.0160336 0.00801881 -0.0080148 0.0080148 -0.0160336 0.00801881 -0.00801881 0.0080148 -0.0080148 0.00801881 -0.00801881 0.0240484 -0.0080148 0.0160336 -0.00801881 0.0240484 -0.0080148 0.0801681 0 0.0240484 0.0080148 0.0320672 0 0 -0.0240484 -0.0160336 -0.0080148 -0.0240484 -0.00801881 -0.112235 0 -0.0240484 0.00801881z"/>
    <path id="_114713168" class="fil8" d="M3.10244 0.849765c-0.0189809,-0.0127129 -0.080164,-0.0698484 -0.080164,-0.0961976 0,-0.0112392 0.01093,-0.0160336 0.0240484,-0.0160336 0.0105646,0 0.104216,0.0984302 0.104216,0.12025 0,0.0132027 -0.0907286,0.112231 -0.112231,0.112231 -0.0112352,0 -0.0160336,-0.010926 -0.0160336,-0.0240484 0,-0.00615565 0.0714706,-0.0832117 0.080164,-0.0962017zm-0.625295 0.288601l0 0.0240484 0.0080148 0.00801881 0.00801881 0.0080148 0.0080148 0.0080148 0.0160336 0.00801881 0.769601 0 0.0160336 -0.00801881 0.00801078 -0.0080148 0.00802283 -0.0160336 0.0080148 -0.0080148 0 -0.585221 -0.0080148 -0.0160336 -0.00802283 -0.0080148 -0.00801078 -0.00801881 -0.00802283 -0.0080148 -0.697444 0c-0.0440533,0.0694308 0.0552644,0.264553 -0.0801681,0.264553l-0.040082 0 0 0.344717z"/>
    <polygon id="_114713264" class="fil2" points="0.521082,1.06622 0.513063,1.07423 0.505049,1.09027 0.505049,1.12233 0.513063,1.13837 0.521082,1.14638 0.537116,1.1544 0.945963,1.1544 0.961997,1.14638 0.970011,1.13837 0.978034,1.13035 0.978034,1.08225 0.970011,1.07423 0.961997,1.06622 0.945963,1.0582 0.537116,1.0582 "/>
    <polygon id="_114713336" class="fil9" points="3.61551,1.29068 3.62353,1.2987 3.63956,1.2987 3.64758,1.29068 3.65559,1.28266 3.65559,1.26663 3.64758,1.25862 3.61551,1.25862 "/>
    <polygon id="_114713432" class="fil6" points="3.7037,1.29068 3.71973,1.2987 3.72774,1.2987 3.73576,1.29068 3.73576,1.25862 3.7037,1.25862 "/>
    <polygon id="_114713504" class="fil9" points="3.78386,1.26663 3.78386,1.28266 3.79188,1.29068 3.79989,1.2987 3.80791,1.2987 3.82394,1.29068 3.82394,1.25862 3.79188,1.25862 "/>
    <path id="_114713600" class="fil5" d="M1.72358 1.23456c0,0.0571235 0.0521082,0.0962017 0.112231,0.0962017 0.0430494,0 0.0881829,-0.0451374 0.0881829,-0.0881829l0 -0.0240524c0,-0.04684 -0.0413388,-0.0881829 -0.0881829,-0.0881829l-0.0240484 0c-0.0508233,0 -0.0881829,0.0510803 -0.0881829,0.104216z"/>
    <path id="_114713672" class="fil7" d="M1.72358 1.23456c0,-0.0531362 0.0373596,-0.104216 0.0881829,-0.104216l0.0240484 0c0.046844,0 0.0881829,0.0413429 0.0881829,0.0881829l0 0.0240524c0,0.0430454 -0.0451334,0.0881829 -0.0881829,0.0881829 -0.060123,0 -0.112231,-0.0390782 -0.112231,-0.0962017zm0.0641344 -0.192399l0 0.0320672c-0.0214986,0.00514778 -0.0151101,0.0080148 -0.0320672,0.0080148 -0.028365,0 -0.0242371,-0.0240484 -0.040082,-0.0240484 -0.0224663,0 -0.0462778,0.0334084 -0.0561196,0.0481008 0.00299953,0.00566577 0.0240524,0.0393633 0.0240524,0.040082 0,0.0183626 -0.00271845,0.00932383 -0.00801881,0.0320672l-0.0480968 0c-0.00418809,0.0179771 -0.00801881,0.0184308 -0.00801881,0.040082l0 0.0160336c0,0.018475 0.00557743,0.0240524 0.0240484,0.0240524l0.0226551 0.000485867 0.017431 0.0476109c-0.01248,0.00835611 -0.0240524,0.0106288 -0.0240524,0.0320672 0,0.0226551 0.0334365,0.0481008 0.0561196,0.0481008 0.0146925,0 0.00935194,-0.0160336 0.0240484,-0.0160336 0.0598901,0 0.0211693,0.0561156 0.0641344,0.0561156l0.0320632 0c0.0266665,0 0.0234822,-0.0143913 0.0240524,-0.040082 0.0220126,-0.0051277 0.0325812,-0.0160336 0.0480968,-0.0160336 0.0153349,0 0.005465,0.0160336 0.0320672,0.0160336 0.0266183,0 0.0385441,-0.0300354 0.0481008,-0.0481008 -0.00448122,-0.00645681 -0.0160336,-0.0197921 -0.0160336,-0.0240484 0,-0.030192 0.00527627,-0.0151623 0.00801881,-0.0481008l0.0240484 0c0.018475,0 0.0240484,-0.00557743 0.0240484,-0.0240484l0 -0.0320672c0,-0.018475 -0.00557342,-0.0240524 -0.0240484,-0.0240524l-0.0219162 -0.000967719 -0.0181658 -0.0391143c0.00598701,-0.00893433 0.0240484,-0.0269636 0.0240484,-0.0320672 0,-0.0224623 -0.0334003,-0.0462738 -0.0498797,-0.0578985l-0.0301559 0.033565 -0.0402145 -0.0157485 0 -0.0240484c0,-0.0187681 -0.0132991,-0.0320672 -0.0320672,-0.0320672l-0.0240484 0c-0.018471,0 -0.0240484,0.00557743 -0.0240484,0.0240484z"/>
    <polygon id="_114713744" class="fil8" points="4.15262,1.37085 4.14461,1.38688 4.14461,1.42696 4.15262,1.43498 4.16064,1.443 4.16866,1.45101 5.39521,1.45101 5.40322,1.443 5.41124,1.43498 5.41926,1.42696 5.41926,1.38688 5.41124,1.37085 5.40322,1.36283 4.16064,1.36283 "/>
    <path id="_114713816" class="fil5" d="M1.73961 1.37085c-0.0146965,0 -0.00935595,0.0160336 -0.0240484,0.0160336 -0.0226832,0 -0.0561196,-0.0254458 -0.0561196,-0.0481008 0,-0.0214384 0.0115725,-0.0237111 0.0240524,-0.0320672l-0.017431 -0.0476109 -0.0226551 -0.000485867c-0.018471,0 -0.0240484,-0.00557743 -0.0240484,-0.0240524l0 -0.0160336c0,-0.0216512 0.00383072,-0.0221049 0.00801881,-0.040082l0.0480968 0c0.00530037,-0.0227434 0.00801881,-0.0137047 0.00801881,-0.0320672 0,-0.000718762 -0.0210529,-0.0344162 -0.0240524,-0.040082 0.00984182,-0.0146925 0.0336533,-0.0481008 0.0561196,-0.0481008 0.0158449,0 0.011717,0.0240484 0.040082,0.0240484 0.0169572,0 0.0105686,-0.00286702 0.0320672,-0.0080148l0 -0.0320672c0,-0.018471 0.00557743,-0.0240484 0.0240484,-0.0240484l0.0240484 0c0.0187681,0 0.0320672,0.0132991 0.0320672,0.0320672l0 0.0240484 0.0402145 0.0157485 0.0301559 -0.033565c0.0164793,0.0116247 0.0498797,0.0354362 0.0498797,0.0578985 0,0.00510361 -0.0180614,0.0231329 -0.0240484,0.0320672l0.0181658 0.0391143 0.0219162 0.000967719c0.018475,0 0.0240484,0.00557743 0.0240484,0.0240524l0 0.0320672c0,0.018471 -0.00557342,0.0240484 -0.0240484,0.0240484l-0.0240484 0c-0.00274254,0.0329386 -0.00801881,0.0179088 -0.00801881,0.0481008 0,0.00425636 0.0115524,0.0175916 0.0160336,0.0240484 -0.00955672,0.0180654 -0.0214825,0.0481008 -0.0481008,0.0481008 -0.0266022,0 -0.0167323,-0.0160336 -0.0320672,-0.0160336 -0.0155156,0 -0.0260842,0.0109059 -0.0480968,0.0160336 -0.000570191,0.0256907 0.00261404,0.040082 -0.0240524,0.040082l-0.0320632 0c-0.0429651,0 -0.00424431,-0.0561156 -0.0641344,-0.0561156zm-0.312649 -0.472981l-0.0160336 0.0080148 -0.0080148 0.0160336 -0.00801881 0.0160336 0 0.577198 0.00801881 0.0160336 0.0080148 0.0080148 0.00801881 0.00801881 0.0080148 0.0080148 0.0240484 0 0.6734 0 0 -0.288597c0,-0.0225747 0.00346933,-0.014845 0.0160376,-0.0240484l0.104216 0 0.0080148 -0.00801881 0 -0.304631 -0.0080148 -0.0160336 -0.00801881 -0.00801881 -0.0080148 -0.0080148 -0.0160336 -0.0080148 -0.777616 0 -0.00801881 0.0080148z"/>
    <polygon id="_114698096" class="fil5" points="4.15262,1.53919 4.14461,1.55523 4.14461,1.59531 4.15262,1.61135 4.16866,1.61936 4.97033,1.61936 4.98636,1.61135 4.99438,1.60333 4.99438,1.54721 4.98636,1.53919 4.97834,1.53118 4.16064,1.53118 "/>
    <polygon id="_114697952" class="fil5" points="4.15262,1.72358 4.14461,1.73961 4.14461,1.77969 4.15262,1.78772 4.16064,1.79573 4.16866,1.80375 4.97033,1.80375 4.98636,1.79573 4.99438,1.78772 4.99438,1.73159 4.98636,1.72358 4.97834,1.71556 4.16064,1.71556 "/>
    <path id="_114697832" class="fil3" d="M1.45101 1.55523l0 0.00801881 0.6734 0 0 0.921915 0.0160376 0 0.00801078 -0.0080148 0.00802283 -0.0160336 0.0160336 -0.00801881 0.0080148 -0.0080148 0.00801078 -0.0080148 0.00802283 -0.00801881 0.00801078 -0.0080148 0.00802283 -0.00801881 0.0080148 -0.0080148 0.00801881 -0.00801881 0.0080148 -0.0080148 0.00801881 -0.00801881 0.0080148 -0.0160336 0.0160336 -0.0080148 0.0080148 -0.0080148 0.00801881 -0.00801881 0.0080148 -0.0080148 0.00801881 -0.00801881 0.0080148 -0.0080148 0.00801881 -0.00801881 0.0080148 -0.0080148 0.00801881 -0.00801881 0.0080148 -0.0080148 0 -0.0160336 1.00954 -0.00780198 -0.0635683 -0.176583 -0.0801721 0.0481008c-0.0171218,-0.0162464 -0.040082,-0.0391545 -0.040082,-0.0721492l0 -0.0160336c0,-0.091857 0.0376206,-0.169487 0.120254,-0.176366 0.00237312,-0.106594 0.107348,-0.168351 0.216448,-0.168351 0.0475306,0 0.0679571,0.0211693 0.0978359,0.0396765l-0.00965309 -0.0396765c0.0775018,0.00172663 0.0801681,0.0635763 0.0801681,0.144302 0.022374,-0.016399 0.0159935,-0.0320672 0.0561156,-0.0320672l0.0267387 0.00285096 -0.0507872 0.0532647c0.0209324,0.0312601 0.0641304,0.0538951 0.0641304,0.104216l0 0.0160336c0,0.0768915 -0.0574287,0.11984 -0.0641304,0.200414 0.238621,-0.126261 0.200414,0.0639738 0.200414,-0.336698 0,-0.17904 0,-0.358076 0,-0.537116l0 -0.00801881 -1.77269 -7.22777e-005 0.0090307 -0.0480245 0 -0.0160336c-0.0125683,0.00920336 -0.0160376,0.00147366 -0.0160376,0.0240484l0 0.288597 -0.6734 0z"/>
    <path id="_114697688" class="fil10" d="M3.28683 2.08433c0.0917445,0 0.0605888,0.01352 0.112231,0.0481008 0.0280116,-0.0205229 0.0223659,-0.0561156 0.0561156,-0.0561156l0.0320672 0 0 0.0240484c0,0.0350186 -0.0160336,0.0291119 -0.0160336,0.0641344l0 0.0160336c0,0.0305253 0.0933748,0.0881829 0.12025,0.0881829 0.000244941,0 0.0857977,-0.0651865 0.0962017,-0.0721492l0.0160336 -0.00801881c0.00670175,-0.0805736 0.0641304,-0.123523 0.0641304,-0.200414l0 -0.0160336c0,-0.0503214 -0.043198,-0.0729563 -0.0641304,-0.104216l0.0507872 -0.0532647 -0.0267387 -0.00285096c-0.0401222,0 -0.0337417,0.0156682 -0.0561156,0.0320672 0,-0.0807262 -0.00266625,-0.142576 -0.0801681,-0.144302l0.00965309 0.0396765c-0.0298788,-0.0185071 -0.0503053,-0.0396765 -0.0978359,-0.0396765 -0.109099,0 -0.214075,0.0617573 -0.216448,0.168351 -0.0826335,0.00687843 -0.120254,0.0845087 -0.120254,0.176366l0 0.0160336c0,0.0329948 0.0229602,0.0559028 0.040082,0.0721492l0.0801721 -0.0481008z"/>
    <path id="_114697568" class="fil11" d="M1.443 2.44508l-0.0240484 0.0080148 -0.0160336 0.00801881 -0.00801881 0.0080148 -0.0080148 0c-0.0180373,0.0207517 -0.0881829,0.12708 -0.0881829,0.160336l0.000397528 0.0789594 0.0156361 0.00922344 0.127257 -8.4324e-005 0.0170415 -0.144218 0.0080148 0 0.00801881 -0.0480968 0.0080148 -0.0320672 0.00801881 -0.0320672 0 -0.0240484 -0.0240524 0 -0.0240484 0.0080148z"/>
    <path id="_114697448" class="fil5" d="M1.32275 1.69151l0.0160336 0.00801881 0.00801881 0.0080148 0.0080148 0.00801881 0.0080148 0.0080148 0.00801881 0.0160336 0.0080148 0.0240484 0 0.04009 -0.0080148 0.040082 -0.00801881 0.0240484 -0.0080148 0.0240524 -0.0080148 0.0160296 -0.00801881 0.0160336 -0.0080148 0.0240524 -0.00801881 0.0160336 -0.0080148 0.0160336 -0.00801881 0.0160296 -0.0080148 0.0160336 -0.00801881 0.0160336 -0.0080148 0.0160336 -0.00801881 0.0160336 -0.0080148 0.0160336 -0.0080148 0.0080148 -0.00801881 0.0160336 -0.0080148 0.0160336 -0.00801881 0.0160336 -0.0080148 0.0160336 -0.00801881 0.0160336 -0.0080148 0.0160336 -0.00801881 0.0080148 -0.0080148 0.0240524 -0.00801881 0.0160336 -0.0080148 0.0160336 -0.0080148 0.0160336 -0.00801881 0.0160296 -0.0080148 0.0240524 -0.00801881 0.0320672 0 0.0320632 0 0.0561196c0.0363075,0.0542244 0.0962017,0.122663 0.0962017,0.216448l0 0.0801681 0.0721492 0 -0.0156361 -0.00922344 -0.000397528 -0.0789594c0,-0.0332558 0.0701455,-0.139584 0.0881829,-0.160336l0.0080148 -0.0080148 0.00801881 -0.0160336 0.0080148 -0.0160336 0.00801881 -0.0080148 0.0080148 -0.0160336 0.00801881 -0.0160336 0.0080148 -0.0160336 0.0080148 -0.0160336 0.00801881 -0.0080148 0.0080148 -0.0160336 0.00801881 -0.0160336 0.0080148 -0.00801881 0.00801881 -0.0160336 0.0080148 -0.0160336 0.00801881 -0.0160296 0.0080148 -0.00801881 0.00801881 -0.0160336 0.0080148 -0.0160336 0.00801881 -0.0160336 0.0080148 -0.0080148 0.0080148 -0.0160336 0.00801881 -0.0160336 0.0080148 -0.0160336 0.00801881 -0.0160336 0.0080148 -0.0160336 0.00801881 -0.0240484 0.0080148 -0.0240484 0 -0.136284 -0.0080148 -0.0320672 -0.00801881 -0.0320672 -0.0080148 -0.0240484 -0.00801881 -0.0160336 -0.0080148 -0.0160336 -0.00801881 -0.0160376 -0.0080148 -0.00801078 -0.0080148 -0.00802283 -0.00801881 -0.0160336 -0.0080148 -0.0080148 -0.00801881 -0.00801881 -0.0080148 -0.0080148 -0.00801881 -0.00801881 -0.0080148 -0.0080148 -0.00801881 -0.0080148 -0.0080148 -0.00801881 -0.0160336 -0.0080148 -0.0160336 -0.00801881 -0.0160336 -0.0080148 -0.0320672 -0.00801881 -0.080164 0 0 0.00801881 0.0080148 0.0080148z"/>
    <path id="_114697256" class="fil12" d="M0.970011 2.12442l-0.0080148 0.0080148 -0.00801881 0.0160336 -0.0080148 0.0160336 -0.00801881 0.0160336 -0.0080148 0.0160336 -0.00801881 0.0160336 -0.0080148 0.0160336 -0.00801881 0.0320672 -0.0080148 0.0240484 -0.0080148 0.0320672 0 0.13628 0.0080148 0.040086 0.0080148 0.0240484 0.00801881 0.0160336 0.0080148 0.0160336 0.00801881 0.0160336 0.0080148 0.0160336 0.00801881 0.0160336 0.0080148 0.0080148 0.00801881 0.00801881 0.0080148 0.0080148 0.00802283 0.0160336 0.0160336 0.0080148 0.00801078 0.00801881 0.0080148 0.0160336 0.00802283 0.0080148 0.00801078 0.00801881 0.0160336 0.0080148 0.00802283 0.00801881 -0.0320672 0.0080148 -0.0160376 0.00801881 -0.00801078 0.0160296 -0.00802283 0.0240524 -0.00801078 0.0481008 0 0.0240484 0.0561156 0 0 0.040082 0.00801078 0.0481048 0.00802283 0.0481008 0.0080148 0.0480968 0.00801881 0.040086 -0.280586 0 0 0.0080148 0.7215 0 1.38688 0c-0.0412264,-0.0358297 -0.330341,-0.0881829 -0.424885,-0.0881829l-0.402262 0.000738839 -0.19097 -0.385541 0.545135 0c0.0310794,0 0.155008,0.264267 0.176366,0.304639l0.0320672 0 0 -0.0160336 -0.00801881 -0.0160376 -0.0080148 -0.0160336 -0.00801881 -0.0160336 -0.0080148 -0.0160336 -0.00801881 -0.0080148 -0.0080148 -0.0160336 -0.00801881 -0.0160336 -0.0080148 -0.0160336 -0.00801881 -0.0160336 -0.0080148 -0.0160336 -0.0080148 -0.0080148 -0.00801881 -0.0240524 -0.0080148 -0.0160336 -0.00801881 -0.0160336 -0.0080148 -0.0160336 -0.00801881 -0.0160296 -0.0080148 -0.0160336 -0.00801881 -0.00801881 -0.0080148 -0.0160336 -0.00801881 -0.0160336 -0.0080148 -0.0160336 -0.649351 0 -0.0080148 0.00801881 -0.00801881 0.0160336 0 0.0080148 0.00801881 0.0240524 0.0080148 0.0080148 0.0080148 0.0160336 0.00801881 0.0160336 0.0080148 0.0160336 0.00801881 0.0160336 0.0080148 0.0160336 0.00801881 0.0160336 0.0080148 0.0160296 0.00801881 0.0160336 0.0080148 0.0160336 0.00801881 0.0160336 0.0080148 0.00801881 0.0080148 0.0160336 0.00801881 0.0160296 0.0080148 0.0160336 0.00801881 0.0160336 0.0080148 0.0160336 0.00801881 0.00802283 0.0080148 0.0160336 0.00801881 0.0240484 0.0080148 0.0160336 0.00801881 0.00801078 0.0080148 0.0160376 0.00801881 0.0160336 0.0080148 0.0160336 0.0080148 0.0160336 0.00801881 0.0160336 0.0080148 0.0080148 0.00801881 0.0160336 -0.634414 0.00787024 0.00911503 -0.0319187 0.00801881 -0.0481008 0.0080148 -0.040082 0.00801881 -0.0481048 0.0080148 -0.0481008 0.0481008 -0.0080148 0 -0.0481008 -0.00801881 -0.0481008 -0.0080148 -0.0080148 -0.00801881 -0.0080148 -0.0170415 -7.62932e-005 0.00902669 -0.0480245 0 -0.0962017 -0.0170415 0.144218 -0.127257 8.4324e-005 -0.0721492 0 0 -0.0801681c0,-0.0937844 -0.0598941,-0.162223 -0.0962017,-0.216448l0 -0.0561196 -0.0080148 0 -0.00801881 0.0240524 -0.0080148 -0.00801881 -0.00801881 -0.0080148 -0.0080148 -0.0160336 -0.00801881 -0.0080148 -0.0080148 -0.00801881 -0.0080148 -0.0160336 -0.00801881 -0.0080148 -0.0080148 -0.0160336 -0.00801881 -0.00801881 -0.0080148 -0.0160336 -0.00802283 -0.0160296 -0.00801078 -0.0160336 -0.00802283 -0.0160336 -0.00801078 -0.0160336 -0.00802283 -0.0240524 -0.0080148 -0.0320632 -0.00801078 -0.040086 -0.0160336 0 -0.00802283 0.00801881z"/>
    <path id="_114697088" class="fil7" d="M2.46913 2.97418l-0.080164 -0.0160336c0.00940414,-0.0352193 0.0525299,-0.0504298 0.0852797,-0.0670537 0.0508755,-0.0258232 0.0698243,-0.00151783 0.123153,0.00292323 -0.0213581,-0.0403711 -0.145286,-0.304639 -0.176366,-0.304639l-0.545135 0 0.19097 0.385541 0.402262 -0.000738839z"/>
    <path id="_114696968" class="fil6" d="M3.10244 2.86195l-0.0080148 0.0160376 -0.0080148 0.0160336 -0.440918 0 -0.0160296 0 -0.0320672 0c-0.0533289,-0.00444107 -0.0722777,-0.0287465 -0.123153,-0.00292323 -0.0327498,0.0166239 -0.0758756,0.0318343 -0.0852797,0.0670537l0.080164 0.0160336c0.0945433,0 0.383658,0.0523532 0.424885,0.0881829 0.0882069,0 0.199165,0.0561156 0.264549,0.0561156 0.047093,0 0.0677122,-0.0370423 0.096278,-0.0571275l0.0480245 0.0090307 0.00801078 -0.0641344c-0.00644878,0.00448122 -0.019788,0.0160336 -0.0240444,0.0160336 -0.0874882,0 -0.166331,-0.0857214 -0.168355,-0.17637l-0.0080148 0 -0.00801881 0.0160336z"/>
    <path id="_114696776" class="fil11" d="M3.3189 2.52525l-0.00802283 0.0080148 -0.00801078 0.0080148 -0.00802283 0.00801881 -0.00801078 0.0080148 -0.00802283 0.0160336 -0.0080148 0.00801881 -0.00801078 0.0080148 -0.00802283 0.0160336 -0.00801078 0.00801881 -0.00802283 0.0160336 -0.0080148 0.0080148 -0.00801881 0.0080148 -0.0080148 0.0160336 -0.00801881 0.00801881 -0.0080148 0.0160336 -0.00801881 0.0160336 -0.0080148 0.0080148 -0.0080148 0.0160336 -0.00801881 0.0160336 -0.0080148 0.0080148 -0.00801881 0.0160336 -0.0080148 0.00801881 -0.00801881 0.0160336 -0.0080148 0.0160336 -0.00801881 0.0160296 0 0.0240524c0.00202378,0.0906483 0.0808667,0.17637 0.168355,0.17637 0.00425636,0 0.0175956,-0.0115524 0.0240444,-0.0160336 0.0518633,-0.0774496 0.160336,-0.162725 0.160336,-0.288601l0 -0.0240524c0,-0.0849785 -0.0548588,-0.169592 -0.13628,-0.176366l-0.00801881 0 -0.0080148 0.00801881z"/>
    <path id="_114696656" class="fil13" d="M0.769597 3.07038l-0.00801881 0.0080148 0 0.0641344 0.00801881 0.0080148 0.0080148 0.00801881 0.0160336 0 0.713486 0c-0.00833603,-0.0157525 -0.0160336,-0.0236469 -0.0160336,-0.0481008l0 -0.0160336c0,-0.0179771 0.00634438,-0.0175996 0.0160336,-0.0320672l-0.7215 0 -0.00801881 0 -0.0080148 0.00801881z"/>
    <path id="_114696536" class="fil5" d="M3.51931 2.38896l-0.0080148 0 -0.0160336 0.0080148 -0.00801881 0.00801881 -0.0160336 0.0080148 -0.0080148 0.00801881 -0.0160336 0.0080148 -0.0080148 0.00801881 -0.0160336 0.0080148 -0.00801881 0.0080148 -0.0160336 0.00801881 -0.0080148 0.0080148 -0.00801881 0.00801881 -0.0160336 0.0080148 -0.0080148 0.00801881 -0.0080148 0.0080148 -0.0160336 0.00801881 0 0.0080148c0.0814209,0.00677403 0.13628,0.0913872 0.13628,0.176366l0 0.0240524c0,0.125876 -0.108473,0.211151 -0.160336,0.288601l-0.00801078 0.0641344 -0.040082 0.0961976 -0.00802283 0.00801881 -0.00801078 0.0160296 -0.00802283 0.0160336 -0.0080148 0.0160336 -0.00801881 0.0240524 0 0.0561156c0.0422343,0.0098378 0.123559,0.04996 0.187336,0.0692019 0.0505784,0.0152546 0.161617,0.0350145 0.221519,0.0350145 -0.0303486,-0.130257 -0.124213,-0.510277 -0.117905,-0.649841l0.0374238 -0.377274 -0.031754 0.00899858z"/>
    <path id="_114696392" class="fil14" d="M0.0881829 3.05435l0.0080148 0.0320632 0.00801881 0.0240524 0.0080148 0.0240484 0.00801881 0.0240524 0.0080148 0.0240484 0.00801881 0.0240484 0.0080148 0.0240524 0.00801881 0.0240484 0.0080148 0.0160336 0.00801881 0.0160336 0.0080148 0.0160336 0.0080148 0.0160336 0.00801881 0.0160336 0.0080148 0.0160336 0.00801881 0.0160296 0.0080148 0c0.0711092,0.0818144 0.102831,0.0869903 0.186505,0.150197 0.0456755,0.0345006 0.160661,0.114247 0.206313,0.138404l0 -0.0240484 0 -0.0160336 -0.00801881 -0.00801881 -0.0080148 -0.0160336 -0.00801881 -0.0160336 -0.0080148 -0.0080148 -0.00801881 -0.0160336 -0.0080148 -0.00801881 -0.00801881 -0.0160296 -0.0080148 -0.0160336 -0.0080148 -0.00801881 -0.00801881 -0.0160336 -0.0080148 -0.0080148 -0.00801881 -0.0160336 -0.0080148 -0.00801881 -0.00801881 -0.0160296 -0.0080148 -0.00801881 -0.00801881 -0.0080148 -0.0080148 -0.00801881 -0.00801881 -0.0160336 -0.0080148 -0.0080148 -0.00801881 -0.00801881 -0.0080148 -0.0160336 -0.0080148 -0.0080148 -0.00801881 -0.0080148 -0.0080148 -0.0160336 -0.00801881 -0.00801881 -0.0080148 -0.0080148 -0.00801881 -0.00801881 -0.0080148 -0.0080148 -0.00801881 -0.00801881 -0.0080148 -0.0080148 -0.00801881 -0.00801881 -0.0080148 -0.0160296 -0.0080148 -0.00801881 -0.00801881 -0.0080148 -0.0080148 -0.00801881 -0.00801881 -0.0080148 -0.0080148 -0.00801881 -0.00801881 -0.0080148 -0.0080148 -0.00801881 -0.00801881 -0.0080148 -0.0080148 -0.00801881 -0.00801881 -0.0080148 -0.0080148 -0.0080148 -0.0080148 -0.00801881 -0.00801881 -0.0080148 -0.0080148 -0.00801881 -0.00801881 -0.0080148 -0.0080148 -0.00801881 -0.00801881 -0.0080148 -0.0080148 -0.00801881 -0.00801881 -0.0080148 -0.0080148 -0.00801881 -0.00801881 -0.0080148 -0.0160296 -0.00801881 -0.00801881 -0.0080148 -0.0080148 -0.0080148 -0.00801881 -0.00801881 -0.0080148 -0.0080148 -0.00801881 -0.00801881 -0.0080148 -0.0080148 -0.00801881 -0.00801881 -0.0080148 -0.0080148 -0.0160336 0 0 0.0320672z"/>
    <path id="_114696224" class="fil12" d="M3.7037 2.18855l-0.0160336 0.00801881c0.035665,0.0532647 0.0748356,0.0704788 0.112352,0.144182 0.0334566,0.0657085 0.0441737,0.117941 0.0672223,0.197322 0.0352033,0.12125 0.0529073,0.323178 0.0529073,0.476194l0 0.128269c0,0.248647 -0.0713622,0.461449 -0.173025,0.612606 -0.197692,0.293925 -0.495038,0.0853239 -0.620625,0.165006l0.312802 0 -0.00816738 0.777616 -0.0080148 0.0240524 0.00937201 0.0249479 -0.0254056 0.0311678 -0.00801881 0.0080148 -0.0080148 0.0160336 -0.00801881 0.0160336 -0.0080148 0.0080148 -0.00801881 0.00801881 -0.0080148 0.0080148 -0.0160336 0.00801881 -0.0080148 0.0080148 -0.00801881 0.00801881 -0.0080148 0.0080148 -0.0160336 0.00801881 -0.00802283 0.0080148 -0.00801078 0.00801881 -0.00802283 0.0080148 -0.0080148 0.0080148 -0.0160336 0.00801881 -0.00801078 0.0080148 -0.00802283 0.00801881 -0.0160336 0.0080148 -0.0080148 0.00801881 -0.00801881 0.0080148 -0.0080148 0.00801881 0 0.040082 0.593236 0 0 -0.040082 -0.00801881 -0.00801881 -0.0080148 -0.0080148 -0.00801881 -0.00801881 -0.0160336 -0.0080148 -0.0080148 -0.00801881 -0.00801881 -0.0080148 -0.0160296 -0.00801881 -0.00801881 -0.0080148 -0.0080148 -0.0080148 -0.00801881 -0.00801881 -0.0160336 -0.0080148 -0.0080148 -0.00801881 -0.00801881 -0.0080148 -0.0080148 -0.00801881 -0.0160336 -0.0080148 -0.0080148 -0.00801881 -0.00801881 -0.0080148 -0.0080148 -0.00801881 -0.00801881 -0.0080148 -0.0080148 -0.0160336 -0.00801881 -0.0080148 -0.0080148 -0.0160336 -0.00801881 -0.0240524 -0.0080148 -0.0240484 -0.00801881 -0.040082 -0.0080148 -0.769601 0.505049 0 0.0240484 -0.00801881 0.0160336 -0.0080148 0.0160336 -0.0080148 0.0080148 -0.00801881 0.0160336 -0.0080148 0.00801881 -0.00801881 0.0080148 -0.0080148 0.00801881 -0.00801881 0.0080148 -0.0080148 0.00801881 -0.00801881 0.0080148 -0.0080148 0.0080148 -0.00801881 0.00801881 -0.0080148 0.0080148 -0.0160336 0.00801881 -0.0080148 0.0080148 -0.0160336 0.00801881 -0.00801881 0.0080148 -0.0080148 0.00801881 -0.0160336 0.0080148 -0.0160336 0.00801881 -0.0160336 0.0080148 -0.0160336 0.0080148 -0.0160336 0.00801881 -0.0080148 0.0080148 -0.0160336 0.00801881 -0.0240484 0.0080148 -0.0160336 0.00801881 -0.0160336 0.0080148 -0.0160336 0.00801881 -0.0240524 0.0080148 -0.0160336 0.00801881 -0.0320632 0.0080148 -0.0240524 0.0080148 -0.0160336 0.00801881 -0.0240484 0.0080148 -0.0240484 0.00801881 -0.0240524 0.0080148 -0.0240484 0.00802283 -0.0320672 0.00801078 -0.0240484 0.00802283 -0.0240524 0.00801078 -0.0320632 0.00802283 -0.0320672 0.0080148 -0.040086 0.00801078 -0.0320632 0.00802283 -0.0320672 0.00801078 -0.040086 0.00802283 -0.0320632 0.0080148 -0.040086 0.00801881 -0.040082 0.0080148 -0.040082 0.00801881 -0.040082 0.0080148 -0.0481048 0.00801881 -0.0481008 0.0080148 -0.0561156 0.00801881 -0.0801681 0.0080148 -0.0641304 0.0080148 -0.0801681 0 -0.168347 -0.0080148 -0.0240524 -0.0080148 -0.0160336 -0.00801881 -0.0160336 -0.0080148 -0.0080148 -0.00801881 -0.00801881 -0.0080148 -0.0160296 -0.00801881 -0.00801881 -0.0160336 -0.0080148 -0.0080148 -0.00801881 -0.00802283 -0.0080148 -0.00801078 -0.00801881 -0.0160336 -0.0080148 -0.0080148 -0.00801881 -0.0160336 -0.0080148 -0.00802283 -0.00801881 -0.0160336 -0.0080148 -0.0160336 -0.0080148 -0.0240484 -0.00801881 -0.0240484 -0.0080148 -0.0240524 -0.00801881 -0.0240484 -0.0080148 -0.0320672 -0.00801881 -0.0320672 -0.0080148 -0.0480968 -0.00801881 -0.0962017 -0.0080148 -0.0080148 0 -0.144302 0.0080148 -0.0160336 0.00801881 0 -0.809683 -0.0080148 0c0,0.17904 0,0.358076 0,0.537116 0,0.400672 0.0382068,0.210437 -0.200414,0.336698z"/>
    <path id="_114696104" class="fil15" d="M3.28683 2.08433l0.0635683 0.176583 -1.00954 0.00780198 1.01812 0.0080148 0.0080148 0.0160336 0.00801881 0.00801881 0.0080148 0.0160336 0.00801881 0.0080148 0.0080148 0.00801881 0.0561156 0 0.0240524 0 0.0160336 0 0 0.0160336 0.0080148 0.0080148 0.00801881 0.0080148 0.0080148 0.00801881 0 0.0080148 0 0.00801881 0.031754 -0.00899858 -0.0374238 0.377274c-0.00630824,0.139564 0.0875564,0.519585 0.117905,0.649841 0.00208401,0.0250764 0.0080148,0.0284774 0.0080148,0.0561156l0 0.080164c0,0.0434028 -0.0149695,0.0626527 -0.0320672,0.0881869 -0.0924111,0 -0.177149,0.0172744 -0.184381,0.104212 -0.121736,0 -0.258666,0.0202458 -0.376993,0.0238476 -0.042411,0.00129297 -0.23681,0.12588 -0.256325,0.152518l0.328679 0 0 0.0160336 0.00801881 0 0 -0.0080148c0.125587,-0.0796822 0.422933,0.128919 0.620625,-0.165006 0.101663,-0.151157 0.173025,-0.363959 0.173025,-0.612606l0 -0.128269c0,-0.153016 -0.017704,-0.354944 -0.0529073,-0.476194 -0.0230486,-0.079381 -0.0337657,-0.131614 -0.0672223,-0.197322 -0.0375162,-0.0737032 -0.0766867,-0.0909174 -0.112352,-0.144182 -0.010404,0.00696276 -0.0959567,0.0721492 -0.0962017,0.0721492 -0.0268753,0 -0.12025,-0.0576576 -0.12025,-0.0881829l0 -0.0160336c0,-0.0350226 0.0160336,-0.0291159 0.0160336,-0.0641344l0 -0.0240484 -0.0320672 0c-0.0337497,0 -0.028104,0.0355928 -0.0561156,0.0561156 -0.0516424,-0.0345809 -0.0204867,-0.0481008 -0.112231,-0.0481008z"/>
    <path id="_114695912" class="fil11" d="M4.82602 2.95013l-0.0080148 0.0721492 -0.0080148 0.0481008 -0.00801881 0.040082 -0.0080148 0.0240484 -0.00801881 0.0320672 -0.0080148 0.0240484 -0.00801881 0.0240524 -0.0080148 0.0160336 -0.00801881 0.0240484 -0.0080148 0.0160336 -0.00801881 0.0240484 -0.0080148 0.0160336 -0.0080148 0.0240524 -0.00801881 0.0160336 -0.0080148 0.0160296 -0.00801881 0.0160336 -0.0080148 0.0160336 -0.00801881 0.00801881 -0.0080148 0.0160336 -0.00801881 0.0160336 -0.0080148 0.0080148 -0.00801881 0.0160336 -0.0080148 0.0160336 -0.0080148 0.0080148 -0.00801881 0.0160336 -0.0080148 0.0160336 -0.00801881 0.00801881 -0.0080148 0.0080148 -0.00801881 0.0160336 -0.0080148 0.0080148 -0.00801881 0.0160336 -0.0080148 0.00801881 -0.00801881 0.0080148 -0.0080148 0.00801881 -0.0080148 0.0160336 -0.00801881 0.0080148 -0.0080148 0.00801881 -0.00801881 0.0160296 -0.0080148 0.00801881 -0.00801881 0.0080148 -0.0080148 0.0160336 -0.00801881 0.00801881 -0.0080148 0.0080148 -0.00802283 0.0160336 -0.00801078 0.00801881 -0.00802283 0.0160296 -0.00801078 0.0160336 -0.0080148 0.0160336 -0.00802283 0.0160336 -0.00801078 0.0160336 -0.00802283 0.0160336 -0.00801078 0.0160336 -0.00802283 0.0160336 -0.0080148 0.0240484 -0.00801881 0.0160336 -0.0080148 0.0240484 -0.00801881 0.0160336 -0.0080148 0.0320672 -0.0080148 0.0240524 -0.00801881 0.0320632 -0.0080148 0.04009 -0.00801881 0.040082 -0.0080148 0.0481008 -0.00801881 0.0561156 -0.0080148 0.0961976 0 0.176366 0.0080148 0 0.0160336 0.0160336c0.010139,-0.0379659 0.102478,-0.165528 0.130357,-0.19833 0.0280478,-0.0329988 0.0517187,-0.0566577 0.0802644,-0.0880825 0.0233698,-0.0257269 0.0448162,-0.0694549 0.0699648,-0.0983901l0.00801881 0 0.0080148 -0.0160336 0.00801881 -0.00801078 0.0080148 -0.0160376 0.0080148 -0.0160336 0.00801881 -0.00801078 0.0080148 -0.0160376 0.00801881 -0.0160336 0.0080148 -0.00801881 0.00801881 -0.0160296 0.0080148 -0.00801881 0.00801881 -0.0160336 0.0080148 -0.0160336 0.00801881 -0.0160336 0.0080148 -0.0160336 0.0080148 -0.0160296 0.00801881 -0.0160336 0.0080148 -0.0160336 0.00801881 -0.0160336 0.0080148 -0.0160336 0.00801881 -0.0160336 0.0080148 -0.0160336 0.00801881 -0.0160336 0.0080148 -0.0160336 0.00801881 -0.0240484 0.0080148 -0.0160336 0.0080148 -0.0240484 0.00801881 -0.0240524 0.0080148 -0.0240484 0.00801881 -0.0160336 0.0080148 -0.0240484 0.00801881 -0.0240524 0.0080148 -0.0240484 0.00801881 -0.0320672 0.0080148 -0.0320672 0.00801881 -0.0320672 0.0080148 -0.040082 0.0080148 -0.0481008 0.00801881 -0.0641304 0 -0.224467 -0.00801881 -0.0641344 -0.0080148 -0.040082 -0.0080148 -0.0320672 -0.00801881 -0.0320712 -0.0080148 -0.0240484 -0.00801881 -0.0240444 -0.0080148 -0.0240564 -0.00801881 -0.0160336 -0.0080148 -0.0160336 -0.00801881 -0.0080148 -0.0080148 0 -0.00801881 0.136288z"/>
    <path id="_114695792" class="fil5" d="M0 3.25476l0.0080148 0.0481008 0.00801881 0.0320672 0.0080148 0.0240484 0.00801881 0.0240484 0.0080148 0.0240524 0.00801881 0.0160336 0.0080148 0.0240484 0.00801881 0.0160336 0.0080148 0.0080148 0.00801881 0.0160336 0.0080148 0.0160336 0.0080148 0.00801881 0.00801881 0.0080148 0.0080148 0.0160336 0.00801881 0.0080148 0.0080148 0.00801881 0.00801881 0.0160336 0.0080148 0.0080148 0.00801881 0.00801881 0.0080148 0.0080148 0.00801881 0.00801881 0.0080148 0.0080148 0.0080148 0.00801881 0.00801881 0.0080148 0.0080148 0.00801881 0.00801881 0.0080148 0.0080148 0.0080148 0.00801881 0.00801881 0.0080148 0.0080148 0.00801881 0.00801881 0.0080148 0.0080148 0.00801881 0.00801881 0.0080148 0.0080148 0.0160336 0.00801881 0.0080148 0.0080148 0.00801881 0.00801881 0.0160336 0.0080148 0.0080148 0.0080148 0.00801881 0.00801881 0.0160336 0.0080148 0.0080148 0.00801881 0.0080148 0.0080148 0.0160336 0.00801881 0.0160336 0.0080148 0.00801881 0.00801881 0.0240484 0.0080148 0.00801881 0.00801881 0.0160296 0.0080148 0.0160336 0.0080148 0.0160336 0.00801881 0.0160336 0.0080148 0.0160336 0.00801881 0.0160336 0.0080148 0.00801881 0.00801881 0.0080148 0.0080148 0.0080148 0.00801881 0.00801881 0.0160336 0.0080148 0.0080148 0.00801881 0.0160336 0.0080148 0.0080148 0.00801881 0.0160336 0.0080148 0.00801881 0.00801881 0.0160336 0.0080148 0.0080148 0.00801881 0.0160336 0.0080148 0.0080148 0.0080148 0.0160336 0.00801881 0.00801881 0.0080148 0.0160376 0.00801881 0.00801078 0.0080148 0.00802283 0.00801881 0.0160336 0.0080148 0.0080148 0.00801881 0.00801078 0.0080148 0.0160336 0.00801881 0.00802283 0.0080148 0.0160336 0.0080148 0.0160336 0.00801881 0.0080148 0.0080148 0.0160336 0.0240524 0 0.0080148 -0.040082 0.00801881 -0.0481008 0 -0.136288 -0.00801881 -0.0480968 -0.0080148 -0.0320672 -0.00801881 -0.0240524 -0.0080148 -0.0160336 -0.00801881 -0.0240484 -0.0080148 -0.0080148 -0.00801881 -0.0160336 -0.0080148 -0.0160336 -0.0080148 -0.0160336 -0.00801881 -0.00801881 -0.0080148 -0.0080148 -0.00801881 -0.0080148 -0.0080148 -0.00801881 -0.00801881 -0.0080148 -0.0080148 -0.00801881 -0.00801881 -0.0080148 -0.0080148 -0.00801881 -0.0160336 -0.0080148 -0.0080148 -0.0240524 -0.00801881 -0.0160296 -0.0080148 0 0 0.0240484c-0.0456514,-0.0241568 -0.160637,-0.103903 -0.206313,-0.138404 -0.0836735,-0.0632069 -0.115395,-0.0683828 -0.186505,-0.150197l-0.0080148 0 -0.00801881 -0.0080148 -0.0080148 -0.0080148 -0.00801881 -0.00801881 -0.0160296 -0.0080148 -0.00801881 -0.00801881 -0.0080148 -0.0080148 -0.00801881 -0.00801881 -0.0080148 -0.0080148 -0.00801881 -0.00801881 -0.0080148 -0.0080148 -0.00801881 -0.00801881 -0.0080148 -0.0080148 -0.00801881 -0.0160336 -0.0080148 -0.0080148 -0.0080148 -0.00801881 -0.00801881 -0.0080148 -0.0080148 -0.0160336 -0.00801881 -0.0160336 -0.0080148 -0.0160336 -0.00801881 -0.0160336 -0.0080148 -0.0160336 -0.00801881 -0.0240484 -0.0080148 -0.0160336 -0.0160336 0 0 0.144298z"/>
    <polygon id="_114695624" class="fil16" points="2.88599,4.12858 2.88599,4.1366 2.89401,4.15263 2.90203,4.16065 2.91004,4.16866 2.91806,4.17668 2.92608,4.19271 2.93409,4.20073 2.94211,4.20874 2.95013,4.22478 2.95814,4.2328 2.96616,4.24081 2.97418,4.24883 2.9822,4.25685 2.99021,4.26486 2.99823,4.28089 3.00624,4.28891 3.01426,4.29693 3.02228,4.31296 3.03029,4.32098 3.03831,4.32899 3.04633,4.34503 3.05434,4.35305 3.06236,4.36106 3.07038,4.36908 3.07839,4.3771 3.08641,4.38511 3.09443,4.40114 3.10244,4.40916 3.11046,4.4252 3.11848,4.43321 3.12649,4.44123 3.13451,4.44924 3.14253,4.45726 3.15054,4.46528 3.15856,4.48131 3.16658,4.48933 3.17459,4.49735 3.18261,4.50536 3.19062,4.52139 3.19864,4.52941 3.20666,4.53743 3.21468,4.55346 3.22269,4.56148 3.23071,4.56949 3.23873,4.57751 3.24675,4.58553 3.25476,4.60156 3.26278,4.60958 3.27079,4.6176 3.27881,4.62561 3.28683,4.64164 3.29484,4.64966 3.30286,4.65768 3.31087,4.66569 3.3189,4.68173 3.32691,4.68974 3.33493,4.69776 3.34295,4.70578 3.35096,4.72181 3.35898,4.72983 3.36699,4.73784 3.37501,4.74586 3.38303,4.75388 3.39105,4.76991 3.39906,4.77793 3.40708,4.77793 3.43249,4.74676 3.42311,4.72181 3.42311,4.71379 3.41509,4.70578 3.40708,4.69776 3.39906,4.68173 3.39105,4.67371 3.38303,4.65768 3.37501,4.64966 3.36699,4.64164 3.35898,4.63363 3.35096,4.62561 3.34295,4.60958 3.33493,4.60156 3.32691,4.59354 3.3189,4.58553 3.31087,4.56949 3.30286,4.56148 3.29484,4.55346 3.28683,4.54544 3.27881,4.52941 3.27079,4.52139 3.26278,4.51338 3.25476,4.50536 3.24675,4.48933 3.23873,4.48131 3.23071,4.47329 3.22269,4.46528 3.21468,4.45726 3.20666,4.44123 3.19864,4.43321 3.19062,4.4252 3.18261,4.40916 3.17459,4.40114 3.16658,4.39313 3.15856,4.38511 3.15054,4.36908 3.14253,4.36106 3.13451,4.35305 3.12649,4.34503 3.11848,4.33701 3.11046,4.32098 3.10244,4.31296 3.09443,4.30495 3.08641,4.28891 3.07839,4.28089 3.07038,4.27288 3.06236,4.26486 3.05434,4.25685 3.04633,4.24883 3.03831,4.2328 3.03029,4.22478 3.02228,4.21676 3.01426,4.20073 3.00624,4.19271 2.99823,4.1847 2.99021,4.17668 2.9822,4.16866 2.97418,4.15263 2.96616,4.14461 2.95814,4.1366 2.95013,4.12858 2.94211,4.11255 2.93409,4.10452 2.92608,4.09651 2.91806,4.08849 2.87729,4.11297 "/>
    <path id="_114695480" class="fil2" d="M2.42103 4.60156l0 0.0080148 0.0080148 0.00801881 0.00801881 0.0080148 0.0080148 0.0160336 0.0080148 0.0080148 0.00801881 0.00801881 0.0080148 0.0080148 0.00801881 0.0160336 0.0080148 0.00801881 0.00801881 0.0080148 0.0080148 0.00801881 0.00801881 0.0160336 0.0080148 0.0080148 0.00801881 0.0080148 0.0080148 0.00801881 0.00801881 0.0160336 0.0080148 0.0080148 0.0080148 0.00801881 0.00801881 0.0080148 0.0080148 0.0160336 0.00801881 0.0160336c0.0118897,-0.0136806 0.0160336,-0.0139295 0.0160336,-0.040082l0 -0.0320672c0,-0.0261565 -0.00414392,-0.0264055 -0.0160336,-0.040082l-0.00801881 0 -0.0080148 -0.0160336 -0.00801881 -0.00801881 -0.0080148 -0.0080148 -0.0080148 -0.00801881 -0.00801881 -0.0160336 -0.0080148 -0.0080148 -0.00801881 -0.0080148 -0.0080148 -0.00801881 -0.00801881 -0.0160336 -0.0080148 -0.0080148 -0.00801881 -0.00801881 -0.0080148 -0.0080148 -0.00801881 -0.0160336 -0.0080148 -0.00801881 -0.00801881 -0.0080148 -0.0320632 0.0240484 0 0.0240524z"/>
    <path id="_114695360" class="fil17" d="M3.17459 3.31088l-0.0240524 0.00801881 -0.0240484 0.0080148 -0.0240524 0.00801881 -0.0240484 0.0080148 -0.0240484 0.00801881 -0.0240524 0.0080148 -0.0160336 0.0080148 -0.0240484 0.00801881 -0.0240484 0.0080148 -0.0240524 0.00801881 -0.0160336 0.0080148 -0.0320632 0.00801881 -0.0240524 0.0080148 -0.0160336 0.00801881 -0.0240484 0.0080148 -0.0160336 0.00801881 -0.0240484 0.0080148 -0.0160336 0.0080148 -0.0240524 0.00801881 -0.0160336 0.0080148 -0.0160296 0.00801881 -0.0160336 0.0080148 -0.0240524 0.00801881 -0.0240484 0.0080148 -0.0160336 0.00801881 -0.0160336 0.0080148 -0.0160336 0.00801881 -0.0160336 0.0080148 -0.0160336 0.0080148 -0.0160336 0.00801881 -0.0160296 0.0080148 -0.0160336 0.00801881 -0.00801881 0.0080148 -0.0080148 0.00801881 -0.0324888 0.024735 -0.015612 -0.00870144 0 0.0160336 -0.0160336 0 -0.0080148 0.0080148 -0.00801881 0.00801881 -0.0080148 0.0080148 -0.00801881 0.0080148 -0.0080148 0.00801881 -0.00801881 0.0080148 -0.0080148 0.00801881 -0.00801881 0.0160336 -0.0080148 0.0240484 -0.00801881 0.0481008 0 0.0721492 0.00801881 0.0881829 0.0080148 0.0481008 0.00801881 0.0480968 0.0080148 0.04009 0 0.0160336 -0.0080148 0.0080148 -0.00801881 0.00801078 -0.0080148 0.0160336 -0.00801881 0.00802283 -0.0080148 0.0160336 -0.0080148 0.0080148 -0.00801881 0.0160336 -0.0080148 0.0160336 -0.00801881 0.00801881 -0.0080148 0.0160296 -0.00801881 0.0160336 -0.0080148 0.00801881 -0.00801881 0.0160336 -0.0080148 0.0080148 -0.00801881 0.0160336 -0.0080148 0.00801881 -0.0080148 0.0160296 -0.00801881 0.0160336 0 0.00801881 -0.0320672 0.0561156 -0.0080148 0 -0.00802283 0.0160336 -0.00801078 0.0080148 -0.00802283 0.0160336 -0.00801078 0.0160336 -0.0080148 0.00801881 -0.00802283 0.0160336 -0.00801078 0.0160296 -0.00802283 0.0160336 -0.00801078 0.0160336 -0.00802283 0.00801881 -0.0080148 0.0160336 -0.00801881 0.0160336 -0.0080148 0.0160296 -0.00801881 0.00801881 -0.0080148 0.0160336 -0.0080148 0.0160336 -0.00801881 0.0160336 -0.0080148 0.0160336 -0.00801881 0.0160336 -0.0080148 0.0080148 -0.112235 0 -0.0641304 0 0.0320632 0.0080148c0.00100386,0.0450531 0.0390701,0.0561196 0.0801681,0.0561196 0.0514256,0 0.0789313,-0.0144435 0.10826,-0.0268231l0.148278 0.106987 0 0.0240524 0.0080148 0 0.00801881 -0.0240524 0.0080148 -0.0080148 0.0080148 -0.00801881 0.00801881 -0.0080148 0.0080148 -0.00801881 0.00801881 -0.0080148 0.0080148 -0.00801881 0.00801881 -0.0080148 0.0080148 -0.0080148 0.00801881 -0.0160336 0.0080148 -0.00801881 0.00801881 -0.0080148 0.0080148 -0.0160336 0.0080148 -0.00801881 0.00801881 -0.0080148 0.0080148 -0.00801881 0.00801881 -0.0080148 0.0080148 -0.0080148 0.00801881 -0.0160336 0.0080148 -0.00801881 0.00801881 -0.0080148 0 -0.0240524 0.0320632 -0.0240484 0.00801881 0 0.0080148 -0.0160336 0.00801881 -0.0080148 0.0080148 -0.00801881 0.00801881 -0.0080148 0.0080148 -0.0160336 0.00801881 0 0.0080148 0.0240484 0.00801881 0.0240484 0.0080148 0.0320672 0.00801881 0.0320672 0.0080148 0.0240524 0.0080148 0.0160296 0.00801881 0.0240524 0.0080148 0.0240484 0.00801881 0.00801881c0.0118897,0.0136766 0.0160336,0.0139255 0.0160336,0.040082l0 0.0320672c0,0.0261525 -0.00414392,0.0264015 -0.0160336,0.040082l-0.00801881 0 -0.0160336 0.0080148 -0.0160296 0.00801881 -0.0160336 0.0080148 -0.0160336 0.00801881 -0.0240524 0.0080148 -0.0160336 0.00801881 -0.0160336 0.0080148 -0.0160296 0.00801881 -0.0160336 0.0080148 0 0.00801881c0.0441617,0.00098378 0.0409935,0.0160296 0.0641304,0.0160296 0.0678447,0 0.168351,-0.0542806 0.168351,-0.128265l0 -0.040082 0.0721492 0c0.0444147,0 0.0991811,-0.0166801 0.128843,-0.033561l0.0234742 0.00951255 0 -0.0240524 -0.00801881 -0.040082 -0.0080148 -0.0721492 -0.00801881 -0.0721492 -0.0080148 -0.0721492 -0.00801881 -0.0721533 -0.0080148 -0.0721492 -0.00801881 -0.104216 0 -0.0160296 0.00801881 -0.00801881 0.0080148 -0.0080148 0.00801881 -0.00801881 0.0160336 -0.0080148 0.0080148 -0.00801881 0.0160336 -0.0080148 -0.00870144 -0.015612 0.0407687 -0.0244781 0.0080148 0 0.00801881 -0.00801078 0.0160336 -0.0080148 0.0080148 -0.00802283 0.00801881 -0.00801078 0.0080148 -0.00802283 0.0160336 -0.00801078 0.00801881 -0.00802283 0.0080148 -0.0080148 0.0080148 -0.00801881 0.00801881 -0.0080148 0.0080148 -0.00801881 0.0160336 -0.0080148 0.00801881 -0.0080148 0.0160336 -0.00801881 0.0080148 -0.0080148 0.00801881 -0.00801881 0.0080148 -0.0080148 0.0080148 -0.00801881 0.00801881 -0.0080148 0.0080148 -0.00801881 0 -0.0160336 -0.328679 0c0.019515,-0.0266384 0.213914,-0.151225 0.256325,-0.152518 0.118327,-0.00360184 0.255257,-0.0238476 0.376993,-0.0238476 0.00723179,-0.0869381 0.0919694,-0.104212 0.184381,-0.104212 0.0170977,-0.0255341 0.0320672,-0.0447841 0.0320672,-0.0881869l0 -0.080164c0,-0.0276382 -0.00593079,-0.0310393 -0.0080148,-0.0561156 -0.0599022,0 -0.170941,-0.0197599 -0.221519,-0.0350145 -0.0637771,-0.0192419 -0.145102,-0.0593641 -0.187336,-0.0692019l-0.0160336 0 -0.0320632 0.0080148z"/>
    <path id="_114695192" class="fil18" d="M2.42103 4.89818l-0.0240524 0 -0.0160336 0.0080148 -0.0160336 0.0080148 -0.0080148 0.00801881 -0.0240484 0.0080148 -0.00801881 0.00801881 -0.0160336 0.0080148 -0.0080148 0.00801881 -0.00801881 0.0080148 -0.0080148 0.00801881 -0.00801881 0.0160336 0 0.0240484 0.625299 0 0 -0.0962017 -0.0080148 -0.112231 -0.00801881 -0.0641344 -0.0080148 -0.0160296 -0.0234742 -0.00951255c-0.029662,0.0168809 -0.0844284,0.033561 -0.128843,0.033561l-0.0721492 0 0 0.040082c0,0.0739843 -0.100506,0.128265 -0.168351,0.128265 -0.0231369,0 -0.0199687,-0.0150458 -0.0641304,-0.0160296z"/>
    <path id="_114694736" class="fil5" d="M5.05851 3.67964l-0.00801881 0.00801881 -0.0080148 0.0080148 -0.00801881 0.00801881 -0.0080148 0.0080148 -0.00801881 0.00801881 -0.0080148 0.0080148 -0.0080148 0.0080148 -0.00801881 0.00801881 0 0.0160336 -0.0160336 0 -0.0080148 0.0080148 -0.00801881 0.00801881 -0.0080148 0.0080148 -0.00801881 0.00801881 -0.0080148 0.0080148 -0.00801881 0.00801881 -0.0080148 0.0080148 -0.00801881 0.0080148 -0.0080148 0.00801881 -0.0080148 0.0080148 -0.00801881 0.00801881 -0.0080148 0.0080148 -0.00801881 0.00801881 -0.0080148 0.0080148 -0.00801881 0.00801881 -0.0160336 0.0080148 -0.0080148 0.00801881 -0.00801881 0.0080148 -0.0080148 0.0080148 -0.0080148 0.00801881 -0.00801881 0.0080148 -0.0080148 0.00801881 -0.00801881 0.0080148 -0.0080148 0.00801881 -0.00801881 0.0080148 -0.0080148 0.00801881 -0.00801881 0.0080148 -0.0160336 0.00801881 -0.0080148 0.0080148 -0.0080148 0.0080148 -0.00801881 0.00801881 -0.0080148 0.0080148 -0.00801881 0.00801881 -0.0080148 0.0080148 -0.00801881 0.00802283 -0.0080148 0.00801078 -0.00801881 0.00802283 -0.0080148 0.00801078 -0.00801881 0.00802283 -0.0080148 0.0080148 -0.0080148 0.00801078 -0.00801881 0.00802283 -0.0080148 0.00801078 -0.00801881 0c-0.0251486,0.0289352 -0.046595,0.0726632 -0.0699648,0.0983901 -0.0285457,0.0314248 -0.0522166,0.0550837 -0.0802644,0.0880825 -0.0278791,0.032802 -0.120218,0.160364 -0.130357,0.19833l-0.0160336 -0.0160336 -0.0080148 0.0320672 -0.00801881 0.0160336 -0.0080148 0.0240484 -0.00801881 0.0160336 -0.0080148 0.0160336 -0.0080148 0.0240524 -0.00801881 0.0240484 -0.0080148 0.0240484 -0.00801881 0.0481008 -0.0080148 0.0481008 0 0.128265 0.0080148 0.0481008 0.00801881 0.0481008 0.0080148 0.0240484 0.00801881 0.0160336 0.17637 0 0 -0.0240484 -0.00802283 -0.0240524 -0.00801078 -0.0481008 0 -0.040082 0.00801078 -0.0481008 0.00802283 -0.0320632 0.0080148 -0.0240524 0.00801078 -0.0240484 0.00802283 -0.0160336 0.00801078 -0.0080148 0.00802283 -0.0160336 0.0080148 -0.0160336 0.00801881 -0.00801881 0.0080148 -0.0160336 0.00801881 -0.0080148 0.0080148 -0.00801881 0.00801881 -0.0080148 0.0080148 -0.0160336 0.00801881 -0.0080148 0.0080148 -0.00801881 0.0080148 -0.0080148 0.00801881 -0.00801881 0.0080148 -0.0080148 0.00801881 -0.00801881 0.0080148 -0.0080148 0.00801881 -0.00801881 0.0080148 -0.0080148 0.00801881 -0.00801881 0.0160336 -0.0080148 0.0080148 -0.0160336 0.0160336 -0.0080148 0.0080148 -0.00801881 0.00801881 -0.0080148 0.0080148 -0.00801881 0.00801881 -0.0080148 0.0080148 -0.00801881 0.00801881 -0.0080148 0.0080148 -0.00801881 0.00801881 -0.0080148 0.0080148 -0.0080148 0.0080148 -0.00801881 0.00801881 -0.0160336 0.0080148 -0.0080148 0.00801881 -0.00801881 0.0080148 -0.0080148 0.00801881 -0.00801881 0.0080148 -0.0080148 0.00801881 -0.00801881 0.0080148 -0.0080148 0.00801881 -0.0080148 0.0080148 -0.00801881 0.0080148 -0.0160336 0.00801881 -0.0080148 0.0080148 -0.00801881 0.00801881 -0.0160336 0.0080148 -0.0080148 0.00801881 -0.00801881 0.0080148 -0.0160296 0.00801881 -0.00801881 0.0080148 -0.0080148 0.00801881 -0.00801881 0.0080148 -0.0160336 0.0080148 -0.0080148 0.00801881 -0.0160336 0.0080148 -0.0160336 0.00801881 -0.0080148 0.0080148 -0.0160336 0.00801881 -0.00801881 0.0080148 -0.0160336 0.00801881 -0.0080148 0.0080148 -0.0160336 0.00801881 -0.0160336 0.0080148 -0.0160336 0.00801881 -0.0160376 0.0080148 -0.00801078 0.0080148 -0.0240564 0.00801881 -0.0240484 0.0080148 -0.0160336 0.00801881 -0.0160336 0.0080148 -0.0240484 0.00801881 -0.0240524 0.0080148 -0.0320632 0.00801881 -0.0240524 0.0080148 -0.0481008 0 -0.152313 -0.0160336 0 -0.0080148 0.0080148z"/>
    <path id="_114694568" class="fil2" d="M2.69359 3.1746l-0.0080148 0.0080148 -0.00801881 0.0080148 -0.0080148 0.00801881 -0.00801881 0.0160336 -0.0080148 0.0080148 -0.00801881 0.00801881 -0.0080148 0.0080148 -0.0080148 0.00801881 -0.00801881 0.0160336 -0.0080148 0.0080148 -0.00801881 0.0080148 -0.0080148 0.0160336 -0.00801881 0.00801881 -0.0080148 0.0080148 -0.00801881 0.00801881 -0.0080148 0.0080148 -0.00801881 0.00801881 -0.0080148 0.0160336 -0.0080148 0.0080148 -0.00801881 0.0080148 -0.0080148 0.0160336 -0.00801881 0.00801881 -0.0080148 0.0080148 -0.00801881 0.00801881 -0.0080148 0.0080148 -0.00801881 0.0160336 -0.0080148 0.00801881 -0.00801881 0.0080148 -0.0080148 0.0080148 -0.00801881 0.0160336 -0.0080148 0.00801881 -0.0160336 0 -0.0080148 -0.0160336 -0.00801881 -0.00801881 -0.0080148 -0.0080148 -0.00801881 -0.0080148 -0.0080148 -0.0160336 -0.00801881 -0.00801881 -0.0080148 -0.0080148 -0.00801881 -0.00801881 -0.0080148 -0.0080148 -0.0080148 -0.0160336 -0.00801881 -0.00801881 -0.0080148 -0.0080148 -0.00801881 -0.0160336 -0.0080148 -0.0080148 -0.00801881 -0.00801881 -0.0080148 -0.0080148 -0.00801881 -0.00801881 -0.0080148 -0.0080148 -0.00801881 -0.0160336 -0.0080148 -0.00801881 -0.0080148 -0.0080148 -0.00801881 -0.0160336 -0.0080148 -0.0080148 -0.00801881 -0.00801881 -0.0080148 -0.0160336 -0.00801881 -0.0080148 -0.0080148 -0.00801881 -0.00802283 -0.0080148 -0.00801078 -0.00801881 -0.00802283 -0.0160296 0.505053 0zm-0.585217 0l0.0080148 0.0080148 0.00801881 0.0080148 0.0080148 0.0160336 0.00802283 0.00801881 0.00801078 0.0080148 0.00802283 0.00801881 0.00801078 0.0160336 0.00802283 0.0080148 0.0080148 0.00801881 0.00801078 0.0080148 0.00802283 0.0160336 0.00801078 0.0080148 0.00802283 0.00801881 0.0080148 0.0080148 0.00801881 0.00801881 0.0080148 0.0080148 0.00801881 0.0160336 0.0080148 0.00801881 0.00801881 0.0160296 0.0080148 0.00801881 0.0080148 0.0080148 0.00801881 0.00801881 0.0080148 0.0160336 0.0160336 0 0 0.0160336 0.00801881 0.0080148 0.0080148 0.00801881 0.00801881 0.0080148 0.0080148 0.0160336 0.00801881 0.0080148 0.0080148 0.0160336 0.0080148 0.00801881 0.00801881 0.0080148 0.0080148 0.00801881 0.00801881 0.0080148 0.0080148 0.00801881 0 0.0080148 -0.0080148 0.0160336 -0.00801881 0.0080148 -0.0080148 0.00801881 -0.00801881 0.0160336 -0.0080148 0.0080148 -0.0080148 0.00801881 -0.00801881 0.0080148 -0.0080148 0.0160336 -0.00801881 0.00801881 -0.0080148 0.0080148 -0.00801881 0.0080148 -0.0080148 0.00801881 -0.00801881 0.0160336 -0.0080148 0.0080148 -0.00801881 0.00801881 -0.0080148 0.0080148 -0.0080148 0.00801881 -0.00801881 0.0160336 -0.0080148 0.0080148 -0.00801881 0.0160336 -0.0080148 0.0080148 -0.00801881 0.00801881 -0.0080148 0.0080148 -0.00802283 0.0160336 -0.00801078 0.00801881 -0.00802283 0.0080148 -0.00801078 0.00801881 -0.0080148 0.0080148 -0.00802283 0.0080148 -0.00801078 0.0160336 -0.00802283 0.00801881 -0.00801078 0.0160336 -0.00802283 0.0080148 -0.0080148 0.00801881 -0.00801881 0.0080148 -0.0080148 0.00801881 -0.00801881 0.0080148 -0.0080148 0.0160336 -0.0080148 0.0080148 -0.00801881 0.00801881 -0.0080148 0.0080148 -0.00801881 0.0160336 -0.0080148 0.00801881 -0.00801881 0.0080148 -0.0080148 0.00801881 -0.000144555 0.0171298 -0.0319227 -0.00911503 -0.0080148 -0.0080148 -0.00801881 -0.00801881 -0.0080148 -0.0080148 -0.00801881 -0.00801881 -0.0080148 -0.0160336 -0.00801881 -0.0080148 -0.0080148 -0.0160336 -0.00801881 -0.00801881 -0.0080148 -0.0080148 -0.00801881 -0.0080148 -0.0080148 -0.00801881 -0.00801881 -0.0080148 -0.0080148 -0.0160336 -0.0080148 -0.00801881 -0.00801881 -0.0080148 -0.0080148 -0.00801881 -0.00801881 -0.0160336 -0.0080148 -0.0080148 -0.00801881 -0.0160336 -0.0080148 -0.0080148 -0.00801881 -0.00801881 -0.0080148 -0.0080148 -0.00801881 -0.00801881 -0.0080148 -0.0080148 -0.0080148 -0.0160336 -0.00801881 -0.00801881 -0.0080148 -0.0080148 -0.00801881 -0.0080148 -0.0080148 -0.0160336 -0.00801881 -0.00801881 -0.0080148 -0.0080148 -0.00801881 -0.00801881 -0.0080148 -0.0160336 -0.00801881 -0.0080148 -0.0080148 -0.00801881 -0.0080148 -0.0080148 -0.00801881 -0.0160336 -0.0080148 -0.0080148 -0.00801881 -0.00801881 -0.0080148 -0.0080148 -0.00801881 -0.0160336 -0.0080148 -0.00801881 -0.00801881 -0.0080148 -0.0080148 -0.0160336 -0.00801881 -0.00801881 -0.0080148 -0.0080148 -0.0080148 -0.0080148 -0.00801881 -0.00801881 -0.0080148 -0.0160336 -0.0160336 0 0 -0.0160336 -0.00801881 -0.0080148 -0.0080148 -0.0160336 -0.00801881 -0.00801881 -0.0080148 -0.0080148 -0.00801881 -0.0080148 -0.0080148 -0.0160336 -0.0080148 -0.00801881 -0.00801881 -0.0080148 -0.0080148 -0.00801881 -0.00801881 -0.0080148 -0.0080148 -0.0160336 -0.00801881 -0.00801881 -0.0080148 -0.0080148 -0.00801881 -0.0160336 -0.0080148 -0.0080148 -0.00801881 -0.00801881 -0.0080148 -0.0080148 -0.00801881 -0.00801881 -0.0080148 -0.0160336 -0.0080148 -0.0080148 -0.00801881 -0.00801881 -0.0080148 -0.0080148 -0.00801881 -0.0160336 -0.0080148 -0.0080148 -0.00801881 -0.00801881 -0.0080148 -0.0160336 -0.00801881 -0.0080148 -0.0080148 -0.00801881 -0.00801881 -0.0080148 -0.0080148 -0.00801881 -0.0080148 -0.0160296 0.761578 0zm-1.31473 -0.0160336l0 0.0080148 0.472985 0.00801881 0.0080148 0.0080148 0.00801881 0.0080148 0.0080148 0.0160336 0.00801881 0.00801881 0.0080148 0.0080148 0.00801881 0.00801881 0.0080148 0.0160336 0.00801881 0.0080148 0.0080148 0.00801881 0.00801881 0.0080148 0.0080148 0.0160336 0.0080148 0.0080148 0.00801881 0.00801881 0.0080148 0.0080148 0.00801881 0.0160336 0.0080148 0.00801881 0.00801881 0.0080148 0.0080148 0.00801881 0.00801881 0.0160296 0.0080148 0.00801881 0.00801881 0.0080148 0.0080148 0.00801881 0.0080148 0.0160336 0.0160336 0 0 0.0160336 0.00801881 0.0080148 0.0080148 0.0160336 0.00801881 0.0080148 0.0080148 0.00801881 0.00801881 0.0080148 0.0080148 0.0160336 0.00801881 0.00801881 0.0080148 0.0080148 0.00801881 0.00801881 0.0080148 0.0080148 0.0080148 0.00801881 0.00801881 0.0160296 0.0080148 0.00801881 0.00801881 0.0160336 0.0080148 0.0080148 0.00801881 0.00801881 0.0080148 0.0080148 0.00801881 0.00801881 0.0080148 0.0080148 0.00801881 0.0160336 0.0080148 0.00801881 0.0080148 0.0080148 0.00801881 0.0080148 0.0080148 0.0160336 0.00801881 0.00801881 0.0080148 0.0080148 0.00801881 0.0160336 0.0080148 0.00801881 0.00801881 0.0080148 0.0080148 0.00801881 0.00801881 0.0160296 0.0080148 0.00801881 0.0080148 0.0080148 0.00801881 0.00801881 0.0080148 0.0080148 0.00801881 0.0160336 0.0080148 0.00801881 0.00801881 0.0080148 0.0080148 0.00801881 0.00801881 0.0160296 0.0080148 0.00801881 0.00801881 0.0080148 0.0080148 0.0160336 0.0080148 0.00801881 0.00801881 0.0080148 0.0080148 0.00801881 0.00801881 0.0080148 0.0080148 0.00801881 0.00801881 0.0160296 0.0080148 0.00801881 0.00801881 0.0160336 0.0080148 0.0080148 0.00801881 0.00801881 0.0080148 0.0080148 0.0080148 0.00801881 0.00801881 0.0160336 0.0080148 0.0080148 0.00801881 0.0080148 0.0080148 0.00801881 0.00801881 0.0080148 0 0.0801721 -0.00801881 0.00801078 -0.0080148 0.0160376 -0.00801881 0.00801881 -0.0080148 0.0080148 -0.00801881 0.00801881 -0.0080148 0.0160336 -0.0080148 0.0080148 -0.00801881 0.00801881 -0.0080148 0.0080148 -0.00801881 0.0080148 -0.0080148 0.0160336 -0.00801881 0.00801881 -0.0080148 0.0080148 -0.00801881 0.0160336 -0.0080148 0.00801881 -0.00801881 0.0080148 -0.0080148 0.00801881 -0.0080148 0.0080148 -0.00801881 0.0160336 -0.0080148 0.0080148 -0.00801881 0.00801881 -0.0080148 0.0080148 -0.00801881 0.0160336 -0.0080148 0.00801881 -0.00801881 0.0160336 -0.0080148 0.0080148 -0.00801881 0.0080148 -0.0080148 0.00801881 -0.0080148 0.0080148 -0.00801881 0.00801881 -0.0080148 0.0080148 -0.00801881 0.0160336 -0.0080148 0.00801881 -0.00801881 0.0080148 -0.0080148 0.0160336 -0.00801881 0.0080148 -0.0080148 0.00801881 -0.00801881 0.0080148 -0.0080148 0.0160336 -0.0080148 0.00801881 -0.00801881 0.0080148 -0.0080148 0.00801881 -0.00801881 0.0160336 -0.0080148 0.0080148 -0.00801881 0.0080148 -0.0080148 0.00801881 -0.00801881 0.0160336 -0.0080148 0.0080148 -0.00801881 0.00801881 -0.0080148 0.0080148 -0.0080148 0.0160336 -0.00801881 0.00801881 -0.0080148 0.0080148 -0.00801881 0.00801881 -0.0080148 0.0160296 -0.00801881 0.00801881 -0.0080148 0.0080148 -0.00801881 0.00801881 -0.0080148 0.0160336 -0.00801881 0.0080148 -0.0080148 0.00801881 -0.00801881 0.0080148 -0.0080148 0.0160336 -0.0080148 0.0080148 -0.00801881 0.00801881 -0.0080148 0.0080148 -0.00801881 0.00801881 -0.0080148 0.0080148 -0.00801881 0.0160336 -0.0080148 0.00801881 -0.00801881 0.0160336 -0.0080148 0.0080148 -0.00801881 0.0080148 -0.0080148 0.00801881 -0.0080148 0.0080148 -0.00801881 0.00801881 -0.0080148 0.0160336 -0.00801881 0.0080148 -0.0080148 0.00801881 -0.00801881 0.0080148 -0.0080148 0.0160336 -0.00801881 0.0080148 -0.0080148 0.0160336 -0.00801881 0.00801881 -0.0080148 0.0080148 -0.0080148 0.00801881 -0.00801881 0.0080148 -0.0080148 0.00801881 -0.00801881 0.0160336 -0.0080148 0.0080148 0 0.0160336 0.0641304 0 0.00801881 -0.00801881 0.0080148 -0.0160296 0.00801881 -0.00801881 0.0080148 -0.0080148 0.00801881 -0.00801881 0.0080148 -0.0160336 0.00801881 -0.0080148 0.0080148 -0.00801881 0.0080148 -0.0080148 0.00801881 -0.00801881 0.0080148 -0.0080148 0.00801881 -0.0160336 0.0080148 -0.0080148 0.00801881 -0.0160336 0.0080148 -0.00801881 0.00801881 -0.0080148 0.0080148 -0.00801881 0.00801881 -0.0080148 0.0080148 -0.00801881 0.0080148 -0.0160296 0.00801881 -0.00801881 0.0080148 -0.0080148 0.00801881 -0.00801881 0.0080148 -0.0160336 0.00801881 -0.0080148 0.0080148 -0.0160336 0.00801881 -0.00801881 0.0080148 -0.0080148 0.00801881 -0.0080148 0.0080148 -0.00801881 0.00801881 -0.0080148 0.0080148 -0.0160336 0.0080148 -0.00801881 0.00801881 -0.0080148 0.0080148 -0.00801881 0.00801881 -0.0160336 0.0080148 -0.0080148 0.00801881 -0.0080148 0.0080148 -0.0160336 0.00801881 -0.00801881 0.0080148 -0.0080148 0.00801881 -0.00801881 0.0080148 -0.0160336 0.0080148 -0.0080148 0.00801881 -0.00801881 0.0080148 -0.0080148 0.00801881 -0.00801881 0.0080148 -0.0160296 0.00801881 -0.00801881 0.0080148 -0.0080148 0.00801881 -0.0160336 0.0080148 -0.00801881 0.00801881 -0.0080148 0.0080148 -0.00801881 0.0080148 -0.0160336 0.00801881 -0.0080148 0.0080148 -0.0080148 0.00801881 -0.00801881 0.0080148 -0.0080148 0.00801881 -0.00801881 0.0080148 -0.0160336 0.00801881 -0.0080148 0.0080148 -0.0160336 0.00801881 -0.00801881 0.0080148 -0.0080148 0.0080148 -0.0080148 0.00801881 -0.00801881 0.0080148 -0.0080148 0.00801881 -0.0160336 0.0080148 -0.00801881 0.00801881 -0.0080148 0.0080148 -0.00801881 0.00801881 -0.0160336 0.0080148 -0.0080148 0.00801881 -0.0080148 0.0080148 -0.00801881 0.0080148 -0.0160336 0.00801881 -0.0080148 0.0080148 -0.00801881 0.00801881 -0.0080148 0.0080148 -0.0160336 0.00801881 -0.00801881 0.0080148 -0.0080148 0.00801881 -0.0080148 0.0080148 -0.0160336 0.00801881 -0.00801881 0.0080148 -0.0080148 0.00801881 -0.00801881 0.040082 -0.0080148 0.0080148 0.0080148 0.00801881 0.0160336 0.0080148 0.00801881 0.00801881 0.0080148 0.0080148 0.00801881 0.00801881 0.0160296 0.0080148 0.00801881 0.0080148 0.0080148 0.00801881 0.00801881 0.0080148 0.0160336 0.00801881 0.0080148 0.0080148 0.00801881 0.00802283 0.0080148 0.00801078 0.0160336 0.00802283 0.0080148 0.00801078 0.00801881 0.00802283 0.0160336 0.0080148 0.0080148 0.00801078 0.00801881 0.00802283 0.0080148 0.00801078 0.00801881 0.00802283 0.0160336 0.0080148 0.0080148 0.0320672 -0.0561156 -0.0080148 -0.0160336 -0.00801881 -0.00801881 -0.0080148 -0.0080148 -0.00801881 -0.0080148 -0.0080148 -0.00801881 -0.00802283 -0.0080148 -0.00801078 -0.0160336 -0.00802283 -0.00801881 -0.00801078 -0.0080148 -0.0080148 -0.00801881 -0.00802283 -0.0160336 -0.00801078 -0.0080148 -0.00802283 -0.0080148 -0.00801078 -0.00801881 -0.00802283 -0.0160336 -0.0080148 -0.0080148 -0.00801881 -0.00801881 -0.0080148 -0.0160336 -0.00801881 -0.0080148 -0.0080148 -0.00802283 -0.0080148 -0.00801078 -0.00801881 -0.00802283 0 -0.00801078 0.00801881 -0.0561196 0.0080148 -0.00801881 0.0080148 -0.0160336 0.00801881 -0.0080148 0.0080148 -0.0080148 0.00801881 -0.00801881 0.0080148 -0.0080148 0.00802283 -0.0160336 0.00801078 -0.00801881 0.00802283 -0.0080148 0.00801078 -0.0160336 0.00802283 -0.00801881 0.0080148 -0.0080148 0.00801078 -0.0160336 0.00802283 -0.0080148 0.00801078 -0.00801881 0.00802283 -0.0080148 0.0080148 -0.00801881 0.00801881 -0.0080148 0.0080148 -0.0160336 0.00801881 -0.00801881 0.0080148 -0.0080148 0.00801881 -0.0160336 0.0080148 -0.0080148 0.0080148 -0.00801881 0.00801881 -0.0080148 0.0080148 -0.00801881 0.00801881 -0.0160336 0.0080148 -0.0080148 0.00801881 -0.00801881 0.0080148 -0.0080148 0.00801881 -0.0160336 0.0080148 -0.0080148 0.00801881 -0.00801881 0.0080148 -0.0080148 0.0080148 -0.0160336 0.00801881 -0.00801881 0.0080148 -0.0080148 0.00801881 -0.00801881 0.0080148 -0.0160296 0.00801881 -0.00801881 0.0080148 -0.0080148 0.00801881 -0.00801881 0.0080148 -0.0160336 0.0160336 0 0.0080148 0.00801881 0.00801881 0 0.015612 0.00870144 0.0324888 -0.024735 0 -0.00801881 -0.00801881 -0.0080148 -0.0080148 -0.00801881 -0.00801881 -0.0160336 0 -0.0160296 0.00801881 -0.0160336 0.0080148 -0.00801881 0.00801881 -0.0080148 0.0080148 -0.00801881 0.00801881 -0.0080148 0.0080148 -0.0160336 0.00801881 -0.00801881 0.0080148 -0.0080148 0.0080148 -0.0160336 0.00801881 -0.0080148 0.0080148 -0.00801881 0.00801881 -0.0080148 0.0080148 -0.00801881 0.00801881 -0.0160336 0.0080148 -0.0080148 0.00801881 -0.00801881 0.0080148 -0.0080148 0.00801881 -0.0160336 0.0080148 -0.0080148 0.0080148 -0.0160336 0.00801881 -0.00801881 0.0080148 -0.0080148 0.00801881 -0.00801881 0.0080148 -0.0080148 0.00801881 -0.00801881 0.0080148 -0.0080148 0.00801881 -0.0160336 0.0080148 -0.0080148 0.00801881 -0.00801881 0.0080148 -0.0160336 0.0080148 -0.0080148 0.00801881 -0.00801881 0.0080148 -0.0080148 0.00801881 -0.0160336 0.0080148 -0.0080148 0.497038 -0.00801881 0.040082 -0.0961976 -0.0480245 -0.0090307c-0.0285658,0.0200852 -0.049185,0.0571275 -0.096278,0.0571275 -0.0653832,0 -0.176342,-0.0561156 -0.264549,-0.0561156l-1.38688 0c-0.00968923,0.0144676 -0.0160336,0.0140901 -0.0160336,0.0320672l0 0.0160336c0,0.024454 0.00769758,0.0323483 0.0160336,0.0481008l-0.713486 0z"/>
    <path id="_114694400" class="fil18" d="M1.73961 4.67371l0.0080148 0.0160336 0.00801881 0.0080148 0.0080148 0.00801881 0.00801881 0.0160336 0.0080148 0.0080148 0.00801881 0.0080148 0.0080148 0.00801881 0.00801881 0.0080148 0.0080148 0.00801881 0.0080148 0.0080148 0.00801881 0.00801881 0.0080148 0.0080148 0.00801881 0.00801881 0.0160336 0.0080148 0.0080148 0.0160336 0.00801881 0.0080148 0.0160336 0.00801881 0.0080148 0.0080148 0.0080148 0.00801881 0.00801881 0.0080148 0.0080148 0.00801881 0.0160336 0.0080148 0.00801881 0.00801881 0.0080148 0.0080148 0.00801881 0.00801881 0.0080148 0.0080148 0.00801881 0.0080148 0.0080148 0.00801881 0.00801881 0.0080148 0.0160296 0.00801881 0.00801881 0.0080148 0.0080148 0.00801881 0.0160336 0.0080148 0.00801881 0.00801881 0.0080148 0.0080148 0.00801881 0.00801881 0.0080148 0.0080148 0.0160336 0.0080148 0.0080148 0.00801881 0.0481008 0 0.00802283 -0.00801881 0.00801078 -0.0160296 0.00802283 -0.0160336 0.0080148 -0.00801881 0.00801078 -0.0160336 0.00802283 -0.0160336 0.00801078 -0.0160336 0.00802283 -0.0160296 0.0080148 -0.0160336 0.00801881 -0.0160336 0.0080148 -0.0240524 0.00801881 -0.0160336 0 -0.0160296 0 -0.0240524 -0.148278 -0.106987c-0.0293287,0.0123796 -0.0568344,0.0268231 -0.10826,0.0268231 -0.0410979,0 -0.0791642,-0.0110665 -0.0801681,-0.0561196l-0.0320632 -0.0080148 -0.136284 0 0 0.0320672z"/>
    <polygon id="_114694280" class="fil19" points="2.94211,5.75596 2.97418,5.75596 2.97418,5.73992 2.94211,5.73992 "/>
   </g>
   <rect id="_114706208" class="fil20 str0" x="1.77969" y="0.144302" width="0.74783" height="0.590955"/>
   <polygon id="_114700448" class="fil21" points="1.88712,0.570914 1.88712,0.398531 1.90996,0.398531 1.90996,0.469331 1.99954,0.469331 1.99954,0.398531 2.02238,0.398531 2.02238,0.570914 1.99954,0.570914 1.99954,0.489678 1.90996,0.489678 1.90996,0.570914 "/>
   <polygon id="_1147004481" class="fil21" points="2.10421,0.570914 2.10421,0.418882 2.04742,0.418882 2.04742,0.398531 2.18404,0.398531 2.18404,0.418882 2.12701,0.418882 2.12701,0.570914 "/>
   <path id="_11470044812" class="fil21" d="M2.20672 0.570914l0 -0.172382 0.034356 0 0.0407767 0.122053c0.0037745,0.0113597 0.00654113,0.0198683 0.00822762,0.0255261 0.00196756,-0.00626005 0.00501929,-0.0154915 0.00919132,-0.0276543l0.0412585 -0.119925 0.030706 0 0 0.172382 -0.0219965 0 0 -0.144286 -0.0500885 0.144286 -0.0205871 0 -0.0498516 -0.146736 0 0.146736 -0.0219925 0z"/>
   <polygon id="_114700448123" class="fil21" points="2.40708,0.570914 2.40708,0.398531 2.42991,0.398531 2.42991,0.550564 2.5148,0.550564 2.5148,0.570914 "/>
   <polygon id="_1147004481234" class="fil22 str1" points="1.88712,0.570914 1.88712,0.398531 1.90996,0.398531 1.90996,0.469331 1.99954,0.469331 1.99954,0.398531 2.02238,0.398531 2.02238,0.570914 1.99954,0.570914 1.99954,0.489678 1.90996,0.489678 1.90996,0.570914 "/>
   <polygon id="_11470044812345" class="fil22 str1" points="2.10421,0.570914 2.10421,0.418882 2.04742,0.418882 2.04742,0.398531 2.18404,0.398531 2.18404,0.418882 2.12701,0.418882 2.12701,0.570914 "/>
   <path id="_114700448123456" class="fil22 str1" d="M2.20672 0.570914l0 -0.172382 0.034356 0 0.0407767 0.122053c0.0037745,0.0113597 0.00654113,0.0198683 0.00822762,0.0255261 0.00196756,-0.00626005 0.00501929,-0.0154915 0.00919132,-0.0276543l0.0412585 -0.119925 0.030706 0 0 0.172382 -0.0219965 0 0 -0.144286 -0.0500885 0.144286 -0.0205871 0 -0.0498516 -0.146736 0 0.146736 -0.0219925 0z"/>
   <polygon id="_1147004481234567" class="fil22 str1" points="2.40708,0.570914 2.40708,0.398531 2.42991,0.398531 2.42991,0.550564 2.5148,0.550564 2.5148,0.570914 "/>
   <line id="_114704600" class="fil23 str2" x1="3.47121" y1="2.18053" x2="3.47447" y2= "2.14236" />
   <line id="_114710720" class="fil23 str2" x1="3.48724" y1="2.08834" x2="3.48724" y2= "2.07631" />
   <line id="_114705968" class="fil23 str2" x1="3.43739" y1="2.08125" x2="3.39906" y2= "2.13243" />
   <line id="_114700304" class="fil23 str2" x1="3.31986" y1="2.08522" x2="3.28683" y2= "2.08433" />
   <polygon id="_114710744" class="fil24 str3" points="3.43246,2.07631 3.48724,2.07631 3.48494,2.11954 3.47284,2.16145 3.47484,2.19232 3.52183,2.23647 3.59146,2.26871 3.55107,2.37997 3.51931,2.38896 3.49526,2.34888 3.49526,2.33285 3.40307,2.32884 3.36699,2.29276 3.28683,2.08433 3.31986,2.08522 3.35117,2.09134 3.36821,2.10549 3.39906,2.13243 3.42113,2.10394 "/>
  </g>
 </g>
</svg>
