<?xml version="1.0" encoding="UTF-8"?>
<!DOCTYPE svg PUBLIC "-//W3C//DTD SVG 1.1//EN" "http://www.w3.org/Graphics/SVG/1.1/DTD/svg11.dtd">
<!-- Creator: CorelDRAW -->
<svg xmlns="http://www.w3.org/2000/svg" xml:space="preserve" width="7.33369in" height="4.36972in" style="shape-rendering:geometricPrecision; text-rendering:geometricPrecision; image-rendering:optimizeQuality; fill-rule:evenodd; clip-rule:evenodd"
viewBox="0 0 8.13292 4.84594"
 xmlns:xlink="http://www.w3.org/1999/xlink">
 <defs>
  <style type="text/css">
   <![CDATA[
    .str0 {stroke:#1F1A17;stroke-width:0.00332694}
    .str1 {stroke:#EF9BA0;stroke-width:0.00332694}
    .str2 {stroke:#1F1A17;stroke-width:0.0154035}
    .fil29 {fill:none}
    .fil27 {fill:#1F1A17}
    .fil28 {fill:#EF9BA0}
    .fil23 {fill:#05181E}
    .fil18 {fill:#0D212A}
    .fil16 {fill:#107776}
    .fil19 {fill:#191933}
    .fil13 {fill:#2C2C44}
    .fil15 {fill:#2C9EA1}
    .fil1 {fill:#333333}
    .fil12 {fill:#622901}
    .fil22 {fill:#706E6F}
    .fil6 {fill:#723611}
    .fil24 {fill:#8B8B8B}
    .fil26 {fill:#8C4D11}
    .fil2 {fill:#93624C}
    .fil25 {fill:#9C9C9B}
    .fil21 {fill:#B46907}
    .fil3 {fill:#BA5A47}
    .fil20 {fill:#C56F01}
    .fil7 {fill:#CCCCCB}
    .fil4 {fill:#CF8F54}
    .fil14 {fill:#D57C01}
    .fil8 {fill:#D6AA8C}
    .fil10 {fill:#D93738}
    .fil0 {fill:#E5A57B}
    .fil11 {fill:#EAEAEA}
    .fil17 {fill:#F29200}
    .fil5 {fill:#F4B78B}
    .fil9 {fill:#FAFAFA}
   ]]>
  </style>
 </defs>
 <g id="Layer_x0020_1">
  <metadata id="CorelCorpID_0Corel-Layer"/>
  <g id="_81923704">
   <g>
    <path id="_125301496" class="fil0" d="M1.9628 0.864006c0.0564926,0.00125743 0.0691978,0.0281742 0.140871,0.0281742l0.0657355 0 0 0.0469571c0,0.0627928 -0.0542571,0.122088 -0.122084,0.122088 -0.073983,0 -0.0845227,-0.117718 -0.0845227,-0.19722zm-0.441396 0.112697l0 0.00939141 0.00939141 0.00939141 0.00939141 0.00939141 0.00939141 0.00939141 0.00939141 0.00939141 0 0.00939141 -0.00939141 0.0281742 0 0.00939141 0.244177 0.13148 0.00939141 -0.00939141 0.00939141 -0.0187828 0.00939141 -0.00939141 0.0563485 0.00939141 0.103306 0 0.0375657 -0.00939141 0.0281742 -0.00939141 0.0187828 -0.00939141 0.00939141 -0.00939141 0.00938705 -0.00939141 0.00939578 -0.00939141 0.0187785 -0.00939141 0.00939578 -0.0187828 0.00939141 -0.00939141 0.00938705 -0.00939141 0.00939141 -0.00939141 0.00939578 -0.0187828 0.00938705 -0.0187828 0.00939141 -0.0187828 0.00939578 -0.0375657 0 -0.140871 0.0375613 -0.00939141 0.00939141 -0.00939141 0.00939141 -0.00939141 0.00939141 -0.0187828 0 -0.0281742 -0.00939141 -0.0187828 -0.00939141 -0.0187828 -0.00939141 -0.00939141 -0.00939141 -0.00939141 -0.00939141 -0.00939141 -0.0187785 -0.00939141 -0.00939578 -0.00939141 -0.00939141 -0.00939141 -0.00938705 -0.00939141 -0.00939578 -0.0187828 -0.00939141 -0.00939141 -0.00938705 -0.0187828 -0.00939141 -0.0187828 -0.00939578 -0.0187828 0 -0.0563485 0.00939578 -0.0375657 0 -0.0375613 -0.00939578 -0.0375657 -0.00938705 -0.0187828c-0.0108933,0.00729133 -0.0734198,0.0469571 -0.0845227,0.0469571 -0.115718,0 -0.244137,-0.0247512 -0.227559,0.150494l0.011557 0.121853 -0.0281742 0c-0.0453591,0 -0.0485376,-0.178432 -0.13148,-0.178432l-0.0187828 0c-0.048459,0 -0.0751313,0.0390981 -0.0751313,0.0845184l0 0.0751313c0,0.0860508 0.0657399,0.136234 0.0657399,0.159654 0,0.0791132 -0.0739132,0.085623 -0.0939141,0.140871z"/>
    <path id="_55793016" class="fil1" d="M1.80314 0.00939141l-0.0281742 0.00939141 -0.0281742 0.00939141 -0.0187828 0.00939141 -0.0187828 0.00939141 -0.0187828 0.00939141 -0.0187828 0.00939141 -0.0187828 0.00939141 -0.0187828 0.00939141 -0.00939141 0.00939141 -0.0187828 0.00939141 -0.00939141 0.00939141 -0.0187828 0.00939141 -0.00939141 0.00939141 -0.0187828 0.00939141 -0.0281742 0.00939141 -0.0281742 0.00939141 -0.0187828 0.00939141 -0.0187828 0.00939141 -0.00938705 0.00939141 -0.0187872 0.00939141 -0.00939141 0.00939141 -0.0187828 0.00939141 -0.00939141 0.00939141 -0.00938705 0.00939141 -0.00939578 0.00939141 -0.00939141 0.00939141 -0.00938705 0.00939141 -0.00939578 0.00939141 -0.00939141 0.00939141 -0.00938705 0.0187828 -0.00939141 0.00939141 -0.00939578 0.0187828 -0.00938705 0.0187828 -0.00939141 0.0187828 -0.00939578 0.0187828 -0.00938705 0.0281742 -0.00939141 0.0469571 0 0.187824 0.00939141 0.0469571 0.00938705 0.0375657 0.00939578 0.0281742 0.00939141 0.0281742 0.00938705 0.0187828 0.00939578 0.0281742 0.00939141 0.0187828 0.00938705 0.0187828 0.00939141 0.00939141 0.00939578 0.0187828 0.00938705 0.00939141 0.00939141 0.0187828 0.00939578 0.00939141 0.00938705 0.00939141 0.00939141 0.00939141 0.0187828 0.00939141 0.0281786 0.00939141 0.0563441 0 0.00939141 0 0.00939141 0c0.020001,-0.0552482 0.0939141,-0.061758 0.0939141,-0.140871 0,-0.0234196 -0.0657399,-0.0736032 -0.0657399,-0.159654l0 -0.0751313c0,-0.0454202 0.0266723,-0.0845184 0.0751313,-0.0845184l0.0187828 0c0.0829422,0 0.0861207,0.178432 0.13148,0.178432l0.0281742 0 -0.011557 -0.121853c-0.016578,-0.175245 0.111841,-0.150494 0.227559,-0.150494 0.0111029,0 0.0736294,-0.0396657 0.0845227,-0.0469571l0.00938705 0.0187828 0.00939578 -0.0281742 0.00939141 -0.0187828 0.00938705 -0.00939141 0.00939141 -0.0281742 0.00939578 -0.0375657 0 -0.0469571 -0.00939578 -0.0375657 -0.00939141 -0.0281742 -0.00938705 -0.0187828 -0.00939141 -0.0187828 -0.00939578 -0.00939141 -0.00938705 -0.0187828 -0.00939141 -0.00939141 -0.00939578 -0.00939141 -0.00938705 -0.00939141 -0.00939141 -0.00939141 -0.0187828 -0.00939141 -0.00939141 -0.00939141 -0.0187828 -0.00939141 -0.0187828 -0.00939141 -0.0281742 -0.00939141 -0.0375657 -0.00939141 -0.0751313 0 -0.0563485 0.00939141z"/>
    <path id="_55792728" class="fil2" d="M2.04732 1.06123c0.0678269,0 0.122084,-0.0592956 0.122084,-0.122088l0 -0.0469571 -0.0657355 0c-0.0716734,0 -0.0843786,-0.0269168 -0.140871,-0.0281742 0,0.0795017 0.0105397,0.19722 0.0845227,0.19722z"/>
    <path id="_125302840" class="fil3" d="M3.11793 1.50262l0 -0.0281742c0,-0.0890809 0.0654736,-0.265715 0.0845227,-0.347478 0.0707303,0.00588546 0.116177,0.0375657 0.225394,0.0375657l0.0659233 0.00220486 0.159466 -0.0115963c0.00799427,0.0960622 0.0657399,0.204109 0.0657399,0.309912l0 0.0375657c0,0.0414384 -0.0138797,0.0669013 -0.0281742,0.0939141 -0.0472365,-0.0110069 -0.0617013,-0.0375657 -0.122084,-0.0375657 -0.0356315,0 -0.0440624,0.0169971 -0.0784233,0.0248822 -0.0349067,0.00801174 -0.0729264,-0.000956169 -0.107807,0.00489436 -0.0559162,0.00937395 -0.129057,0.073529 -0.142469,0.073529 -0.0690101,0 -0.122088,-0.0873301 -0.122088,-0.159654zm0.206611 -0.62922l-0.0281742 0.00939141 -0.0281742 0.00939141 -0.0187828 0.00939141 -0.00939141 0.00939141 -0.0187828 0.00939141 -0.00939141 0.00939141 -0.00939141 0.00939141 -0.00939141 0.00939141 -0.00939141 0.00939141 -0.00939141 0.00939141 -0.0187828 0.00939141 -0.0187828 0.00939141 -0.00939141 0.00939141 -0.00939141 0.00939141 -0.00939141 0.00939141 -0.00939141 0.00939141 -0.00939141 0.00939141 -0.00939141 0.00939141 -0.00939141 0.0187828 -0.00939141 0.0187828 -0.00939141 0.0187828 -0.00939141 0.0375657 -0.00939141 0.0469571 -0.00939141 0.215998 -0.00939141 0.0187828 -0.00939141 0.0187828 0 0.122088 0.00939141 0.0281742 0.00939141 0.0187828 0.00939141 0.00939141 0.00939141 0.00939141 0.00939141 0.00939141 0.00939141 0.00939141 0.00939141 0.00939141 0.0187828 0.00939141 0.0187828 0 0 0.0563485 0.00939141 0.0469571 0.00939141 0.0281742 0.00939141 0.0281742 0.00939141 0.0187828 0.00939141 0.00939141 0.00939141 0.0187828 0.00939141 0.00939141 0.00939141 0.00939141 0.00939141 0.00939141 0.00939141 0.00939141 0.00939141 0.00939141 0.0187828 0.00939141 0.00939141 0.00939141 0.0281742 0.00939141 0.0281742 0.00938705 0.00939141 0.0845227 0.00939141 0.00939141 0.0281742 0.00939578 0.178437 0 0.0187828 -0.00939578 0.00939141 -0.00939141 0.00939141 -0.00938705 0 -0.0281742 0 -0.0563485 0.0281742 0 0.0281742 -0.00939141 0.0187828 -0.00939141 0.0187785 -0.00939141 0.0187872 -0.00939141 0.00938705 -0.00939141 0.00939141 -0.00939141 0.00939578 -0.00939141 0.00938705 -0.00939141 0.00939141 -0.00939141 0.00939141 -0.00939141 0.00939141 -0.0187828 0.00939141 -0.0187828 0.00939141 -0.0281742 0.00939141 -0.0469571 0.00939141 -0.150263 0.00939141 -0.00939141 0.00939141 -0.0187828 0.00939141 -0.0187828 0.00939141 -0.0469571 0 -0.0469571 -0.00939141 -0.0469571 -0.00939141 -0.0187828 -0.00939141 -0.0187828 -0.00939141 -0.00939141 -0.00939141 -0.00939141 -0.00939141 -0.150258 -0.00939141 -0.0563485 -0.00939141 -0.0375657 -0.00939141 -0.0281742 -0.00939141 -0.0187828 -0.00939141 -0.0281742 -0.00938705 -0.00939141 -0.00939578 -0.0187828 -0.00939141 -0.00939141 -0.00938705 -0.0187828 -0.00939578 -0.00939141 -0.00939141 -0.00939141 -0.00938705 -0.00939141 -0.0187872 -0.00939141 -0.00938705 -0.00939141 -0.0187872 -0.00939141 -0.00938705 -0.00939141 -0.0281742 -0.00939141 -0.0187828 -0.00939141 -0.0375657 -0.00939141 -0.0845227 -0.00939141 -0.0281742 0 -0.0657399 0.00939141z"/>
    <path id="_125464832" class="fil4" d="M6.01987 1.2021l-0.00939578 0.0187828 -0.00939141 0.0281742 -0.00938705 0.0187785 -0.00939141 0.0187872 -0.00939578 0.0187785 -0.00938705 0.0187828 -0.00939141 0.0187828 -0.00939578 0.00939141 -0.00938705 0.00939141 -0.0375657 0.00939141 -0.00939141 0.00939141 -0.00939141 0.00939141 0 0.0657399 0.00939141 0.0187828 0.00939141 0.00939141 0.00939141 0.00939141 0.0187828 0c0.0553137,-0.00460184 0.0195818,-0.0187828 0.0563485,-0.0187828l0.0281699 0c0.0286065,0 0.0343522,0.00426565 0.0563485,0.00939141 0.0397531,-0.0210314 0.0845227,-0.0435952 0.0845227,-0.103306l0 -0.131475c-0.057392,-0.00477648 -0.0618235,-0.0814927 -0.131475,-0.0469571z"/>
    <path id="_125464928" class="fil5" d="M6.35795 1.61531l0.0287025 -7.42232e-005 -0.0193111 -0.15958 -0.0024057 -0.00954423 0.0117971 -0.206458c-0.00806849,-0.012046 -0.0322827,-0.0563441 -0.0469571,-0.0563441 -0.15252,0 -0.181524,0.432001 0.0281742,0.432001z"/>
    <polygon id="_125302528" class="fil0" points="2.68593,1.24905 2.67654,1.25844 2.66715,1.26783 2.65776,1.27722 2.64837,1.28662 2.63897,1.29601 2.62958,1.3054 2.62019,1.31479 2.6108,1.32418 2.60141,1.33357 2.58263,1.34296 2.57323,1.35235 2.55445,1.36175 2.54506,1.37114 2.52628,1.38053 2.50749,1.38992 2.46864,1.39915 2.47932,1.36175 2.48871,1.34296 2.4981,1.32418 2.50749,1.29601 2.50749,1.27722 2.4981,1.26783 2.46993,1.26783 2.45115,1.27722 2.44175,1.28662 2.43236,1.29601 2.42297,1.31479 2.41358,1.32418 2.40419,1.35235 2.3948,1.37114 2.38541,1.38053 2.37601,1.39931 2.36662,1.41809 2.35723,1.43688 2.34784,1.44627 2.33845,1.45566 2.32906,1.46505 2.31967,1.47444 2.31027,1.48383 2.30088,1.49323 2.30088,1.50262 2.42297,1.62471 2.43236,1.62471 2.44175,1.61531 2.46054,1.60592 2.47932,1.59653 2.4981,1.58714 2.51689,1.57775 2.53567,1.56836 2.55445,1.55897 2.57323,1.54957 2.58263,1.54018 2.60141,1.53079 2.6108,1.5214 2.62958,1.51201 2.63897,1.50262 2.65776,1.49323 2.66715,1.48383 2.67654,1.47444 2.69532,1.46505 2.70471,1.45566 2.71411,1.44627 2.7235,1.43688 2.73289,1.42749 2.74228,1.41809 2.74228,1.38053 2.74228,1.37114 2.75167,1.36175 2.76106,1.34296 2.76106,1.31479 2.75167,1.25844 2.7235,1.24905 2.71411,1.23966 2.69532,1.23966 "/>
    <path id="_125465024" class="fil0" d="M3.11793 1.50262c0,0.0723239 0.0530783,0.159654 0.122088,0.159654 0.0134126,0 0.0865529,-0.064155 0.142469,-0.073529 0.0348805,-0.00585053 0.0729002,0.00311737 0.107807,-0.00489436 0.034361,-0.00788512 0.0427918,-0.0248822 0.0784233,-0.0248822 0.0603827,0 0.0748475,0.0265588 0.122084,0.0375657 0.0142945,-0.0270129 0.0281742,-0.0524758 0.0281742,-0.0939141l0 -0.0375657c0,-0.105803 -0.0577456,-0.21385 -0.0657399,-0.309912l-0.159466 0.0115963 -0.0659233 -0.00220486c-0.109217,0 -0.154664,-0.0316802 -0.225394,-0.0375657 -0.0190492,0.0817634 -0.0845227,0.258397 -0.0845227,0.347478l0 0.0281742z"/>
    <path id="_125465120" class="fil0" d="M6.22647 1.97219l0 0.00938705 0.271548 -0.0662333 0.0101948 -0.0182851 0.00939141 -0.0657399 0 -0.0657399 -0.0939141 -0.0657399c-0.00455381,0.0547156 -0.0479045,0.12352 -0.0773929,0.157392 -0.0342693,0.0393601 -0.107628,0.0983108 -0.119827,0.114959z"/>
    <path id="_125302888" class="fil6" d="M6.35795 1.61531c-0.209698,0 -0.180694,-0.432001 -0.0281742,-0.432001 0.0146744,0 0.0388886,0.0442981 0.0469571,0.0563441l-0.0117971 0.206458 0.0024057 0.00954423 0.0193111 0.15958 -0.0287025 7.42232e-005zm-0.112697 -0.82644l-0.0281742 0.00939141 -0.0187828 0.00939141 -0.0187828 0.00939141 -0.0187828 0.00939141 -0.00939141 0.00939141 -0.0187828 0.00939141 -0.00939141 0.00939141 -0.0187828 0.00939141 -0.0187828 0.00939141 -0.0187828 0.00939141 -0.00939141 0.00939141 -0.0187828 0.00939141 -0.00939141 0.00939141 -0.00938705 0.00939141 0 0.0375657 0.00938705 0.0469571 0.00939141 0.0281742 0.00939578 0.0281742 0 0.0375657 -0.00939578 0.0281742 -0.00939141 0.0281742 -0.00938705 0.0281742 0 0.0187828c0.0696519,-0.0345356 0.0740834,0.0421806 0.131475,0.0469571l0 0.131475c0,0.0597104 -0.0447697,0.0822742 -0.0845227,0.103306 -0.0219963,-0.00512576 -0.027742,-0.00939141 -0.0563485,-0.00939141l-0.0281699 0c-0.0367667,0 -0.00103476,0.014181 -0.0563485,0.0187828l0 0.00939141 0.00939141 0.0751313 0.00938705 0.00939141 0.0469614 0 0.0187785 -0.00939141 0.0281742 0 0 0.0187828 -0.00939141 0.00939141 -0.00938705 0.00939141 -0.0187872 0.00939141 -0.00938705 0.00939141 -0.00939141 0.00939141 -0.0187828 0.00939141 -0.00939141 0.0187828 0 0.0281742 0.00939141 0.0187828 0.00938705 0.00939141 0 0.00939141 -0.00938705 0.0281742 -0.00939141 0.0281742 -0.00939578 0.0469571 0 0.0469571 0.00939578 0.0469571 0.00939141 0.0187785 0.00938705 0.00939578 0.00939578 0.00939141 0.00939141 0.00938705 0.0281742 0.00939578 0.0281742 0.00939141 0.112693 0 0.00939141 0 -0.00939141 0.0187785 -0.00939141 0.00939578 -0.00939141 0.00938705 0 0.00939141 0.497745 -0.00939141 0 -0.0281742 -0.00939141 -0.0563485 -0.00939141 -0.0187785 -0.00939141 -0.00939141 -0.00939141 -0.00939141 -0.00939141 -0.00939141 -0.0187828 -0.00939141 -0.0657399 0 -0.0101948 0.0182851 -0.271548 0.0662333 0 -0.00938705c0.0121988,-0.0166478 0.0855575,-0.0755985 0.119827,-0.114959 0.0294884,-0.033872 0.0728391,-0.102677 0.0773929,-0.157392l0.0939141 0.0657399 0.00939141 0.00939141 0.0657399 0 0.0187828 -0.00939141 0.00939141 -0.00939141 0.00939141 -0.0187828 0.00939141 -0.00939141 0.00939141 -0.00939141 0.00939141 -0.00939141 0.00939141 -0.0187828 0.00939141 -0.00939141 0.00938705 -0.00939141 0.00939578 -0.0187828 0.00939141 -0.0187828 0.00939141 -0.00939141 0.00939141 -0.0187828 0.00939141 -0.00939141 0.00939141 -0.0187828 0.00938705 -0.0187828 0.00939578 -0.00939141 0.00939141 -0.0187828 0.00938705 -0.00939141 0.00939578 -0.0187828 0.00939141 -0.00939141 0.00938705 -0.0187828 0.00939141 -0.00939141 0.00939578 -0.0187828 0.00938705 -0.0187828 0.00939141 -0.0187828 0.00939578 -0.0281742 0.00938705 -0.0281742 0.00939141 -0.0469571 0 -0.112693 -0.00939141 -0.0469571 -0.00938705 -0.0281742 -0.00939578 -0.0281742 -0.00939141 -0.0187828 -0.00938705 -0.0187828 -0.00939578 -0.00939141 -0.00939141 -0.0187828 -0.00938705 -0.00939141 -0.00939141 -0.00939141 -0.00939578 -0.0187828 -0.00938705 -0.00939141 -0.00939141 -0.00939141 -0.00939578 -0.00939141 -0.0187785 -0.00939141 -0.00939141 -0.00939141 -0.00939141 -0.00939141 -0.0187828 -0.00939141 -0.0187828 -0.00939141 -0.0187828 -0.00939141 -0.0187828 -0.00939141 -0.0281742 -0.00939141 -0.0469571 -0.00939141 -0.0281742 -0.00939141 -0.00939141 -0.00939141 -0.00939141 -0.00939141 -0.0187828 -0.00939141 -0.00939141 -0.00939141 -0.00939141 -0.00939141 -0.0187828 -0.00939141 -0.0187828 -0.00939141 -0.0281742 -0.00939141 -0.0375657 -0.00939141 -0.0939141 0 -0.0375657 0.00939141z"/>
    <path id="_125466128" class="fil5" d="M2.04732 2.0661l0.197215 0 0.0657399 -0.00938705 0.0469571 -0.00939578 0.0375657 -0.00939141 0.0187828 -0.00938705 0.00939141 -0.00939578 0 -0.0375657 0.0281742 0 0.00939141 -0.00938705 0.00939141 -0.00939141 0.00939141 -0.0375657 0.00939141 -0.00939141 0 -0.0187828 -0.00939141 -0.00939141 -0.0187828 0 0 -0.0281742 -0.0469571 0 -0.0187828 0.00939141 -0.0281742 0.00939141 -0.0375657 0.00939141 -0.0563485 0.00939141 -0.0751313 0.00939141 -0.0187828 0c0.00202586,-0.0908841 0.0689097,-0.0472976 0.0751313,-0.122088l-0.0281742 0c-0.0757731,0 -0.1259,0.110479 -0.230275,0.113876l0.0518427 0.167862z"/>
    <path id="_125466200" class="fil7" d="M1.50262 1.0894l-0.00939141 0.00939141 -0.00939141 0.00939141 -0.00939141 0.00939141 -0.00939141 0.00939141 -0.0281742 0.00939141 -0.0281742 0.00939141 -0.0187828 0.00939141 -0.0187828 0.00939141 -0.0187785 0.00939141 -0.00939578 0.00939141 -0.0187785 0.00939141 -0.00939141 0.00939141 -0.0187828 0.00938705 -0.00939141 0.00939578 -0.00939578 0.00939141 -0.00938705 0.00938705 -0.00939141 0.00939578 -0.00939578 0.00939141 -0.00938705 0.00938705 -0.00939141 0.00939141 -0.00939141 0.00939578 -0.00939141 0.00938705 -0.00939141 0.00939141 -0.00939141 0.00939578 -0.00939141 0.00938705 -0.00939141 0.0187828 -0.00939141 0.00939141 -0.00939141 0.00939141 -0.00939141 0.00939141 -0.00939141 0.0187828 -0.00939141 0.00939141 -0.00939141 0.0187828 -0.00939141 0.00939141 -0.00939141 0.0187828 -0.00939141 0.00939141 -0.00939141 0.0187828 -0.00939141 0.0187828 -0.00939141 0.0187828 -0.00939141 0.0187828 -0.00939141 0.0187828 -0.00939141 0.0187828 -0.00939141 0.0281742 -0.00939141 0.0187828 -0.00939141 0.0281742 -0.00939141 0.0281742 -0.00939141 0.0187828 -0.00939141 0.0375657 -0.00939141 0.0281742 -0.00939141 0.0375657 -0.00939141 0.0375657 -0.00939141 0.0375657 -0.00939141 0.0469571 -0.00939141 0.0469571 -0.00939141 0.0563441 -0.00939141 0.0657399 -0.00939141 0.0563485 -0.00939141 0.0751313 -0.00939141 0.0657399 -0.00939141 0.0657399 -0.00939141 0.0657399 -0.00939141 0.0657399 0 0.0657399 -0.000585053 0.0307982 0.580609 0.129511 0.00223979 -0.0100463c-0.00525238,0.00756203 -0.0187828,0.0231838 -0.0187828,0.0281742 0,0.0501094 0.06994,0.0497252 0.103306,0.0657355l0.00939141 -0.00938705 0.0187828 -0.00939141 0.00939141 -0.00939141 0 -0.0469571 0 -0.0281742 0.00939141 -0.0281742 0.00939141 -0.0281742 0.00939141 -0.0375657 0.00939141 -0.0375657 0.00939141 -0.0375657 0.00939141 -0.0375657 0.00939141 -0.0281742 0.00939141 -0.0375657 0.00939141 -0.0281742 0.00939141 -0.0281742 0.00939141 -0.0281742 0.00939141 -0.0281742 0.00939141 -0.0187828 0.00939141 -0.0281742 0.00939141 -0.0281742 0.00939141 -0.0281742 0.00939141 -0.00939141 0.0375657 -0.00939141 0.0281742 -0.00939141 0 0.150263 0.00939141 0.00939141 0.00939141 0.0187828 0.0187828 0.00939141 0.0187828 0 0.00939141 -0.00939141 0.00939141 -0.00939141 0 -0.19722 0.0375657 0 0.0375657 -0.00939141 0.0375657 -0.00939141 0.0375657 -0.00939141 0.0375657 -0.00939141 0.00939141 -0.00939141 0 -0.0281742 -0.0518427 -0.167862c0.104375,-0.0033968 0.154502,-0.113876 0.230275,-0.113876l0.0281742 0c-0.00622165,0.0747908 -0.0731054,0.0312043 -0.0751313,0.122088l0.0187828 0 0.00939141 -0.00939141 0.00939141 -0.00939141 0.00939141 -0.00939141 0.00939141 -0.00939141 0.00939141 -0.00939141 0.00939141 -0.00939141 0.00939141 -0.00939141 0.00939141 -0.00939141 0.00939141 -0.00939141 0.00939141 -0.00939141 0.00939141 -0.00939141 0.00939141 -0.00939141 0.00939141 -0.00939141 0.00939141 -0.00939141 0.00939141 -0.00939141 0.00939141 -0.00939141 0.00939141 -0.00939141 0.00939141 -0.00939141 0.00939141 -0.00939141 0.00939141 -0.00939141 0.00939141 -0.00939141 0.00939141 -0.00939141 0.00939141 -0.00939141 0.00939141 -0.00939141 0.00939141 -0.00939141 0.00939141 -0.00939141 0 -0.0187828 -0.00939141 -0.00939141 -0.00939141 -0.00939141 -0.122088 -0.122088 -0.00939141 -0.00939141 -0.00939141 -0.00939141 -0.00939141 0 -0.00939141 0.00939141 -0.00939141 0.00939141 -0.00939141 0.00939141 -0.00939141 0.00939141 -0.00939141 0.00939141 -0.00939141 0.00939141 -0.00939141 0.00939141 -0.00939141 0.00939141 -0.00938705 0.00939141 -0.00939578 0.00939141 -0.00939141 0.00939141 -0.00938705 0.00939141 -0.00939578 0.00939141 -0.0187785 0.00939141 -0.00939141 0.00939141 -0.00939578 0.00939141 -0.00938705 0.00939141 -0.00939141 0.00939141 -0.00939578 0.00939141 -0.00938705 0.00939141 -0.00939141 0.00939141 -0.00939141 0.00939141 -0.00939141 0.00939141 -0.00939141 0.00939141 -0.00939141 0.00939141 -0.00939141 0.00939141 -0.00939141 0.00939141 -0.00939141 0.00939141 -0.00939141 0.00939141 -0.00939141 0.00939141 -0.00939141 0.00939141 -0.00939141 0.00939141 -0.0187828 0.00939141 0 -0.0281742 -0.00939141 -0.0281742 -0.00939141 -0.0281742 -0.00939141 -0.0281742 -0.00939141 -0.0281742 -0.00939141 -0.0281742 -0.00939141 -0.0281742 -0.00939141 -0.0281742 0 -0.0187828 0 -0.0657399 -0.00939141 -0.0563485 -0.00939141 -0.0281742 -0.00939141 -0.0563485 -0.00939141 -0.0187828 0 -0.0187828 0 -0.00939141 -0.00939141 -0.0281742 -0.00939141 -0.0375613 -0.00939141 -0.00939141 -0.00939141 -0.00939578 -0.00939141 -0.00938705 -0.244177 -0.13148 -0.0281742 0 0 0.0187828 -0.0187828 0z"/>
    <polygon id="_125304568" class="fil8" points="5.0056,1.84071 4.98681,1.84071 4.98681,1.88767 4.96803,1.88767 4.96803,1.91584 4.97742,1.92523 4.97742,1.9534 4.97742,1.98158 4.98681,1.99097 4.99621,2.00036 5.0056,2.00975 5.01499,2.01914 5.02438,2.02854 5.03377,2.03792 5.04316,2.04731 5.05255,2.05671 5.06195,2.0661 5.08073,2.07549 5.09012,2.08488 5.09951,2.09427 5.1089,2.10366 5.11829,2.11305 5.13708,2.12245 5.14647,2.13184 5.16525,2.14123 5.17464,2.15062 5.19343,2.16001 5.21221,2.1694 5.2216,2.17879 5.24038,2.18819 5.24977,2.20697 5.24977,2.22575 5.24038,2.23514 5.24038,2.25393 5.24977,2.29149 5.45638,2.19758 5.45638,2.18819 5.44699,2.16001 5.4376,2.14123 5.41881,2.14123 5.40003,2.15062 5.39064,2.13184 5.38125,2.10366 5.37186,2.08488 5.36247,2.07549 5.35307,2.0661 5.34368,2.05671 5.33429,2.04731 5.3249,2.01914 5.31551,2.00036 5.30612,1.98158 5.29673,1.9534 5.28733,1.92523 5.27795,1.90645 5.26855,1.89706 5.25916,1.88767 5.24977,1.87827 5.21221,1.87827 5.21221,1.91584 5.2216,1.94401 5.23073,1.9923 5.20281,1.98158 5.18403,1.97219 5.17464,1.9628 5.15586,1.9534 5.14647,1.94401 5.13708,1.93462 5.12769,1.92523 5.11829,1.91584 5.1089,1.90645 5.09951,1.89706 5.09012,1.88767 5.08073,1.87827 5.07134,1.85949 5.06195,1.8501 5.05255,1.84071 5.04316,1.83132 5.01499,1.83132 "/>
    <path id="_125466272" class="fil9" d="M3.31515 2.13184l-0.00939141 0.00939141 -0.0187828 0.00939141 -0.0187828 0.00939141 -0.00939141 0.00939141 -0.00939141 0.460179c0.0933727,0 0.0697348,0.0118975 0.122088,0.0469571l0 -0.00939141 -0.000497732 -0.534507 -0.0182851 -0.0101948 -0.0187828 0 -0.0187828 0.00939141z"/>
    <polygon id="_125466368" class="fil10" points="3.39028,2.09427 3.3715,2.10366 3.35272,2.11305 3.35272,2.12245 3.371,2.13264 3.3715,2.66715 3.46541,2.66715 3.47481,2.12245 3.47481,2.11305 3.46541,2.10366 3.44663,2.09427 3.42785,2.08488 3.39967,2.08488 "/>
    <path id="_125302552" class="fil11" d="M3.46541 2.66715l0.272347 0.0375657c-0.00616489,-0.0740878 -0.0915215,-0.0469571 -0.149948,-0.0469614l-0.0097014 -0.488349 -0.00939141 -0.00939141 -0.0187828 -0.00939141 -0.0187828 -0.00939141 -0.0187828 -0.00939141 -0.0187828 -0.00939141 -0.0187828 0 -0.00939141 0.544702z"/>
    <path id="_125466464" class="fil5" d="M3.3715 2.67654c-0.0523535,-0.0350595 -0.0287156,-0.0469571 -0.122088,-0.0469571 -0.05317,0 -0.159654,0.0198438 -0.159654,0.0563485 0,0.0697785 0.111588,0.112697 0.169045,0.112697l0.105454 0.000170277 0.00724331 -0.122259z"/>
    <path id="_125466560" class="fil12" d="M6.14195 2.04731l-0.00939141 0 -0.00939141 0.00939578 -0.00939141 0.00938705 -0.00939141 0.00939141 -0.00939141 0.00939141 -0.00939141 0.00939141 -0.00939141 0.00939141 -0.00939141 0.00939141 -0.00939141 0.00939141 -0.00938705 0.00939141 -0.00939578 0.0187828 -0.00939141 0.00939141 -0.00938705 0.00939141 -0.00939578 0.0187828 -0.00939141 0.0187828 -0.00938705 0.0187828 -0.00939141 0.0187828 -0.00939578 0.0187828 -0.00938705 0.0281742 -0.00939141 0.0281742 -0.00939578 0.00939141 -0.00938705 0.00939141 -0.00939141 0.00939141 -0.00939141 0.00939141 -0.00939141 0.00939141 -0.00939141 0.00939141 -0.00939141 0.00939141 -0.00939141 0.00939141 -0.0187828 0.00939141 -0.00939141 0.00939141 -0.00939141 0.00939141 -0.00939141 0.00939141 -0.00939141 0.00939141 -0.00939141 0.00939141 -0.00939141 0.00939141 -0.00939141 0.00939141 -0.00939141 0.00939141 -0.00939141 0.00939141 -0.00939141 0.00939141 -0.00939141 0.00939141 -0.00939141 0.0187828 -0.00939141 0.00939141 -0.00939141 0.00939141 -0.00939141 0.00939141 -0.0187828 0.00939141 -0.00939141 0.00939141 -0.00939141 0.00939141 -0.00939141 0.00939141 -0.00939141 0.00939141 -0.00939141 0.00939141 -0.0187828 0.00939141 0 -0.0281742 -0.00939141 -0.0187828 -0.00939141 -0.0281742 -0.00939141 -0.0187828 -0.00939141 -0.0281742 -0.00939141 -0.0187828 -0.00939141 -0.0187828 -0.00939141 -0.0281742 -0.00939141 -0.0187828 -0.00939141 -0.0281742 -0.00939141 -0.0187828 -0.00939141 -0.0281742 -0.00939141 -0.0187828 -0.00939141 -0.0281742 -0.00939141 -0.0187828 -0.00939141 -0.0281742 -0.00939141 -0.0187828 -0.00939141 -0.0281742 -0.0187828 0 -0.206607 0.0939141 -0.00939578 0 0 0.0187828 0.00939578 0.0187828 0.00938705 0.0281742 0.00939141 0.0187828 0.00939578 0.0281742 0.00938705 0.0187828 0.00939141 0.0281742 0.00939141 0.0187828 0.00939141 0.0281742 0.00939141 0.0187828 0.00939141 0.0187828 0.00939141 0.0281742 0.00939141 0.0187828 0.00939141 0.0281742 0.00939141 0.0187828 0.00939141 0.0281742 0.00939141 0.0187828 0.00939141 0.0281742 0.00939141 0.0187828 0.00939141 0.0281742 0.00939141 0.0187828 0.00939141 0.0281742 0.00939141 0.0187785 0.00939141 0.00939578 0.00939141 0.00939141 0.00939141 0.0187785 0.00939141 0.00939578 0.0187828 0.00938705 0.00939141 0.00939141 0.0187828 0.00939578 -0.00939141 0.00938705 -0.478958 0.00939141 -0.0187828 0.00939141c-0.00432241,0.0519126 -0.0281742,0.0314357 -0.0281742,0.0845227l0 0.00939141c0,0.0432066 0.0239915,0.0645611 0.0469571,0.0845227l0.751309 0 0.00939141 -0.0187828 0.00939141 -0.00939141 0.00939141 -0.00939141 0.00939141 -0.00939141 0.00939141 -0.0187828 0.00939141 -0.00939141 0.00939141 -0.00939141 0.00939141 -0.00939141 0.00939141 -0.0187828 0.00939141 -0.00939141 0.00939141 -0.00939141 0.00939141 -0.00939141 0.0105746 -0.0186955 -0.0105746 0.0562612 0 0.103306 0.122084 0 0 0.159654 -0.131475 0 -0.00939141 0.140871 0 0.150263 0 0.0469527c0.166919,-0.00371552 0.165653,-0.14405 0.190081,-0.288877 0.0209877,-0.124433 0.0579901,-0.277058 0.072599,-0.406359 0.0155781,-0.13785 0.0485725,-0.269657 0.0716559,-0.407302 0.0295452,-0.176127 0.0223979,-0.259209 0.229144,-0.259209l0.845223 0 0 -0.00939141 -0.497741 -0.00939141 -0.00939141 -0.0187828 -0.00939578 -0.0187828 -0.00938705 -0.00939141 -0.00939141 -0.0187828 -0.00939578 -0.00939141 -0.00938705 -0.00939141 -0.00939141 -0.0187828 -0.00939141 -0.00939141 -0.00939141 -0.00939141 -0.00939141 -0.00939141 -0.00939141 -0.00939141 -0.00939578 -0.00939141 -0.0187785 -0.00938705 -0.00939141 -0.00939578 -0.00939141 -0.00939141 -0.00939141 0 -0.497745 0.00939141z"/>
    <path id="_125303152" class="fil11" d="M4.12281 2.66715l0.00939141 0.0187828 0.00939141 0.0187828 0.00939141 0.0187828 0.00939141 0.0281742 0.00939141 0.0187828 0.00939141 0.0187785 0.00939141 0.0187872 0.00939141 0.0187828 0.00939141 0.0187785 0.00939141 0.0187872 0.00939141 0.0187785 0.00939141 0.0187828 0.00939141 0.0187828 0.00939141 0.0187828 0.00939141 0.0281742 0.00939141 0.0187828 0.00939141 0.0187828 0.00939141 0.0187828 0.00939141 0.0187828 0.00939141 0.0187828 0.00939141 0.0187828 0.00939141 0.0187828 0.403826 0c-0.0126398,-0.054244 -0.0375657,-0.0930278 -0.0375657,-0.159654l0 -0.0281742c0,-0.0288684 0.027515,-0.0375657 0.0563485,-0.0375657l0.0563485 0c0.0562175,0 0.121687,0.0422373 0.178437,0.0469571 -0.0231751,0.0201407 -0.0469571,0.0309773 -0.0469571,0.0751313l0 0.0281742c0,0.042674 0.0200577,0.0489873 0.0375657,0.0751313l0.0657399 0c-0.0229655,-0.0199617 -0.0469571,-0.0413161 -0.0469571,-0.0845227l0 -0.00939141c0,-0.053087 0.0238518,-0.0326102 0.0281742,-0.0845227l0 -0.00939141 -0.00939141 -0.0187785 -0.00939141 -0.0187872 -0.00939141 -0.0187828 -0.00939141 -0.0187785 -0.00939141 -0.0187872 -0.00939141 -0.0187785 -0.00939141 -0.0187828 -0.00939141 -0.0187828 -0.00939141 -0.0187828 -0.00939141 -0.0187828 -0.00939141 -0.0187828 -0.00939141 -0.0187828 -0.00939141 -0.0187828 -0.00939141 -0.0187828 -0.00939141 -0.0187828 -0.7607 0 0 0.0375657z"/>
    <path id="_125472968" class="fil13" d="M3.55933 2.02854l0.00939141 0.00938705 0.00939141 0.0281742 0 0.0939141 0 0.00939141 0.0097014 0.488349c0.0584267,4.36607e-006 0.143783,-0.0271264 0.149948,0.0469614l-0.272347 -0.0375657 -0.0939141 0 0 0.00939141 -0.00724331 0.122259 -0.105454 -0.000170277c-0.0574575,0 -0.169045,-0.0429185 -0.169045,-0.112697 0,-0.0365047 0.106484,-0.0563485 0.159654,-0.0563485l0.00939141 -0.460179 0 -0.00939141 0 -0.103301 0.00939141 -0.0187872 0 -0.0281742 -0.00939141 0 -0.0281742 0.00939141 -0.0281742 0.00939578 -0.0281742 0.00938705 -0.0281742 0.00939141 -0.0187828 0.00939578 -0.0187828 0.00938705 -0.0187828 0.00939141 -0.00939141 0.00939141 -0.0187828 0.00939141 -0.0187828 0.00939141 -0.00939141 0.00939141 -0.00939141 0.00939141 -0.0187828 0.00939141 -0.00939141 0.00939141 -0.00939141 0.00939141 -0.00939141 0.00939141 0 0.00939141c-0.0627098,0.0936522 -0.131475,0.128406 -0.131475,0.300525l0 0.319304c0,0.0862211 0.0536328,0.140871 0.140867,0.140871l0 0.150263 0 0.0187828 0.26296 0 0.00036675 -0.184012 0.262593 -0.0225944 0.0751313 0 0 0.206607 0.169041 0 0.000379848 -0.189845 0.06536 0.0114085 0.00939141 0.00939141 0.0469571 0 0.0469571 -0.00939141 0.0187828 -0.00939141 0.00939141 -0.00939141 0.00939141 -0.00938705 0.00939141 -0.00939578 0.00939141 -0.00939141 0.00939141 -0.00938705 0.00939141 -0.0187872 0.00939141 -0.0187785 0 -0.422614 -0.00939141 -0.0469571 -0.00939141 -0.0281742 -0.00939141 -0.0281742 -0.00939141 -0.0187828 -0.00939141 -0.0187828 -0.00939141 -0.0187828 -0.00939141 -0.00939141 -0.00939141 -0.0187828 -0.00939141 -0.00939141 -0.00939141 -0.00939141 -0.00939141 -0.00939141 -0.00939141 -0.0187828 -0.00939141 -0.00939141 -0.00939141 -0.00939141 -0.0187828 -0.00939141 -0.00939141 -0.00939141 -0.00939141 -0.00939141 -0.00939141 -0.00939141 -0.00939141 -0.00939141 -0.0187828 -0.00939141 -0.00939141 -0.00939141 -0.0187828 -0.00939141 -0.0187828 -0.00939141 -0.0187828 -0.00938705 -0.0187828 -0.00939578 -0.0187785 -0.00939141 -0.0281742 -0.00938705 -0.0281742 -0.00939578 -0.0375657 -0.00939141 -0.0375657 -0.00938705 -0.00939141 0 0 0.0281742z"/>
    <polygon id="_125472872" class="fil11" points="3.24941,3.09915 3.5875,3.09915 3.5875,2.89254 3.51237,2.89254 3.24978,2.91514 "/>
    <path id="_125304256" class="fil14" d="M2.52628 2.17879l-0.0187828 0.00939141 -0.00939141 0.00939141 -0.00939141 0.00939141 -0.00939141 0.00939141 -0.00939141 0.00939141 -0.00939141 0.0187828 -0.00939141 0.0375657 0 0.817049 0.535306 0 0 -0.0187828 0 -0.150263c-0.087234,0 -0.140867,-0.0546501 -0.140867,-0.140871l0 -0.319304c0,-0.172119 0.0687656,-0.206873 0.131475,-0.300525l-0.422609 0 -0.0281742 0.00939141z"/>
    <path id="_125472776" class="fil5" d="M4.73325 3.09915l0.244177 0c-0.0175079,-0.026144 -0.0375657,-0.0324574 -0.0375657,-0.0751313l0 -0.0281742c0,-0.044154 0.023782,-0.0549906 0.0469571,-0.0751313 -0.0567502,-0.00471972 -0.122219,-0.0469571 -0.178437,-0.0469571l-0.0563485 0c-0.0288335,0 -0.0563485,0.00869721 -0.0563485,0.0375657l0 0.0281742c0,0.0666262 0.0249259,0.10541 0.0375657,0.159654z"/>
    <path id="_125472704" class="fil15" d="M3.5875 3.09915l-0.338091 0 -0.26296 0 -0.535306 0 -0.920354 0 -0.103306 0 0 0.159654 0.103306 0 0.676177 0 0.488353 0.00939141 0.122088 -0.00939141 0.178432 0 0.770698 -0.000851383 0.0557416 0.038417 0 -0.0375657 0.779483 0 0 0.0281742 0.00939141 0.0187828 0.00939141 0.0281742 0.00939141 0.0187828 0.00939141 0.0187828 0.00939141 0.0281742 0.00939141 0.0187828 0.00939141 0.0281742 0.00939141 0.0187828 0.00939141 0.0187828 0.00939141 0.0281742 0.00939141 0.0187785 0.00939141 0.0281742 0.00939141 0.0187872 0.00939141 0.0187785 0.00939141 0.0281742 0.00939141 0.0187828 0.00939141 0.0281742 0.00939141 0.0187828 0.00939141 0.0187828 0.00939141 0.0281742 0.00939141 0.0187828 0.00939141 0.0281742 0.00939141 0.0187828 0.00939141 0.0187828 0.00939141 0.0281742 0.00939141 0.0187828 0.00939141 0.0281742 0.00939141 0.0187828 0.00939141 0.0187828 0.00939141 0.0281742 0.00939141 0.0187828 0.00939141 0.0281742 0.00939141 0.0187828 0.00939141 0.0187828 0.00939141 0.0281742 0.00939141 0.0187828 0.00939141 0.0281742 0.00939141 0.0187828 0.00939141 0c0,-0.137553 -0.00178136,-0.276202 -0.000371116,-0.413589 0.00208698,-0.20293 0.177136,-0.150647 0.235152,-0.187457l0 -0.0281742 -0.00938705 -0.0187828 -0.00939141 -0.0281742 -0.00939578 -0.0187828 -0.00938705 -0.0187828 -0.00939141 -0.0281742 -0.00939141 -0.0187828 -0.00939141 -0.0281742 -0.00939141 -0.0187828 -0.00939141 -0.0187828 -0.00939141 -0.0281742 -0.00939141 -0.0187828 0.798266 -0.00939141 0.131475 0 0 -0.159654 -0.122084 0 -0.112697 0 -0.751309 0 -0.0657399 0 -0.244177 0 -0.403826 0 -0.507136 0 0 -0.178437 -0.06536 -0.0114085 -0.000379848 0.189845 -0.169041 0z"/>
    <polygon id="_125304232" class="fil16" points="2.19758,3.28698 2.18819,3.30576 2.17879,3.32454 2.1694,3.35272 2.16002,3.3715 2.15062,3.39967 2.14123,3.41846 2.13184,3.43724 2.12245,3.46541 2.11305,3.4842 2.10367,3.51237 2.10367,3.52176 2.59202,3.52176 2.69532,3.26819 2.20697,3.2588 "/>
    <path id="_125472632" class="fil17" d="M2.69532 3.26819l-0.103306 0.253568 -0.00939141 0.0375613c0.080209,0.0922856 0.105,0.0939141 0.272347,0.0939141 -0.0372251,-0.159785 -0.0375613,-0.189204 -0.0375613,-0.394435l-0.122088 0.00939141z"/>
    <path id="_125472536" class="fil18" d="M4.96803 4.14159l0 0.385044 -0.150263 0 0.497741 0.00939141 0 -0.610437c-0.130318,0 -0.262955,-0.0198176 -0.262955,-0.140871l0 -0.0563485c0,-0.152712 0.190749,-0.13148 0.347478,-0.13148 0.162784,0 0.325569,0 0.488353,0l0 -0.0469527 -0.244177 0 -0.0751313 0 -0.356869 -0.00939141 -0.00939578 0c-0.0580163,0.0368103 -0.233065,-0.0154733 -0.235152,0.187457 -0.00141024,0.137387 0.000371116,0.276036 0.000371116,0.413589z"/>
    <path id="_125304136" class="fil19" d="M3.33393 3.71898c0.0352516,-0.0555539 0.0141417,-0.197215 0.169045,-0.197215l0.13148 0c0.0853261,0 0.131628,0.135911 0.197215,0.15965l0 -0.0281742c0,-0.0490222 0.0553268,-0.10589 0.0880418,-0.127956 0.0565668,-0.0381594 0.121656,-0.0359109 0.156135,-0.0598675l0 -0.00939141 -0.00939141 -0.00939141 -0.0187828 -0.00939141 -0.00939141 -0.00939141 -0.0187828 -0.00939141 -0.00939141 -0.00939141 -0.0187828 -0.00939141 -0.00939141 -0.00939141 -0.0187828 -0.00939141 -0.00939141 -0.00939141 -0.0187828 -0.00939141 -0.00939141 -0.00939141 -0.0187828 -0.00939141 -0.00939141 -0.00939141 -0.0187828 -0.00939141 -0.00939141 -0.00939141 -0.0187828 -0.00939141 -0.00939141 -0.00939141 -0.0187828 0 -0.0557416 -0.038417 -0.770698 0.000851383c0,0.152677 0.00368496,0.234008 0.0820253,0.312414 0.0621248,0.0621815 0.160047,0.125393 0.256066,0.147761z"/>
    <polygon id="_125472440" class="fil15" points="2.09428,3.53115 2.08488,3.54994 2.07549,3.57811 2.0661,3.59689 2.05671,3.62506 2.04732,3.64385 2.03793,3.66263 2.02854,3.6908 2.01915,3.70959 2.00975,3.73776 2.00036,3.75654 1.99097,3.77533 1.98158,3.8035 1.97219,3.82228 1.9628,3.85046 1.95341,3.86924 1.94401,3.88802 1.93462,3.9162 1.92523,3.93498 1.91584,3.96315 1.90645,3.98194 1.89706,4.00072 1.88767,4.02889 1.87827,4.04768 1.86888,4.07585 1.85949,4.09463 1.8501,4.11342 1.84071,4.14159 1.83132,4.16037 1.82193,4.18855 1.81253,4.20733 1.80314,4.22611 1.79375,4.25429 1.78436,4.27307 1.77497,4.30124 1.76558,4.32003 1.75619,4.3482 1.74679,4.36698 1.7374,4.38576 1.72801,4.41394 1.71862,4.43272 1.70923,4.4609 1.69984,4.47968 1.69045,4.49846 1.69045,4.50785 1.58714,4.77081 2.07249,4.76936 2.11305,4.69568 2.12245,4.6769 2.13184,4.65811 2.14123,4.62994 2.15062,4.61116 2.16002,4.58298 2.1694,4.5642 2.17879,4.54542 2.18819,4.51724 2.19758,4.49846 2.20697,4.47029 2.21636,4.4515 2.22575,4.43272 2.23514,4.40455 2.24453,4.38576 2.25393,4.35759 2.26332,4.33881 2.27271,4.32003 2.2821,4.29185 2.29149,4.27307 2.30088,4.2449 2.31027,4.22611 2.31967,4.20733 2.32906,4.17916 2.33845,4.16037 2.34784,4.1322 2.35723,4.11342 2.36662,4.09463 2.37601,4.06646 2.38541,4.04768 2.3948,4.0195 2.40419,4.00072 2.41358,3.98194 2.42297,3.95376 2.43236,3.93498 2.44175,3.90681 2.45115,3.88802 2.46054,3.86924 2.46993,3.84107 2.47932,3.82228 2.58263,3.55932 2.59202,3.52176 2.10367,3.52176 "/>
    <path id="_125472344" class="fil20" d="M6.20769 3.92559l0.26296 0 0.648003 0 0.0281742 -0.00939141 0.00939141 -0.00939141 0.0187828 -0.00939141 0.00939141 -0.00939141 0.00939141 -0.00939141 0.00939141 -0.00939141 0.00939141 -0.00939141 0.00939141 -0.0187828 0.00939141 -0.0187828 0.00939141 -0.0281742 0.00939141 -0.0563485 0.00939141 -0.0657399 0.00939141 -0.0563485 0.00939141 -0.0657355 0.00939141 -0.0563485 0.00939141 -0.0563485 0.00939141 -0.0657399 0.00939141 -0.0563485 0.00939141 -0.0657399 0.00939141 -0.0563485 0.00939141 -0.0563485 0.00939141 -0.0657399 0.00939141 -0.0563485 0.00939141 -0.0657399 0.00939141 -0.0563441 0.00939141 -0.0563485 0.00939141 -0.0657399 0.00939141 -0.0563485 0.00939141 -0.0657399 0.00939141 -0.0563485 0.00939141 -0.0563485 0.00939141 -0.0657399 0 -0.13148 -0.00939141 -0.0187828 -0.00939141 -0.0187828 -0.00939141 -0.00939141 -0.00939141 -0.00939141 -0.00939141 -0.00939141 -0.00939141 -0.00939141 -0.00939141 -0.00939141 -0.0187828 -0.00939141 -0.0187828 -0.00939141 -0.0469571 0 -0.845223 0c0.0541174,0.0376049 0.122088,0.0433987 0.122088,0.150263l0 0.0563485c0,0.0846275 -0.0567633,0.294365 -0.0654692,0.39471 -0.0113125,0.130436 -0.0379761,0.270989 -0.0605617,0.399613 -0.0241313,0.137448 -0.037164,0.263256 -0.0641375,0.396037 -0.0123167,0.0606272 -0.0108017,0.146058 -0.0364348,0.19835 -0.0414165,0.0844878 -0.0850816,0.0604919 -0.139662,0.0951235z"/>
    <path id="_125304064" class="fil17" d="M5.88839 3.59689c-0.162784,0 -0.325569,0 -0.488353,0 -0.156729,0 -0.347478,-0.0212322 -0.347478,0.13148l0 0.0563485c0,0.121054 0.132637,0.140871 0.262955,0.140871l0.0563485 0 0.140871 0 0.347482 0 0.00939141 0 0.338087 0c0.0545802,-0.0346317 0.0982453,-0.0106357 0.139662,-0.0951235 0.0256332,-0.0522924 0.0241182,-0.137723 0.0364348,-0.19835 0.0269736,-0.132781 0.0400063,-0.258589 0.0641375,-0.396037 0.0225857,-0.128624 0.0492493,-0.269177 0.0605617,-0.399613 0.00870594,-0.100345 0.0654692,-0.310083 0.0654692,-0.39471l0 -0.0563485c0,-0.106864 -0.067971,-0.112658 -0.122088,-0.150263 -0.206746,0 -0.199599,0.0830819 -0.229144,0.259209 -0.0230834,0.137645 -0.0560778,0.269452 -0.0716559,0.407302 -0.0146089,0.129301 -0.0516113,0.281926 -0.072599,0.406359 -0.0244282,0.144827 -0.023162,0.285161 -0.190081,0.288877z"/>
    <polygon id="_125472272" class="fil17" points="4.50786,3.96315 4.53603,3.96315 4.55481,3.95376 4.57359,3.94437 4.58298,3.93498 4.59237,3.92559 4.60177,3.90681 4.61116,3.88802 4.62055,3.85985 4.62055,3.8035 4.61116,3.77533 4.60177,3.76593 4.59237,3.74715 4.58298,3.73776 4.57359,3.72837 4.5642,3.71898 4.54542,3.70959 4.51724,3.70019 4.44212,3.6908 4.35759,3.68141 4.28246,3.68141 4.28246,3.96315 "/>
    <path id="_125472176" class="fil20" d="M2.58263 3.55932l-0.103306 0.26296 0.00939141 0.0187828 0.00939141 0.00939141 0.0187828 0.00939141 0.00939141 0.00939141 0.0187828 0.00939141 0.0469571 0.00939141 0.0751313 0.00939141 0.0657399 0.00939141 0.0657399 0.00939141 0.0751313 0.00939141 0.0657355 0.00939141 0.0657399 0.00939141 0.0751313 0.00939141 0.0657399 0.00939141 0.0657399 0 0.26296 0c0,-0.159899 -0.0501661,-0.181148 -0.140871,-0.244177 -0.0960186,-0.0223674 -0.193941,-0.0855793 -0.256066,-0.147761 -0.0783404,-0.0784059 -0.0820253,-0.159737 -0.0820253,-0.312414l-0.178432 0c0,0.205231 0.000336187,0.23465 0.0375613,0.394435 -0.167347,0 -0.192138,-0.00162854 -0.272347,-0.0939141z"/>
    <path id="_125303968" class="fil21" d="M3.8035 3.96315l0.13148 0c-0.00462367,-0.0555495 -0.085444,-0.147364 -0.13148,-0.159654l0 0.159654z"/>
    <polygon id="_125472104" class="fil22" points="3.21185,4.17916 3.43724,4.17916 3.43724,3.97255 3.47481,3.97255 3.47481,3.96315 3.21185,3.96315 "/>
    <path id="_125472032" class="fil23" d="M5.50334 4.25429l0.0187828 0.0375657 0 0.234781 0.150263 0c0.0315492,-0.0596187 0.0978349,-0.0657399 0.187828,-0.0657399l0 -0.535306 -0.347482 0 -0.00939141 0.328699z"/>
    <polygon id="_125304304" class="fil24" points="6.1983,4.40455 6.48004,4.40455 6.47065,3.92559 6.20769,3.92559 "/>
    <polygon id="_125471936" class="fil25" points="3.21185,4.4515 3.43724,4.4515 3.43724,4.17916 3.21185,4.17916 "/>
    <path id="_125471840" class="fil18" d="M0.817049 2.56384l-0.00939141 0.00939141 0 0.0563485 0.00939141 0.00939141 0.00939141 0.244172 0 0.150263 -0.00939141 0.0939141 -0.00939141 0.0939141 -0.00939141 0.0939141 -0.00939141 0.0845227 -0.00939141 0.0939141 -0.00939141 0.0939098 -0.00939141 0.0939141 -0.00939141 0.0939141 -0.00939141 0.0939141 -0.00939141 0.0845227 -0.00939141 0.0939141 -0.00939141 0.0939141 -0.00939141 0.0939141 -0.00939141 0.0939098 -0.00939141 0.0845227 0 0.0939141 0.291134 0 0.00939141 -0.00939141 0.00939141 -0.0469571 0.00939141 -0.0375657 0.00939141 -0.0469571 0.00939141 -0.0375657 0.00939141 -0.0375613 0.00939141 -0.0469571 0.00939141 -0.0375657 0.00939141 -0.0469571 0.00939141 -0.0375657 0.00939141 -0.0375657 0.00939141 -0.0469571 0.00939141 -0.0375657 0.00939141 -0.0469571 0.00939141 -0.0375657 0.00939141 -0.0375657 0.00939141 -0.0469571 0.00939141 -0.0375657 0.00939141 -0.0469571 0.00939141 -0.0187828 0 0.0281742 0.00939141 0.0281742 0.00939141 0.0281742 0.00939141 0.69496 0.356869 0 0 -0.967307 -0.00939141 -0.234785 -0.00939141 -0.0469571 -0.103306 0 0 -0.159654 0.103306 0 0 -0.0187828 -0.00939141 -0.234785 -0.00939141 -0.0563485c-0.0333655,-0.0160104 -0.103306,-0.0156262 -0.103306,-0.0657355 0,-0.00499042 0.0135304,-0.0206122 0.0187828,-0.0281742l-0.00223979 0.0100463 -0.580609 -0.129511 0.000585053 -0.0307982 -0.00939141 0 0 0.0187828 -0.0187828 0z"/>
    <polygon id="_125304448" class="fil15" points="5.31551,4.53603 5.52212,4.53603 5.52212,4.52663 5.52212,4.29185 5.50334,4.25429 5.50334,4.23551 5.49395,4.21672 5.48455,4.18855 5.47516,4.16977 5.46577,4.14159 5.45638,4.12281 5.44699,4.10403 5.4376,4.07585 5.42821,4.05707 5.41881,4.02889 5.40942,4.01011 5.40003,3.99133 5.39064,3.96315 5.38125,3.94437 5.37186,3.92559 5.31551,3.92559 "/>
    <path id="_125471744" class="fil1" d="M5.52212 4.52663l0 0.00939141 0.140871 0 0 0.0469571c0,0.0237689 -0.0375657,0.051489 -0.0375657,0.0845227 0,0.0645872 0.0418793,0.0744022 0.0751313,0.103306l0.148385 -0.00187741 0.0206602 -0.0169054 0 -0.0563485 -0.000192107 -0.114064 0.178629 -0.0268077 0 0.0375657c0,0.0289907 -0.0281742,0.0214156 -0.0281742,0.103306 0.0186737,0.0352953 0.0404735,0.0751313 0.0939098,0.0751313 0.0551303,0 0.0722628,-0.0334048 0.0939141,-0.0657399l0 -0.0469571 -0.0286851 -0.0763975 0.159654 -0.0632076 0.162457 0.0657093 -0.0304664 0.0645043c0,0.0704334 0.0194377,0.122088 0.0845227,0.122088 0.0726426,0 0.0939141,-0.0451102 0.0939141,-0.122088 -0.00882382,-0.0378625 -0.0281742,-0.0437786 -0.0281742,-0.0657399l-0.000165911 -0.026991 0.260667 0.0355878 -0.0257161 0.1041c0.0186737,0.0352953 0.0404735,0.0751313 0.0939098,0.0751313 0.0667004,0 0.0715817,-0.0518864 0.103306,-0.0751313l0 -0.0375657 -0.00939141 -0.0281742 -0.00939141 -0.0187828 -0.00939141 -0.00939141 -0.00939141 -0.0751313 -0.00939141 -0.0187828 -0.00939141 -0.00939141 -0.00939141 -0.00939141 -0.00939141 -0.00939141 -0.0187828 -0.00939141 -0.0469571 -0.00939141 -0.0657399 -0.00939141 -0.0657399 -0.00939141 -0.0657355 -0.00939141 -0.0657399 -0.00939141 -0.0657399 -0.00939141 -0.0657399 -0.00938705 -0.0375657 0 -0.281742 0 -0.0375657 0 -0.0657399 0.00938705 -0.0657399 0.00939141 -0.0751269 0.00939141 -0.0657399 0.00939141 -0.0187828 0.00939141 0 -0.525915 -0.00939141 0 0 0.535306c-0.0899934,0 -0.156279,0.00612123 -0.187828,0.0657399l-0.150263 0z"/>
    <path id="_125471672" class="fil9" d="M5.8696 4.69568l0.150263 0c0,-0.08189 0.0281742,-0.0743148 0.0281742,-0.103306l0 -0.0375657 -0.178629 0.0268077 0.000192107 0.114064z"/>
    <polygon id="_125302768" class="fil9" points="6.20769,4.65811 6.21708,4.69568 6.46002,4.69556 6.47065,4.64872 6.50112,4.58422 6.33866,4.51851 6.179,4.58172 "/>
    <path id="_125471600" class="fil9" d="M6.64909 4.64872l0.00939141 0.0469571 0.178432 0 0.0187872 0 0.0257161 -0.1041 -0.260667 -0.0355878 0.000165911 0.026991c0,0.0219613 0.0193504,0.0278773 0.0281742,0.0657399z"/>
    <path id="_125471528" class="fil26" d="M3.49359 4.76142l1.1063 0.007514 0.0206602 -0.0169054 0 -0.0563485 0 -0.0281742 -0.00939141 -0.0281742 -0.00939141 -0.00939141 -0.00939141 -0.0187828 -0.00939141 -0.00939141 -0.00939141 -0.00939141 -0.00939141 -0.00939141 -0.00939141 -0.00939141 -0.00939141 -0.00939141 -0.0187828 -0.00939141 -0.00939141 -0.00939141 -0.0281742 -0.00939141 -0.0281742 0 -0.967307 0 0 0.19722c0,0.051166 0.0162985,-0.00642249 0,0.0281742z"/>
    <path id="_125303056" class="fil13" d="M3.79411 4.47968l0.00939141 -0.244172 0.00939141 -0.244177 0 -0.0187828 0.13148 0 -0.000165911 0.555373 -0.0373997 -0.010675 -0.0469571 -0.00939141 -0.0657399 -0.00939141 0 -0.0187828zm0.00939141 -0.676177c0.0460358,0.0122905 0.126856,0.104105 0.13148,0.159654l-0.13148 0 0 -0.159654zm-0.469566 -0.0845227c0.0907051,0.0630286 0.140871,0.0842782 0.140871,0.244177l0 0.00939141 0 0.291134 0.00891988 0.198626 -0.0183113 -0.0108017 -0.0281742 0 -0.225394 0 -0.0281742 0 -0.0657399 0.00939141 -0.0657399 0.00939141 -0.0657399 0.00939141 -0.0657399 0.00939141 -0.0657399 0.00939141 -0.0657355 0.00939141 -0.0469571 0.00939141 -0.00939141 0.103306 -0.00939141 0.00939141 -0.00939141 0.0187828 0 0.0469571c0.00815145,0.0349897 0.0357319,0.0751313 0.0751313,0.0751313 0.0668489,0 0.0679797,-0.0378102 0.0939098,-0.0751313l0 -0.0375657 -0.00938705 -0.0187828 -0.00939141 -0.0187828 0.0281742 0 0.0657399 -0.00939141 0.0657355 -0.00939141 0.0482451 -0.00922114 -0.0106794 0.0373954 -0.00939141 0.0187828 0 0.0281742c0.00108278,0.0485594 0.0296107,0.0939141 0.0751313,0.0939141 0.0616707,0 0.0691061,-0.03943 0.0939141,-0.0751313l0 -0.0375657 -0.00939141 -0.0187828 -0.00939141 -0.00939141 0 -0.0187828 0.0187828 -0.00939141 0.0281742 -0.00939141 0.0281742 -0.00939141 0.0187828 -0.00939141 0.0563485 0 0.0187828 0.00939141 0.0281742 0.00939141 0.0187828 0.00939141 0.0281742 0.00939141 0 0.0187828 -0.00939141 0.00939141 -0.00939141 0.0187828 0 0.0375657c0.0227516,0.0327411 0.0186475,0.054768 0.0657399,0.0657399 0.0162985,-0.0345967 0,0.0229917 0,-0.0281742l0 -0.19722 0.967307 0 0 -0.00939141 -0.178432 0 0 -0.554089 0.225394 0 0 -0.00939141 -0.225394 0 0 -0.281742 0 -0.0375657 -0.00939141 -0.0281742 -0.00939141 -0.0187828 -0.00939141 -0.00939141 -0.00939141 -0.00938705 -0.00939141 -0.00939141 -0.00939141 -0.00939578 -0.00939141 -0.00938705 -0.00939141 -0.00939141 -0.0187828 -0.00939578 -0.00939141 -0.00938705 -0.0187828 -0.00939141 -0.00939141 -0.00939141 -0.0187828 -0.00939141 -0.00939141 -0.00939141 -0.0187828 -0.00939141 -0.00939141 -0.00939141 -0.0187828 0c-0.0344788,0.0239566 -0.0995682,0.0217081 -0.156135,0.0598675 -0.032715,0.0220661 -0.0880418,0.0789342 -0.0880418,0.127956l0 0.0281742c-0.0655871,-0.0237383 -0.111889,-0.15965 -0.197215,-0.15965l-0.13148 0c-0.154904,0 -0.133794,0.141661 -0.169045,0.197215z"/>
    <polygon id="_125471456" class="fil26" points="0.685569,4.69568 0.687451,4.75015 0.704352,4.77081 1.58714,4.77081 1.69045,4.50785 1.54957,4.50785 1.19271,4.50785 0.976703,4.50785 0.685569,4.50785 "/>
    <path id="_125471360" class="fil26" d="M4.77081 4.53603l-0.0187828 0.00939141 -0.0187828 0.00939141 -0.00939141 0.00939141 -0.0187828 0.00939141 -0.00939141 0.00939141 -0.00939141 0.00939141 -0.00939141 0.0187828 -0.00939141 0.00939141 -0.00939141 0.0187828 -0.00939141 0.0187828 -0.00939141 0.0281742 0 0.00939141 0.00938268 0.0741926 1.05184 0.000938705c-0.033252,-0.0289034 -0.0751313,-0.0387183 -0.0751313,-0.103306 0,-0.0330337 0.0375657,-0.0607538 0.0375657,-0.0845227l0 -0.0469571 -0.140871 0 -0.206611 0 -0.497741 -0.00939141 -0.00939141 0 -0.0375657 0.00939141z"/>
    <path id="_125301568" class="fil25" d="M6.20769 4.65811l0 0.0469571c-0.0216513,0.0323351 -0.0387838,0.0657399 -0.0939141,0.0657399 -0.0534363,0 -0.0752361,-0.039836 -0.0939098,-0.0751313l-0.150263 0 0 0.0563485 -0.0206602 0.0169054 -0.148385 0.00187741 -1.05184 -0.000938705 -0.00938268 -0.0741926 -0.0187828 0 0 0.0563485 -0.0206602 0.0169054 -1.1063 -0.007514c-0.0470924,-0.0109719 -0.0429883,-0.0329987 -0.0657399,-0.0657399l-0.206611 0c-0.024808,0.0357013 -0.0322434,0.0751313 -0.0939141,0.0751313 -0.0455206,0 -0.0740485,-0.0453547 -0.0751313,-0.0939141l-0.00939141 0 0 0.0187828 -0.159654 0c-0.0259301,0.0373212 -0.0270609,0.0751313 -0.0939098,0.0751313 -0.0393994,0 -0.0669799,-0.0401416 -0.0751313,-0.0751313l-0.60105 0 -0.0405608 0.0736818 -0.485354 0.00144953 -0.882788 0 -0.0169011 -0.0206602 -0.00188178 -0.0544711 -0.648003 0 -0.00939141 0.00939141 -0.00939141 0.00939141 -0.00939141 0.00939141 -0.00939141 0.00939141 0 0.0657399 0.00939141 0.0187828 0.00939141 0.00939141 0.0187828 0.00939141 0.0187828 0.00939141 8.02022 0 0.0187828 -0.00939141 0.0187828 -0.00939141 0.00939141 -0.00939141 0.00939141 -0.0187828 0 -0.0657399 -0.00939141 -0.00939141 -0.00939141 -0.00939141 -0.00939141 -0.00939141 -0.00939141 -0.00939141 -1.04244 0c-0.0317239,0.0232449 -0.0366051,0.0751313 -0.103306,0.0751313 -0.0534363,0 -0.0752361,-0.039836 -0.0939098,-0.0751313l-0.0187872 0 -0.178432 0 -0.00939141 -0.0469571c0,0.0769782 -0.0212715,0.122088 -0.0939141,0.122088 -0.065085,0 -0.0845227,-0.051655 -0.0845227,-0.122088l-0.010627 0.0468392 -0.242941 0.000117884 -0.00939141 -0.0375657z"/>
   </g>
   <ellipse id="_125466776" class="fil27 str0" cx="3.2767" cy="1.33991" rx="0.0210095" ry="0.0236335"/>
   <ellipse id="_81924400" class="fil27 str0" cx="3.57495" cy="1.33991" rx="0.0210095" ry="0.0236335"/>
   <ellipse id="_125474144" class="fil28 str1" transform="matrix(0.99917 -0.0407247 0.0407247 0.99917 3.48941 1.69707)" rx="0.0761573" ry="0.0288859"/>
   <line id="_125474456" class="fil29 str2" x1="2.0634" y1="0.469566" x2="1.90582" y2= "0.538926" />
   <circle id="_125474240" class="fil27 str0" cx="2.02782" cy="0.582141" r="0.0409756"/>
   <ellipse id="_125473640" class="fil27 str0" cx="6.0552" cy="1.30185" rx="0.0216688" ry="0.0263972"/>
  </g>
 </g>
</svg>
