<?xml version="1.0" encoding="UTF-8"?>
<!DOCTYPE svg PUBLIC "-//W3C//DTD SVG 1.1//EN" "http://www.w3.org/Graphics/SVG/1.1/DTD/svg11.dtd">
<!-- Creator: CorelDRAW -->
<svg xmlns="http://www.w3.org/2000/svg" xml:space="preserve" width="10.4326in" height="6.82566in" style="shape-rendering:geometricPrecision; text-rendering:geometricPrecision; image-rendering:optimizeQuality; fill-rule:evenodd; clip-rule:evenodd"
viewBox="0 0 10.5373 6.89418"
 xmlns:xlink="http://www.w3.org/1999/xlink">
 <defs>
  <style type="text/css">
   <![CDATA[
    .fil18 {fill:#0191C7}
    .fil20 {fill:#1071AB}
    .fil10 {fill:#115B8D}
    .fil15 {fill:#27BACC}
    .fil23 {fill:#415050}
    .fil14 {fill:#56D0DB}
    .fil4 {fill:#73C7EF}
    .fil17 {fill:#7B7BC3}
    .fil13 {fill:#8A8AD9}
    .fil22 {fill:#8CA8AC}
    .fil16 {fill:#95DBBE}
    .fil1 {fill:#A3A3FF}
    .fil19 {fill:#B4D6DC}
    .fil9 {fill:#B9B9FF}
    .fil8 {fill:#BD1FC7}
    .fil7 {fill:#CCB1FE}
    .fil2 {fill:#DAFFFA}
    .fil5 {fill:#E2F3FC}
    .fil21 {fill:#E68D68}
    .fil6 {fill:#EBDCFE}
    .fil12 {fill:#FAFBFE}
    .fil11 {fill:#FC8A4B}
    .fil0 {fill:#FEE0E0}
    .fil3 {fill:#FFB4BA}
   ]]>
  </style>
 </defs>
 <g id="Layer_x0020_1">
  <metadata id="CorelCorpID_0Corel-Layer"/>
  <g id="_116906936">
   <path id="_117214808" class="fil0" d="M8.18541 0.138343l-0.0461198 0.0230559 -0.0230599 0.0230559 -0.0230519 0.0230599c-0.282242,0.421488 -0.254482,0.403312 -0.381675,0.978719 -0.0779797,0.352778 -0.471453,0.509453 -0.471453,0.888937l0 0.276691c0,0.131635 0.0588526,0.175687 0.0691717,0.299747l0 0.0230599 0.0230599 0.0230519 1.38345 0.0230559c-0.00600456,-0.0721223 -0.0230599,-0.0819085 -0.0230599,-0.161399l0 -0.115288c0,-0.180725 0.0927327,-0.276687 0.276691,-0.276687l0.0230559 -0.0691757 0.0230599 -0.0691717 0.0230599 -0.0461198 0.0230519 -0.0461079 0.0230599 -0.0230599 0.0230599 -0.0461118 0.0230559 -0.0230599 0.0230519 -0.0230599 0.0230599 -0.0230559 0.0230599 -0.0461118 0.0230599 -0.0230599 0.0230519 -0.0461198 0.0230599 -0.0691677 0.0230559 -0.0922316 0 -0.391974 -0.0230559 -0.0691717 -0.0230599 -0.0691757 -0.0230519 -0.0461118 -0.0230599 -0.0461158 -0.0230599 -0.0230599 -0.0230599 -0.0461118 -0.0230519 -0.0230599 -0.0230559 -0.0230599 -0.0230599 -0.0230559 -0.0461118 -0.0230559 -0.0461198 -0.0230559 -0.0230559 -0.0230599 -0.0461118 -0.0230599 -0.0230599 -0.0230519 -0.0230599 -0.0230599 -0.0230599 -0.0230559 -0.0230519 -0.0230599 -0.0230559 -0.0230519 -0.0230599 -0.0461198 -0.0230599 -0.0230599 -0.0230599 -0.0461118 -0.0230519 -0.0461158 -0.0230599 -0.0461118 -0.0230559 -0.0230599 -0.0230599 -0.0230559 -0.0230519 -0.0461198 -0.0230599 -0.0230519 -0.0230599 -0.0230599 -0.0461158 -0.0230599 -0.0230519 -0.0230559 -0.0461198 -0.0230559 -0.0461118 -0.0230559 -0.184463 0 -0.0461118 0.0230559z"/>
   <path id="_116902040" class="fil1" d="M3.91978 1.86766c-0.0120489,0.0517108 -0.0230599,0.0530071 -0.0230599,0.11528l0 0.461154c0,0.122346 0.574807,0.0691717 0.714781,0.0691717 0.130661,0 0.261322,0.000115319 0.391982,0 0.182765,-0.000163038 0.295917,0.0461158 0.368919,0.0461158l1.03759 0c0.0539734,0 0.0922276,-0.0382622 0.0922276,-0.0922276l0 -0.530322c0,-0.0708856 -0.0675493,-0.0922316 -0.138347,-0.0922316l-2.3288 0c-0.0622764,0 -0.0635767,0.011007 -0.115288,0.0230599z"/>
   <path id="_116906744" class="fil2" d="M6.50221 0.0230559l-0.115288 0.0230599 -0.0922276 0.0230519 -0.0922316 0.0230599 -0.0691677 0.0230599 -0.0691797 0.0230559 -0.0461118 0.0230559 -0.0691757 0.0230559 -0.0461118 0.0230599 -0.0461158 0.0230599 -0.0691717 0.0230519 -0.0922276 0.0230599 -0.115292 0.0230599 -0.322803 0 -0.138347 -0.0230599 -0.115284 -0.0230599 -0.161407 -0.0230519 -0.230575 -0.0230599 -0.599494 0 -0.230575 0.0230599 -0.161399 0.0230519 -0.138347 0.0230599 -0.115292 0.0230599 -0.0922276 0.0230559 -0.0922276 0.0230599 -0.0691717 0.0230519 -0.0691717 0.0230599 -0.0691757 0.0230599 -0.0691717 0.0230559 -0.0691677 0.0230559 -0.0461198 0.0230559 -0.0461158 0.0230599 -0.0691717 0.0230599 -0.0461118 0.0230599 -0.0461158 0.0230519 -0.0461198 0.0230599 -0.0461118 0.0230559 -0.0461158 0.0230599 -0.0230519 0.0230519 -0.0461198 0.0230599 -0.0461198 0.0230599 -0.0230519 0.0230559 -0.0461158 0.0230559 -0.0461118 0.0230559 -0.0230599 0.0230599 -0.0230599 0.0230599 -0.0461158 0.0230599 -0.0230519 0.0230519 -0.0230599 0.0230599 -0.0230599 0.0230559 -0.0461118 0.0230599 -0.0230559 0.0230519 -0.0230599 0.0230599 -0.0230599 0.0230599 -0.0230599 0.0230599 -0.0230519 0.0230559 -0.0230599 0.0230519 -0.0230559 0.0230599 -0.0230599 0.0230599 -0.0230519 0.0230599 -0.0230599 0.0230519 -0.0230599 0.0461158 -0.0230599 0.0230599 -0.0230559 0.0230519 -0.0230519 0.0461198 -0.0230599 0.0230599 -0.0230599 0.0230559 -0.0230599 0.0461118 -0.0230519 0.0461198 -0.0230599 0.0461118 -0.0230559 0.0461158 -0.0230599 0.0461118 -0.0230599 0.0461198 -0.0230519 0.0691677 -0.0230599 0.0691717 -0.0230599 0.115288 0 0.507266 0.0230599 0.0922276 0.0230599 0.0922356 0.0230519 0.0461118 0.0230599 0.0461198 -0.0461118 0 -0.0691757 0.0230519 -0.0461118 0.0230559 -0.0230599 0.0230599 -0.0461118 0.0230599 -0.0230599 0.0230519c0.0369181,0.158457 -0.00765879,0.334696 0.124545,0.405781 0.116254,0.0625031 0.313545,0.0166577 0.313545,0.239832l0 0.207515c0,0.0794908 -0.0170553,0.089281 -0.0230519,0.161399l0.322803 0c-0.127782,-0.266308 -0.102555,-0.486994 -0.193772,-0.751584 -0.0845529,-0.245296 -0.290438,-0.295671 -0.290438,-0.654918l0 -0.0461118c0,-0.423838 0.191581,-0.440969 0.386745,-0.627791 0.151414,-0.144933 0.276067,-0.502029 0.512503,-0.502029l0.0230519 0c0.231267,0 0.39912,0.340391 0.464486,0.526986 0.0393239,0.112273 0.0751286,0.241864 0.103064,0.381146 0.0462112,0.230392 0.0885812,0.249786 0.124179,0.383087l0.368915 0c0,-0.284374 0,-0.568751 0,-0.853125 0,-0.327117 -0.032528,-0.576442 0.299747,-0.576442l3.02054 0c0.313454,0 0.253627,0.378852 0.253627,0.691725 0,0.31512 0,0.63024 0,0.945356l0.161407 -0.0230559 0.0461118 -0.0230519 0.0230599 -0.0230599c-0.0103191,-0.12406 -0.0691717,-0.168112 -0.0691717,-0.299747l0 -0.276691c0,-0.379484 0.393474,-0.536159 0.471453,-0.888937 0.127193,-0.575408 0.0994331,-0.557231 0.381675,-0.978719l-0.0230559 -0.0230599 -0.0461198 -0.0230559 -0.0691717 -0.0230559 -0.0461158 -0.0230559 -0.0922316 -0.0230599 -0.0691677 -0.0230599 -0.0922316 -0.0230519 -0.115288 -0.0230599 -0.138347 -0.0230559 -0.760893 0 -0.138347 0.0230559z"/>
   <path id="_117217616" class="fil3" d="M9.49969 1.47567l-0.0230599 0.0230599 -0.0230599 0.0230559 -0.0230519 0.0230599 -0.0230559 0.0230599 -0.0230599 0.0230519 -0.0230599 0.0230599 -0.0230519 0.0461158 -0.0230599 0.0461118 -0.0230599 0.0461198 -0.0230559 0.0461118 -0.0230599 0.0691757 -0.0230519 0.0691717 -0.0230599 0.0922276 -0.0230599 0.0461158 -0.0230599 0.0230559 -0.0230519 0.0230559 -0.0691757 0.0230599 -0.0922276 0.0230599c-0.183958,0 -0.276691,0.0959616 -0.276691,0.276687l0 0.115288c0,0.0794908 0.0170553,0.0892771 0.0230599,0.161399l0.299747 0 0.0300546 -0.00103787 0.0160572 0.669711 0.0230599 0.0230519 0.0230599 0.0461158 0.0230559 0.0230599 0.0230519 0.0230519 0.0230599 0.0230599 0.0230599 0.0230599 0.0230599 0.0230599 0.0230519 0.0230559 0.0230599 0.0230519 0.0230559 0.0230599 0.0230599 0.0461198 0 0.184459 0 0.207515 0.0230599 0.0922316 0.0230519 0.0691677 0.0230599 0.0230599 0.0230599 0.0230599 0.0230559 0.0230519 0.0230519 0.0230599 0.0691797 0.0230559 0.0691677 0 0 0.484206 -0.530322 0 0 0.0691797 1.40651 0 0 -0.0691797 -0.807017 0 0 -0.507262 0.0461198 0 0.0691677 -0.0230599 0.0230599 -0.0230519 0.0461198 -0.0230599 0.0230519 -0.0230599 0.0461158 -0.0230599 0.0230599 -0.0230519 0.0230599 -0.0230559 0.0230519 -0.0230599 0.0230599 -0.0230599 0.0230559 -0.0230519 0.0230599 -0.0230599 0.0230519 -0.0230599 0.0230599 -0.0230559 0.0230599 -0.0230599 0.0230599 -0.0461118 0.0230559 -0.0230599 0.0230519 -0.0230599 0.0230599 -0.0461079 0.0230599 -0.0230599 0.0230599 -0.0461198 0.0230519 -0.0230519 0.0230599 -0.0461158 0.0230559 -0.0461118 0.0230599 -0.0461198 0.0230599 -0.0461118 0.0230519 -0.0461158 0.0230599 -0.0461198 0.0230599 -0.0691677 0.0230559 -0.0461118 0.0230519 -0.0691797 0.0230599 -0.0922276 0.0230599 -0.0922276 0 -0.415038 -0.0230599 -0.0691677 -0.0230599 -0.0230599 -0.0230519 -0.0461118 -0.0461158 -0.0230599 -0.0230599 -0.0230559 -0.138339 -0.0230599 -0.0691797 -0.0230599 -0.0230519 -0.0230519 -0.0461158 0 0 -0.0461198 -0.0230599 -0.0461079 -0.0230599 -0.184467 -0.0230519 -0.138339 -0.0230599 -0.115288 -0.0230559 -0.0691717 -0.0230599 -0.0691757 -0.0230519 -0.0461118 -0.0230599 -0.0691797 -0.0230599 -0.0230519 -0.0230599 -0.0461158 -0.0230559 -0.0230599 -0.0230519 -0.0461118 -0.0230599 -0.0230599 -0.0461198 -0.0230559 -0.0230519 -0.0230599 -0.0461158 -0.0230519 -0.161399 0 -0.0461198 0.0230519z"/>
   <path id="_116931248" class="fil4" d="M2.88219 3.13582c0.112039,0 0.391974,0.0458534 0.391974,-0.0691717l0 -0.345867c0,-0.0531225 -0.0160373,-0.0691677 -0.0691717,-0.0691677l-0.276687 0c-0.116131,0 -0.0830856,0.407157 -0.0461158,0.484206z"/>
   <path id="_116902544" class="fil5" d="M2.88219 3.13582c-0.0369698,-0.0770492 -0.0700147,-0.484206 0.0461158,-0.484206l0.276687 0c0.0531344,0 0.0691717,0.0160453 0.0691717,0.0691677l0 0.345867c0,0.115025 -0.279936,0.0691717 -0.391974,0.0691717zm1.03759 -1.26816c0.0517108,-0.0120529 0.0530111,-0.0230599 0.115288,-0.0230599l2.3288 0c0.0707981,0 0.138347,0.021346 0.138347,0.0922316l0 0.530322c0,0.0539655 -0.0382542,0.0922276 -0.0922276,0.0922276l-1.03759 0c-0.0730011,0 -0.186153,-0.0462788 -0.368919,-0.0461158 -0.130661,0.000115319 -0.261322,0 -0.391982,0 -0.139974,0 -0.714781,0.0531741 -0.714781,-0.0691717l0 -0.461154c0,-0.0622724 0.011011,-0.0635688 0.0230599,-0.11528zm0 0c-0.0388626,0.0270006 -0.0461118,0.00330052 -0.0461118,0.0691717l0 0.576434 -0.0691797 0 -0.0461079 0 -0.253639 0 -0.368915 0 -0.391982 0c-0.0278635,0.0416144 -0.0461118,0.0405367 -0.0461118,0.0922276l0 0.576442c0,0.0516949 0.0182483,0.0506133 0.0461118,0.0922316l0.115288 0c-0.0157987,-0.0281339 -0.0230519,-0.0246704 -0.0230519,-0.0691797l0 -0.0691677 0.0461118 0 0.0357053 0.117725 0.0250323 -0.0779082 0.0314901 0.0985304 0.530322 0 0.0993735 0.00218709 0.0620339 -0.232766c0.0338959,-0.00789341 0.299361,-0.0691677 0.299747,-0.0691677 0.0323093,0 0.0461118,0.0314305 0.0461118,0.0691677l-0.000894719 0.0663484 -0.0913329 0.0258832 0 0.115288c0,0.0881557 -0.00707822,0.00839048 0.0230559,0.0691677l0.0230599 -0.0461079 0.714781 0 0.0461118 0 0.0239665 -0.070146 0.0589163 0.0441395 0.0554646 -0.112341 0 0.138347c0.141,0 0.461146,0.0483705 0.461146,-0.0922316l0 -0.253635 1.08371 0c0.0516909,0 0.0506133,0.0182483 0.0922276,0.0461198l0 0.622549 0.0230599 0 0 -0.645609c-0.0416144,-0.0278715 -0.0405367,-0.0461198 -0.0922276,-0.0461198l-1.10677 0 0 -0.322799 1.10677 0c0.0539655,0 0.0922276,-0.0382622 0.0922276,-0.0922356l0 -0.576434c0,-0.0708856 -0.0675493,-0.0922316 -0.138347,-0.0922316l-0.115288 0 -2.30575 0 0.0230519 0c-0.0649288,0 -0.042692,0.00997711 -0.0691677,0.0461198z"/>
   <path id="_117218384" class="fil6" d="M2.006 3.80448l0.998021 -0.000934484 -0.0623997 -0.406831 -0.0824971 -0.122549 -0.115288 0c-0.0278635,-0.0416184 -0.0461118,-0.0405367 -0.0461118,-0.0922316l0 -0.576442c0,-0.0516909 0.0182483,-0.0506133 0.0461118,-0.0922276l0.391982 0c-0.0355979,-0.133301 -0.0779678,-0.152695 -0.124179,-0.383087 -0.0279351,-0.139282 -0.0637398,-0.268873 -0.103064,-0.381146 -0.0653662,-0.186595 -0.233219,-0.526986 -0.464486,-0.526986l-0.0230519 0c-0.236436,0 -0.361089,0.357096 -0.512503,0.502029 -0.195164,0.186821 -0.386745,0.203952 -0.386745,0.627791l0 0.0461118c0,0.359248 0.205885,0.409622 0.290438,0.654918 0.0912176,0.26459 0.0659905,0.485276 0.193772,0.751584z"/>
   <path id="_116931608" class="fil7" d="M0.807013 2.28268l-0.0461118 0.0230599 -0.0230599 0.0230599 -0.0230599 0.0230599 -0.0230599 0.0230599 -0.0230519 0.0461079 -0.0230559 0.0461198 -0.0230599 0.0461118 -0.0230599 0.0461158 -0.0230599 0.0691717 -0.0230519 0.0691717 -0.0230599 0.0922276 -0.0230559 0.0230599 -0.0230599 0.0230599 -0.0230519 0.0230559 -0.230579 0.0230599 -0.0691757 0.0230519 -0.0230519 0.0230599 -0.0230599 0.0230599 -0.0230599 0.0461118 -0.0230559 0.0691757 0 0.184459 0.0230559 0.115288 0.0230599 0.0922276 0.0230599 0.0461118 0.0230519 0.0691797 0.0230599 0.0461079 0.0230599 0.0461198 0.0230559 0.0461118 0.0230599 0.0461158 0.0230519 0.0230599 0.0230599 0.0461118 0.0230599 0.0230599 0.0230599 0.0461158 0.0230519 0.0230519 0.0230559 0.0230599 0.0230599 0.0461198 0.0230599 0.0230519 0.0230599 0.0230599 0.0230519 0.0230559 0.0230599 0.0230599 0.0230559 0.0230599 0.0230599 0.0461118 0.0230519 0.115288 0.0230599 0.0922276 0.0230599 0.0691717 0.0230599 0.207519 0.0230559 0.0691757 0.0230519 0.0461118 0.0230599 0.0230599 0.0230599 0.0230559 0.0461118 0.0230559 0.0922356 0 0 0.415034 -0.876188 0 0 0.0691757 1.22205 0 0 -0.0691757 -0.276687 0 0 -0.322799 0.0104225 -0.0994808 0.26323 -0.200306 0.0256605 -0.796483 0.438528 -0.010498c0.00599661,-0.0721183 0.0230519,-0.0819085 0.0230519,-0.161399l0 -0.207515c0,-0.223175 -0.197292,-0.177329 -0.313545,-0.239832 -0.132204,-0.0710844 -0.0876268,-0.247324 -0.124545,-0.405781l0 -0.11528 -0.0230559 -0.0691797 -0.0230599 -0.0691677 -0.0230599 -0.0461198 -0.0230519 -0.0461118 -0.0230599 -0.0230599 -0.0230599 -0.0461079 -0.0230559 -0.0230599 -0.0230519 -0.0230599 -0.0230599 -0.0230599 -0.0230599 -0.0230599 -0.0691717 -0.0230519 -0.115288 0 -0.0461158 0.0230519z"/>
   <path id="_116903960" class="fil6" d="M3.45863 3.82754c-0.0239745,-0.0453006 -0.0461198,-0.0679947 -0.0461198,-0.138339l0 -0.138347c0,-0.117916 0.0809462,-0.141111 0.0922276,-0.276687l-0.530322 0c0.0608449,0.126796 0.156059,0.668661 0.322807,0.668661 0.0586856,0 0.106289,-0.0783774 0.161407,-0.115288z"/>
   <path id="_117218216" class="fil1" d="M3.94283 3.32027c0.0870104,0.129937 0.107609,0.0501082 0.13997,0.252009 0.0142996,0.0892254 0.107346,0.176963 0.159777,0.255257 0.0554209,0.0406004 0.0550232,0.0922276 0.138347,0.0922276 0.166628,0 0.30591,-0.474137 0.345859,-0.645601l-0.0461118 0 -0.714781 0 -0.0230599 0.0461079z"/>
   <path id="_116931656" class="fil3" d="M4.72678 3.27416c-0.0399482,0.171464 -0.17923,0.645601 -0.345859,0.645601 -0.0833242,0 -0.0829265,-0.0516273 -0.138347,-0.0922276l0 0.276695c0.208557,0 0.243348,-0.0072174 0.345867,-0.115288 0.15763,-0.235403 0.147672,-0.566365 0.276687,-0.714781l0 -0.138347 -0.0554646 0.112341 -0.0589163 -0.0441395 -0.0239665 0.070146z"/>
   <path id="_116904008" class="fil8" d="M3.50474 3.27416c-0.0112814,0.135576 -0.0922276,0.158771 -0.0922276,0.276687l0 0.138347c0,0.0703448 0.0221453,0.0930388 0.0461198,0.138339 0.0436901,0.0502673 0.11528,0.0841911 0.11528,0.138347 0,0.0637835 -0.017783,0.0554527 -0.0691717,0.0691717l0 0.230575 0 0.184459 0.115292 -0.207519c0.0653781,0.0437776 0.122064,0.115288 0.230575,0.115288l0.0691717 0c0.0794908,0 0.089281,-0.0170514 0.161399,-0.0230559l0.161403 -0.230571 0 -0.276695c-0.0524305,-0.0782939 -0.145477,-0.166032 -0.159777,-0.255257 -0.032361,-0.2019 -0.0529594,-0.122071 -0.13997,-0.252009 -0.0301341,-0.0607773 -0.0230559,0.0189879 -0.0230559,-0.0691677l0 -0.115288 0.0913329 -0.0258832 0.000894719 -0.0663484c0,-0.0377373 -0.0138025,-0.0691677 -0.0461118,-0.0691677 -0.000385723,0 -0.265851,0.0612743 -0.299747,0.0691677l-0.0620339 0.232766 -0.0993735 -0.00218709z"/>
   <polygon id="_117217736" class="fil9" points="7.63203,4.35786 8.41599,4.35786 8.41599,4.19646 7.60897,4.19646 "/>
   <polygon id="_116900000" class="fil10" points="7.30923,4.19646 7.30923,4.3348 7.37818,4.2898 7.51171,4.31306 7.5384,4.4006 7.63203,4.38092 7.63203,4.35786 7.60897,4.19646 7.33425,4.15156 "/>
   <path id="_116905712" class="fil3" d="M7.30923 4.3348l0 0.0230559 0.0922276 0.276691c0.0161447,0.0604512 0.0445292,0.0922276 0.115288,0.0922276 0.0622764,0 0.0635767,-0.011007 0.115292,-0.0230519l0.0230559 -0.0691757 -0.0961564 -0.0957866 0.0731005 -0.0886726 0 -0.0691717 -0.0936314 0.0196798 -0.0266905 -0.0875353 -0.133532 -0.0232667 -0.068953 0.0450064z"/>
   <path id="_117213224" class="fil1" d="M4.24258 4.10423l-0.161403 0.230571 0.0922356 0.438094 2.30574 -0.0230599c0.0278715,-0.0416144 0.0461198,-0.0405367 0.0461198,-0.0922316l0 -0.576434c0,-0.159184 -0.738744,-0.0922276 -0.9223,-0.0922276 -0.338176,0 -0.676356,0 -1.01453,0 -0.102519,0.10807 -0.13731,0.115288 -0.345867,0.115288z"/>
   <path id="_116900864" class="fil11" d="M3.50474 4.45009l-0.0461079 0.184459 0.322799 0.115288 0.368922 0.0461158 0.0230599 -0.0230559 -0.0922356 -0.438094c-0.0721183,0.00600456 -0.0819085,0.0230559 -0.161399,0.0230559l-0.0691717 0c-0.108512,0 -0.165197,-0.0715099 -0.230575,-0.115288l-0.115292 0.207519z"/>
   <polygon id="_116904728" class="fil12" points="7.07865,4.86512 7.28617,4.63455 7.40145,4.63455 7.30923,4.35786 7.07865,4.35786 "/>
   <path id="_117214256" class="fil1" d="M3.75838 2.51326l0.0461079 0 0.0691797 0 0 -0.576434c0,-0.0658712 0.00724921,-0.0421711 0.0461118,-0.0691717 0.0264757,-0.0361427 0.00423898,-0.0461198 0.0691677,-0.0461198l-0.0230519 0 2.30575 0 0.115288 0c0.0707981,0 0.138347,0.021346 0.138347,0.0922316l0 0.576434c0,0.0539734 -0.0382622,0.0922356 -0.0922276,0.0922356l-1.10677 0 0 0.322799 1.10677 0c0.0516909,0 0.0506133,0.0182483 0.0922276,0.0461198l0 0.645609 -0.0230599 0 0 -0.622549c-0.0416144,-0.0278715 -0.0405367,-0.0461198 -0.0922276,-0.0461198l-1.08371 0 0 0.253635c0,0.140602 -0.320146,0.0922316 -0.461146,0.0922316 -0.129015,0.148416 -0.119057,0.479379 -0.276687,0.714781 0.338172,0 0.676352,0 1.01453,0 0.183557,0 0.9223,-0.0669568 0.9223,0.0922276l0 0.576434c0,0.0516949 -0.0182483,0.0506172 -0.0461198,0.0922316l-2.30574 0.0230599 -0.0230599 0.0230559 0 0.253631 0.0588447 -0.00487522 0.0564429 -0.110412 1.66014 0c0.0499492,-0.0334466 0.076751,-0.0691717 0.161399,-0.0691717l0.0691717 0c0.0757052,0 0.0496867,0.0656167 0.206374,0.0703209 0.0893765,0.00268813 0.187326,-0.00114922 0.277836,-0.00114922l0 -3.45862c-0.026933,-0.0402186 -0.0746196,-0.115284 -0.138347,-0.115284l-0.668661 0c-0.00207575,0.0927605 -0.0550431,0.184459 -0.138347,0.184459l-0.99148 0c-0.122672,0 -0.158671,-0.0621174 -0.161399,-0.184459l-0.645609 0c-0.0637279,0 -0.111414,0.0750649 -0.138339,0.115284l0 1.03759z"/>
   <path id="_116900912" class="fil13" d="M3.50474 2.51326l0.253639 0 0 -1.03759c0.0269251,-0.0402186 0.0746116,-0.115284 0.138339,-0.115284l0.645609 0c0.0027279,0.122342 0.0387274,0.184459 0.161399,0.184459l0.99148 0c0.0833043,0 0.136272,-0.0916988 0.138347,-0.184459l0.668661 0c0.0637279,0 0.111414,0.0750649 0.138347,0.115284l0 3.45862 0.158059 0.00277562 0.0494601 0.0664001 0.0350332 0.107561 0.195534 -0.153681 0 -0.0922276 0 -0.507266 0.230579 0 0 -0.0230559 0 -0.138343 -0.230579 0 0 -0.115288 1.33734 0 0 -0.138347 -1.33734 0 0 -0.138347 1.33734 0 0 -0.138339 -1.33734 0 0 -0.138347 1.33734 0 0 -0.138339 -1.33734 0 0 -0.207519 0 -0.461154c0,-0.315116 0,-0.630236 0,-0.945356 0,-0.312873 0.0598269,-0.691725 -0.253627,-0.691725l-3.02054 0c-0.332275,0 -0.299747,0.249324 -0.299747,0.576442 0,0.284374 0,0.568751 0,0.853125z"/>
   <path id="_116918576" class="fil14" d="M7.63203 4.70372l-0.0922316 0.299747 0.207519 0.115288 0.0691677 -0.0922356c0.0187652,-0.0805247 0.0461198,-0.0776338 0.0461198,-0.161399l0 -0.115288c0,-0.0922833 -0.11357,-0.113196 -0.207519,-0.115288l-0.0230559 0.0691757z"/>
   <path id="_117217928" class="fil0" d="M1.91377 5.76436l0.184467 0 0.000628292 0.0889669 0.0685395 0.0263206c0.0185704,-0.0128999 0.056932,-0.0461158 0.0691717,-0.0461158 0.0749536,0 0.0174132,0.0199781 0.115288,0.0461158l0.0269887 -0.0727267 -0.0731005 -0.0886726c0.0194929,-0.0291122 0.128494,-0.161407 0.161399,-0.161407 0.0517028,0 0.0506172,0.0182523 0.0922316,0.0461198 0.069633,-0.0162242 0.138347,-0.0133413 0.138347,-0.0922276l0 -0.0691797 0.253627 0 0 0.0691797c0,0.0622327 0.0613857,0.0922276 0.115288,0.0922276 0.0422785,0 0.0269052,-0.0461198 0.0691797,-0.0461198 0.0840956,0 0.177333,0.121932 0.184459,0.207519l0.184455 0 0 -0.599494 0 -0.0691717 -0.0461079 -0.46115 0.0461079 -0.184459 0 -0.184459 -1.98294 0 0 1.49873 0.391974 0z"/>
   <path id="_116931944" class="fil15" d="M7.07865 4.86512l0 0.0922276 0.09453 0.0233502 -0.0484103 0.460856c0.199268,-0.105438 0.309772,-0.239152 0.415034,-0.438086l0.0922316 -0.299747c-0.0517148,0.0120449 -0.0530151,0.0230519 -0.115292,0.0230519 -0.0707584,0 -0.0991428,-0.0317764 -0.115288,-0.0922276l-0.115288 0 -0.207519 0.230575z"/>
   <path id="_116903648" class="fil16" d="M4.38093 5.07264l0 0.345863c0,0.0531264 0.0160413,0.0691717 0.0691717,0.0691717l0.276687 0c0.0531304,0 0.0691797,-0.0160453 0.0691797,-0.0691717l0 -0.345863c0,-0.0531344 -0.0160493,-0.0691717 -0.0691797,-0.0691717l-0.276687 0c-0.0531304,0 -0.0691717,0.0160373 -0.0691717,0.0691717z"/>
   <polygon id="_117217784" class="fil17" points="6.87631,5.29386 6.87194,5.55865 7.07865,5.46462 7.08075,5.21654 "/>
   <path id="_116912720" class="fil18" d="M3.89672 6.36386l0 0.138347 0.0230599 0.0230599 0.0922276 0.0230519 0.0230599 0 0.0230599 -0.138339 0 -0.0461198 0.0230519 -0.276687 0.0230559 -0.276687 0.0461198 -0.737841 0 -0.0230599 0 -0.253631 -0.368922 -0.0461158 -0.0461118 0 0 0.115288c0,0.19376 0.116397,0.4188 0.115315,0.714757 -0.00114524,0.312826 0.046084,0.536533 0.046084,0.783977z"/>
   <path id="_116905184" class="fil5" d="M4.38093 5.07264c0,-0.0531344 0.0160413,-0.0691717 0.0691717,-0.0691717l0.276687 0c0.0531304,0 0.0691797,0.0160373 0.0691797,0.0691717l0 0.345863c0,0.0531264 -0.0160493,0.0691717 -0.0691797,0.0691717l-0.276687 0c-0.0531304,0 -0.0691717,-0.0160453 -0.0691717,-0.0691717l0 -0.345863zm-0.230575 -0.0230599l0 0.0230599 0.0691717 0 0 0.507262c0,0.0516949 0.0182483,0.0506172 0.0461158,0.0922316l1.95989 0 0.16534 -0.00637438 -0.0489153 -0.0274102 0.506129 -0.058447 0 -0.576434 -0.0494601 -0.0664001 -0.158059 -0.00277562c-0.0905098,0 -0.18846,0.00383735 -0.277836,0.00114922 -0.156687,-0.00470423 -0.130669,-0.0703209 -0.206374,-0.0703209l-0.0691717 0c-0.0846484,0 -0.11145,0.0357251 -0.161399,0.0691717l-1.66014 0 -0.0564429 0.110412 -0.0588447 0.00487522z"/>
   <path id="_117213032" class="fil12" d="M7.30923 4.19646l0.0250243 -0.044899 0.274722 0.044899 0.807017 0 0 0.161399 -0.783957 0 0 0.0230599 0 0.0691717 -0.0731005 0.0886726 0.0961564 0.0957866c0.0939495,0.00209165 0.207519,0.0230042 0.207519,0.115288l0 0.115288c0,0.0837656 -0.0273545,0.0808746 -0.0461198,0.161399l0.0461198 0.9223 0 0.0922276 0.87618 0 0 -2.85912 -1.66014 0 0 0.207519 1.33734 0 0 0.138339 -1.33734 0 0 0.138347 1.33734 0 0 0.138339 -1.33734 0 0 0.138347 1.33734 0 0 0.138347 -1.33734 0 0 0.115288 0.230579 0z"/>
   <path id="_116905832" class="fil3" d="M7.08075 5.21654l-0.00210756 0.24808 -0.206712 0.094033 0.00437816 -0.264793 0.204441 -0.0773196zm-0.232675 -0.213066l0 0.576434 -0.506129 0.058447 0.0489153 0.0274102 -0.16534 0.00637438c0.181759,0.157987 0.623297,-0.00393676 0.853121,-0.0230599 0.362154,-0.191621 0.43611,-0.18302 0.668673,-0.530318l-0.207519 -0.115288c-0.105263,0.198934 -0.215766,0.332649 -0.415034,0.438086l0.0484103 -0.460856 -0.09453 -0.0233502 -0.195534 0.153681 -0.0350332 -0.107561z"/>
   <path id="_116905544" class="fil19" d="M4.10423 5.81048l1.50016 3.97653e-006 -0.0244795 0.55337 0 0.276695 1.45263 0 0.0461079 -0.783961 0 -0.207515c-0.229823,0.0191231 -0.671361,0.181047 -0.853121,0.0230599l-1.95989 0c-0.0278675,-0.0416144 -0.0461158,-0.0405367 -0.0461158,-0.0922316l0 -0.507262 -0.0691717 0 -0.0461198 0.737841z"/>
   <path id="_117218024" class="fil0" d="M2.85913 3.27416l0.0824971 0.122549 0.0623997 0.406831 -0.998021 0.000934484 -0.322803 0 -0.438528 0.010498 -0.0256605 0.796483 -0.26323 0.200306 -0.0104225 0.0994808 0.0230559 0.0230519 0.0230519 0.0230559 0.0230599 0.0230599 0.0230599 0.0230599 0.0230599 0.0230519 0.0461118 0.0230599 0.0230559 0.0230599 0.0230599 0.0230559 0.0461118 0.0230599 0.0230599 0.115284 0 0.0691757 0 0.599494 0.0230599 0.0461118 0.0230559 0.0230599 0.0461118 0.0230559 0.322807 0 -0.0187454 -0.0416144 0.136812 -0.123129 0.0670721 0.0507167 0.0915477 -0.0473764 0 -0.0691717 -0.391974 0 0 -1.49873 1.98294 0 0 -0.230575c0.0513887,-0.013719 0.0691717,-0.0053882 0.0691717,-0.0691717 0,-0.0541563 -0.0715895,-0.0880801 -0.11528,-0.138347 -0.0551187,0.0369101 -0.102722,0.115288 -0.161407,0.115288 -0.166748,0 -0.261962,-0.541866 -0.322807,-0.668661l-0.0314901 -0.0985304 -0.0250323 0.0779082 -0.0357053 -0.117725 -0.0461118 0 0 0.0691677c0,0.0445093 0.00725319,0.0410457 0.0230519,0.0691797z"/>
   <path id="_116900720" class="fil15" d="M7.74732 5.11876c-0.232563,0.347298 -0.306519,0.338697 -0.668673,0.530318l0 0.207515 0.299755 0.0922316 0.461146 0 0.0230599 0 -0.0461198 -0.9223 -0.0691677 0.0922356z"/>
   <path id="_116906456" class="fil0" d="M2.53632 5.99494l0.553382 0c0.0476269,-0.081837 -0.112921,-0.230575 -0.230575,-0.230575l-0.0691717 0c-0.132072,0 -0.228058,0.120811 -0.253635,0.230575z"/>
   <polygon id="_117212984" class="fil1" points="4.08118,6.08717 5.57991,6.11023 5.57991,6.31775 5.57991,6.36386 5.60439,5.81049 4.10423,5.81048 "/>
   <path id="_116905760" class="fil20" d="M3.50474 5.0957c0.0556674,0.0877342 0.115292,1.05535 0.115292,1.2451l0 0.0691797 0.0230559 0.0922276 0.115292 0 0.0230519 -0.0230599 0 -0.115288 0.115288 0c0,-0.247443 -0.0472292,-0.471151 -0.046084,-0.783977 0.00108162,-0.295957 -0.115315,-0.520997 -0.115315,-0.714757l0 -0.115288 0.0461118 0 -0.322799 -0.115288 0.0461079 0.46115z"/>
   <polygon id="_116906528" class="fil13" points="4.05812,6.36386 5.57991,6.36386 5.57991,6.31775 5.57991,6.11023 4.08118,6.08717 "/>
   <polygon id="_117214856" class="fil6" points="7.07865,2.72078 7.07865,3.18193 8.73879,3.18193 8.73879,6.04105 7.86261,6.04105 7.86261,5.94882 7.83955,5.94882 7.86261,6.36386 9.01548,6.36386 9.03854,6.3408 9.0616,6.31775 9.0616,4.91124 9.0616,4.84206 9.0616,3.38945 9.04554,2.71974 9.01548,2.72078 8.71574,2.72078 7.33229,2.69772 7.24005,2.69772 "/>
   <path id="_116906576" class="fil13" d="M3.0897 6.08717l-0.0230599 0.0691717 -0.0230519 0.0461158 -0.0230559 0.0461118 -0.0461198 0.0230599 -0.0230599 0.0230559 -0.0691677 0.0230599 -0.115292 0 -0.0691677 -0.0230599 -0.0230599 -0.0230559 -0.0461118 -0.0230599 -0.0230599 -0.0461118 -0.0230559 -0.0230599 -0.0230599 -0.0691677 -0.0230599 -0.115292c0.025577,-0.109764 0.121562,-0.230575 0.253635,-0.230575l0.0691717 0c0.117654,0 0.278202,0.148738 0.230575,0.230575l0 0.0230599 0 0.0691717zm-0.737841 -0.207519l0.0264081 0.0719473 -0.0599502 0.0782263 0.110353 0.0978027 0.015421 -0.0173973 0 0.184455 -0.015421 -0.0174053 -0.0963195 0.107963 0.0425687 0.116962 0.0230599 0.0230599 0.0230599 0.0230519 0.0230519 0.0230599 0.0691757 0 0.0230519 -0.0230599 0.0230599 -0.0230519 0.0230599 0 0.0461158 0.0230519 0.0461118 0 0 0.115288 0.299747 0 0 -0.115288 0.0461198 0 0.0691677 0 0.0230599 0.0230599 0.0691717 0 0.0230559 -0.0230599 0.0230599 -0.0230519 0.0230599 -0.0230599 0.0230519 -0.0230599 0.0230599 -0.0230559 0.0230599 -0.0230559 0.0230559 -0.0230559 0 -0.0461198 -0.0230559 -0.0230599 -0.0230599 -0.0230519 0 -0.0230599 0.0230599 -0.0461158 0 -0.0461118 0.115288 0 0 -0.207519 0.0461118 0 0 0.161403 0.0230559 0.0691757 0.0230599 0.0461118 0.0230599 0.0230559 0.0230519 0.0230599 0.0230599 0.0230519 0.0230599 0c0,-0.189752 -0.0596241,-1.15736 -0.115292,-1.2451l0 0.0691717 0 0.599494 -0.184455 0c-0.00712594,-0.0855868 -0.100364,-0.207519 -0.184459,-0.207519 -0.0422745,0 -0.0269012,0.0461198 -0.0691797,0.0461198 -0.0539019,0 -0.115288,-0.029995 -0.115288,-0.0922276l0 -0.0691797 -0.253627 0 0 0.0691797c0,0.0788864 -0.0687144,0.0760034 -0.138347,0.0922276 -0.0416144,-0.0278675 -0.0405288,-0.0461198 -0.0922316,-0.0461198 -0.0329058,0 -0.141906,0.132295 -0.161399,0.161407l0.0731005 0.0886726 -0.0269887 0.0727267z"/>
   <path id="_116905400" class="fil16" d="M2.1674 6.29469l-0.0230559 0.0461118 -0.0230599 0.0230599 -0.0461118 0.0230599 -0.138347 0 -0.0461118 -0.0230599 -0.0230599 -0.0230599 -0.0230559 -0.0230519 -0.0230599 -0.0461158 0 -0.138343 0.0230599 -0.0461158 0.0230559 -0.0230599 0.0230599 -0.0230599 0.0691717 -0.0230519 0.0922276 0 0.0461198 0.0230519 0.0461118 0.0230599 0.0230559 0.0461198 0.0230599 0.0461118 0 0.0922276 -0.0230599 0.0461158zm-0.530322 -0.299747l0 0.0230599 0 0.0230519 0 0.0461198 -0.0922276 0 0 0.230575 0.095385 0.000413559 -0.0262173 0.0918181 0 0.0691677 0.0230599 0.0230599 0.0230599 0.0230599 0.0230599 0.0230519 0.0230519 0.0230599 0.0230559 0.0230559 0.0461198 0 0.0230599 -0.0230559 0.0230519 0 0.0691757 0 0 0.0922276 0.207519 0 0 -0.0922276 0.0691677 0 0.0230599 0 0.0230599 0.0230559 0.0691717 0 0.0230559 -0.0230559 0.0230519 -0.0230599 0.0230599 -0.0230519 0.0230599 -0.0230599 -0.0425687 -0.116962 0.0963195 -0.107963 0.015421 0.0174053 0 -0.184455 -0.015421 0.0173973 -0.110353 -0.0978027 0.0599502 -0.0782263 -0.0264081 -0.0719473c-0.0978743,-0.0261377 -0.0403339,-0.0461158 -0.115288,-0.0461158 -0.0122398,0 -0.0506013,0.0332159 -0.0691717,0.0461158l-0.0685395 -0.0263206 -0.000628292 -0.0889669 -0.184467 0 0 0.0691717 -0.0915477 0.0473764 -0.0670721 -0.0507167 -0.136812 0.123129 0.0187454 0.0416144z"/>
   <path id="_117218168" class="fil21" d="M3.62003 6.75584l0 0.0461158 0.530322 0.0461118c0.0641971,0.0050144 0.0448155,-0.012868 0.0691717,-0.0461118l-0.0461118 -0.0230599 -0.138347 -0.0230559 -0.0230599 -0.207519 -0.0922276 -0.0230519 -0.0230599 0.207515 -0.115288 0 -0.0230519 -0.230575 -0.115292 0 -0.0230559 0.253631z"/>
   <path id="_116906648" class="fil22" d="M7.40145 6.36386l0.0461198 0 0 0.0461198 0.0230599 0.0691677 0.0230519 0.0230599 0.138347 0.322807 -0.415038 0c-0.0622724,0 -0.0635728,-0.011015 -0.115288,-0.0230599l-2.88218 0c-0.0243562,0.0332438 -0.00497464,0.0511262 -0.0691717,0.0461118l-0.530322 -0.0461118 -0.0922316 0 -0.0230599 0.0230599 0 0.0691677 6.06412 0 0 -0.0922276 -0.0230519 -0.0230599 -0.0230599 -0.0230559 -0.0691797 -0.0230559 -0.0922276 -0.0230559 -0.0691717 -0.0230599 -0.0461158 -0.0230599 -0.0461118 -0.0230519 -0.0922276 0 -0.0461198 0.0230519 -0.230571 0 -0.0691757 -0.0230519 -0.0691717 -0.0230599 -0.0922276 -0.0230599 -0.0922276 -0.0230559 -0.115292 -0.0230599 -0.115288 -0.0230519 -0.161407 -0.0230599 -0.184455 -0.0230599 -0.0461118 -0.0230559 -0.0230599 -0.0461118 0 -0.0230599 0 -0.0230599 -0.0230599 -0.415034 -0.461146 0 0.0230519 0.415034z"/>
   <path id="_116906864" class="fil23" d="M7.03254 6.64055l0 0.0691717 0.0230559 0.0461118 0.0230519 0.0230559 0.0230599 0.0230599c0.0517148,0.0120449 0.0530151,0.0230599 0.115288,0.0230599l0.415038 0 -0.138347 -0.322807 -0.0691717 -0.0230599 -0.0230599 -0.115288 -0.0230519 -0.415034 -0.299755 -0.0922316 -0.0461079 0.783961z"/>
  </g>
 </g>
</svg>
