<?xml version="1.0" encoding="UTF-8"?>
<!DOCTYPE svg PUBLIC "-//W3C//DTD SVG 1.1//EN" "http://www.w3.org/Graphics/SVG/1.1/DTD/svg11.dtd">
<!-- Creator: CorelDRAW -->
<svg xmlns="http://www.w3.org/2000/svg" xml:space="preserve" width="7.77748in" height="5.61472in" style="shape-rendering:geometricPrecision; text-rendering:geometricPrecision; image-rendering:optimizeQuality; fill-rule:evenodd; clip-rule:evenodd"
viewBox="0 0 7.87699 5.68656"
 xmlns:xlink="http://www.w3.org/1999/xlink">
 <defs>
  <style type="text/css">
   <![CDATA[
    .str1 {stroke:#1F1A17;stroke-width:0.00303838}
    .str2 {stroke:#667AB3;stroke-width:0.00303838}
    .str4 {stroke:#DEDEDD;stroke-width:0.00303838}
    .str0 {stroke:#F7C5B4;stroke-width:0.00303838}
    .str3 {stroke:white;stroke-width:0.00303838}
    .fil25 {fill:none}
    .fil23 {fill:#1F1A17}
    .fil24 {fill:#667AB3}
    .fil27 {fill:#DEDEDD}
    .fil22 {fill:#F7C5B4}
    .fil26 {fill:white}
    .fil7 {fill:#3C3276}
    .fil13 {fill:#4B41A4}
    .fil11 {fill:#5B54B6}
    .fil9 {fill:#6A5762}
    .fil2 {fill:#6B5692}
    .fil21 {fill:#6D6D6D}
    .fil8 {fill:#716C8F}
    .fil18 {fill:#7662ED}
    .fil5 {fill:#827ACB}
    .fil6 {fill:#8B8497}
    .fil10 {fill:#9491B3}
    .fil20 {fill:#9998E9}
    .fil16 {fill:#A2A7F2}
    .fil0 {fill:#B7B8F7}
    .fil15 {fill:#CAC9F7}
    .fil14 {fill:#D0B1CD}
    .fil1 {fill:#D9D7FC}
    .fil19 {fill:#E4D8D8}
    .fil3 {fill:#E9B0B2}
    .fil17 {fill:#F8F9F9}
    .fil4 {fill:#FBA713}
    .fil12 {fill:#FBB8B5}
   ]]>
  </style>
 </defs>
 <g id="Layer_x0020_1">
  <metadata id="CorelCorpID_0Corel-Layer"/>
  <g id="_125469968">
   <g>
    <polygon id="_125482184" class="fil0" points="4.8814,0.131883 4.86588,0.139638 4.85036,0.147397 4.83484,0.155157 4.82708,0.170672 4.81156,0.178431 4.8038,0.193946 4.79604,0.201705 4.78828,0.209461 4.78052,0.232735 4.77276,0.24825 4.765,0.271524 4.765,0.356862 4.77276,0.380137 4.78052,0.387896 4.78828,0.411166 4.79604,0.418926 4.8038,0.434441 4.81156,0.4422 4.81932,0.449956 4.82708,0.457715 4.83484,0.465475 4.85036,0.47323 4.85813,0.480989 4.87364,0.488745 4.89693,0.496504 4.92021,0.504264 4.99781,0.504264 5.02109,0.496504 5.04438,0.488745 5.05214,0.480989 5.06766,0.480989 5.07542,0.488745 5.0987,0.496504 5.10646,0.504264 5.12198,0.512019 5.12974,0.512019 5.13751,0.504264 5.13751,0.488745 5.12974,0.47323 5.12198,0.449956 5.11422,0.434441 5.11422,0.426685 5.12198,0.418926 5.12974,0.403411 5.13751,0.387896 5.14526,0.372377 5.14526,0.24825 5.13751,0.232735 5.12974,0.224976 5.12198,0.201705 5.11422,0.193946 5.10646,0.186187 5.0987,0.178431 5.09094,0.170672 5.08318,0.162912 5.07542,0.155157 5.0599,0.147397 5.05214,0.139638 5.02886,0.131883 5.01333,0.124123 4.90469,0.124123 "/>
    <polygon id="_125471288" class="fil1" points="2.96454,0.00775545 2.94902,0.0155149 2.94126,0.0232703 2.9335,0.0387892 2.92574,0.0465447 2.91798,0.0620595 2.91022,0.0775784 2.91022,0.985253 2.91798,1.00853 2.92574,1.02404 2.9335,1.0318 2.94126,1.03956 2.94902,1.04732 2.95678,1.05508 2.9723,1.06283 2.98783,1.07059 4.53218,1.07059 4.53218,1.05508 4.52442,1.04732 4.5089,1.03956 4.50114,1.0318 4.49338,1.02404 4.47785,1.01629 4.47009,1.00853 4.46233,1.00077 4.44681,0.993013 4.43905,0.985253 4.43129,0.977498 4.41577,0.969738 4.40801,0.961979 4.40025,0.954223 4.38473,0.946464 4.37697,0.938705 4.36921,0.930949 4.36145,0.92319 4.35369,0.069819 4.34593,0.0465447 4.33816,0.0387892 4.3304,0.0310298 4.32264,0.0155149 4.30712,0.00775545 4.28384,0 2.98006,0 "/>
    <path id="_125302840" class="fil2" d="M5.53329 0.25601l-0.00775944 0.00775545 -0.0465646 0 -0.0232823 -0.00775545 -0.0388012 0 -0.0155189 0.00775545 -0.00776342 0.00775944 -0.00775944 0.0232743 0 0.0387892 0.00775944 0.0310338 0.00776342 0.00775545 0.0155189 0 0 0.0155189 0.00775944 0.0387892 -0.0232783 0.00775545 0 0.0232743 0.00775944 0.0155149 0.00775944 0.0232743 0.00775944 0.00775944 0.00775944 0.00775545 0.0155229 0 0 0.0387892 0.00775944 0 0.00172255 -0.0299811 0.03601 -0.0590371 -0.00668683 -0.0040751c0.0165516,0.0190357 0.0133178,0.0387892 0.0388012,0.0387892l0.0232823 0c0.0451172,0 0.00207344,-0.0629487 0.054324,-0.0387892l0 -0.0232743c0.0231467,0.0019259 0.0388012,0.00557834 0.0388012,0.0310338l0 0.0155149c0,0.0274451 -0.0232823,0.0234577 -0.0232823,0.0387892 0,0.0433827 0.0263446,0.0610946 0.0690375,0.0620914l0.00856888 0.0775505 0.00776342 -0.069819 0.00775944 -0.00775944 0.00775944 -0.00775944 0.00775944 -0.0155149 0.00776342 -0.0155149 0.00775944 -0.0232743 0.00775944 -0.0155149 0.00776342 -0.0310338 0 -0.0930933 -0.00776342 -0.0387932 -0.00775944 -0.0155149 -0.00775944 -0.0155149 -0.00776342 -0.00775944 -0.00775944 -0.00775545 -0.00775944 -0.00775944 -0.00775944 -0.00775545 -0.00776342 -0.00775944 -0.0155189 -0.00775944 -0.0232823 -0.00775545 -0.0232823 -0.00775944 -0.0698469 0 -0.0310417 0.00775944z"/>
    <path id="_125464832" class="fil3" d="M5.45569 0.550808l0 0.0387932 0.00776342 0.0232703 0.00775944 0.00775944 0.00775944 0.00775944 0.0620835 0 0 0.0465447 -0.0620835 0 0 0.00775944 0.0620835 0c0.0070138,0.0262569 0.0213484,0.0387892 0.054328,0.0387892l0.0232783 0c0.0394471,0 0.0770999,-0.0155986 0.0853698,-0.0465486l0.0853658 0 0 -0.00775545 -0.0776063 0 0 -0.0155189 -0.00775944 0 -0.00776342 0.00775944 -0.00856888 -0.0775505c-0.0426929,-0.000996844 -0.0690375,-0.0187088 -0.0690375,-0.0620914 0,-0.0153315 0.0232823,-0.0113441 0.0232823,-0.0387892l0 -0.0155149c0,-0.0254554 -0.0156544,-0.0291079 -0.0388012,-0.0310338l0 0.0232743c-0.0522506,-0.0241595 -0.00920686,0.0387892 -0.054324,0.0387892l-0.0232823 0c-0.0254833,0 -0.0222496,-0.0197535 -0.0388012,-0.0387892l0.00668683 0.0040751 -0.03601 0.0590371 -0.00172255 0.0299811z"/>
    <path id="_125464928" class="fil1" d="M6.73618 1.59037l-0.170736 0c-0.0319269,0 -0.0776063,-0.0379559 -0.0776063,-0.0620675l0 -0.279284c0,-0.022736 0.0393395,-0.0620635 0.0620875,-0.0620635l0.217296 0c0.0300848,0 0.0620835,0.042633 0.0620835,0.0775784l0 0.248254c0,0.0485384 -0.0430318,0.0775824 -0.0931252,0.0775824zm-0.318185 -0.496508l-0.00775944 0.00775545 -0.00776342 0.00775944 -0.00775944 0.0155149 -0.00775944 0.0155149 -0.00776342 0.543057 -0.0155189 0.00775545 -0.00776342 0.00775944 -0.0155189 0.00775944 -0.00775944 0.00775545 -0.00775944 0.00775944 -0.0155229 0.00775944 -0.00775944 0.00775545 -0.0155229 0.00775944 -0.00775944 0.00775944 -0.00776342 0.00775545 -0.0155189 0.00775944 -0.00776342 0.00775545 0 0.0155189 1.20289 0 0.0232823 -0.00775944 0.0155189 -0.00775944 0.0155229 -0.00775545 0.00775944 -0.00775944 0.00775944 -0.0232743 0.00776342 -0.0232743 0 -0.550808 -0.00776342 -0.0310338 -0.00775944 -0.0155149 -0.00775944 -0.00775944 -0.00776342 -0.00775944 -0.00775944 -0.00775545 -0.0155189 -0.00775944 -1.03992 0 -0.0155229 0.00775944z"/>
    <path id="_125302528" class="fil4" d="M4.57098 0.651661l0 0.0155189 0.00775944 0.00775545 0.0709075 0.000139558 -0.00882008 0.0308942 -0.00776342 0.00775545 0 0.0232743 0.00776342 0.0310338 0.00775944 0.0155149 0.00775944 0.00775944 0.0155229 0.00775545 0.0232783 0 0 0.0155189 0.00776342 0.00775545 0.00775944 0.00775944 0.00775944 0.00775545 0.0310457 0 0 0.0232743 0.0155189 0.00775944 0.00775944 0.0155149 0.0155229 0.00775944 0.00775944 0.00775545 0.00775944 0.00775944 0.00776342 0.00775545 0.00775944 0.00775944 0.0155229 0.00775944 0.00775944 0.00775545 0.00775944 0.00775944 0.00776342 0.00775944 0.00775944 0.00775545 0.00775944 0.00775944 0.00775944 0.00775944 0.0155229 0.00775545 0.00775944 0.00775944 0.00775944 0.00775545 0.0155229 0 0.419069 0.00775944 0.00776342 0 0.0232823 -0.00775944 0.00775944 -0.00775545 0.00775944 -0.00775944 0.0232823 -0.00775545 0 0.0232703 0.00775944 0.0310338 0.00775944 0.0232743 0.00776342 0.0465447 0.00775944 0.0310338 0.00775944 0.0310338 0.00776342 0.108608 0.00775944 0.0775784 0.047689 0.0164519 -0.0166473 0.0223373 0 0.0310338c0.0435342,0 0.145304,-0.0276565 0.185122,-0.0399216 0.0167988,-0.00517562 0.183487,-0.0137804 0.210669,-0.0143825l0 -0.0310338c0,-0.0253119 0.0040113,-0.0255551 0.0155229,-0.0387892l0.00775944 0 0.00775944 -0.0387892 0.00775944 -0.0310338 0.00775944 -0.0465447 0.00776342 -0.0853379 0.00775944 -0.0543081 0.00775944 -0.0775784 0 -0.201705 -0.00775944 -0.00775545 -0.00775944 -0.0155189 -0.00776342 -0.00775944 -0.00775944 -0.00775545 -0.0155189 -0.00775944 -0.0232823 -0.00775545 -0.00775944 -0.00775944 -0.0232823 -0.00775944 -0.0232823 -0.00775545 -0.0232823 -0.00775944 -0.0310417 0 -0.0853658 0c-0.00826982,0.03095 -0.0459226,0.0465486 -0.0853698,0.0465486l-0.0232783 0c-0.0329796,0 -0.0473142,-0.0125323 -0.054328,-0.0387892l-0.0620835 0 -0.0388012 0 -0.0388012 0.00775545 -0.0155229 0.00775944 -0.00775944 0.00775944 -0.0155229 0.00775545 -0.0155229 0.00775944 -0.00775944 0.0155149 -0.00775944 0.00775944 -0.00776342 0.00775944 -0.00775944 0.00775545 -0.00775944 0.00775944 -0.00775944 0.00775944 -0.00775944 0.00775545 -0.0155229 0.00775944 0 0.0155149 -0.0155229 0 -0.00775944 0.00775944 0 0.0155149 -0.0232823 0 0 0.0232743 -0.0155229 0 -0.00775944 0.00775545 -0.00775944 0.00775944 -0.0155189 0.00775545 -0.00776342 0.0155189 -0.0155189 0.00775545 -0.00776342 0.00775944 -0.00775944 0.00775545 -0.0155229 0.00775944 -0.00775944 0.00775944 -0.00775944 0.00775545 -0.0388012 0 -0.00776342 -0.00775545 -0.0155189 -0.00775944 -0.0155229 -0.00775944 -0.00775944 -0.00775545 -0.0155229 -0.00775944 -0.0155229 -0.00775545 -0.0155189 -0.00775944 -0.00775944 -0.00775944 -0.0155229 -0.00775545 -0.00775944 -0.0155149 -0.0310417 -0.00775944 -0.00776342 -0.00775944 -0.00775944 -0.00775545 -0.0155229 -0.00775944 -0.00775944 -0.00775545 -0.0155189 -0.00775944 -0.00775944 -0.00775944 -0.0155229 -0.00775545 -0.00775944 -0.00775944 -0.0232823 0 0 -0.0155149 -0.00776342 -0.0155149 -0.00775944 -0.0155189 -0.00775944 -0.0155149 -0.00775944 -0.00775944 -0.00776342 -0.0155149 -0.00775944 -0.0155149 -0.00775944 -0.00775944 -0.00775944 -0.00775545 -0.0232823 -0.00775944 -0.0155229 -0.00775944 -0.0155229 -0.00775545 -0.116408 0 -0.00775944 0.00775545z"/>
    <path id="_125465024" class="fil0" d="M6.73618 1.59037c0.0500934,0 0.0931252,-0.0290441 0.0931252,-0.0775824l0 -0.248254c0,-0.0349454 -0.0319987,-0.0775784 -0.0620835,-0.0775784l-0.217296 0c-0.022748,0 -0.0620875,0.0393275 -0.0620875,0.0620635l0 0.279284c0,0.0241117 0.0456794,0.0620675 0.0776063,0.0620675l0.170736 0z"/>
    <polygon id="_125465120" class="fil0" points="4.36921,1.18696 4.35369,1.19472 4.34593,1.20248 4.3304,1.21023 4.32264,1.21799 4.31488,1.22575 4.30712,1.24127 4.29936,1.24902 4.2916,1.2723 4.2916,1.34212 4.29936,1.35763 4.30712,1.37315 4.31488,1.38091 4.32264,1.39642 4.33816,1.40418 4.34593,1.41194 4.36145,1.4197 4.37697,1.42745 4.47009,1.42745 4.48562,1.4197 4.50114,1.41194 4.5089,1.40418 4.51666,1.39642 4.52442,1.38866 4.53218,1.38091 4.53994,1.37315 4.5477,1.34987 4.55546,1.33436 4.55546,1.2723 4.55546,1.26454 4.56322,1.25678 4.57098,1.24902 4.57874,1.24127 4.57874,1.21799 4.56322,1.21799 4.52442,1.21799 4.51666,1.21023 4.50114,1.20248 4.49338,1.19472 4.47785,1.18696 4.45457,1.1792 4.39249,1.1792 "/>
    <polygon id="_125302888" class="fil5" points="4.7262,1.00853 4.71843,1.01629 4.71843,1.08611 4.7262,1.10162 4.73395,1.11714 4.74171,1.15593 4.74948,1.1792 4.75724,1.19472 4.765,1.23351 4.77276,1.25678 4.78052,1.2723 4.78828,1.31109 4.79604,1.3266 4.8038,1.34987 4.81156,1.38866 4.81932,1.40418 4.82708,1.4197 4.8426,1.4197 5.30048,1.41194 5.33112,1.41837 5.50225,1.4197 5.50225,1.38866 5.5189,1.36633 5.47121,1.34987 5.46345,1.3266 5.45569,1.31109 5.44793,1.2723 5.44017,1.25678 5.4324,1.23351 5.42464,1.19472 5.41688,1.1792 5.40913,1.15593 5.40137,1.11714 5.3936,1.10162 5.38584,1.07835 5.37808,1.04732 5.37032,1.0318 5.36256,1.02404 5.3548,1.01629 5.34704,1.00853 4.92797,1.00077 "/>
    <polygon id="_125466128" class="fil0" points="1.33482,1.1792 1.31154,1.18696 1.29602,1.19472 1.29602,1.21023 1.2805,1.21023 1.27274,1.21799 1.26498,1.22575 1.25722,1.23351 1.24945,1.24127 1.24169,1.25678 1.23393,1.2723 1.22617,1.28781 1.22617,1.38866 1.23393,1.39642 1.24169,1.41194 1.24945,1.43521 1.25722,1.44297 1.27274,1.44297 1.27274,1.45849 1.2805,1.46624 1.29602,1.474 1.30378,1.48176 1.3193,1.48952 1.33482,1.49728 1.36586,1.50504 1.43571,1.50504 1.46675,1.49728 1.49003,1.48952 1.50555,1.48952 1.52884,1.49728 1.54436,1.50504 1.55988,1.51279 1.56764,1.51279 1.56764,1.49728 1.55988,1.46624 1.55212,1.45849 1.55212,1.43521 1.55988,1.4197 1.56764,1.40418 1.5754,1.38866 1.58316,1.35763 1.58316,1.31885 1.5754,1.28781 1.56764,1.2723 1.55988,1.24902 1.55212,1.24127 1.54436,1.23351 1.5366,1.21799 1.52884,1.21023 1.51331,1.20248 1.50555,1.19472 1.49003,1.18696 1.47451,1.1792 1.44347,1.17144 1.3581,1.17144 "/>
    <polygon id="_125466200" class="fil6" points="0.201777,2.02481 0.209537,2.04033 0.217296,2.0636 0.22506,2.07912 0.232819,2.09464 0.240578,2.11791 0.248342,2.13343 0.256101,2.14894 0.263861,2.1567 0.271624,2.16446 0.279384,2.16446 0.287143,2.1567 0.287143,2.14119 0.279384,2.12567 0.271624,2.10239 0.263861,2.08688 0.256101,2.07136 0.248342,2.04809 0.240578,2.03257 0.232819,2.01706 0.22506,2.00154 0.201777,2.00154 "/>
    <path id="_125304568" class="fil7" d="M6.22399 2.0636l-0.00775944 0.0155149 0 0.0853379 0 0.0232743 -0.0232823 0 -0.0232823 0 0 0.00775944 0.0522745 0.0150484 -0.0134733 0.0702895c0.033498,-0.00894369 0.0434265,-0.0476372 0.0465646,-0.0853379 0.0622908,0 0.194014,0.0226882 0.194014,0.0775784 0,0.0656322 -0.0521589,0.119143 0.00775944,0.124127 0.0035368,-0.0132341 0.00901546,-0.0310298 0.0232823,-0.0310298 0.0178834,0 0.0232823,0.00539492 0.0232823,0.0232703l0 0.0155189c0,0.049926 -0.0294867,0.046425 -0.0620835,0.0620595l0 0.0310338 0.0155189 0.00775545 0.054324 0 0.0155229 -0.00775545 0.00775944 -0.00775944 0.00776342 -0.00775545 0.00775944 -0.00775944 0.00775944 -0.0155149 0.00775944 -0.00775944 0.00775944 -0.00775545 0.00776342 -0.0232743 0.00775944 -0.00775944 0.00775944 -0.0155149 0.00776342 -0.0310298 0.00775944 -0.0155189 0 -0.0853379 -0.00775944 -0.0232703 -0.00776342 -0.0232743 -0.00775944 -0.0155189 -0.00775944 -0.00775545 -0.00776342 -0.00775944 -0.00775944 -0.0310298 -0.00775944 -0.0155149 -0.00775944 -0.0155189 -0.0155229 -0.00775944 -0.0155189 -0.00775545 -0.0155229 -0.00775944 -0.0310417 -0.00775545 -0.13193 -0.00775944 -0.0310417 -0.00775944 -0.0232823 -0.00775545 -0.0155229 0 0 -0.0155149 -0.0232823 0 -0.0232783 0.00775545z"/>
    <polygon id="_125466272" class="fil8" points="0.0776103,2.12567 0.0776103,2.14894 0.0931292,2.1567 0.100889,2.16446 0.108648,2.17222 0.124171,2.17998 0.13193,2.18773 0.147453,2.19549 0.155213,2.20325 0.162976,2.21101 0.170736,2.21876 0.186258,2.22652 0.194018,2.23428 0.201777,2.24204 0.217296,2.24204 0.22506,2.23428 0.22506,2.21876 0.217296,2.21101 0.209537,2.20325 0.201777,2.19549 0.186258,2.18773 0.178495,2.17998 0.170736,2.17222 0.155213,2.16446 0.147453,2.1567 0.139694,2.14894 0.124171,2.14119 0.116411,2.13343 0.108648,2.12567 0.0931292,2.11791 0.0853698,2.11791 "/>
    <polygon id="_125466368" class="fil9" points="6.15414,2.18773 6.15414,2.17998 6.14638,2.17998 6.14638,2.18773 "/>
    <polygon id="_125302552" class="fil10" points="0,2.29634 0,2.31186 0.0310457,2.31962 0.0931292,2.32738 0.155213,2.33513 0.170736,2.33513 0.178495,2.32738 0.178495,2.31186 0.147453,2.3041 0.0931292,2.29634 0.0310457,2.28858 0.00776342,2.28858 "/>
    <path id="_125466464" class="fil11" d="M5.50225 1.4197l-0.17113 -0.0013278 -0.030643 -0.00643164 -0.457875 0.00775944 0 0.00775545 0.171896 0.00349294 -0.0166872 0.00426649 -0.0232783 0.00775944 0 0.0155149 -0.0155229 0 -0.00775944 0.00775545 -0.00775944 0.00775944 -0.00776342 0.0155149 -0.00775944 0.00775944 0 0.0620635 0.00775944 0.0232743 -2.7938 0 -0.0232823 0.00775944 -0.0155229 0.00775545 -0.0155229 0.00775944 -0.00775944 0.00775545 -0.00775944 0.00775944 -0.0155229 0.00775944 -0.00775944 0.00775545 0 0.0155149 -0.0155229 0 -0.00775944 0.00775944 -0.00775944 0.0155149 -0.00775944 0.0155149 -0.00776342 0.00775944 -0.00775944 0.0232743 -0.00775944 0.0232743 -0.00776342 0.0465486 0 1.07835 0.124171 -0.0387892 0 -1.00853c0,-0.0629687 0.0566925,-0.131887 0.116408,-0.131887l2.75108 0.0013278 0.13585 0.394328 0.054328 0.147401 0.0465606 0c0.0632677,0 -0.0289563,-0.500807 -0.0388012,-0.543057l0.0886474 -0.000171457 0.0355235 0.651841 0.088452 -0.00732083 0.0667567 -0.504702 0 -0.139646 0.349227 0c0.0596751,0 0.116411,0.0667647 0.116411,0.131887l0 0.713729c0,0.0235574 -0.256101,0.315406 -0.256101,0.380141 0,0.0392557 0.042031,0.0620595 0.0853658,0.0620595l0.00849311 0.00424656 0.162242 -0.0275169 0 0.0620635 0 0.069819 0.00775944 0.0543081 0.0409185 -0.000984882 0.0289244 0.0708039 0.054324 0 0 -0.279284c0,-0.0277641 0.0432232,-0.0365762 0.0698469,-0.0387932 0.0084333,0.101315 0.0627254,0.210191 0.0621154,0.325805 -0.00091311,0.172139 0.0403283,0.199353 0.0699625,0.326463l0.117018 -0.0240758 0.0147613 0.0700223 0.271624 -0.0543041c0.00241236,-0.0090992 0.00775944,-0.0211451 0.00775944,-0.0232743 0,-0.0276126 -0.0301526,-0.0265958 0.0155189,-0.0387892 0.060652,-0.0527012 0.0891857,-0.029387 0.14656,-0.116411l0.00865261 -0.0620197 0.00775944 -0.0155189 0 -0.209461 -0.00775944 -0.108612 -0.00775944 -0.0387892 -0.00776342 -0.0310338 -0.00775944 -0.0465447 -0.00775944 -0.0232743 -0.00775944 -0.0155149 -0.00776342 -0.0310338 -0.00775944 -0.0155149 -0.00775944 -0.00775545 -0.00776342 -0.0232743 -0.00775944 -0.00775944 -0.00775944 -0.00775545 -0.00775944 -0.0155189 -0.00776342 -0.00775944 -0.0155189 -0.00775545 -0.00776342 -0.00775944 -0.00775944 -0.00775545 -0.00775944 -0.00775944 -0.0232823 -0.00775944 -0.0155189 -0.00775545 -0.0155229 -0.00775944 -0.0388052 -0.00775545 -0.0232823 -0.00775944 -0.0388012 -0.00775944 -0.0853658 0 -0.00775944 0.0232743 -0.00775944 0.0155149 -0.00776342 0.00775944 -0.00775944 0.0232743 -0.00775944 0.00775545 -0.00776342 0.00775944 -0.00775944 0.0155189 -0.00775944 0.00775545 -0.00776342 0.00775944 -0.00775944 0.0155149 -0.0155229 0.00775944 0 -0.0155189 -0.00775944 -0.00775545 -0.00775944 -0.0155149 -0.00775944 -0.00775944 -0.00775944 -0.00775944 -0.00776342 -0.00775944 -0.00775944 -0.00775545 -0.0155229 -0.00775944 -0.0796359 0.0619359 0.00753216 -0.123995 -0.176234 0.0543041 0 -0.0232743c0,-0.0640532 0.0620875,-0.117388 0.0620875,-0.170676 0,-0.0194903 -0.0698469,-0.0425692 -0.0698469,-0.0620635 0,-0.0173929 0.00614056,-0.0170301 0.0155189,-0.0310298l-0.00775944 -0.620635 -0.00775944 -0.0387892 -0.00775944 -0.0155149 -0.00775944 -0.0155189 -0.00776342 -0.0155149 -0.00775944 -0.00775545 -0.00775944 -0.00775944 -0.00776342 -0.00775944 -0.00775944 -0.0155149 -0.00775944 -0.00775545 -0.0155229 -0.00775944 -0.00775944 -0.00775944 -0.00776342 -0.00775545 -0.0232783 -0.00775944 -0.00775944 -0.00775545 -0.00776342 -0.00775944 0.00776342 -0.0155149 0.00775944 -0.00775944 0.00775944 -0.0387892 0 -0.0853379 -0.00775944 -0.0543041 -0.00775944 -0.0155149 0 -0.0465486 0 -0.0232743c-0.0115116,0.0132341 -0.0155229,0.0134773 -0.0155229,0.0387892l0 0.0310338c-0.027182,0.000602094 -0.19387,0.00920686 -0.210669,0.0143825 -0.039818,0.0122652 -0.141588,0.0399216 -0.185122,0.0399216z"/>
    <path id="_125466560" class="fil12" d="M1.29602 2.56787c0.00970927,0.036341 0.0573106,0.0853339 0.100889,0.0853339l0.00775944 0c0.0484586,0 0.0465646,-0.0660828 0.0465646,-0.116368 -0.0197176,-0.00459346 -0.0388012,-0.00648348 -0.0388012,-0.0310338l0 -0.0310298c0.0876186,-0.00728893 0.124167,-0.0895246 0.124167,-0.186191l-0.000171457 -0.0605603 -0.0929538 -0.00925869c-0.0190278,-0.00220901 -0.0264204,0.047394 -0.0498342,0.0587939 -0.0450095,0.0219186 -0.0588138,-0.01327 -0.05686,0.0541167l-0.0485184 -0.0198173c-0.00405516,0.0174009 -0.00775944,0.0178355 -0.00775944,0.0387892l0 0.0155189c0,0.0252162 0.00672272,0.00585746 0.0155189,0.0387892l0.0319708 0.000135571 -0.0086885 0.0696834 0 0.00775944c0,0.0409105 0.0465646,0.0227241 0.0465646,0.0465486 0,0.0219067 -0.0178076,0.0299293 -0.0310417,0.0387892l-0.0388052 0z"/>
    <path id="_125303152" class="fil3" d="M6.13862 2.20325l-0.00776342 0.0155189 -0.00775944 0.00775545 -0.00775944 0.0155189 -0.00775944 0.00775545 -0.00776342 0.0155149 -0.00775944 0.0232743 -0.00775944 0.00775944 -0.00776342 0.0155149 -0.00775944 0.0232743 -0.00775944 0.00775944 -0.00776342 0.0155149 0 0.0232743c-0.00937831,0.0139997 -0.0155189,0.0136368 -0.0155189,0.0310298 0,0.0194943 0.0698469,0.0425732 0.0698469,0.0620635 0,0.0532873 -0.0620875,0.106622 -0.0620875,0.170676l0 0.0232743 0.176234 -0.0543041 -0.00753216 0.123995 0.0796359 -0.0619359 0.0232823 0 0.0310417 -0.00775545 0.0155229 -0.00775944 0.00775944 -0.00775944 0.0155229 -0.00775545 0.00775944 -0.00775944 0.00775944 -0.00775545 0.00776342 -0.00775944 0.00775944 -0.0155149 0.00775944 -0.0155189 0.00776342 -0.0310298 0.00775944 -0.0543081 0 -0.00775545 0 -0.0310338c0.0325968,-0.0156345 0.0620835,-0.0121336 0.0620835,-0.0620595l0 -0.0155189c0,-0.0178754 -0.00539891,-0.0232703 -0.0232823,-0.0232703 -0.0142668,0 -0.0197455,0.0177957 -0.0232823,0.0310298 -0.0599183,-0.00498422 -0.00775944,-0.0584948 -0.00775944,-0.124127 0,-0.0548902 -0.131723,-0.0775784 -0.194014,-0.0775784 -0.00313807,0.0377007 -0.0130666,0.0763942 -0.0465646,0.0853379l0.0134733 -0.0702895 -0.0522745 -0.0150484 -0.00776342 0 -0.0232783 0.00775545z"/>
    <path id="_125472968" class="fil13" d="M1.28826 2.04809l-0.0155229 0.00775944 -0.0155189 0.00775545 -0.0155229 0.00775944 -0.0155189 0.00775545 0 0.0155189 -0.0155229 0 -0.00775944 0.00775545 -0.00775944 0.0155149 -0.00776342 0.00775944 -0.00775944 0.0155189 -0.00775944 0.0232703 -0.00776342 0.0232743 -0.00775944 0.0232743 -0.00775944 0.124127 -0.00776342 0.0232743 -0.00775944 0.00775944 -0.00775944 0.0155149 -0.0155189 0.00775545 -0.00776342 0.0155189 -0.00775944 0.00775545 -0.00775944 0.00775944 0 0.100853 0.00775944 0.00775944 0.00775944 0.0155149 0.00776342 0.00775545 0.0155189 0 0 0.0155189 0.00775944 -0.0155189c0.0140077,0.00937831 0.0136448,0.0155189 0.0310417,0.0155189 0.0367517,0 0.0496229,-0.0155189 0.0698469,-0.0155189 0.0226523,0 0.0402446,0.010431 0.0620835,0.0155189l0.0388052 0c0.0132341,-0.00885995 0.0310417,-0.0168826 0.0310417,-0.0387892 0,-0.0238246 -0.0465646,-0.00563815 -0.0465646,-0.0465486l0 -0.00775944 0.0086885 -0.0696834 -0.0319708 -0.000135571c-0.00879616,-0.0329318 -0.0155189,-0.013573 -0.0155189,-0.0387892l0 -0.0155189c0,-0.0209537 0.00370427,-0.0213883 0.00775944,-0.0387892l0.0485184 0.0198173c-0.00195382,-0.0673867 0.0118505,-0.0321981 0.05686,-0.0541167 0.0234139,-0.0113999 0.0308065,-0.0610029 0.0498342,-0.0587939l0.0929538 0.00925869 0.000171457 0.0605603c0,0.096666 -0.0365483,0.178902 -0.124167,0.186191l0 0.0310298c0,0.0245503 0.0190836,0.0264403 0.0388012,0.0310338l0.0388012 0.00775944 0.00776342 -0.00775944 0.0388012 0 0.0465646 0 0.0232823 -0.00775545 0.00775944 -0.0155189 0.00775944 -0.00775944 0 -0.0543041 -0.00775944 -0.0155149 -0.00775944 -0.00775944 -0.00776342 -0.0155149 -0.00775944 -0.00775545 -0.00775944 -0.0155189 -0.00776342 -0.00775545 -0.00775944 -0.0232743 -0.00775944 -0.116368 0 -0.0155189 0.00775944 -0.00775545 0.00775944 -0.00775944 0.00776342 -0.0155149 0.00775944 -0.0232743 0 -0.0310298 -0.00775944 -0.0155189 -0.00776342 -0.00775944 -0.0155189 -0.00775545 -0.00775944 -0.00775944 -0.00776342 -0.00775545 -0.0310417 -0.00775944 -0.0310417 -0.00775944 -0.00775944 -0.00775545 -0.00776342 -0.00775944 -0.00775944 -0.00775545 -0.0155189 -0.00775944 -0.0310417 -0.00775944 -0.0853658 0 -0.0388052 0.00775944z"/>
    <path id="_125472872" class="fil14" d="M0.372509 2.14894l-0.00775944 0.00775944 -0.00775944 0.00775545 -0.00776342 0.0155189 -0.00775944 0.00775545 -0.00775944 0.00775944 0 0.0232743 -0.0155229 0 -0.00775944 0.0155149 -0.0388012 0.00775944 -0.0155229 0.00775545 -0.00775944 0.00775944 -0.00776342 0.00775545 -0.00775944 0.0155189 -0.00775944 0.00775545 0 0.0387932 0.00775944 0.0155149 0 0.00775545 -0.00775944 0.00775944 -0.00776342 0.00775944 -0.00775944 0.0155149 -0.00775944 0.00775545 -0.00775944 0.0155189 -0.00775944 0.0155149 -0.00776342 0.00775545 -0.00775944 0.00775944 0 0.0387892 0.00775944 0.00775944 0.0310417 0 0.0310417 0 0.0698469 0.00775545 0.0310417 0.00775944 0.0465646 0.00775545 0.0698429 0.00775944 0.00776342 0.0232743 0.00775944 0.00775944 0.00775944 0.00775545 0.00776342 0.00775944 -0.0310457 0.00775944 -0.00775944 0.00775545 -0.00775944 0.00775944 -0.00776342 0.00775545 -0.00775944 0.00775944 -0.00775944 0.0155149 -0.00776342 0.0155189 -0.00775944 0.0155149 0 0.069823 0.0155229 0.00775545 0.00775944 0.00775944 0.00775944 0.00775545 0.0155229 0.00775944 0.054324 0.00775944 0.00775944 0.00775545 0.00775944 0.0155149 0.00776342 0.0155189 0.0155189 0 0 0.0155149 0.00776342 0.00775545 0.00775944 0.00775944 0.00775944 0.0155149 0.00776342 0.00775944 0.00775944 0.00775545 0.00775944 0.00775944 0.00776342 0.0155149 0.00775944 0.00775944 0.00775944 0.00775545 0.00775944 0.00775944 0.00776342 0.0155189 0.00775944 0.00775545 0.00775944 0.00775944 0.00775944 0.00775545 0.00776342 0.00775944 0.00775944 0.0155149 0.00775944 0.00775944 0.0155229 0 0 0.0155149 0.00775944 0.00775944 0.00776342 0.00775545 0.00775944 0.00775944 0.00775944 0.00775944 0.00775944 0.00775545 0.00776342 0.0155149 0.0155189 0.00775944 0.00775944 0.0155149 0.0155229 0.00775944 0.00775944 0.00775545 0.00776342 0.00775944 0.0155189 0.00775944 0.00776342 0.00775944 0.0388012 0 0.0155229 -0.00775944 0.0155189 -0.00775944 0.00775944 -0.00775944 0.00776342 -0.00775545 0.00775944 -0.00775944 0.00775944 -0.00775545 0.00776342 -0.00775944 0.00775944 -0.00775944 0.00775944 -0.00775545 0.00775944 -0.00775944 0.00776342 -0.00775545 0.00775944 -0.00775944 0.00775944 -0.00775944 0.00776342 -0.00775545 0.00775944 -0.00775944 0.00775944 -0.00775944 0.00776342 -0.00775545 0.00775944 -0.00775944 0.00775944 -0.00775545 0.00775944 -0.00775944 0.00775944 -0.00775944 0.00776342 -0.00775545 0.00775944 -0.00775944 0.00775944 -0.00775545 0.00776342 -0.00775944 0 -0.00775944c-0.0669162,-0.05814 -0.0410182,0.00760792 -0.116411,-0.100853l-0.00775944 0 -0.00775944 0.00775944 -0.00775944 0.00775545 -0.00776342 0.00775944 -0.00775944 0.0155149 -0.00775944 0.00775944 -0.00776342 0.00775545 -0.00775944 0.0155189 -0.00775944 0.00775545 -0.00775944 0.0155149 -0.00776342 0.00775944 -0.00775944 0.00775944 -0.00775944 0.0155149 -0.00776342 0 -0.00775944 -0.00775545 -0.0155189 -0.00775944 -0.00776342 -0.0155189 -0.0155189 -0.00775545 -0.00776342 -0.00775944 -0.00775944 -0.00775545 -0.0155229 0 0 -0.0155189 -0.00775944 -0.00775545 -0.0155189 0 0 -0.0155149 -0.00776342 -0.00775944 -0.0155189 -0.00775944 -0.00775944 -0.00775545 -0.00776342 -0.00775944 -0.00775944 -0.00775545 -0.00775944 -0.00775944 -0.00776342 -0.00775944 -0.0155189 0 0 -0.0155149 -0.0155229 -0.00775545 -0.00775944 -0.00775944 -0.00775944 -0.00775944 -0.00776342 -0.00775545 -0.00775944 -0.00775944 -0.0155189 0 0 -0.0155149 -0.0155229 -0.00775944 -0.00775944 -0.00775944 -0.00776342 -0.00775545 -0.00775944 -0.0310338 0 -0.0310298 0.00775944 -0.00775944 0.0310457 -0.00775545 0.00775944 -0.00775944 0.0388012 -0.00775944 0.0155229 -0.00775545 0.00775944 -0.00775944 0.00775944 -0.0155149 0.00776342 -0.0155149 0 -0.0465486 -0.0155229 0 0 -0.0310338 -0.00775944 -0.0232703 -0.00776342 -0.00775944 -0.00775944 -0.00775944 -0.00775944 -0.00775545 -0.0155229 0 0 -0.0155149 -0.0620835 -0.00775944 -0.00775944 -0.0155149 -0.00776342 -0.0155149 -0.00775944 -0.00775944 -0.00775944 -0.0155149 -0.00776342 -0.0155149 -0.00775944 -0.00775944 -0.00775944 -0.0232743 -0.00775944 -0.00775944 -0.00775944 -0.00775545 -0.00776342 -0.0155189 -0.00775944 -0.0155149 -0.00775944 -0.00775545 -0.00776342 -0.0232743 -0.0155189 0 0 -0.0155189 -0.00776342 -0.0232703 -0.00775944 -0.0387892 -0.00775944 -0.00775944 -0.0388012 0 -0.00776342 0.0155149z"/>
    <polygon id="_125304256" class="fil15" points="7.15525,2.41271 7.13974,2.42047 7.11645,2.42823 7.10869,2.43598 7.09317,2.44374 7.08541,2.4515 7.07765,2.45926 7.06989,2.46701 7.06213,2.47477 7.05437,2.49029 7.04661,2.49805 7.03885,2.51356 7.03109,2.56787 7.03109,2.58339 7.03885,2.63769 7.04661,2.65321 7.05437,2.66096 7.06213,2.67648 7.06213,2.68424 7.05437,2.70751 7.04661,2.72303 7.03885,2.73854 7.03885,2.7463 7.04661,2.75406 7.05437,2.75406 7.06989,2.7463 7.08541,2.73854 7.10093,2.73079 7.13197,2.73079 7.14749,2.73854 7.1863,2.7463 7.2251,2.7463 7.27942,2.73854 7.29494,2.73079 7.3027,2.72303 7.31823,2.71527 7.32599,2.70751 7.33375,2.69975 7.34151,2.69199 7.34927,2.68424 7.35703,2.67648 7.36479,2.66872 7.37255,2.65321 7.38031,2.63769 7.38807,2.61442 7.38807,2.53684 7.38031,2.52132 7.37255,2.49805 7.36479,2.48253 7.35703,2.47477 7.34927,2.46701 7.34151,2.45926 7.33375,2.4515 7.32599,2.44374 7.31823,2.43598 7.3027,2.42823 7.27942,2.42047 7.2639,2.41271 7.23286,2.40496 7.1863,2.40496 "/>
    <path id="_125472776" class="fil16" d="M5.29272 2.34289c-0.00172255,0.0772395 -0.0448859,0.0853339 -0.123046,0.0862709l-0.0120658 0.0215358 0.00318193 0.0473501c0.0318512,0.00741652 0.050536,0.0232743 0.0931252,0.0232743 0.0319628,0 0.155213,-0.0182143 0.155213,-0.0465486l0 -0.00775944c0,-0.0361894 -0.0155229,-0.024331 -0.0155229,-0.0775784 0.0569398,-0.00126799 0.0649384,-0.0954459 0.0774987,-0.139746 0.0155946,-0.0550059 0.0413172,-0.106543 0.0544317,-0.162813l0.155213 0 0 0.605116c0,0.0411059 -0.108648,0.154559 -0.108648,0.201705l0 0.0620675c0,0.0695837 0.0899114,0.0853339 0.162972,0.0853339l0.0388012 0c0.0484227,0 0.0988192,-0.0137525 0.139694,-0.0232703l0 -0.0620635 -0.162242 0.0275169 -0.00849311 -0.00424656c-0.0433348,0 -0.0853658,-0.0228038 -0.0853658,-0.0620595 0,-0.0647351 0.256101,-0.356583 0.256101,-0.380141l0 -0.713729c0,-0.0651219 -0.0567364,-0.131887 -0.116411,-0.131887l-0.349227 0 0 0.139646 -0.0667567 0.504702 -0.088452 0.00732083z"/>
    <path id="_125472704" class="fil17" d="M3.13528 3.30487l0.116408 0 0 0.488749 -0.116408 0 0 -0.488749zm-0.527721 0.193946l0.124171 0 0 0.294803 -0.124171 0 0 -0.294803zm2.3437 0.480989c0.0397023,-0.0344948 0.0752817,-0.0422423 0.0779293,-0.1238 0.00220901,-0.0679649 -0.000322978,-0.141193 -0.000322978,-0.209788 0,-0.137058 0,-0.274116 0,-0.41117 0,-0.274112 0,-0.548229 0,-0.822341l-2.66964 0 0 1.48177c0,0.0319469 0.0662981,0.0930933 0.108648,0.0930933l2.42906 0c0.0267553,0 0.0300489,-0.00573784 0.054324,-0.00775944z"/>
    <path id="_125304232" class="fil18" d="M1.29602 2.56787c-0.0218389,-0.00508789 -0.0394312,-0.0155189 -0.0620835,-0.0155189 -0.020224,0 -0.0330952,0.0155189 -0.0698469,0.0155189 -0.0173969,0 -0.0170341,-0.00614056 -0.0310417,-0.0155189l-0.00775944 0.0155189 -0.0310417 0 -0.00775944 0.00775545 -0.00776342 0.0155149 -0.00775944 0.00775944 -0.00775944 0.00775944 -0.00776342 0.0155149 -0.00775944 0.00775944 -0.00775944 0.00775545 0 0.0232743 -0.0155229 0 -0.00775944 0.0155149 -0.00775944 0.0155149 -0.00775944 0.00775944 -0.00776342 0.00775944 -0.00775944 0.0155149 -0.00775944 0.00775944 -0.00776342 0.0155149 -0.00775944 0.0155149 0 0.0155149 -0.0155229 0 0 0.0232743c0.0753933,0.108461 0.0494953,0.0427128 0.116411,0.100853l0.0232823 0 0.00775944 -0.00775944 0.00775944 -0.00775545 0.00776342 -0.00775944 0.00775944 -0.00775545 0.00775944 -0.00775944 0.00775944 -0.00775944 0.00775944 -0.00775545 0.00776342 -0.00775944 0.00775944 0 0.00775944 0.0155149 0.00776342 0.0232743 0.00775944 0.0387932 0.00775944 0.0310298 0.00776342 0.0232743 0.00775944 0.0620635 0.00775944 0.0310298 0.00776342 0.0465486 0.00775944 0.0775784c0.0127995,0.0174647 0.0479123,0.0387892 0.0776063,0.0387892l0.0853658 0c0.0434225,0 0.123633,-0.0314006 0.155209,-0.0465447l0 -0.0465486 0.00776342 -0.0310298 0.00775944 -0.0775824 0.00775944 -0.0775784 0.00775944 -0.00775944 0.00776342 -0.00775545 0.00775944 -0.00775944c0.00882008,-0.105957 0.0651219,-0.0692647 0.108648,-0.131883l0 -0.00775944 -0.00775944 -0.0155149 -0.00776342 -0.0155149 -0.00775944 -0.0232743 -0.00775944 -0.00775944 -0.00776342 -0.0155149 -0.00775944 -0.0232743 -0.00775944 -0.0155149 -0.00775944 -0.0155189 -0.00775944 -0.0232703 -0.00776342 -0.0155189 -0.0155189 0 0 -0.0155149 -0.00776342 -0.00775944 -0.0155189 0 0 -0.0155149 -0.0155229 -0.00775545 -0.0155189 -0.00775944 -0.0155229 -0.00775944 -0.0232823 -0.00775545 -0.0232823 0 -0.0388012 -0.00775944c0,0.0502848 0.001894,0.116368 -0.0465646,0.116368l-0.00775944 0c-0.0435781,0 -0.0911794,-0.0489929 -0.100889,-0.0853339z"/>
    <path id="_125472632" class="fil15" d="M5.10646 2.08688l-2.09536 0 0 0.100853 -0.0310417 0 1.92462 0 0.00775944 0c0.111786,0 0.116411,0.111934 0.116411,0.22498 0,0.274112 0,0.548229 0,0.822341 0,0.137054 0,0.274112 0,0.41117 0,0.0685949 0.00253198,0.141823 0.000322978,0.209788 -0.00264762,0.0815578 -0.038227,0.0893053 -0.0779293,0.1238 0.0181226,0.0311255 -0.053718,0.0775784 -0.0776063,0.0775784l-2.44458 0c-0.0589374,0 -0.124171,-0.0551295 -0.124171,-0.100849l0 -1.06284c-0.0603888,0.016121 -0.0168985,0.0387932 -0.139778,0.0386536l-0.0619958 0.0389288c0,0.243083 0,0.486161 0,0.729244 0,0.121491 0.000705766,0.24319 -3.1899e-005,0.364654 -0.000849311,0.140188 0.0804533,0.155129 0.217328,0.155129l0.00775944 -0.0853379 0.650792 0.000135571 0.00885995 0.0852023 2.755 0c0,-0.183607 0,-0.36721 0,-0.550816 0,-0.0858482 0.0105825,-0.203835 -0.0144184,-0.26487 -0.011045,-0.0269666 -0.0709474,-0.18887 -0.0709474,-0.20836 0,-0.0356312 0.138195,-0.0465486 0.179819,-0.0467719l-0.00908723 -0.0618402c-0.00138362,-0.00817811 0.0162366,-0.0232743 0.0310417,-0.0232743l0.00776342 0c0.0115235,0 0.0342356,0.016755 0.0465646,0.0232743l0 -0.069819c-0.0408746,0.00951787 -0.0912711,0.0232703 -0.139694,0.0232703l-0.0388012 0c-0.0730607,0 -0.162972,-0.0157501 -0.162972,-0.0853339l0 -0.0620675c0,-0.0471468 0.108648,-0.1606 0.108648,-0.201705l0 -0.605116 -0.155213 0c-0.0131145,0.0562699 -0.0388371,0.107807 -0.0544317,0.162813 -0.0125602,0.0442998 -0.0205589,0.138478 -0.0774987,0.139746 0,0.0532474 0.0155229,0.041389 0.0155229,0.0775784l0 0.00775944c0,0.0283343 -0.12325,0.0465486 -0.155213,0.0465486 -0.0425892,0 -0.061274,-0.0158578 -0.0931252,-0.0232743l-0.00318193 -0.0473501 0.0120658 -0.0215358c0.0781606,-0.000937034 0.121324,-0.00903141 0.123046,-0.0862709l-0.0355235 -0.651841 -0.0886474 0.000171457c0.00984484,0.0422503 0.102069,0.543057 0.0388012,0.543057l-0.0465606 0 -0.054328 -0.147401z"/>
    <path id="_125472536" class="fil0" d="M6.65082 3.53761c0.0463254,0.0691611 0.108644,0.150284 0.108644,0.263769l0.00776342 0.0465486 0.512199 0c0.0238565,0 0.0310417,-0.0227281 0.0310417,-0.0465486l-0.00167869 -0.30763 -0.0293631 -0.0182024 -0.605328 0c-0.0456714,0.0121934 -0.0155189,0.0111766 -0.0155189,0.0387892 0,0.00212926 -0.00534707,0.0141751 -0.00775944,0.0232743z"/>
    <path id="_125304136" class="fil1" d="M5.92132 3.14196c-0.00434225,0.00624423 -0.0155229,0.0191514 -0.0155229,0.0232703 0,0.0281828 0.00920686,0.0272139 0.0155149,0.0542164l-0.131922 0.00784716c-0.00434225,0.00624822 -0.0155229,0.0191554 -0.0155229,0.0232743 0,0.0348138 0.144977,0.48579 0.162936,0.519177l0.225091 -0.0149088 0.142306 -0.0239881 -0.0207463 -0.0761549 0.0065074 0.00545075 0.0892295 -0.068228 -0.0147613 -0.0700223 -0.117018 0.0240758c-0.0296342,-0.12711 -0.0708756,-0.154323 -0.0699625,-0.326463 0.000610069,-0.115614 -0.0536821,-0.224489 -0.0621154,-0.325805 -0.0266237,0.00221698 -0.0698469,0.0110291 -0.0698469,0.0387932l0 0.279284 -0.054324 0 -0.0289244 -0.0708039 -0.0409185 0.000984882z"/>
    <polygon id="_125472440" class="fil4" points="3.13528,3.79362 3.25168,3.79362 3.25168,3.30487 3.13528,3.30487 "/>
    <polygon id="_125472344" class="fil4" points="2.60755,3.79362 2.73172,3.79362 2.73172,3.49882 2.60755,3.49882 "/>
    <path id="_125304064" class="fil1" d="M0.582046 3.94878l0.242568 -0.000163482 -0.025272 -0.333429 -0.186254 0c-0.129139,0 -0.0331391,0.23943 -0.0310417,0.333592z"/>
    <polygon id="_125472272" class="fil1" points="0.860998,3.94106 0.985967,3.9411 0.993356,3.89448 1.10977,3.89448 1.10977,3.61519 0.832238,3.61502 "/>
    <path id="_125472176" class="fil0" d="M1.97895 2.87043l-0.0232783 0 -0.0155229 0.00775545 -0.00775944 0.00775944 -0.0388052 0.00775545 -0.0155189 0.00775944 -0.0155229 0.00775944 -0.0310417 0.00775944 -0.0155229 0.00775545 -0.0232823 0.00775944 -0.0232823 0.00775545 0 -0.0155149 -0.00775944 -0.00775545 -0.00775944 -0.0155189 -0.00775944 -0.0155149 -0.00775944 -0.00775944 -0.00776342 -0.00775545 -0.00775944 -0.0232743 -0.00775944 -0.0155149 -0.00776342 -0.00775944 -0.00775944 -0.0310298c-0.0435262,0.0626178 -0.099828,0.0259259 -0.108648,0.131883l0.00775944 0.0232743 0.0155229 0 0 0.0155149 0.00775944 0.00775944 0.00776342 0.00775545 0.00775944 0.0155189 0.00775944 0.00775545 0.00775944 0.00775944 0.00775944 0.00775944 0.00776342 0.00775545 0.00775944 0.00775944 0.00775944 0.00775545 0.00776342 0.00775944 0.00775944 0.00775944 0.00775944 0.00775545 0.00776342 0.00775944 0.00775944 0.00775545 0.00775944 0.00775944 0.0620835 0 0.0155229 -0.00775944 0.00775944 -0.00775545 0.0232823 -0.00775944 0.00776342 -0.00775545 0.0155189 -0.00775944 0.0232823 -0.00775944 0 -0.0155149 0.0155189 0 0.0232823 -0.00775545 0.00776342 -0.00775944 0.0155189 -0.00775944 0.0155229 -0.00775545 0 -0.00775944 0.13969 -0.0775784 0 0.0620635 0.0619958 -0.0389288c0.122879,0.000139558 0.0793887,-0.0225327 0.139778,-0.0386536l0 1.06284c0,0.0457193 0.0652335,0.100849 0.124171,0.100849l2.44458 0c0.0238884,0 0.095729,-0.046453 0.0776063,-0.0775784 -0.0242752,0.0020216 -0.0275687,0.00775944 -0.054324,0.00775944l-2.42906 0c-0.0423499,0 -0.108648,-0.0611464 -0.108648,-0.0930933l0 -1.48177 2.66964 0c0,-0.113046 -0.00462536,-0.22498 -0.116411,-0.22498l-0.00775944 0 -1.92462 0 0.0310417 0 0 -0.100853 2.09536 0 -0.13585 -0.394328 -2.75108 -0.0013278c-0.059715,0 -0.116408,0.0689178 -0.116408,0.131887l0 1.00853 -0.124171 0.0387892z"/>
    <path id="_125303968" class="fil11" d="M1.96343 2.9868c0.0277601,0.0112005 0.0155189,0.0873236 0.0155189,0.124127 0,0.0368035 0.0122413,0.112923 -0.0155189,0.124127l-0.00775944 0.00775545 -0.00776342 0.0155189 -0.00775944 0.00775545 -0.00775944 0.00775944 -0.00776342 0.00775545 -0.00775944 0.0155189 -0.00775944 0.0155149 -0.00776342 0.0155149 0 0.0155189 -0.0155189 0 -0.00775944 0.0155149 -0.00776342 0.0155149 -0.00775944 0.0155149 -0.00775944 0.00775944 -0.00775944 0.0155149 -0.00776342 0.00775944 -0.00775944 0.0155149 -0.00775944 0.0155149 -0.00776342 0.00775944 -0.00775944 0.00775545 -0.00775944 0.0155189 -0.00776342 0.0155149 -0.00775944 0.00775944 0 0.0232743 -0.0155229 0 -0.00775944 0.0155149 -0.00775944 0.0155149 -0.00775944 0.0155149 -0.00775944 0.00775944 -0.00776342 0.0155149 -0.00775944 0 -0.0155229 -0.00775944 -0.00775944 -0.00775545 -0.0155229 -0.00775944 -0.0310417 0 0 -0.0232743 -0.00775944 -0.0465447 -0.00775944 -0.0310338 -0.00775944 -0.0620635 -0.00776342 -0.0232743 -0.00775944 -0.0232743 -0.00775944 -0.0465447 -0.00776342 -0.0155149 -0.00775944 -0.0232783 -0.00775944 -0.0310298 -0.00776342 -0.0155149 -0.00775944 -0.0155149 -0.00775944 -0.0310338 -0.00775944 -0.0543041 -0.00776342 0 0 0.0465486c-0.031576,0.0151441 -0.111786,0.0465447 -0.155209,0.0465447l-0.0853658 0c-0.029694,0 -0.0648069,-0.0213245 -0.0776063,-0.0387892l-0.00775944 0 -0.00776342 0.00775944 -0.00775944 0.00775545 -0.00775944 0.0232743 -0.00776342 0.00775944 -0.00775944 0.0155149 -0.00775944 0.0155149 -0.00776342 0.00775944 -0.00775944 0.0155149 -0.00775944 0.0232743 -0.00776342 0.00775944 -0.00775944 0.0232743 -0.00775944 0.0310298 -0.00775944 0.0155149 -0.00775944 0.0310338 0 0.147401 0.00775944 0.00775545 0.0388012 0.279284 0.147453 0.0232743 0.0776023 0c0.141472,0 0.169061,-0.0226603 0.27162,-0.0465447l0 -0.217224c0.0278558,0.00231667 0.0620875,0.0267752 0.0620875,0.0543041l0 0.0465486c0,0.0677256 -0.0310457,0.142764 -0.0310457,0.19395l0 0.0387892 -0.0219386 -9.17097e-005 0.0141791 0.225072 0.00775944 0 0.00776342 -0.0310298 0.00775944 -0.0387932 0.00775944 -0.069819 0.00776342 -0.0387892 0.00775944 -0.0387892 0.00775944 -0.069823 0.00776342 -0.0310338 0.00775944 -0.0465447 0.00775944 -0.069823 0.00775944 -0.0387892 0 -0.0232743 0 -0.0310298 0.00775944 -0.00775944 0.00776342 -0.0155149 0.00775944 -0.0155149 0.00775944 -0.00775944 0.00776342 -0.0155149 0.00775944 -0.00775944 0.00775944 -0.0155149 0.00776342 -0.0155149 0.00775944 -0.00775944 0.00775944 -0.00775545 0.00776342 -0.0232743 0.00775944 -0.00775944 0.00775944 -0.0155149 0.00775944 -0.0155189 0.00776342 -0.00775545 0.00775944 -0.00775944 0.00775944 -0.0155149 0.00775944 -0.0155149 0.00776342 -0.00775944 0 -0.0232743 0.0155189 0 0.00776342 -0.0155149 0.00775944 -0.0155149 0 -0.0155149 0.0155229 0 0.00775944 -0.0232743 0.00775944 -0.00775944 0.00775944 -0.0155149 0 0.993013 0.00776342 0.0387892 0.00775944 0.0232743 0.00775944 0.0232743 0.00776342 0.0155149 0.00775944 0.0155149 0.00775944 0.0155189 0.00775944 0.00775545 0.0155229 0 0 0.0155149 0.00775944 0.00775944 0.0155229 0.00775944 0.00775944 0.00775944 0.00775944 0.00775545 0.0232823 0.00775944 0.00776342 0.00775545 0.0232823 0.00775944 0.147449 0 0.0310417 -0.279284c-0.136875,0 -0.218177,-0.0149407 -0.217328,-0.155129 0.000737665,-0.121464 3.1899e-005,-0.243162 3.1899e-005,-0.364654 0,-0.243083 0,-0.486161 0,-0.729244l0 -0.0620635 -0.13969 0.0775784z"/>
    <path id="_125472104" class="fil16" d="M0.589805 3.97981l0.238023 0.000251205 0.0335976 0.333341 -0.155209 0c-0.0764061,0 -0.0757482,-0.0694482 -0.0872837,-0.137728 -0.00735272,-0.0435182 -0.0291278,-0.150886 -0.0291278,-0.195864zm-0.00775944 -0.0310298c-0.00209736,-0.0941619 -0.0980975,-0.333592 0.0310417,-0.333592l0.186254 0 0.025272 0.333429 -0.242568 0.000163482zm0.403921 -0.00768368l-0.124968 -3.58864e-005 -0.028761 -0.326036 0.277529 0.000163482 0 0.279288 -0.116411 0 -0.00738861 0.0466204zm-0.427204 -0.356938l-0.0155229 0.00775545 -0.00775944 0.00775944 -0.00775944 0.00775944 -0.00776342 0.00775545 -0.00775944 0.0155149 -0.00775944 0.0155189 -0.00775944 0.0232703 0 0.0387932 0.00775944 0.0387892 0.00775944 0.0387892 0.00775944 0.0620635 0.00776342 0.0465486 0.00775944 0.0387892 0.00775944 0.0620635 0.00776342 0.0465447 0.00775944 0.0310338 0.00775944 0.069823 0.00776342 0.0465447 0.00775944 0.0310338 0.00775944 0.0543041 0.00776342 0.0155149 0.00775944 0.0155189 0.00775944 0.00775545 0.00775944 0.0155149 0.0155229 0.00775944 0.0155189 0.00775944 0.0155229 0.00775545 0.465634 0c0.011364,-0.0179033 0.0412056,-0.15731 0.0415365,-0.194125l-0.0182542 -0.302383 -0.0388012 -0.279284 -0.54324 0 -0.0155229 0.00775944z"/>
    <path id="_125472032" class="fil19" d="M1.24169 4.7556l0 -0.0232703 0.00775944 -0.0387892 0 -0.0232743 0.0232823 -0.116372 0.00776342 0 0.00775944 -0.0543041 0.00775944 -0.0310298 0.00776342 -0.0232783 0.00775944 -0.0620595 0 -0.0310338 0.194014 0 0 0.0465486 0.00775944 0.108612 0.00776342 0.0543041 0.00775944 0.0465486 0.0465606 0.25601c-0.0421386,0.0222894 -0.0405078,0.0387892 -0.108648,0.0387892 -0.0893093,0 -0.131926,-0.0616887 -0.131926,-0.155157l-0.0465646 0 -0.0465646 0.00775545zm-0.395787 -0.0930933l0.249434 0.000211331 -0.00885597 0.023063 0 0.00775944 0.0232823 0 0 0.0853339 -0.0232823 0 -0.0465646 0.00775944 -0.054324 0.00775545 -0.0388052 0.00775944 -0.0388012 0.00775944 -0.0166194 0.00754412 0.00885995 -0.023063 0 -0.0310298 -0.00776342 -0.0310298 0.00776342 -0.00775944 0 -0.00775944 -0.00776342 -0.00775545 -0.00775944 0 -0.00775944 -0.0232743 -0.0232823 -0.00775944 -0.00775944 -0.00775545 -0.00776342 -0.00775944 0.00776342 0zm0.900226 -0.0853379l-0.00775944 0.00775944 0 0.0155149 -0.0155229 0 -0.0473661 0.00774748 0.0085609 -0.178423 0.00776342 0.0155149 0.00775944 0.00775944 0.00775944 0.00775944 0.00776342 0.0155149 0.00775944 0.0155149 0.00775944 0.00775944 0.00776342 0.0155149 0.00775944 0.00775944 0.00775944 0.0155149 0 0.0232743 -0.00775944 0.0155149zm5.23839 0.612876l0.00775944 0.0620635c-0.0168307,0.00890381 -0.0447184,0.0232743 -0.0698429,0.0232743 -0.0297897,0 -0.0631042,-0.11071 -0.0698469,-0.139642l-0.566523 0 -0.0310417 0.155157 -0.054324 0c-0.0174009,0 -0.0170341,-0.00613657 -0.0304795,-0.0155229l-0.00832565 -0.147393c-0.0430597,0.0273135 -0.172933,0.00680645 -0.208528,-0.00876426 -0.0487098,-0.0213085 -0.094134,-0.0752538 -0.094134,-0.146393l-1.99369e-005 -0.301785 -0.0853458 -0.00853299 -0.0155189 -0.00775944 -0.155213 -0.00775545 -0.0853658 -0.00775944 -0.100889 -0.00775944 -0.263861 -0.00775545 -0.13969 -0.00775944 -0.155209 -0.00775545 -0.256101 0 -0.00775944 0.0775784 0.333704 0c0.0802659,0 0.162972,0.0656921 0.162972,0.139642l0 0.0543081 -2.02551 0 -0.0155189 0 0.00775944 0.108608 -0.799338 0 -0.00138761 -0.0621991 0.0246659 -0.271393 -0.0465606 0 -0.108648 0.00775944 -0.0698469 0.00775944 -0.124167 0.00775545 -0.0620875 0.00775944 -0.0853658 0.00775944 -0.100889 0.00775545 -0.00775944 -0.0465486 0.054324 0 0.0155229 -0.00775545 0.0155189 -0.00775944 0.00775944 -0.00775944 0.00776342 -0.00775545 0.00775944 -0.00775944 0.00775944 -0.00775545 0.00776342 -0.0310338 0 -0.0543041 -0.00776342 -0.0310338 -0.00775944 -0.00775545 -0.00775944 -0.00775944 -0.00776342 -0.0155149 -0.00775944 -0.00775944 -0.00775944 -0.00775944 -0.00775944 -0.0232703 -0.00775944 -0.00775944 -0.00776342 -0.00775944 -0.00775944 -0.0155149 -0.00775944 -0.0155149 -0.0155229 0 0 -0.0232743 -0.00775944 -0.00775545 -0.00776342 -0.00775944 -0.00775944 -0.162916 -0.0141791 -0.225072 0.0219386 9.17097e-005 0 -0.0387892c0,-0.051186 0.0310457,-0.126224 0.0310457,-0.19395l0 -0.0465486c0,-0.0275289 -0.0342316,-0.0519874 -0.0620875,-0.0543041l0 0.217224c-0.102559,0.0238844 -0.130148,0.0465447 -0.27162,0.0465447l-0.0776023 0 -0.147453 -0.0232743 0.0182542 0.302383c-0.000330952,0.0368155 -0.0301725,0.176222 -0.0415365,0.194125l-0.00775944 0.0232743 -0.00775944 0.0465486 -0.00775944 0.0620635 0 0.124127 -0.551004 0 0 0.0465447 0.00775944 0.00775944 0.0931292 0.00775944 -0.0155229 0.00775545 -0.00775944 0.0155189 -0.00775944 0.00775545 -0.00776342 0.00775944 -0.00775944 0.0232743 0 0.0775784 0.00775944 0.0232703 0.00776342 0.0155189 0.00775944 0.00775545 0 0.00775944 -0.0310417 0.00775944 -0.0232823 0.00775944 -0.0388052 0.00775545 -0.0232823 0.00775944 -0.0232783 0.00775545 -0.0310417 0.00775944 -0.0232823 0.00775944 -0.0155229 0.00775545 -0.0310417 0.00775944 -0.0232823 0.00775545 -0.0155189 0.00775944 -0.0232823 0.00775944 -0.0155229 0.00775545 -0.0155189 0.00775944 -0.0232823 0.00775545 -0.0155229 0.00775944 -0.0155189 0.00775944 -0.0155229 0.00775545 -0.0155229 0.00775944 -0.00775944 0.00775545 -0.0155189 0.00775944 -0.00775944 0.00775944 -0.0155229 0.00775545 -0.00775944 0.00775944 -0.00776342 0.00775944 -0.00775944 0.00775545 -0.00775944 0.0155189 -0.00776342 0.00775545 -0.00775944 0.00775944 0 0.0930933 0.00775944 0.00775944 0.00776342 0.0155149 0.00775944 0.00775545 0.00775944 0.00775944 0.00776342 0.00775944 0.00775944 0.00775545 0.0155229 0.00775944 0.00775944 0.00775944 0.00775944 0.00775944 0.0155189 0.00775545 0.0155229 0.00775944 0.00775944 0.00775545 0.0232823 0.00775944 0.00776342 0.00775944 0.0155189 0.00775545 0.0232823 0.00775944 0.0155189 0.00775545 0.0155229 0.00775944 0.0310417 0.00775944 0.0155229 0.00775545 0.0232783 0.00775944 0.0232823 0.00775545 0.0232823 0.00775944 0.0232823 0.00775944 0.0310417 0.00775545 0.0310417 0.00775944 0.0232823 0.00775545 0.0310457 0.00775944 0.0310417 0.00775944 0.0310417 0.00775545 0.0310417 0.00775944 0.0465646 0.00775944 0.0232783 0.00775545 0.0388052 0.00775944 0.054324 0.00775944 0.0232823 0.00775545 0.0465646 0.00775944 0.054324 0.00775545 0.0388012 0.00775944 0.0388012 0.00775944 0.0776063 0.00775545 0.0310417 0.00775944 0.0465646 0.00775545 0.0698469 0.00775944 0.054324 0.00775944 0.0465606 0.00775545 0.0853658 0.00775944 0.0465646 0.00775545 0.0698469 0.00775944 0.0931252 0.00775944 0.054324 0.00775545 0.0698469 0.00775944 0.13193 0.00775545 0.0620835 0.00775944 0.0698469 0.00775944 0.162972 0.00775545 0.0853658 0.00775944 0.0853658 0.00775944 0.178495 0.00775944 0.139686 0.00775545 0.139694 0.00775944 0.27162 0.00775545 0.201773 0.00775944 1.34258 0 0.194014 -0.00775944 0.27938 -0.00775545 0.13969 -0.00775944 0.13969 -0.00775545 0.170736 -0.00775944 0.0853658 -0.00775944 0.0931252 -0.00775944 0.162972 -0.00775545 0.0698469 -0.00775944 0.0620835 -0.00775944 0.124171 -0.00775545 0.0698429 -0.00775944 0.054324 -0.00775545 0.0931292 -0.00775944 0.0698429 -0.00775944 0.054324 -0.00775545 0.0776063 -0.00775944 0.054324 -0.00775545 0.054324 -0.00775944 0.0698469 -0.00775944 0.0388012 -0.00775545 0.0388012 -0.00775944 0.0776063 -0.00775545 0.0388052 -0.00775944 0.0310417 -0.00775944 0.0620835 -0.00775545 0.0388052 -0.00775944 0.0310417 -0.00775545 0.0465606 -0.00775944 0.0388052 -0.00775944 0.0310417 -0.00775545 0.0388012 -0.00775944 0.0388052 -0.00775944 0.0232823 -0.00775545 0.0388012 -0.00775944 0.0310417 -0.00775944 0.0232823 -0.00775545 0.0310417 -0.00775944 0.0310417 -0.00775545 0.0155229 -0.00775944 0.0232823 -0.00775944 0.0310417 -0.00775545 0.0155189 -0.00775944 0.0232823 -0.00775545 0.0232823 -0.00775944 0.0232823 -0.00775944 0.00776342 -0.00775545 0.0232783 -0.00775944 0.0155229 -0.00775545 0.0155189 -0.00775944 0.0232823 -0.00775944 0.00776342 -0.00775545 0.00775944 -0.00775944 0.0155229 -0.00775545 0.0155189 -0.00775944 0.00775944 -0.00775944 0.0155229 -0.00775944 0.00775944 -0.00775545 0 -0.0155189 0.0155229 0 0.00775944 -0.00775545 0.00775944 -0.0155149 0.00776342 -0.0155189 0 -0.0775784 -0.00776342 -0.00775545 -0.00775944 -0.0155149 -0.00775944 -0.00775944 -0.00776342 -0.00775944 -0.00775944 -0.00775545 -0.00775944 -0.00775944 -0.00776342 -0.00775944 -0.00775944 -0.00775545 -0.0155189 -0.00775944 -0.00775944 -0.00775944 -0.0155229 -0.00775545 -0.00775944 -0.00775944 -0.0232823 -0.00775545 -0.00776342 -0.00775944 -0.0155189 -0.00775944 -0.0232823 -0.00775545 -0.0155189 -0.00775944 -0.0155229 -0.00775545 -0.0310417 -0.00775944 -0.0155229 -0.00775944 -0.0155229 -0.00775545 -0.0310377 -0.00775944 -0.0232823 -0.00775545 -0.0155229 -0.00775944 -0.0310417 -0.00775944 -0.0310417 -0.00775545 -0.0232823 -0.00775944 -0.00775944 -1.43522 -0.00776342 0c0,0.305146 0,0.610292 0,0.915434 0,0.152573 0,0.305146 0,0.457719 0,0.149618 -0.0106981,0.310318 -0.155209,0.310318l-0.294902 0 0 0.0543041z"/>
    <path id="_125304304" class="fil1" d="M0.706216 4.3134l0.155209 0 -0.0335976 -0.333341 -0.238023 -0.000251205c0,0.0449776 0.0217751,0.152346 0.0291278,0.195864 0.0115355,0.0682799 0.0108776,0.137728 0.0872837,0.137728z"/>
    <path id="_125471936" class="fil20" d="M5.74283 4.22031l0.108648 -0.0155189 0 0.294803 0 0.162916 -0.0776063 0 0.0853458 0.00853299 1.99369e-005 0.301785c0,0.0711388 0.0454242,0.125084 0.094134,0.146393 0.0355953,0.0155707 0.165468,0.0360778 0.208528,0.00876426l-0.0232783 -0.713729 -0.00287091 -0.0389288 0.0261492 -0.620492 -0.225091 0.0149088c-0.0179592,-0.0333863 -0.162936,-0.484363 -0.162936,-0.519177 0,-0.00411896 0.0111806,-0.0170261 0.0155229,-0.0232743l0.131922 -0.00784716c-0.00630803,-0.0270025 -0.0155149,-0.0260336 -0.0155149,-0.0542164 0,-0.00411896 0.0111806,-0.0170261 0.0155229,-0.0232703l-0.00775944 -0.0543081c-0.012329,-0.00651936 -0.0350411,-0.0232743 -0.0465646,-0.0232743l-0.00776342 0c-0.0148051,0 -0.0324254,0.0150962 -0.0310417,0.0232743l0.00908723 0.0618402c-0.0416242,0.000223293 -0.179819,0.0111407 -0.179819,0.0467719 0,0.0194903 0.0599024,0.181394 0.0709474,0.20836 0.0250009,0.0610348 0.0144184,0.179021 0.0144184,0.26487 0,0.183607 0,0.36721 0,0.550816z"/>
    <path id="_125471840" class="fil11" d="M5.74283 4.22031l-2.755 0 0.0310417 0.279284 0.403551 0 0 0.108612 -0.287143 0 -0.100889 0.00775545 0 -0.0155149 -0.00775944 0 0.0232823 0.279288 0.0155189 0 2.02551 0 0 -0.0543081c0,-0.0739499 -0.0827062,-0.139642 -0.162972,-0.139642l-0.333704 0 0.00775944 -0.0775784 0 -0.108612 1.24945 0 0 -0.294803 -0.108648 0.0155189z"/>
    <path id="_125304448" class="fil16" d="M6.28607 5.13574l0.566523 0c-0.0403762,-0.0841177 -0.068539,-0.177111 -0.111252,-0.261169 -0.0399655,-0.078651 -0.0899353,-0.182131 -0.120538,-0.259642 -0.038865,-0.0984364 -0.0629966,-0.175967 -0.0910278,-0.289141 -0.0152318,-0.0614933 -0.0719283,-0.260276 -0.072973,-0.307192 -0.0092866,0.0133617 -0.131926,0.387581 -0.131926,0.403415 0,0.0411936 0.0310377,0.0743646 0.0310377,0.124127l0.00541885 0.124972 -0.0752618 0.464629z"/>
    <path id="_125471744" class="fil16" d="M6.969 4.94955l0 -0.550812c0,-0.0181585 0.0128792,-0.0310338 0.0310417,-0.0310338l0.279384 0c0.0238565,0 0.0310417,0.0227281 0.0310417,0.0465486l0 0.535298c0,0.0304277 -0.0383905,0.0387892 -0.0698469,0.0387892l-0.217296 0c-0.0261532,0 -0.054324,-0.0137086 -0.054324,-0.0387892zm-0.294902 -1.47401l0.605328 0 0.0293631 0.0182024 0.00167869 0.30763c0,0.0238206 -0.00718525,0.0465486 -0.0310417,0.0465486l-0.512199 0 -0.00776342 -0.0465486 0.00776342 0.659425c0.0699067,0.104362 0.120929,0.170094 0.150663,0.322623 0.00698987,0.0358705 0.0661865,0.405923 0.0666331,0.406621l0 -0.0543041 0.294902 0c0.144511,0 0.155209,-0.160699 0.155209,-0.310318 0,-0.152573 0,-0.305146 0,-0.457719 0,-0.305142 0,-0.610288 0,-0.915434l0 -0.0310298 -0.00775944 -0.0155149 -0.00775944 -0.0232743 -0.00776342 -0.00775944 -0.00775944 -0.00775944 -0.00775944 -0.0155149 -0.00775944 -0.00775545 -0.0155229 -0.00775944 -0.00775944 -0.00775944 -0.0155229 -0.00775545 -0.0232823 -0.00775944 -0.0232823 -0.00775545 -0.473393 -0.00775944 -0.00865261 0.0620197c-0.0573744,0.0870245 -0.0859081,0.0637103 -0.14656,0.116411z"/>
    <polygon id="_125471672" class="fil6" points="0.90799,4.73233 0.90799,4.72457 0.90023,4.72457 0.90023,4.73233 "/>
    <polygon id="_125302768" class="fil6" points="0.90799,4.7556 0.90799,4.74785 0.90023,4.74785 0.90023,4.7556 "/>
    <polygon id="_125471600" class="fil21" points="1.00112,4.76336 1.00112,4.7556 0.985596,4.7556 0.985596,4.76336 "/>
    <path id="_125471528" class="fil20" d="M1.24945 4.67027l0.00776342 0c0.0114757,-0.028426 0.134702,-0.0166872 0.13193,-0.00775944l-0.00776342 0.00775944 -0.0155189 0.00775545 -0.00776342 0.0155189 -0.00775944 0.00775545 -0.00775944 0.00775944 -0.00775944 0.0155149 0 0.0232743c0,0.0934681 0.0426171,0.155157 0.131926,0.155157 0.0681403,0 0.0665095,-0.0164998 0.108648,-0.0387892l-0.0465606 -0.25601 -0.264957 -0.000215318 0.00885597 -0.023059 0 -0.0310338 -0.0232823 0.116372z"/>
    <path id="_125303056" class="fil4" d="M6.969 4.94955c0,0.0250806 0.0281708,0.0387892 0.054324,0.0387892l0.217296 0c0.0314564,0 0.0698469,-0.00836153 0.0698469,-0.0387892l0 -0.535298c0,-0.0238206 -0.00718525,-0.0465486 -0.0310417,-0.0465486l-0.279384 0c-0.0181625,0 -0.0310417,0.0128752 -0.0310417,0.0310338l0 0.550812z"/>
    <polygon id="_125471456" class="fil4" points="2.32041,4.22031 2.28937,4.49959 2.28161,4.53838 2.28161,4.65475 2.25694,4.92614 2.25833,4.98834 3.05767,4.98834 3.04991,4.87973 3.02663,4.60045 3.02663,4.53838 3.01887,4.49959 2.98783,4.22031 2.97897,4.13511 2.32817,4.13497 "/>
    <path id="_125471360" class="fil13" d="M6.37919 3.59191l-0.0892295 0.068228 -0.0065074 -0.00545075 0.0207463 0.0761549 -0.142306 0.0239881 -0.0261492 0.620492 0.00287091 0.0389288 0.0232783 0.713729 0.00832565 0.147393c0.0134454,0.00938629 0.0130786,0.0155229 0.0304795,0.0155229l0.054324 0 0.0310417 -0.155157 0.0752618 -0.464629 -0.00541885 -0.124972c0,-0.0497625 -0.0310377,-0.0829335 -0.0310377,-0.124127 0,-0.0158339 0.12264,-0.390053 0.131926,-0.403415 0.00104469,0.0469155 0.0577412,0.245698 0.072973,0.307192 0.0280313,0.113174 0.0521629,0.190704 0.0910278,0.289141 0.0306031,0.0775106 0.0805729,0.180991 0.120538,0.259642 0.0427128,0.0840579 0.0708756,0.177052 0.111252,0.261169 0.00674266,0.0289324 0.0400572,0.139642 0.0698469,0.139642 0.0251245,0 0.0530122,-0.0143705 0.0698429,-0.0232743l-0.00775944 -0.0620635c-0.000446586,-0.000697791 -0.0596432,-0.37075 -0.0666331,-0.406621 -0.0297339,-0.152529 -0.0807564,-0.218261 -0.150663,-0.322623l-0.00776342 -0.659425c0,-0.113485 -0.0623187,-0.194608 -0.108644,-0.263769l-0.271624 0.0543041z"/>
   </g>
   <polygon id="_125469512" class="fil22 str0" points="1.1593,3.82569 1.17458,4.15807 1.12438,4.36875 1.11274,4.79615 1.23772,4.79136 1.31451,4.3222 1.38436,3.84896 1.30676,3.8224 "/>
   <polygon id="_125468864" class="fil22 str0" points="1.47112,3.84515 1.51435,4.45021 1.57837,4.83422 1.68383,4.81534 1.68178,4.19665 1.65598,3.80242 "/>
   <polygon id="_125479568" class="fil23 str1" points="1.11274,4.79615 1.10341,4.97364 1.37683,4.96884 1.23772,4.79136 "/>
   <polygon id="_125466872" class="fil23 str1" points="1.57837,4.83422 1.57837,4.98803 1.85651,4.97364 1.68383,4.81534 "/>
   <polygon id="_125473640" class="fil24 str2" points="1.39212,3.84894 1.47652,3.84457 1.50853,4.3222 1.31451,4.3222 "/>
   <ellipse id="_125476160" class="fil24 str2" cx="0.748447" cy="4.74339" rx="0.147445" ry="0.125363"/>
   <rect id="_125465696" class="fil24 str2" x="0.561738" y="4.57821" width="0.556343" height="0.0543041"/>
   <polygon id="_81924208" class="fil24 str2" points="1.68213,4.30179 1.79704,4.4673 1.80343,4.54254 1.78403,4.58985 1.73505,4.617 1.68317,4.61717 1.68303,4.57363 1.74135,4.55494 1.75687,4.53166 1.74911,4.49287 1.69866,4.41917 1.68244,4.39519 "/>
   <path id="_125475848" class="fil25 str1" d="M2.44449 4.25863c0.107867,0.203352 0.315513,0.1731 0.377421,0.000211331"/>
   <polygon id="_125471216" class="fil22 str0" points="1.6986,2.80597 1.62526,2.83891 1.60124,2.90351 1.75423,3.07072 1.78079,3.07579 2.13864,2.88325 2.21325,2.88198 2.27773,2.81864 2.27267,2.74771 2.2221,2.74517 2.22083,2.7325 2.29417,2.6679 2.26888,2.6679 2.20692,2.6983 2.13737,2.80597 1.79091,2.94911 1.76941,2.94025 "/>
   <polygon id="_81924568" class="fil22 str0" points="0.481129,2.72747 0.514547,2.73533 0.795653,3.06755 0.846764,3.08524 1.05907,2.88669 0.996163,2.86507 0.952916,2.79037 0.850695,2.9378 0.821208,2.92798 0.551897,2.67636 0.538137,2.59772 0.502753,2.5702 0.445745,2.58986 0.414293,2.64884 0.416258,2.67439 0.475232,2.69208 0.496855,2.65473 0.506684,2.60755 0.496855,2.69798 "/>
   <polygon id="_128817816" class="fil26 str3" points="6.10758,2.47477 6.09827,2.51401 6.05648,2.59606 6.04549,2.66872 6.22173,2.61442 6.16772,2.45032 "/>
   <polygon id="_125466992" class="fil26 str3" points="6.22173,2.61442 6.21419,2.73842 6.29383,2.67648 "/>
   <rect id="_125469824" class="fil27 str4" x="3.1203" y="0.202312" width="0.869456" height="0.601544"/>
   <rect id="_125472992" class="fil27 str4" x="6.90689" y="1.18696" width="0.548715" height="0.422367"/>
  </g>
 </g>
</svg>
