<?xml version="1.0" encoding="UTF-8"?>
<!DOCTYPE svg PUBLIC "-//W3C//DTD SVG 1.1//EN" "http://www.w3.org/Graphics/SVG/1.1/DTD/svg11.dtd">
<!-- Creator: CorelDRAW -->
<svg xmlns="http://www.w3.org/2000/svg" xml:space="preserve" width="6.65908in" height="7.82441in" style="shape-rendering:geometricPrecision; text-rendering:geometricPrecision; image-rendering:optimizeQuality; fill-rule:evenodd; clip-rule:evenodd"
viewBox="0 0 6.2393 7.33117"
 xmlns:xlink="http://www.w3.org/1999/xlink">
 <defs>
  <style type="text/css">
   <![CDATA[
    .fil2 {fill:#1C1E38}
    .fil7 {fill:#432AA4}
    .fil4 {fill:#6C58C6}
    .fil6 {fill:#8453F8}
    .fil9 {fill:#DA4A53}
    .fil10 {fill:#E0B0BD}
    .fil8 {fill:#E85757}
    .fil1 {fill:#EBA0EF}
    .fil3 {fill:#F5B3AC}
    .fil0 {fill:#F8C8D6}
    .fil5 {fill:#FF6667}
   ]]>
  </style>
 </defs>
 <g id="Layer_x0020_1">
  <metadata id="CorelCorpID_0Corel-Layer"/>
  <g id="_116978856">
   <polygon id="_116907128" class="fil0" points="3.72625,0.953225 3.70891,0.987885 3.69159,1.02255 3.67425,1.05721 3.65692,1.09187 3.63959,1.12654 3.62226,1.1612 3.60493,1.19586 3.58759,1.23053 3.57026,1.26519 3.55293,1.29985 3.5356,1.33451 3.51827,1.36917 3.50094,1.40384 3.48361,1.4385 3.46628,1.47316 3.44895,1.4905 3.44895,1.54249 3.50094,1.54249 3.51827,1.52516 3.5356,1.4905 3.55293,1.45583 3.57026,1.42117 3.58759,1.38651 3.60493,1.35185 3.62226,1.31718 3.63959,1.28252 3.65692,1.24786 3.67425,1.21319 3.69159,1.17853 3.70891,1.1612 3.72625,1.12654 3.74358,1.09187 3.76091,1.05721 3.77824,1.02255 3.79557,0.987885 3.79557,0.935891 3.74358,0.935891 "/>
   <path id="_116902088" class="fil1" d="M2.82502 0.0173301l-0.0173301 0.0173338 -0.0173338 0.0173264 -0.0173338 0.0173338 -0.0173264 0.0346639 0 0.155982 0 0.051994 -0.0173301 0.0346639 0 0.0346602 -0.0346676 0 -0.0173264 0.0173338 -0.103992 0 -0.0346639 -0.0173338 -0.0346602 -0.0173338 -0.0346639 -0.0173264 -0.0346602 -0.0173338 -0.0346639 -0.0173301 -0.0346602 -0.0173338 -0.0346676 -0.0173338 -0.0346639 -0.0173264 -0.0346602 -0.0173301 -0.0346639 -0.0173338 -0.0346602 -0.0173338 -0.0346639 -0.0173264 -0.0346602 -0.0173338 -0.0346676 -0.0173301 -0.0173301 -0.0173338 -0.0346602 -0.0173338 -0.0346676 -0.0173264 -0.0519903 0 -0.0173338 0.0346602 -0.0173301 0.0346639 -0.0173301 0.0346602 -0.0173301 0.0346676 -0.0173338 0.0346565 -0.0173338 0.0346676 -0.0173301 0.0173301 -0.0173301 0.0346602 -0.0173301 0.0346676 -0.0173338 0.0346602 -0.0173338 0.0346639 -0.0173264 0.0346639 0 0.0173301c0.0518501,0.0347229 0.121318,0.0877571 0.121318,0.173312l0 0.0346676c0,0.0928698 -0.0693241,0.12331 -0.0693241,0.2773l0 0.0519903c0.0973259,0.0651741 0.204637,0.28795 0.279904,0.396025 0.0597589,0.0858057 0.405066,0.116508 0.517339,0.175913l0.138652 -0.0693241 0.0173301 -0.0173338 0.0173264 -0.0173301 0.0173338 -0.0173301 0.0173338 -0.0173301 0.0173301 -0.0173338 0.0346602 -0.0173338 0.138655 0 0.0346602 0.0173338 0.0173338 0.0173338 0.0173301 0.0346602 0.0173301 0.0346639 0.0173301 0.0346639 0.0173338 0.0173264 0.0173338 0.0173338 0.0173301 0.0173338 0.0346602 0.0173301 0.0866578 0 0.051994 -0.0173301 0.0173301 -0.0173338 0.0173338 -0.0173338 0.0173338 -0.0173264 0.0173264 -0.0346639 0.0173338 -0.0346639 0.0173301 -0.0346602 0.0173338 -0.0346676 0.0173338 -0.0346602 0.0173264 -0.0346639 0.0173301 -0.0346602 0.0173338 -0.0346639 0.0173338 -0.0346602 0.0173264 -0.0346639 0.0173338 -0.0346676 0.0173301 -0.0346602 0.0173338 -0.0346639 0.0173338 -0.0346602 0.0173264 -0.0346639 0.0173338 -0.0346602 0.0173301 -0.0173338 0 -0.0519903 -0.0173301 -0.0173338 -0.0346602 -0.0173338 -0.0346676 -0.0173301 -0.0346639 -0.0173338 -0.0346602 -0.0173264 -0.0346639 -0.0173338 -0.0346602 -0.0173338 -0.0346639 -0.0173301 -0.0346602 -0.0173301 -0.0346676 -0.0173301 -0.0173301 -0.0173338 -0.0346602 -0.0173301 -0.0346676 -0.0173338 -0.0346565 -0.0173264 -0.0346676 -0.0173338 -0.0346602 -0.0173338 -0.0346639 -0.0173301 -0.0346639 -0.0173301 -0.0173301 -0.0173301 -0.0173301 -0.0173338 -0.0173338 -0.0173338 0 -0.103984 0.0173338 -0.0346639 0.0173301 -0.0173338 0.0346602 -0.0173301 0.0346676 -0.0173301 0.0346602 -0.0173301 0.0173301 -0.0173338 0.0173338 -0.0173338 0.0173338 -0.0173264 0.0173264 -0.0519977 0 -0.121318 -0.0173264 -0.0346639 -0.0173338 -0.0173338 -0.0173338 -0.0346602 -0.0173301 -0.0173301 -0.0173301 -0.0173338 -0.0346639 -0.0173264 -0.0173338 -0.0173338 -0.0346602 -0.0173301 -0.20798 0 -0.0346602 0.0173301z"/>
   <path id="_116904872" class="fil2" d="M1.55983 0.51994l-0.0173338 0.0173301 -0.0173338 0.0173338 -0.0173264 0.0173301 -0.0173338 0.0173301 -0.0173301 0.0346639 -0.0173338 0.0346639 -0.0173264 0.051994 -0.0173338 0.051994 -0.0173301 0.0693241 -0.0173338 0.0519977 -0.0173338 0.0519903 -0.0173264 0.051994 0 0.0519977c-0.0574313,0.0384523 -0.20798,0.255137 -0.20798,0.346624l0 0.0173338c0,0.127441 0.121019,0.24264 0.24264,0.24264l0.0519977 0c0.111639,0 0.245867,-0.135236 0.291738,-0.210868 0.0722862,-0.119193 0.0260984,-0.357705 0.0722198,-0.430393 0,-0.15399 0.0693241,-0.18443 0.0693241,-0.2773l0 -0.0346676c0,-0.0855549 -0.0694679,-0.138589 -0.121318,-0.173312l-0.0173301 -0.0173301 -0.121325 0 -0.0519903 0.0173301z"/>
   <polygon id="_116906264" class="fil3" points="2.59971,1.62915 2.58238,1.69847 2.70369,1.7158 2.72103,1.7158 2.77302,1.69847 2.79035,1.68114 2.79035,1.59449 2.77302,1.57715 2.75569,1.55982 2.73836,1.55982 "/>
   <path id="_116904584" class="fil4" d="M1.31719 1.00522l-0.0173338 0.0173301 -0.0173264 0.0173338 -0.0173338 0.0173264 -0.0173338 0.0173338 -0.0173301 0.0173301 -0.0173338 0.0173338 -0.0173264 0.0173338 -0.0173338 0.0173264 -0.0173301 0.0346639 -0.0173338 0.0173338 -0.0173264 0.0173264 -0.0173338 0.0173338 -0.0173338 0.0346639 -0.0173301 0.0173338 -0.0173338 0.0346602 -0.0173264 0.0173301 -0.0173338 0.0346602 -0.0173338 0.0173338 -0.0173301 0.0346639 -0.0173264 0.0346602 -0.0173338 0.0346676 -0.0173338 0.0346602 0 0.103988 0.0173338 0.0173338 0.0346602 0.0173301 0.0519977 0.0173301 0.0693241 0.0173301 0.0716923 0.000309861 -0.0196983 0.0690179 -0.0173338 0.051994 -0.0173264 0.051994 -0.0173338 0.051994 -0.0173338 0.0519977 -0.0173301 0.0519903 -0.0173338 0.051994 0 0.0693241 0.589271 0.0519977 0 -0.103992c-0.116464,-0.242721 0.140271,-0.556441 0.155982,-0.745246 0.0587777,0.0676198 0.187385,0.277728 0.2625,0.292096 0.0824489,0.0157771 0.44952,0.0545282 0.517409,0.0545282l0.0173338 -0.0693241c-0.112273,-0.0594048 -0.45758,-0.0901069 -0.517339,-0.175913 -0.0752668,-0.108075 -0.182578,-0.330851 -0.279904,-0.396025l0 -0.0519903c-0.0461214,0.0726883 6.63988e-005,0.3112 -0.0722198,0.430393 -0.0458705,0.0756319 -0.180099,0.210868 -0.291738,0.210868l-0.0519977 0c-0.121621,0 -0.24264,-0.115198 -0.24264,-0.24264l0 -0.0173338c0,-0.0914865 0.150548,-0.308172 0.20798,-0.346624l0 -0.0519977 -0.0173338 0 -0.0173301 0.0173338z"/>
   <path id="_116899904" class="fil1" d="M1.64648 2.09709l0.0173301 0.0173338 0.0346602 0.0173338 0.0346676 0.0173264 0.0346565 0.0173338 0.0346676 0.0173301 0.0346602 0.0173338 0.0173301 0.0173338 0.0346676 0.0173264 0.0346602 0.0173338 0.0346639 0.0173301 0.0346602 0.0173338 0.0346639 0.0173264 0.0346639 0.0173338 0.0346602 0.0173301 0.0346676 0.0173338 0.0346602 0.0173338 0.0346639 0.0173264 0.0346602 0.0173338 0.0346639 0.0173301 0.0346602 0.0173338 0.0346639 0.0173264 0.0346676 0.0173338 0.0346602 0.0173338 0.0346639 0.0173301 0.0346602 0.0173338 0.0173301 0.0173264 0.0346676 0.0173338 0.0346602 0.0173301 0.0346639 0.0173338 0.0346602 0.0173264 0.0346639 0.0173338 0.0346602 0.0173338 0.0346676 0.0173301 0.0346565 0.0173338 0.0346676 0 0.0173301 -0.0173338 0.0173338 0 0.0346602 0 0 -0.0173301c-0.00905606,-0.0388728 -0.0173338,-0.0398504 -0.0173338,-0.0866578l0 -0.0866578c0,-0.0636248 0.0268546,-0.0837732 0.0519977,-0.121318l0.0693277 0 0.0173301 -0.0173338 0.0173264 -0.0346639 0.0173338 -0.0346602 0.0173338 -0.0346639 0.0173301 -0.0346602 0.0173301 -0.0346639 0.0173301 -0.0346602 0.0173338 -0.0346676 0 -0.155982 -0.0173338 -0.0173301 -0.0173301 -0.0173301 -0.0173301 -0.0173301 -0.0173301 -0.0173338 -0.155982 0 -0.0693277 0 -0.0346639 -0.0173338 -0.0173338 -0.0173301 -0.0173264 -0.0173301 -0.0173301 -0.0173301 -0.0173338 -0.0346639 -0.0173338 -0.051994 -0.121318 -0.0173338c-0.0678891,0 -0.43496,-0.0387511 -0.517409,-0.0545282 -0.0751155,-0.014368 -0.203723,-0.224476 -0.2625,-0.292096 -0.0157107,0.188805 -0.272445,0.502525 -0.155982,0.745246z"/>
   <path id="_116931080" class="fil3" d="M2.87701 2.6517l0.121322 -0.0346676 0.0173264 -0.0693241 0 -0.190642 -0.0346565 0 -0.0693277 0c-0.025143,0.0375448 -0.0519977,0.0576932 -0.0519977,0.121318l0 0.0866578c0,0.0468075 0.00827772,0.047785 0.0173338,0.0866578z"/>
   <path id="_116904608" class="fil5" d="M1.02255 2.25308l-0.0173338 0.103988 -0.0173301 0.103984 -0.0173264 0.103992 -0.0173338 0.103988 -0.0173338 0.0866578 -0.0173301 0.0866578 -0.0173338 0.051994 -0.0346602 0.0173301 -0.0866578 0.0173301 -0.502613 0 -0.0519903 0 0.0693241 0.121322 0.0346639 0.0173301 0.0693277 0.0173301 0.0693241 0.0173301 0.0866578 0.0173338 0.0866578 0.0173338 0.103984 0.0173301 0.294637 0 0.0346602 -0.0173301 0.0173301 -0.0173338 0.0173338 -0.0173338 0.0173338 -0.0346602 0.0173264 -0.051994 0.0173338 -0.051994 0.0173301 -0.0693241 0.0173338 -0.051994 0.0173264 -0.0519977 0.0173338 -0.0693241 0.0173301 -0.051994 0.0173338 -0.0693241 0.0173338 -0.0519977 0.000863185 -0.0545909 0.033797 0.0199307 0.0173301 0.051994 0.0173338 0.155982 0 0.311964 -0.0173338 0.138652 -0.0173301 0.0866578 -0.0173338 0.0866542 -0.0173264 0.0866578 -0.0173338 0.103992 -0.0173338 0.0866578 -0.0173301 0.103984 -0.0173338 0.103988 -0.0173264 0.121318 0 0.0346676c0.0211406,0.011878 0.0185363,0.0173301 0.0519903,0.0173301l0.0667271 -0.000870562 0.0199307 -0.0337933 0.0173338 -0.0346602 0.0173264 -0.0519977 0.0173338 -0.051994 0.0173338 -0.0519903 0.0173301 -0.0519977 0.0173338 -0.051994 0.0173264 -0.0693241 0.0173338 -0.0519977 0.0173301 -0.0519903 0.0173338 -0.0693277 0.0173264 -0.0519903 0.0173338 -0.0693277 0.0173338 -0.0693277 0.0173301 -0.0693241 0.0173338 -0.155982 0.0173264 -0.190646 0.0173338 -0.20798 0.0173338 -0.207972 0 -0.207976 -0.589271 -0.0519977 -0.0173264 0 -0.0173338 0.103992z"/>
   <polygon id="_81272944" class="fil6" points="3.11965,2.27041 3.08499,2.28774 3.06766,2.30507 3.05032,2.3224 3.03299,2.33973 3.01566,2.35707 3.01566,2.54771 3.01566,2.56504 3.03299,2.58237 3.05032,2.59971 3.06766,2.61703 3.08499,2.66903 3.08499,2.72102 3.06766,2.75569 3.06766,2.79035 3.03299,2.79035 3.05032,3.06765 3.18897,2.79035 3.18774,2.7138 3.41428,2.66903 3.43161,2.63437 3.44895,2.61703 3.46628,2.58237 3.48361,2.56504 3.50094,2.53038 3.50094,2.39173 3.48361,2.35707 3.46628,2.3224 3.43161,2.30507 3.41428,2.28774 3.37962,2.27041 3.32762,2.25308 3.17164,2.25308 "/>
   <path id="_116965656" class="fil2" d="M3.18897 2.79035l0 0.121322c0.023911,0.0357078 0.051994,0.0449889 0.051994,0.0866578 0,0.0610832 -0.0693241,0.0697962 -0.0693241,0.103984 0,0.085304 0.0981633,0.153927 0.190646,0.155986 0.067808,-0.0454057 0.259974,-0.229559 0.259974,-0.329298 0,-0.0652737 -0.0114095,-0.0327715 -0.0173338,-0.103988l0 -0.0173301 -0.0173338 -0.0173338 -0.0173301 -0.0173301 -0.0173338 -0.0346602 -0.0346602 -0.0173338 -0.0173338 -0.0173338 -0.0346565 -0.0173264 -0.0346676 -0.0173338 -0.0173301 0 -0.226538 0.0447749 0.00122838 0.0765431z"/>
   <polygon id="_116931320" class="fil7" points="0.173316,2.94633 0.173316,3.05032 0.190649,3.11965 0.207976,3.17164 0.22531,3.22364 0.24264,3.27563 0.259974,3.29296 0.2773,3.31029 0.311967,3.31029 0.311967,3.11965 0.294634,3.05032 0.22531,2.929 0.190649,2.929 "/>
   <polygon id="_60364832" class="fil3" points="1.90645,3.08498 1.88912,3.11965 1.88912,3.18897 1.90645,3.22364 1.92378,3.24096 1.94111,3.2583 1.95845,3.27563 1.97578,3.29296 2.01044,3.31029 2.02777,3.32762 2.07977,3.34495 2.11443,3.34495 2.11422,3.29283 2.14909,3.22364 2.13176,3.2063 2.11443,3.18897 2.0971,3.15431 2.07977,3.13698 2.06244,3.10231 2.04511,3.08498 2.01044,3.06765 1.92378,3.06765 "/>
   <path id="_81268296" class="fil8" d="M2.87701 2.6517l0 0.0173301 0 0.155982c0.0777051,0.161947 -0.0474973,0.241954 0.138648,0.51994l0.121325 -0.0173301c-0.0806303,-0.070084 -0.0866578,-0.10889 -0.0866578,-0.25997l-0.0173338 -0.277304 0 -0.0346602 -0.0173338 -0.138655 -0.0173264 0 -0.121322 0.0346676z"/>
   <path id="_116903624" class="fil3" d="M3.05032 3.06765c0,0.151079 0.00602754,0.189886 0.0866578,0.25997l0.24264 0.0173301 -0.0173338 -0.0866542c-0.0924825,-0.00205836 -0.190646,-0.0706815 -0.190646,-0.155986 0,-0.034188 0.0693241,-0.042901 0.0693241,-0.103984 0,-0.0416689 -0.028083,-0.05095 -0.051994,-0.0866578l0 -0.121322 -0.138648 0.277304z"/>
   <path id="_116965392" class="fil6" d="M2.28775 3.29296c0.026032,0.0719284 0.263898,0.207976 0.363958,0.207976l0.0866578 0c0.0869751,0 0.240353,-0.100808 0.277296,-0.155986 -0.186145,-0.277986 -0.0609431,-0.357993 -0.138648,-0.51994l-0.589264 0 0 0.467949z"/>
   <path id="_116965464" class="fil5" d="M2.11443 3.34495l0 0.0173338 0.0173338 0.0173338 0.0173264 0.0173264 0.0173338 0.0173338 0.0173301 0.0173301 0.0346676 0.0173338 0.0173264 0.0173338 0.0173301 0.0173264 0.0346676 0.0173338c0.128873,0.0300196 0.195629,0.173312 0.398622,0.173312 0.100849,0 0.176326,-0.0498397 0.259966,-0.0693241l0.00872776 0.191413 -0.0780518 0.83114 -0.0346602 0 0 0.0346602 0.0346602 0 0 0.0346639 0.641261 0 0.0693241 -1.10921c0.0146077,-0.19325 -0.104508,-0.192996 -0.207972,-0.24264l-0.24264 -0.0173301 -0.121325 0.0173301c-0.0369436,0.0551774 -0.190321,0.155986 -0.277296,0.155986l-0.0866578 0c-0.100059,0 -0.337926,-0.136047 -0.363958,-0.207976l-0.0346676 -0.0173338 -0.0173301 -0.0173301 -0.0173264 -0.0173338 -0.0346676 -0.0173264 -0.0346639 0 -0.0348704 0.0691913 0.000210263 0.0521231z"/>
   <path id="_116903768" class="fil6" d="M4.19419 1.64648l0.0173338 0.0346602 0.0173338 0.0173301 0.0173301 0.0173338 0.0173264 0.0173338 0.0346676 0.0173301 0.103988 0 0.0346602 -0.0173301 0.0173338 -0.0173338 0.0173338 -0.0173338 0.0346565 -0.0173301 0.0346676 -0.0173301 0.0693241 0 0.051994 0.0173301 0.0173301 0.0173301 0.0173338 0.0173338 0.0173338 0.0173338 0.0173264 0.0173301 0.0173338 0.051994 0 0.173316 -0.0173338 0.0346602 -0.0173264 0.0346639 -0.0173338 0.0173301 -0.0173338 0.0173301 -0.0346639 0.0173301 -0.121318 0 -0.0346639 -0.0173301 -0.0173264 -0.0173301 -0.0173338 -0.0173301 -0.0346639 -0.0173338 -0.138652 0 -0.0346602 0.0173338 -0.0173301 0.0173301 -0.0173338 0.0346602 -0.0173338 0.0346676 0 0.693252 -0.589264 0c0.00592425,0.0712164 0.0173338,0.0387142 0.0173338,0.103988 0,0.0997384 -0.192166,0.283892 -0.259974,0.329298l0.0173338 0.0866542c0.103464,0.0496442 0.22258,0.0493897 0.207972,0.24264l-0.0693241 1.10921 0 0.051994 0.693255 0c0,-0.2434 0.0884063,-0.814573 -0.155982,-0.814573l-0.0173338 0c-0.0608582,0 -0.114958,0.103984 -0.207976,0.103984 -0.0949577,0 -0.190646,-0.0943564 -0.190646,-0.190642l0 -0.103988c0,-0.0907082 0.0774358,-0.190649 0.173316,-0.190649l0.0346639 0c0.111886,0 0.104268,0.0866578 0.173308,0.0866578l0.0519977 0c0.0894281,0 0.138652,-0.0721608 0.138652,-0.155982l0 -0.641258 0.658595 0c0.0633334,0 0.138648,0.0478256 0.138648,0.103984l0 0.0693277c0,0.051673 -0.0866578,0.0968796 -0.0866578,0.155982l0 0.0866578c0,0.0825596 0.137132,0.155982 0.22531,0.155982 0.111594,0 0.24264,-0.0588515 0.24264,-0.173316l0 -0.051994c0,-0.111882 -0.0866578,-0.104268 -0.0866578,-0.173312l0 -0.0346602c0,-0.225859 0.58857,-0.138652 0.814577,-0.138652l0 -1.7158 -0.0173338 -0.0519977 -0.0173338 -0.0173338 -0.0173301 -0.0346602 -0.0173338 -0.0173301 -0.0173264 -0.0173338 -0.0173338 -0.0173264 -0.0346639 -0.0173338 -0.0346602 -0.0173338 -0.0519977 -0.0173301 -1.69847 0 0 0.727919z"/>
   <path id="_117208088" class="fil7" d="M1.19587 3.98622l0 0.0519903c0.0340515,0.0180199 0.0511086,0.0346639 0.103984,0.0346639l0.225306 0c0.0488105,0 0.0320928,-0.00749569 0.0519977,-0.0346639l0 -0.0173301 -0.0346639 -0.0173301 -0.0693241 -0.0173301 -0.103992 -0.0173338 -0.0346602 0 -0.0199307 0.0337933 -0.0667271 0.000870562c-0.0334539,0 -0.0308496,-0.00545208 -0.0519903,-0.0173301z"/>
   <polygon id="_115799920" class="fil0" points="6.20463,4.28085 6.2393,4.28085 6.2393,3.62226 6.20463,3.62226 "/>
   <path id="_116985912" class="fil6" d="M2.28775 4.52349l0.0173264 0.0693241 0.0173338 0.0346676 0.0173301 0.0173264 0.0173338 0.0173338 0.0173338 0.0173301 0.0173264 0.0173338 0.0173338 0.0173338 0.0346639 0.0173264 0.0346602 0.0173338 0.381288 0 0.0173338 -0.051994 0 -0.0346639 -0.0346602 0 0 -0.0346602 0.0346602 0 0.0780518 -0.83114 -0.00872776 -0.191413c-0.0836404,0.0194844 -0.159117,0.0693241 -0.259966,0.0693241 -0.202992,0 -0.269749,-0.143292 -0.398622,-0.173312l0 1.02255z"/>
   <path id="_116985936" class="fil1" d="M4.21153 4.7488l1.7158 0 0.051994 -0.0173338 0.0173338 -0.0173264 0.0173301 -0.0173338 0.0346602 -0.0173338 0.0173338 -0.0346639 0.0173301 -0.0173264 0.0173338 -0.0346676 0.0173338 -0.0519903 0 -1.69847c-0.226007,0 -0.814577,-0.0872075 -0.814577,0.138652l0 0.0346602c0,0.0690437 0.0866578,0.06143 0.0866578,0.173312l0 0.051994c0,0.114464 -0.131045,0.173316 -0.24264,0.173316 -0.0881776,0 -0.22531,-0.0734223 -0.22531,-0.155982l0 -0.0866578c0,-0.0591023 0.0866578,-0.104309 0.0866578,-0.155982l0 -0.0693277c0,-0.0561586 -0.0753147,-0.103984 -0.138648,-0.103984l-0.658595 0 0 0.641258c0,0.0838211 -0.0492237,0.155982 -0.138652,0.155982l-0.0519977 0c-0.06904,0 -0.0614226,-0.0866578 -0.173308,-0.0866578l-0.0346639 0c-0.0958799,0 -0.173316,0.0999413 -0.173316,0.190649l0 0.103988c0,0.0962857 0.0956881,0.190642 0.190646,0.190642 0.0930174,0 0.147118,-0.103984 0.207976,-0.103984l0.0173338 0c0.244388,0 0.155982,0.571174 0.155982,0.814573z"/>
   <path id="_115807384" class="fil4" d="M2.85968 4.7488l-0.0173264 0.103988 -0.0173338 0.121318 -0.0173301 0.121322 -0.0173338 0.121318 -0.0173338 0.138648 -0.0173264 0.138655 -0.0173301 0.138652 -0.0173338 0.398622 0 0.762579 0 0.0519903c0.0202996,0.0292118 0.00248627,0.0346676 0.0519903,0.0346676l0.0346676 0c0.0597479,0 0.0671071,-0.0128224 0.121318,-0.0173338l0 -0.0866578 0.0173301 -0.0693241 0.0173338 -0.190646 0.0173338 -0.22531 0.0173301 -0.259966 0.0173264 -0.277304 0.0173338 -0.103988 0.0173338 -0.103988 0.0173301 -0.0693241 0.0173301 -0.0693277 0.0173301 -0.0519977 0.0173338 -0.0519903 0.0173338 -0.051994 0.0173301 -0.0346639 0.0173301 -0.051994 0.0173301 -0.0519977 0.0346676 -0.0173264 0 0.762579 0.0173264 0.294634 0.0173301 0.190646 0.0173338 0.190642 0.0173338 0.138652 0.0173301 0.0866578 0.207976 0.0173301 0 -0.0519903 -0.0173338 -0.381292 0 -0.727919 0.0173338 -0.485279 0 -0.381288 0 -0.051994 -0.641261 0 -0.0173338 0.051994z"/>
   <path id="_116985984" class="fil1" d="M4.15953 5.51138l-0.0173301 0.0173301 -0.0173338 0.0346639 -0.0173338 0.051994 0 0.190646 0.0173338 0.051994 0.0173338 0.051994 0 0.103988 -0.0173338 0.0173338 -0.0173338 0 -0.0173264 -0.0346639 -0.0173338 -0.0173338 -0.0173301 -0.0346602 -0.0173338 -0.0173338 -0.0173338 -0.0173301 -0.0173264 -0.0173338 -0.0173301 -0.0173264 -0.051994 -0.0173338 -0.103992 0 -0.0519903 0.0173338 -0.0346639 0.0173264 -0.0173338 0.0173338 0 0.0173301c0.343975,0 0.335148,0.309544 0.519943,0.433282 0.0495557,-0.0262165 0.121318,-0.085245 0.121318,-0.155982 0,-0.281129 -0.138648,-0.405136 -0.138648,-0.710582l-0.0519977 0 -0.0173301 0.0173301z"/>
   <path id="_116979120" class="fil6" d="M4.22886 5.49405c0,0.305446 0.138648,0.429453 0.138648,0.710582 0,0.0707369 -0.0717624,0.129765 -0.121318,0.155982 -0.184795,-0.123738 -0.175968,-0.433282 -0.519943,-0.433282l-0.0173338 0 -0.0173264 0.0173338 0 0.103984 0.0173264 0.0173338 0.103992 0.0173301 0.0693241 0.0173338 0.0346639 0.0173338 0.0346602 0.0173264 0.0173338 0.0173338 0.0173338 0.0173301 0.0173301 0.0173338 0.0173264 0.0346602 0.0168616 0.0544433 -0.0515181 -0.0197795 -0.0693277 -0.0173301 -0.0866578 0 -0.0346639 0.0173301 -0.0173264 0.0173338 -0.0173338 0.0173264 -0.0173301 0.0173338 -0.0173338 0.0173301 0 0.0866578 0.0693241 0.0173338 0.0866578 0.0173264 0.0519977 0.0173338 0.0346602 0.0173338 0.0346639 0.0173301 0.0173264 0.0173301 0.0173338 0.0173301 0.346631 0 0.0173301 -0.0173301 0.0173301 -0.0173301 0.0173301 -0.0173301 0.0173338 -0.0173338 0.0173338 -0.0173338 0.0173264 -0.0173264 0.0346639 -0.0173338 0.051994 -0.0173301 0.20798 -0.0173338 0.0519903 -0.0173338 0 -0.0866505 -0.0173301 -0.0173338 -0.0173338 -0.0173301 -0.0173264 -0.0173338 -0.0173338 -0.0173338 -0.0346639 -0.0173264 -0.051994 -0.0173338 -0.138648 0 -0.0346676 0.0173338 -0.0173301 0.0173264 -0.0544433 0.0168616 0.0197832 -0.0515218 0.0173338 -0.0346639 0.0173264 -0.051994 0.0173301 -0.0346639 0.0173338 -0.0346602 0.0173338 -0.0346639 0.0173301 -0.051994 0 -0.24264 -0.0173301 -0.0346602 -0.0173338 -0.0346639 -0.0173338 -0.0173338 -0.0173301 -0.0173301 -0.0173264 -0.0173301 -0.0173338 -0.0173301 -0.0346639 -0.0173338 -0.0173301 -0.0173301 -0.0519977 -0.0173301 -0.0693241 -0.0173301 -0.0346602 0 -0.0173301 0.0173301z"/>
   <path id="_115807360" class="fil9" d="M3.20631 6.77656c-0.00969792,0.0139585 -0.0346639,0.0427904 -0.0346639,0.051994 0,0.0242872 0.0236306,0.0346639 0.0519977,0.0346639l0.24264 0c0.0479436,0 0.04168,-0.013372 0.0519903,-0.051994l0 -0.0346639 -0.207976 -0.0173301 -0.0519977 0 -0.0519903 0.0173301z"/>
   <path id="_116986056" class="fil9" d="M2.929 6.86322c-0.0542109,0.00451143 -0.0615702,0.0173338 -0.121318,0.0173338l-0.0346676 0c-0.049504,0 -0.0316907,-0.00545577 -0.0519903,-0.0346676l-0.24264 0.0519977c0.0257037,0.0350807 0.0397876,0.051994 0.103988,0.051994l0.294634 0c0.0576416,0 0.0507582,-0.0311189 0.051994,-0.0866578z"/>
   <path id="_116986104" class="fil6" d="M2.929 6.86322c-0.00123576,0.0555389 0.00564759,0.0866578 -0.051994,0.0866578l-0.294634 0c-0.0642003,0 -0.0782842,-0.0169133 -0.103988,-0.051994l0.24264 -0.0519977 0 -0.0519903 -0.173316 0 -0.121318 0.0173301 -0.0693241 0.0173301 0.0173338 0.138655 0.0866505 0.0173264 0.173316 0.0173338 0.762579 0 0.173316 -0.0173338 0.103988 -0.0173264 0.0693277 -0.0173338 0.0346639 -0.0173338 0.0173264 -0.0173301 0 -0.0346602 -0.0173264 -0.0173338 -0.0173338 -0.0173338 -0.0519977 -0.0173301 -0.103984 -0.0173301 -0.0866578 0c-0.0103103,0.038622 -0.00404664,0.051994 -0.0519903,0.051994l-0.24264 0c-0.0283671,0 -0.0519977,-0.0103767 -0.0519977,-0.0346639 0,-0.00920361 0.024966,-0.0380355 0.0346639,-0.051994l-0.277304 0 0 0.0866578z"/>
   <path id="_115799416" class="fil0" d="M3.83023 6.55126l-0.0173301 0.0346639 0 0.346624 0.0173301 0.0693277 0.0173338 0.0346639 0.0173264 0.0346602 0.0173338 0.0173301 0.0173338 0.0173338 0.0173301 0.0173338 0.0173338 0.0173264 0.0173264 0.0173338 0.0173338 0.0173301 0.0346639 0.0173338c0.0620349,0.0144528 0.0814308,0.0346602 0.155982,0.0346602l0.0693277 0c0.0745437,0 0.0939396,-0.0202074 0.155982,-0.0346602l0.0346602 -0.0173338 0.0173301 -0.0173301 0.0173338 -0.0173338 0.0173338 -0.0173264 0.0173264 -0.0173338 0.0173301 -0.0173338 0.0173338 -0.0173301 0.0173338 -0.0346602 0.0173301 -0.0346639 0.0173301 -0.0693277 0 -0.346624 -0.0173301 -0.0173338 -0.0173301 -0.0173301 -0.0173338 -0.0173338 -0.138648 0 -0.346631 0 -0.173316 0 -0.0346602 0.0173338z"/>
   <path id="_116979000" class="fil10" d="M0.450616 6.22196l0.0173338 -0.138652 0.0173301 -0.138648 0.0173338 -0.138652 0.0173264 -0.138652 0.0173338 -0.155982 0.0173338 -0.138652 0 -0.0346602 1.52516 0 0 0.0693241 0.0173301 0.138652 0.0173338 0.155982 0.0173338 0.138648 0.0173264 0.138652 0.0173338 0.138655 0.0173301 0.138648 0.0173338 0.0346602 -1.77017 -0.000309861 0.0196983 -0.0690142zm0.121322 -0.987885l0.0173301 -0.138652 0.0173301 -0.138655 0.0173338 -0.138648 0.0173338 -0.138652 0.0173301 -0.138648 0.0173301 -0.155982 0.0173301 -0.138652 0 -0.0519977 1.24786 0 0 0.0866578 0.0173338 0.138652 0.0173338 0.155982 0.0173264 0.138655 0.0173301 0.138648 0.0173338 0.138652 0.0173338 0.138648 0.0173264 0.122012 -1.49049 -0.0180199zm0.051994 -1.17853l-0.0173338 0.0346639 -0.0173301 0.138652 -0.0173301 0.138648 -0.0173301 0.138652 -0.0173338 0.155982 -0.0173338 0.138648 -0.0173264 0.138655 -0.0173338 0.138648 -0.0173301 0.138652 -0.0173338 0.138648 -0.0173301 0.138655 -0.0173301 0.138652 -0.0173301 0.138648 -0.0173338 0.155982 -0.0173338 0.138652 -0.0173264 0.138648 -0.0173338 0.138655 -0.0173301 0.138652 -0.0173338 0.138648 -0.0173338 0.138652 -0.0173264 0.138652 -0.0173338 0.155986 0 0.103984 0 0.0866578 0.0693277 0 0 -0.051994c0,-0.066266 -0.00532297,-0.00630789 0.0173301,-0.0519977l0.0173338 -0.0693241 0.0173264 -0.138652 0.0173338 -0.155982 0.0173338 -0.138648 0.0173301 -0.138652 0 -0.121632 1.78513 0.0176436 0.0173338 0.138648 0.0173264 0.138652 0.0173301 0.138652 0 0.051994 -0.0173301 0.0173338 0 0.0346602 0.0173301 0.0173301 0.0173338 0.0346676 0.0173338 0.138648 0.0173264 0.0346602c0.0018813,0.0843966 -0.000490614,0.102051 0.0866578,0.103992l0 -0.0866578 0 -0.0866578 -0.0173264 -0.103984 -0.0173338 -0.138655 0 -0.0346602 -0.0173338 -0.138652 -0.0173301 -0.138652 -0.0173338 -0.138652 -0.0173264 -0.138648 -0.0173338 -0.138652 -0.0173338 -0.138648 -0.0173301 -0.155986 -0.0173264 -0.138652 -0.0173338 -0.138652 -0.0173338 -0.138648 -0.0173301 -0.138652 -0.0173338 -0.138655 -0.0173264 -0.138648 -0.0173338 -0.138652 -0.0173338 -0.155982 -0.0173301 -0.138648 -0.0173301 -0.138652 -0.0173301 -0.138652 -0.0173338 -0.138652 -0.0173338 -0.051994 -0.0173301 -0.0173301 -0.0173264 -0.0173338 -0.398625 0c-0.0199049,0.0271682 -0.00318714,0.0346639 -0.0519977,0.0346639l-0.225306 0c-0.0528756,0 -0.0699327,-0.016644 -0.103984,-0.0346639l-0.537273 0 -0.0346639 0.0173338z"/>
   <path id="_116986176" class="fil6" d="M3.88223 7.20985l0 0.0346602 0.0519977 0.0173301 0.51994 0 0.0519903 -0.0173301 0 -0.0346602 -0.0693241 -0.0173338 -0.0519903 0c-0.0620423,0.0144528 -0.0814382,0.0346602 -0.155982,0.0346602l-0.0693277 0c-0.0745511,0 -0.093947,-0.0202074 -0.155982,-0.0346602l-0.0519977 0 -0.0693241 0.0173338z"/>
   <path id="_115807720" class="fil6" d="M0.537273 7.1232l-0.207976 0.0173264c-0.0226531,0.0456898 -0.0173301,-0.0142684 -0.0173301,0.0519977l0 0.051994 -0.0693277 0 0 -0.0866578 -0.0866542 0 -0.103992 0.0173301 -0.051994 0.0173338 0 0.051994 0.0173338 0.0173301 0.0693241 0.0173338 0.103992 0.0173264 0.173308 0.0173338 0.277307 0.0173301 1.35184 0 0.277304 -0.0173301 0.173316 -0.0173338 0.103984 -0.0173264 0.0693241 -0.0173338 0.0173338 -0.0173301 0 -0.0346602 -0.0173338 -0.0173338 -0.0519903 -0.0173338 -0.0866578 -0.0173301 -0.0866578 0 0 0.0866578c-0.0871485,-0.00194032 -0.0847765,-0.019595 -0.0866578,-0.103992l-0.225306 -0.0173264 -0.485276 -0.0173338 -0.571937 0 -0.485279 0.0173338z"/>
  </g>
 </g>
</svg>
