<?xml version="1.0" encoding="UTF-8"?>
<!DOCTYPE svg PUBLIC "-//W3C//DTD SVG 1.1//EN" "http://www.w3.org/Graphics/SVG/1.1/DTD/svg11.dtd">
<!-- Creator: CorelDRAW -->
<svg xmlns="http://www.w3.org/2000/svg" xml:space="preserve" width="7.91336in" height="5.37449in" style="shape-rendering:geometricPrecision; text-rendering:geometricPrecision; image-rendering:optimizeQuality; fill-rule:evenodd; clip-rule:evenodd"
viewBox="0 0 8.25352 5.60551"
 xmlns:xlink="http://www.w3.org/1999/xlink">
 <defs>
  <style type="text/css">
   <![CDATA[
    .fil0 {fill:#2C034D}
    .fil1 {fill:#FE6500}
   ]]>
  </style>
 </defs>
 <g id="Layer_x0020_1">
  <metadata id="CorelCorpID_0Corel-Layer"/>
  <g id="_122846616">
   <polygon id="_116872456" class="fil0" points="7.53134,0.0343898 7.49695,0.0687755 7.46257,0.103169 7.42817,0.137559 7.39378,0.171949 7.35939,0.206335 7.32501,0.275118 7.29061,0.378288 7.29061,0.584622 7.32501,0.653406 7.35939,0.722181 7.39378,0.790961 7.42817,0.825351 7.46257,0.85974 7.53134,0.894134 7.56573,0.92852 7.6689,0.96291 7.90963,0.96291 7.97841,0.92852 8.04719,0.894134 8.08157,0.85974 8.15036,0.825351 8.18475,0.756575 8.21913,0.722181 8.25352,0.653406 8.25352,0.275118 8.21913,0.240728 8.18475,0.171949 8.15036,0.137559 8.11596,0.103169 8.08157,0.0687755 8.0128,0.0343898 7.94402,0 7.63451,0 "/>
   <path id="_122854800" class="fil1" d="M6.46526 2.9919l0.0687755 0.0343939 0.0343939 0.0343857 0.0343898 0.0343898 0 0.240728 0 0.0687755 -0.0687837 0 -0.0343898 0.0343939 -4.26432 0 0 -0.447067 4.22993 0zm0 -1.27241l0.0687755 0.0343857 0.0343939 0.0343898 0.0343898 0.0343939 0 0.240728 -0.0343898 0.0687755 -0.0687837 0.0343898 -4.26432 0 0 -0.447063 4.22993 0zm-4.81456 -0.756575l-0.0343857 0.0343939 -0.0343898 0.0343816 -0.0343939 0.0343939 -0.0343857 0.0343898 -0.0343898 0.0343857 0 2.88873 0.0343898 0.0687837 0.0343857 0.0343857 0.0343939 0.0343898 0.0343898 0.0343939 0.0687755 0.0343898 4.91773 0 0.103169 -0.0343898 0.103169 -0.0343939 0.0343898 -0.0343898 0.0687755 -0.0343857 0.0687755 -0.0343939 0.0343939 -0.0343898 0.0343898 -0.0343857 0.0343939 -0.0343898 0.0343857 -0.0343939 0.0343898 -0.0343898 0.0343898 -0.0343857 0.0343939 -0.0687837 0.0343857 -0.0343857 0.0343898 -0.0687796 0.0343939 -0.0687796 0.0343816 -0.103165 0.0343939 -0.171953 0 -0.240728 -0.0343939 -0.137559 -0.0343816 -0.103169 -0.0343939 -0.0687755 -0.0343898 -0.0687837 -0.0343857 -0.0687755 -0.0343939 -0.0343898 0 -0.0343939 0.0343939 -0.0687755 0.0343857 -0.0343939 0.0343898 -0.0687755 0.0343939 -0.0687837 0.0343816 -0.103165 0.0343939 -0.171945 0 -0.240728 -0.0343939 -0.171953 -0.0343816 -0.103165 -0.0343939 -0.0687796 -0.0343898 -0.0687837 -0.0343857 -0.0343898 -0.0343939 -0.0343857 -0.0343898 -0.0687837 -0.0343898 -0.0343857 -0.0343857 -0.0343898 -0.0343939 -0.0343898 -0.0687837 -0.0343939 -0.0343816 -0.0343857 -0.0343939 -0.0343898 -0.0687755 -0.0343939 -0.0687837 -0.0343816 -0.103169 -0.0343939 -0.103165 -0.0343898 -4.84895 0 -0.0687837 0.0343898z"/>
   <polygon id="_122844864" class="fil1" points="0.171949,0.96291 0.137559,0.997304 0.103165,1.03169 0.0687755,1.06608 0.0343898,1.10047 0,1.16925 0,4.02359 0.0343898,4.05798 0.0687755,4.12676 0.103165,4.16115 0.171949,4.19554 0.206335,4.22993 0.515847,4.22993 0.584622,4.19554 0.619012,4.16115 0.653406,4.12676 0.687792,4.09237 0.722181,4.05798 0.756571,3.95481 0.756571,1.20364 0.722181,1.13485 0.687792,1.06608 0.653406,1.03169 0.619012,0.997304 0.550228,0.96291 0.481453,0.92852 0.240724,0.92852 "/>
   <path id="_120402168" class="fil0" d="M4.05799 5.3304l1.03169 0 0 0.0687837 -1.03169 0 0 -0.0687837zm-0.206343 -0.481457l0 0.103169 0.0343898 0.0343898 0.0343939 0.0343939 1.17441 0.00172052 -0.0395513 0.0670549 -1.16925 0.0343898 -0.0343898 0.0343939 0 0.309504 0.0343898 0.0687837 0.0343939 0.0343857 0.0343816 0.0343898 1.20364 0 0.0343898 -0.0343898 0.0343898 -0.0343857 0.0343939 -0.0343939 0.0343857 -0.0687796 0 -0.137555 -0.0343857 -0.0687837 0 -0.0343898 0.0343857 -0.0687796 0 -0.137559 -0.0343857 -0.0687755 -0.0343939 -0.0343898 -0.0343898 -0.0343939 -0.0343898 -0.0343857 -1.27242 0 -0.0343898 0.0343857z"/>
   <polygon id="_122852760" class="fil0" points="0,4.84894 0,5.57112 0.0343898,5.60551 0.206335,5.60551 0.206335,4.84894 0.171949,4.81455 0.0343898,4.81455 "/>
   <polygon id="_122837328" class="fil0" points="0.412677,4.84894 0.378284,4.88333 0.343894,4.95211 0.343894,5.57112 0.378284,5.60551 0.550228,5.60551 0.584622,5.53674 0.586343,5.05012 0.653406,5.08967 0.687792,5.12406 0.756571,5.15845 0.790957,5.19284 0.85974,5.22723 0.928516,5.26162 0.96291,5.29601 1.03169,5.3304 1.10047,5.36479 1.13486,5.39918 1.20364,5.43357 1.23803,5.46796 1.3068,5.50234 1.37559,5.53674 1.40997,5.57112 1.47876,5.60551 1.71949,5.60551 1.75387,5.57112 1.78826,5.50234 1.78826,4.84894 1.75387,4.81455 1.61632,4.81455 1.58193,4.84894 1.58099,5.36965 1.47876,5.3304 1.44436,5.29601 1.37559,5.26162 1.3068,5.22723 1.27242,5.19284 1.20364,5.15845 1.13486,5.12406 1.10047,5.08967 1.03169,5.05528 0.96291,5.02089 0.928516,4.9865 0.85974,4.95211 0.825351,4.91772 0.756571,4.88333 0.687792,4.84894 0.653406,4.81455 0.447063,4.81455 "/>
   <polygon id="_120400368" class="fil0" points="5.43357,4.84894 5.43357,5.57112 5.46796,5.60551 5.60552,5.60551 5.63991,5.57112 5.63991,4.84894 5.60552,4.81455 5.46796,4.81455 "/>
   <polygon id="_122846304" class="fil0" points="5.77746,4.84894 5.77746,4.95211 5.81186,4.9865 5.84625,5.02089 6.39648,5.02089 6.39648,5.57112 6.43087,5.60551 6.56843,5.60551 6.60282,5.57112 6.60282,5.02089 7.15305,5.02089 7.18744,4.9865 7.22184,4.95211 7.22184,4.84894 7.18744,4.81455 5.81186,4.81455 "/>
   <polygon id="_122846424" class="fil0" points="1.92582,4.84894 1.92582,5.57112 1.96021,5.60551 2.09777,5.60551 2.13216,5.57112 2.13216,4.84894 2.09777,4.81455 1.96021,4.81455 "/>
   <polygon id="_120381528" class="fil0" points="2.26972,4.84894 2.26972,4.95211 2.30411,4.9865 2.3385,5.02089 2.88873,5.02089 2.88873,5.57112 2.92312,5.60551 3.06068,5.60551 3.09507,5.57112 3.09507,5.02089 3.6453,5.02089 3.6797,4.9865 3.71408,4.95211 3.71408,4.84894 3.6797,4.81455 2.30411,4.81455 "/>
  </g>
 </g>
</svg>
