<?xml version="1.0" encoding="UTF-8"?>
<!DOCTYPE svg PUBLIC "-//W3C//DTD SVG 1.1//EN" "http://www.w3.org/Graphics/SVG/1.1/DTD/svg11.dtd">
<!-- Creator: CorelDRAW -->
<svg xmlns="http://www.w3.org/2000/svg" xml:space="preserve" width="10.333in" height="3.14623in" style="shape-rendering:geometricPrecision; text-rendering:geometricPrecision; image-rendering:optimizeQuality; fill-rule:evenodd; clip-rule:evenodd"
viewBox="0 0 10.1807 3.09987"
 xmlns:xlink="http://www.w3.org/1999/xlink">
 <defs>
  <style type="text/css">
   <![CDATA[
    .fil0 {fill:#FCF8FF}
   ]]>
  </style>
 </defs>
 <g id="Layer_x0020_1">
  <metadata id="CorelCorpID_0Corel-Layer"/>
  <g id="_116904152">
   <polygon id="_116899928" class="fil0" points="6.53433,0.00561291 6.50062,0.0112297 6.46691,0.0168465 6.4332,0.0224594 6.39949,0.0280762 6.36577,0.033693 6.33768,0.0393097 6.29835,0.0449226 6.26464,0.0505394 6.23655,0.0561562 6.19722,0.0617691 6.16351,0.0673859 6.13541,0.0730027 6.1017,0.0786195 6.06799,0.0842324 6.03428,0.0898492 5.97248,0.095466 5.93877,0.101079 5.90506,0.106696 5.87134,0.112312 5.83763,0.117929 5.7983,0.123542 5.77021,0.129159 5.7365,0.134776 5.70279,0.140392 5.66908,0.146005 5.63537,0.151622 5.60166,0.157239 5.56794,0.162852 5.53423,0.168469 5.50052,0.174085 5.47243,0.179702 5.4331,0.185315 5.37692,0.190932 5.33759,0.196549 5.30387,0.202162 5.27016,0.207778 5.23645,0.213395 5.20274,0.219012 5.16903,0.224625 5.13532,0.230242 5.10161,0.235858 5.07352,0.241471 5.03419,0.247088 5.00048,0.252705 4.97238,0.258322 4.93867,0.263935 4.90496,0.269551 4.87125,0.275168 4.83754,0.280785 4.78135,0.286402 4.74202,0.292015 4.70831,0.297631 4.6746,0.303244 4.64089,0.308861 4.60718,0.314478 4.57347,0.320095 4.53976,0.325711 4.50605,0.331324 4.47233,0.336941 4.43862,0.342554 4.40491,0.348171 4.3712,0.353788 4.33749,0.359404 4.3094,0.365021 4.27007,0.370634 4.23636,0.376251 4.20826,0.381864 4.14084,0.387481 4.10713,0.393097 4.07342,0.398714 4.03971,0.404331 4.006,0.409944 3.97229,0.415561 3.94419,0.421177 3.91049,0.426794 3.87115,0.432407 3.84306,0.438024 3.80935,0.443641 3.77002,0.449254 3.74193,0.45487 3.70821,0.460487 3.67451,0.466104 3.64079,0.471717 3.60709,0.477334 3.54528,0.48295 3.51157,0.488563 3.47786,0.49418 3.44414,0.499797 3.41044,0.505414 3.37672,0.511027 3.34302,0.516643 3.3093,0.52226 3.27559,0.527873 3.24188,0.53349 3.20817,0.539107 3.17446,0.544723 3.14075,0.550336 3.10704,0.555953 3.07332,0.56157 3.04523,0.567187 3.01152,0.5728 2.94972,0.578416 2.91039,0.584033 2.8823,0.589646 2.84297,0.595263 2.80925,0.60088 2.78116,0.606496 2.74183,0.612109 2.70812,0.617726 2.68003,0.623343 2.64632,0.628956 2.60699,0.634573 2.5789,0.640189 2.54518,0.645806 2.51148,0.651419 2.47776,0.657036 2.44405,0.662653 2.41034,0.668269 2.35415,0.673882 2.31483,0.679499 2.28111,0.685116 2.2474,0.690729 2.21369,0.696346 2.17998,0.701962 2.14627,0.707579 2.11256,0.713192 2.07885,0.718809 2.04514,0.724426 2.01704,0.730039 1.97771,0.735655 1.94401,0.741272 1.91591,0.746889 1.8822,0.752502 1.84287,0.758119 1.81478,0.763735 1.78107,0.769348 1.71926,0.774965 1.67993,0.780582 1.64622,0.786199 1.61813,0.791812 1.5788,0.797428 1.54509,0.803045 1.517,0.808662 1.48329,0.814279 1.44957,0.819892 1.41586,0.825508 1.38215,0.831121 1.34844,0.836738 1.31473,0.842355 1.28102,0.847972 1.24731,0.853588 1.2136,0.859201 1.17989,0.864818 1.11808,0.870431 1.08437,0.876048 1.05066,0.881665 1.01695,0.887281 0.983236,0.892898 0.949528,0.898511 0.915815,0.904128 0.882103,0.909741 0.854011,0.915358 0.814682,0.920974 0.780974,0.926591 0.752878,0.932208 0.71917,0.937821 0.679837,0.943438 0.651745,0.949054 0.618033,0.954671 0.584324,0.960284 0.52252,0.965901 0.488808,0.971518 0.455099,0.977131 0.415766,0.982747 0.387675,0.988364 0.353962,0.993981 0.320254,0.999594 0.286541,1.00521 0.252833,1.01083 0.219121,1.01644 0.185408,1.02206 0.1517,1.02767 0.117987,1.03329 0.0898957,1.0389 0.0505627,1.04452 0.0168542,1.05014 0,1.05575 0,3.09987 10.1807,3.09987 10.1807,1.05575 10.1695,1.05014 10.1526,1.04452 10.1302,1.0389 10.1133,1.03329 10.0965,1.02767 10.0796,1.02206 10.0628,1.01644 10.0403,1.01083 10.0234,1.00521 10.0066,0.999594 9.98971,0.993981 9.97286,0.988364 9.956,0.982747 9.93353,0.977131 9.91668,0.971518 9.8942,0.965901 9.86611,0.960284 9.84925,0.954671 9.8324,0.949054 9.80992,0.943438 9.79307,0.937821 9.77621,0.932208 9.75935,0.926591 9.7425,0.920974 9.72003,0.915358 9.70317,0.909741 9.68631,0.904128 9.66946,0.898511 9.6526,0.892898 9.63575,0.887281 9.61328,0.881665 9.59642,0.876048 9.57956,0.870431 9.54585,0.864818 9.529,0.859201 9.51214,0.853588 9.49528,0.847972 9.47843,0.842355 9.45596,0.836738 9.4391,0.831121 9.42224,0.825508 9.40539,0.819892 9.38853,0.814279 9.37168,0.808662 9.34921,0.803045 9.33235,0.797428 9.31549,0.791812 9.29864,0.786199 9.28178,0.780582 9.25931,0.774965 9.2256,0.769348 9.20874,0.763735 9.19188,0.758119 9.17503,0.752502 9.15817,0.746889 9.1357,0.741272 9.12446,0.735655 9.10761,0.730039 9.08513,0.724426 9.06828,0.718809 9.05142,0.713192 9.02895,0.707579 9.01771,0.701962 8.99524,0.696346 8.97838,0.690729 8.96153,0.685116 8.93905,0.679499 8.9222,0.673882 8.89411,0.668269 8.87163,0.662653 8.85477,0.657036 8.83792,0.651419 8.82106,0.645806 8.80421,0.640189 8.78735,0.634573 8.76488,0.628956 8.74802,0.623343 8.73117,0.617726 8.71431,0.612109 8.69746,0.606496 8.67498,0.60088 8.65813,0.595263 8.64127,0.589646 8.62441,0.584033 8.60194,0.578416 8.56823,0.5728 8.55137,0.567187 8.54014,0.56157 8.51767,0.555953 8.50081,0.550336 8.48395,0.544723 8.46148,0.539107 8.45024,0.53349 8.42777,0.527873 8.41091,0.52226 8.39406,0.516643 8.3772,0.511027 8.35473,0.505414 8.34349,0.499797 8.32102,0.49418 8.30416,0.488563 8.28169,0.48295 8.25359,0.477334 8.23674,0.471717 8.21988,0.466104 8.19741,0.460487 8.18055,0.45487 8.1637,0.449254 8.14684,0.443641 8.12999,0.438024 8.11313,0.432407 8.09066,0.426794 8.0738,0.421177 8.05695,0.415561 8.04009,0.409944 8.02324,0.404331 8.00076,0.398714 7.9839,0.393097 7.96705,0.387481 7.93334,0.381864 7.91648,0.376251 7.89963,0.370634 7.87715,0.365021 7.86592,0.359404 7.84344,0.353788 7.82659,0.348171 7.80973,0.342554 7.79287,0.336941 7.77602,0.331324 7.75917,0.325711 7.73669,0.320095 7.71984,0.314478 7.70298,0.308861 7.6805,0.303244 7.66365,0.297631 7.6468,0.292015 7.62432,0.286402 7.59623,0.280785 7.57937,0.275168 7.56252,0.269551 7.54566,0.263935 7.52319,0.258322 7.50633,0.252705 7.48948,0.247088 7.47262,0.241471 7.45577,0.235858 7.43891,0.230242 7.41643,0.224625 7.39958,0.219012 7.38273,0.213395 7.36587,0.207778 7.34901,0.202162 7.32654,0.196549 7.30968,0.190932 7.28159,0.185315 7.25912,0.179702 7.24226,0.174085 7.2254,0.168469 7.20293,0.162852 7.1917,0.157239 7.17484,0.151622 7.15237,0.146005 7.13551,0.140392 7.11865,0.134776 7.1018,0.129159 7.08494,0.123542 7.06247,0.117929 7.04561,0.112312 7.02876,0.106696 7.00628,0.101079 6.98943,0.095466 6.96133,0.0898492 6.93886,0.0842324 6.92201,0.0786195 6.90515,0.0730027 6.8883,0.0673859 6.87144,0.0617691 6.85458,0.0561562 6.83211,0.0505394 6.81526,0.0449226 6.7984,0.0393097 6.78154,0.033693 6.76469,0.0280762 6.74221,0.0224594 6.72536,0.0168465 6.7085,0.0112297 6.69165,0.00561291 6.6748,0 6.56803,0 "/>
  </g>
 </g>
</svg>
