<svg xmlns="http://www.w3.org/2000/svg" viewBox="0 0 358.058 230.039"><path fill="#00000c" d="M326.058 82.54c-.7 0-1.2-.5-1.2-1.2v-9.1c.1-.7.7-1.2 1.3-1.1.6.1 1.1.5 1.1 1.1v9.1c0 .6-.5 1.2-1.2 1.2zm0-10.7c-.2 0-.4.2-.4.4v9.1c0 .2.2.4.4.4s.4-.2.4-.4v-9.1c0-.3-.2-.4-.4-.4z" /><path fill="#fff" d="M127.458 28.74c-4-.7-8-.9-12.1-.6l-1-11.7c-5.1.4-10.1 1.5-14.8 3.3l4 11c-3.8 1.4-7.4 3.2-10.8 5.5l-6.7-9.6c-4.2 2.9-7.9 6.3-11.2 10.2l8.9 7.5c-2.6 3.1-4.8 6.5-6.6 10.2l-10.5-4.9c-2.2 4.6-3.7 9.5-4.6 14.5l11.3 2c-.7 4-.9 8.1-.6 12.2l-11.4 1c.4 5.1 1.5 10 3.3 14.8l10.7-3.9c1.4 3.8 3.3 7.5 5.6 10.8l-9.3 6.5c2.9 4.2 6.4 7.9 10.3 11.2l7.3-8.7c3.1 2.6 6.5 4.8 10.2 6.5l-4.8 10.2c4.6 2.2 9.4 3.7 14.4 4.6l2-11.1c4.1.7 8.2.9 12.3.5l1 11.3c5.1-.4 10-1.5 14.8-3.3l-3.9-10.7c3.8-1.4 7.5-3.3 10.8-5.7l6.5 9.3c4.2-2.9 7.9-6.3 11.2-10.2l-8.8-7.4c2.6-3.1 4.8-6.6 6.5-10.3l10.4 4.9c2.2-4.6 3.7-9.5 4.6-14.4l-11.4-2c.7-4 .9-8.1.5-12.2l11.6-1c-.4-5.1-1.5-10-3.3-14.8l-11 4c-1.4-3.8-3.3-7.4-5.6-10.7l9.6-6.7c-2.9-4.2-6.4-7.9-10.3-11.2l-7.6 9c-3.1-2.6-6.5-4.8-10.2-6.5l5-10.7c-4.6-2.1-9.5-3.7-14.5-4.6zm.4 19.1c-14.6-4.6-30.3 3.5-34.9 18.1-4.6 14.6 3.5 30.3 18.1 34.9 14.6 4.6 30.2-3.5 34.9-18.1 4.6-14.7-3.5-30.3-18.1-34.9z" /><path fill="#6d6e70" d="M124.758 132.54l-.1-.9c1.4-.1 2.8-.3 4.2-.5l.1.8c-1.4.3-2.8.5-4.2.6zm-17-.9c-1.4-.3-2.8-.6-4.2-1l.2-.8c1.4.4 2.7.7 4.1 1zm23.8-.1l-.2-.8c1.4-.3 2.8-.6 4.1-1l.2.8c-1.3.4-2.7.7-4.1 1zm-21.8-1.2l-.8-.1.7-4.2.8.1zm14-.4l-.4-4.2.8-.1.4 4.2zm-22.6 0c-1.3-.4-2.7-.9-4-1.5l.3-.8c1.3.5 2.6 1 4 1.5zm37-.2l-.3-.8.9-.3-.8-2.3.8-.3 1.1 3.1-.4.1c-.4.2-.9.3-1.3.5zm-43.4-2.3l-.6-.3 1.9-4 .8.4-1.7 3.5-.1-.1zm42.3-3.5l-1.4-4 .8-.3 1.4 4zm-26-.2l-.8-.1.7-3.7.4.1 1 .2-.1.8-.5-.1zm12.2-.6l-.2-1.8c-.5 0-1.1.1-1.6.1v-.8c.7 0 1.3-.1 2-.1h.4l.2 2.6zm29.4-.6l-1.6-2.3.7-.5 1.1 1.6 1.2-.9.5.7c-.5.4-1 .8-1.6 1.1zm-33.8-1c-1.4 0-2.9-.1-4.3-.2l.1-.8c1.4.2 2.8.2 4.2.2zm-21-.4l-.8-.4 1.8-3.8.8.4zm58.7-1.6l-.5-.7c1.1-.8 2.1-1.8 3.1-2.8l.6.6c-1 1-2.1 2-3.2 2.9zm-74.5-.2l-.3-.3-2.4-2.1.6-.6c.7.6 1.3 1.2 2 1.8l.4-.5.7.5zm54.3-1l-.3-.8c1.3-.5 2.6-1.1 3.9-1.7l.4.8c-1.3.6-2.6 1.1-4 1.7zm13.2-.2l-2.4-3.5.7-.5 2.4 3.5zm-64.9-1.9l-.7-.5 2.7-3.3.7.5zm12.9-.1c-1.3-.7-2.5-1.4-3.7-2.2l.5-.7c1.2.8 2.4 1.5 3.6 2.1zm45-.8l-.4-.7c1.2-.7 2.4-1.4 3.6-2.2l.5.7c-1.2.7-2.4 1.5-3.7 2.2zm-65.1-.2c-1-1-2-2.1-2.9-3.2l.7-.5c.9 1.1 1.8 2.1 2.8 3.1zm84.1-.2l-.6-.6c.9-.9 1.8-1.9 2.6-2.9l.1.1.3-.3.5.4-.3.3c-.7 1-1.6 2-2.6 3zm-69.9-2.4c-.8-.6-1.6-1.2-2.3-1.8l-.3.4-.7-.5.8-1 .3.3c.8.7 1.7 1.4 2.6 2zm69.8-2.4l-3.3-2.7.6-.7 3.3 2.7zm-88.4-.1c-.5-.7-1.1-1.4-1.6-2.2l-.2-.3 1.6-1.1.5.7-.9.7c.4.6.9 1.2 1.3 1.8zm83.2-4.2l-1.7-1.4.3-.3c.5-.6 1-1.3 1.5-1.9l.7.5-1.3 1.6 1.1.9zm-80.9-.2l-.5-.7 3.5-2.4.5.7zm44-3h-.8v-.8c1.4 0 2.8 0 4.2-.2l.1.8c-1.1.1-2.3.1-3.5.2zm-3.3-.2c-1.4-.2-2.8-.5-4.2-.8l.2-.8c1.3.4 2.7.6 4.1.8zm9.4-.5l-.2-.8c1.4-.3 2.7-.7 4-1.2l.3.8c-1.3.5-2.7.8-4.1 1.2zm-44.5-.2l-.5-.7c-.6-.9-1.3-1.9-1.8-2.9l.7-.4c.6 1.1 1.3 2.2 2 3.2l.2.3zm28.4-1c-1.3-.5-2.6-1.1-3.9-1.8l.4-.7c1.2.7 2.5 1.3 3.8 1.8zm49.1-.1l-.7-.5c.8-1.2 1.5-2.4 2.2-3.6l.7.4c-.6 1.2-1.4 2.4-2.2 3.7zm-26.5-1l-.4-.8c1.2-.6 2.4-1.3 3.6-2.1l.5.7c-1.2.8-2.4 1.5-3.7 2.2zm39.2-.6l-3.9-1.8.4-.8 3.9 1.8zm2-1.5l-.8-.3c.6-1.3 1.1-2.6 1.5-3.9l.8.3c-.4 1.3-.9 2.6-1.5 3.9zm-69.9 0c-1.2-.8-2.3-1.7-3.3-2.7l.6-.6c1 1 2.1 1.8 3.2 2.6zm61.7-1.4l-3.5-1.7v-.1l-.4-.2.3-.7 3.9 1.8zm-87.5-.3c-.7-1.3-1.2-2.6-1.8-3.9l.8-.3c.5 1.3 1.1 2.6 1.7 3.8zm60.3 0l-.6-.7c1.1-.9 2.1-1.9 3-2.9l.6.6c-.9 1.1-1.9 2.1-3 3zm-73.2-1.2l-.4-.9.8-.3v.1l3.1-1.1.3.8zm33.6-1.8c-.9-1.1-1.8-2.2-2.6-3.4l.7-.4c.7 1.2 1.6 2.3 2.5 3.3zm-27.4-.4l-.3-.8 4-1.4.3.8zm-7.4-1.1c-.4-1.4-.8-2.8-1.1-4.1l.9-.2c.3 1.4.7 2.7 1.1 4.1zm112.2-.2l-.8-.3c.4-1.3.8-2.7 1.1-4.1l.8.2c-.4 1.4-.7 2.8-1.1 4.2zm-33.1-.4l-.7-.5c.8-1.1 1.5-2.3 2.2-3.6l.8.4c-.8 1.3-1.5 2.5-2.3 3.7zm-48.2-3.5c-.7-1.3-1.2-2.6-1.7-4l.8-.3c.4 1.3 1 2.6 1.6 3.8zm82.2-2.3l-4.2-.8.1-.8 4.2.7zm-30.8-.2l-.8-.3.6-1.8c.2-.6.4-1.4.6-2.2l.8.2c-.2.8-.4 1.5-.6 2.3-.2.8-.3 1.1-.6 1.8zm-83.9 0c-.3-1.4-.4-2.8-.6-4.2l.8-.1c.2 1.4.3 2.8.6 4.2zm108-1l-4.2-.8.1-.8 4.2.8zm-77.9-3c-.3-1.4-.6-2.8-.7-4.3l.8-.1c.1 1.4.3 2.8.6 4.1zm74.1-.3l-.8-.1c.2-1.4.3-2.8.3-4.2h.9c-.1 1.4-.2 2.9-.4 4.3zm-103-.8l-.1-.8 4.2-.4.1.8zm6.9-.6l-.1-.8 2.7-.2v-.7h.8c0 .4.1.7.1 1.1v.4zm77.6-1l-.8-.1c.2-1.2.2-2.4.2-3.6v-.6h.9v.6c-.1 1.2-.2 2.5-.3 3.7zm-75.1-3.3v-.2c0-1.4.1-2.8.2-4.1l.8.1c-.1 1.3-.2 2.7-.2 4v.2zm19.6-.8h-.8c0-1.4.2-2.9.4-4.3l.8.1c-.2 1.4-.3 2.8-.4 4.2zm73.6-.3c0-1.1-.1-2.2-.2-3.3v-.4l1.4-.1.1.8h-.5c.1 1 .1 2 .2 2.9zm-18.9-2.4c-.2-1.4-.4-2.8-.8-4.1l.8-.2c.4 1.4.7 2.8.8 4.2zm22.6-.8l-.1-.8 4.2-.4.1.8zm6.8-.6l-.1-.8.9-.1-.3-2.4.8-.1c.1 1 .2 1.9.3 2.9v.4zm-102.4-1.8l-.8-.1c.1-.4.1-.9.2-1.3l-2-.4.2-.8 2.9.5-.1.4c-.2.5-.3 1.1-.4 1.7zm19.3-.7l-.8-.2c.1-.4.2-.9.4-1.3.3-.9.7-1.9 1-2.8l.8.3c-.4.9-.7 1.8-1 2.7-.2.4-.3.8-.4 1.3zm-24.5-1.6l-4.2-.7.2-.8 4.2.7zm76.7-1c-.5-1.3-1.1-2.6-1.8-3.8l.7-.4c.7 1.3 1.3 2.6 1.8 3.9zm31-.8c-.3-1.4-.6-2.8-.9-4.1l.8-.2c.4 1.4.7 2.8.9 4.2zm-113.5 0l-.8-.2.9-4.2.8.2c-.4 1.5-.7 2.8-.9 4.2zm32.7-2.8l-.8-.4c.7-1.3 1.5-2.5 2.4-3.6l.7.5c-.8 1.1-1.6 2.2-2.3 3.5zm67.4-2.1l-.1-.4c-.4-1-.8-1.9-1.2-2.9l.8-.3c.4.8.7 1.7 1.1 2.5l.6-.2.3.8zm-20.7-.2c-.8-1.2-1.7-2.2-2.6-3.3l.6-.6c1 1.1 1.9 2.2 2.7 3.4zm24.6-1.2l-.3-.8 4-1.5.3.8zm8-.2c-.2-.8-.5-1.6-.8-2.4l-.8.3-.3-.8 1.6-.6.1.4c.3.9.7 1.9 1 2.9zm-110.4 0l-.8-.3c.4-1.4.9-2.7 1.4-4l.8.3c-.5 1.3-1 2.6-1.4 4zm35.1-1.7l-.6-.6c1-1.1 2-2 3.2-2.9l.5.7c-1.1.8-2.2 1.8-3.1 2.8zm-23.9-1.4l-3.8-1.8.4-.8 3.8 1.8zm2.5-.1l-.8-.4c.6-1.3 1.3-2.5 2.1-3.8l.7.5c-.7 1.1-1.4 2.4-2 3.7zm59.7-.4c-1-.9-2.2-1.8-3.3-2.5l.5-.7c1.2.8 2.4 1.6 3.4 2.6zm22.8-.3c-.6-1.2-1.4-2.5-2.1-3.7l.7-.5c.8 1.2 1.5 2.5 2.1 3.7zm-56-2.1l-.5-.7c1.2-.8 2.5-1.5 3.8-2.1l.4.8c-1.3.6-2.6 1.2-3.7 2zm-35.2 0l-2.3-1.1-.4.8-.8-.3c.2-.4.3-.8.5-1.2l.2-.4 3.1 1.4zm62.9-1.4c-1.2-.6-2.5-1.2-3.9-1.6l.3-.8c1.4.5 2.7 1 4 1.7zm-21.7-1.6l-.3-.8c1.4-.5 2.8-.8 4.2-1.1l.1.8c-1.4.3-2.7.7-4 1.1zm-29.1-.1l-.7-.5c.8-1.2 1.7-2.3 2.6-3.4l.7.5c-1 1.2-1.8 2.3-2.6 3.4zm46.4-.1c-1.3-.4-2.7-.8-4.1-1l.1-.8c1.4.2 2.8.6 4.2 1zm30.2-.3l-.5-.7 3.5-2.4.5.7zm-41-.9l-.1-.8c1.4-.1 2.8-.1 4.3 0v.8c-1.4-.1-2.8-.1-4.2 0zm46.6-3l-.5-.7 3.5-2.4.5.7zm-81.6-.6l-3.3-2.7.5-.7 3.3 2.7zm83.5-3.9l-2.7-3.3.6-.6c.9 1.1 1.9 2.2 2.7 3.3zm-88.8-.5l-2.4-2 .3-.3c.3-.4.7-.8 1-1.2l.6.6-.7.8 1.7 1.5zm73 0l-.6-.5 2.7-3.3.6.5zm-2.5-1.3c-1.1-.8-2.3-1.6-3.5-2.4l.4-.7c1.2.8 2.4 1.6 3.5 2.4zm-54.4-.8l-1.6-2.3.7-.5 1.2 1.6 1.2-.8.4.7c-.5.3-1 .7-1.5 1zm68.3-2.6c-1-1-2-2-3-2.9l.6-.6c1.1 1 2.1 2 3.1 3zm-64.3 0l-.4-.7c1.2-.7 2.5-1.3 3.8-1.9l.3.8c-1.2.5-2.5 1.1-3.7 1.8zm-18.8-.1l-.6-.6c1-1 2-2 3.1-3l.6.6c-1.1 1-2.1 2-3.1 3zm63.5-.2c-.8-.5-1.7-.9-2.6-1.3l-.4-.2.7-1.5.8.4-.4.8c.8.4 1.5.8 2.3 1.2zm12.6-.3l-.6-.5 2.7-3.2.6.5zm-64.4-1.3l-2.5-3.4.7-.5 2.5 3.5zm13.2-1l-.3-.8.5-.2-1-2.7.8-.3 1.3 3.6-.4.2zm-19.9-1.8l-.5-.7c1.1-.9 2.3-1.8 3.4-2.6l.5.7c-1.2.9-2.4 1.7-3.4 2.6zm44.9-.5l-.4-.1c-1.4-.2-2.8-.4-4.2-.5l.1-.8c1.3.1 2.6.3 3.8.5l.1-.5.8.1zm13.2-.1l-.8-.4 1.8-3.8.8.4zm-24.5-.5v-.8c1.4-.1 2.9-.1 4.3-.1v.8c-1.5 0-2.9 0-4.3.1zm-1.7-1.8l-.4-4.2.8-.1.4 4.2zm-13.7-1.3l-1.5-4 .8-.3 1.5 4zm27.3-.1l-.8-.1.7-4.2.8.1zm15.4-2.4l-.7-.4.3-.6c-.8-.4-1.6-.7-2.5-1.1l.3-.8c1 .4 1.9.8 2.9 1.3l.4.2zm-29.6-2.9l-.3-3.1h-.3l-.1-.9.8-.1h.4l.3 3.9zm24.4 0c-1.3-.5-2.7-.9-4-1.3l.2-.8c1.4.4 2.7.8 4.1 1.3zm-38.1-.1l-.3-.8c1.3-.5 2.7-.9 4.1-1.3l.2.8c-1.3.3-2.7.7-4 1.3zm29.1-1.2l-.8-.1.3-1.9.4.1c.9.2 1.8.3 2.7.5l-.2.8c-.8-.2-1.5-.3-2.3-.5zm-22.6-.7l-.2-.8c1.4-.3 2.8-.6 4.2-.8l.1.8c-1.4.2-2.8.5-4.1.8z" /><path fill="#fff" d="M203.758 12.74c32.4 0 58.7 26.2 58.8 58.7 0 2.4-.1 4.8-.4 7.1 18.7 4.2 30.5 22.7 26.4 41.5-3.5 15.9-17.7 27.2-33.9 27.2h-157.8c-.8.1-1.5.1-2.3.1-.8 0-1.6 0-2.3-.1l-4.1-.7c-14.1-3.5-22.7-17.8-19.2-31.9 2.9-11.7 13.5-19.9 25.5-19.9.7 0 1.5 0 2.2.1-1.9-19.1 12-36.2 31.1-38.1 6.3-.6 12.6.4 18.3 3.1 5.6-27.4 29.7-47.1 57.7-47.1z" /><path fill="#00000c" d="M94.558 148.14c-.8 0-1.6 0-2.4-.1h-.1l-4.1-.7c-14.5-3.6-23.4-18.3-19.8-32.8 3-12.1 13.9-20.6 26.4-20.6h1.3c-.1-.9-.1-1.8-.1-2.6 0-19.7 16-35.6 35.7-35.6 4.8 0 9.6 1 14.1 2.9 7.1-32.2 38.9-52.5 71.1-45.4 27.3 6 46.8 30.2 46.8 58.2 0 2.2-.1 4.3-.4 6.5 19.1 4.7 30.7 24 26 43.1-3.9 15.9-18.2 27-34.5 27h-157.7c-.7.1-1.5.1-2.3.1zm-2.2-1.8c1.5.1 3 .1 4.4 0h157.7c18.7.1 34-15 34.1-33.7.1-16-11-29.9-26.7-33.3l-.8-.2.1-.8c3.7-31.8-19-60.5-50.8-64.3-29.8-3.5-57.4 16.4-63.5 45.9l-.2 1-1-.5c-17-8-37.2-.6-45.2 16.3-2.1 4.5-3.2 9.4-3.2 14.4 0 1.2.1 2.3.2 3.4l.1 1-1-.1c-.7-.1-1.4-.1-2.1-.1-14 0-25.5 11.3-25.5 25.4 0 11.7 7.9 21.9 19.3 24.8z" /><path fill="#00000c" d="M202.058 111.44h.8v46.6h119.4v-65.8h.9v66.7h-121.1z" /><path fill="#fff" d="M198.158 38.44c-2.8.4-5.6 1.1-8.2 2.2l-3.2-7.6c-3.3 1.4-6.4 3.2-9.2 5.3l5 6.5c-2.3 1.7-4.3 3.7-6 6l-6.5-5c-2.2 2.8-4 5.9-5.3 9.2l7.6 3.1c-1.1 2.6-1.9 5.4-2.2 8.2l-8.1-1.1c-.5 3.5-.5 7.1 0 10.6l8-1.1c.4 2.8 1.1 5.6 2.2 8.2l-7.4 3.1c1.4 3.3 3.2 6.4 5.3 9.2l6.4-4.9c1.7 2.3 3.7 4.3 6 6.1l-4.8 6.4c2.8 2.2 5.9 4 9.2 5.3l3-7.3c2.6 1.1 5.4 1.8 8.2 2.2l-1 7.8c3.5.5 7.1.5 10.6 0l-1-7.8c2.9-.4 5.7-1.1 8.3-2.2l3 7.3c3.3-1.4 6.4-3.2 9.2-5.3l-4.9-6.3c2.3-1.8 4.3-3.8 6-6.1l6.4 4.9c2.2-2.8 4-5.9 5.4-9.2l-7.4-3.1c1.1-2.6 1.8-5.4 2.1-8.2l8 1.1c.5-3.5.5-7.1 0-10.6l-8.1 1.1c-.4-2.8-1.1-5.6-2.3-8.3l7.6-3.1c-1.4-3.3-3.2-6.4-5.3-9.2l-6.5 5c-1.7-2.3-3.7-4.3-6-6l5-6.5c-2.8-2.1-6-3.9-9.3-5.3l-3.1 7.6c-2.6-1.1-5.4-1.8-8.2-2.2l1.1-8.2c-3.5-.5-7.1-.5-10.6 0zm4.3 12.7c-10.8 0-19.5 8.7-19.5 19.5s8.7 19.5 19.5 19.5 19.5-8.7 19.5-19.5-8.7-19.5-19.5-19.5z" /><path fill="#00000c" d="M202.458 111.84c-1.8 0-3.6-.1-5.4-.4l-.4-.1 1-7.9c-2.6-.4-5.1-1-7.5-2l-3 7.3-.4-.2c-3.3-1.4-6.5-3.2-9.3-5.4l-.3-.3 4.9-6.3c-2.1-1.6-3.9-3.5-5.5-5.6l-6.4 4.9-.3-.3c-2.2-2.9-4-6-5.4-9.3l-.3-.2 7.4-3.1c-1-2.4-1.6-5-2-7.5l-8 1.1v-.4c-.5-3.6-.5-7.2 0-10.8l.1-.4 8.1 1c.4-2.6 1.1-5.1 2.1-7.5l-7.6-3 .2-.4c1.4-3.3 3.2-6.5 5.4-9.3l.3-.3 6.5 5c1.6-2 3.5-3.9 5.5-5.5l-5-6.5.3-.3c2.9-2.2 6-4 9.3-5.4l.4-.2 3.1 7.6c2.4-1 4.9-1.6 7.5-2l-1.1-8.2.4-.1c3.6-.5 7.2-.5 10.8 0l.4.1-1 8.2c2.6.4 5.1 1 7.5 2l3.1-7.6.4.2c3.3 1.4 6.4 3.2 9.3 5.4l.3.3-5 6.5c2 1.6 3.9 3.4 5.5 5.5l6.5-5 .3.3c2.2 2.9 4 6 5.4 9.3l.2.4-7.5 3.1c1 2.4 1.6 5 2 7.6l8.1-1 .1.4c.5 3.6.5 7.2 0 10.8l-.1.4-8-1.1c-.4 2.6-1 5.1-2 7.5l7.5 3.1-.2.4c-1.4 3.3-3.2 6.5-5.4 9.3l-.3.3-6.4-4.9c-1.6 2.1-3.5 3.9-5.5 5.6l4.9 6.3-.3.3c-2.9 2.2-6 4-9.3 5.4l-.4.2-3-7.3c-2.5 1-5 1.6-7.6 2l1 7.9h-.4c-2-.1-3.7.1-5.5.1zm-4.9-1.2c3.2.4 6.5.4 9.7 0l-1-7.8h.4c2.8-.4 5.6-1.1 8.2-2.2l.4-.2 3 7.3c3-1.3 5.8-2.9 8.4-4.8l-4.9-6.3.3-.3c2.3-1.7 4.3-3.7 6-6l.3-.3 6.4 4.9c1.9-2.6 3.6-5.4 4.8-8.4l-7.4-3.1.2-.4c1.1-2.6 1.8-5.3 2.1-8.1v-.4l8 1.1c.4-3.2.4-6.5 0-9.7l-8.1 1.1-.1-.4c-.4-2.8-1.1-5.5-2.2-8.1l-.2-.4 7.5-3.1c-1.3-3-2.9-5.8-4.9-8.4l-6.5 5-.3-.3c-1.7-2.2-3.8-4.2-6-5.9l-.3-.3 5-6.5c-2.6-1.9-5.4-3.6-8.4-4.8l-3.1 7.6-.4-.2c-2.6-1.1-5.3-1.8-8.1-2.2h-.4l1.1-8.2c-3.2-.4-6.5-.4-9.7 0l1.1 8.2h-.4c-2.8.4-5.5 1.1-8.1 2.2l-.4.2-3.2-7.6c-3 1.3-5.8 2.9-8.4 4.9l5 6.5-.3.3c-2.2 1.7-4.2 3.7-5.9 5.9l-.3.3-6.5-5c-1.9 2.6-3.6 5.4-4.8 8.4l7.6 3.2-.2.4c-1.1 2.6-1.8 5.3-2.2 8.1l-.1.4-8.1-1.1c-.4 3.2-.4 6.5 0 9.7l8-1.1v.4c.4 2.8 1.1 5.5 2.2 8.1l.2.4-7.4 3.1c1.3 3 2.9 5.8 4.8 8.4l6.4-4.9.3.3c1.7 2.3 3.7 4.3 6 6l.3.3-4.8 6.3c2.6 1.9 5.4 3.6 8.4 4.8l3-7.3.4.2c2.6 1.1 5.3 1.8 8.1 2.2l.4.1zm4.9-20.1c-11 0-19.9-8.9-19.9-19.9 0-11 8.9-19.9 19.9-19.9 11 0 19.9 8.9 19.9 19.9 0 11-8.9 19.9-19.9 19.9zm0-39c-10.5 0-19.1 8.6-19.1 19.1 0 10.5 8.6 19.1 19.1 19.1 10.5 0 19.1-8.6 19.1-19.1-.1-10.5-8.6-19-19.1-19.1z" /><path fill="#fff" d="M220.158 55.04c8.6 9.8 7.7 24.7-2.1 33.3-9.8 8.6-24.7 7.7-33.3-2.2-8.6-9.8-7.7-24.7 2.1-33.3 9.7-8.6 24.6-7.6 33.3 2.2z" /><path fill="#00000c" d="M202.458 94.64c-13.3 0-24-10.8-24-24s10.8-24 24-24c13.3 0 24 10.8 24 24 0 6.9-3 13.4-8.1 18-4.4 3.9-10.1 6-15.9 6zm0-47.1c-12.8 0-23.1 10.4-23.1 23.2 0 12.8 10.4 23.1 23.2 23.1 12.8 0 23.1-10.4 23.1-23.2 0-5.6-2.1-11-5.8-15.3-4.4-5-10.8-7.9-17.4-7.8z" /><path fill="#5379c5" d="M208.558 84.84h-12.3v-10.8l-1.3 1.4-1.3-1.1 8.7-9.9 8.7 9.9-1.3 1.1-1.3-1.4zm-10.6-1.7h8.9v-11l-4.4-5-4.4 5v11z" /><path fill="#5379c5" d="M199.158 65.74l-1.6-.4c.8-2.8 3.6-4.4 6.4-3.6.8.2 1.6.7 2.2 1.3.6.6 1.1 1.4 1.4 2.3l-1.6.4c-.5-1.9-2.4-3-4.3-2.5-.6.2-1.2.5-1.6.9-.5.5-.8 1-.9 1.6zm-3.7-.8l-1.6-.4c1.1-4 4.6-6.7 8.7-6.7s7.7 2.7 8.8 6.7l-1.6.4c-.9-3.2-3.8-5.4-7.1-5.4-3.5-.1-6.4 2.2-7.2 5.4zm-3.6-1.4l-1.7-.5c1.9-6.8 8.9-10.8 15.8-8.9 4.3 1.2 7.7 4.6 8.9 8.9l-1.6.4c-1.6-5.9-7.7-9.4-13.6-7.8-3.9 1.1-6.9 4.1-7.8 7.9z" /><path fill="#00000c" d="M322.658 120.34c1.4 0 2.5 1.1 2.5 2.5s-1.1 2.5-2.5 2.5-2.5-1.1-2.5-2.5 1.1-2.5 2.5-2.5z" /><path fill="#00000c" d="M322.658 125.44c-1.4 0-2.6-1.2-2.6-2.6 0-1.4 1.2-2.6 2.6-2.6 1.4 0 2.6 1.2 2.6 2.6 0 1.4-1.1 2.6-2.6 2.6zm0-5.1c-1.4 0-2.5 1.1-2.5 2.5s1.1 2.5 2.5 2.5 2.5-1.1 2.5-2.5-1.1-2.5-2.5-2.5z" /><path fill="#fff" d="M271.558 100.44c6.9 7.9 6.2 19.9-1.7 26.8-7.9 6.9-19.9 6.2-26.8-1.7-6.9-7.9-6.2-19.9 1.7-26.8 7.9-7 19.9-6.2 26.8 1.7z" /><path fill="#00000c" d="M257.258 132.34c-.5 0-1 0-1.5-.1l.1-.8c1.4.1 2.8.1 4.1-.1l.1.8c-.9.1-1.8.2-2.8.2zm-4.1-.4c-1.4-.3-2.8-.8-4.1-1.4l.4-.8c1.3.6 2.6 1 3.9 1.3zm9.5-.4l-.2-.8c1.3-.4 2.6-.9 3.8-1.6l.4.7c-1.3.8-2.6 1.4-4 1.7zm-15.9-2.3c-1.2-.8-2.3-1.7-3.4-2.7l.6-.6c1 1 2 1.9 3.2 2.6zm22.1-.7l-.5-.7c.4-.3.8-.6 1.2-1 .6-.6 1.3-1.2 1.8-1.8l.6.6c-.6.7-1.2 1.3-1.9 1.9-.3.3-.8.7-1.2 1zm-27.1-4c-.9-1.2-1.6-2.4-2.2-3.7l.8-.3c.6 1.3 1.3 2.5 2.1 3.6zm31.8-1.1l-.7-.5c.8-1.2 1.4-2.4 1.9-3.7l.8.3c-.5 1.4-1.2 2.7-2 3.9zm-35-5.1c-.4-1.4-.6-2.8-.7-4.3h.9c.1 1.4.3 2.8.7 4.1zm37.7-1.3l-.8-.2c.3-1.3.4-2.7.4-4v-.1h.9v.1c-.1 1.5-.2 2.9-.5 4.2zm-37.5-5.5l-.8-.1c.1-1.4.4-2.9.8-4.3l.8.3c-.5 1.4-.7 2.7-.8 4.1zm36.9-1.2c-.2-1.4-.5-2.7-1-4l.8-.3c.5 1.4.9 2.8 1.1 4.2zm-35.3-5.2l-.8-.4c.6-1.3 1.4-2.6 2.2-3.7l.7.5c-.8 1.2-1.5 2.4-2.1 3.6zm33.3-1.1c-1.3-2.3-3-4.3-5.1-5.9l.5-.7c1 .8 2 1.7 2.9 2.7 1 1.1 1.8 2.3 2.5 3.6zm-29.5-4.3l-.6-.6c.3-.3.6-.6.9-.8.8-.7 1.6-1.3 2.5-1.9l.5.7c-.9.5-1.7 1.1-2.4 1.8-.3.3-.6.6-.9.8zm22.3-3c-1.2-.7-2.5-1.2-3.8-1.6l.3-.8c1.4.4 2.7 1 4 1.7zm-16.8-.7l-.4-.8c1.3-.6 2.7-1 4.1-1.3l.2.8c-1.3.3-2.7.7-3.9 1.3zm10.5-1.4c-1.4-.2-2.8-.3-4.1-.2l-.1-.8c1.4-.1 2.9 0 4.3.2z" /><path fill="#00000c" d="M257.758 156.54h-.9v-4.2h.9zm0-6.8h-.9v-4.3h.9zm0-6.8h-.9v-4.3h.9zm0-6.8h-.9v-4.2h.9zm-116.1 76.7h-.9v-20.8h15.8v-69.7h-45.1v-.8h46v71.4h-15.8zm139.2-27.3h-.9v-27.1h.9zm-150.9-98.5c1.4 0 2.5 1.1 2.5 2.5s-1.1 2.5-2.5 2.5-2.5-1.1-2.5-2.5 1.1-2.5 2.5-2.5z" /><path fill="#00000c" d="M129.958 92.14c-1.4 0-2.6-1.2-2.6-2.6 0-1.4 1.2-2.6 2.6-2.6 1.4 0 2.6 1.2 2.6 2.6 0 1.4-1.2 2.6-2.6 2.6zm0-5c-1.4 0-2.5 1.1-2.5 2.5s1.1 2.5 2.5 2.5 2.5-1.1 2.5-2.5-1.1-2.5-2.5-2.5zm-17.8 6c-3.2-9 1.6-18.9 10.7-22.1 5.8-2 12.3-.8 17 3.2l-.6.7c-6.9-5.9-17.3-5.2-23.2 1.7-3.9 4.5-5 10.7-3 16.3zm5.3-1.2c-2.3-6.2.9-13.1 7.2-15.4 4.1-1.5 8.7-.6 12 2.3l-.6.6c-3.8-3.3-9.4-3.6-13.6-.7-4.2 2.9-5.9 8.2-4.2 12.9zm5-2c-.4-1.1-.5-2.3-.3-3.4.7-3.6 4.1-5.9 7.7-5.3 1.1.2 2.2.7 3.1 1.5l-.6.7c-.8-.7-1.7-1.1-2.7-1.3-3.1-.6-6.1 1.5-6.7 4.6-.2 1-.1 2 .2 3z" /><path fill="#fff" d="M95.058 110.24c-1 .1-2 .4-3 .8l-1.2-2.8c-1.2.5-2.3 1.1-3.3 1.9l1.8 2.4c-.8.6-1.5 1.4-2.2 2.2l-2.4-1.8c-.8 1-1.4 2.2-1.9 3.3l2.7 1.1c-.4 1-.7 2-.8 3l-2.9-.4c-.2 1.3-.2 2.6 0 3.9l2.9-.4c.1 1 .4 2 .8 3l-2.7 1.1c.5 1.2 1.1 2.3 1.9 3.3l2.3-1.8c.6.8 1.4 1.6 2.2 2.2l-1.8 2.3c1 .8 2.2 1.4 3.3 1.9l1.1-2.7c1 .4 2 .7 3 .8l-.4 2.9c1.3.2 2.6.2 3.9 0l-.4-2.9c1-.1 2-.4 3-.8l1.1 2.6c1.2-.5 2.3-1.1 3.4-1.9l-1.8-2.3c.8-.6 1.6-1.4 2.2-2.2l2.3 1.8c.8-1 1.4-2.2 1.9-3.4l-2.7-1.1c.4-1 .7-2 .8-3l2.9.4c.2-1.3.2-2.6 0-3.9l-2.9.4c-.1-1-.4-2-.8-3l2.7-1.1c-.5-1.2-1.2-2.3-1.9-3.3l-2.4 1.8c-.6-.8-1.4-1.5-2.2-2.2l1.8-2.4c-1-.8-2.2-1.4-3.4-1.9l-.8 3c-1-.4-2-.7-3-.8l.4-3c-1.3-.2-2.6-.2-3.9 0zm1.6 4.6c-3.9 0-7.1 3.2-7.1 7.1 0 3.9 3.2 7.1 7.1 7.1 3.9 0 7.1-3.2 7.1-7.1-.1-3.9-3.2-7.1-7.1-7.1z" /><path fill="#00000c" d="M96.658 137.14c-.7 0-1.3 0-2-.1l-.4-.1.4-2.9c-.8-.1-1.5-.3-2.3-.6l-1.1 2.7-.4-.2c-1.2-.5-2.4-1.2-3.4-2l-.3-.3 1.8-2.3c-.6-.5-1.1-1.1-1.6-1.7l-2.3 1.8-.3-.3c-.8-1.1-1.5-2.2-2-3.4l-.2-.4 2.7-1.1c-.3-.7-.5-1.5-.6-2.3l-2.9.4-.1-.4c-.2-1.3-.2-2.7 0-4v-.4l2.9.4c.1-.8.3-1.5.6-2.3l-2.8-1.1.2-.4c.5-1.2 1.2-2.4 2-3.4l.3-.3 2.4 1.8c.5-.6 1.1-1.2 1.7-1.7l-1.8-2.4.3-.3c1.1-.8 2.2-1.5 3.4-2l.4-.2 1.2 2.8c.7-.3 1.5-.5 2.3-.6l-.4-3 .4-.1c1.3-.2 2.7-.2 4 0l.4.1-.4 3c.8.1 1.5.3 2.3.6l1.2-2.8.4.2c1.2.5 2.4 1.2 3.4 2l.3.3-1.8 2.4c.6.5 1.2 1 1.7 1.7l2.4-1.8.3.3c.8 1.1 1.5 2.2 2 3.4l.2.4-2.7 1.1c.3.7.5 1.5.6 2.3l2.9-.4.1.4c.2 1.3.2 2.7 0 4l-.1.4-2.9-.4c-.1.8-.3 1.5-.6 2.3l2.7 1.1-.2.4c-.5 1.2-1.2 2.4-2 3.4l-.3.3-2.3-1.8c-.5.6-1.1 1.2-1.7 1.7l1.8 2.3-.3.3c-1.1.8-2.2 1.5-3.4 2l-.4.2-1.1-2.7c-.7.3-1.5.5-2.3.6l.4 2.9h-.4c-1 .1-1.7.2-2.3.2zm-1.5-.9c1 .1 1.9.1 2.9 0l-.4-2.9.4-.1c1-.1 2-.4 2.9-.8l.4-.2 1.1 2.6c.9-.4 1.7-.9 2.5-1.4l-1.8-2.3.3-.3c.8-.6 1.5-1.3 2.1-2.1l.3-.3 2.3 1.8c.6-.8 1-1.6 1.4-2.5l-2.7-1.1.2-.4c.4-.9.6-1.9.8-2.9l.1-.4 2.9.4c.1-1 .1-1.9 0-2.9l-2.9.4-.1-.4c-.1-1-.4-2-.8-2.9l-.2-.4 2.7-1.1c-.4-.9-.9-1.7-1.5-2.5l-2.4 1.8-.3-.3c-.6-.8-1.3-1.5-2.1-2.1l-.3-.3 1.8-2.4c-.8-.6-1.6-1.1-2.5-1.4l-1.2 2.8-.4-.2c-.9-.4-1.9-.6-2.9-.8h-.4l.4-3c-1-.1-1.9-.1-2.9 0l.4 3h-.1c-1 .1-2 .4-2.9.8l-.4.2-1.2-2.8c-.9.4-1.7.9-2.5 1.4l1.8 2.4-.3.3c-.8.6-1.5 1.3-2.1 2.1l-.3.3-2.4-1.8c-.6.8-1.1 1.6-1.4 2.5l2.7 1.1-.2.4c-.4.9-.7 1.9-.8 2.9l-.1.4-2.9-.4c-.1 1-.1 1.9 0 2.9l2.9-.4v.4c.1 1 .4 2 .8 2.9l.2.4-2.7 1.1c.4.9.9 1.7 1.5 2.5l2.3-1.8.3.3c.6.8 1.3 1.5 2.1 2.1l.3.3-1.8 2.3c.8.6 1.6 1.1 2.5 1.4l1.1-2.6.4.2c.9.4 1.9.6 2.9.8l.4.1zm1.5-6.8c-4.1 0-7.5-3.4-7.5-7.5s3.4-7.5 7.5-7.5 7.5 3.4 7.5 7.5-3.4 7.5-7.5 7.5zm0-14.2c-3.7 0-6.7 3-6.6 6.7 0 3.7 3 6.7 6.7 6.6 3.7 0 6.6-3 6.6-6.7-.1-3.6-3.1-6.6-6.7-6.6zm-21 67.799h81.4v.9h-81.4z" /><path fill="#fff" d="M46.558 149.04c11 0 20 8.9 20 19.9 0 .8 0 1.6-.2 2.4 6.4 1.4 10.4 7.7 9 14.1-1.2 5.4-6 9.3-11.5 9.3h-18.7v16h5.7l-9.5 11-9.5-11h5.7v-16h-28.9l-1.4-.2c-4.8-1.2-7.7-6.1-6.5-10.9 1-4 4.6-6.8 8.7-6.8h.8c-.7-6.5 4.1-12.3 10.6-12.9.4 0 .8-.1 1.2-.1 1.7 0 3.4.4 5 1.1 1.8-9.2 10-15.9 19.5-15.9z" /><path fill="#00000c" d="M41.358 222.34l-10.4-12.1h6.2v-15.1h-26.9c-.5.1-1.1.1-1.6 0l-1.5-.2c-5-1.2-8.1-6.3-6.9-11.3 1-4.2 4.8-7.1 9.1-7.1h.3v-.8c0-6.8 5.5-12.3 12.3-12.3 1.6 0 3.2.3 4.7 1 2.5-11 13.5-17.8 24.5-15.3 9.3 2.1 15.8 10.4 15.8 19.9 0 .7 0 1.4-.1 2.1 6.6 1.6 10.5 8.3 8.9 14.8-1.4 5.4-6.3 9.3-11.9 9.2h-18.3v15.1h6.2zm-8.5-11.2l8.5 9.9 8.6-9.9h-5.2v-16.8h19.1c6.3 0 11.4-5.1 11.4-11.4 0-5.3-3.7-9.9-8.9-11.1l-.4-.1v-.4c.1-.8.1-1.6.2-2.4 0-10.8-8.8-19.5-19.6-19.5-9.3 0-17.3 6.6-19.1 15.7l-.1.5-.5-.2c-5.7-2.6-12.5-.2-15.1 5.6-.7 1.5-1 3.1-1.1 4.7 0 .4 0 .8.1 1.2v.5h-1.2c-4.7 0-8.5 3.8-8.5 8.5 0 3.9 2.7 7.3 6.5 8.3l1.3.2h29.3v16.8z" /><path fill="#fff" d="M37.558 194.74v-16h5.7l-9.5-11-9.5 11h5.7v16z" /><path fill="#00000c" d="M37.958 195.14h-8.5v-16h-6.2l10.5-12.1 10.4 12.1h-6.2zm-7.6-.8h6.8v-16h5.2l-8.5-9.9-8.6 9.9h5.2z" /><path fill="#fff" d="M37.158 195.74h-6.8v-2h6.8zm24.8-188.1c3.5 3.7 5.7 8.4 6.2 13.5l-6.9-.3-.4 8.2 6.6.3c-1.4 5-4.4 9.5-8.6 12.5l-3.1-6.3-7.5 3.7 3 6.2c-5 1.4-10.3 1-15-1l3.7-5.9-4-2.5-3.7-3-4.5 5.3c-3.4-3.9-5.3-8.8-5.5-14l6.8 1 1.2-8.2-6.9-1c1.7-4.9 4.9-9.2 9.3-12l2.3 6.2 7.8-2.9-2.4-6.5c5-1.1 10.1-.4 14.7 1.8l-4 5.5 3.4 2.4 3.4 2.5zm-10 6.5c5.1 3.7 6.2 10.8 2.5 15.8s-10.8 6.2-15.8 2.5-6.2-10.7-2.5-15.8c3.7-5 10.8-6.2 15.8-2.5z" /><path fill="#6d6e70" d="M44.458 46.74c-1.5 0-2.9-.2-4.3-.5l.2-.8c1.4.3 2.7.5 4.1.5v.8zm2.6 0l-.1-.8c1.4-.1 2.8-.3 4.2-.7l.2.8c-1.4.3-2.8.6-4.3.7zm-9.4-1.2l-1.5-.6-.5-.2 1.7-2.7.7.5-1.1 1.8 1 .4zm12.3-2l-1.9-3.8.8-.4 1.9 3.8zm9.6-1.7l-.5-.7c1.1-.9 2.1-1.8 3-2.8l.6.6c-.9 1.1-1.9 2.1-3.1 2.9zm-20.1-1.4l-.7-.5.7-1.1-1.7-1.1.4-.7 2.4 1.5zm18.2 0l-1.9-3.8.8-.4 1.9 3.8zm-7-1.7l-.5-.8 3.8-1.9.4.8zm-22.2-.4l-.7-.5 2.7-3.3.7.5zm-2.3-1.3c-.8-1.2-1.6-2.4-2.2-3.7l.8-.4c.6 1.3 1.3 2.5 2.1 3.6zm38.2-.1l-.7-.5c.8-1.1 1.5-2.3 2.1-3.6l.8.3c-.6 1.4-1.4 2.6-2.2 3.8zm-28.9-.6l-3.3-2.7.5-.7 3.3 2.7zm9.8-1.2c-1 0-2-.1-3-.4l.2-.8c1.3.3 2.7.4 4.1.3l.1.8c-.4.1-.9.1-1.4.1zm4-.7l-.3-.8a9.4 9.4 0 0 0 3.5-2l.6.6c-1.2 1-2.4 1.7-3.8 2.2zm-9.4-.7c-.5-.3-1-.6-1.4-.9-.7-.5-1.4-1.1-2-1.8l.6-.6c.5.6 1.2 1.2 1.8 1.7.4.3.9.6 1.3.8zm-16.8-2.9c-.5-1.4-.8-2.8-1-4.2l.8-.1c.2 1.4.5 2.7 1 4zm44.4-.1l-.8-.3c.1-.2.2-.5.2-.7l-2.4-.1v-.8l3.5.2-.1.5c-.1.4-.2.8-.4 1.2zm-12.6-.5l-.7-.5c.8-1.1 1.4-2.4 1.8-3.7l.8.2c-.4 1.5-1.1 2.8-1.9 4zm7.1-.7l-1.5-.1.2-3.6h.8l-.1 2.7h.7zm-27-.7c-.7-1.3-1.1-2.7-1.3-4.2l.8-.1c.2 1.4.6 2.7 1.2 3.9zm-8.2-3.4l-4.2-.6.1-.8 4.2.6zm2.8-.2l-.8-.2.6-4.2.8.2zm27.5-1.5h-.9v-.4c0-1.2-.2-2.5-.6-3.7l.8-.3c.5 1.3.7 2.6.7 4zm4.5-.3h-.8l.1-3 2 .1v.9h-1.2zm-27.1-1.3l-.8-.1c.2-1.5.6-2.9 1.3-4.2l.8.4c-.7 1.2-1.1 2.5-1.3 3.9zm34.1-.6l-3.2-.1v-.9l2.2.1c0-.3-.1-.6-.1-1l.8-.1c.1.5.2 1 .2 1.5zm-38-3.1l-.8-.1.1-.8-2.5-.4.1-.8 3.4.5zm24-1c-1.3-2.1-3.3-3.6-5.6-4.5l.3-.8c1.1.4 2.1.9 3 1.6 1.2.9 2.2 1.9 3 3.2zm12.4-.2c-.4-1.3-.9-2.6-1.5-3.9l.8-.4c.6 1.3 1.2 2.6 1.6 4zm-42.1-.4l-1.9-.3.2-.5c.3-.9.7-1.8 1.1-2.7l.8.4-.9 2.1.9.1zm12.2-.6l-.7-.5c1-1.1 2.1-2 3.4-2.7l.4.8c-1.1.5-2.2 1.3-3.1 2.4zm21-2.5l-1.2-.9.5-.7.6.4 1.6-2.2.7.5zm-15.5-1l-.2-.8c1.4-.4 2.9-.5 4.4-.3l-.1.8c-1.4-.1-2.8 0-4.1.3zm-16.5-1.2l-.7-.5c.3-.5.6-1 1-1.5.5-.7 1-1.4 1.6-2l.6.6c-.6.6-1.1 1.3-1.6 1.9-.3.6-.6 1-.9 1.5zm28.6-.2l-3.4-2.5.5-.7 3.4 2.5zm9.5-.2c-.7-1-1.4-2-2.2-2.9l-.4.5-.7-.5 1-1.4.3.4c1 1 1.9 2.2 2.7 3.4zm-29.4-.3l-1.3-3.4.8-.3 1 2.6.6-.2.3.8zm3.8-1.4l-.3-.8 4-1.5.3.8zm14.2-2.6l-.7-.5 2.5-3.4.7.5zm-22.4-.4l-.6-.6c.9-.8 1.8-1.4 2.7-2.1l.5-.3.5 1.3-.8.3-.1-.3c-.8.6-1.5 1.1-2.2 1.7zm11.4-.8l-1.5-4 .8-.3 1.5 4zm11.4-3.3c-1.3-.5-2.6-.8-4-1.1l.2-.8c1.4.2 2.8.6 4.1 1.1zm-10.7-1.3l-.1-.8c1.5-.2 2.9-.3 4.4-.2l-.1.8c-1.4 0-2.8 0-4.2.2z" /><path fill="#fff" d="M272.358 195.54c5.3 6.1 4.7 15.3-1.3 20.7-6.1 5.3-15.3 4.7-20.7-1.3-5.3-6.1-4.7-15.3 1.3-20.7 6-5.4 15.3-4.8 20.7 1.3-.1 0 0 0 0 0z" /><path fill="#00000c" d="M261.358 220.34h-1c-8.3-.5-14.6-7.7-14.1-16 .2-4 2.1-7.8 5.1-10.4 6.3-5.5 15.8-4.9 21.3 1.4 5.5 6.3 4.8 15.8-1.4 21.3-2.8 2.3-6.3 3.7-9.9 3.7zm0-29.3c-7.5 0-13.7 5.8-14.2 13.3-.5 7.8 5.5 14.6 13.3 15.1 3.8.2 7.5-1 10.3-3.5 5.9-5.2 6.5-14.2 1.3-20.1-2.7-3.1-6.6-4.8-10.7-4.8zm42.6 29.3h-1c-8.3-.5-14.6-7.7-14.1-16 .2-4 2.1-7.8 5.1-10.4 6.3-5.5 15.8-4.9 21.3 1.4 5.5 6.3 4.8 15.8-1.4 21.3-2.8 2.3-6.3 3.7-9.9 3.7zm0-29.3c-7.5 0-13.7 5.8-14.2 13.3-.5 7.8 5.5 14.6 13.3 15.1 3.8.2 7.5-1 10.3-3.5 5.9-5.2 6.5-14.2 1.3-20.1-2.7-3.1-6.6-4.8-10.7-4.8z" /><path fill="#00000c" d="M261.358 203.64c.9 0 1.5.7 1.5 1.5 0 .9-.7 1.5-1.5 1.5-.9 0-1.5-.7-1.5-1.5s.6-1.5 1.5-1.5zm19.4.7l-17-19.3h32.4l1.5 3.4zm-15-18.4l15.1 17.2 15.8-14.8-1-2.4z" /><path fill="#00000c" d="M294.458 178.94l4.3-2.8 1.6 1.3-.5.7-1.1-.9-3.4 2.1 1 6.1 8.4 19.6-.8.4-8.4-19.8zm-29.9 7c-1.5 0-3.1-.1-4.6-.5-.2-.1-.9-.4-.5-1.7.4-1.3 2.3-3.4 3.8-2.9 1.4.4 2.8.7 4.2.9 1.9.3 3.1.6 3.5 1.3.3.5.2 1.1-.2 1.5-.8 1.1-3.6 1.4-6.2 1.4zm-4.2-1.2c1.7.6 8.7.6 9.9-.7.2-.1.2-.4 0-.6-.1-.3-1.7-.6-2.9-.8-1.5-.2-2.9-.6-4.3-1-.9-.3-2.4 1.3-2.8 2.4 0 .3 0 .6.1.7zm62.3-74.6c1.4 0 2.5 1.1 2.5 2.5s-1.1 2.5-2.5 2.5-2.5-1.1-2.5-2.5c0-1.3 1.1-2.5 2.5-2.5z" /><path fill="#00000c" d="M322.658 115.34c-1.4 0-2.6-1.2-2.6-2.6 0-1.4 1.2-2.6 2.6-2.6 1.4 0 2.6 1.2 2.6 2.6 0 1.4-1.1 2.6-2.6 2.6zm0-5c-1.4 0-2.5 1.1-2.4 2.5 0 1.4 1.1 2.5 2.5 2.4 1.4 0 2.5-1.1 2.5-2.5-.1-1.3-1.2-2.5-2.6-2.4.1-.1 0-.1 0 0zm0-10.3c1.4 0 2.5 1.1 2.5 2.5s-1.1 2.5-2.5 2.5-2.5-1.1-2.5-2.5c0-1.3 1.1-2.5 2.5-2.5z" /><path fill="#00000c" d="M322.658 105.24c-1.4 0-2.6-1.2-2.6-2.6 0-1.4 1.2-2.6 2.6-2.6 1.4 0 2.6 1.2 2.6 2.6 0 1.4-1.1 2.6-2.6 2.6zm0-5.1c-1.4 0-2.5 1.1-2.5 2.5s1.1 2.5 2.5 2.5 2.5-1.1 2.5-2.5-1.1-2.5-2.5-2.5zm-3.4-17.6c-.7 0-1.2-.5-1.2-1.2v-9.1c.1-.7.7-1.2 1.3-1.1.6.1 1.1.5 1.1 1.1v9.1c.1.6-.5 1.2-1.2 1.2zm0-10.7c-.2 0-.4.2-.4.4v9.1c0 .2.2.4.4.3.2 0 .3-.2.3-.3v-9.1c.1-.3-.1-.4-.3-.4z" /><path fill="#fff" d="M314.758 80.84h15.8v8.1c0 1.9-1.5 3.4-3.4 3.4h-9c-1.9 0-3.4-1.5-3.4-3.4z" /><path fill="#00000c" d="M327.158 92.64h-9c-2.1 0-3.8-1.7-3.8-3.8v-8.5h16.7v8.5c0 2.1-1.8 3.8-3.9 3.8zm-12-11.4v7.6c0 1.7 1.3 3 3 3h9c1.7 0 3-1.3 3-3v-7.6z" /><path fill="#fff" d="M312.558 78.64h20.3c.3 0 .6.3.6.6v1c0 .3-.3.6-.6.6h-20.3c-.3 0-.6-.3-.6-.6v-1c0-.4.3-.6.6-.6z" /><path fill="#00000c" d="M332.758 81.24h-20.3c-.6 0-1-.4-1-1v-1c0-.6.4-1 1-1h20.3c.6 0 1 .4 1 1v1c.1.5-.4 1-1 1zm-20.2-2.2c-.1 0-.2.1-.2.2v1c0 .1.1.2.2.2h20.3c.1 0 .2-.1.2-.2v-1c0-.1-.1-.2-.2-.2zm-171.3 131.3c1.4 0 2.5 1.1 2.5 2.5s-1.1 2.5-2.5 2.5-2.5-1.1-2.5-2.5 1.1-2.5 2.5-2.5z" /><path fill="#00000c" d="M141.258 215.44c-1.4 0-2.6-1.2-2.6-2.6 0-1.4 1.2-2.6 2.6-2.6 1.4 0 2.6 1.2 2.6 2.6 0 1.5-1.2 2.6-2.6 2.6zm0-5c-1.4 0-2.5 1.1-2.5 2.5s1.1 2.5 2.5 2.5 2.5-1.1 2.5-2.5-1.1-2.5-2.5-2.5zm209.8 19.6l-.5-.6 3.3-2.7.5.6zm5.2-4.3l-.5-.7.5-.4h-.6v-.9h.6l-1-.8.5-.6 2.3 1.9zm-3.2-1.1h-4.3v-.9h4.3zm-6.8 0h-4.3v-.9h4.3zm-6.8 0h-4.3v-.9h4.3zm-6.8 0h-4.3v-.9h4.3zm-6.8 0h-4.3v-.9h4.3zm-6.8 0h-4.3v-.9h4.3zm-6.8 0h-4.3v-.9h4.3zm-6.8 0h-4.3v-.9h4.3zm-6.8 0h-4.3v-.9h4.3zm-6.8 0h-4.3v-.9h4.3zm-6.8 0h-4.3v-.9h4.3zm-6.8 0h-4.3v-.9h4.3zm-6.8 0h-4.3v-.9h4.3zm-6.8 0h-4.3v-.9h4.3zm-6.8 0h-4.3v-.9h4.3zm-6.8 0h-4.3v-.9h4.3zm-6.8 0h-4.3v-.9h4.3zm-6.8 0h-4.3v-.9h4.3zm-6.8 0h-4.3v-.9h4.3zm-6.8 0h-4.3v-.9h4.3zm-6.8 0h-4.3v-.9h4.3zm-6.8 0h-4.3v-.9h4.3zm-6.8 0h-4.3v-.9h4.3zm-6.8 0h-4.3v-.9h4.3zm-6.8 0h-4.3v-.9h4.3zm-6.8 0h-4.3v-.9h4.3zm-6.8 0h-4.3v-.9h4.3zm-6.8 0h-2.4v-2.7h.9v1.9h1.6zm183.8-3.3l-2.8-2.3.5-.6 2.8 2.3zm-185.4-1.9h-.9v-4.3h.9zm0-6.8h-.9v-4.2h.9zm0-6.8h-.9v-4.3h.9zm0-6.8h-.9v-4.3h.9zm0-6.8h-.9v-4.2h.9zm0-6.8h-.9v-4.3h.9zm0-6.8h-.9v-4.3h.9zm0-6.8h-.9v-4.2h.9zm0-6.8h-.9v-4.3h.9zm0-6.8h-.9v-4.2h.9zm0-6.8h-.9v-4.2h.9zm0-6.8h-.9v-4.3h.9zm0-6.8h-.9v-4.3h.9zm0-6.8h-.9v-4.2h.9zm0-6.7h-.9v-4.3h.9zm0-6.8h-.9v-4.3h.9zm-1.7-5.1h-4.3v-.8h4.3zm-6.8 0h-2.8v-2.4h.9v1.5h1.9zm-1.9-4.9h-.9v-4.3h.9zm0-6.8h-.9v-4.3h.9zm0-6.8h-.9v-4.2h.9zm-2.9-4h-4.3v-.8h4.3zm-6.8 0h-4.3v-.8h4.3zm-6.8 0h-4.3v-.8h4.3zm-6.8 0h-4.3v-.8h4.2z" /><path fill="#fff" d="M263.358 103.54c2.3 2.6 2.6 6.4.9 9.4-1.9 3.2-3.2 5.3-3.7 9h-6.4c-.5-3.8-1.8-5.8-3.7-9-2.4-3.7-1.4-8.6 2.2-11.1 3.4-2.3 8.1-1.5 10.7 1.7z" /><path fill="#00000c" d="M260.858 122.44h-7.1v-.4c-.5-3.6-1.7-5.6-3.5-8.7l-.1-.2c-2.4-4-1.1-9.2 2.9-11.6 4-2.4 9.2-1.1 11.6 2.9 1.6 2.7 1.6 6 0 8.6l-.1.2c-1.8 3.1-3 5.1-3.5 8.7zm-6.4-.9h5.7c.5-3.5 1.8-5.6 3.6-8.6l.1-.2c1.7-2.8 1.4-6.4-.8-8.9-2.8-3.1-7.6-3.4-10.7-.6-2.7 2.4-3.3 6.4-1.5 9.5l.1.2c1.7 3.1 3 5.1 3.5 8.6z" /><path fill="#00000c" d="M260.458 126.74h-6.3v-5.2h6.4zm-5.5-.9h4.7v-.6h-4.7zm0-1.4h4.7v-.6h-4.7zm0-1.4h4.7v-.6h-4.7z" /><path fill="#fff" d="M258.158 113.54c.4.5.4 1.2-.1 1.6-.5.4-1.2.4-1.7-.1-.4-.5-.4-1.2.1-1.7.5-.3 1.3-.3 1.7.2z" /><path fill="#00000c" d="M257.258 115.94c-.5 0-.9-.2-1.2-.5-.3-.3-.4-.7-.4-1.2.1-.9.8-1.5 1.7-1.5.4 0 .8.2 1.1.5.6.7.5 1.7-.1 2.2-.3.3-.7.5-1.1.5zm0-2.4c-.2 0-.4.1-.5.2-.1.1-.2.3-.3.5 0 .2.1.4.2.5.1.1.3.2.5.3.2 0 .4-.1.5-.2.3-.3.3-.7.1-1 0-.1-.2-.2-.5-.3z" /><path fill="#00000c" d="M256.858 115.539h.9v6.5h-.9z" /></svg>