<?xml version="1.0" encoding="UTF-8"?>
<!DOCTYPE svg PUBLIC "-//W3C//DTD SVG 1.1//EN" "http://www.w3.org/Graphics/SVG/1.1/DTD/svg11.dtd">
<!-- Creator: CorelDRAW -->
<svg xmlns="http://www.w3.org/2000/svg" xml:space="preserve" width="4.72043in" height="4.69074in" style="shape-rendering:geometricPrecision; text-rendering:geometricPrecision; image-rendering:optimizeQuality; fill-rule:evenodd; clip-rule:evenodd"
viewBox="0 0 4.87662 4.84595"
 xmlns:xlink="http://www.w3.org/1999/xlink">
 <defs>
  <style type="text/css">
   <![CDATA[
    .fil9 {fill:#23433E}
    .fil16 {fill:#29635C}
    .fil17 {fill:#2B4C46}
    .fil6 {fill:#41BFB5}
    .fil11 {fill:#446B63}
    .fil13 {fill:#6D9792}
    .fil8 {fill:#78D8E7}
    .fil2 {fill:#94CA6D}
    .fil7 {fill:#9CA499}
    .fil5 {fill:#ACADAC}
    .fil4 {fill:#ACD590}
    .fil15 {fill:#B9C7C7}
    .fil14 {fill:#D0D4D8}
    .fil12 {fill:#D2C96D}
    .fil3 {fill:#D84955}
    .fil0 {fill:#E6F1F3}
    .fil1 {fill:#F9C54C}
    .fil10 {fill:#FDE7B4}
   ]]>
  </style>
 </defs>
 <g id="Layer_x0020_1">
  <metadata id="CorelCorpID_0Corel-Layer"/>
  <g id="_116986056">
   <polygon id="_117205040" class="fil0" points="4.26321,0.444724 4.26321,0.437053 4.25555,0.437053 4.25555,0.444724 "/>
   <polygon id="_116977248" class="fil0" points="4.07919,0.559739 4.07919,0.552068 4.07152,0.552068 4.07152,0.559739 "/>
   <polygon id="_116988600" class="fil1" points="2.50732,0.00766682 2.46132,0.0153336 2.43065,0.0230005 2.40764,0.0306713 2.38464,0.0383382 2.36164,0.046005 2.33863,0.0536718 2.3233,0.0613386 2.30796,0.0690095 2.29263,0.0766763 2.27729,0.0843431 2.26196,0.0920099 2.24662,0.0996768 2.23128,0.107348 2.21595,0.115014 2.20828,0.122681 2.19295,0.130348 2.17761,0.138015 2.16995,0.145686 2.15461,0.153353 2.14694,0.161019 2.13927,0.168686 2.12394,0.176357 2.11627,0.184024 2.10094,0.191691 2.09327,0.199358 2.0856,0.207024 2.07026,0.214695 2.0626,0.222362 2.05493,0.230029 2.04726,0.237696 2.03959,0.245363 2.02426,0.253029 2.01659,0.2607 2.00892,0.268367 2.00125,0.276034 1.99359,0.283701 1.98592,0.291372 1.97825,0.299038 1.97059,0.306705 1.96292,0.314372 1.95525,0.322039 1.94758,0.32971 1.93992,0.337377 1.93225,0.345043 1.92458,0.35271 1.91691,0.360381 1.90924,0.368048 1.90158,0.375715 1.89391,0.383382 1.88624,0.391048 1.87857,0.398715 1.87091,0.406386 1.86324,0.414053 1.85557,0.42172 1.8479,0.429387 1.84024,0.437053 1.83257,0.452391 1.8249,0.460058 1.81723,0.467725 1.80956,0.475396 1.8019,0.483062 1.79423,0.490729 1.78656,0.506063 1.77889,0.51373 1.77123,0.521401 1.76356,0.529067 1.75589,0.544401 1.74822,0.552068 1.74055,0.559739 1.73289,0.575072 1.72522,0.582739 1.71755,0.59041 1.70989,0.598077 1.70222,0.61341 1.69455,0.621081 1.68688,0.636415 1.67922,0.644082 1.67155,0.651749 1.66388,0.667086 1.65621,0.674753 1.64854,0.690087 1.64088,0.697754 1.63321,0.713091 1.62554,0.720758 1.61787,0.736096 1.61021,0.743763 1.60254,0.759096 1.59487,0.774434 1.5872,0.789768 1.57954,0.820439 1.57954,0.828106 1.5872,0.858777 1.60254,0.866444 1.61787,0.874111 1.62554,0.881778 1.64088,0.889448 1.67155,0.889448 1.68688,0.881778 1.70222,0.874111 1.70989,0.866444 1.71755,0.85111 1.72522,0.843439 1.73289,0.828106 1.74055,0.820439 1.74822,0.805101 1.75589,0.797434 1.76356,0.782101 1.77123,0.774434 1.77889,0.759096 1.78656,0.751429 1.79423,0.736096 1.8019,0.728425 1.80956,0.720758 1.81723,0.705424 1.8249,0.697754 1.83257,0.68242 1.84024,0.674753 1.8479,0.667086 1.85557,0.651749 1.86324,0.644082 1.87091,0.636415 1.87857,0.628748 1.88624,0.61341 1.89391,0.605744 1.90158,0.598077 1.90924,0.59041 1.91691,0.582739 1.92458,0.567406 1.93225,0.559739 1.93992,0.552068 1.94758,0.544401 1.95525,0.536734 1.96292,0.529067 1.97059,0.521401 1.97825,0.51373 1.98592,0.498396 1.99359,0.490729 2.00125,0.483062 2.00892,0.475396 2.01659,0.467725 2.02426,0.460058 2.03193,0.452391 2.03959,0.444724 2.04726,0.437053 2.05493,0.429387 2.07026,0.42172 2.07793,0.414053 2.0856,0.406386 2.09327,0.398715 2.10094,0.391048 2.1086,0.383382 2.11627,0.375715 2.13161,0.368048 2.13927,0.360381 2.14694,0.35271 2.15461,0.345043 2.16995,0.337377 2.17761,0.32971 2.18528,0.322039 2.20062,0.314372 2.20828,0.306705 2.22362,0.299038 2.23128,0.291372 2.24662,0.283701 2.25429,0.276034 2.26963,0.268367 2.28496,0.2607 2.29263,0.253029 2.30796,0.245363 2.3233,0.237696 2.33863,0.230029 2.35397,0.222362 2.37697,0.214695 2.39231,0.207024 2.41531,0.199358 2.44598,0.191691 2.46898,0.184024 2.50732,0.176357 2.67601,0.176357 2.71435,0.184024 2.73735,0.191691 2.76802,0.199358 2.78336,0.207024 2.80636,0.214695 2.8447,0.214695 2.86003,0.207024 2.8677,0.199358 2.87537,0.191691 2.88304,0.184024 2.8907,0.168686 2.89837,0.153353 2.90604,0.130348 2.90604,0.0996768 2.89837,0.0843431 2.8907,0.0766763 2.87537,0.0690095 2.86003,0.0613386 2.8447,0.0536718 2.82936,0.046005 2.81403,0.0383382 2.79103,0.0306713 2.76802,0.0230005 2.73735,0.0153336 2.69901,0.00766682 2.61467,0 2.584,0 "/>
   <path id="_116904152" class="fil1" d="M2.24662 0.659415l-0.0153377 0.00767088 -0.0153336 0.00766682 -0.00766682 0.00766682 -0.0153377 0.00766682 -0.00766682 0.00766682 -0.00766682 0.00767088 -0.00766682 0.00766682 -0.00767088 0.00766682 -0.00766682 0.00766682 -0.00766682 0.00767088 -0.00766682 0.00766682 -0.00766682 0.0153336 -0.00766682 0.00766682 -0.00767088 0.00767088 -0.00766682 0.0153336 -0.00766682 0.0153336 -0.00766682 0.0153377 -0.00766682 0.0153336 -0.00767088 0.0153377 -0.00766682 0.0306673 -0.00766682 0.0306713 0 0.0766763 0.00766682 0.0230045 0.00766682 0.0153336 0.00767088 0.0153377 0.00766682 0.00766682 0.00766682 0.00766682 0.0153336 0c0.0226791,0.0120025 0.0400505,0.0306713 0.0690095,0.0306713l0.0306713 0c0.029077,0 0.0657923,-0.0259126 0.0843431,-0.0383382l0.00766682 0 0.00767088 -0.00766682 0.0153336 -0.00766682 0.00766682 -0.0153377 0.00767088 -0.00766682 0.00766682 -0.00766682 0.00766682 -0.00767088 0.00766682 -0.00766682 0.00766682 -0.0153336 0.00767088 -0.00766682 0.00766682 -0.0153377 0.00766682 -0.0153336 0.00766682 -0.0153377 0.00766682 -0.0230005 0.00766682 -0.0153377 0.00767088 -0.0306673 0 -0.107348 -0.00767088 -0.0153377 -0.00766682 -0.0153336 -0.00766682 -0.00766682 -0.00766682 -0.00767088 -0.00766682 -0.00766682 -0.00766682 -0.00766682 -0.0153377 -0.00766682 -0.0153336 -0.00766682 -0.00766682 -0.00767088 -0.0230045 -0.00766682 -0.0536718 0 -0.0230045 0.00766682z"/>
   <polygon id="_116899928" class="fil1" points="2.3693,0.306705 2.3463,0.314372 2.3233,0.322039 2.30029,0.32971 2.28496,0.337377 2.26963,0.345043 2.25429,0.35271 2.23895,0.360381 2.22362,0.368048 2.20828,0.375715 2.20062,0.383382 2.18528,0.391048 2.17761,0.398715 2.16995,0.406386 2.15461,0.414053 2.14694,0.42172 2.13927,0.429387 2.12394,0.437053 2.11627,0.444724 2.1086,0.452391 2.10094,0.460058 2.09327,0.467725 2.0856,0.475396 2.07793,0.483062 2.07026,0.490729 2.05493,0.498396 2.04726,0.506063 2.03959,0.51373 2.03193,0.521401 2.02426,0.536734 2.01659,0.544401 2.00892,0.552068 2.00125,0.559739 1.99359,0.567406 1.98592,0.575072 1.97825,0.582739 1.97059,0.59041 1.96292,0.598077 1.95525,0.61341 1.94758,0.621081 1.93992,0.628748 1.93225,0.636415 1.92458,0.651749 1.91691,0.659415 1.90924,0.667086 1.90158,0.68242 1.89391,0.690087 1.88624,0.697754 1.87857,0.713091 1.87091,0.720758 1.86324,0.736096 1.85557,0.743763 1.8479,0.759096 1.84024,0.766763 1.83257,0.782101 1.8249,0.789768 1.81723,0.805101 1.80956,0.835773 1.80956,0.858777 1.81723,0.874111 1.8249,0.881778 1.83257,0.889448 1.8479,0.897115 1.86324,0.904782 1.87857,0.912449 1.90158,0.912449 1.91691,0.904782 1.92458,0.897115 1.93225,0.889448 1.93992,0.881778 1.94758,0.874111 1.95525,0.866444 1.96292,0.85111 1.97059,0.843439 1.97825,0.828106 1.98592,0.820439 1.99359,0.805101 2.00125,0.797434 2.00892,0.782101 2.01659,0.774434 2.02426,0.759096 2.03193,0.751429 2.03959,0.743763 2.04726,0.736096 2.05493,0.720758 2.0626,0.713091 2.07026,0.705424 2.07793,0.697754 2.0856,0.690087 2.09327,0.68242 2.10094,0.667086 2.1086,0.659415 2.11627,0.651749 2.12394,0.644082 2.13161,0.636415 2.13927,0.628748 2.14694,0.621081 2.15461,0.61341 2.16227,0.605744 2.16995,0.598077 2.18528,0.59041 2.19295,0.582739 2.20062,0.575072 2.20828,0.567406 2.21595,0.559739 2.23128,0.552068 2.23895,0.544401 2.25429,0.536734 2.26196,0.529067 2.27729,0.521401 2.29263,0.51373 2.30029,0.506063 2.3233,0.498396 2.33863,0.490729 2.35397,0.483062 2.38464,0.475396 2.50732,0.475396 2.53799,0.483062 2.55333,0.490729 2.56866,0.498396 2.62234,0.498396 2.63,0.490729 2.63767,0.483062 2.64534,0.475396 2.65301,0.467725 2.66067,0.460058 2.66834,0.444724 2.67601,0.42172 2.67601,0.383382 2.66834,0.368048 2.65301,0.360381 2.64534,0.35271 2.63,0.345043 2.61467,0.337377 2.59933,0.32971 2.584,0.322039 2.56099,0.314372 2.53799,0.306705 2.49198,0.299038 2.41531,0.299038 "/>
   <polygon id="_79603848" class="fil2" points="0.989125,0.812768 0.985676,0.9136 0.981458,0.897115 0.973792,0.889448 0.966125,0.881778 0.958454,0.866444 0.950787,0.858777 0.94312,0.85111 0.927787,0.85111 0.912449,0.858777 0.897115,0.866444 0.897115,1.0428 0.912449,1.0428 0.927787,1.03513 0.935453,1.02746 0.938902,0.926636 0.94312,0.94312 0.950787,0.950787 0.958454,0.966125 0.966125,0.973792 0.973792,0.989125 0.981458,0.996792 0.989125,0.996792 1.00446,0.989125 1.0198,0.981458 1.02746,0.973792 1.02746,0.805101 1.00446,0.805101 "/>
   <polygon id="_81272440" class="fil3" points="4.29389,0.94312 4.27855,0.950787 4.27088,0.958454 4.25555,0.966125 4.24021,0.973792 4.22488,0.981458 4.21721,0.989125 4.20187,0.996792 4.18654,1.00446 4.1712,1.01213 4.16353,1.0198 4.1482,1.02746 4.13286,1.03513 4.11753,1.0428 4.10986,1.05047 4.10986,1.11948 4.11753,1.12714 4.13286,1.12714 4.14053,1.11948 4.15587,1.11181 4.1712,1.10414 4.18654,1.09647 4.1942,1.08881 4.20954,1.08114 4.22488,1.07347 4.24021,1.0658 4.24788,1.05813 4.26321,1.05047 4.27855,1.0428 4.28622,1.03513 4.30155,1.02746 4.31689,1.0198 4.32455,1.01213 4.32455,0.935453 4.30922,0.935453 "/>
   <polygon id="_81272776" class="fil4" points="0.805101,0.920116 0.789768,0.927783 0.782101,0.935453 0.774434,0.94312 0.766763,0.950787 0.759096,0.966125 0.751429,0.973792 0.743763,0.996792 0.736092,1.0198 0.736092,1.07347 0.743763,1.09647 0.751429,1.10414 0.766763,1.11181 0.789768,1.11181 0.812768,1.10414 0.820439,1.09647 0.828106,1.08881 0.835773,1.08114 0.85111,1.07347 0.858777,1.05813 0.866444,1.05047 0.874111,1.03513 0.881778,1.01213 0.881778,0.935453 0.874111,0.920116 0.866444,0.912449 0.812768,0.912449 "/>
   <polygon id="_81273304" class="fil3" points="4.29389,1.0428 4.27855,1.05047 4.26321,1.05813 4.24788,1.0658 4.24021,1.07347 4.22488,1.08114 4.20954,1.08881 4.1942,1.09647 4.18654,1.10414 4.1712,1.11181 4.15587,1.11948 4.14053,1.12714 4.13286,1.13481 4.11753,1.14248 4.10986,1.15015 4.10986,1.20382 4.11753,1.21149 4.13286,1.21149 4.1482,1.20382 4.15587,1.19615 4.1712,1.18849 4.18654,1.18082 4.20187,1.17315 4.20954,1.16548 4.22488,1.15782 4.24021,1.15015 4.25555,1.14248 4.26321,1.13481 4.27855,1.12714 4.29389,1.11948 4.30922,1.11181 4.31689,1.10414 4.32455,1.09647 4.32455,1.03513 4.30155,1.03513 "/>
   <polygon id="_81273160" class="fil0" points="0.981458,1.13481 0.981458,1.12714 0.973792,1.12714 0.973792,1.13481 "/>
   <polygon id="_81273136" class="fil5" points="1.07347,1.02746 1.05813,1.03513 1.05047,1.0428 1.03513,1.05047 1.0198,1.05813 1.00446,1.0658 0.996792,1.07347 0.981458,1.08114 0.966125,1.08881 0.958454,1.09647 0.94312,1.10414 0.927787,1.11181 0.912449,1.11948 0.904782,1.12714 0.889448,1.13481 0.874111,1.14248 0.858777,1.15015 0.85111,1.15782 0.835773,1.16548 0.820439,1.17315 0.812768,1.18082 0.797434,1.18849 0.782101,1.19615 0.766763,1.20382 0.759096,1.21149 0.743763,1.21915 0.743763,1.83257 0.759096,1.83257 0.766763,1.23449 0.782101,1.22683 0.789768,1.21915 0.805101,1.21149 0.820439,1.20382 0.835773,1.19615 0.85111,1.18849 0.858777,1.18082 0.874111,1.17315 0.889448,1.16548 0.897115,1.15782 0.912449,1.15015 0.927787,1.14248 0.94312,1.13481 0.950787,1.12714 0.966125,1.11948 0.981458,1.11181 0.989125,1.10414 1.00446,1.09647 1.0198,1.08881 1.03513,1.08114 1.0428,1.07347 1.05813,1.0658 1.07347,1.05813 1.08881,1.05047 1.09647,1.0428 1.11181,1.03513 1.11181,1.02746 1.10414,1.0198 1.08881,1.0198 "/>
   <path id="_81273256" class="fil6" d="M2.50732 2.15461l-0.00766682 0.0996808c0.00915951,0.0393265 0.00632462,0.0374515 0.036695,0.0323145l0.0248755 0.0218453 0.0764445 -0.0388262 0.00143575 -0.0445082 0.0445692 -0.0398349c0,-0.0475749 -0.0015659,-0.046005 0.046009,-0.046005 0.00468957,-0.00700385 0.0124784,-0.0230005 0.0230005,-0.0230005 0.0396193,0 0.116873,0.0785635 0.145686,0.0996768l0 -0.046005c-0.0310089,-0.00722755 -0.0843431,-0.0439876 -0.0843431,-0.0766763l-0.000370122 -0.0325138 -0.0456348 0.00950929 0.000390459 -0.0291054 0.0379477 -0.00923272 0.000183027 -0.0223334 0.0534888 -0.0160047c0.00400627,0.0171964 0.00766682,0.0176316 0.00766682,0.0383382l0.000101682 0.0290566 -0.0384398 0.00161471c0.0219918,0.0328351 0.0602364,0.0690095 0.116166,0.0724585l-0.0164847 0.00421777c0.000963945,0.0431945 0.0101641,0.0529926 0.049755,0.0599679l-0.0181645 -0.0427552 0.0604235 -0.0325464c0,-0.0299026 0.00677608,-0.115019 0.0306673,-0.115019 0.0251805,0 0.0219836,0.0195229 0.0316231,0.0363167l0.0279625 -0.0928275 0.0108393 0.00303419 -0.00908223 0.0764811c0.0317736,0.00740244 0.0690095,0.0148659 0.0690095,0.0536759 0,0.00933033 -0.0158583,0.0230005 -0.0306713,0.0230005 -0.0233543,0 -0.0280439,-0.00348159 -0.0480711,-0.0102455l-0.0869258 0.0743864 0.0438086 0.0613793 0.0911884 -0.0258394c0.00233868,0.0280968 0.00832978,0.0218372 0.00650358,0.0382893l-0.00367275 0.0918676 0.0104773 0.00203771 0.0178147 -0.0730198 0.0263844 -0.0936775 0.0217193 -0.0249283 0.0434548 0.0977692 0.00231428 -0.0803247 0.18171 -0.103699 0.00183027 0.081191 0.297208 0.171842 0.000484006 -0.482229 0.359897 -0.207862 0 -0.00766682 -0.0153377 -0.00766682 -0.0153336 -0.00766682 -0.0153336 -0.00767088 -0.00767088 -0.00766682 -0.0153336 -0.00766682 -0.0153336 -0.00766682 -0.00767088 -0.00766682 -0.0153336 -0.00766682 -0.0153336 -0.00767088 -0.0153377 -0.00766682 -0.00766682 -0.00766682 -0.0153336 -0.00766682 -0.0153377 -0.00767088 -0.00766682 -0.00766682 -0.0153377 -0.00766682 -0.0153336 -0.00766682 -0.0153336 -0.00767088 -0.00766682 -0.00766682 -0.0153377 -0.00766682 -0.0153336 -0.00766682 -0.00766682 -0.00766682 -0.0153377 -0.00766682 -0.0153336 0 -0.00767088 0.00766682 -0.0153336 0.00766682 -0.0153336 0.00766682 -0.00767088 0.00766682 -0.0153336 0.00766682 -0.0153336 0.00767088 -0.0153377 0.00766682 -0.00766682 0.00766682 -0.0153336 0.00766682 -0.0153377 0.00767088 -0.0153336 0.00766682 -0.00767088 0.00766682 -0.0153336 0.00766682 -0.0153336 0.00767088 -0.00766682 0.00766682 -0.0153377 0.00766682 -0.0153336 0.00766682 -0.0153377 0.00766682 -0.00766682 0.00766682 -0.0153336 0.00767088 -0.0153377 0.00766682 -0.0153336 0.00766682 -0.00766682 0.00766682 -0.0153377 0.00766682 -0.0153336 0.00767088 -0.0153336 0.00766682 -0.00767088 0.00766682 -0.00766682 0.00766682 0 0.199362 0.00346125 0.131157 -0.00346125 -0.0238098 -0.00766682 -0.0306713 -0.00766682 -0.0306713 -0.00767088 -0.0230045 -0.00766682 -0.0230005 -0.00766682 -0.0153377 -0.00766682 -0.0230005 -0.00766682 -0.0230045 -0.00767088 -0.0153336 -0.00766682 -0.0153377 -0.00766682 -0.0153336 -0.00766682 -0.0153377 -0.00766682 -0.0230005 -0.00767088 -0.0153377 -0.00766682 -0.00766682 -0.00766682 -0.0153336 -0.00766682 -0.0153377 -0.00766682 -0.0153336 -0.00767088 -0.00766682 -0.00766682 -0.0153377 -0.00766682 -0.0153336 -0.00766682 -0.00766682 -0.00766682 -0.0153377 -0.00767088 -0.00766682 -0.00766682 -0.00766682 -0.00766682 -0.0153336 -0.00766682 -0.00767088 -0.00767088 -0.0153336 -0.00766682 -0.00766682 -0.00766682 -0.00767088 -0.00766682 -0.00766682 -0.00766682 -0.0153336 -0.00766682 -0.00767088 -0.00767088 -0.00766682 -0.00766682 -0.00766682 -0.00766682 -0.00766682 -0.00766682 -0.00766682 -0.00767088 -0.0153377 -0.00766682 -0.00766682 -0.00766682 -0.00766682 -0.00766682 -0.00766682 -0.00766682 -0.00766682 -0.00767088 -0.00767088 -0.00766682 -0.00766682 -0.00766682 -0.00766682 -0.00766682 -0.00766682 -0.00767088 -0.00767088 -0.0153336 -0.00766682 -0.00766682 -0.00766682 -0.00766682 -0.00766682 -0.00766682 -0.00766682 -0.00767088 -0.00767088 -0.00766682 -0.00766682 -0.0153336 -0.00766682 -0.00766682 -0.00766682 -0.00767088 -0.00766682 -0.00766682 -0.00766682 -0.0153336 -0.00767088 -0.00767088 -0.00766682 -0.0153336 -0.00766682 -0.00766682 -0.00766682 -0.00766682 -0.00767088 -0.0153377 -0.00766682 -0.00766682 -0.00766682 -0.0153336 -0.00766682 -0.0153377 -0.00766682 -0.00766682 -0.00767088 -0.0153336 -0.00766682 -0.0153377 -0.00766682 -0.0153336 -0.00766682 -0.0153377 -0.00766682 -0.0153336 -0.00767088 -0.0153336 -0.00766682 -0.0153377 -0.00766682 -0.0153336 -0.00766682 -0.0153377 -0.00766682 -0.0230005 -0.00767088 -0.0153377 0 -0.230029 -0.0306673c0.00962318,0.0131332 0.297761,0.0944096 0.32971,0.138015 -0.00899275,0.00238749 -0.0209017,0.00766682 -0.0230005,0.00766682 -0.0129868,0 -0.028658,-0.0102089 -0.0421614,-0.00948082l0.149578 0.101125 -0.0483721 -0.00433165 0.031619 0.0196856 -0.00616192 0.0306022 -0.0230005 -0.00732517 0.029561 0.0700995 -0.0477986 -0.0446302 -0.00537694 0.00565352 0.0541233 0.0686312 -0.0243101 0.00118358 0.0232852 0.0294593 -0.00430725 0.0516097 -0.0636773 -0.0669148c0.0169036,-0.000378257 0.0383382,0.00234275 0.0383382,-0.0153377 0,-0.0445367 -0.0915829,-0.0766722 -0.145592,-0.0767333l-0.0165375 -0.033555 -0.0415879 0.0190471 -0.0186444 0.0682408 0.0185264 0.000105749 -0.00430318 0.138837 0.0162854 0.0218291 -0.036333 0.0236227 -0.00950929 0.0456348c0.00473838,0.00895208 0.0404938,0.0843431 0.046005,0.0843431 0.0326277,0 0.01705,-0.0306713 0.0383382,-0.0306713 0.0235861,0 0.0481972,0.068074 0.0663536,0.0903586l0.0160657 -0.0289143 0.00192382 -0.0691112 -0.0179896 -0.00165538 0.0179896 -0.0290119c-0.0462734,-0.0309886 -0.046005,-0.109609 -0.046005,-0.184024 0.0470747,0.0125679 0.0383382,0.0502309 0.0404531,0.106274l0.0208895 0.0547456c0.0205601,0.00492141 0.014451,0.00766682 0.0306673,0.00766682 0.0190674,0 0.028837,-0.0191731 0.0444187,-0.0300124l0.0169239 0.0453501 -0.043223 0.00237122 0.0194579 0.0400586 0.00843147 -0.00409575 0 0.0230045 -0.0366665 0.00388425 0.0520001 0.0804589 -0.0613427 0c-0.0251561,0 -0.0287679,0.0154679 -0.0323104,0.0399813l-0.0222846 -0.0257581 -0.0219552 0.0161756 -0.0377931 -0.014935 -0.00833792 0.0535457c-0.0499096,-0.0230818 -0.0406362,0.0903546 -0.115014,0.092014l0 0.0230005 -0.0306713 0 0 0.0153377 0.00559657 -0.00613345 0.0548066 0.0596548 -0.00692251 0.0557868 -0.107152 -0.00963131z"/>
   <polygon id="_60364472" class="fil3" points="4.34756,1.09647 4.33989,1.10414 4.32455,1.11181 4.30922,1.11948 4.29389,1.12714 4.28622,1.13481 4.27088,1.14248 4.25555,1.15015 4.24021,1.15782 4.23254,1.16548 4.21721,1.17315 4.20187,1.18082 4.1942,1.18849 4.17887,1.19615 4.16353,1.20382 4.1482,1.21149 4.14053,1.21915 4.1252,1.22683 4.10986,1.23449 4.09452,1.24216 4.08686,1.24983 4.07152,1.25749 4.05619,1.26516 4.04085,1.27283 4.04085,1.28816 4.04852,1.29583 4.05619,1.3035 4.06385,1.31117 4.07919,1.31883 4.08686,1.3265 4.09452,1.33417 4.10219,1.34184 4.11753,1.34951 4.1252,1.35717 4.13286,1.36484 4.14053,1.37251 4.15587,1.38018 4.16353,1.38784 4.1712,1.39551 4.17887,1.40318 4.1942,1.41085 4.20187,1.41852 4.22488,1.41852 4.23254,1.40318 4.24021,1.38784 4.24788,1.37251 4.25555,1.35717 4.26321,1.34184 4.27088,1.3265 4.27855,1.31117 4.28622,1.29583 4.29389,1.2805 4.30155,1.26516 4.30922,1.24983 4.31689,1.23449 4.32455,1.21915 4.33222,1.20382 4.33989,1.18849 4.34756,1.17315 4.35522,1.15782 4.36289,1.14248 4.37056,1.12714 4.37823,1.11181 4.37823,1.08881 4.36289,1.08881 "/>
   <path id="_81273040" class="fil6" d="M2.15461 1.15015l-0.107348 0.0306673 0.0153377 0 0.00124865 0.018075 0.0969558 -0.0443008 0.00448214 0.00750006 -0.0717183 0.0580034 0.0331971 -0.00704046 -0.0871699 0.159454 0.0153377 0c0,0.0527851 -0.0218331,0.090867 -0.0502593,0.118431 -0.033372,0.0323593 -0.0380819,0.0705957 -0.0494215,0.119269l0.010819 0.000203364 0.00451874 0.0994775c0.0331117,0.00275355 0.0299108,0.00432758 0.0306673,0.0383341 0.0479776,-0.0351494 0.0492995,-0.14255 0.121599,-0.191479l0.00608465 0.0209302 0.0559576 -0.0875481 0.0450451 0.00414456 0.0317166 -0.0536881 -0.0320217 0.00829725 0.00931813 -0.0533667 0.0119171 0.00264373 0.026421 0.0280276 0 -0.0383382c-0.00314807,-0.00470177 -0.0306713,-0.0448946 -0.0306713,-0.046005 0,-0.0175625 0.00259899,-0.00891547 0.00766682,-0.0306713l0.0153377 0 0 0.0153336 0.0153336 0 -0.000488073 -0.0536474 -0.00717874 -0.138043 0 -0.0230005c-0.0346979,0.000772783 -0.0496818,0.0120229 -0.0772335,0.0147805 -0.0364794,0.00365241 -0.0819963,-0.0110264 -0.0454518,0.0235577z"/>
   <polygon id="_78317872" class="fil5" points="0.828106,1.66388 0.835773,1.67155 0.85111,1.67155 0.85111,1.35717 0.835773,1.34951 0.828106,1.34951 "/>
   <polygon id="_81268128" class="fil7" points="1.08881,1.31117 1.07347,1.31883 1.0658,1.3265 1.05047,1.33417 1.03513,1.34184 1.0198,1.34951 1.01213,1.35717 1.00446,1.37251 0.996792,1.38018 0.989125,1.38784 0.981458,1.40318 0.973792,1.41085 0.966125,1.42618 0.958454,1.43385 0.950787,1.44152 0.94312,1.45685 0.935453,1.46452 0.927787,1.47985 0.920116,1.48752 0.912449,1.49519 0.904782,1.51053 0.897115,1.51819 0.889448,1.53353 0.881778,1.5412 0.881778,1.55653 0.889448,1.55653 0.904782,1.54886 0.920116,1.5412 0.935453,1.53353 0.94312,1.52586 0.958454,1.51819 0.973792,1.51053 0.981458,1.49519 0.989125,1.48752 0.996792,1.47985 1.00446,1.46452 1.01213,1.45685 1.0198,1.44152 1.02746,1.43385 1.03513,1.42618 1.0428,1.41085 1.05047,1.40318 1.05813,1.38784 1.0658,1.38018 1.07347,1.37251 1.07347,1.35717 1.08881,1.35717 1.09647,1.34184 1.10414,1.3265 1.11181,1.31883 1.11181,1.3035 1.10414,1.3035 "/>
   <polygon id="_81268152" class="fil1" points="4.47791,1.99359 4.48558,2.00892 4.49324,2.01659 4.50091,2.03193 4.50858,2.03959 4.52391,2.04726 4.53158,2.05493 4.54691,2.0626 4.59292,2.0626 4.60059,2.05493 4.60059,2.01659 4.59292,2.00125 4.58525,1.98592 4.57759,1.97825 4.56992,1.97059 4.56225,1.96292 4.55459,1.95525 4.53925,1.94758 4.52391,1.94758 4.52391,1.69455 4.51625,1.67922 4.50858,1.67155 4.47791,1.67155 "/>
   <path id="_81268176" class="fil8" d="M1.96607 1.61041l-0.010819 -0.000203364c0.0113396,-0.0486731 0.0160495,-0.0869096 0.0494215,-0.119269 0.0284262,-0.0275639 0.0502593,-0.0656459 0.0502593,-0.118431l-0.0153377 0 0.0871699 -0.159454 -0.0331971 0.00704046 0.0717183 -0.0580034 -0.00448214 -0.00750006 -0.0969558 0.0443008 -0.00124865 -0.018075 -0.0153377 0 0.107348 -0.0306673c-0.0365445,-0.0345841 0.00897241,-0.0199053 0.0454518,-0.0235577 0.0275517,-0.00275761 0.0425356,-0.0140077 0.0772335,-0.0147805l0 0.0230005 0.00717874 0.138043 0.000488073 0.0536474 -0.0153336 0 0 -0.0153336 -0.0153377 0c-0.00506783,0.0217559 -0.00766682,0.0131088 -0.00766682,0.0306713 0,0.00111037 0.0275233,0.0413032 0.0306713,0.046005l0 0.0383382 -0.026421 -0.0280276 -0.0119171 -0.00264373 -0.00931813 0.0533667 0.0320217 -0.00829725 -0.0317166 0.0536881 -0.0450451 -0.00414456 -0.0559576 0.0875481 -0.00608465 -0.0209302c-0.0722999,0.0489293 -0.0736218,0.15633 -0.121599,0.191479 -0.000756514,-0.0340065 0.00244443,-0.0355805 -0.0306673,-0.0383341l-0.00451874 -0.0994775zm0.1502 -0.552275l-0.0230005 0.00766682 -0.046009 0.00766682 -0.0306673 0.00767088 -0.0383382 0.00766682 -0.0306713 0.00766682 -0.0230045 0.00766682 -0.0230005 0.00767088 -0.0230045 0.00766682 -0.0230005 0.00766682 -0.0230045 0.00766682 -0.0153377 0.00766682 -0.0153336 0.00767088 -0.0230045 0.00766682 -0.0153336 0.00766682 -0.0153377 0.00766682 -0.0153336 0.00766682 -0.0153336 0.00767088 -0.0153377 0.00766682 0 0.00766682c0.0468306,0.0155248 -0.0826715,0.0534644 -0.0667603,0.0886788l0.0250829 -0.0130234 -0.0196612 0.0700304c0.0275639,-0.0184614 0.0205967,-0.0383382 0.046005,-0.0383382l0.0191487 -0.00245257 0.034397 -0.0540907 -0.00722755 -0.00405914 0.136177 -0.0579994 0.00482379 0.00961911 -0.0718851 0.0321437 0.0068981 0.0218209 0.0310211 -0.00632462c-0.027385,0.0238017 -0.132666,0.115112 -0.161019,0.122681l0 -0.0153336 -0.0128567 0.000972079 -0.0164399 0.0564497 0.0452688 -0.0189372 0.0013422 0.0247453 0.0977001 -0.101568c0.00510443,-0.00926119 0.0431741,-0.0690095 0.0766763,-0.0664512l0.046005 -0.00255832 -0.000341651 0.0144998 -0.0993392 0.039176c-0.0161634,0.0293332 -0.0770586,0.0733533 -0.0641044,0.105001l-0.0272792 0.0413845 0.0760499 -0.0620422c-0.00148456,0.0666139 -0.078051,0.107348 -0.14222,0.107832l-0.0115714 0.0471926 -0.0302321 -0.00933847c-0.0277795,0.0414822 -0.0472536,0.0414659 -0.0824559,0.0708967 -0.0374271,0.0312936 -0.033132,0.0630672 -0.0555631,0.10546 0.0392899,0.0586745 -0.00896021,0.0506091 0.0613427,0.0843431 -0.00770342,0.0330588 -0.0230045,0.0420028 -0.0230045,0.0843431l0.000549082 0.0215728 0.0224554 0.0090985c0.0112094,-0.0233665 0.0155329,-0.0631241 0.0260224,-0.0813252 0.0183149,-0.0317898 0.0386229,-0.00875278 0.052533,-0.0624815 0.00671914,-0.0259655 0.0518212,-0.147565 0.0747972,-0.147565 0.0176683,0 0.0230045,0.00533627 0.0230045,0.0230045l0.000549082 0.0292397 0.0233584 0.00965572 -0.0332215 0.0547578 0.0291664 0.0252049 0.0379152 -0.0497835 0.00410795 0.122307 0.0216054 0.0450166 -0.0299596 0.0233624 0.0538263 -0.00673134c-0.0140402,0.0602608 -0.018014,0.0348606 -0.0690095,0.0690095 -0.0354056,-0.000789052 -0.0257011,-0.00766682 -0.0536759,-0.00766682 -0.044313,0 -0.0739919,0.0267627 -0.0923719,0.0526875l0.0770383 -0.0220162 0 0.0153336 -0.0248511 0.000520611 0.0171842 0.0684889 -0.0383382 0c-0.0592887,0 -0.048848,0.0393143 -0.0670979,0.0632543 -5.69419e-005,7.72783e-005 -0.0802474,0.0512599 -0.0862588,0.0517602 0,0.0803328 -0.0120269,0.0709211 -0.0586013,0.102418 -0.0406158,0.0274663 -0.0180709,0.0723853 -0.0189942,0.136392l-0.0220812 -0.0164481 0.00263153 -0.0644501 -0.0563074 -0.0428976c-0.0108312,0.00537287 -0.0127306,0.00766682 -0.0306673,0.00766682 -0.0171924,0 -0.0168345,-0.00606838 -0.0306713,-0.0153336 -0.012572,0.00921238 -0.0613427,0.0885324 -0.0613427,0.0996808 0,0.01221 0.0385497,0.107348 0.0613427,0.107348l0.0254083 -0.00230208 0.0205723 -0.0470665 0.00861043 0.00349786 -0.00858602 0.0688712 0 0.0230045c0,0.0278527 0.0276656,0.0246111 0.0536718,0.0306713l0 0.0536718c0.107457,0.0719542 0.230635,0.131446 0.343526,0.200879 0.082822,0.0509345 0.0628598,0.0815001 0.0628598,0.205507 0,0.0920099 0,0.184024 0,0.276034 0.0546073,-0.0400057 0.333313,-0.552068 0.368048,-0.552068 0.0342871,0 0.28525,0.111427 0.336311,0.131414 0.0906311,0.0354748 0.24134,0.149883 0.307775,0.167625 0.0202957,-0.0135928 0.0383341,-0.0272792 0.0383341,-0.0613427l0 -0.0536759c-0.0191284,-0.00209058 -0.046005,-0.0220975 -0.046005,-0.0383341 0,-0.0236878 0.0230045,-0.0254083 0.0230045,-0.0536759 0,-0.0129868 -0.0102129,-0.028654 -0.0153336,-0.0383382 -0.00899682,0.00238342 -0.0209017,0.00766682 -0.0230045,0.00766682 -0.000915137,0 -0.0871577,-0.0283408 -0.092014,-0.0306673 -0.00713807,0.00676795 -0.0239807,0.0306673 -0.0306673,0.0306673 -0.0233543,0 -0.0280479,-0.00348159 -0.0454356,-0.00610905l-0.084213 0.0310211 -0.00751633 0.0046611 -0.119545 -0.121831 -0.00399 -0.0380901c-0.000980214,-0.0157363 0.00680862,-0.0179408 0.0160007,-0.0308584l-0.0160007 -0.0534847c-0.056527,0.0131658 -0.0548025,0.046005 -0.138019,0.046005l-0.00766682 0c-0.101552,0 -0.188148,-0.132585 -0.130352,-0.253033 -0.0354951,-0.0530048 -0.0996808,-0.0969191 -0.0996808,-0.184024l0 -0.0383382c0,-0.119017 0.110561,-0.230029 0.230033,-0.230029l0.0536718 0c0.0515202,0 0.111098,0.0403637 0.140183,0.0668457 0.0518781,0.0472414 0.0473106,0.0973096 0.0745125,0.140179l0.107152 0.00963131 0.00692251 -0.0557868 -0.0548066 -0.0596548 -0.00559657 0.00613345 0 -0.0153377 0.0306713 0 0 -0.0230005c0.0743783,-0.00165945 0.0651049,-0.115096 0.115014,-0.092014l0.00833792 -0.0535457 0.0377931 0.014935 0.0219552 -0.0161756 0.0222846 0.0257581c0.0035426,-0.0245135 0.00715434,-0.0399813 0.0323104,-0.0399813l0.0613427 0 -0.0520001 -0.0804589 0.0366665 -0.00388425 0 -0.0230045 -0.00843147 0.00409575 -0.0194579 -0.0400586 0.043223 -0.00237122 -0.0169239 -0.0453501c-0.0155817,0.0108393 -0.0253513,0.0300124 -0.0444187,0.0300124 -0.0162162,0 -0.0101072,-0.00274541 -0.0306673,-0.00766682l-0.0208895 -0.0547456c-0.00211498,-0.056043 0.00662153,-0.093706 -0.0404531,-0.106274 0,0.0744149 -0.00026844,0.153035 0.046005,0.184024l-0.0179896 0.0290119 0.0179896 0.00165538 -0.00192382 0.0691112 -0.0160657 0.0289143c-0.0181563,-0.0222846 -0.0427674,-0.0903586 -0.0663536,-0.0903586 -0.0212881,0 -0.00571046,0.0306713 -0.0383382,0.0306713 -0.00551116,0 -0.0412666,-0.075391 -0.046005,-0.0843431l0.00950929 -0.0456348 0.036333 -0.0236227 -0.0162854 -0.0218291 0.00430318 -0.138837 -0.0185264 -0.000105749 0.0186444 -0.0682408 0.0415879 -0.0190471 0.0165375 0.033555c0.0540094,6.10092e-005 0.145592,0.0321966 0.145592,0.0767333 0,0.0176805 -0.0214346,0.0149594 -0.0383382,0.0153377l0.0636773 0.0669148 0.00430725 -0.0516097 -0.0232852 -0.0294593 0.0243101 -0.00118358 -0.0541233 -0.0686312 0.00537694 -0.00565352 0.0477986 0.0446302 -0.029561 -0.0700995 0.0230005 0.00732517 0.00616192 -0.0306022 -0.031619 -0.0196856 0.0483721 0.00433165 -0.149578 -0.101125c0.0135034,-0.000728043 0.0291746,0.00948082 0.0421614,0.00948082 0.00209872,0 0.0140077,-0.00527933 0.0230005,-0.00766682 -0.0319485,-0.0436053 -0.320087,-0.124882 -0.32971,-0.138015l0.230029 0.0306673 0 -0.00766682 -0.0230005 -0.00766682 -0.0153377 -0.00766682 -0.0230005 -0.00766682 -0.0306713 -0.00767088 -0.0230045 -0.00766682 -0.0306713 -0.00766682 -0.0306673 -0.00766682 -0.0383382 -0.00767088 -0.046009 -0.00766682 -0.0613386 -0.00766682 -0.092014 -0.00766682c-0.0185509,0.0124255 -0.0552662,0.0383382 -0.0843431,0.0383382l-0.0306713 0c-0.028959,0 -0.0463304,-0.0186688 -0.0690095,-0.0306713z"/>
   <path id="_116978592" class="fil1" d="M2.0856 2.22362c-0.0357961,0 -0.0536759,-0.0178798 -0.0536759,-0.0536718l0 -0.00766682c0,-0.0638237 0.0605414,-0.153357 0.122681,-0.153357l0.0153377 0c0.024786,0 0.0383382,0.0278364 0.0383382,0.0536759l0 0.00766682c0,0.0631892 -0.0637342,0.153353 -0.122681,0.153353zm0.0230005 0.176357l0.00766682 0.0383382c0.0277144,0.0413805 0.0536596,0.0613427 0.122685,0.0613427l0.046005 0c0.113343,0 0.0961504,-0.065532 0.122681,-0.107348 0.0614525,-0.0411527 0.0580034,-0.0890734 0.092014,-0.138019l0.00766682 -0.0996808c-0.0272019,-0.0428691 -0.0226344,-0.0929373 -0.0745125,-0.140179 -0.0290851,-0.026482 -0.0886626,-0.0668457 -0.140183,-0.0668457l-0.0536718 0c-0.119472,0 -0.230033,0.111012 -0.230033,0.230029l0 0.0383382c0,0.0871048 0.0641857,0.131019 0.0996808,0.184024z"/>
   <path id="_116990520" class="fil9" d="M3.81082 2.04726l0 0.00766682c0,0.0299352 0.0292559,0.0690095 0.0536718,0.0690095l0.0230045 0c0.0742725,0 0.168686,-0.130828 0.168686,-0.199362l0 -0.0383382c0,-0.0370814 -0.0217762,-0.0690095 -0.0613386,-0.0690095l-0.00767088 0c-0.0960528,0 -0.176353,0.13034 -0.176353,0.230033z"/>
   <path id="_117935832" class="fil10" d="M2.0856 2.22362c0.058947,0 0.122681,-0.0901634 0.122681,-0.153353l0 -0.00766682c0,-0.0258394 -0.0135522,-0.0536759 -0.0383382,-0.0536759l-0.0153377 0c-0.0621399,0 -0.122681,0.089533 -0.122681,0.153357l0 0.00766682c0,0.035792 0.0178798,0.0536718 0.0536759,0.0536718z"/>
   <path id="_116990592" class="fil11" d="M3.81082 2.04726c0,-0.099693 0.0803003,-0.230033 0.176353,-0.230033l0.00767088 0c0.0395624,0 0.0613386,0.0319281 0.0613386,0.0690095l0 0.0383382c0,0.0685336 -0.0944137,0.199362 -0.168686,0.199362l-0.0230045 0c-0.0244159,0 -0.0536718,-0.0390743 -0.0536718,-0.0690095l0 -0.00766682zm-0.0536759 0.268367l0.521401 -0.306709 -0.00766682 -0.00766682 -0.00766682 -0.00766682 -0.0153377 -0.00766682 -0.0153336 -0.00766682 -0.0153336 -0.00766682 -0.00767088 -0.00767088 -0.0153336 -0.00766682 -0.0153377 -0.00766682 -0.00766682 -0.00766682 -0.0153336 -0.00767088 -0.0153336 -0.00766682 -0.0153377 -0.00766682 -0.00766682 -0.291372 -0.359897 0.207862 -0.000484006 0.482229z"/>
   <path id="_116990688" class="fil6" d="M1.70222 1.20382l-0.0153336 0 -0.0153377 0.00766682 -0.00766682 0.00766682 -0.0153336 0.00767088 -0.0153377 0.00766682 -0.00766682 0.00766682 -0.0153336 0.00766682 -0.00766682 0.00766682 -0.0153377 0.00767088 -0.00766682 0.00766682 -0.0153336 0.00766682 -0.00767088 0.00766682 -0.0153336 0.00767088 -0.00766682 0.00766682 -0.00766682 0.00766682 -0.00767088 0.00766682 -0.00766682 0.00766682 -0.0153336 0.00766682 -0.00767088 0.00767088 -0.00766682 0.00766682 -0.00766682 0.00766682 -0.00766682 0.00766682 -0.00766682 0.00766682 -0.00766682 0.00767088 -0.0153377 0.00766682 -0.00766682 0.00766682 -0.00766682 0.00766682 -0.00766682 0.00767088 -0.00767088 0.00766682 -0.00766682 0.00766682 -0.00766682 0.00766682 -0.00766682 0.0153377 -0.00767088 0.00766682 -0.00766682 0.00766682 -0.00766682 0.00766682 -0.00766682 0.00766682 -0.00766682 0.00766682 -0.00767088 0.0153377 -0.00766682 0.00766682 -0.00766682 0.00766682 -0.00766682 0.00767088 -0.00766682 0.0153336 -0.00766682 0.00766682 -0.00767088 0.00767088 -0.00766682 0.0153336 -0.00766682 0.00766682 -0.00766682 0.0153336 -0.00767088 0.00767088 -0.00766682 0.0153336 -0.00766682 0.00766682 -0.00766682 0.0153377 -0.00767088 0.0153336 -0.00766682 0.00766682 -0.00766682 0.0153377 -0.00766682 0.0153336 -0.00766682 0.0153377 -0.00766682 0.0153336 -0.00767088 0.0153336 -0.00766682 0.0153377 -0.00766682 0.0153336 -0.00766682 0.0153377 -0.00766682 0.0230005 -0.00767088 0.0230045 -0.00766682 0.0153336 -0.00766682 0.0230045 -0.00766682 0.0230005 -0.00767088 0.0230045 -0.00766682 0.0230045 -0.00766682 0.0306713 -0.00766682 0.0383341 -0.00766682 0.0383422 -0.00767088 0.046005 -0.00766682 0.0613386 0 0.214695 0.00766682 0.0613427 0.00767088 0.0306713 0.291368 0.168686 0 -0.0536718c-0.0260062,-0.00606024 -0.0536718,-0.00281862 -0.0536718,-0.0306713l0 -0.0230045 0.00858602 -0.0688712 -0.00861043 -0.00349786 -0.0205723 0.0470665 -0.0254083 0.00230208c-0.022793,0 -0.0613427,-0.0951377 -0.0613427,-0.107348 0,-0.0111484 0.0487707,-0.0904684 0.0613427,-0.0996808 0.0138369,0.00926526 0.013479,0.0153336 0.0306713,0.0153336 0.0179367,0 0.0198361,-0.00229394 0.0306673,-0.00766682l0.0563074 0.0428976 -0.00263153 0.0644501 0.0220812 0.0164481c0.000923272,-0.0640067 -0.0216216,-0.108926 0.0189942,-0.136392 0.0465744,-0.031497 0.0586013,-0.0220853 0.0586013,-0.102418 0.00601144,-0.000500275 0.0862019,-0.0516829 0.0862588,-0.0517602 0.0182499,-0.02394 0.00780917,-0.0632543 0.0670979,-0.0632543l0.0383382 0 -0.0171842 -0.0684889 0.0248511 -0.000520611 0 -0.0153336 -0.0770383 0.0220162c0.01838,-0.0259248 0.0480589,-0.0526875 0.0923719,-0.0526875 0.0279747,0 0.0182702,0.00687777 0.0536759,0.00766682 0.0509955,-0.0341489 0.0549693,-0.00874871 0.0690095,-0.0690095l-0.0538263 0.00673134 0.0299596 -0.0233624 -0.0216054 -0.0450166 -0.00410795 -0.122307 -0.0379152 0.0497835 -0.0291664 -0.0252049 0.0332215 -0.0547578 -0.0233584 -0.00965572 -0.000549082 -0.0292397c0,-0.0176683 -0.00533627,-0.0230045 -0.0230045,-0.0230045 -0.022976,0 -0.0680781,0.121599 -0.0747972,0.147565 -0.0139101,0.0537287 -0.034218,0.0306917 -0.052533,0.0624815 -0.0104895,0.0182011 -0.014813,0.0579587 -0.0260224,0.0813252l-0.0224554 -0.0090985 -0.000549082 -0.0215728c0,-0.0423404 0.0153011,-0.0512843 0.0230045,-0.0843431 -0.0703029,-0.033734 -0.0220528,-0.0256686 -0.0613427,-0.0843431 0.022431,-0.0423932 0.018136,-0.0741668 0.0555631,-0.10546 0.0352023,-0.0294308 0.0546764,-0.0294145 0.0824559,-0.0708967l0.0302321 0.00933847 0.0115714 -0.0471926c0.0641694,-0.000484006 0.140736,-0.0412178 0.14222,-0.107832l-0.0760499 0.0620422 0.0272792 -0.0413845c-0.0129543,-0.0316475 0.047941,-0.0756676 0.0641044,-0.105001l0.0993392 -0.039176 0.000341651 -0.0144998 -0.046005 0.00255832c-0.0335022,-0.00255832 -0.0715719,0.05719 -0.0766763,0.0664512l-0.0977001 0.101568 -0.0013422 -0.0247453 -0.0452688 0.0189372 0.0164399 -0.0564497 0.0128567 -0.000972079 0 0.0153336c0.028353,-0.0075692 0.133634,-0.0988796 0.161019,-0.122681l-0.0310211 0.00632462 -0.0068981 -0.0218209 0.0718851 -0.0321437 -0.00482379 -0.00961911 -0.136177 0.0579994 0.00722755 0.00405914 -0.034397 0.0540907 -0.0191487 0.00245257c-0.0254083,0 -0.018441,0.0198768 -0.046005,0.0383382l0.0196612 -0.0700304 -0.0250829 0.0130234c-0.0159112,-0.0352145 0.113591,-0.073154 0.0667603,-0.0886788z"/>
   <path id="_117937656" class="fil8" d="M2.49965 2.25429c-0.0340106,0.0489456 -0.0305615,0.0968663 -0.092014,0.138019l0.00766682 0.115014 0.0306713 -0.0383382c0.0532691,-0.00118764 0.0385497,-0.0224229 0.0564335,-0.0662519 0.0195107,-0.0478149 0.0396275,-0.0233218 0.0509142,-0.0717671l0.0536718 0c0.0188234,0 0.0378135,-0.0305534 0.0704452,-0.0369024 0.0266773,-0.00518985 0.0809998,-0.0167694 0.0982451,-0.0167694l0.0217111 0.000439266 0.0242938 0.0685702c0.0205642,-0.00492547 0.0144551,-0.00767088 0.0306713,-0.00767088 0.0350355,0 0.0252171,0.0306713 0.0923801,0.0307445l0.00769122 -0.0445123 0.0379477 -0.00923272 0 0.0153336 0.0613386 0c0.0266488,0 0.0107783,-0.0135928 0.0441015,-0.0221138l0.124589 0.25981 0.0536718 -0.0230005 0 -0.299038 -0.0434548 -0.0977692 -0.0217193 0.0249283 -0.0263844 0.0936775 -0.0178147 0.0730198 -0.0104773 -0.00203771 0.00367275 -0.0918676c0.00182621,-0.0164521 -0.00416489,-0.0101926 -0.00650358,-0.0382893l-0.0911884 0.0258394 -0.0438086 -0.0613793 0.0869258 -0.0743864c0.0200273,0.00676388 0.0247168,0.0102455 0.0480711,0.0102455 0.014813,0 0.0306713,-0.0136701 0.0306713,-0.0230005 0,-0.03881 -0.0372359,-0.0462734 -0.0690095,-0.0536759l0.00908223 -0.0764811 -0.0108393 -0.00303419 -0.0279625 0.0928275c-0.00963945,-0.0167938 -0.00644257,-0.0363167 -0.0316231,-0.0363167 -0.0238912,0 -0.0306673,0.0851159 -0.0306673,0.115019l-0.0604235 0.0325464 0.0181645 0.0427552c-0.0395909,-0.00697538 -0.0487911,-0.0167735 -0.049755,-0.0599679l0.0164847 -0.00421777c-0.0559291,-0.00344905 -0.0941737,-0.0396234 -0.116166,-0.0724585l0.0384398 -0.00161471 -0.000101682 -0.0290566c0,-0.0207065 -0.00366055,-0.0211417 -0.00766682,-0.0383382l-0.0534888 0.0160047 -0.000183027 0.0223334 -0.0379477 0.00923272 -0.000390459 0.0291054 0.0456348 -0.00950929 0.000370122 0.0325138c0,0.0326887 0.0533342,0.0694488 0.0843431,0.0766763l0 0.046005c-0.0288126,-0.0211132 -0.106066,-0.0996768 -0.145686,-0.0996768 -0.010522,0 -0.0183109,0.0159966 -0.0230005,0.0230005 -0.0475749,0 -0.046009,-0.00156997 -0.046009,0.046005l-0.0445692 0.0398349 -0.00143575 0.0445082 -0.0764445 0.0388262 -0.0248755 -0.0218453c-0.0303704,0.00513697 -0.0275355,0.00701199 -0.036695,-0.0323145z"/>
   <path id="_116990760" class="fil7" d="M2.1086 2.39997c-0.057796,0.120448 0.0288004,0.253033 0.130352,0.253033l0.00766682 0c0.0832165,0 0.081492,-0.0328392 0.138019,-0.046005l0.0306673 -0.0996808 -0.00766682 -0.115014c-0.0265308,0.0418157 -0.00933847,0.107348 -0.122681,0.107348l-0.046005 0c-0.0690258,0 -0.0949709,-0.0199622 -0.122685,-0.0613427l-0.00766682 -0.0383382z"/>
   <path id="_116990832" class="fil9" d="M3.78782 2.61467c0,0.0519717 0.0321315,0.115014 0.0843431,0.115014l0.0306713 0c0.109434,0 0.245367,-0.188502 0.245367,-0.306709l0 -0.0690054c0,-0.0342302 -0.0397414,-0.0843472 -0.0690095,-0.0843472l-0.0536759 0c-0.112794,0 -0.237696,0.207268 -0.237696,0.345047z"/>
   <polygon id="_117918720" class="fil1" points="4.83829,2.16995 4.82295,2.17761 4.80762,2.18528 4.79228,2.19295 4.77695,2.20062 4.76928,2.20828 4.75394,2.21595 4.74628,2.22362 4.73094,2.23129 4.71561,2.23895 4.70027,2.24662 4.68493,2.25429 4.67727,2.26196 4.66193,2.26962 4.6466,2.27729 4.63893,2.28496 4.62359,2.29263 4.61592,2.30796 4.60826,2.56099 4.59292,2.56866 4.58525,2.57633 4.56992,2.584 4.56225,2.59166 4.55459,2.607 4.54691,2.61467 4.53925,2.63 4.53925,2.66834 4.54691,2.67601 4.56225,2.68367 4.56992,2.68367 4.60059,2.67601 4.60826,2.66834 4.62359,2.66067 4.63126,2.65301 4.63893,2.64534 4.6466,2.63767 4.65426,2.62234 4.66193,2.607 4.66193,2.37697 4.67727,2.37697 4.6926,2.3693 4.70027,2.36164 4.71561,2.35397 4.73094,2.3463 4.74628,2.33863 4.75394,2.33096 4.76928,2.3233 4.78461,2.31563 4.79995,2.30796 4.80762,2.30029 4.82295,2.29263 4.82295,2.37697 4.80762,2.38464 4.79228,2.39231 4.78461,2.39997 4.77695,2.40764 4.76928,2.41531 4.76161,2.43065 4.75394,2.44598 4.75394,2.48432 4.76161,2.49198 4.76928,2.49965 4.78461,2.49965 4.81529,2.49198 4.82295,2.48432 4.83829,2.47665 4.84595,2.46898 4.85362,2.46132 4.86129,2.45365 4.86896,2.43831 4.87662,2.42297 4.87662,2.16995 4.86896,2.16228 4.84595,2.16228 "/>
   <path id="_116990928" class="fil1" d="M0.437053 2.0626l0.0843472 0.0306713 0 -0.0153377c0.102703,0 0.184593,0.0604438 0.243264,0.10945 0.0552418,0.0461392 0.043711,0.0302727 0.0820655,0.0942876 0.0265349,0.0442886 0.0793282,0.0185061 0.0814391,0.094918 0.00162691,0.0589715 -0.00112257,0.289342 -0.00968012,0.343799 -0.00769529,0.0489375 0.00173266,0.126374 -0.0057674,0.170752 -0.00832978,0.0492832 -0.078592,-0.00810202 -0.130621,-0.00810202l-0.0536759 0c-0.0264332,0 -0.0296871,0.00566978 -0.0536718,0.00766682 -0.011848,-0.0443618 -0.0842943,-0.111073 -0.116922,-0.143778 -0.0643484,-0.0645111 -0.106453,-0.0496696 -0.10542,-0.162947 0.00148049,-0.162378 -0.015358,-0.353991 -0.015358,-0.52138zm0.0153377 -0.0536759l-0.00766682 0.00767088 -0.0153377 0.00766682 -0.0153336 0.00766682 -0.00766682 0.0153377 0 0.0996768 0.00766682 0.2377 0.00766682 0.222362 0.00766682 0.046005 0.00766682 0.0230005 0.00767088 0.00766682 0.00766682 0.00767088 0.00766682 0.00766682 0.00766682 0.00766682 0.00767088 0.00766682 0.0153336 0.00767088 0.00766682 0.00766682 0.00766682 0.00766682 0.00767088 0.00766682 0.00766682 0.00766682 0.0153336 0.00767088 0.00766682 0.00766682 0.00766682 0.00766682 0.00767088 0.00766682 0.00766682 0.00767088 0.00766682 0.00766682 0.00766682 0.00766682 0.00767088 0.00766682 0.00766682 0.0153336 0.00766682 0.00767088 0.00766682 0.00766682 0.00766682 0.00766682 0.00767088 0.00766682 0.00766682 0.0153377 0.00766682 0.00766682 0.00766682 0.0153336 0.00766682 0.00767088 0.00766682 0.00766682 0.00767088 0.00766682 0.0306713 0 0 0.161019 0.00766682 0 0 -0.168686 0.046005 0c0.0761435,0 0.114307,0.0306673 0.138019,0.0306673 0.0916439,0 0.0770261,-0.0925875 0.076595,-0.184101 -0.000366055,-0.0773921 0.015415,-0.173949 0.015415,-0.252952l0.00766682 -0.092014 0 -0.0766763 -0.00766682 -0.0230005 -0.00766682 -0.0153377 -0.00766682 -0.0153336 -0.00766682 -0.00766682 -0.0153377 -0.00767088 -0.00766682 -0.00766682 -0.0153336 -0.00766682 -0.0153377 -0.00766682 -0.00766682 -0.0153336 -0.00766682 -0.0153377 -0.00766682 -0.00766682 -0.00767088 -0.0153377 -0.00766682 -0.00766682 -0.00766682 -0.00766682 -0.00766682 -0.00766682 -0.0153377 -0.00766682 -0.00766682 -0.00767088 -0.00766682 -0.00766682 -0.00766682 -0.00766682 -0.00767088 -0.00766682 -0.0153336 -0.00766682 -0.00766682 -0.00766682 -0.00766682 -0.00767088 -0.0153377 -0.00766682 -0.00766682 -0.00766682 -0.00766682 -0.00766682 -0.00766682 -0.00767088 -0.0153377 -0.00766682 -0.00766682 -0.00766682 -0.0230045 -0.00766682 -0.0230005 -0.00766682 -0.0153377 -0.00767088 -0.0230005 -0.00766682 -0.0230045 -0.00766682 -0.0383382 -0.00766682 -0.0153336 0 -0.0153377 0.00766682 -0.0153336 0 -0.0153336 -0.00766682 -0.00767088 -0.00767088 -0.0230005 -0.00766682 -0.0153377 0 -0.0153336 0.00766682z"/>
   <path id="_116977488" class="fil6" d="M0.506063 2.65301l0.000439266 -0.323719 0.0302321 0.00934254c0,-0.067346 -0.00597076,-0.130348 0.0613427,-0.130348l0.0230005 0c0.0685133,0 0.145686,0.110467 0.145686,0.184024l0 0.0843431c0.0173713,0.00464076 0.0306713,0.00737397 0.0306713,0.0306713l0 0.299038c0,0.0460578 -0.117654,-0.0376304 -0.14556,-0.0537979 -0.0237122,-0.0137393 -0.145812,-0.0750616 -0.145812,-0.0995547zm0.406659 0.238131c0.00750006,-0.0443781 -0.00192789,-0.121815 0.0057674,-0.170752 0.00855755,-0.0544568 0.011307,-0.284827 0.00968012,-0.343799 -0.00211092,-0.0764119 -0.0549042,-0.0506295 -0.0814391,-0.094918 -0.0383544,-0.0640149 -0.0268237,-0.0481484 -0.0820655,-0.0942876 -0.0586705,-0.0490066 -0.140561,-0.10945 -0.243264,-0.10945l0 0.0153377 -0.0843472 -0.0306713c0,0.167389 0.0168385,0.359002 0.015358,0.52138 -0.00103309,0.113278 0.0410714,0.0984362 0.10542,0.162947 0.0326277,0.032705 0.105074,0.0994165 0.116922,0.143778 0.0239847,-0.00199703 0.0272386,-0.00766682 0.0536718,-0.00766682l0.0536759 0c0.0520286,0 0.122291,0.0573852 0.130621,0.00810202z"/>
   <path id="_117936240" class="fil12" d="M0.506063 2.65301c0,0.0244931 0.1221,0.0858155 0.145812,0.0995547 0.0279056,0.0161674 0.14556,0.0998557 0.14556,0.0537979l0 -0.299038c0,-0.0232974 -0.0133,-0.0260306 -0.0306713,-0.0306713l0 -0.0843431c0,-0.0735567 -0.0771725,-0.184024 -0.145686,-0.184024l-0.0230005 0c-0.0673134,0 -0.0613427,0.0630021 -0.0613427,0.130348l-0.0302321 -0.00934254 -0.000439266 0.323719z"/>
   <path id="_116977392" class="fil0" d="M0.759096 2.91371c0,0.217868 0.00586501,0.170476 0.148748,0.257638 0.0881379,0.0537653 0.173555,0.0994205 0.262795,0.151258 0.0563359,0.0327212 0.504839,0.296529 0.52391,0.296529 0.0176683,0 0.0230045,-0.00533627 0.0230045,-0.0230045l0 -0.628748c0,-0.0676836 -0.28303,-0.209017 -0.347557,-0.242853 -0.131499,-0.0689485 -0.250536,-0.14824 -0.380872,-0.217205 0,0.0790028 -0.015781,0.17556 -0.015415,0.252952 0.000431131,0.0915137 0.0150489,0.184101 -0.076595,0.184101 -0.0237122,0 -0.0618755,-0.0306673 -0.138019,-0.0306673z"/>
   <path id="_116977320" class="fil9" d="M3.84149 3.05939c0,0.048185 0.0203771,0.0920099 0.0690054,0.0920099l0.00766682 0c0.0809103,0 0.184024,-0.137694 0.184024,-0.222362l0 -0.0383382c0,-0.0378989 -0.0311106,-0.0690095 -0.0690054,-0.0690095l-0.0153377 0c-0.0838998,0 -0.176353,0.141354 -0.176353,0.2377z"/>
   <path id="_117936072" class="fil13" d="M3.84149 3.05939c0,-0.0963457 0.0924533,-0.2377 0.176353,-0.2377l0.0153377 0c0.0378948,0 0.0690054,0.0311106 0.0690054,0.0690095l0 0.0383382c0,0.0846685 -0.103114,0.222362 -0.184024,0.222362l-0.00766682 0c-0.0486284,0 -0.0690054,-0.0438249 -0.0690054,-0.0920099zm-0.0536759 -0.444724c0,-0.137779 0.124902,-0.345047 0.237696,-0.345047l0.0536759 0c0.0292681,0 0.0690095,0.050117 0.0690095,0.0843472l0 0.0690054c0,0.118207 -0.135932,0.306709 -0.245367,0.306709l-0.0306713 0c-0.0522116,0 -0.0843431,-0.0630428 -0.0843431,-0.115014zm-0.0306713 -0.299038l-0.107348 0.0613386 0 0.989129 0 0.0153336 0.0613427 0.0306713 0.00766682 -0.00766682 0.0153377 -0.00766682 0.0153336 -0.00767088 0.0153336 -0.00766682 0.00767088 -0.00766682 0.0153336 -0.00766682 0.0153336 -0.00767088 0.00767088 -0.00766682 0.0153336 -0.00766682 0.0153377 -0.00766682 0.0153336 -0.00766682 0.00766682 -0.00766682 0.0153377 -0.00767088 0.0153336 -0.00766682 0.0153336 -0.00766682 0.00766682 -0.00766682 0.0153377 -0.00766682 0.0153336 -0.00767088 0.0153377 -0.00766682 0.00766682 -0.00766682 0.0153336 -0.00766682 0.0153377 -0.00767088 0.0153336 -0.00766682 0.00766682 -0.00766682 0.0153377 -0.00766682 0.0153336 -0.00766682 0.00766682 -0.00766682 0.0153377 -0.00767088 0.0153336 -0.00766682 0.00766682 -0.00766682 0.0153377 -0.00766682 0.0153336 -0.00766682 0.0153377 -0.00767088 0.0153336 -0.00766682 0.00766682 -0.00766682 0.0153377 -0.00766682 0.0153336 -0.00767088 0.00766682 -0.00766682 0.0153377 -0.00766682 0.0153336 -0.00766682 0.0153377 -0.00766682 0.00766682 -0.00767088 0.0153336 -0.00766682 0.00767088 -0.00766682 0.00766682 -0.00766682 0 -0.222362 0 -0.0690095 0 -0.046005 -0.00766682 -0.199358 0.0230005 0 0.0153336 -0.00767088 0.0153377 -0.00766682 0.0153336 -0.00766682 0.0153377 -0.00766682 0.0153336 -0.00767088 0.0153377 -0.00766682 0.00766682 -0.0153336 0.00766682 -0.00766682 0 -0.0766763 -0.00766682 -0.00767088 -0.0230045 0 -0.0153336 0.00767088 -0.00767088 0.00766682 -0.00766682 0.00766682 -0.00766682 0.00766682 -0.0153336 0.00766682 -0.00767088 0.00766682 -0.0153336 0.00767088 -0.00766682 0.00766682 -0.00766682 0.00766682 -0.00766682 -0.437057 -0.00767088 0 -0.521401 0.306709z"/>
   <path id="_116906024" class="fil2" d="M3.1514 2.99038l0.0230045 -0.0306713c-0.0030952,0.0371749 -0.0153377,0.048063 -0.0153377,0.092014l0 0.0536718c0,0.0503244 0.0352918,0.107348 0.0843431,0.107348l0.0306713 0c0.0391841,0 0.0669596,-0.0368983 0.092014,-0.0536759 -0.00826877,0.0309642 -0.0613061,0.0690095 -0.0996808,0.0690095l-0.0230045 0c-0.0562626,0 -0.106933,-0.0876132 -0.101418,-0.145901l0.00940761 -0.0841276c-0.0113721,0.0130844 -0.0153336,0.0133203 -0.0153336,0.0383382l0 0.0690095c0,0.0628598 0.0455006,0.138015 0.107344,0.138015l0.0230045 0c0.0772945,0 0.16869,-0.13503 0.16869,-0.214691l0 -0.092014c0,-0.044195 -0.0522889,-0.115014 -0.0996808,-0.115014l-0.0306713 0c-0.0685458,0 -0.147837,0.102402 -0.153353,0.16869z"/>
   <path id="_116899904" class="fil6" d="M2.41531 2.50732l-0.0306673 0.0996808 0.0160007 0.0534847c-0.00919205,0.0129177 -0.0169809,0.0151221 -0.0160007,0.0308584l0.00399 0.0380901 0.119545 0.121831 0.00751633 -0.0046611 0.084213 -0.0310211c0.0173876,0.00262746 0.0220812,0.00610905 0.0454356,0.00610905 0.0066866,0 0.0235292,-0.0238993 0.0306673,-0.0306673 0.00485633,0.00232648 0.0910989,0.0306673 0.092014,0.0306673 0.00210278,0 0.0140077,-0.00528339 0.0230045,-0.00766682 0.0051207,0.00968419 0.0153336,0.0253513 0.0153336,0.0383382 0,0.0282676 -0.0230045,0.029988 -0.0230045,0.0536759 0,0.0162366 0.0268766,0.0362435 0.046005,0.0383341l0 0.0536759c0,0.0340634 -0.0180384,0.0477498 -0.0383341,0.0613427 0.0238342,0.0207146 0.153353,0.0802189 0.153353,0.107348 0,0.0235211 -0.0189169,0.0331483 -0.0383382,0.0383382l0 0.0920099 0.00766682 0 0.00766682 -0.00766682 0.0153336 -0.00766682 0.0153377 -0.00767088 0.00766682 -0.00766682 0.0153336 -0.00766682 0.00766682 -0.00766682 0.00767088 -0.00767088 0.0153336 -0.00766682 0.00766682 -0.00766682 0.00767088 -0.00766682 0.00766682 -0.00766682 0.00766682 0.00766682 0.184024 -0.651753 -0.124589 -0.25981c-0.0333232,0.00852095 -0.0174527,0.0221138 -0.0441015,0.0221138l-0.0613386 0 0 -0.0153336 -0.0379477 0.00923272 -0.00769122 0.0445123c-0.0671629,-7.3211e-005 -0.0573445,-0.0307445 -0.0923801,-0.0307445 -0.0162162,0 -0.0101072,0.00274541 -0.0306713,0.00767088l-0.0242938 -0.0685702 -0.0217111 -0.000439266c-0.0172453,0 -0.0715678,0.0115795 -0.0982451,0.0167694 -0.0326318,0.00634902 -0.0516219,0.0369024 -0.0704452,0.0369024l-0.0536718 0c-0.0112867,0.0484453 -0.0314034,0.0239522 -0.0509142,0.0717671 -0.0178838,0.043829 -0.00316434,0.0650642 -0.0564335,0.0662519l-0.0306713 0.0383382z"/>
   <path id="_116931080" class="fil0" d="M3.1514 2.99038c0.00551523,-0.0662885 0.0848068,-0.16869 0.153353,-0.16869l0.0306713 0c0.0473919,0 0.0996808,0.0708194 0.0996808,0.115014l0 0.092014c0,0.0796617 -0.0913958,0.214691 -0.16869,0.214691l-0.0230045 0c-0.0618429,0 -0.107344,-0.0751551 -0.107344,-0.138015l0 -0.0690095c0,-0.0250178 0.00396153,-0.0252537 0.0153336,-0.0383382l-0.00940761 0.0841276c-0.00551523,0.0582881 0.0451549,0.145901 0.101418,0.145901l0.0230045 0c0.0383748,0 0.0914121,-0.0380453 0.0996808,-0.0690095 -0.0250544,0.0167775 -0.0528299,0.0536759 -0.092014,0.0536759l-0.0306713 0c-0.0490514,0 -0.0843431,-0.0570232 -0.0843431,-0.107348l0 -0.0536718c0,-0.043951 0.0122425,-0.0548391 0.0153377,-0.092014l-0.0230045 0.0306713zm0.16869 0.414053l0.0996768 -0.0536759c0.000638563,-0.0286092 0.0579506,-0.2418 0.0704371,-0.282273 0.0100218,-0.0324894 0.0752487,-0.254384 0.0752487,-0.277462 0,-0.0239441 -0.302878,-0.151201 -0.345043,-0.161024 0,0.0698189 -0.0674924,0.248071 -0.0826105,0.323776 -0.0124743,0.0624612 -0.0860799,0.288773 -0.0860799,0.320306 0,0.0303134 0.230615,0.112237 0.268371,0.130352z"/>
   <path id="_116904608" class="fil11" d="M4.14053 3.46578c-0.0313628,0 -0.133944,-0.0806866 -0.176357,-0.092014 0.0131495,-0.0196409 0.328347,-0.207024 0.35271,-0.207024 0.0355724,0 0.1693,0.0809144 0.176357,0.107344 -0.0607082,0.0162122 -0.31717,0.191695 -0.35271,0.191695zm0.138015 -0.322043l-0.00766682 0.00766682 -0.0153336 0.00766682 -0.0153377 0.00767088 -0.0153336 0.00766682 -0.00766682 0.00766682 -0.0153377 0.00766682 -0.0153336 0.00766682 -0.0153377 0.00767088 -0.00766682 0.00766682 -0.0153336 0.00766682 -0.0153377 0.00766682 -0.00766682 0.00766682 -0.0153336 0.00766682 -0.0153377 0.00767088 -0.0153336 0.00766682 -0.00766682 0.00766682 -0.0153377 0.00766682 -0.0153336 0.00767088 -0.0153377 0.00766682 -0.00766682 0.00766682 -0.0153336 0.00766682 -0.0153377 0.00766682 -0.0153336 0.00767088 -0.00766682 0.00766682 -0.0153377 0.00766682 -0.0153336 0.00766682 -0.00766682 0.00766682 -0.00767088 0.00766682 -0.00766682 0.00767088 0 0.0383382 0.00766682 0.00766682 0.00767088 0.00766682 0.0153336 0.00766682 0.0153377 0.00767088 0.00766682 0.00766682 0.0153336 0.00766682 0.0153377 0.00766682 0.0153336 0.00767088 0.00766682 0.00766682 0.0153377 0.00766682 0.0153336 0.00766682 0.00766682 0.00766682 0.0153377 0.00766682 0.0153336 0.00767088 0.0153336 0.00766682 0.00767088 0.00766682 0.0153336 0.00766682 0.0153377 0.00767088 0.00766682 0.00766682 0.0153336 0.00766682 0.0153336 0.00766682 0.0153377 0.00766682 0.00766682 0.00767088 0.0153377 0.00766682 0.0153336 0.00766682 0.0153336 0.00766682 0.00767088 0.00766682 0.0153336 0.00767088 0.0153377 0.00766682 0.00766682 0.00766682 0.0153336 0.00766682 0.0153336 0.00766682 0.0153377 0.00767088 0.00766682 0.00766682 0.0153336 0.00766682 0.0153377 0.00766682 0.0153336 0.00766682 0.00767088 0.00767088 0.0153336 0.00766682 0.0153336 0.00766682 0.0153377 0 0.0153336 -0.00766682 0.0153336 -0.00766682 0.00767088 -0.00767088 0.0153336 -0.00766682 0.0153377 -0.00766682 0.0153336 -0.00766682 0.00766682 -0.00766682 0.0153377 -0.00767088 0.0153336 -0.00766682 0.0153336 -0.00766682 0.00766682 -0.00766682 0.0153377 -0.00766682 0.0153336 -0.00767088 0.0153377 -0.00766682 0.00766682 -0.00766682 0.0153377 -0.00766682 0.0153336 -0.00766682 0.00766682 -0.00767088 0.0153377 -0.00766682 0.0153336 -0.00766682 0.0153336 -0.00766682 0.00766682 -0.00766682 0.0153377 -0.00767088 0.0153336 -0.00766682 0.0153377 -0.00766682 0.00766682 -0.00766682 0.0153336 -0.00767088 0.0153377 -0.00766682 0.00766682 -0.00766682 0.00766682 -0.00766682 0 -0.0536759 -0.0153336 -0.00766682 -0.0153377 -0.00766682 -0.00766682 -0.00766682 -0.0153336 -0.00766682 -0.0153377 -0.00767088 -0.00766682 -0.00766682 -0.0153336 -0.00766682 -0.0153377 -0.00766682 -0.0153336 -0.00767088 -0.00766682 -0.00766682 -0.0153377 -0.00766682 -0.0153336 -0.00766682 -0.00766682 -0.00766682 -0.0153377 -0.00766682 -0.0153336 -0.00767088 -0.0153377 -0.00766682 -0.00766682 -0.00766682 -0.0153336 -0.00766682 -0.0153377 -0.00766682 -0.00766682 -0.00767088 -0.0153336 -0.00766682 -0.0153377 -0.00766682 -0.0153336 -0.00766682 -0.00766682 -0.00767088 -0.0153377 -0.00766682 -0.0153336 -0.00766682 -0.0153377 -0.00766682 -0.00766682 -0.00766682 -0.0153336 -0.00766682 -0.0153377 -0.00767088 -0.00766682 -0.00766682 -0.0153336 -0.00766682 -0.0153336 -0.00766682 -0.0153377 -0.00766682 -0.00766682 -0.00767088 -0.0153377 -0.00766682 -0.0153336 -0.00766682 -0.00766682 -0.00766682 -0.046005 0 -0.0153377 0.00766682z"/>
   <path id="_81272944" class="fil14" d="M4.14053 3.46578c0.0355399,0 0.292002,-0.175483 0.35271,-0.191695 -0.00705673,-0.0264292 -0.140785,-0.107344 -0.176357,-0.107344 -0.024363,0 -0.339561,0.187384 -0.35271,0.207024 0.0424136,0.0113274 0.144994,0.092014 0.176357,0.092014z"/>
   <path id="_116965656" class="fil3" d="M1.77889 3.31242c-0.00782951,0.033612 -0.0306713,0.0452322 -0.0306713,0.0690095 0,0.0124662 0.0209831,0.0178757 0.0306713,0.0230045l0 0.0613427 0.00767088 0.498396 0.00766682 0 0 -0.552072c0.0417709,0.0279707 0.351222,0.214695 0.383382,0.214695 0.0232811,0 0.168389,-0.242288 0.189177,-0.278552 0.0342424,-0.0597483 0.166417,-0.242223 0.180099,-0.291852l0.359153 0.148683c0.0194212,-0.00518985 0.0383382,-0.0148171 0.0383382,-0.0383382 0,-0.0271287 -0.129518,-0.086633 -0.153353,-0.107348 -0.0664349,-0.0177415 -0.217144,-0.13215 -0.307775,-0.167625 -0.0510606,-0.0199866 -0.302024,-0.131414 -0.336311,-0.131414 -0.0347345,0 -0.313441,0.512062 -0.368048,0.552068z"/>
   <path id="_116931320" class="fil9" d="M3.27408 2.24662l0 0.299038 -0.0536718 0.0230005 -0.184024 0.651753 -0.00766682 0.0153336 -0.00766682 0.0306713 -0.00767088 0.0306713 -0.00766682 0.0230045 -0.00766682 0.0383341 0 0.0230045 0.00766682 0.0383382 0.00766682 0.0153377 0.00767088 0.00766682 0.00766682 0.00766682 0.00766682 0.00766682 0.00766682 0.00767088 0.00766682 0.00766682 0.0230045 0.00766682 0.0153336 0.00766682 0.0153377 0.00766682 0.0230005 0.00766682 0.0153377 0 0.176357 -0.0996768c-0.0377565,-0.0181157 -0.268371,-0.100039 -0.268371,-0.130352 0,-0.0315336 0.0736055,-0.257845 0.0860799,-0.320306 0.0151181,-0.0757042 0.0826105,-0.253957 0.0826105,-0.323776 0.0421655,0.00982247 0.345043,0.137079 0.345043,0.161024 0,0.0230777 -0.0652269,0.244972 -0.0752487,0.277462 -0.0124865,0.0404735 -0.0697985,0.253664 -0.0704371,0.282273l0.0999411 -0.0464442 0.130088 0.0771156 0 -0.0153336 0 -0.989129 0.107348 -0.0613386 -0.297208 -0.171842 -0.00183027 -0.081191 -0.18171 0.103699 -0.00231428 0.0803247z"/>
   <polygon id="_60364832" class="fil15" points="2.69326,3.42305 2.69405,3.75426 2.8447,3.6728 2.84444,3.33498 "/>
   <path id="_81268296" class="fil16" d="M0.360381 3.75715c0,-0.0301995 0.152307,-0.115014 0.18402,-0.115014l0.0306713 0c0.0328921,0 0.391052,0.210339 0.391052,0.230029 0,0.0249121 -0.151652,0.115019 -0.184024,0.115019l-0.0306713 0c-0.0434914,0 -0.391048,-0.208924 -0.391048,-0.230033zm0.628744 -1.24983c0.130336,0.0689648 0.249373,0.148256 0.380872,0.217205 0.0645274,0.0338357 0.347557,0.175169 0.347557,0.242853l0 0.628748c0,0.0176683 -0.00533627,0.0230045 -0.0230045,0.0230045 -0.0190715,0 -0.467574,-0.263808 -0.52391,-0.296529 -0.0892401,-0.0518374 -0.174657,-0.0974926 -0.262795,-0.151258 -0.142883,-0.0871617 -0.148748,-0.0397698 -0.148748,-0.257638l-0.046005 0 0 0.168686 0 0.0230045 0.00766682 0.0153336 -0.00766682 0.00766682 0 0.0536759 -0.0153377 0 -0.0306713 0.00766682 -0.00766682 0.00766682 -0.0153336 0.00767088 -0.0153336 0.00766682 -0.00767088 0.00766682 -0.0153336 0.00766682 -0.0153336 0.00766682 -0.0153377 0.00766682 -0.00766682 0.00767088 -0.0153377 0.00766682 -0.0153336 0.00766682 -0.00766682 0.00766682 -0.0153336 0.00767088 -0.0153377 0.00766682 -0.0153336 0.00766682 -0.00766682 0.00766682 -0.0153377 0.00766682 -0.0153336 0.00767088 -0.00767088 0.00766682 -0.0153336 0.00766682 -0.0153336 0.00766682 -0.0153377 0.00766682 -0.00766682 0.00766682 -0.0153336 0.00767088 -0.0153377 0.00766682 -0.0153336 0.00766682 -0.00766682 0.00766682 -0.0153377 0.00767088 -0.0153336 0.00766682 -0.00767088 0.00766682 -0.0153336 0.00766682 -0.0153336 0.00766682 -0.0153377 0.00767088 -0.00766682 0.00766682 -0.0153336 0.00766682 -0.0153377 0.00766682 -0.0153336 0.00767088 -0.00766682 0.00766682 -0.0153377 0.00766682 -0.0153336 0.00766682 -0.00766682 0.00766682 -0.0153377 0.00766682 -0.0153336 0.00767088 -0.0153336 0.00766682 -0.00767088 0.00766682 -0.0153336 0.00766682 -0.0153377 0.00767088 -0.00766682 0.00766682 -0.0153336 0.00766682 -0.0153377 0.00766682 -0.00766682 0.00766682 -0.00766682 0.00767088 -0.00766682 0.00766682 0 0.046005 0.00766682 0.00766682 0.0153336 0.00766682 0.00767088 0.00767088 0.0153336 0.00766682 0.0153336 0.00766682 0.00767088 0.00766682 0.0153336 0.00766682 0.0153377 0.00767088 0.0153336 0.00766682 0.00766682 0.00766682 0.0153336 0.00766682 0.0153377 0.00767088 0.00766682 0.00766682 0.0153336 0.00766682 0.0153377 0.00766682 0.0153336 0.00766682 0.00767088 0.00766682 0.0153336 0.00767088 0.0153336 0.00766682 0.0153377 0.00766682 0.00766682 0.00766682 0.0153336 0.00766682 0.0153377 0.00767088 0.00766682 0.00766682 0.0153336 0.00766682 0.0153377 0.00766682 0.0153336 0.00767088 0.00767088 0.00766682 0.0153336 0.00766682 0.0153336 0.00766682 0.0153377 0.00766682 0.00766682 0.00767088 0.0153336 0.00766682 0.0153377 0.00766682 0.0153336 0.00766682 0.00766682 0.00766682 0.0153377 0.00766682 0.0153336 0.00767088 0.00766682 0.00766682 0.0153377 0.00766682 0.0153336 0.00766682 0.0153336 0.00767088 0.00767088 0.00766682 0.0153336 0.00766682 0.0153377 0.00766682 0.0153336 0.00767088 0.00766682 0.00766682 0.0153377 0.00766682 0.0153336 0.00766682 0.0153336 0.00766682 0.00766682 0.00766682 0.0153377 0.00767088 0.0153336 0.00766682 0.00767088 0.00766682 0.0153336 0.00766682 0.0153336 0.00766682 0.0153377 0.00767088 0.00766682 0.00766682 0.0153377 0.00766682 0.0153336 0.00766682 0.0153336 0.00767088 0.00766682 0.00766682 0.0153377 0.00766682 0.0153336 0.00766682 0.0153377 0.00766682 0.00766682 0.00767088 0.0153336 0.00766682 0.0153377 0.00766682 0.00766682 0.00766682 0.0153336 0.00766682 0.0153377 0.00766682 0.0153336 0.00767088 0.00766682 0.00766682 0.0153377 0.00766682 0.0153336 0.00766682 0.0843431 0 0.0153377 -0.00766682 0.00766682 -0.00766682 0.0153336 -0.00766682 0.0153377 -0.00767088 0.0153336 -0.00766682 0.00767088 -0.00766682 0.0153336 -0.00766682 0.0153336 -0.00766682 0.00767088 -0.00766682 0.0153336 -0.00767088 0.0153336 -0.00766682 0.0153377 -0.00766682 0.00766682 -0.00766682 0.00766682 -0.00766682 -0.0536718 -0.0536759c-0.095341,0 -0.207028,-0.0434304 -0.207028,-0.130352l0 -0.0306673c0,-0.0569785 0.0575032,-0.092014 0.115014,-0.092014 0.0898095,0 0.199362,0.0558925 0.199362,0.138019l0 0.00766682c0,0.023395 -0.00736584,0.0309438 -0.0172981,0.0483681l0.0633031 0.0513128 0.0153336 0 0.0153377 -0.00766682 0.00766682 -0.00767088 0.0153336 -0.00766682 0.0153377 -0.00766682 0.00766682 -0.00766682 0.0153336 -0.00766682 0.0153377 -0.00766682 0.0153336 -0.00767088 0.00766682 -0.00766682 0.0153377 -0.00766682 0.0153336 -0.00766682 0.0153377 -0.00767088 0.00766682 -0.00766682 0.0153336 -0.00766682 0.0153377 -0.00766682 0.00766682 -0.00767088 0.0153336 -0.00766682 0.0153377 -0.00766682 0.0153336 -0.00766682 0.00766682 -0.00766682 0.0153377 -0.00766682 0.0153336 -0.00767088 0.00766682 -0.00766682 0.0153377 -0.00766682 0.0153336 -0.00766682 0.0153377 -0.00766682 0.00766682 -0.00767088 0.0153336 -0.00766682 0.00766682 -0.00766682 0.00766682 -0.00766682 0.00767088 -0.0536759 0.0153336 -0.00766682 0.00766682 -0.00766682 0 -0.276034 0 -0.0613427c-0.00968825,-0.00512884 -0.0306713,-0.0105383 -0.0306713,-0.0230045 0,-0.0237773 0.0228418,-0.0353975 0.0306713,-0.0690095 0,-0.0920099 0,-0.184024 0,-0.276034 0,-0.124007 0.0199622,-0.154573 -0.0628598,-0.205507 -0.112891,-0.0694325 -0.236069,-0.128925 -0.343526,-0.200879l-0.291368 -0.168686 -0.00767088 -0.00767088 -0.00766682 -0.00766682 -0.0153336 -0.00766682 -0.0153336 -0.00766682 -0.00767088 -0.00767088 -0.0153336 -0.00766682 -0.0153377 0 -0.00766682 0.092014z"/>
   <path id="_116903624" class="fil1" d="M2.23128 4.01785l0.00180994 -0.326582 0.143876 -0.079804 0 0.314376c0,0.0257052 -0.120591,0.0899234 -0.145686,0.0920099zm0.613154 -0.682867l0.000260306 0.337824 -0.150644 0.0814554 -0.000797186 -0.331207 0.151181 -0.0880728zm-1.05021 0.629196l0 0.00766682 0.0153336 0.00766682 0.0153377 0.00767088 0.00766682 0.00766682 0.0153336 0.00766682 0.0153377 0.00766682 0.0153336 0.00766682 0.00766682 0.00766682 0.0153377 0.00767088 0.0153336 0.00766682 0.00766682 0.00766682 0.0153377 0.00766682 0.0153336 0.00766682 0.0153377 0.00767088 0.0153336 0.00766682 0.00766682 0.00766682 0.0153336 0.00766682 0.0153377 0.00767088 0.00766682 0.00766682 0.00766682 0.00766682 0.0153377 0.00766682 0.00766682 0 0.00766682 0.00766682 0.00766682 0 0.0996808 0.0536759 0 -0.0153377 0.0153336 0 0.00767088 -0.00766682 0.0153336 -0.00766682 0.0153336 -0.00766682 0.0153377 -0.00766682 0.00766682 -0.00767088 0.0153377 -0.00766682 0.0153336 -0.00766682 0.00766682 -0.00766682 0.0153336 -0.00766682 0.0153377 -0.00767088 0.0153336 -0.00766682 0.0153377 -0.00766682 0.00766682 -0.00766682 0.0153336 -0.00767088 0.0153377 -0.00766682 0.0153336 -0.00766682 0.00766682 -0.00766682 0.0153377 -0.00766682 0 -0.00767088 -0.000435199 -0.476144 0.20746 -0.114262 0 0.475391 0.00767088 0 0.00766682 -0.00766682 0.0153336 -0.00766682 0.0153336 -0.00766682 0.0153377 -0.00766682 0.00766682 -0.00767088 0.0153377 -0.00766682 0.0153336 -0.00766682 0.0153336 -0.00766682 0.00767088 -0.00766682 0.0153336 -0.00767088 0.0153377 -0.00766682 0.0153336 -0.00766682 0.00766682 -0.00766682 0.0153336 -0.00767088 0.0153377 -0.00766682 0.00766682 -0.00766682 0.0153336 -0.00766682 0.0153377 -0.00766682 0.0153336 -0.00767088 0.00767088 -0.00766682 0 -0.460058 0 -0.0920099 -0.359153 -0.148683c-0.0136823,0.0496289 -0.145857,0.232103 -0.180099,0.291852 -0.0207879,0.0362638 -0.165896,0.278552 -0.189177,0.278552 -0.03216,0 -0.341611,-0.186725 -0.383382,-0.214695l0 0.552072z"/>
   <path id="_116965392" class="fil0" d="M3.66514 3.90283l0.00126492 0.0328636 0.367218 -0.217221 -0.0924492 -0.122348c-0.0648568,0.0343197 -0.121982,0.0674843 -0.186533,0.104838 -0.0504871,0.0292153 -0.05006,0.016143 -0.061904,0.0837818 -0.00506376,0.0289224 -0.0275965,0.10546 -0.0275965,0.118085z"/>
   <path id="_116965464" class="fil6" d="M0.360381 3.75715c0,0.0211092 0.347557,0.230033 0.391048,0.230033l0.0306713 0c0.0323715,0 0.184024,-0.0901065 0.184024,-0.115019 0,-0.0196897 -0.35816,-0.230029 -0.391052,-0.230029l-0.0306713 0c-0.0317126,0 -0.18402,0.0848149 -0.18402,0.115014z"/>
   <polygon id="_116903768" class="fil11" points="2.43065,4.02551 2.44598,4.02551 2.45365,4.01785 2.46898,4.01018 2.48432,4.00251 2.49965,3.99485 2.50732,3.98718 2.52266,3.97951 2.53799,3.97184 2.55333,3.96418 2.56099,3.95651 2.57633,3.94884 2.59166,3.94117 2.607,3.9335 2.61467,3.92584 2.63,3.91817 2.63767,3.9105 2.63767,3.43511 2.43021,3.54937 "/>
   <path id="_117208088" class="fil15" d="M2.23128 4.01785c0.0250951,-0.00208651 0.145686,-0.0663048 0.145686,-0.0920099l0 -0.314376 -0.143876 0.079804 -0.00180994 0.326582z"/>
   <path id="_115799920" class="fil0" d="M3.35076 4.11753c0.0772986,-0.0409005 0.147874,-0.0831595 0.224876,-0.127839 0.0566612,-0.0328799 0.0619406,-0.0239359 0.0788848,-0.0974723 0.013422,-0.0582597 0.0214712,-0.0982613 0.033616,-0.150404 -0.0330304,0.00882192 -0.205894,0.107803 -0.22015,0.132561 -0.0208651,0.0362476 -0.109971,0.212007 -0.117227,0.243154z"/>
   <polygon id="_116985912" class="fil0" points="2.91375,3.86452 3.32688,4.10941 3.45756,3.85009 3.04018,3.60501 3.03929,3.61291 "/>
   <path id="_116985936" class="fil0" d="M4.1482 3.97184l0 0.0153377c0,0.0541761 0.0578774,0.107344 0.115014,0.107344l0.0230045 0c0.0463873,0 0.0729995,-0.0325301 0.0766722,-0.0766763 -0.0150611,0.00797186 -0.02261,0.0153377 -0.046005,0.0153377l-0.00766682 0c-0.0433084,0 -0.0920099,-0.0564741 -0.0920099,-0.0996808l0 -0.0383382c-0.0386107,0.00899275 -0.0690095,0.0298457 -0.0690095,0.0766763z"/>
   <path id="_115807384" class="fil1" d="M1.24983 4.10219l0.00766682 0.00766682 0.00767088 0.00766682 0.00766682 0.00766682 0.00766682 0.00766682 0.00766682 0.00767088 0.00767088 0.00766682 0.00766682 0.00766682 0.00766682 0.00766682 0.00766682 0.00766682 0.00766682 0.00766682 0.00766682 0.00767088 0.00767088 0.00766682 0.00766682 0.00766682 0.00766682 0.00766682 0.00766682 0.00767088 0.00766682 0.00766682 0.00767088 0.00766682 0.00766682 0.00766682 0.00766682 0.00766682 0.00766682 0.00767088 0.0153377 0.00766682 0.00766682 0.00766682 0.00766682 0.00766682 0.0153377 0.00766682 0.0230005 0.00767088 0.0230045 0.00766682 0.0306713 0.00766682 0.0306673 0 0.00767088 -0.00766682 0 -0.0306713 -0.00767088 -0.0153336 -0.00766682 -0.0153377 -0.00766682 -0.00766682 -0.00766682 -0.0153336 -0.00766682 -0.00767088 -0.00767088 -0.00766682 -0.0383382 0 0 -0.0383382 -0.0153336 -0.00766682 -0.0153336 -0.00766682 -0.0230045 -0.00766682 -0.00766682 -0.0230045 -0.00766682 -0.0153336 -0.0230045 -0.00767088 -0.0153377 -0.00766682 0 -0.0306713 -0.00766682 -0.00766682 -0.0153336 -0.00766682 -0.0633031 -0.0513128c0.00993229,-0.0174242 0.0172981,-0.0249731 0.0172981,-0.0483681l0 -0.00766682c0,-0.0821265 -0.109552,-0.138019 -0.199362,-0.138019 -0.0575113,0 -0.115014,0.0350355 -0.115014,0.092014l0 0.0306673c0,0.0869218 0.111687,0.130352 0.207028,0.130352l0.0536718 0.0536759z"/>
   <polygon id="_116985984" class="fil17" points="2.00125,4.1252 1.98592,4.13286 1.97059,4.14053 1.96292,4.1482 1.94758,4.15587 1.93225,4.16353 1.91691,4.1712 1.90924,4.17887 1.89391,4.18654 1.88624,4.1942 1.88624,4.26321 1.89391,4.27088 1.90158,4.27855 1.91691,4.28621 1.92458,4.29389 1.93225,4.30155 1.94758,4.30922 1.95525,4.31689 1.97059,4.32455 1.97825,4.33222 1.99359,4.33989 2.00125,4.34756 2.01659,4.35522 2.02426,4.36289 2.03959,4.37056 2.04726,4.37823 2.0626,4.3859 2.07026,4.39356 2.0856,4.40123 2.09327,4.4089 2.1086,4.41657 2.12394,4.42423 2.13161,4.4319 2.14694,4.43957 2.15461,4.44724 2.16995,4.4549 2.17761,4.46257 2.19295,4.47024 2.20828,4.47791 2.21595,4.48558 2.23128,4.49324 2.23895,4.50091 2.25429,4.50858 2.26963,4.51625 2.27729,4.52391 2.29263,4.53158 2.30029,4.53925 2.31563,4.54692 2.33096,4.55459 2.33863,4.56225 2.35397,4.56992 2.3693,4.57759 2.37697,4.58525 2.39231,4.59292 2.46132,4.59292 2.47665,4.58525 2.48432,4.57759 2.49965,4.56992 2.51499,4.56225 2.53033,4.55459 2.53799,4.54692 2.55333,4.53925 2.56866,4.53158 2.57633,4.52391 2.59166,4.51625 2.607,4.50858 2.61467,4.50091 2.61467,4.41657 2.607,4.4089 2.59933,4.40123 2.584,4.39356 2.56866,4.3859 2.55333,4.37823 2.54566,4.37056 2.53033,4.36289 2.51499,4.35522 2.49965,4.34756 2.48432,4.33989 2.46898,4.33222 2.45365,4.32455 2.44598,4.31689 2.43065,4.30922 2.41531,4.30155 2.39997,4.29389 2.38464,4.28621 2.3693,4.27855 2.35397,4.27088 2.33863,4.26321 2.3233,4.25555 2.31563,4.24788 2.30029,4.24021 2.28496,4.23254 2.26963,4.22488 2.25429,4.21721 2.23895,4.20954 2.22362,4.20187 2.20828,4.1942 2.19295,4.18654 2.17761,4.18654 2.07793,4.13286 2.07026,4.13286 2.0626,4.1252 2.05493,4.1252 2.03959,4.11753 2.00892,4.11753 "/>
   <path id="_116979120" class="fil17" d="M4.1482 3.97184c0,-0.0468306 0.0303988,-0.0676836 0.0690095,-0.0766763l0 0.0383382c0,0.0432067 0.0487016,0.0996808 0.0920099,0.0996808l0.00766682 0c0.023395,0 0.0309438,-0.00736584 0.046005,-0.0153377 -0.00367275,0.0441462 -0.0302849,0.0766763 -0.0766722,0.0766763l-0.0230045 0c-0.0571371,0 -0.115014,-0.0531674 -0.115014,-0.107344l0 -0.0153377zm-1.47986 0.199358l0 0.00766682 0.00766682 0.0153377 0.00766682 0.00766682 0.00767088 0.00766682 0.0153336 0.00767088 0.0153377 0.00766682 0.0153336 0.00766682 0.00766682 0.00766682 0.0153377 0.00766682 0.0153336 0.00767088 0.00766682 0.00766682 0.0153377 0.00766682 0.0153336 0.00766682 0.00766682 0.00766682 0.0153377 0.00767088 0.0153336 0.00766682 0.0153336 0.00766682 0.00767088 0.00766682 0.0153336 0.00766682 0.0153377 0.00767088 0.0153336 0.00766682 0.00766682 0.00766682 0.0153377 0.00766682 0.0153336 0.00766682 0.00766682 0.00767088 0.0153336 0.00766682 0.0153377 0.00766682 0.0153336 0.00766682 0.00767088 0.00767088 0.0153336 0.00766682 0.0153336 0.00766682 0.0153377 0.00766682 0.00766682 0.00766682 0.0153336 0.00766682 0.0153377 0.00767088 0.00766682 0.00766682 0.0153336 0.00766682 0.0383382 0 0.0153377 -0.00766682 0.00766682 -0.00766682 0.0153377 -0.00767088 0.0153336 -0.00766682 0.0153336 -0.00766682 0.0153377 -0.00766682 0 0.0153336 0.00766682 0.00766682 0.00766682 0.00767088 0.0153377 0.00766682 0.0153336 0.00766682 0.00766682 0.00766682 0.0153377 0.00767088 0.0536718 0 0.0153336 -0.00767088 0.0153377 -0.00766682 0.00766682 -0.00766682 0.00766682 -0.00766682 0.0153377 -0.00767088 0.00766682 -0.00766682 0.00766682 -0.0153336 0.0153377 -0.00766682 0 0.0153336 0.00766682 0.00766682 0.00766682 0.0153377 0.00766682 0.00766682 0.00766682 0.00766682 0.00766682 0.00766682 0.00767088 0.0153377 0.00766682 0.00766682 0.0153336 0.00766682 0.00766682 0.00766682 0.00767088 0.00767088 0.00766682 0.00766682 0.0153336 0.00766682 0.00767088 0.00766682 0.0153336 0.00767088 0.0153336 0.00766682 0.00767088 0.0153336 0.00766682 0.00766682 0.00766682 0.00766682 0.00766682 0.00767088 0.00766682 0.00766682 0.00766682 0.0153336 0.00767088 0.00766682 0.00766682 0.00767088 0.00766682 0.00766682 0.00766682 0.00766682 0.00767088 0.00766682 0.00766682 0.0153377 0.00766682 0.00766682 0.00766682 0.00766682 0.00767088 0.00766682 0.00766682 0.00766682 0.00766682 0.00767088 0.00766682 0.00766682 0.00766682 0.0153336 0.00766682 0.00766682 0.00767088 0.00767088 0.00766682 0.00766682 0.00766682 0.00766682 0.00766682 0.00766682 0.00766682 0.00767088 0.00767088 0.00766682 0.00766682 0.00766682 0.00766682 0.00766682 0.00766682 0.00766682 0.00767088 0.00767088 0.00766682 0.00766682 0.00766682 0.00766682 0.00766682 0.00766682 0.0153377 0.00766682 0.046005 0 0.0153336 -0.00766682 0.00766682 -0.00766682 0.00767088 -0.0153336 0.00766682 -0.00767088 0.00766682 -0.00766682 0.00766682 -0.00766682 0.00766682 -0.0153336 0.00767088 -0.00767088 0 -0.145686 -0.00767088 -0.046005 -0.00766682 -0.0306673 -0.00766682 -0.0306713 -0.00766682 -0.0230045 0.00766682 -0.00766682 0.00766682 -0.00766682 0.0153377 -0.00767088 0.0153336 -0.00766682 0.0153336 -0.00766682 0.00767088 -0.00766682 0.0153336 -0.00767088 0.0153336 -0.00766682 0.0153377 -0.00766682 0.00766682 -0.00766682 0.0153336 -0.00766682 0.0153377 -0.00766682 0.0153336 -0.00767088 0.00767088 -0.00766682 0.0153336 -0.00766682 0.0153336 -0.00766682 0.0153377 -0.00767088 0.00766682 -0.00766682 0.0153336 -0.00766682 0.0153377 -0.00766682 0.0153336 -0.00766682 0.00766682 -0.00767088 0.0153377 -0.00766682 0.00766682 0 0.00766682 0.00766682 0.00767088 0.00767088 0.00766682 0.00766682 0.00766682 0.00766682 0.0153336 0.00766682 0.00766682 0.00766682 0.00767088 0.00767088 0.00766682 0.00766682 0.00766682 0.00766682 0.0153336 0.00766682 0.00767088 0.00767088 0.00766682 0.00766682 0.0153336 0.00766682 0.00767088 0.00766682 0.00766682 0.00766682 0.0153336 0.00766682 0.00766682 0.00767088 0.0153377 0.00766682 0.00766682 0.00766682 0.0153336 0.00766682 0.0153377 0.00767088 0.0153336 0.00766682 0.046005 0 0.0230045 -0.00766682 0.0153336 -0.00767088 0.00766682 -0.00766682 0.00767088 -0.0153336 0.00766682 -0.00767088 0.00766682 -0.0230005 0 -0.046005 -0.00766682 -0.0306713 -0.00766682 -0.0230045 -0.00767088 -0.0306713 -0.00766682 -0.0230005 -0.00766682 -0.0153377 -0.00766682 -0.0230005 -0.00766682 -0.0230045 -0.00766682 -0.0153336 -0.00767088 -0.0153377 -0.00766682 -0.0230005 -0.00766682 -0.0153377 -0.00766682 -0.0153336 -0.00766682 -0.0153336 -0.00767088 -0.00767088 -0.00766682 -0.0153336 -0.00766682 -0.0613427 -0.00766682 -0.0383382 -0.00767088 -0.0230005 -0.00766682 -0.0230045 -0.00766682 -0.0153377 -0.00766682 -0.0153336 -0.00766682 -0.00766682 -0.00767088 -0.0153336 -0.00766682 -0.00767088 -0.00766682 -0.00766682 -0.00766682 -0.00766682 -0.00766682 -0.00766682 -0.00766682 -0.00766682 -0.00767088 -0.00767088 -0.00766682 -0.00766682 -0.00766682 -0.00766682 -0.00766682 -0.00766682 -0.00767088 -0.00767088 -0.0153336 -0.00766682 -0.00766682 -0.00766682 -0.0153377 -0.00766682 -0.0153336 -0.00766682 -0.0153336 -0.00767088 -0.0230045 -0.00766682 -0.0306713 -0.00766682 -0.0843431 0c-0.0244769,0.0155329 -0.061001,0.0148537 -0.0890327,0.0336486 -0.0280927,0.0188356 -0.048364,0.0498038 -0.0641247,0.0585566 -0.0560227,0.0311228 -0.105851,0.0570761 -0.122877,0.130157 -0.019405,-0.0129909 -0.0342546,-0.046005 -0.046009,-0.046005 -0.014809,0 -0.0306713,0.0136701 -0.0306713,0.0230005 0,0.0225653 0.021459,0.0218006 0.0305127,0.0610336l-0.0458463 0.0233136c-0.028959,-0.00674761 -0.0479654,-0.0153377 -0.0843431,-0.0153377l-0.046009 0c-0.0278527,0 -0.0268928,0.0090985 -0.0537653,0.0152767l0.0150123 -0.0313546 -0.0609237 0.0314156c-0.00073211,0.0327701 -0.0998801,0.159649 -0.122681,0.176353 -0.0138409,-0.00926526 -0.013483,-0.0153336 -0.0306713,-0.0153336l-0.0153377 0c-0.0637668,0 -0.109491,0.0764648 -0.13021,0.12282 -0.0239807,0.0536596 -0.0956705,0.0806704 -0.145271,0.106258l-0.445277 -0.252082z"/>
   <path id="_115807360" class="fil3" d="M3.03929 3.61291l0.000890734 -0.00789458 0.417388 0.245078 -0.130682 0.259313 -0.41313 -0.244887 0.125532 -0.25161zm0.311476 0.504619c0.00725602,-0.0311472 0.0963619,-0.206906 0.117227,-0.243154 0.0142558,-0.0247575 0.187119,-0.123739 0.22015,-0.132561 -0.0121449,0.0521425 -0.020194,0.0921442 -0.033616,0.150404 -0.0169443,0.0735364 -0.0222236,0.0645924 -0.0788848,0.0974723 -0.0770017,0.044679 -0.147577,0.086938 -0.224876,0.127839zm0.314376 -0.214695c0,-0.0126248 0.0225327,-0.0891629 0.0275965,-0.118085 0.0118439,-0.0676388 0.0114168,-0.0545666 0.061904,-0.0837818 0.0645518,-0.0373539 0.121677,-0.0705185 0.186533,-0.104838l0.0924492 0.122348 -0.367218 0.217221 -0.00126492 -0.0328636zm-0.245367 -0.552072l-0.0996768 0.0536759 -0.176357 0.0996768 -0.0153377 0.00767088 -0.0153336 0.00766682 -0.00766682 0.00766682 -0.0153377 0.00766682 -0.0153336 0.00767088 -0.00766682 0.00766682 -0.00766682 0.00766682 -0.00767088 0.00766682 -0.00766682 0.00766682 -0.00766682 0.00767088 -0.00766682 0.00766682 -0.00766682 0.0153336 -0.00767088 0.0153377 -0.00766682 0.0153336 -0.00766682 0.0153336 -0.00766682 0.0153377 -0.00767088 0.0153336 -0.00766682 0.0153377 -0.00766682 0.0153336 -0.00766682 0.0153377 -0.00766682 0.0153336 -0.00766682 0.0153336 -0.00767088 0.0153377 -0.00766682 0.00766682 -0.00766682 0.0153336 -0.00766682 0.0153377 -0.00766682 0.0153336 -0.00767088 0.0153377 -0.00766682 0.0153336 -0.00766682 0.00766682 -0.00766682 0.00766682 -0.00767088 0.00767088 -0.00766682 0.00766682 -0.00766682 0.00766682 -0.00766682 0.00766682 -0.00766682 0.00766682 -0.00767088 0.00766682 -0.00766682 0.00767088 -0.0153336 0.00766682 -0.00766682 0.00766682 -0.00766682 0.00766682 -0.00767088 0.00767088 -0.00766682 0.00766682 -0.0153336 0.00766682 -0.00767088 0.00766682 -0.00766682 0.00767088 -0.00766682 0.00766682 -0.0153336 0.00766682 -0.00767088 0.00766682 -0.00766682 0.00766682 -0.00766682 0.00766682 -0.00766682 0.00767088 -0.0153377 0.00766682 -0.00766682 0.00766682 -0.00766682 0.00766682 -0.00766682 0.00766682 -0.00766682 0.00767088 -0.00767088 0.0153336 0 0.0306713 0.00767088 0.0153336 0.00766682 0.0153377 0.00766682 0.0153336 0.00766682 0.00766682 0.445277 0.252082c0.0496004,-0.0255872 0.12129,-0.052598 0.145271,-0.106258 0.0207187,-0.0463548 0.066443,-0.12282 0.13021,-0.12282l0.0153377 0c0.0171883,0 0.0168304,0.00606838 0.0306713,0.0153336 0.0228012,-0.0167043 0.121949,-0.143583 0.122681,-0.176353l0.0609237 -0.0314156 -0.0150123 0.0313546c0.0268725,-0.00617819 0.0259126,-0.0152767 0.0537653,-0.0152767l0.046009 0c0.0363777,0 0.0553841,0.00859009 0.0843431,0.0153377l0.0458463 -0.0233136c-0.00905376,-0.039233 -0.0305127,-0.0384683 -0.0305127,-0.0610336 0,-0.00933033 0.0158624,-0.0230005 0.0306713,-0.0230005 0.0117544,0 0.0266041,0.0330141 0.046009,0.046005 0.0170256,-0.0730808 0.0668538,-0.0990341 0.122877,-0.130157 0.0157607,-0.00875278 0.036032,-0.039721 0.0641247,-0.0585566 0.0280317,-0.0187949 0.0645558,-0.0181157 0.0890327,-0.0336486l-0.0230045 0 0 -0.0383382 -0.00766682 -0.0153336 -0.00766682 -0.00767088 -0.0153377 -0.00766682 -0.00766682 -0.00766682 -0.00766682 -0.00766682 -0.00766682 -0.00766682 -0.00766682 -0.00767088 -0.00767088 -0.00766682 -0.00766682 -0.00766682 -0.0153336 -0.00766682 -0.00766682 -0.00766682 -0.00767088 -0.00767088 -0.00766682 -0.00766682 -0.00766682 -0.00766682 -0.00766682 -0.00766682 -0.00766682 -0.00766682 -0.00767088 -0.00767088 -0.00766682 -0.00766682 -0.00766682 -0.00766682 -0.0153336 -0.00766682 -0.0153377 -0.00766682 -0.00766682 -0.00767088 -0.0153377 -0.00766682 -0.0153336 -0.00766682 -0.0153336 -0.00766682 -0.00766682 -0.00767088 -0.0153377 -0.00766682 -0.0153336 -0.00766682 -0.00766682 -0.00766682 -0.0153377 -0.00766682 -0.0153336 -0.00766682 -0.0153377 -0.00767088 -0.00766682 -0.00766682 -0.0153336 -0.00766682 -0.0153377 -0.00766682 -0.0153336 -0.00767088 -0.00766682 -0.00766682 -0.0153377 -0.00766682 -0.00766682 0 -0.0613427 -0.0306713 -0.130088 -0.0771156 -0.0999411 0.0464442z"/>
  </g>
 </g>
</svg>
