<?xml version="1.0" encoding="UTF-8"?>
<!DOCTYPE svg PUBLIC "-//W3C//DTD SVG 1.1//EN" "http://www.w3.org/Graphics/SVG/1.1/DTD/svg11.dtd">
<!-- Creator: CorelDRAW -->
<svg xmlns="http://www.w3.org/2000/svg" xml:space="preserve" width="4.53808in" height="4.26579in" style="shape-rendering:geometricPrecision; text-rendering:geometricPrecision; image-rendering:optimizeQuality; fill-rule:evenodd; clip-rule:evenodd"
viewBox="0 0 4.40556 4.14122"
 xmlns:xlink="http://www.w3.org/1999/xlink">
 <defs>
  <style type="text/css">
   <![CDATA[
    .str0 {stroke:#1F1A17;stroke-width:0.0029124}
    .str1 {stroke:#DA251D;stroke-width:0.0029124}
    .fil24 {fill:#1F1A17}
    .fil25 {fill:#DA251D}
    .fil18 {fill:#00C9BF}
    .fil16 {fill:#033D5A}
    .fil7 {fill:#07273E}
    .fil9 {fill:#0B3533}
    .fil17 {fill:#164C67}
    .fil22 {fill:#25363A}
    .fil1 {fill:#55A9A8}
    .fil0 {fill:#59DCD6}
    .fil21 {fill:#7D979E}
    .fil14 {fill:#89B3B3}
    .fil10 {fill:#8D9544}
    .fil20 {fill:#BEF7F6}
    .fil13 {fill:#C6D1D7}
    .fil5 {fill:#CBB72E}
    .fil3 {fill:#CCECEC}
    .fil15 {fill:#D4C832}
    .fil12 {fill:#D57810}
    .fil23 {fill:#E3DCD4}
    .fil2 {fill:#EA7804}
    .fil11 {fill:#ECECEB}
    .fil19 {fill:#F6C69E}
    .fil8 {fill:#FAD625}
    .fil6 {fill:#FAF8F5}
    .fil4 {fill:#FCEED1}
   ]]>
  </style>
 </defs>
 <g id="Layer_x0020_1">
  <metadata id="CorelCorpID_0Corel-Layer"/>
  <g id="_125465528">
   <g>
    <polygon id="_125472992" class="fil0" points="2.10949,0.108844 2.06802,0.114027 2.03692,0.119209 2.00583,0.124392 1.97991,0.129575 1.95918,0.134758 1.93845,0.13994 1.91771,0.145123 1.89698,0.150306 1.88143,0.155488 1.86589,0.160671 1.85033,0.165858 1.83479,0.17104 1.81924,0.176223 1.80369,0.181406 1.79332,0.186588 1.79332,0.202136 1.80369,0.202136 1.82442,0.196954 1.83997,0.191771 1.86589,0.186588 1.88662,0.181406 1.91253,0.176223 1.93845,0.17104 1.96436,0.165858 1.99546,0.160671 2.03174,0.155488 2.07321,0.150306 2.12504,0.145123 2.1976,0.13994 2.26498,0.134758 2.26498,0.108844 2.24943,0.103661 2.19242,0.103661 "/>
    <polygon id="_81923920" class="fil1" points="2.11467,0.212502 2.07839,0.217684 2.04729,0.222867 2.02656,0.228054 2.02137,0.233236 2.02137,0.238419 2.02656,0.243602 2.04729,0.243602 2.09394,0.238419 2.16132,0.233236 2.23906,0.228054 2.23906,0.212502 2.23388,0.207319 2.19242,0.207319 "/>
    <path id="_81923944" class="fil2" d="M2.64334 0.285063l0 0.0207346c0,0.0630102 0.0477488,0.119209 0.108844,0.119209l0.0259173 0c0.0590085,0 0.107545,-0.0609845 0.108638,-0.121117l-0.12419 0.0122726 0.00020639 -0.0238457 0.119003 -0.0124369c-0.00934489,-0.0401085 -0.0490444,-0.0932922 -0.0932922,-0.0932922l-0.046648 0c-0.0419928,0 -0.0984787,0.0566427 -0.0984787,0.0984749z"/>
    <polygon id="_127227424" class="fil3" points="1.90735,0.383542 1.90217,0.388725 1.89698,0.393907 1.8918,0.404273 1.8918,0.43019 1.89698,0.440555 1.90217,0.445738 1.90735,0.450921 1.9229,0.456103 1.93845,0.456103 1.94881,0.450921 1.95918,0.445738 1.96436,0.435373 1.96436,0.39909 1.95918,0.393907 1.954,0.388725 1.94881,0.383542 1.93327,0.378359 1.92808,0.378359 "/>
    <path id="_127225144" class="fil4" d="M1.33722 0.694522l0.0155481 -0.00518269 -0.0310961 -0.108844c-0.0378497,0 -0.0379987,0.0103654 -0.0673788,0.0103654 -0.0157506,0 -0.0175967,-0.00898944 -0.0207346,-0.0207308l0.0207346 0c0.0343563,0 0.119209,-0.0244878 0.119209,-0.0518307 0,-0.0216901 -0.0244955,-0.0207308 -0.046648,-0.0207308 0.00795749,-0.0108622 0.0310961,-0.0233297 0.0310961,-0.0414653 0,-0.0120853 -0.0138281,-0.0259134 -0.0259134,-0.0259134l-0.0362826 0c-0.0339053,0 -0.0694006,0.0350825 -0.0932922,0.0414653 0.00365005,-0.0438923 0.0682387,-0.0725653 0.119145,-0.0726035l0.0104304 -0.0206925c-0.0412551,-0.0197944 -0.150306,0.0458148 -0.150306,0.0777442 0,0.0439 0.00448708,0.0858431 0.0310961,0.103661l0 0.0310961c0.0144282,0.00966594 0.0179139,0.0207346 0.0414653,0.0207346l0.00518269 0c0.022294,0 0.028092,-0.00604647 0.0477144,-0.0106788l0.0300298 0.0936056z"/>
    <polygon id="_127227376" class="fil3" points="3.32231,0.461286 3.31713,0.471655 3.31194,0.476838 3.31194,0.502751 3.31713,0.513117 3.32231,0.518299 3.32749,0.523482 3.33268,0.528665 3.36378,0.528665 3.37414,0.523482 3.37932,0.518299 3.38451,0.507934 3.38451,0.471655 3.37932,0.466469 3.37414,0.461286 3.36896,0.456103 3.33268,0.456103 "/>
    <polygon id="_127227112" class="fil5" points="1.79851,0.513117 1.79332,0.518299 1.79332,0.549399 1.79851,0.554582 1.80369,0.559765 1.8296,0.559765 1.83997,0.554582 1.84515,0.544217 1.84515,0.523482 1.83997,0.513117 1.8296,0.507934 1.80887,0.507934 "/>
    <path id="_127224688" class="fil2" d="M2.5034 0.274698l0 0.077748c0,0.0480698 0.059578,0.128948 0.0894434,0.154158 0.0418934,0.0353615 0.104414,0.0635262 0.180072,0.0635262 0.143911,0 0.253971,-0.126257 0.253971,-0.27988l-0.0156971 -0.00117719 -0.0568682 0.00635988c0,0.0977487 -0.0772205,0.196954 -0.165854,0.196954l-0.0362826 0c-0.086661,0 -0.176223,-0.0836377 -0.176223,-0.165858l0 -0.0310961c0,-0.0841308 0.0824376,-0.176223 0.160675,-0.176223l0.0414653 0c0.0818032,0 0.165101,0.0789901 0.171143,0.151349l0.0724583 -0.00622611c0,-0.108194 -0.132522,-0.222867 -0.243602,-0.222867 -0.138526,0 -0.274702,0.101705 -0.274702,0.233232z"/>
    <polygon id="_127227256" class="fil1" points="0.850015,0.518299 0.844832,0.523482 0.839649,0.528665 0.829284,0.533851 0.824101,0.539034 0.813732,0.544217 0.808553,0.549399 0.803366,0.554582 0.798184,0.559765 0.787818,0.564948 0.782636,0.57013 0.777453,0.575313 0.77227,0.580496 0.767088,0.585678 0.761905,0.590861 0.756722,0.596047 0.746353,0.60123 0.74117,0.606413 0.735988,0.611596 0.730805,0.616778 0.725622,0.621961 0.72044,0.627144 0.715257,0.637509 0.710074,0.642692 0.704892,0.647874 0.699709,0.653057 0.694526,0.658244 0.68934,0.663426 0.68934,0.673792 0.699709,0.673792 0.704892,0.668609 0.710074,0.663426 0.715257,0.658244 0.72044,0.653057 0.725622,0.647874 0.730805,0.642692 0.735988,0.637509 0.746353,0.632326 0.751536,0.627144 0.756722,0.621961 0.761905,0.616778 0.767088,0.611596 0.77227,0.606413 0.777453,0.60123 0.782636,0.596047 0.793001,0.590861 0.798184,0.585678 0.803366,0.580496 0.808553,0.575313 0.818918,0.57013 0.824101,0.564948 0.829284,0.559765 0.839649,0.554582 0.844832,0.549399 0.850015,0.544217 0.86038,0.539034 0.870749,0.533851 0.875928,0.528665 0.875928,0.513117 0.86038,0.513117 "/>
    <path id="_127225072" class="fil6" d="M2.64334 0.285063c0,-0.0418323 0.056486,-0.0984749 0.0984787,-0.0984749l0.046648 0c0.0442478,0 0.0839473,0.0531837 0.0932922,0.0932922l-0.119003 0.0124369 -0.00020639 0.0238457 0.12419 -0.0122726c-0.0010931,0.0601322 -0.0496292,0.121117 -0.108638,0.121117l-0.0259173 0c-0.0610953,0 -0.108844,-0.0561993 -0.108844,-0.119209l0 -0.0207346zm-0.13994 -0.0103654c0,-0.131528 0.136176,-0.233232 0.274702,-0.233232 0.11108,0 0.243602,0.114673 0.243602,0.222867l-0.0724583 0.00622611c-0.00604265,-0.0723589 -0.0893402,-0.151349 -0.171143,-0.151349l-0.0414653 0c-0.0782372,0 -0.160675,0.0920921 -0.160675,0.176223l0 0.0310961c0,0.0822198 0.0895619,0.165858 0.176223,0.165858l0.0362826 0c0.0886332,0 0.165854,-0.0992049 0.165854,-0.196954l0.0568682 -0.00635988 0.0156971 0.00117719c0,0.153623 -0.11006,0.27988 -0.253971,0.27988 -0.0756573,0 -0.138178,-0.0281646 -0.180072,-0.0635262 -0.0298654,-0.0252102 -0.0894434,-0.106088 -0.0894434,-0.154158l0 -0.077748zm0.186588 -0.269515l-0.0155481 0.00518269 -0.0155519 0.00518269 -0.0155481 0.00518269 -0.0103654 0.00518269 -0.0103654 0.00518269 -0.0103654 0.00518269 -0.0103654 0.00518651 -0.00518651 0.00518269 -0.0103654 0.00518269 -0.00518269 0.00518269 -0.00518269 0.00518269 -0.0103654 0.00518269 -0.00518269 0.00518269 -0.00518269 0.00518269 -0.00518269 0.00518269 -0.00518269 0.00518269 -0.00518269 0.00518269 -0.00518651 0.00518269 -0.00517887 0.00518651 -0.00518651 0.00518269 -0.00518269 0.0103654 -0.00518269 0.00518269 -0.00518269 0.00518269 -0.00518269 0.0103654 -0.00518269 0.00518269 -0.00518269 0.0103654 -0.00518269 0.0103692 -0.00518269 0.0103654 -0.00518269 0.0155481 -0.00518651 0.0103654 -0.00517887 0.0155481 -0.00518651 0.0207346 -0.00518269 0.0310961 0 0.0673788 0.00518269 0.0362826 0.00518651 0.0207308 0.00517887 0.0155519 0.00518651 0.0103654 0.00518269 0.0155481 0.00518269 0.0103654 0.00518269 0.0103654 0.00518269 0.00518269 0.00518269 0.0103692 0.00518269 0.0103654 0.00518269 0.00518269 0.00518269 0.00518269 0.00518269 0.0103654 0.00518651 0.00518269 0.00517887 0.00518269 0.00518651 0.00518269 0.00518269 0.00518269 0.00518269 0.00518269 0.00518269 0.00518651 0.00518269 0.00518269 0.00518269 0.00518269 0.0103654 0.00518269 0.00518269 0.00518269 0.00518269 0.00518269 0.0103654 0.00518269 0.00518651 0.00518269 0.0103654 0.00518269 0.0103654 0.00518269 0.0103654 0.00518269 0.0103654 0.00518269 0.0155481 0.00518651 0.0155519 0.00518269 0.0207308 0.00518269 0.0259173 0.00518269 0.0829268 0 0.0310961 -0.00518269 0.0155519 -0.00518269 0.0155481 -0.00518269 0.0155481 -0.00518651 0.0103654 -0.00518269 0.0103692 -0.00518269 0.0103654 -0.00518269 0.0103654 -0.00518269 0.0103654 -0.00518269 0.00518269 -0.00518269 0.00518269 -0.00518269 0.0103654 -0.00518269 0.00518269 -0.00518269 0.00518651 -0.00518269 0.00518269 -0.00518269 0.00518269 -0.00518651 0.00518269 -0.00518269 0.00518269 -0.00518269 0.00518269 -0.00518269 0.00518269 -0.00518269 0.00518269 -0.00518269 0.00518269 -0.00518269 0.00518269 -0.0103654 0.00518269 -0.00518269 0.00518651 -0.00518269 0.00518269 -0.0103692 0.00518269 -0.0103654 0.00518269 -0.00518269 0.00518269 -0.0103654 0.00518269 -0.0155481 0.00518269 -0.0103654 0.00518269 -0.0155519 0.00518269 -0.0207308 0.00518269 -0.0207308 0 -0.0725653 0.0311 0 0.0103654 0 0.00518269 0.00518651 0.00518269 0.0103654 0.00518269 0.00518269 0.00518269 0.00518269 0.00518269 0.0103654 0.00518269 0.00518269 0.00518651 0.00518269 0.00518269 0.0103654 0.00518269 0.00518651 0.0259134 0 0.0414653 -0.00518651 0.046648 -0.00518269 0.0103654 -0.00518269 0 -0.0103654 -0.00518269 -0.00518269 -0.00518269 -0.00518269 -0.00518651 -0.0103654 -0.00518269 -0.00518269 -0.00518269 -0.00518269 -0.00518269 -0.0103692 -0.00518269 -0.00518269 -0.00518269 -0.0103654 -0.00518269 -0.00518269 0 -0.0207308 0.00518269 -0.0103654 0.00518269 -0.0103692 0.00518269 -0.0155481 0.00518269 -0.0103654 0.00518269 -0.0103654 0 -0.0207346 -0.0103654 0 -0.046648 0.00518651 -0.0466442 0.00518269 -0.0207346 0.00518269 -0.00518269 0.0155481 -0.00518269 0.0103654 -0.00518269 0.0103654 -0.00518269 0.0155519 -0.00518269 0.0103654 -0.00518269 0.0103654 -0.0414653 0.00518269 0 -0.0207308 -0.00518269 -0.0207346 -0.00518269 -0.0155481 -0.00518269 -0.0103654 -0.00518269 -0.0155481 -0.00518269 -0.0103692 -0.00518269 -0.00518269 -0.00518269 -0.0103654 -0.00518269 -0.0103654 -0.00518651 -0.00518269 -0.00518269 -0.0103654 -0.00518269 -0.00518269 -0.00518269 -0.00518269 -0.00518269 -0.00518269 -0.00518269 -0.00518651 -0.00518269 -0.00518269 -0.00518269 -0.00518269 -0.00518269 -0.00518269 -0.00518269 -0.00518269 -0.00518269 -0.00518269 -0.00518651 -0.00518269 -0.00518269 -0.00518269 -0.00518269 -0.00518269 -0.0103654 -0.00518269 -0.00518269 -0.00518269 -0.0103654 -0.00518269 -0.0103654 -0.00518651 -0.00518269 -0.00518269 -0.0155519 -0.00518269 -0.0103654 -0.00518269 -0.0103654 -0.00518269 -0.0155481 -0.00518269 -0.0207346 -0.00518269 -0.0259134 -0.00518269 -0.0881095 0 -0.0311 0.00518269z"/>
    <path id="_127227280" class="fil4" d="M3.62293 0.497569l0 0.0259134c0,0.0471372 0.0421189,0.0881134 0.0881134,0.0881134l0.0207308 0c0.0343066,0 0.0829268,-0.0437318 0.0829268,-0.0777442l0 -0.0259173c0,-0.0418131 -0.0380446,-0.0881095 -0.0777442,-0.0881095l-0.0362788 0c-0.032988,0 -0.077748,0.0447561 -0.077748,0.0777442z"/>
    <path id="_127225384" class="fil7" d="M3.62293 0.497569c0,-0.032988 0.0447599,-0.0777442 0.077748,-0.0777442l0.0362788 0c0.0396996,0 0.0777442,0.0462964 0.0777442,0.0881095l0 0.0259173c0,0.0340124 -0.0486202,0.0777442 -0.0829268,0.0777442l-0.0207308 0c-0.0459945,0 -0.0881134,-0.0409761 -0.0881134,-0.0881134l0 -0.0259134zm0.046648 -0.108844l-0.0103654 0.00518269 -0.0103654 0.00518269 -0.0103692 0.00518269 -0.00518269 0.00518651 -0.00518269 0.00518269 -0.00518269 0.00518269 -0.00518269 0.00518269 -0.00518269 0.00518269 -0.00518269 0.00518269 -0.00518269 0.0103654 -0.00518269 0.0103654 -0.00518269 0.0103654 -0.00518269 0.0155519 0 0.0673788 0.00518269 0.0155481 0.00518269 0.0103654 0.00518269 0.0103654 0.00518269 0.00518269 0.00518269 0.0103692 0.00518269 0.00518269 0.00518269 0.00518269 0.00518269 0.00518269 0.00518269 0.00518269 0.0103692 0.00518269 0.00518269 0.00518269 0.0103654 0.00518269 0.0103654 0.00518269 0.0207308 0.00518269 0.0570134 0 0.0155519 -0.00518269 0.0155481 -0.00518269 0.0103654 -0.00518269 0.00518269 -0.00518269 0.0103654 -0.00518269 0.00518269 -0.00518269 0.00518269 -0.00518269 0.00518269 -0.00518269 0.00518651 -0.00518269 0.00518269 -0.0103692 0.00518269 -0.00518269 0.00518269 -0.0103654 0.00518269 -0.0103654 0.00518269 -0.0207308 0 -0.0621961 -0.00518269 -0.0155519 -0.00518269 -0.0103654 -0.00518269 -0.0103654 -0.00518269 -0.0103654 -0.00518269 -0.00518269 -0.00518651 -0.00518269 -0.00518269 -0.00518269 -0.00518269 -0.00518269 -0.00518269 -0.00518269 -0.00518269 -0.00518651 -0.0103654 -0.00518269 -0.00518269 -0.00518269 -0.0155481 -0.00518269 -0.0155519 -0.00518269 -0.0673788 0 -0.0155481 0.00518269z"/>
    <polygon id="_127229464" class="fil7" points="1.59118,0.637509 1.586,0.642692 1.58082,0.647874 1.58082,0.684157 1.586,0.68934 1.59118,0.694522 1.60673,0.699705 1.6171,0.699705 1.63265,0.694522 1.63783,0.68934 1.64302,0.678974 1.64302,0.653057 1.63783,0.642692 1.62747,0.637509 1.6171,0.632326 1.60673,0.632326 "/>
    <path id="_127229392" class="fil8" d="M1.21283 0.160671l-0.0207308 0.00518651 -0.0207346 0.00518269 -0.0103654 0.00518269 -0.0155481 0.00518269 -0.0103654 0.00518269 -0.0103654 0.00518269 -0.00518269 0.00518269 -0.0103692 0.00518269 -0.00518269 0.00518269 -0.00518269 0.00518269 -0.0103654 0.00518269 -0.00518269 0.00518269 -0.00518269 0.00518651 -0.00518269 0.00518269 -0.00518269 0.00518269 -0.00518651 0.00518269 -0.00517887 0.00518269 -0.00518651 0.00518269 -0.00518269 0.00518269 -0.00518269 0.0103654 -0.00518269 0.00518269 -0.00518269 0.0103654 -0.00518269 0.00518651 -0.00518269 0.0103654 -0.00518269 0.0103654 -0.00518269 0.0103654 -0.00518269 0.0155481 -0.00518651 0.0103692 -0.00517887 0.0207308 -0.00518651 0.0310961 0 0.0673788 0.00518651 0.0311 0.00517887 0.0207308 0.00518651 0.0103654 0.00518269 0.0155519 0.00518269 0.0103654 0.00518269 0.0103654 0.00518269 0.0103654 0.00518269 0.00518269 0.00518269 0.0103654 0.00518269 0.00518651 0.00518269 0.0103654 0.00518269 0.00518269 0.00518651 0.00518269 0.00517887 0.00518269 0.00518651 0.00518269 0.00518269 0.00518269 0.00518269 0.00518269 0.00518269 0.00518269 0.00518269 0.00518269 0.00518269 0.00518269 0.0103654 0.00518651 0.00518269 0.00518269 0.0103692 0.00518269 0.0103654 0.00518269 0.00518269 0.00518269 0.0103654 0.00518269 0.0103654 0.00518269 0.0155481 0.00518269 0.0155519 0.00518269 0.0207308 0.00518269 0.0362826 0 0.0932922 -0.0103654 -0.0300298 -0.0936056c-0.0196224,0.00463232 -0.0254204,0.0106788 -0.0477144,0.0106788l-0.00518269 0c-0.0235514,0 -0.0270371,-0.0110686 -0.0414653,-0.0207346l0 -0.0310961c-0.0266091,-0.0178184 -0.0310961,-0.0597615 -0.0310961,-0.103661 0,-0.0319293 0.109051,-0.0975385 0.150306,-0.0777442l-0.0104304 0.0206925c-0.0509058,3.82204e-005 -0.115494,0.0287112 -0.119145,0.0726035 0.0238916,-0.00638281 0.0593869,-0.0414653 0.0932922,-0.0414653l0.0362826 0c0.0120853,0 0.0259134,0.0138281 0.0259134,0.0259134 0,0.0181356 -0.0231386,0.0306031 -0.0310961,0.0414653 0.0221526,0 0.046648,-0.000959333 0.046648,0.0207308 0,0.0273429 -0.0848532,0.0518307 -0.119209,0.0518307l-0.0207346 0c0.0031379,0.0117413 0.00498394,0.0207308 0.0207346,0.0207308 0.02938,0 0.0295291,-0.0103654 0.0673788,-0.0103654l0.0310961 0.108844 0.0829307 -0.0414653 0.00518269 0 0.00518269 -0.00518269 0.00518269 -0.00518269 0.00518269 -0.00518269 0.00518269 -0.00518269 0.00518269 -0.00518269 0.00518269 -0.00518269 0.00518269 -0.00518269 0.00518269 -0.00518269 0.00518651 -0.00518269 0.00518269 -0.0103692 0.00518269 -0.00518269 0.00518269 -0.0103654 0.00518269 -0.0103654 0.00518269 -0.00518269 0.00518269 -0.0103654 0.00518269 -0.0155481 0.00518269 -0.0103692 0.00518269 -0.0207308 0.00518269 -0.0259134 0 -0.093296 -0.00518269 -0.0207308 -0.00518269 -0.0155481 -0.00518269 -0.0155519 -0.00518269 -0.0155481 -0.00518269 -0.0103654 -0.00518269 -0.0103654 -0.00518269 -0.00518269 -0.00518269 -0.0103692 -0.00518269 -0.00518269 -0.00518269 -0.0103654 -0.00518651 -0.00518269 -0.00518269 -0.00518269 -0.00518269 -0.00518269 -0.00518269 -0.00518269 -0.00518269 -0.00518269 -0.00518269 -0.00518269 -0.00518269 -0.00518269 -0.00518269 -0.00518651 -0.00518269 -0.00518269 -0.00518269 -0.00518269 -0.00518269 -0.00518269 -0.0103692 -0.00518269 -0.00518269 -0.00518269 -0.0103654 -0.00518269 -0.0103654 -0.00518269 -0.0103654 -0.00518269 -0.0103654 -0.00518269 -0.0155519 -0.00518269 -0.0155481 -0.00518269 -0.0207308 -0.00518651 -0.046648 -0.00518269 -0.0207308 0 -0.0414653 0.00518269z"/>
    <polygon id="_127229416" class="fil7" points="3.2653,0.653057 3.26011,0.663426 3.25493,0.673792 3.25493,0.684157 3.26011,0.699705 3.2653,0.704888 3.27567,0.71007 3.30676,0.71007 3.31194,0.704888 3.31713,0.699705 3.32231,0.68934 3.32231,0.668609 3.31713,0.658244 3.31194,0.653057 3.30158,0.647874 3.27567,0.647874 "/>
    <polygon id="_127225504" class="fil5" points="2.4412,0.684157 2.43602,0.694522 2.43602,0.715253 2.4412,0.725622 2.45156,0.730805 2.4723,0.730805 2.48266,0.725622 2.48785,0.72044 2.48785,0.694522 2.48266,0.684157 2.4723,0.678974 2.45156,0.678974 "/>
    <polygon id="_127224760" class="fil1" points="3.54518,0.668609 3.55555,0.673792 3.56073,0.678974 3.57109,0.684157 3.58146,0.68934 3.58665,0.694522 3.59701,0.699705 3.60219,0.704888 3.60738,0.71007 3.61774,0.715253 3.62293,0.72044 3.62811,0.725622 3.63329,0.730805 3.63847,0.735988 3.64366,0.74117 3.64884,0.746353 3.65403,0.751536 3.65921,0.756718 3.66439,0.761901 3.66957,0.767084 3.67476,0.772267 3.67994,0.777449 3.68512,0.782636 3.6903,0.793001 3.69549,0.798184 3.70067,0.803366 3.70586,0.813732 3.71104,0.818915 3.71622,0.82928 3.7214,0.834463 3.72659,0.844832 3.73177,0.855197 3.73695,0.865563 3.74213,0.875928 3.74732,0.886293 3.7525,0.896659 3.75768,0.907028 3.77842,0.907028 3.77842,0.896659 3.77323,0.881111 3.76805,0.870745 3.76287,0.86038 3.75768,0.850015 3.7525,0.839645 3.74732,0.82928 3.74213,0.818915 3.73695,0.813732 3.73177,0.803366 3.72659,0.798184 3.7214,0.793001 3.71622,0.782636 3.71104,0.777449 3.70586,0.772267 3.70067,0.767084 3.69549,0.756718 3.6903,0.751536 3.68512,0.746353 3.67994,0.74117 3.67476,0.735988 3.66957,0.730805 3.65921,0.730805 3.65921,0.72044 3.64884,0.715253 3.64366,0.71007 3.63847,0.704888 3.63329,0.699705 3.62293,0.694522 3.61774,0.68934 3.60738,0.684157 3.60219,0.678974 3.59183,0.673792 3.58665,0.668609 3.57628,0.663426 3.56591,0.658244 3.54518,0.658244 "/>
    <polygon id="_127229368" class="fil9" points="0.419825,0.808549 0.419825,0.803366 0.414642,0.803366 0.414642,0.808549 "/>
    <polygon id="_127229848" class="fil10" points="1.35277,0.68934 1.33722,0.694522 1.24393,0.704888 1.24393,0.71007 1.24393,0.730805 1.24393,0.756718 1.25947,0.761901 1.25429,0.767084 1.25429,0.793001 1.26466,0.798184 1.26984,0.803366 1.26466,0.808549 1.26466,0.82928 1.26984,0.834463 1.28539,0.834463 1.28539,0.844832 1.29057,0.850015 1.35795,0.850015 1.37868,0.844832 1.39423,0.839645 1.40978,0.834463 1.42014,0.82928 1.43051,0.824097 1.44088,0.818915 1.45124,0.813732 1.46161,0.808549 1.46679,0.803366 1.47716,0.798184 1.47716,0.782636 1.47716,0.777449 1.48234,0.772267 1.48234,0.756718 1.47716,0.751536 1.47198,0.746353 1.46083,0.746093 1.46679,0.735988 1.47198,0.730805 1.47198,0.72044 1.46679,0.71007 1.45047,0.709814 1.45643,0.699705 1.45643,0.673792 1.44606,0.668609 1.44088,0.663426 1.4357,0.647874 "/>
    <polygon id="_127225456" class="fil1" points="3.4778,0.694522 3.48298,0.699705 3.48817,0.704888 3.49335,0.71007 3.50372,0.715253 3.5089,0.72044 3.51408,0.725622 3.52445,0.730805 3.52963,0.735988 3.53482,0.74117 3.54,0.746353 3.55036,0.751536 3.55555,0.756718 3.56073,0.761901 3.56591,0.767084 3.57109,0.772267 3.57628,0.777449 3.58146,0.782636 3.58665,0.787818 3.59183,0.793001 3.59701,0.798184 3.60219,0.803366 3.60738,0.808549 3.61256,0.813732 3.61774,0.824097 3.62293,0.82928 3.62811,0.834463 3.63329,0.839645 3.63847,0.850015 3.64366,0.855197 3.64884,0.86038 3.65403,0.870745 3.65921,0.875928 3.66439,0.881111 3.66957,0.891476 3.67476,0.896659 3.67994,0.907028 3.68512,0.917393 3.6903,0.922576 3.69549,0.932941 3.70067,0.943307 3.70586,0.953672 3.71104,0.958855 3.71622,0.974407 3.7214,0.979589 3.72659,0.989955 3.73177,0.995137 3.74213,0.995137 3.74732,0.989955 3.74732,0.974407 3.74213,0.964041 3.73695,0.953672 3.73177,0.938124 3.72659,0.932941 3.7214,0.922576 3.71622,0.912211 3.71104,0.901841 3.70586,0.896659 3.70067,0.886293 3.69549,0.875928 3.6903,0.870745 3.68512,0.86038 3.67994,0.855197 3.67476,0.850015 3.66957,0.839645 3.66439,0.834463 3.65921,0.82928 3.65403,0.824097 3.64884,0.818915 3.64366,0.813732 3.63847,0.803366 3.63329,0.798184 3.62811,0.793001 3.62293,0.787818 3.61774,0.782636 3.61256,0.777449 3.60738,0.772267 3.60219,0.767084 3.59701,0.761901 3.59183,0.756718 3.58146,0.751536 3.57628,0.746353 3.57109,0.74117 3.56591,0.735988 3.56073,0.730805 3.55036,0.725622 3.54518,0.72044 3.54,0.715253 3.52963,0.71007 3.52445,0.704888 3.51408,0.699705 3.5089,0.694522 3.49853,0.68934 3.49335,0.684157 3.4778,0.684157 "/>
    <path id="_127232656" class="fil11" d="M0.425007 0.901841l0 0.0103692c0,0.0427419 0.0388434,0.0829268 0.0777442,0.0829268l0.0207346 0c0.0353577,0 0.0777442,-0.0418552 0.0777442,-0.0777442l0 -0.0259173c0,-0.0323651 -0.0401964,-0.0725615 -0.0725615,-0.0725615l-0.0311 0c-0.0381746,0 -0.0725615,0.0424056 -0.0725615,0.0829268z"/>
    <path id="_127231672" class="fil12" d="M0.425007 0.901841c0,-0.0405213 0.0343869,-0.0829268 0.0725615,-0.0829268l0.0311 0c0.0323651,0 0.0725615,0.0401964 0.0725615,0.0725615l0 0.0259173c0,0.035889 -0.0423864,0.0777442 -0.0777442,0.0777442l-0.0207346 0c-0.0389007,0 -0.0777442,-0.040185 -0.0777442,-0.0829268l0 -0.0103692zm0.0414653 -0.124392l-0.0103654 0.00518651 -0.0103654 0.00518269 -0.0103692 0.00518269 -0.00518269 0.00518269 -0.00518269 0.00518269 -0.00518269 0.00518269 -0.00518269 0.00518269 -0.00518269 0.00518269 -0.00518269 0.00518269 -0.00518269 0.00518269 -0.00518269 0.0103654 -0.00518269 0.0103692 -0.00518651 0.0103654 -0.00518269 0.0207308 0 0.046648 0.00518269 0.0207308 0.00518651 0.0155519 0.00518269 0.0103654 0.00518269 0.00518269 0.00518269 0.0103654 0.00518269 0.00518269 0.00518269 0.00518269 0.00518269 0.00518269 0.00518269 0.00518269 0.00518269 0.00518269 0.0103654 0.00518269 0.00518651 0.00518651 0.0155481 0.00518269 0.0103654 0.00518269 0.0362826 0.00518269 0.0103654 0 0.0310961 -0.00518269 0.0155481 -0.00518269 0.0103692 -0.00518269 0.0103654 -0.00518651 0.0103654 -0.00518269 0.00518269 -0.00518269 0.00518269 -0.00518269 0.00518269 -0.00518269 0.00518269 -0.00518269 0.00518269 -0.0103654 0.00518269 -0.00518269 0.00518651 -0.0103654 0.00518269 -0.0103692 0.00518269 -0.0103654 0.00518269 -0.0259134 0 -0.0362826 -0.00518269 -0.0207308 -0.00518269 -0.0155481 -0.00518269 -0.0103692 -0.00518651 -0.0103654 -0.00518269 -0.00518269 -0.00518269 -0.00518269 -0.00518269 -0.00518269 -0.00518269 -0.00518269 -0.00518269 -0.00518269 -0.00518269 -0.00518269 -0.00518269 -0.00518269 -0.0103654 -0.00518269 -0.0103654 -0.00518269 -0.0103692 -0.00518651 -0.0207308 -0.00518269 -0.0518307 0 -0.0207308 0.00518269z"/>
    <polygon id="_127231768" class="fil13" points="1.11953,0.948489 1.11435,0.953672 1.10916,0.958855 1.0988,0.964041 1.09362,0.974407 1.08843,0.979589 1.08325,0.984772 1.07807,1.00032 1.07807,1.05215 1.08325,1.06252 1.08843,1.07288 1.09362,1.07806 1.0988,1.08325 1.10398,1.08843 1.11435,1.09362 1.1299,1.0988 1.16618,1.0988 1.17136,1.09362 1.17654,1.08843 1.17654,1.07288 1.17136,1.0677 1.12472,1.06252 1.11953,1.05733 1.11435,1.05215 1.10916,1.04179 1.10916,1.01069 1.11435,1.00032 1.11953,0.995137 1.11953,0.984772 1.1299,0.984772 1.13508,0.979589 1.14545,0.974407 1.18173,0.974407 1.18691,0.979589 1.19209,0.984772 1.19728,0.995137 1.19728,1.03142 1.19209,1.0366 1.19209,1.03142 1.19209,1.0055 1.18691,0.984772 1.18173,0.979589 1.17136,0.974407 1.15063,0.974407 1.14026,0.979589 1.13508,0.984772 1.1299,0.989955 1.12472,0.995137 1.11953,1.00032 1.11953,1.0366 1.12472,1.04179 1.1299,1.04697 1.13508,1.05215 1.16099,1.05215 1.16618,1.05733 1.17136,1.06252 1.18173,1.0677 1.20246,1.0677 1.21283,1.06252 1.21801,1.05733 1.22319,1.05215 1.22837,1.04179 1.22837,0.984772 1.22319,0.974407 1.21801,0.964041 1.21283,0.958855 1.20764,0.953672 1.19728,0.948489 1.18691,0.943307 1.13508,0.943307 "/>
    <polygon id="_127231912" class="fil1" points="0.943311,0.865563 0.943311,0.875928 0.932945,0.875928 0.927759,0.881111 0.922576,0.886293 0.917393,0.891476 0.912211,0.896659 0.907028,0.901841 0.901845,0.907028 0.896663,0.912211 0.89148,0.917393 0.886297,0.922576 0.881114,0.927759 0.875928,0.932941 0.870749,0.938124 0.865563,0.943307 0.86038,0.948489 0.855197,0.953672 0.850015,0.958855 0.844832,0.964041 0.839649,0.969224 0.834466,0.974407 0.829284,0.979589 0.824101,0.984772 0.818918,0.989955 0.813732,1.00032 0.808553,1.0055 0.803366,1.01069 0.798184,1.01587 0.793001,1.02105 0.787818,1.03142 0.782636,1.0366 0.777453,1.04179 0.77227,1.05215 0.767088,1.05733 0.761905,1.0677 0.756722,1.07288 0.751536,1.08325 0.746353,1.08843 0.74117,1.0988 0.735988,1.10916 0.730805,1.11953 0.725622,1.12471 0.72044,1.13508 0.715257,1.15063 0.710074,1.16099 0.704892,1.17654 0.699709,1.18691 0.694526,1.20764 0.694526,1.21283 0.704892,1.21283 0.710074,1.20764 0.715257,1.19209 0.72044,1.18173 0.725622,1.17136 0.730805,1.16099 0.735988,1.15581 0.74117,1.14544 0.746353,1.13508 0.751536,1.12471 0.756722,1.11953 0.761905,1.10916 0.767088,1.10398 0.77227,1.09362 0.777453,1.08843 0.782636,1.08325 0.787818,1.07288 0.793001,1.0677 0.798184,1.06252 0.803366,1.05215 0.808553,1.04697 0.813732,1.04179 0.818918,1.0366 0.824101,1.03142 0.829284,1.02105 0.834466,1.01587 0.839649,1.01069 0.844832,1.0055 0.850015,1.00032 0.855197,0.995137 0.86038,0.989955 0.86038,0.979589 0.870749,0.979589 0.875928,0.974407 0.881114,0.964041 0.886297,0.958855 0.89148,0.953672 0.896663,0.948489 0.901845,0.943307 0.907028,0.938124 0.912211,0.932941 0.917393,0.927759 0.922576,0.922576 0.927759,0.917393 0.932945,0.912211 0.943311,0.907028 0.943311,0.896659 0.953676,0.896659 0.958859,0.891476 0.964041,0.886293 0.969224,0.875928 0.969224,0.870745 0.964041,0.86038 0.953676,0.86038 "/>
    <polygon id="_127226704" class="fil11" points="4.14123,1.09362 4.13605,1.0988 4.13086,1.10398 4.12568,1.11435 4.12568,1.13508 4.13086,1.14544 4.13605,1.15063 4.14123,1.15581 4.14641,1.16099 4.18269,1.16099 4.18788,1.15581 4.19306,1.15063 4.19824,1.14544 4.19824,1.10398 4.19306,1.0988 4.18788,1.09362 4.17751,1.08843 4.15159,1.08843 "/>
    <polygon id="_127227496" class="fil1" points="0.782636,0.896659 0.777453,0.901841 0.77227,0.912211 0.767088,0.917393 0.761905,0.922576 0.756722,0.927759 0.751536,0.938124 0.746353,0.943307 0.74117,0.948489 0.735988,0.953672 0.730805,0.964041 0.725622,0.969224 0.72044,0.974407 0.715257,0.984772 0.710074,0.989955 0.704892,1.00032 0.699709,1.0055 0.694526,1.01069 0.68934,1.02105 0.684157,1.03142 0.678974,1.0366 0.673792,1.04697 0.668609,1.05215 0.663426,1.06252 0.658244,1.07288 0.653061,1.08325 0.647878,1.08843 0.642695,1.0988 0.637513,1.10916 0.63233,1.11953 0.627144,1.1299 0.621961,1.14544 0.616778,1.15581 0.611596,1.16618 0.611596,1.17654 0.616778,1.18173 0.627144,1.18173 0.63233,1.17654 0.637513,1.16618 0.642695,1.15581 0.647878,1.14544 0.653061,1.14026 0.658244,1.1299 0.663426,1.11953 0.668609,1.10916 0.673792,1.0988 0.678974,1.08843 0.684157,1.08325 0.68934,1.07288 0.694526,1.06252 0.699709,1.05733 0.704892,1.04697 0.710074,1.0366 0.715257,1.02624 0.72044,1.02105 0.725622,1.01069 0.730805,1.0055 0.735988,0.995137 0.74117,0.989955 0.746353,0.979589 0.751536,0.974407 0.756722,0.964041 0.761905,0.958855 0.767088,0.953672 0.77227,0.943307 0.777453,0.938124 0.782636,0.932941 0.787818,0.922576 0.793001,0.917393 0.798184,0.912211 0.803366,0.907028 0.803366,0.896659 0.798184,0.891476 0.787818,0.891476 "/>
    <polygon id="_127227568" class="fil3" points="3.62293,1.0677 3.62293,1.08325 3.60219,1.08325 3.59183,1.08843 3.58146,1.09362 3.57628,1.0988 3.57109,1.10398 3.56591,1.10916 3.56591,1.14026 3.57109,1.14544 3.57628,1.15063 3.58665,1.15581 3.59701,1.16099 3.60738,1.16618 3.61774,1.16618 3.6177,1.19271 3.58146,1.18691 3.56591,1.18691 3.55555,1.19209 3.55555,1.21801 3.56073,1.22319 3.57628,1.22837 3.60738,1.22837 3.60738,1.2491 3.61256,1.25947 3.63847,1.25947 3.64366,1.25429 3.64366,1.22837 3.66957,1.22837 3.68512,1.22319 3.6903,1.21801 3.69549,1.21283 3.70067,1.20764 3.70586,1.19209 3.70586,1.18173 3.70067,1.16618 3.69549,1.16099 3.6903,1.15581 3.68512,1.15063 3.67476,1.14544 3.66439,1.14026 3.65947,1.11357 3.66957,1.11953 3.67476,1.12471 3.70067,1.12471 3.70586,1.11435 3.70586,1.0988 3.70067,1.09362 3.69549,1.08843 3.68512,1.08325 3.66957,1.07806 3.65921,1.07806 3.65921,1.06252 3.65403,1.05733 3.62811,1.05733 "/>
    <polygon id="_127228456" class="fil11" points="0.295432,1.09362 0.29025,1.0988 0.285067,1.10398 0.285067,1.14544 0.29025,1.15063 0.295432,1.15581 0.305798,1.16099 0.336898,1.16099 0.34208,1.15581 0.347263,1.15063 0.352446,1.14544 0.357628,1.13508 0.357628,1.11435 0.352446,1.10398 0.347263,1.0988 0.34208,1.09362 0.336898,1.08843 0.305798,1.08843 "/>
    <polygon id="_127228528" class="fil14" points="4.40038,1.21283 4.40038,1.20764 4.3952,1.20764 4.3952,1.21283 "/>
    <polygon id="_127228624" class="fil3" points="0.932945,1.19209 0.927759,1.19727 0.922576,1.20764 0.922576,1.23874 0.927759,1.2491 0.932945,1.25429 0.943311,1.25947 0.974407,1.25947 0.984772,1.25429 0.989955,1.2491 0.995141,1.23874 0.995141,1.20764 0.989955,1.20246 0.984772,1.19727 0.979589,1.19209 0.974407,1.18691 0.943311,1.18691 "/>
    <polygon id="_127228168" class="fil7" points="0.554582,1.2802 0.549399,1.28539 0.544217,1.30094 0.544217,1.3113 0.549399,1.32167 0.554582,1.33203 0.564948,1.33722 0.590865,1.33722 0.60123,1.33203 0.606413,1.32685 0.611596,1.3113 0.611596,1.30094 0.606413,1.28539 0.60123,1.2802 0.596047,1.27502 0.559765,1.27502 "/>
    <polygon id="_127228888" class="fil15" points="4.28117,1.22837 4.28635,1.23874 4.29153,1.2491 4.29672,1.26465 4.28635,1.26465 4.27599,1.26984 4.26562,1.27502 4.25525,1.2802 4.24489,1.28539 4.23452,1.29057 4.22416,1.29575 4.21379,1.30094 4.20342,1.30612 4.19824,1.3113 4.18788,1.31648 4.17751,1.32167 4.16714,1.32685 4.15678,1.33203 4.14641,1.33722 4.13605,1.3424 4.12568,1.34758 4.11531,1.35277 4.10495,1.35795 4.10495,1.33722 4.09976,1.31648 4.09458,1.30094 4.0894,1.2802 4.08422,1.25947 4.07903,1.2491 4.07385,1.24392 4.0583,1.24392 4.04793,1.2491 4.03757,1.25429 4.0272,1.25947 4.02202,1.26465 4.01165,1.26984 4.00129,1.27502 3.99092,1.2802 3.98574,1.28539 3.97537,1.29057 3.96501,1.29575 3.95982,1.30094 3.94946,1.30612 3.93909,1.3113 3.92872,1.31648 3.92354,1.32167 3.91317,1.32685 3.90799,1.31648 3.90281,1.30094 3.89763,1.29057 3.89244,1.27502 3.88726,1.26465 3.88207,1.25947 3.87689,1.25429 3.86134,1.25429 3.85098,1.25947 3.8458,1.26465 3.83543,1.26984 3.82507,1.27502 3.8147,1.2802 3.80951,1.28539 3.79915,1.29057 3.78878,1.29575 3.77842,1.30094 3.77323,1.30612 3.76287,1.3113 3.7525,1.31648 3.74213,1.32167 3.73695,1.32685 3.72659,1.33203 3.7214,1.33722 3.7214,1.35277 3.72659,1.35795 3.73177,1.36313 3.74732,1.36313 3.75768,1.35795 3.76805,1.35277 3.77323,1.34758 3.7836,1.3424 3.79397,1.33722 3.80433,1.33203 3.80951,1.32685 3.81988,1.32167 3.83025,1.31648 3.83543,1.3113 3.8458,1.30612 3.85616,1.30094 3.86134,1.30094 3.86653,1.31648 3.87171,1.32685 3.87689,1.3424 3.88207,1.35277 3.88726,1.36313 3.89244,1.36831 3.91317,1.36831 3.92354,1.36313 3.93391,1.35795 3.94427,1.35277 3.94946,1.34758 3.95982,1.3424 3.97019,1.33722 3.98055,1.33203 3.98574,1.32685 3.9961,1.32167 4.00647,1.31648 4.01684,1.3113 4.02202,1.30612 4.03238,1.30094 4.04275,1.29575 4.0583,1.29057 4.0583,1.3113 4.06348,1.32685 4.06866,1.34758 4.07385,1.36831 4.07903,1.38905 4.08422,1.39423 4.0894,1.39941 4.11013,1.39941 4.11531,1.39423 4.12568,1.38905 4.13605,1.38386 4.14641,1.37868 4.15678,1.3735 4.16714,1.36831 4.17751,1.36313 4.18788,1.35795 4.19824,1.35277 4.20861,1.34758 4.21897,1.3424 4.22934,1.33722 4.2397,1.33203 4.25007,1.32685 4.25525,1.32167 4.26562,1.31648 4.27599,1.3113 4.28635,1.30612 4.29672,1.30094 4.30708,1.29575 4.31745,1.29575 4.32263,1.30612 4.32782,1.31648 4.333,1.32685 4.34336,1.32685 4.34855,1.31648 4.35373,1.3113 4.35891,1.30094 4.3641,1.29057 4.36928,1.28539 4.37446,1.27502 4.37965,1.26984 4.38483,1.25947 4.38483,1.2491 4.3952,1.2491 4.40038,1.23356 4.40556,1.22837 4.40556,1.21801 4.36928,1.21283 4.27599,1.21283 4.27599,1.21801 "/>
    <polygon id="_127228792" class="fil5" points="0.399094,1.36313 0.393911,1.36831 0.393911,1.39941 0.399094,1.4046 0.409459,1.40978 0.43019,1.40978 0.435373,1.4046 0.440555,1.39941 0.445742,1.39423 0.445742,1.3735 0.440555,1.36313 0.43019,1.35795 0.404277,1.35795 "/>
    <path id="_127228720" class="fil16" d="M2.88694 1.38386c-0.0301292,0.000672679 -0.0518307,0.0168858 -0.0518307,0.046648 0,0.0250726 0.0163927,0.0414653 0.0414653,0.0414653l0.00518269 0c0.0250726,0 0.0414653,-0.0163927 0.0414653,-0.0414653l0 -0.0103654c0,-0.011619 -0.00410105,-0.0113782 -0.0103654,-0.0207308 0.00565662,-0.011791 0.0621961,-0.148001 0.0621961,-0.150309 0,-0.0119439 -0.00360801,-0.0155481 -0.0155519,-0.0155481 -0.0167979,0 -0.0705969,0.126693 -0.0725615,0.150306z"/>
    <path id="_127227688" class="fil6" d="M0.264336 1.48752l-0.0207346 0.00518269 -0.0103654 0.00518269 -0.0155481 0.00518269 -0.0103654 0.00518269 -0.0103692 0.00518651 -0.0103654 0.00517887 -0.0103654 0.00518651 -0.0103654 0.00518269 -0.00518269 0.00518269 -0.0103654 0.00518269 -0.00518269 0.00518269 -0.0103692 0.00518269 -0.00518269 0.00518269 -0.00518269 0.00518269 -0.00518269 0.00518269 -0.00518269 0.00518269 -0.00518269 0.00518651 -0.00518269 0.00517887 -0.00518269 0.00518651 -0.00518269 0.00518269 -0.00518269 0.00518269 -0.00518269 0.00518269 -0.00518269 0.00518269 -0.00518651 0.00518269 -0.00518269 0.0103654 -0.00518269 0.00518269 -0.00518269 0.00518269 -0.00518269 0.0103692 -0.00518269 0.0103654 -0.00518269 0.00518269 -0.00518269 0.0103654 -0.00518269 0.0103654 -0.00518269 0.0155481 -0.00518269 0.0103692 -0.00518269 0.0155481 -0.00518651 0.0155481 -0.00518269 0.0259173 -0.00518269 0.0362788 0 0.0570134 0.00518269 0.0414653 0.00518269 0.0207308 0.00518651 0.0207308 0.00518269 0.0103692 0.00518269 0.0155481 0.00518269 0.0103654 0.00518269 0.0103654 0.00518269 0.0103654 0.00518269 0.0103692 0.00518269 0.0103654 0.00518269 0.00518269 0.00518269 0.0103654 0.00518269 0.00518269 0.00518269 0.00518269 0.00518651 0.0103654 0.00518269 0.00518269 0.00518269 0.00518269 0.00518269 0.00518651 0.00518269 0.00518269 0.00518269 0.00518269 0.00518269 0.00518269 0.00518269 0.00518269 0.00518269 0.00518269 0.00518269 0.00518269 0.0103654 0.00518269 0.00518651 0.00518269 0.00518269 0.00518269 0.0103654 0.00518269 0.00518269 0.00518269 0.0103654 0.00518651 0.00518269 0.00518269 0.0103654 0.00518269 0.0103654 0.00518269 0.0103692 0.00518269 0.0155481 0.00518269 0.0155481 0.00518269 0.0155481 0.00518269 0.0207346 0.00518269 0.0259134 0.00518269 0.0984787 0 0.0310961 -0.00518269 0.0155519 -0.00518269 0.0207308 -0.00518269 0.0103654 -0.00518269 0.0155481 -0.00518269 0.0103654 -0.00518269 0.0103692 -0.00518269 0.0103654 -0.00518269 0.00518269 -0.00518269 0.0103654 -0.00518651 0.0103654 -0.00518269 0.00518269 -0.00518269 0.00518269 -0.00518269 0.0103692 -0.00518269 0.00518269 -0.00518269 0.00518269 -0.00518269 0.00518269 -0.00518269 0.00518269 -0.00518269 0.00518269 -0.00518269 0.00518269 -0.00518269 0.00518269 -0.00518269 0.00518269 -0.00518651 0.00518269 -0.00518269 0.00518269 -0.00518269 0.00518269 -0.00518269 0.00518651 -0.0103654 0.00518269 -0.00518269 0.00518269 -0.00518269 0.00518269 -0.0103654 0.00518269 -0.0103654 0.00518269 -0.00518651 0.00518269 -0.0103654 0.00518269 -0.0103654 0.00518269 -0.0103654 0.00518269 -0.0155481 0.00518269 -0.0155519 0.00518269 -0.0155481 0.00518651 -0.0207308 0.00518269 -0.0311 0 -0.0829268 -0.00518269 -0.0311 -0.00518651 -0.0207308 -0.00518269 -0.0207308 -0.00518269 -0.0103654 -0.00518269 -0.0155519 -0.00518269 -0.0103654 -0.00518269 -0.0103654 -0.00518269 -0.0103654 -0.00518269 -0.0103654 -0.00518269 -0.00518269 -0.00518269 -0.0103692 -0.00518269 -0.00518269 -0.00518269 -0.0103654 -0.00518651 -0.00518269 -0.00518269 -0.00518269 -0.00518269 -0.00518269 -0.0518307 0.0570134c0.0234712,0.0270027 0.0621961,0.102022 0.0621961,0.150306l0 0.0155519c0,0.142325 -0.122416,0.27988 -0.253967,0.27988l-0.0310961 0c-0.12818,0 -0.264332,-0.122286 -0.264332,-0.243602l0 -0.0621961c0,-0.113824 0.132277,-0.243602 0.243598,-0.243602l0.046648 0c0.0743311,0 0.10847,0.0321319 0.155492,0.0570134l0.0518307 -0.0518307 -0.00518269 -0.00518269 -0.00518651 -0.00518269 -0.00518269 -0.00518269 -0.0103654 -0.00518269 -0.00518269 -0.00518269 -0.0103654 -0.00518269 -0.0103654 -0.00518269 -0.00518269 -0.00518651 -0.0103654 -0.00517887 -0.0103692 -0.00518651 -0.0155481 -0.00518269 -0.0103654 -0.00518269 -0.0155481 -0.00518269 -0.0207346 -0.00518269 -0.0259134 -0.00518269 -0.119209 0 -0.0259134 0.00518269z"/>
    <polygon id="_127227760" class="fil11" points="3.70067,1.44606 3.69549,1.45124 3.6903,1.45642 3.68512,1.46161 3.67994,1.47198 3.67476,1.48234 3.66957,1.49271 3.66439,1.50307 3.65921,1.51344 3.65403,1.52381 3.64884,1.53935 3.64366,1.54972 3.63847,1.56008 3.63329,1.57045 3.62811,1.58082 3.62811,1.61192 3.63329,1.62228 3.63847,1.62746 3.64366,1.63265 3.64884,1.63783 3.65921,1.64302 3.66957,1.6482 3.67994,1.65338 3.69549,1.65856 3.71622,1.65856 3.73177,1.65338 3.73695,1.6482 3.74213,1.64302 3.74732,1.63265 3.7525,1.62228 3.75768,1.61192 3.76287,1.60155 3.76805,1.59118 3.77323,1.58082 3.77842,1.57045 3.7836,1.56008 3.78878,1.54972 3.79397,1.53935 3.79915,1.52899 3.80433,1.51344 3.80433,1.48752 3.79915,1.47716 3.79397,1.47198 3.78878,1.46679 3.7836,1.46161 3.77323,1.45642 3.76287,1.45124 3.7525,1.44606 3.74213,1.44088 3.71104,1.44088 "/>
    <path id="_127227976" class="fil6" d="M2.88694 1.38386c0.00196453,-0.0236126 0.0557636,-0.150306 0.0725615,-0.150306 0.0119439,0 0.0155519,0.00360419 0.0155519,0.0155481 0,0.00230851 -0.0565395,0.138518 -0.0621961,0.150309 0.00626433,0.00935254 0.0103654,0.00911175 0.0103654,0.0207308l0 0.0103654c0,0.0250726 -0.0163927,0.0414653 -0.0414653,0.0414653l-0.00518269 0c-0.0250726,0 -0.0414653,-0.0163927 -0.0414653,-0.0414653 0,-0.0297622 0.0217016,-0.0459753 0.0518307,-0.046648zm-0.285063 0.0259173l0 0.0259134c0,0.139443 0.121025,0.269519 0.25915,0.269519l0.0310961 0c0.132396,0 0.264336,-0.122485 0.264336,-0.248788l0 -0.0362788c0,-0.145337 -0.12539,-0.269515 -0.269519,-0.269515 -0.150489,0 -0.285063,0.11809 -0.285063,0.25915z"/>
    <path id="_127227616" class="fil17" d="M2.60187 1.40978c0,-0.14106 0.134574,-0.25915 0.285063,-0.25915 0.144129,0 0.269519,0.124178 0.269519,0.269515l0 0.0362788c0,0.126303 -0.131941,0.248788 -0.264336,0.248788l-0.0310961 0c-0.138125,0 -0.25915,-0.130076 -0.25915,-0.269519l0 -0.0259134zm-0.0259173 0l0 0.0362788c0,0.140689 0.140246,0.285067 0.279884,0.285067l0.046648 0c0.144557,0 0.27988,-0.143208 0.27988,-0.29025l0 -0.0103654c0,-0.172798 -0.134089,-0.305798 -0.305798,-0.305798l-0.0103654 0c-0.145891,0 -0.29025,0.142004 -0.29025,0.285067z"/>
    <polygon id="_127228072" class="fil11" points="3.92354,1.43051 3.91836,1.43569 3.91317,1.44088 3.90799,1.45124 3.90281,1.46161 3.89763,1.47198 3.89244,1.48234 3.88726,1.49271 3.88207,1.50307 3.87689,1.51862 3.87171,1.52381 3.86653,1.53935 3.86134,1.54972 3.85616,1.56008 3.85098,1.57045 3.8458,1.58082 3.84061,1.59118 3.83543,1.60155 3.83025,1.61192 3.82507,1.62228 3.81988,1.63265 3.8147,1.64302 3.80951,1.65338 3.80433,1.66893 3.80433,1.70003 3.80951,1.71039 3.8147,1.71558 3.81988,1.72076 3.83025,1.72594 3.84061,1.73113 3.85098,1.73631 3.86134,1.74149 3.90281,1.74149 3.90799,1.73631 3.91317,1.73113 3.91836,1.72594 3.92354,1.72076 3.92872,1.71039 3.93391,1.70003 3.93909,1.68966 3.94427,1.67929 3.94946,1.66893 3.95464,1.65856 3.95982,1.6482 3.96501,1.63783 3.97019,1.62228 3.97537,1.61192 3.98055,1.60155 3.98574,1.59118 3.99092,1.58082 3.9961,1.57045 4.00129,1.56008 4.00647,1.54972 4.01165,1.53935 4.01684,1.52899 4.02202,1.51862 4.0272,1.50825 4.0272,1.46679 4.02202,1.45642 4.01684,1.45124 4.01165,1.44606 4.00129,1.44088 3.99092,1.43569 3.98055,1.43051 3.97019,1.42533 3.93391,1.42533 "/>
    <path id="_127229008" class="fil8" d="M2.57596 1.40978c0,-0.143063 0.144359,-0.285067 0.29025,-0.285067l0.0103654 0c0.171709,0 0.305798,0.132999 0.305798,0.305798l0 0.0103654c0,0.147042 -0.135323,0.29025 -0.27988,0.29025l-0.046648 0c-0.139638,0 -0.279884,-0.144378 -0.279884,-0.285067l0 -0.0362788zm0.228054 -0.476838l-0.00518269 0.00518269 0 0.0155481 0.00518269 0.0207346 0.00518269 0.0155481 0.00518269 0.00518269 0.0207308 0 0 0.0259134 -0.0155481 0 -0.0259134 0.00518651 -0.0207346 0.00518269 -0.0207308 0.00518269 -0.0155481 0.00518269 -0.0103654 0.00518269 -0.0155519 0.00518269 -0.0103654 0.00518269 -0.0103654 0.00518269 -0.0103654 0.00518269 -0.00518269 0.00518269 -0.0155519 0.00518269 0 -0.0103654 -0.00517887 -0.00518269 -0.00518651 -0.00518269 -0.00518269 -0.00518269 -0.00518269 -0.00518269 -0.00518269 -0.00518269 -0.00518269 -0.00518269 -0.00518269 -0.00518269 -0.00518269 -0.00518269 -0.0259134 0 -0.0103692 0.00518269 -0.00518269 0.00518269 -0.00518269 0.00518269 -0.00518269 0.00518269 -0.0103654 0.00518269 -0.00518269 0.00518269 -0.00518269 0.00518269 -0.00518269 0.00518269 -0.00518651 0.00518269 -0.00517887 0.00518269 -0.00518651 0.0103692 -0.00518269 0.00518269 -0.00518269 0.00518269 0 0.00518269c-0.00111604,0.00210977 -0.0103654,0.0201307 -0.0103654,0.0207308 0,0.0210671 0.037521,0.0474315 0.0518307,0.0570134 -0.0436401,0.0651696 -0.0829307,0.140261 -0.0829307,0.248784 0,0.21379 0.180217,0.404277 0.388728,0.404277 0.166171,0 0.203428,-0.0437662 0.300615,-0.108844l0.00518269 0 0.00518269 -0.00518269 0.00518269 -0.00518269 0.00518269 -0.00518269 0.00518269 -0.00518269 0.00518269 -0.0103692 0.00518269 -0.00518269 0.00518269 -0.00518269 0.00518651 -0.00518269 0.00518269 -0.0103654 0.00518269 -0.00518269 0.00518269 -0.0103654 0.00518269 -0.00518269 0.00518269 -0.0103654 0.00518269 -0.0103692 0.00518269 -0.00518269 0.00518269 -0.0103654 0.00518269 -0.0103654 0.00518269 -0.0155481 0.00518269 -0.0103654 0.00518651 -0.0155519 0.00518269 -0.0155481 0.00518269 -0.0207308 0.00518269 -0.0259173 0.00518269 -0.0570134 0 -0.0259134 -0.00518269 -0.0518307 -0.00518269 -0.0311 -0.00518269 -0.0155481 -0.00518269 -0.0207308 -0.00518651 -0.0103654 -0.00518269 -0.0155519 -0.00518269 -0.0103654 -0.00518269 -0.0103654 -0.00518269 -0.0103654 -0.00518269 -0.0103654 -0.00518269 -0.0103654 -0.00518269 -0.00518269 -0.00518269 -0.0103692 -0.00518269 -0.00518269 -0.00518269 -0.0103654 0 -0.00518269 0.00518269 -0.00518269 0.00518269 -0.00518269 0.00518269 -0.00518269 0.00518269 -0.00518269 0.0103654 -0.00518269 0.00518269 -0.00518269 0.00518269 -0.00518651 0.00518269 -0.0103654 0 -0.0155481 -0.00518269 -0.0103654 -0.00518269 -0.00518269 -0.00518269 -0.00518269 -0.00518269 -0.00518269 -0.00518269 -0.00518269 -0.00518269 -0.0103692 -0.00518269 -0.00518269 -0.00518269 -0.00518269 -0.00518269 -0.00518269 -0.00518269 -0.00518269 -0.00518651 -0.00518269 -0.00518269 -0.00518269 -0.00518269 -0.00518269 -0.0103654 -0.00518269 -0.00518269 -0.00518269 -0.00518269 -0.00518269 -0.0311 0 -0.00518269 0.00518269 -0.00518269 0.00518269 -0.00518269 0.00518269 -0.00518269 0.00518269 -0.00518269 0.00518269 -0.00518269 0.00518269 -0.00518269 0.00518269 -0.00518269 0.0103654 -0.0103654 0 -0.0103692 -0.00518269 -0.0103654 -0.00518269 -0.0103654 -0.00518269 -0.0103654 -0.00518269 -0.0103654 -0.00518269 -0.0155481 -0.00518269 -0.0155519 -0.00518269 -0.0155481 -0.00518269 -0.0259134 -0.00518269 -0.0259173 -0.00518651 -0.0103654 0 0 -0.0259134 0.0155481 0 0.00518269 -0.00518269 0.00518269 -0.0103654 0.00518269 -0.0207346 0 -0.0207308 -0.00518269 -0.00518269 -0.0103654 -0.00518269 -0.124392 0 -0.0155481 0.00518269z"/>
    <polygon id="_127227880" class="fil6" points="4.15159,1.41496 4.14641,1.42014 4.14123,1.42533 4.13605,1.43051 4.13086,1.44088 4.12568,1.45124 4.12049,1.46161 4.11531,1.47198 4.11013,1.48234 4.10495,1.49271 4.09976,1.50307 4.09458,1.51862 4.0894,1.52381 4.08422,1.53935 4.07903,1.54972 4.07385,1.56008 4.06866,1.57045 4.06348,1.58082 4.0583,1.59118 4.05312,1.60155 4.04793,1.61192 4.04275,1.62228 4.03757,1.63265 4.03238,1.64302 4.0272,1.65338 4.02202,1.66375 4.01684,1.67929 4.01165,1.68966 4.00647,1.70003 4.00129,1.71039 3.9961,1.72076 3.99092,1.73113 3.98574,1.74149 3.98055,1.76223 3.98055,1.77259 3.98574,1.78814 3.99092,1.7985 3.9961,1.80369 4.00129,1.80887 4.01165,1.81405 4.02202,1.81923 4.03238,1.82442 4.04275,1.8296 4.05312,1.83479 4.06866,1.83997 4.09976,1.83997 4.11013,1.83479 4.12049,1.8296 4.12568,1.82442 4.13086,1.81405 4.13605,1.80369 4.14123,1.79332 4.14641,1.78296 4.15159,1.77259 4.15678,1.76223 4.16196,1.75186 4.16714,1.74149 4.17232,1.73113 4.17751,1.71558 4.18269,1.70521 4.18788,1.69484 4.19306,1.68448 4.19824,1.67411 4.20342,1.66375 4.20861,1.65338 4.21379,1.64302 4.21897,1.63265 4.22416,1.62228 4.22934,1.61192 4.23452,1.60155 4.2397,1.59118 4.24489,1.58082 4.25007,1.56527 4.25525,1.5549 4.26044,1.54454 4.26562,1.53417 4.2708,1.52381 4.27599,1.51344 4.28117,1.50307 4.28117,1.46161 4.27599,1.45124 4.2708,1.44606 4.26562,1.44088 4.25525,1.43569 4.24489,1.43051 4.23452,1.42533 4.22416,1.42014 4.21379,1.41496 4.20342,1.40978 4.16196,1.40978 "/>
    <path id="_127226800" class="fil18" d="M0.564948 1.65856c-0.0190796,0.0127771 -0.114742,0.146082 -0.131344,0.174449 -0.0144435,0.0246751 -0.105328,0.183179 -0.122623,0.183179l-0.00518269 0c-0.0382701,0 -0.0657506,-0.0849258 -0.0811802,-0.115773 -0.0142715,-0.0285392 -0.0617642,-0.106811 -0.0639428,-0.133011 0.0430324,0.000959333 0.104949,0.119485 0.13994,0.145123 0.0290361,-0.0548731 0.0649403,-0.108061 0.102236,-0.156914 0.0371464,-0.0486584 0.0907276,-0.0990406 0.120635,-0.143701 -0.0470226,-0.0248815 -0.0811611,-0.0570134 -0.155492,-0.0570134l-0.046648 0c-0.111321,0 -0.243598,0.129777 -0.243598,0.243602l0 0.0621961c0,0.121315 0.136153,0.243602 0.264332,0.243602l0.0310961 0c0.131551,0 0.253967,-0.137555 0.253967,-0.27988l0 -0.0155519c0,-0.0482839 -0.0387249,-0.123303 -0.0621961,-0.150306z"/>
    <path id="_127226872" class="fil7" d="M1.99546 1.85033l0.0359004 0.0778015 -0.009987 -0.0829842 0 -0.0518307c0.0144894,0.00120394 0.0202339,0.00601589 0.0260701,0.00622228l0.238262 -0.0321357c0.103512,-0.0152041 0.108844,0.0671953 0.112196,0.16199l0.027748 -0.0790628c0.00548463,-0.0114317 0.0155481,-0.0644893 0.0155481,-0.0829268 0,-0.0889542 -0.0924743,-0.17104 -0.17104,-0.17104l-0.0468659 -0.00162437 -0.144905 0.0171724 -0.0103654 0c-0.0383198,0 -0.059792,-0.0207881 -0.0829268,-0.0362788 -0.0247324,0.0181165 -0.0362826,0.0693242 -0.0362826,0.114023 0,0.037865 0.00930667,0.0548157 0.0273658,0.0762956 0.0147302,0.0175164 0.0170845,0.0579957 0.0192822,0.0843792z"/>
    <path id="_127229608" class="fil16" d="M0.730805 1.43569l-0.00518269 0.00518269 -0.0103654 0.00518269 -0.00518269 0.00518651 -0.00518269 0.00517887 -0.0103654 0.00518651 -0.00518651 0.00518269 -0.0103654 0.00518269 -0.00518269 0.00518269 -0.00518269 0.00518269 -0.00518269 0.00518269 -0.0103654 0.00518269 -0.00518269 0.00518269 -0.00518269 0.00518269 -0.00518269 0.00518269 -0.0103692 0.00518651 -0.00518269 0.00517887 -0.00518269 0.00518651 -0.00518269 0.00518269 -0.00518269 0.00518269 -0.0103654 0.00518269 -0.00518269 0.00518269 -0.00518269 0.00518269 -0.00518269 0.00518269 -0.00518269 0.00518269 -0.0518307 0.0518307c-0.0299075,0.0446606 -0.0834887,0.0950427 -0.120635,0.143701 -0.0372955,0.0488533 -0.0731998,0.102041 -0.102236,0.156914 -0.0349908,-0.0256383 -0.0969079,-0.144164 -0.13994,-0.145123 0.00217856,0.0262001 0.0496713,0.104472 0.0639428,0.133011 0.0154296,0.0308477 0.0429101,0.115773 0.0811802,0.115773l0.00518269 0c0.0172947,0 0.108179,-0.158504 0.122623,-0.183179 0.016603,-0.0283672 0.112265,-0.161672 0.131344,-0.174449l0.0518307 -0.0570134 0.00518269 -0.00518269 0.00518269 -0.00518269 0.00518651 -0.0103692 0.00518269 -0.00517887 0.00518269 -0.00518651 0.00518269 -0.00518269 0.00518269 -0.00518269 0.00518269 -0.00518269 0.00518269 -0.00518269 0.00518269 -0.00518269 0.00518269 -0.00518269 0.00518269 -0.00518269 0.00518269 -0.00518269 0.00518269 -0.00518269 0.00518651 -0.00518651 0.00518269 -0.00517887 0.00518269 -0.00518651 0.00518269 -0.00518269 0.00518269 -0.00518269 0.0103654 -0.00518269 0.00518269 -0.00518269 0.00518269 -0.00518269 0.00518269 -0.00518269 0.00518269 -0.00518269 0.00518269 -0.00518269 0.00518651 -0.00518269 0.00518269 -0.00518651 0 -0.0207308 -0.0103692 -0.00518269 -0.0103654 0 -0.0103654 0.00518269z"/>
    <polygon id="_127226056" class="fil5" points="3.87689,1.98509 3.87171,1.99027 3.86653,2.00064 3.86653,2.01101 3.87171,2.02137 3.87689,2.02656 3.88207,2.03174 3.90799,2.03174 3.91317,2.02656 3.91836,2.02137 3.91836,1.99027 3.91317,1.98509 3.90799,1.97991 3.88207,1.97991 "/>
    <path id="_127225984" class="fil19" d="M1.99546 1.85033c-0.0178031,0.00148295 -0.0362826,0.00948631 -0.0362826,0.0259134 0,0.0530729 0.0234673,0.077748 0.0777442,0.077748 0.0130981,0.0562222 0.0408309,0.0923023 0.077748,0.124392l0.0881095 0.0414615 0.0103654 0 0.093296 -0.0414615c0.0384536,-0.0257491 0.0548348,-0.0524996 0.0725003,-0.0985399 0.0170196,-0.0443663 0.0778053,-0.0238495 0.0778053,-0.0932311 0,-0.0190299 -0.00803011,-0.0250573 -0.0155481,-0.0362826l-0.0155481 0 -0.027748 0.0790628c-0.00335193,-0.0947943 -0.00868368,-0.177194 -0.112196,-0.16199l-0.238262 0.0321357c-0.00583626,-0.00020639 -0.0115808,-0.00501834 -0.0260701,-0.00622228l0 0.0518307 0.009987 0.0829842 -0.0359004 -0.0778015z"/>
    <polygon id="_127225912" class="fil7" points="4.13605,2.02137 4.13086,2.03174 4.12568,2.04211 4.12568,2.05247 4.13086,2.06802 4.13605,2.07321 4.14123,2.07839 4.17751,2.07839 4.18269,2.07321 4.18788,2.06802 4.19306,2.05765 4.19306,2.03692 4.18788,2.02656 4.18269,2.02137 4.17232,2.01619 4.14641,2.01619 "/>
    <path id="_127225816" class="fil20" d="M2.21315 2.11985l0.0281379 0.011168 -0.0168743 0.0455435 0.0146537 0.0521327 0.155488 0 0.0103692 0c-0.0195192,-0.0837677 -0.0892485,-0.124809 -0.0984787,-0.150306l-0.093296 0.0414615z"/>
    <path id="_127225720" class="fil20" d="M2.01619 2.22351l0.160675 0.00518269c0.00151735,-0.0182273 0.0155481,-0.0465983 0.0155481,-0.046648 0,-0.0112636 -0.013595,-0.0283328 -0.0149213,-0.050451l0.0252866 -0.0117451 -0.0881095 -0.0414615c-0.0417902,0.0363209 -0.0837677,0.0819866 -0.0984787,0.145123z"/>
    <path id="_127225624" class="fil16" d="M2.04729 0.855197l-0.0362826 0.00518269 -0.0259134 0.00518269 -0.0155519 0.00518269 -0.0155481 0.00518269 -0.0103654 0.00518269 -0.0103654 0.00518269 -0.00518269 0.00518269 -0.00518269 0.00518269 -0.00518651 0.0103692 -0.00518269 0.0259134 0 0.0829268 0.00518269 0.046648 0.00518651 0.0414653 -0.0155519 0 -0.0207308 0.00518269 -0.0155481 0.00518269 -0.0103654 0.00518269 -0.0155519 0.00518269 -0.0155481 0.00518269 -0.0103654 0.00518269 -0.0103654 0.00518269 -0.0155519 0.00518269 -0.0103654 0.00518651 -0.0103654 0.00518269 -0.0103654 0.00518269 -0.0103654 0.00518269 -0.0103654 0.00518269 -0.0103692 0.00518269 -0.0103654 0.00518269 -0.00518269 0 -0.00518269 -0.00518269 -0.00518269 -0.0103654 -0.00518269 -0.00518269 -0.00518269 -0.00518269 -0.00518269 -0.00518269 -0.00518269 -0.0103692 -0.00518269 -0.00518269 -0.00518269 -0.00518269 -0.00518651 -0.00518269 -0.00518269 -0.0103654 -0.00518269 -0.00518269 -0.00518269 -0.00518269 -0.00518269 -0.00518269 -0.00518269 -0.00518269 -0.00518269 -0.00518269 -0.00518269 -0.00518651 -0.00518269 -0.00518269 -0.00518269 -0.00518269 -0.00518269 -0.00518269 -0.00518269 -0.00518269 -0.00518651 -0.00518269 -0.0103654 -0.00518269 -0.0103654 -0.00518269 -0.0103654 -0.00518269 -0.0207308 0 -0.0155519 0.00518269 -0.0103654 0.00518269 -0.0103654 0.00518269 -0.0103654 0.00518269 -0.00518269 0.00518269 -0.0103654 0.00518269 -0.00518269 0.00518269 -0.0103692 0.00518269 -0.00518269 0.00518651 -0.00518269 0.00518269 -0.0103654 0.00518269 -0.00518269 0.00518269 -0.00518269 0.00518269 -0.0103654 0.00518269 -0.00518269 0.00518269 -0.00518269 0.00518269 -0.00518651 0.00518269 -0.00518269 0.00518269 -0.00518269 0.00518269 -0.0103654 0.00518269 -0.00518269 0.00518651 -0.00518269 0.00518269 -0.00518269 0.00518269 -0.00518269 0.00518269 -0.00518269 0.00518269 -0.00518269 0.00518269 -0.00518651 0.00518269 -0.00518269 0.00518269 -0.00518269 0.00518269 -0.00518269 0.00518269 -0.0103654 0.00518269 -0.00518269 0.0103692 -0.00518269 0.00518269 -0.00518269 0.00518269 -0.00518269 0.00518269 -0.00518269 0.00518269 -0.00518269 0.00518269 -0.00518651 0.00518269 -0.00518269 0.00518269 -0.00518269 0.00518269 -0.00518269 0.00518269 -0.00518269 0.00518269 -0.00518269 0.00518269 -0.00518269 0.00518651 -0.00518269 0.00518269 -0.00518269 0.00518269 -0.00518269 0.0103654 -0.00518269 0.00518269 -0.00518269 0.00518269 -0.00518651 0.00518269 -0.00518269 0.00518269 -0.00518269 0.0103692 -0.00518269 0.00517887 -0.00518269 0.00518651 -0.00518269 0.0103654 -0.00518269 0.00518269 -0.00518269 0.0103654 -0.00518269 0.00518269 -0.00518269 0.0103654 -0.00518269 0.00518269 -0.00518269 0.0103654 -0.00518651 0.0155519 -0.00518269 0.0155481 0 0.0103654 0.00518269 0.0207308 0.00518651 0.0103692 0.00518269 0.00518269 0.00518269 0.0103654 0.00518269 0.00518269 0.00518269 0.00518269 0.00518269 0.00518269 0.00518269 0.00518269 0.00518269 0.00518269 0.00518269 0.00518651 0.00518269 0.00517887 0.00518269 0.00518651 0.00518269 0.00518269 0.00518651 0.00518269 0.00518269 0.00518269 0.0103654 0.00518269 0.00518269 0.00518269 0.00518269 0.00518269 0.00518269 0.00518269 0.0103654 0.00518269 0.00518269 0.00518269 0.00518269 0.00518651 0.0103692 0.00517887 0.00518269 0.00518651 0 0.00518269 -0.00518269 0.0103654 -0.00518651 0.0103654 -0.00518269 0.0103654 -0.00518269 0.0103654 -0.00518269 0.0103692 -0.00518269 0.0103654 -0.00518269 0.0103654 -0.00518269 0.0155481 -0.00518269 0.0103654 -0.00518269 0.0155519 -0.00518269 0.0103654 -0.00518269 0.0155481 -0.00518269 0.0155481 -0.00518651 0.0155519 -0.00518269 0.0155481 -3.43984e-005 0.0161711 -0.0362444 -0.00580568 -0.046648 -0.00518269 -0.0932922 0 -0.0207346 0.00518269 -0.0103654 0.00518269 -0.00518269 0.00518269 -0.00518269 0.00518269 -0.00518269 0.0103654 -0.00518269 0.0103692 -0.00518651 0.0155481 -0.00517887 0.0207308 -0.00518651 0.0207308 -0.00518269 0.0362826 -0.00518269 0.0518307 0 0.238419 0.00518269 0.046648 0.00518269 0.0310961 0.00518651 0.0207308 0.00517887 0.0155519 0.00518651 0.0155481 0.00518269 0.0103654 0.00518269 0.00518269 0.00518269 0.00518269 0.0103654 0.00518269 0.0103654 0.00518269 0.0259173 0.00518269 0.0777442 0 0.0518307 -0.00518269 0.0362788 -0.00518269 0 0.0155519 0.00518269 0.0155481 0.00518651 0.0155481 0.00518269 0.0155481 0.00518269 0.0155519 0.00518269 0.0103654 0.00518269 0.0155481 0.00518269 0.0103654 0.00518269 0.0155481 0.00518269 0.0103692 0.00518269 0.0103654 0.00518269 0.0103654 0.00518269 0.0103654 0.00518269 0.0103654 0.00518651 0.0103654 0.00518269 0.0103692 0 0.00518269 -0.00518269 0.00518269 -0.0103692 0.00518269 -0.00518269 0.00518269 -0.00518269 0.00518269 -0.0103654 0.00518269 -0.00518269 0.00518269 -0.00518269 0.00518269 -0.00518269 0.00518269 -0.0103654 0.00518269 -0.00518269 0.00518651 -0.00518651 0.00518269 -0.00518269 0.00518269 -0.00518269 0.00518269 -0.00518269 0.00518269 -0.00518269 0.00518269 -0.00518269 0.00518269 -0.00518269 0.00518269 -0.00518269 0.00518269 -0.00518269 0.00518269 -0.00518269 0.00518269 -0.00518269 0.00518269 -0.00518269 0.0103692 -0.00518651 0.0103654 -0.00518269 0.0103654 0 0.0207308 0.00518269 0.0155519 0.00518651 0.0103654 0.00518269 0.0103654 0.00518269 0.0103654 0.00518269 0.00518269 0.00518269 0.0103654 0.00518269 0.00518269 0.00518269 0.0103692 0.00518269 0.00518269 0.00518269 0.00518269 0.00518269 0.00518269 0.00518269 0.0103654 0.00518269 0.00518269 0.00518651 0.00518269 0.00518269 0.0103654 0.00518269 0.00518269 0.00518269 0.00518269 0.00518269 0.00518651 0.00518269 0.00518269 0.00518269 0.00518269 0.00518269 0.0103654 0.00518269 0.00518269 0.00518269 0.00518269 0.00518269 0.00518269 0.00518269 0.00518269 0.00518651 0.00518269 0.00518269 0.00518651 0.00518269 0.00517887 0.00518269 0.00518651 0.00518269 0.00518269 0.00518269 0.00518269 0.00518269 0.00518269 0.00518269 0.00518269 0.00518269 0.00518269 0.00518269 0.00518269 0.00518269 0.00518269 0.00518269 0.00518269 0.00518651 0.00518269 0.00518269 0.00518651 0.00518269 0.00517887 0.00518269 0.00518651 0.00518269 0.00518269 0.00518269 0.00518269 0.00518269 0.00518269 0.00518269 0.00518269 0.00518269 0.00518269 0.0103654 0.00518269 0.00518651 0.00518269 0.00518269 0.00518269 0.00518269 0.00518269 0.00518269 0.00518651 0.0103654 0.00517887 0.00518269 0.00518651 0.00518269 0.00518269 0.00518269 0.00518269 0.0103654 0.00518269 0.00518269 0.00518269 0.0103692 0.00518269 0.00518269 0.00518269 0.0103654 0.00518269 0.0103654 0.00518269 0.00518269 0.00518269 0.0155481 0.00518651 0.046648 0 0.0103654 -0.00518651 0.00518269 -0.00518269 0.0103692 -0.00518269 0.00518269 -0.00518269 0.00518269 -0.00518269 0.00518269 -0.00518269 0.00518269 -0.00518269 0.00518269 -0.00518269 0.00518269 -0.00518269 0.00518269 -0.00518269 0.00518269 -0.00518651 0.00518269 -0.00517887 0.00518269 -0.00518651 0.00518269 -0.0103654 0.00518651 -0.00518269 0.00518269 -0.00518269 0.00518269 -0.00518269 0.00518269 -0.00518269 0.00518269 -0.0103654 0.00518269 -0.00518269 0.00518269 -0.00518651 0.00518269 -0.0103654 0.00518269 -0.00518269 0.00518269 0 0.0103654 0.00518269 0.0103692 0.00518651 0.0103654 0.00517887 0.0103654 0.00518651 0.0103654 0.00518269 0.0103654 0.00518269 0.0155519 0.00518269 0.0103654 0.00518269 0.0103654 0.00518269 0.0155481 0.00518269 0.0103654 0.00518269 0.0155519 0.00518269 0.0155481 0.00518269 0.0155481 0.00518651 0.0155481 0.00517887 0.0161443 3.05763e-005 -0.00577893 0.0414348 -0.00518269 0.046648 0 0.0829268 0.00518269 0.0259173 0.00518651 0.0103654 0.00518269 0.00518269 0.00518269 0.00518269 0.0103654 0.00518269 0.0103654 0.00518269 0.00518269 0c0.0047852,-0.00754089 0.025902,-0.243326 0.0259173,-0.269515 4.20425e-005,-0.0806604 0.0362788,-0.183083 0.0363897,-0.259444l-0.0208416 -0.0100749c-0.100929,-0.00839703 -0.274667,-0.152996 -0.330381,-0.219018 -0.0691751,-0.0819675 -0.156822,-0.249369 -0.156822,-0.39776l0 -0.0621961c0,-0.206081 0.0918551,-0.35842 0.190395,-0.467845 0.0798501,-0.0886676 0.282185,-0.21113 0.447114,-0.21113l0.0829307 0c0.0445077,0 0.0882968,0.00459792 0.126552,0.0133886 0.0317306,0.00729628 0.0901314,0.0314516 0.111864,0.0332594 0,-0.108523 0.0392906,-0.183615 0.0829307,-0.248784 -0.0143097,-0.00958186 -0.0518307,-0.0359463 -0.0518307,-0.0570134 0,-0.000600061 0.00924934,-0.018621 0.0103654,-0.0207308l-0.0213537 -3.82204e-005 0.00580568 -0.0362444 0.00518269 -0.0518307 0 -0.0777442 -0.00518269 -0.0259134 -0.00518269 -0.0103692 -0.00518269 -0.0103654 -0.00518269 -0.00518269 -0.00518269 -0.00518269 -0.0103654 -0.00518269 -0.0155519 -0.00518269 -0.0155481 -0.00518269 -0.0207308 -0.00518269 -0.0311 -0.00518269 -0.046648 -0.00518269 -0.238419 0 -0.0518269 0.00518269z"/>
    <polygon id="_127225528" class="fil1" points="4.07903,2.14058 4.08422,2.17686 4.08422,2.32199 4.08422,2.3479 4.09976,2.3479 4.10495,2.32717 4.10495,2.17686 4.09976,2.14058 4.09458,2.13022 4.07903,2.13022 "/>
    <polygon id="_127226488" class="fil1" points="3.99092,2.09394 3.9961,2.13022 3.9961,2.26498 3.99092,2.29607 3.98574,2.32717 3.98055,2.3479 3.97537,2.36863 3.97019,2.38419 3.96501,2.39973 3.95982,2.41528 3.95464,2.42565 3.94946,2.43601 3.94946,2.45675 3.96501,2.45675 3.97019,2.44638 3.97537,2.43601 3.98055,2.42565 3.98574,2.4101 3.99092,2.39455 3.9961,2.38419 4.00129,2.36345 4.00647,2.3479 4.01165,2.32199 4.01684,2.29089 4.01684,2.14577 4.01165,2.10948 4.00647,2.08875 4.00129,2.07321 3.9961,2.06802 3.99092,2.06802 "/>
    <polygon id="_127226128" class="fil7" points="3.69549,2.379 3.6903,2.38419 3.68512,2.39455 3.68512,2.4101 3.6903,2.42046 3.69549,2.43083 3.70586,2.43601 3.73177,2.43601 3.73695,2.43083 3.74732,2.42565 3.7525,2.4101 3.7525,2.39973 3.74732,2.38419 3.74213,2.379 3.73695,2.37382 3.70067,2.37382 "/>
    <polygon id="_127226200" class="fil5" points="0.580499,2.38937 0.575317,2.39455 0.570134,2.40492 0.570134,2.42046 0.575317,2.42565 0.580499,2.43083 0.585682,2.43601 0.611596,2.43601 0.616778,2.43083 0.621961,2.42565 0.621961,2.39455 0.616778,2.38937 0.606413,2.38419 0.585682,2.38419 "/>
    <path id="_127226272" class="fil16" d="M2.86102 1.83479c0.0231195,0.0481845 0.0414653,0.150092 0.0414653,0.222867l0 0.046648c0,0.309463 -0.252992,0.584505 -0.502755,0.642695 -0.0116878,0.0243579 0.0171763,0.148536 0.0205779,0.186741 0.00305381,0.0342914 0.00685292,0.0626394 0.0110151,0.097829 0.00485399,0.0410831 -0.0078199,0.0773849 0.0310159,0.0813713l-0.0219232 0.00211359 0.0163278 0.165793 0.00518269 0 0.0103654 -0.00518269 0.0103692 -0.00518269 0.00518269 -0.00518269 0.00518269 -0.0103654 0.00518269 -0.0103654 0.00518269 -0.0259173 0 -0.0829268 -0.00518269 -0.046648 -0.00518269 -0.0362826 0.0155481 0 0.0155481 -0.00517887 0.0155519 -0.00518651 0.0155481 -0.00518269 0.0155481 -0.00518269 0.0103654 -0.00518269 0.0155481 -0.00518269 0.0103692 -0.00518269 0.0103654 -0.00518269 0.0155481 -0.00518269 0.0103654 -0.00518269 0.0103692 -0.00518269 0.0103654 -0.00518651 0.0103654 -0.00517887 0.0103654 -0.00518651 0.0103654 -0.00518269 0.00518269 0 0.00518269 0.0103692 0.00518269 0.00517887 0.00518651 0.00518651 0.00518269 0.00518269 0.00518269 0.0103654 0.00518269 0.00518269 0.00518269 0.00518269 0.00518269 0.00518269 0.00518269 0.0103654 0.00518269 0.00518269 0.00518269 0.00518651 0.00518269 0.00517887 0.00518269 0.00518651 0.00518269 0.00518269 0.00518651 0.00518269 0.00518269 0.00518269 0.00518269 0.00518269 0.00518269 0.00518269 0.00518269 0.00518269 0.00518269 0.00518269 0.0103654 0.00518269 0.00518269 0.00518269 0.0103654 0.00518651 0.0207346 0.00517887 0.00518269 0 0.0207308 -0.00517887 0.0103654 -0.00518651 0.0103654 -0.00518269 0.0103692 -0.00518269 0.0103654 -0.00518269 0.00518269 -0.00518269 0.0103654 -0.00518269 0.00518269 -0.00518269 0.0103654 -0.00518269 0.00518269 -0.00518269 0.00518269 -0.00518269 0.00518651 -0.00518651 0.0103654 -0.00517887 0.00518269 -0.00518651 0.00518269 -0.00518269 0.00518269 -0.00518269 0.00518269 -0.00518269 0.00518269 -0.00518269 0.0103654 -0.00518269 0.00518269 -0.00518269 0.00518651 -0.00518269 0.00518269 -0.00518269 0.00518269 -0.00518269 0.00518269 -0.00518651 0.00518269 -0.00517887 0.00518269 -0.00518651 0.00518269 -0.00518269 0.00518269 -0.00518269 0.00518269 -0.00518269 0.00518269 -0.00518269 0.00518269 -0.00518269 0.00518269 -0.00518269 0.00518651 -0.00518269 0.00518269 -0.00518269 0.00518269 -0.00518269 0.00518269 -0.00518651 0.00518269 -0.00517887 0.00518269 -0.00518651 0.00518269 -0.00518269 0.00518269 -0.00518269 0.00518269 -0.00518269 0.00518269 -0.00518269 0.00518269 -0.0103654 0.00518269 -0.00518269 0.00518651 -0.00518269 0.00518269 -0.00518269 0.00518269 -0.00518651 0.00518269 -0.00518269 0.00518269 -0.00518269 0.00518269 -0.0103654 0.00518269 -0.00518269 0.00518269 -0.00518269 0.00518269 -0.0103654 0.00518269 -0.00518269 0.00518269 -0.00518269 0.00518269 -0.0103692 0.00518651 -0.00518269 0.00518269 -0.00518269 0.00518269 -0.0103654 0.00518269 -0.0103654 0.00518269 -0.00518269 0.00518269 -0.0103654 0.00518269 -0.0103654 0.00518269 -0.0207346 0 -0.0155481 -0.00518269 -0.0103654 -0.00518269 -0.0103654 -0.00518269 -0.0103692 -0.00518269 -0.00518269 -0.00518269 -0.00518269 -0.00518269 -0.00518269 -0.00518269 -0.00518269 -0.00518651 -0.00518269 -0.00518269 -0.00518269 -0.00518269 -0.00518269 -0.00518269 -0.00518269 -0.00518269 -0.00518269 -0.00518269 -0.00518269 -0.00518269 -0.00518269 -0.00518269 -0.00518651 -0.0103654 -0.00518269 -0.00518269 -0.00518269 -0.00518269 -0.00518269 -0.00518651 -0.00518269 -0.0103654 -0.00518269 -0.00518269 -0.00518269 -0.00518269 -0.00518269 -0.0103654 -0.00518269 -0.00518269 -0.00518269 0 -0.00518269 0.00518269 -0.0103692 0.00518269 -0.0103654 0.00518269 -0.0103654 0.00518269 -0.0103654 0.00518269 -0.0103654 0.00518269 -0.0103654 0.00518269 -0.0155519 0.00518651 -0.0103654 0.00518269 -0.0103654 0.00518269 -0.0155481 0.00518269 -0.0103654 0.00518269 -0.0155519 0.00518269 -0.0155481 0.00518269 -0.0155481 0.00518269 -0.0155481 3.82204e-005 -0.0161749 0.0362444 0.00580568 0.0518307 0.00518269 0.0777442 0 0.0259134 -0.00518269 0.0103654 -0.00518269 0.0103692 -0.00518269 0.00518269 -0.00518269 0.00518269 -0.0103654 0.00518269 -0.0103654 0.00518269 -0.0103654 0.00518269 -0.0155519 0.00518269 -0.0259134 0.00518269 -0.0311 0.00518269 -0.0466442 0 -0.228054 -0.00518269 -0.0518307 -0.00518269 -0.0362788 -0.00518269 -0.0259173 -0.00518269 -0.0207308 -0.00518269 -0.0155481 -0.00518269 -0.0103692 -0.00518269 -0.0103654 -0.00518269 -0.00518269 -0.00518651 -0.00518269 -0.0103654 -0.00518269 -0.0207308 -0.00518269 -0.093296 0 -0.0466442 0.00518269 -0.0362826 0.00518269 0 -0.0155481 -0.00518269 -0.0155481 -0.00518269 -0.0155519 -0.00518269 -0.0155481 -0.00518269 -0.00518269c-0.0971869,0.0650779 -0.134444,0.108844 -0.300615,0.108844z"/>
    <path id="_127226368" class="fil18" d="M2.00064 2.74181l-0.00518269 -0.0518269c-0.0566465,0 -0.0842799,0.00566809 -0.100439,-0.0395046 -0.00174285,-0.00486928 -0.0127198,-0.115655 -0.0135874,-0.126353 -0.00658156,-0.0812451 -0.0311,-0.173043 -0.0311,-0.253967 0,-0.0224507 0.0223513,-0.0321357 0.0362903,-0.0408729l0.129567 -0.00577511c0.014711,-0.0631363 0.0566885,-0.108802 0.0984787,-0.145123 -0.0369171,-0.0320899 -0.0646498,-0.0681699 -0.077748,-0.124392 -0.0542768,0 -0.0777442,-0.0246751 -0.0777442,-0.077748 0,-0.0164271 0.0184796,-0.0244305 0.0362826,-0.0259134 -0.00219767,-0.0263836 -0.00455205,-0.0668628 -0.0192822,-0.0843792 -0.0180591,-0.0214799 -0.0273658,-0.0384306 -0.0273658,-0.0762956 0,-0.0446988 0.0115502,-0.0959065 0.0362826,-0.114023 0.0231348,0.0154907 0.0446071,0.0362788 0.0829268,0.0362788l0.0103654 0 0.144905 -0.0171724 0.0468659 0.00162437c0.0785659,0 0.17104,0.082086 0.17104,0.17104 0,0.0184375 -0.0100634,0.0714951 -0.0155481,0.0829268l0.0155481 0c0.00751796,0.0112253 0.0155481,0.0172527 0.0155481,0.0362826 0,0.0693815 -0.0607858,0.0488648 -0.0778053,0.0932311 -0.0176655,0.0460403 -0.0340468,0.0727908 -0.0725003,0.0985399 0.00923023,0.0254968 0.0789596,0.0665379 0.0984787,0.150306l0.124392 0c0.0494266,0.0330989 0.0354686,0.0479475 0.0264791,0.114592 -0.00643632,0.0476838 -0.00865693,0.098452 -0.0161137,0.144557 -0.00759822,0.0469691 -0.0101934,0.0934757 -0.0185369,0.142138 -0.0116114,0.0677228 -0.0272894,0.0600022 -0.100673,0.0600022l-0.0207346 0.0570134c0.249763,-0.0581906 0.502755,-0.333232 0.502755,-0.642695l0 -0.046648c0,-0.0727755 -0.0183458,-0.174683 -0.0414653,-0.222867 -0.208512,0 -0.388728,-0.190487 -0.388728,-0.404277 -0.0217321,-0.00180783 -0.0801329,-0.0259631 -0.111864,-0.0332594 -0.0382548,-0.0087907 -0.082044,-0.0133886 -0.126552,-0.0133886l-0.0829307 0c-0.164929,0 -0.367264,0.122462 -0.447114,0.21113 -0.0985399,0.109425 -0.190395,0.261764 -0.190395,0.467845l0 0.0621961c0,0.148391 0.0876471,0.315792 0.156822,0.39776 0.0557139,0.066022 0.229452,0.210621 0.330381,0.219018z"/>
    <polygon id="_127226440" class="fil3" points="3.90799,2.51376 3.90281,2.51894 3.89763,2.52413 3.89244,2.52931 3.89244,2.56041 3.89763,2.57077 3.90281,2.57596 3.90799,2.58114 3.94946,2.58114 3.95464,2.57596 3.95982,2.57077 3.96501,2.56041 3.96501,2.52931 3.95982,2.52413 3.95464,2.51894 3.94946,2.51376 3.93909,2.50858 3.91317,2.50858 "/>
    <polygon id="_127226608" class="fil7" points="0.43019,2.54486 0.425007,2.55004 0.419825,2.56559 0.419825,2.57077 0.425007,2.58632 0.43019,2.59151 0.435373,2.59669 0.440555,2.60187 0.466473,2.60187 0.471655,2.59669 0.476838,2.59151 0.482021,2.58632 0.487203,2.57596 0.487203,2.56041 0.482021,2.55004 0.476838,2.54486 0.471655,2.53967 0.435373,2.53967 "/>
    <path id="_127226536" class="fil21" d="M2.01619 2.22351l-0.129567 0.00577511c-0.013939,0.00873719 -0.0362903,0.0184222 -0.0362903,0.0408729 0,0.0809241 0.0245184,0.172722 0.0311,0.253967 0.000867604,0.0106979 0.0118445,0.121484 0.0135874,0.126353 0.0161596,0.0451727 0.043793,0.0395046 0.100439,0.0395046l0.425007 0c0.0733832,0 0.0890612,0.00772053 0.100673,-0.0600022 0.00834352,-0.0486622 0.0109387,-0.0951688 0.0185369,-0.142138 0.0074568,-0.0461053 0.00967741,-0.0968735 0.0161137,-0.144557 0.00898944,-0.0666449 0.0229475,-0.0814936 -0.0264791,-0.114592l-0.124392 0 -0.0103692 0 -0.155488 0 -0.0146537 -0.0521327 0.0168743 -0.0455435 -0.0281379 -0.011168 -0.0103654 0 -0.0252866 0.0117451c0.00132625,0.0221182 0.0149213,0.0391874 0.0149213,0.050451 0,4.96865e-005 -0.0140307,0.0284207 -0.0155481,0.046648l-0.160675 -0.00518269z"/>
    <polygon id="_127229512" class="fil1" points="0.305798,2.52931 0.305798,2.53449 0.31098,2.56041 0.316163,2.58632 0.321346,2.60705 0.326532,2.62261 0.331715,2.64334 0.336898,2.65888 0.34208,2.67443 0.347263,2.68998 0.352446,2.70035 0.357628,2.7159 0.362811,2.73145 0.367994,2.74181 0.373177,2.75736 0.378359,2.76773 0.383542,2.77809 0.388728,2.78846 0.393911,2.79882 0.399094,2.80919 0.404277,2.81956 0.409459,2.82992 0.414642,2.84029 0.419825,2.84547 0.425007,2.85584 0.43019,2.8662 0.435373,2.87657 0.440555,2.88175 0.456107,2.88175 0.456107,2.8662 0.450925,2.85584 0.445742,2.84547 0.440555,2.84029 0.435373,2.82992 0.43019,2.81956 0.425007,2.80919 0.419825,2.79882 0.414642,2.78846 0.409459,2.77809 0.404277,2.76255 0.399094,2.75218 0.393911,2.74181 0.388728,2.72626 0.383542,2.7159 0.378359,2.70035 0.373177,2.68998 0.367994,2.67443 0.362811,2.65888 0.357628,2.64334 0.352446,2.62261 0.347263,2.60705 0.34208,2.58632 0.336898,2.56559 0.331715,2.54486 0.326532,2.52413 0.31098,2.52413 "/>
    <polygon id="_127228408" class="fil11" points="0.228054,2.78328 0.222871,2.78846 0.217688,2.79364 0.212506,2.80919 0.212506,2.81956 0.217688,2.82992 0.222871,2.84029 0.228054,2.84547 0.243602,2.85065 0.25915,2.85065 0.274702,2.84547 0.279884,2.84029 0.285067,2.83511 0.29025,2.81956 0.29025,2.80401 0.285067,2.78846 0.279884,2.78328 0.269519,2.77809 0.233236,2.77809 "/>
    <polygon id="_127228312" class="fil1" points="0.580499,2.77291 0.585682,2.79364 0.590865,2.80919 0.596047,2.82474 0.60123,2.84029 0.606413,2.85065 0.611596,2.8662 0.616778,2.87657 0.621961,2.88694 0.627144,2.8973 0.63233,2.90767 0.637513,2.91803 0.642695,2.9284 0.647878,2.93359 0.653061,2.94395 0.658244,2.95432 0.663426,2.9595 0.668609,2.96986 0.673792,2.97505 0.678974,2.98023 0.684157,2.9906 0.68934,2.99578 0.694526,3.00096 0.699709,3.01133 0.704892,3.01651 0.710074,3.0217 0.715257,3.02688 0.735988,3.02688 0.735988,3.00615 0.730805,3.00096 0.725622,2.99578 0.72044,2.98542 0.715257,2.98023 0.710074,2.96986 0.704892,2.96468 0.699709,2.95432 0.694526,2.94913 0.68934,2.93877 0.684157,2.9284 0.678974,2.92322 0.673792,2.91285 0.668609,2.90249 0.663426,2.89212 0.658244,2.88694 0.653061,2.87657 0.647878,2.8662 0.642695,2.85584 0.637513,2.84547 0.63233,2.83511 0.627144,2.82474 0.621961,2.81438 0.616778,2.80401 0.611596,2.78846 0.606413,2.77809 0.60123,2.76773 0.596047,2.75736 0.590865,2.75218 0.580499,2.75218 "/>
    <path id="_127228240" class="fil8" d="M4.11531 2.76773l0 -0.0155481 -0.0207308 -0.00518269 -0.0310961 -0.00518651 -0.0259173 -0.00518269 -0.0311 -0.00518269 -0.0259134 -0.00518269 -0.0310961 -0.00518269 -0.0259173 -0.00518269 -0.0310961 -0.00518269 -0.0259173 -0.00518269 -0.0310961 -0.00518269 -0.0259173 -0.00518269 -0.0310961 -0.00518269 -0.0259173 -0.00518269 -0.0259134 -0.00518651 -0.0311 -0.00518269 -0.0259134 -0.00518269 -0.0311 -0.00518269 -0.0259134 -0.00518269 -0.0310961 -0.00518269 -0.0259173 -0.00518269 -0.0259134 0c0.00695612,0.026051 0.226364,0.295432 0.238419,0.295432 0.0333779,0 0.290353,-0.15678 0.337169,-0.181849l0.0100902 0.00562605z"/>
    <path id="_127232776" class="fil2" d="M3.51927 2.65888l-0.00518651 0.0362826 -0.00518269 0.0310961 -0.00518269 0.0362826 -0.00518269 0.0310961 -0.00518269 0.0362826 -0.00518269 0.0414653 -0.00518269 0.0414615 -0.00518269 0.0570134 0 0.0414653 0.00518269 0.00518269 0.00518269 0.00518269 0.0155481 0.00518269 0.0155519 0.00518269 0.0155481 0.00518269 0.0207308 0.00518269 0.0155481 0.00518651 0.0207346 0.00517887 0.0207308 0.00518651 0.0207308 0.00518269 0.0207346 0.00518269 0.0207308 0.00518269 0.0207308 0.00518269 0.0207346 0.00518269 0.0259134 0.00518269 0.0207346 0.00518269 0.0207308 0.00518269 0.0259134 0.00518269 0.0259173 0.00518651 0.0207308 0.00517887 0.0311 0.00518651 0.0259134 0.00518269 0.0310961 0.00518269 0.0518307 0 0.00518651 -0.00518269 0.00517887 -0.0103692 0.00518651 -0.0103654 0.00518269 -0.0155481 0.00518269 -0.0103654 0.00518269 -0.0155481 0.00518269 -0.0155481 0.00518269 -0.0155519 0.00518269 -0.0155481 0.00518269 -0.0155481 0.00518269 -0.0155481 0.00518269 -0.0155519 0.00518651 -0.0155481 0.00517887 -0.0155481 0.00518651 -0.0207346 0.00518269 -0.0155481 0.00518269 -0.0155481 0.00518269 -0.0207346 0.00518269 -0.0155481 0.00518269 -0.0155481 0.00518269 -0.0207308 0.00518269 -0.0207346 0.00518269 -0.0155481 0 -0.0103654 -0.0100902 -0.00562605c-0.0468162,0.0250688 -0.303791,0.181849 -0.337169,0.181849 -0.0120547,0 -0.231463,-0.269381 -0.238419,-0.295432l-0.00518269 0 -0.00518269 0.0103654z"/>
    <polygon id="_127232896" class="fil1" points="0.678974,2.58632 0.684157,2.61224 0.68934,2.63297 0.694526,2.6537 0.699709,2.67443 0.704892,2.68998 0.710074,2.70553 0.715257,2.72108 0.72044,2.73663 0.725622,2.75218 0.730805,2.76255 0.735988,2.77809 0.74117,2.78846 0.746353,2.80401 0.751536,2.81438 0.756722,2.82474 0.761905,2.83511 0.767088,2.84547 0.77227,2.85584 0.777453,2.8662 0.782636,2.87657 0.787818,2.88175 0.793001,2.89212 0.798184,2.90249 0.803366,2.90767 0.808553,2.91803 0.813732,2.9284 0.818918,2.93359 0.824101,2.94395 0.829284,2.94913 0.834466,2.9595 0.839649,2.96468 0.844832,2.97505 0.850015,2.98023 0.855197,2.98542 0.86038,2.9906 0.865563,3.00096 0.870749,3.00615 0.875928,3.01133 0.881114,3.01651 0.886297,3.02688 0.89148,3.03206 0.896663,3.03724 0.901845,3.04243 0.907028,3.04761 0.912211,3.05279 0.917393,3.05798 0.922576,3.06316 0.927759,3.07353 0.932945,3.07871 0.938124,3.08389 0.943311,3.08907 0.948493,3.09426 0.958859,3.09944 0.964041,3.10462 0.974407,3.10462 0.979589,3.09944 0.979589,3.08389 0.974407,3.07871 0.969224,3.07353 0.964041,3.06834 0.958859,3.05798 0.953676,3.05279 0.948493,3.04761 0.943311,3.04243 0.938124,3.03724 0.932945,3.02688 0.927759,3.0217 0.922576,3.01651 0.917393,3.01133 0.912211,3.00096 0.907028,2.99578 0.901845,2.9906 0.896663,2.98542 0.89148,2.97505 0.886297,2.96986 0.881114,2.9595 0.875928,2.95432 0.870749,2.94913 0.865563,2.93877 0.86038,2.93359 0.855197,2.92322 0.850015,2.91803 0.844832,2.90767 0.839649,2.90249 0.834466,2.89212 0.829284,2.88694 0.824101,2.87657 0.818918,2.8662 0.813732,2.86102 0.808553,2.85065 0.803366,2.84029 0.798184,2.82992 0.793001,2.82474 0.787818,2.81438 0.782636,2.80401 0.777453,2.79364 0.77227,2.78328 0.767088,2.77291 0.761905,2.76255 0.756722,2.75218 0.751536,2.73663 0.746353,2.72626 0.74117,2.7159 0.735988,2.70553 0.730805,2.68998 0.725622,2.67961 0.72044,2.66407 0.715257,2.64852 0.710074,2.63297 0.704892,2.61742 0.699709,2.60187 0.694526,2.58632 0.68934,2.56559 0.678974,2.56559 "/>
    <polygon id="_127220224" class="fil5" points="3.47262,3.07871 3.46744,3.08907 3.46744,3.10981 3.47262,3.11499 3.4778,3.12017 3.48298,3.12536 3.50372,3.12536 3.51408,3.12017 3.51927,3.10981 3.51927,3.08389 3.51408,3.07871 3.5089,3.07353 3.4778,3.07353 "/>
    <path id="_127231144" class="fil22" d="M2.00064 2.74181l0.0208416 0.0100749c-0.000110839,0.0763606 -0.0363476,0.178784 -0.0363897,0.259444 -1.52882e-005,0.0261886 -0.0211321,0.261974 -0.0259173,0.269515l-0.00518269 0.077748 -0.00518269 0.0932922 -0.00518269 0.0103654 -0.00518269 0.0155481 -0.00518269 0.0311 0 0.0103654 0.00518269 0.00518269 0.00518269 0.00518269 0.00518269 0.00518269 0.0103654 0.00518651 0.0103654 0.00518269 0.0155519 0.00518269 0.0155481 0.00518269 0.0362788 0.00518269 0.0259173 0 0.0362788 -0.00518269 0.0155519 -0.00518269 0.0103654 -0.00518269 0.0103654 -0.00518269 0.0103654 -0.00518651 0.00518269 -0.00518269 0.00518269 -0.00518269 0 -0.0414615 -0.00518269 -0.0155519 -0.00518269 -0.160671 0.124656 0 -0.00544641 0.160671 -0.00518269 0.0155519 0 0.0414615 0.00518269 0.00518269 0.00518269 0.00518269 0.0103654 0.00518651 0.0103692 0.00518269 0.0103654 0.00518269 0.0155481 0.00518269 0.0362826 0.00518269 0.0259134 0 0.0362826 -0.00518269 0.0155481 -0.00518269 0.0155481 -0.00518269 0.0103654 -0.00518269 0.0103692 -0.00518651 0.00517887 -0.00518269 0.00518651 -0.00518269 0.00518269 -0.00518269 0 -0.00518269 -0.00518269 -0.0362826 -0.00518651 -0.0155481 -0.00517887 -0.0103654 -0.00518651 -0.0881095 -0.00518269 -0.0829307 -0.0163278 -0.165793 0.0219232 -0.00211359c-0.0388358,-0.00398639 -0.0261619,-0.0402881 -0.0310159,-0.0813713 -0.0041622,-0.0351895 -0.00796131,-0.0635376 -0.0110151,-0.097829 -0.00340162,-0.0382051 -0.0322657,-0.162383 -0.0205779,-0.186741l0.0207346 -0.0570134 -0.425007 0 0.00518269 0.0518269z"/>
    <polygon id="_127231528" class="fil3" points="0.46129,3.12017 0.456107,3.12536 0.450925,3.13054 0.445742,3.1409 0.440555,3.14609 0.435373,3.16682 0.435373,3.17718 0.440555,3.19274 0.445742,3.2031 0.450925,3.20828 0.46129,3.21347 0.471655,3.21865 0.502751,3.21865 0.518303,3.21347 0.523486,3.20828 0.528669,3.2031 0.533851,3.19792 0.539034,3.18755 0.539034,3.1409 0.533851,3.13572 0.528669,3.12536 0.518303,3.12017 0.507938,3.11499 0.466473,3.11499 "/>
    <polygon id="_127231432" class="fil23" points="1.08325,3.21347 1.07807,3.21865 1.07289,3.22383 1.0677,3.22901 1.0677,3.2653 1.07289,3.27048 1.07807,3.27566 1.08325,3.28084 1.0988,3.28603 1.10916,3.28603 1.12472,3.28084 1.1299,3.27566 1.13508,3.27048 1.14026,3.26011 1.14026,3.2342 1.13508,3.22383 1.1299,3.21865 1.12472,3.21347 1.10916,3.20828 1.09362,3.20828 "/>
    <polygon id="_127231264" class="fil13" points="0.590865,3.21865 0.585682,3.22383 0.580499,3.22901 0.575317,3.2342 0.570134,3.24457 0.564948,3.25493 0.564948,3.28084 0.570134,3.29121 0.575317,3.30158 0.585682,3.30676 0.596047,3.31194 0.637513,3.31194 0.647878,3.30676 0.653061,3.30158 0.658244,3.2964 0.663426,3.28603 0.668609,3.27566 0.668609,3.24457 0.663426,3.2342 0.658244,3.22901 0.653061,3.22383 0.642695,3.21865 0.63233,3.21347 0.60123,3.21347 "/>
    <polygon id="_127219576" class="fil23" points="0.580499,3.12017 0.575317,3.13054 0.570134,3.1409 0.564948,3.15127 0.559765,3.16164 0.554582,3.16682 0.549399,3.17718 0.544217,3.18755 0.539034,3.19792 0.533851,3.20828 0.528669,3.21865 0.523486,3.22901 0.518303,3.23938 0.513121,3.24975 0.507938,3.26011 0.502751,3.27048 0.497569,3.28084 0.497569,3.30676 0.502751,3.31194 0.523486,3.31194 0.528669,3.30676 0.533851,3.30158 0.539034,3.29121 0.544217,3.28084 0.549399,3.27048 0.554582,3.26011 0.559765,3.24975 0.564948,3.23938 0.570134,3.22901 0.575317,3.21347 0.580499,3.20828 0.585682,3.19792 0.590865,3.18755 0.596047,3.17718 0.60123,3.172 0.606413,3.16164 0.611596,3.15127 0.616778,3.13572 0.616778,3.12017 0.611596,3.11499 0.585682,3.11499 "/>
    <polygon id="_127221424" class="fil7" points="3.20829,3.31713 3.2031,3.32231 3.19792,3.33268 3.19792,3.35341 3.2031,3.36378 3.20829,3.36896 3.21865,3.37414 3.24457,3.37414 3.25493,3.36896 3.26011,3.35859 3.26011,3.32749 3.25493,3.31713 3.24457,3.31194 3.21347,3.31194 "/>
    <polygon id="_127221328" class="fil5" points="1.27502,3.35859 1.26984,3.36896 1.26984,3.38969 1.27502,3.40005 1.28539,3.40524 1.30612,3.40524 1.31649,3.40005 1.32167,3.39487 1.32167,3.36378 1.31649,3.35859 1.3113,3.35341 1.28539,3.35341 "/>
    <polygon id="_127230568" class="fil1" points="3.64366,3.24975 3.63847,3.26011 3.63329,3.27048 3.62811,3.28084 3.62293,3.28603 3.61774,3.2964 3.61256,3.30158 3.60738,3.31194 3.60219,3.31713 3.59701,3.32231 3.59183,3.33268 3.58665,3.33786 3.58146,3.34304 3.57628,3.34822 3.57109,3.35341 3.56591,3.36378 3.56073,3.36896 3.55555,3.37414 3.55036,3.37932 3.54518,3.38451 3.54,3.38969 3.53482,3.39487 3.52963,3.40005 3.52445,3.40524 3.52445,3.4156 3.54,3.4156 3.54518,3.41042 3.55036,3.40524 3.55555,3.40005 3.56073,3.39487 3.56591,3.38969 3.57109,3.38451 3.57628,3.37932 3.58146,3.37414 3.58665,3.36896 3.59183,3.36378 3.59701,3.35341 3.60219,3.34822 3.60738,3.34304 3.61256,3.33786 3.61774,3.32749 3.62293,3.32231 3.62811,3.31194 3.63329,3.30676 3.63847,3.2964 3.64366,3.29121 3.64884,3.28084 3.65403,3.27048 3.65921,3.26011 3.65921,3.24457 3.64884,3.24457 "/>
    <path id="_127230688" class="fil11" d="M3.71622 3.42597c0,0.0481883 0.0390613,0.0932922 0.0881095,0.0932922l0.00518269 0c0.0439573,0 0.0881134,-0.0439382 0.0881134,-0.0829268 0,-0.0544068 -0.0403913,-0.0984787 -0.093296,-0.0984787 -0.0434796,0 -0.0881095,0.0444847 -0.0881095,0.0881134z"/>
    <path id="_127220392" class="fil5" d="M3.71622 3.42597c0,-0.0436286 0.04463,-0.0881134 0.0881095,-0.0881134 0.0529047,0 0.093296,0.044072 0.093296,0.0984787 0,0.0389887 -0.0441561,0.0829268 -0.0881134,0.0829268l-0.00518269 0c-0.0490483,0 -0.0881095,-0.0451039 -0.0881095,-0.0932922zm0.0414615 -0.124392l-0.0103654 0.00518269 -0.0103654 0.00518269 -0.00518269 0.00518269 -0.0103654 0.00518269 -0.00518269 0.00518269 -0.00518269 0.00518269 -0.00518269 0.00518269 -0.00518269 0.00518269 -0.00518651 0.00518269 -0.00518269 0.0103692 -0.00518269 0.0103654 -0.00518269 0.0103654 -0.00518269 0.0155481 0 0.0673788 0.00518269 0.0155481 0.00518269 0.0155519 0.00518269 0.00518269 0.00518269 0.0103654 0.00518651 0.00518269 0.00518269 0.00518269 0.00518269 0.00518269 0.00518269 0.00518269 0.00518269 0.00518269 0.00518269 0.00518651 0.0103654 0.00518269 0.00518269 0.00518269 0.0103654 0.00518269 0.0155519 0.00518269 0.0777442 0 0.0155481 -0.00518269 0.0103654 -0.00518269 0.00518269 -0.00518269 0.0103692 -0.00518269 0.00518269 -0.00518651 0.00518269 -0.00518269 0.00518269 -0.00518269 0.00518269 -0.00518269 0.00518269 -0.00518269 0.00518269 -0.00518269 0.00518269 -0.0103654 0.00518269 -0.00518269 0.00518269 -0.0155519 0.00518269 -0.0155481 0 -0.0673788 -0.00518269 -0.0155481 -0.00518269 -0.0103654 -0.00518269 -0.0103654 -0.00518269 -0.00518651 -0.00518269 -0.0103654 -0.00518269 -0.00518269 -0.00518269 -0.00518269 -0.00518269 -0.00518269 -0.00518269 -0.00518269 -0.0103692 -0.00518269 -0.00518269 -0.00518269 -0.0103654 -0.00518269 -0.0103654 -0.00518269 -0.0207308 -0.00518269 -0.0570134 0 -0.0207346 0.00518269z"/>
    <path id="_127222432" class="fil8" d="M0.756722 3.67476l0 -0.0414653c0,-0.0769148 0.0856711,-0.150306 0.171036,-0.150306l0.0103654 0c0.0729399,0 0.160675,0.0752216 0.160675,0.13994l0 0.0570134c0,0.0738495 -0.0904983,0.150306 -0.165854,0.150306l-0.00518651 0c-0.0832747,0 -0.171036,-0.0755159 -0.171036,-0.155488zm0.0932922 -0.32135l-0.0207308 0.00518651 -0.0103654 0.00518269 -0.0155519 0.00518269 -0.0103654 0.00518269 -0.0103654 0.00518269 -0.0103654 0.00518269 -0.00518269 0.00518269 -0.00518269 0.00518269 0 0.0259173 0.00518269 0.0103654 0.00518269 0.0103654 0.00518269 0.0103654 -0.0103654 0 -0.00518269 0.00518269 -0.00518269 0.00518269 -0.00518651 0.00518269 -0.00518269 0.00518269 -0.00518269 0.00518269 -0.00518269 0 -0.0103654 -0.00518269 -0.00518269 -0.00518269 -0.0103654 -0.00518269 -0.0259173 0 -0.00518269 0.00518269 -0.00518269 0.0103654 -0.00518269 0.00518651 -0.00518269 0.0103654 -0.00518269 0.00518269 -0.00518269 0.0103654 -0.00518269 0.0103654 -0.00518269 0.0103654 -0.00518269 0.0103692 -0.00518269 0.0155481 -0.00518651 0.0207308 0 0.0155481 0.00518651 0.00518269 0.00518269 0.00518651 0.0103654 0.00518269 0.0103654 0.00518269 0.0155481 0 0 0.0570134 -0.0207308 0 -0.0155481 0.00518269 -0.0103692 0.00518269 -0.00518269 0.00518269 0 0.0259134 0.00518269 0.0259173 0.00518651 0.0155481 0.00518269 0.0155481 0.00518269 0.0103654 0.00518269 0.0155519 0.00518269 0.0103654 0.00518269 0.00518269 0.00518269 0.00518269 0.00518269 0.00518269 0.0259173 0 0.0155481 -0.00518269 0.0155481 0 0.00518269 0.00518269 0.00518269 0.00518269 0.00518269 0.00518269 0.00518269 0.00518269 0.00518269 0.00518269 0 0.00518269 -0.00518269 0.0103692 -0.00518269 0.0103654 -0.00518269 0.0103654 0 0.0207308 0.00518269 0.00518269 0.00518269 0.00518269 0.00518269 0.00518651 0.0103692 0.00518269 0.0103654 0.00518269 0.00518269 0.00518269 0.0103654 0.00518269 0.0103654 0.00518269 0.0103692 0.00518269 0.0155481 0.00518269 0.0155481 0.00518269 0.0259134 0 0.00518651 -0.00518269 0.00517887 -0.00518269 0.00518651 -0.0103654 0.00518269 -0.0103654 4.58645e-005 -0.0162016 0.0310503 0.00583626 0.0207308 0 0.00518651 0.0207308 0.00518269 0.0155481 0.00518269 0.00518269 0.00518269 0.00518269 0.0362826 0 0.0207308 -0.00518269 0.0155481 -0.00518269 0.0155481 -0.00518269 0.0103692 -0.00518269 0.0103654 -0.00518269 0.0103654 -0.00518269 0.0103654 -0.00518269 0.00518269 -0.00518269 0 -0.0311 -0.00518269 -0.0103654 -0.00518269 -0.0103654 0 -0.00518269 0.0103654 -0.00518269 0.00518269 -0.00518269 0.00518269 -0.00518651 0.00518269 -0.00518269 0.00518269 -0.00518269 0.0103692 0 0.0103654 0.00518269 0.0103654 0.00518269 0.0259134 0 0.00518269 -0.00518269 0.00518651 -0.00518269 0.00518269 -0.00518269 0.00518269 -0.00518269 0.00518269 -0.0103654 0.00518269 -0.0103654 0.00518269 -0.0103654 0.00518269 -0.0103692 0.00518269 -0.0155481 0.00518269 -0.0103654 0.00518269 -0.0207308 0 -0.0207346 -0.00518269 -0.00518269 -0.00518269 -0.00518269 -0.0103654 -0.00518269 -0.0155481 -0.00518269c-0.0167367,-0.00675355 -0.0167367,-0.0450733 0,-0.0518307l0.0207308 -0.00518269 0.0103654 -0.00518269 0.00518269 -0.00518269 0.00518269 -0.00518269 0 -0.0362826 -0.00518269 -0.0155481 -0.00518269 -0.0155481 -0.00518269 -0.0155481 -0.00518269 -0.0103692 -0.00518269 -0.0155481 -0.00518269 -0.0103654 -0.00518269 -0.00518269 -0.00518269 -0.00518269 -0.00518269 -0.00518269 -0.0207346 0 -0.0155481 0.00518269 -0.0103654 0.00518269 -0.00518269 0 -0.00518269 -0.00518269 -0.00518269 -0.00518269 -0.00518269 -0.00518269 -0.00518651 -0.00518651 -0.00518269 -0.00518269 -0.00518269 -0.00518269 0 -0.00518269 0.00518269 -0.00518269 0.00518269 -0.0103654 0.00518651 -0.00518269 0 -0.0311 -0.00518651 -0.00518269 -0.00518269 -0.00518269 -0.0103654 -0.00518269 -0.00518269 -0.00518269 -0.0103654 -0.00518269 -0.0103654 -0.00518269 -0.0103692 -0.00518269 -0.0103654 -0.00518269 -0.0103654 -0.00518269 -0.0155481 -0.00518269 -0.0259173 -0.00518651 -0.00517887 0 -0.0103692 0.00518651 -0.00518269 0.0103654 -0.00518269 0.0103654 -0.00518269 0.0103654 -1.91102e-005 0.0109081 -0.0518116 -0.00572542 -0.00518269 -0.0207308 -0.00518269 -0.0155481 -0.00518269 -0.00518651 -0.00518269 -0.00518269 -0.0259134 0 -0.0207346 0.00518269z"/>
    <polygon id="_127220152" class="fil16" points="3.18237,3.45188 3.16682,3.45707 3.15127,3.46225 3.1409,3.46743 3.12536,3.47262 3.10981,3.4778 3.09426,3.48298 3.07871,3.48817 3.06316,3.49335 3.04761,3.49853 3.03206,3.50372 3.01651,3.5089 3.00096,3.51408 2.9906,3.51926 2.97505,3.52445 2.9595,3.52963 2.94395,3.53481 2.9284,3.54 2.91285,3.54518 2.8973,3.55036 2.88175,3.55555 2.86621,3.56073 2.85066,3.56591 2.83511,3.57109 2.82474,3.57628 2.81956,3.58146 2.81956,3.61256 2.82474,3.61774 2.82992,3.62293 2.85066,3.62293 2.86621,3.61774 2.88175,3.61256 2.88694,3.60738 3.17719,3.5089 3.18237,3.5089 3.19792,3.50372 3.21347,3.49853 3.22384,3.49335 3.22902,3.48817 3.22902,3.46743 3.22384,3.45188 3.21347,3.4467 3.19792,3.4467 "/>
    <polygon id="_127220056" class="fil5" points="2.38419,3.62293 2.379,3.63329 2.379,3.6592 2.38419,3.66439 2.38937,3.66957 2.41529,3.66957 2.42565,3.66439 2.43083,3.65402 2.43083,3.63329 2.42565,3.62811 2.42047,3.62293 2.41529,3.61774 2.39455,3.61774 "/>
    <path id="_127219960" class="fil8" d="M2.95405 3.62211c0.0285354,0.0430209 0.140212,0.0782678 0.140212,0.130385 0,0.0531531 -0.0414653,0.0952606 -0.0414653,0.129575l0.000282831 0.0319179 0.181123 -0.063014c-0.0415647,-0.0620738 -0.13994,-0.0609845 -0.13994,-0.134761l0 -0.0103654c0,-0.0472863 0.0362788,-0.0795252 0.0355603,-0.142107l-0.175772 0.0583702z"/>
    <polygon id="_127221160" class="fil11" points="3.50372,3.64884 3.49853,3.65402 3.49335,3.66439 3.49335,3.70067 3.49853,3.70585 3.50372,3.71103 3.5089,3.71622 3.54518,3.71622 3.55555,3.71103 3.56073,3.70067 3.56591,3.6903 3.56591,3.66957 3.56073,3.6592 3.55555,3.65402 3.55036,3.64884 3.54,3.64366 3.51408,3.64366 "/>
    <polygon id="_127221208" class="fil5" points="1.8918,3.77323 1.88662,3.77841 1.88662,3.80433 1.8918,3.8147 1.92808,3.8147 1.93327,3.80951 1.93845,3.80433 1.93845,3.7836 1.93327,3.77323 1.92808,3.76805 1.89698,3.76805 "/>
    <path id="_127224520" class="fil18" d="M0.756722 3.67476c0,0.0799724 0.0877617,0.155488 0.171036,0.155488l0.00518651 0c0.0753554,0 0.165854,-0.0764561 0.165854,-0.150306l0 -0.0570134c0,-0.0647186 -0.087735,-0.13994 -0.160675,-0.13994l-0.0103654 0c-0.0853653,0 -0.171036,0.0733909 -0.171036,0.150306l0 0.0414653z"/>
    <polygon id="_127222408" class="fil0" points="2.43083,3.82506 2.39455,3.83024 2.35827,3.83543 2.31162,3.84061 2.2287,3.84579 2.07839,3.84579 2.07321,3.84579 2.06284,3.85098 2.06284,3.86653 2.06802,3.87171 2.31162,3.87171 2.36346,3.86653 2.39973,3.86134 2.43083,3.85616 2.45675,3.85098 2.48266,3.84579 2.48785,3.84061 2.48785,3.81988 2.46193,3.81988 "/>
    <path id="_127222216" class="fil18" d="M1.35277 3.74213l0 0.0310961c0,0.0450733 0.062842,0.103661 0.108844,0.103661l0.00518269 0c0.0709944,0 0.129575,-0.0558286 0.129575,-0.124392 0,-0.0581256 -0.0554273,-0.119209 -0.114027,-0.119209l-0.0259134 0c-0.0464684,0 -0.103661,0.0581371 -0.103661,0.108844z"/>
    <path id="_127222312" class="fil6" d="M1.35277 3.74213c0,-0.050707 0.057193,-0.108844 0.103661,-0.108844l0.0259134 0c0.0585995,0 0.114027,0.0610839 0.114027,0.119209 0,0.0685636 -0.0585804,0.124392 -0.129575,0.124392l-0.00518269 0c-0.0460021,0 -0.108844,-0.0585881 -0.108844,-0.103661l0 -0.0310961zm0.0518307 -0.196954l-0.0155481 0.00518269 -0.0103654 0.00518269 -0.0103654 0.00518269 -0.0103692 0.00518269 0 0.0310961 0 0.0155519 -0.00518269 0.00518269 -0.00518269 0.00518269 -0.00518269 0.00518269 -0.00518269 0 -0.00518269 -0.00518269 -0.0103654 -0.00518269 -0.0207346 0 -0.00518269 0.00518269 -0.00518269 0.0103654 -0.00518269 0.00518269 -0.00518269 0.0103654 -0.00518269 0.0103654 -0.00518269 0.0103692 -0.00518269 0.0103654 0 0.0362788 0.0103654 0.00518269 0.0103654 0.00518651 0.0110992 0.000137594 -0.00591652 0.0154105 0 0.0207308 -0.0103654 0 -0.0155481 0.00518269 -0.00518269 0.00518269 0 0.0362826 0.00518269 0.0155481 0.00518269 0.0155481 0.00518269 0.0103692 0.00518269 0.0103654 0.00518269 0.00518269 0.00518269 0.00518269 0.0207346 0 0.0103654 -0.00518269 0.0103654 -0.00518269 0 0.0103654 0.00518269 0.00518269 0.00518269 0.00518269 0 0.0155481 -0.00518269 0.0103654 0 0.0207346 0.0103654 0.00518269 0.00518269 0.00518269 0.0103654 0.00518269 0.0103692 0.00518269 0.0103654 0.00518269 0.0103654 0.00518269 0.0155481 0.00518269 0.0207346 0 0.00518269 -0.00518269 0.00518269 -0.0103654 0.00518269 -0.0103654 0.0362788 -0.00518269 0 0.0155481 0.00518651 0.0155481 0.00518269 0.00518269 0.0207308 0 0.0207308 -0.00518269 0.0155519 -0.00518269 0.0155481 -0.00518269 0.0103654 -0.00518269 0.0103654 -0.00518269 0.00518269 -0.00518269 0 -0.0207308 -0.00518269 -0.0103692 0 -0.0103654 0.00518269 -0.00518269 0.00518269 -0.00518269 0.00518269 -0.00518269 0.0103692 0 0.0103654 0.00518269 0.0259134 0 0.00518269 -0.00518269 0.00518269 -0.0103654 0.00518269 -0.0103654 0.00518269 -0.00518269 0.00518651 -0.0155519 0.00518269 -0.0103654 0.00518269 -0.0155481 0 -0.0207308 -0.0103654 -0.00518269 -0.0103692 -0.00518651 -0.0109884 -3.43984e-005 0.00580568 -0.0362444 0.0207346 -0.00518269 0.00518269 -0.00518269 0.00518269 -0.00518269 0 -0.0207346 -0.00518269 -0.0207308 -0.00518269 -0.0155481 -0.00518269 -0.0103654 -0.00518651 -0.0103692 -0.00518269 -0.0103654 -0.00518269 -0.00518269 -0.0259134 0 -0.0103654 0.00518269 -0.00518269 0 -0.00518269 -0.0103654 -0.00518651 -0.00518269 -0.00518269 -0.00518269 0 -0.0103654 0.00518269 -0.00518269 0 -0.0259173 -0.00518269 -0.00518269 -0.00518269 -0.00518269 -0.0103654 -0.00518269 -0.00518269 -0.00518269 -0.0103654 -0.00518269 -0.0155481 -0.00518269 -0.0103692 -0.00518269 -0.0310961 0 -0.00518269 0.00518269 -0.00518269 0.0103654 -3.82204e-005 0.0161711 -0.0362444 -0.00580568 -0.00518269 -0.0207308 -0.00518269 -0.0103654 -0.0362826 0 -0.0155481 0.00518269z"/>
    <path id="_127222096" class="fil6" d="M3.12982 3.56374c0.000718544,0.0625821 -0.0355603,0.094821 -0.0355603,0.142107l0 0.0103654c0,0.0737769 0.0983755,0.0726876 0.13994,0.134761l-0.181123 0.063014 -0.000282831 -0.0319179c0,-0.0343143 0.0414653,-0.0764217 0.0414653,-0.129575 0,-0.0521174 -0.111676,-0.0873642 -0.140212,-0.130385l0.175772 -0.0583702zm-0.242883 0.0436324l0 0.0103654 0.00518269 0.0103654 0.00518269 0.0103654 0.00518651 0.00518269 0.00518269 0.0103654 0.00518269 0.00518269 0.00518269 0.00518651 0.00518269 0.00518269 0.00518269 0.00518269 0.00518269 0.00518269 0.0103654 0.00518269 0.00518269 0.00518269 0.00518269 0.00518269 0.0103692 0.00518269 0.0103654 0.00518269 0.00518269 0.00518269 0.0103654 0.00518269 0.00518269 0.00518269 0.0103654 0.00518651 0.0103654 0.00518269 0.00518651 0.00518269 0.00518269 0.00518269 0.00518269 0.00518269 0.00518269 0.00518269 0 0.0259134 -0.00518269 0.0155519 -0.00518269 0.0103654 -0.00518269 0.0103654 -0.00518651 0.0103654 -0.00518269 0.0155481 -0.00518269 0.0155519 -0.00518269 0.0155481 0 0.0777442 0.00518269 0.00518269 0.00518269 0.0103654c0.035866,-0.00298501 0.278772,-0.0862635 0.285067,-0.103658l0 -0.0103654 -0.00518269 -0.0103692 -0.00518269 -0.0103654 -0.00518269 -0.0103654 -0.00518269 -0.00518269 -0.00518269 -0.00518269 -0.00518651 -0.00518269 -0.00518269 -0.00518269 -0.00518269 -0.00518269 -0.00518269 -0.00518269 -0.00518269 -0.00518651 -0.0103654 -0.00518269 -0.00518269 -0.00518269 -0.0103654 -0.00518269 -0.0103654 -0.00518269 -0.0103692 -0.00518269 -0.00518269 -0.00518269 -0.0103654 -0.00518269 -0.0103654 -0.00518269 -0.0103654 -0.00518269 -0.00518269 -0.00518269 -0.00518269 -0.00518269 -0.00518269 -0.0155519 0 -0.00518269 0.00518269 -0.0207308 0.00518269 -0.0155481 0.00518269 -0.0155519 0.00518269 -0.0103654 0.00518269 -0.0155481 0.00518269 -0.0155481 0.00518269 -0.0207346 0 -0.0777442 -0.00518269 -0.00518269 -0.29025 0.0984787z"/>
    <polygon id="_127219360" class="fil0" points="2.51894,3.91836 2.47748,3.92354 2.43083,3.92872 2.37382,3.93391 2.29089,3.93909 2.1354,3.94427 2.13022,3.94945 2.13022,3.95982 2.14577,3.965 2.23388,3.97018 2.33754,3.97018 2.42047,3.965 2.46712,3.95982 2.50858,3.95464 2.53968,3.94945 2.57077,3.94427 2.59151,3.93909 2.59669,3.93391 2.59669,3.91836 2.59151,3.91317 2.55523,3.91317 "/>
    <path id="_127232992" class="fil16" d="M3.32231 3.85616l-0.0155481 0.00518269 -0.00518269 0 -0.00518269 0c-0.0062949,0.0173941 -0.249201,0.100673 -0.285067,0.103658l-0.00518269 -0.0103654 0 0.0155481 -0.0155481 0 -0.0155481 0.00518651 -0.0103654 0.00518269 -0.00518651 0.00518269 0 0.0310961 0.00518651 0.00518269 0.00518269 0.00518269 0.0207308 0 0.0155481 -0.00518269 0.0155519 -0.00518269 0.0155481 -0.00518269 0.0155481 -0.00518269 0.0155481 -0.00518269 0.0103654 -0.00518269 0.0155519 -0.00518269 0.0155481 -0.00518269 0.0155481 -0.00518269 0.0155481 -0.00518269 0.0155519 -0.00518651 0.0155481 -0.00518269 0.0155481 -0.00518269 0.0155481 -0.00518269 0.0155519 -0.00518269 0.0155481 -0.00518269 0.0103654 -0.00518269 0.0155481 -0.00518269 0.0155519 -0.00518269 0.0155481 -0.00518269 0.0155481 -0.00518269 0.0155481 -0.00518269 0.0155519 -0.00518651 0.0155481 -0.00518269 0.0103654 -0.00518269 0.00518269 -0.0103654 0 -0.0155481 -0.00518269 -0.0103654 -0.00518269 -0.00518269 -0.0103654 -0.00518269 -0.0103654 0 -0.0155519 0.00518269z"/>
    <polygon id="_127230928" class="fil3" points="1.85552,3.94427 1.85033,3.94945 1.84515,3.95464 1.83997,3.965 1.83997,3.99092 1.84515,4.00128 1.85033,4.00647 1.85552,4.01165 1.89698,4.01165 1.90217,4.00647 1.90735,4.00128 1.91253,3.9961 1.91253,3.95982 1.90735,3.94945 1.90217,3.94427 1.88662,3.93909 1.86589,3.93909 "/>
    <polygon id="_127232008" class="fil7" points="1.17136,3.97537 1.16099,3.98055 1.15581,3.99092 1.15581,4.01683 1.16099,4.0272 1.16618,4.03238 1.17654,4.03757 1.19728,4.03757 1.20764,4.03238 1.21283,4.0272 1.21801,4.02202 1.21801,3.98574 1.21283,3.98055 1.20764,3.97537 1.19209,3.97018 1.18173,3.97018 "/>
    <polygon id="_127230952" class="fil7" points="2.19242,4.08421 2.18723,4.08939 2.18205,4.09458 2.18205,4.12568 2.18723,4.13604 2.1976,4.14122 2.2287,4.14122 2.23388,4.13604 2.23906,4.13086 2.24425,4.12568 2.24425,4.09458 2.23906,4.08939 2.23388,4.08421 2.22351,4.07903 2.20278,4.07903 "/>
   </g>
   <ellipse id="_125474048" class="fil24 str0" cx="2.13449" cy="1.8895" rx="0.0180957" ry="0.024408"/>
   <ellipse id="_81924112" class="fil24 str0" cx="2.28626" cy="1.88515" rx="0.0180957" ry="0.024408"/>
   <ellipse id="_125466944" class="fil25 str1" cx="2.21806" cy="2.02189" rx="0.0371972" ry="0.0106281"/>
   <polygon id="_125474336" class="fil25 str1" points="2.20796,2.11985 2.17749,2.13159 2.19242,2.18205 2.17686,2.22869 2.23906,2.22869 2.22441,2.17656 2.24128,2.13101 "/>
  </g>
 </g>
</svg>
