<?xml version="1.0" encoding="UTF-8"?>
<!DOCTYPE svg PUBLIC "-//W3C//DTD SVG 1.1//EN" "http://www.w3.org/Graphics/SVG/1.1/DTD/svg11.dtd">
<!-- Creator: CorelDRAW -->
<svg xmlns="http://www.w3.org/2000/svg" xml:space="preserve" width="7.7059in" height="5.14993in" style="shape-rendering:geometricPrecision; text-rendering:geometricPrecision; image-rendering:optimizeQuality; fill-rule:evenodd; clip-rule:evenodd"
viewBox="0 0 7.54056 5.03944"
 xmlns:xlink="http://www.w3.org/1999/xlink">
 <defs>
  <style type="text/css">
   <![CDATA[
    .fil3 {fill:#015EE4}
    .fil19 {fill:#020202}
    .fil15 {fill:#1D93D5}
    .fil0 {fill:#1EA1F2}
    .fil6 {fill:#201D30}
    .fil9 {fill:#272728}
    .fil10 {fill:#2A5697}
    .fil18 {fill:#334F71}
    .fil11 {fill:#3D5057}
    .fil1 {fill:#98D4F9}
    .fil17 {fill:#B3ABB3}
    .fil12 {fill:#D1EAFA}
    .fil16 {fill:#D2D2D4}
    .fil5 {fill:#D98458}
    .fil13 {fill:#EAB32C}
    .fil8 {fill:#EFAF8D}
    .fil4 {fill:#FBA29E}
    .fil14 {fill:#FCC72D}
    .fil2 {fill:#FEFDFA}
    .fil7 {fill:#FFD56C}
   ]]>
  </style>
 </defs>
 <g id="Layer_x0020_1">
  <metadata id="CorelCorpID_0Corel-Layer"/>
  <g id="_117571040">
   <path id="_115092064" class="fil0" d="M5.52177 0.281532l0.0914438 0 0 0.154845 -0.0914438 0 0 -0.154845zm0.225092 -0.0211119l0.084409 0c0.0162076,0 0.0211042,0.00489657 0.0211042,0.0211119l0 0.00703858c0,0.0157838 -0.00556691,0.0154525 -0.0140695,0.0281543 0.00481952,0.0085873 0.00703473,0.00752785 0.00703473,0.0211157 0,0.000188774 -0.0258351,0.0816044 -0.0281389,0.0914977 -0.0220018,0.00182995 -0.0249875,0.00703858 -0.0492392,0.00703858l-0.133644 0 0 -0.140768c0,-0.0308126 0.0633049,-0.0387565 0.0633049,-0.133725l0 -0.0281543 0.0211003 0c0.0258197,0 0.0351736,0.0430482 0.0351736,0.070382l0 0.00703858c0,0.0239743 -0.0042609,0.0276381 -0.00703473,0.0492701zm-0.365775 -0.253381l-0.0140656 0.00703858 0 0.0140772 -0.0140695 0 0 0.534913 0.00703473 0.00703858 0.00703473 0.0140733 0.0140656 0.00703858 0.00703473 0.00703858 0.0211042 0.00703858 0.576798 0 0.0140656 -0.00703858 0.0140695 -0.00703858 0.00703473 -0.00703858 0.00703473 -0.0140733 0.00703088 -0.0211157 0 -0.492681 -0.00703088 -0.0211157 -0.00703473 -0.0140772 -0.00703473 -0.00703858 -0.0140695 -0.00703858 -0.0140656 -0.00703858 -0.597902 0 -0.00703473 0.00703858z"/>
   <polygon id="_115113040" class="fil1" points="6.65426,0.232265 6.65426,0.330802 6.66833,0.33784 6.67537,0.344879 6.75274,0.344879 6.75978,0.33784 6.77384,0.330802 6.77384,0.239304 6.76681,0.225227 6.6613,0.225227 "/>
   <polygon id="_117570536" class="fil2" points="5.52177,0.436377 5.61322,0.436377 5.61322,0.281532 5.52177,0.281532 "/>
   <path id="_117421000" class="fil2" d="M5.74686 0.26042c0.00277382,-0.021632 0.00703473,-0.0252957 0.00703473,-0.0492701l0 -0.00703858c0,-0.0273337 -0.00935395,-0.070382 -0.0351736,-0.070382l-0.0211003 0 0 0.0281543c0,0.0949688 -0.0633049,0.102913 -0.0633049,0.133725l0 0.140768 0.133644 0c0.0242517,0 0.0272374,-0.00520863 0.0492392,-0.00703858 0.00230382,-0.00989331 0.0281389,-0.0913089 0.0281389,-0.0914977 0,-0.0135879 -0.00221521,-0.0125284 -0.00703473,-0.0211157 0.00850254,-0.0127018 0.0140695,-0.0123705 0.0140695,-0.0281543l0 -0.00703858c0,-0.0162153 -0.00489657,-0.0211119 -0.0211042,-0.0211119l-0.084409 0z"/>
   <path id="_117568088" class="fil3" d="M1.1958 1.15428c0,-0.0323151 0.0229495,-0.0633434 0.0562701,-0.0633434l0.00703473 0c0.0319606,0 0.0366915,0.0150287 0.056274,0.0281505 0.0114035,-0.0170359 0.0206111,-0.0281505 0.0492392,-0.0281505l0.0140695 0c0.0169357,0 0.0422007,0.0252803 0.0422007,0.0422276l0 0.0281543c0,0.0206457 -0.0742692,0.0985363 -0.0984746,0.0985363l-0.0211042 0c-0.0248912,0 -0.105509,-0.0806682 -0.105509,-0.105575zm0.0281351 -0.246343l-0.0281351 0.00703858 -0.0140695 0.00703858 -0.00703473 0.00703858 -0.0140695 0.00703858 -0.00703088 0.00703858 -0.0140695 0.00703858 -0.00703473 0.00703858 -0.00703473 0.00703858 -0.00703473 0.00703858 -0.00703473 0.00703858 -0.00703088 0.00703858 -0.00703473 0.00703858 -0.00703473 0.00703473 -0.00703473 0.00703858 -0.00703473 0.0140772 -0.00703473 0.00703858 -0.00703088 0.0140772 -0.00703473 0.0140772 -0.00703473 0.0211157 -0.00703473 0.0140772 -0.00703473 0.0211119 0 0.126691 0.00703473 0.0211157 0.00703473 0.0211157 0.00703473 0.0211157 0.00703473 0.00703473 0.00703088 0.0211157 0.00703473 0.00703858 0.00703473 0.0140772 0.00703473 0.00703858 0.00703473 0.00703858 0.00703473 0.00703858 0.00703088 0.00703858 0.00703473 0.00703858 0.00703473 0.00703858 0.00703473 0.00703858 0.0140695 0.00703473 0.00703473 0.00703858 0.0140656 0.00703858 0.0140695 0.00703858 0.0140695 0.00703858 0.00703088 0.00703858 0.0281389 0.00703858 0.0211003 0.00703858 0.119583 0 0.0211003 -0.00703858 0.0281351 -0.00703858 0.0140695 -0.00703858 0.00703473 -0.00703858 0.0211003 -0.00703858 0.00703473 -0.00703858 0.0140695 -0.00703858 0.00703473 -0.00703473 0.00703088 -0.00703858 0.00703473 -0.00703858 0.00703473 -0.00703858 0.00703473 -0.00703858 0.00703473 -0.00703858 0.00703473 -0.00703858 0.00703473 -0.00703858 0.00703088 -0.0140772 0.00703473 -0.00703858 0.00703473 -0.0140772 0.00703473 -0.0140733 0.00703473 -0.00703858 0.00703473 -0.0281543 0.00703473 -0.0211157 0 -0.140768 -0.00703473 -0.0140733 -0.00703473 -0.0281543 -0.00703473 -0.0140772 -0.00703473 -0.0140772 -0.00703473 -0.00703858 -0.00703473 -0.0140772 -0.00703088 -0.00703858 -0.00703473 -0.00703858 -0.00703473 -0.0140733 -0.0140695 0 0 -0.0140772 -0.00703473 -0.00703858 -0.0140656 -0.00703858 -0.00703473 -0.00703858 -0.00703473 -0.00703858 -0.0140695 -0.00703858 -0.0140656 -0.00703858 -0.00703473 -0.00703858 -0.0140695 -0.00703858 -0.0211003 -0.00703858 -0.0211042 -0.00703858 -0.147714 0 -0.0140695 0.00703858z"/>
   <path id="_117568040" class="fil2" d="M2.96839 1.09798c0.0740534,-0.0514853 0.128902,-0.113388 0.195335,-0.177575 0.0662251,-0.0639906 0.14363,-0.102269 0.219675,-0.153223 0.0226259,-0.0214779 0.0422045,-0.0475133 0.0422045,-0.0914977 0,-0.0671998 -0.0517164,-0.126691 -0.119579,-0.126691l-0.0351698 0c-0.0899914,0 -0.464254,0.305633 -0.464254,0.415261l0 0.0281543c0,0.0767155 0.0777634,0.105571 0.161787,0.105571z"/>
   <path id="_117428296" class="fil2" d="M1.42089 1.13317c0,-0.0169473 -0.0252649,-0.0422276 -0.0422007,-0.0422276l-0.0140695 0c-0.0286282,0 -0.0378357,0.0111146 -0.0492392,0.0281505 -0.0195824,-0.0131217 -0.0243133,-0.0281505 -0.056274,-0.0281505l-0.00703473 0c-0.0333206,0 -0.0562701,0.0310283 -0.0562701,0.0633434 0,0.0249066 0.0806181,0.105575 0.105509,0.105575l0.0211042 0c0.0242055,0 0.0984746,-0.0778905 0.0984746,-0.0985363l0 -0.0281543z"/>
   <polygon id="_117567992" class="fil4" points="6.79495,1.42174 6.78088,1.42878 6.77384,1.43582 6.76681,1.44286 6.75978,1.46397 6.75274,1.47805 6.75274,1.5062 6.75978,1.52028 6.76681,1.53435 6.77384,1.54139 6.78088,1.54843 6.78791,1.55547 6.80198,1.56251 6.81605,1.56955 7.16072,1.56955 7.17479,1.56251 7.18886,1.55547 7.19589,1.54843 7.20293,1.54139 7.20996,1.53435 7.21699,1.52028 7.21699,1.45693 7.20996,1.44989 7.20293,1.44286 7.19589,1.43582 7.18886,1.42878 7.18182,1.42174 7.16775,1.4147 6.80902,1.4147 "/>
   <path id="_117600032" class="fil5" d="M6.14781 1.9285l-0.0281389 0 0 0.00703858c0.00352122,0.0423124 0.0333283,0.0774244 0.0773782,0.0774244l0.0211003 0c0.0470356,0 0.0944757,-0.0433603 0.0984785,-0.0915016l0.0351698 0 0 -0.00703473 -0.0773743 0 0 -0.0211157c-0.0280195,-0.0584275 0.012409,-0.082321 0.0211003,-0.119652l0.0211042 0c0.0164041,0 0.0351698,-0.0187811 0.0351698,-0.0351929l0 -0.0140772c0,-0.0164118 -0.0187657,-0.0351891 -0.0351698,-0.0351891 -0.0214625,0 -0.0283855,0.0067612 -0.0422045,0.0140772l0.0046423 -0.00725432 -0.131761 -0.0850177 -0.062804 0.0359634 0 0.0492701c-0.0126171,0.00456911 -0.0211003,0.00510846 -0.0211003,0.0281505 0,0.0285396 0.00651078,0.0364527 0.0281351,0.0422315 0,0.0501292 0.0251763,0.080699 0.0687446,0.0846595l0.00862968 0.0772202 -0.0211003 0z"/>
   <path id="_117420616" class="fil6" d="M6.17594 1.52731l-0.0281351 0.00703858 -0.0140695 0.00703858 -0.0211042 0.00703858 -0.00703088 0.00703858 -0.00703473 0.00703858 -0.00703473 0.00703858 -0.00703473 0.0140772 -0.00703473 0.00703858 -0.00703088 0.0211119 -0.00703473 0.0351929 -0.00703473 0.0140772 -0.00703473 0.0140772 -0.00703473 0.00703858 -0.00703473 0.00703858 -0.00703088 0.00703858 0 0.0140772 -0.0140695 0 -0.00703473 0.0140733 -0.00703473 0.00703858 -0.00703088 0.0211157 0 0.070382 0.00703088 0.0211157 0.00703473 0.00703858 0.00703473 0.0140772 0.00703473 0.00703858 0.00703473 0.00703858 0.00703088 0.00703858 0.0140695 0.00703858 0.0140695 0.00703858 0.0140656 0.00703858 0.084409 0 0 0.0140733 -0.0140656 0 0 0.00703858 0.0211003 0 -0.00862968 -0.0772202c-0.0435683,-0.00396041 -0.0687446,-0.0345303 -0.0687446,-0.0846595 -0.0216243,-0.0057788 -0.0281351,-0.0136919 -0.0281351,-0.0422315 0,-0.023042 0.00848328,-0.0235814 0.0211003,-0.0281505l0 -0.0492701 0.062804 -0.0359634 0.131761 0.0850177 -0.0046423 0.00725432c0.013819,-0.00731596 0.020742,-0.0140772 0.0422045,-0.0140772 0.0164041,0 0.0351698,0.0187773 0.0351698,0.0351891l0 0.0140772c0,0.0164118 -0.0187657,0.0351929 -0.0351698,0.0351929l-0.0211042 0c-0.00869132,0.0373311 -0.0491198,0.0612245 -0.0211003,0.119652l0.00703473 0.00703858 0.0140656 0.00703858 0.0844129 0 0.0140656 -0.00703858 0.0140695 -0.00703858 0.0140695 -0.00703858 0.00703088 -0.00703858 0.00703473 -0.00703858 0.00703473 -0.0140772 0.00703473 -0.00703858 0.00703473 -0.00703858 0.00703473 -0.0211157 0.00703088 -0.0211119 0 -0.0351929 -0.00703088 -0.0211157 -0.00703473 -0.0211157 -0.00703473 -0.00703858 -0.00703473 -0.00703473 -0.0140695 -0.00703858 -0.00703088 -0.00703858 -0.00703473 -0.00703858 -0.00703473 -0.0140772 -0.00703473 -0.0140772 -0.00703473 -0.0211157 -0.00703473 -0.0351891 -0.00703088 -0.00703858 -0.00703473 -0.0211157 -0.00703473 -0.00703858 -0.00703473 -0.00703858 -0.00703473 -0.00703858 -0.00703473 -0.00703858 -0.00703473 -0.00703858 -0.0140656 -0.00703858 -0.0140695 -0.00703858 -0.0351698 -0.00703858 -0.056274 0 -0.0422045 0.00703858z"/>
   <path id="_117567896" class="fil2" d="M2.77144 1.99888c0.00367532,-0.0157877 0.00703473,-0.0161806 0.00703473,-0.0351929l-0.00240783 -0.020873 -0.0186925 -0.239543c-0.0183727,-0.0383135 -0.030593,-0.0774244 -0.0914438,-0.0774244 -0.0379089,0 -0.084409,0.0379128 -0.084409,0.0774244l0 0.070382c0,0.101414 0.00832533,0.274493 0.105509,0.274493 0.0465617,0 0.0656819,-0.0212814 0.084409,-0.0492662z"/>
   <path id="_117567848" class="fil2" d="M4.94497 1.68216l-0.0492392 0.351914c-0.0020457,0.0157106 0.00326695,0.0190084 0.00703473,0.0351929 0.0162654,0.0307586 0.0383674,0.0563048 0.084409,0.0563048 0.0985671,0 0.126617,-0.21303 0.126617,-0.316721l0 -0.105575c0,-0.0353894 -0.0349772,-0.0703858 -0.0703434,-0.0703858l-0.0422045 0c-0.0238164,0 -0.0459107,0.0337867 -0.056274,0.0492701z"/>
   <path id="_117421240" class="fil0" d="M6.11967 1.93554l-0.0492354 0 -0.0281389 0.00704243 -0.0281351 0.00703473 -0.0140695 0.00703858 -0.0211003 0.00703858 -0.0140695 0.00703858 -0.0140695 0.00703858 -0.0281351 0.00703858 -0.0140695 0.00703858 -0.0211003 0.00703858 -0.0211042 0.00703858 -0.0211003 0.00703858 -0.0140695 0.00703858 0 0.0140733 0.00703473 0.0140772 0.0773743 0.126691 0 0.0140772 0.00703473 0.00703858 0.00703473 0.0140772 0.00703473 0.00703858 0.0211003 0 0.0140695 -0.00703858 0.0211042 -0.00703858 0.0211003 -0.00703858 0.0140695 -0.00703858 0.0211003 -0.00703858 0 0.0774205 0.00703473 0.0492701 0.00703473 0.00703858 0.372806 0.0422276 0.00100166 -0.123994 0.146716 -0.051963 0.0140656 0 0.0211042 -0.00703858 0.00703473 -0.00703858 0 -0.0140772 -0.00703473 -0.0140772 -0.00703473 -0.0140772 -0.0140695 0 0 -0.0140733 -0.00703473 -0.0140772 -0.00703088 -0.0140772 -0.00703473 -0.00703858 -0.00703473 -0.0140772 -0.00703473 -0.00703858 -0.00703473 -0.0140772 -0.00703473 -0.00703858 -0.00703088 -0.00703858 -0.00703473 -0.0140733 -0.00703473 -0.00703858 -0.00703473 -0.0140772 -0.00703473 -0.00703858 -0.00703473 -0.0140772 -0.00703088 -0.00703858 -0.00703473 -0.00703858 -0.00703473 -0.00703858 -0.0140695 -0.00703473 -0.0140656 -0.00704243 -0.0211042 -0.00703858 -0.0211003 -0.00703858 -0.0633087 0 -0.0351698 0c-0.00400278,0.0481413 -0.0514429,0.0915016 -0.0984785,0.0915016l-0.0211003 0c-0.0440499,0 -0.0738569,-0.035112 -0.0773782,-0.0774244z"/>
   <path id="_117599792" class="fil7" d="M3.3834 0.767178c-0.0760452,0.0509536 -0.15345,0.0892324 -0.219675,0.153223 -0.0664331,0.0641871 -0.121282,0.12609 -0.195335,0.177575 0.0211157,0.00700776 -0.00597528,0.0321841 -0.0230613,0.0543477 -0.0148207,0.0192241 -0.0295297,0.0445083 -0.0402474,0.0653043 -0.0270448,0.0524869 -0.0431715,0.0810188 -0.0681899,0.142917 -0.0231191,0.0571986 -0.0326156,0.10237 -0.0505337,0.160585 -0.0107832,0.0350272 -0.0182302,0.16517 -0.0289903,0.182144l0.0186925 0.239543 0.00240783 0.020873c0,0.0190123 -0.00335941,0.0194052 -0.00703473,0.0351929l0.0140695 -0.00703858c0.00274686,0.123366 0.130909,0.334546 0.186998,0.418185 0.0415534,0.0619642 0.0912473,0.10806 0.145468,0.157091 0.0234311,0.0211851 0.161518,0.12404 0.159923,0.128555l0.0281351 0.0211157c0.00913436,-0.00532035 0.262261,0.110776 0.344671,0.112613l0 -0.591222 -0.175853 0c-0.146955,0 -0.246192,-0.0992952 -0.246192,-0.246339l0 -0.0914977c0,-0.0740149 0.0228263,-0.125342 0.0580538,-0.167138 0.0216936,-0.0257388 0.106376,-0.0792043 0.145934,-0.0792043l0.0492392 0c0.115711,0 0.211023,0.11642 0.211023,0.246343l0 0.295609 0.267297 0 0 -0.309686c0,-0.118974 0.103421,-0.232265 0.211023,-0.232265l0.0281389 0c0.133486,0 0.225088,0.114967 0.225088,0.253381l0 0.0844591c0,0.147044 -0.0992374,0.246339 -0.246192,0.246339l-0.175853 0 0 0.59826c0.21538,0 0.443496,-0.163771 0.568449,-0.261734 0.0748625,-0.0586895 0.138791,-0.142051 0.192642,-0.222503 0.0232578,-0.0347383 0.0604,-0.0984823 0.0750166,-0.136087 0.00950035,-0.0244366 0.0474286,-0.140059 0.0642564,-0.146855 -0.00376778,-0.0161845 -0.00908042,-0.0194823 -0.00703473,-0.0351929l0.0492392 -0.351914c-0.0131179,-0.0151058 -0.0354703,-0.169735 -0.0466349,-0.206715 -0.0235505,-0.0780023 -0.034615,-0.117714 -0.0682823,-0.185057 -0.060296,-0.120627 -0.120261,-0.206045 -0.210398,-0.296233 -0.144393,-0.144482 -0.419059,-0.318474 -0.701662,-0.318474l-0.126614 0c-0.0631315,0 -0.166907,0.017452 -0.220777,0.0324692 -0.0382017,0.0106484 -0.174192,0.0666026 -0.187202,0.0590285z"/>
   <path id="_117567776" class="fil7" d="M3.27086 1.89331l0 0.133725c0,0.0898681 0.107204,0.168922 0.211023,0.168922l0.168818 0 0 -0.316725c0,-0.0882616 -0.0937668,-0.182995 -0.175853,-0.182995 -0.11348,0 -0.203988,0.0851372 -0.203988,0.197073z"/>
   <path id="_117428320" class="fil7" d="M4.00241 1.86515l0 0.330802 0.175853 0c0.112895,0 0.203988,-0.084043 0.203988,-0.197073l0 -0.105575c0,-0.104065 -0.0885004,-0.197073 -0.189918,-0.197073 -0.0869132,0 -0.189922,0.0873947 -0.189922,0.168918z"/>
   <polygon id="_117567728" class="fil5" points="5.40923,1.80885 5.40923,1.82996 5.41626,1.837 5.42329,1.84404 5.42329,1.85812 5.41626,1.86515 5.40923,1.87219 5.40219,1.88627 5.40219,1.93554 5.40923,1.94961 5.41626,1.96369 5.42329,1.97073 5.43736,1.97777 5.45143,1.98481 5.50067,1.98481 5.50771,1.98481 5.51474,1.99185 5.52177,1.99888 5.52881,2.00592 5.53584,2.01296 5.54288,2.02 5.54991,2.02703 5.55695,2.03407 5.56398,2.04111 5.57805,2.04111 5.57805,2.05519 5.59212,2.05519 5.59212,2.06927 5.60618,2.0763 5.61322,2.08334 5.62025,2.09038 5.62729,2.09742 5.63432,2.10446 5.64135,2.1115 5.64839,2.11854 5.65542,2.12557 5.66246,2.13261 5.66949,2.13965 5.67652,2.14669 5.69059,2.14669 5.69059,2.16076 5.69763,2.1678 5.70466,2.17484 5.71169,2.18188 5.72576,2.18892 5.7328,2.19596 5.81017,2.19596 5.83127,2.18892 5.86644,2.18188 5.88051,2.17484 5.90865,2.17484 5.91568,2.17484 5.83831,2.04815 5.82424,2.04815 5.80314,2.05519 5.78203,2.06223 5.76796,2.06223 5.76093,2.05519 5.74686,2.04815 5.73983,2.04111 5.72576,2.03407 5.71873,2.02703 5.71169,2.02 5.69763,2.01296 5.69059,2.00592 5.68356,1.99888 5.66949,1.99185 5.66246,1.98481 5.64839,1.97777 5.64135,1.97073 5.63432,1.96369 5.62025,1.95665 5.61322,1.94961 5.59915,1.94258 5.59212,1.93554 5.58508,1.9285 5.57805,1.92146 5.56398,1.91442 5.54991,1.91442 5.54991,1.90035 5.54288,1.87923 5.53584,1.86515 5.52881,1.85812 5.51474,1.85108 5.50771,1.84404 5.49364,1.837 5.47957,1.82996 5.4655,1.82292 5.45143,1.81589 5.4444,1.80885 5.43033,1.80181 5.41626,1.80181 "/>
   <path id="_117567680" class="fil8" d="M1.238 2.51268l0.00703473 -0.00703858 0 -0.0140772 0.0140656 0 0.00703473 -0.00703858 0.00703473 -0.00703858 0.00703473 -0.00703858 0.00703473 -0.0140733 0 -0.014081 -0.00703473 -0.0211119 -0.00703473 -0.00703858 -0.00703473 -0.00703858 -0.00703473 -0.00703858 0 -0.00703858 0 -0.0422276c-0.0124707,-0.0186347 -0.0250222,-0.0351929 -0.056274,-0.0351929l-0.0562701 0c-0.0904383,0 -0.0285319,0.0465348 -0.0914438,0.0633434l0 0.0211157c0,0.041407 0.0138691,0.0785917 0.0282622,0.106419l0.0631816 -0.00788229 0.0492392 0c0.0214586,0 0.0283816,0.0067612 0.0422045,0.0140772z"/>
   <path id="_117420904" class="fil3" d="M5.95789 2.31561l-0.00703473 0.00703858 -0.00703088 0.0422276 -0.00703473 0.0492701 0 0.0563048 0.00703473 0.0140772 0.00703088 0.00703858 0.0140695 0.00703858 0.0492392 0.00703858 0.0492392 0 0.196953 0.0140772 0 -0.0140772 -0.0281351 0c0.00313982,-0.037751 0.0704783,-0.0288979 0.119486,-0.0634397 0.0263899,-0.0186 0.094938,-0.0548832 0.105606,-0.0843667l-0.0211042 0 -0.372806 -0.0422276 -0.0211042 -0.00703858 -0.0773743 0 -0.00703473 0.00703858z"/>
   <path id="_117599528" class="fil3" d="M6.47138 2.56195l0.000354433 -0.0151328 0.013715 0.00809803 0.0914438 0.00703473 0.0492392 0.00703858 0.0914438 0.00703858 0.0492392 0.00703858 0.0914438 0.00703858 0.0211003 0 0.0211042 -0.00703858 0.00703088 -0.00703858 0.00703473 -0.0281505 0.00703473 -0.0492701 0 -0.0774205 -0.00703473 -0.00703858 -0.00703473 -0.00703858 -0.00703088 -0.00703858 -0.056274 -0.00703858 -0.0492392 -0.00703858 -0.0914438 -0.00703858 -0.0422045 0c-0.0592712,0.0397158 -0.0650616,0.0497786 -0.143495,0.0816468 -0.0402397,0.0163463 -0.133999,0.0514776 -0.158917,0.0726164l0.104461 0.00780909 0.00802868 0.0209231z"/>
   <path id="_117567584" class="fil9" d="M1.09732 2.19596l-0.0140695 0.00703858 -0.0211003 0.00703858 -0.00703473 0.00703858 -0.0211042 0.00703858 -0.00703473 0.00703473 -0.0140656 0.00703858 -0.00703473 0.00704243 -0.00703473 0.00703858 -0.0140656 0.00703473 -0.00703473 0.0140772 -0.00703473 0.0140772 0 0.0563048 0.00703473 0.0211157 0.00703473 0.0211157 0 0.00703858 -0.0140695 0.00703858 -0.00703473 0.00703858 0 0.0492701 0.00703473 0.00703473 0.00703473 0.00703858 0.0211003 0.00703858 0.0140695 0 0.00703473 0.0422315 0.00703088 0.0140772 0.00703473 0.0211157 0.00703473 0.00703473 0.00703473 0.0281543 0.00565937 -0.0158917 0.113919 0.0299689 0.00703473 0 0.00703473 -0.00703858 0.0140695 -0.00703858 0.0211003 -0.00703858 0 -0.0140772 0.0140695 0 0.00703473 -0.0140733 0 -0.0422315c-0.0138229,-0.00731596 -0.0207459,-0.0140772 -0.0422045,-0.0140772l-0.0492392 0 -0.0631816 0.00788229c-0.0143931,-0.0278269 -0.0282622,-0.0650115 -0.0282622,-0.106419l0 -0.0211157c0.0629119,-0.0168086 0.00100551,-0.0633434 0.0914438,-0.0633434l0.0562701 0c0.0312518,0 0.0438033,0.0165582 0.056274,0.0351929l0 0.0422276 0.00703473 0 0.00703473 -0.00703858 0.00703473 -0.00703858 0.00703473 -0.00703858 0.00703088 -0.00703858 0.00703473 -0.00703858 0.00703473 -0.0140772 0.00703473 -0.0211119 0 -0.0492701 -0.00703473 -0.0140772 -0.00703473 -0.0140733 -0.00703473 -0.00704243 -0.0140656 -0.00703858 -0.00703473 -0.00703473 -0.0633087 -0.00703858 -0.00703473 -0.00703858 -0.0140656 -0.00703858 -0.00703473 -0.00703858 -0.0211042 -0.00703858 -0.0422045 0 -0.0211003 0.00703858z"/>
   <path id="_117428224" class="fil6" d="M2.31422 2.65345l-0.0211042 0.00703858 -0.0140656 0.00703473 -0.0140695 0.00703858 -0.00703473 0.00703858 -0.00703473 0.00703858 -0.00703088 0.00703858 -0.00703473 0.00703858 -0.00703473 0.00703858 -0.00703473 0.0140772 -0.00703473 0.00703858 -0.00703088 0.0211157 -0.00703473 0.0211119 -0.00703473 0.147806 -0.00703473 0.0140772 -0.00703473 0.0140733 -0.00703473 0.0211196 -0.00703473 0.0140733 0 0.0140772 0.0140695 0.00703858 0.0773743 0 0 0.0140772 0.00703473 -0.0140772 0.084409 0 0 -0.105575c-0.0226413,-0.00188389 -0.0422045,-0.0125978 -0.0422045,-0.0351891 0,-0.0284317 0.0153138,-0.0492701 0.0422045,-0.0492701 0.0258929,0 0.0371384,0.0212621 0.0492392,0.0351929 0.0146743,-0.0549988 0.084409,-0.0173557 0.0871829,-0.135871l0.032396 0.0443735 0.00703473 0 0.00703473 -0.00703858 0 -0.0422315 -0.00703473 -0.0140772 -0.0140695 -0.00703858 -0.00703088 -0.00703858 -0.0140695 -0.00703858 -0.0351698 -0.00703858 -0.00703473 -0.00703473 -0.0211042 -0.00703858 -0.0211003 -0.00704243 -0.0633087 0 -0.0281351 0.00704243z"/>
   <polygon id="_117599384" class="fil7" points="3.6929,2.84348 3.82655,2.85052 3.86893,2.85214 3.9602,2.84348 3.9602,2.23818 3.6929,2.23818 "/>
   <path id="_117567488" class="fil10" d="M5.76796 2.99832l0.00703473 -0.0140772 0.00703473 -0.0281505 0.00703473 -0.0140772 0.00703473 -0.0140772 0.00703473 -0.0281543 0.00703088 -0.0140772 0.00703473 -0.0281505 0.00703473 -0.0140772 0.00703473 -0.0211157 0.00703473 -0.0140772 0.00703473 -0.0211157 0.126614 -0.00703858 0 0.0140772 0.00703473 0.0211157 0.00703473 0.0140772 0.00703473 0.0211157 0.00703088 0.0211119 0.00703473 0.0140772 0.00703473 0.0211157 0.00703473 0.105575 -0.261317 -0.000350581 0.00808647 -0.0137266zm-0.218053 -0.45045l0.302466 0 -0.00703473 0.0281505 -0.00703473 0.0140772 -0.00703473 0.0211157 -0.00703473 0.0140772 -0.00703473 0.0211119 -0.00703473 0.0211157 -0.00703088 0.0140772 -0.00703473 0.0281543 -0.182888 0 -0.00703473 0 0.0281389 0.0774205 0.134608 -0.00691145 -0.00799401 0.0280272 -0.00703473 0.00703858 -0.00703473 0.0281543 -0.00703473 0.0140772 -0.00703473 0.0281505 -0.00703473 0.0140772 -0.00703473 0.0140772 -0.00703088 0.0211157 -0.00703473 0.0140733 -0.00703473 0.014081 0.0492392 0.126687 0 -0.0140772 0.267297 0 0 0.0985401 0.0211003 -0.457492 -0.00703088 0 -0.00703473 0.0211157 0 -0.0281543 -0.00703473 -0.0140772 -0.00703473 -0.0140772 -0.00703473 -0.0281505 -0.00703088 -0.014081 -0.00703473 -0.0211119 -0.00703473 -0.0140772 -0.00703473 -0.0281543 -0.00703473 -0.0140772 -0.00703473 -0.0211157 -0.00703473 -0.0211119 -0.00703088 -0.0140772 -0.00703473 -0.0211157 -0.0140695 -0.00703858 -0.443149 0 0 0.00703858 0.040702 0.000616406 0.0296414 0.0627308z"/>
   <polygon id="_117421120" class="fil1" points="7.09038,2.82237 7.08334,2.82941 7.07631,2.83644 7.07631,2.87867 7.08334,2.88571 7.09038,2.89275 7.11148,2.89979 7.13962,2.89979 7.46318,2.89275 7.47022,2.88571 7.47725,2.87867 7.48429,2.8646 7.48429,2.84348 7.47725,2.82941 7.47022,2.82237 7.46318,2.81533 7.09741,2.81533 "/>
   <path id="_117567440" class="fil4" d="M1.04808 2.5901l0 0.0351929 -0.0140695 0 -0.0351698 0.00703858 -0.0492392 0.00703473 -0.0281351 0.00703858 -0.0351698 0.00704243 -0.0140695 0.00703858 -0.0140695 0.00703473 -0.00703088 0.00703858 -0.00703473 0.00703858 -0.00703473 0.00703858 -0.00703473 0.00703858 -0.00703473 0.00703858 -0.00703473 0.0140772 -0.00703088 0.00703858 -0.00703473 0.0140772 -0.00703473 0.0140772 -0.00703473 0.0140772 -0.00703473 0.0211119 -0.00703473 0.0140772 -0.00703473 0.0351929 -0.00703088 0.0211157 -0.00703473 0.0351891 0 0.0844591 0.0140656 0 0.0211042 0 0 0.147806 0.00703473 0.0351929 0.00703473 0.0140772 0.00703473 0.0140733 0.00703088 0.00703858 0.00703473 0.00703858 0.0140695 0.00703858 0.00703473 0.00703858 0.0281351 0 0 0.0774205 0.0140695 0 0.232123 -0.0140733 -0.0633049 -0.0140772c-0.00263128,-0.00497362 -0.0211042,-0.0345611 -0.0211042,-0.0351929 0,-0.0451132 0.107062,-0.264854 0.112987,-0.334959l0.224653 0.0252726 0 -0.070382 -0.00703473 -0.0422315 -0.00703473 -0.0140772 -0.00703473 -0.0281505 -0.00703473 -0.00703858 -0.00703088 -0.014081 -0.00703473 -0.0140733 -0.00703473 -0.0140772 -0.00703473 -0.00703858 -0.00703473 -0.00703858 -0.00703473 -0.00703858 -0.0140656 -0.00703858 -0.0140695 -0.00703858 -0.00703473 -0.00703858 -0.0281351 -0.00703858 -0.00703473 -0.00703473 -0.0211042 -0.00703858 -0.0140656 -0.00704243 -0.0140695 -0.00703858 -0.0140695 0 0 -0.0351891 -0.113919 -0.0299689 -0.00565937 0.0158917z"/>
   <path id="_117599144" class="fil11" d="M1.11842 3.27986l0.188928 0.0142659 0.00802868 0.0209231 0.00703473 -0.00703858 0.00703473 0 0.0140656 -0.00703858 0.00703473 -0.00703858 0.00703473 -0.0140733 0.00703473 -0.0140772 0.00703473 -0.0281543 0.00703473 -0.0140772 0.00703088 -0.0281543 0.00703473 -0.0140772 0.00703473 -0.0211119 0 -0.0211157 0.0140695 0 0.00703088 -0.00703858 0.00703473 -0.0140772 0.00703473 -0.0211157 0.00703473 -0.0211157 0 -0.0351891 0 -0.00703858 0.00703473 -0.0140772 0.00703473 -0.0281543 0.00703088 -0.0140772 0 -0.0140733 -0.00703088 -0.014081 -0.00703473 -0.0140733 -0.00703473 -0.00703858 -0.0140695 -0.00703858 -0.0562701 0 -0.224653 -0.0252726c-0.0059252,0.0701046 -0.112987,0.289845 -0.112987,0.334959 0,0.000631816 0.0184729,0.0302193 0.0211042,0.0351929l0.0633049 0.0140772z"/>
   <path id="_117421192" class="fil8" d="M2.25795 3.01944l-0.00703473 0.00703858 -0.00703088 0.0140772 -0.00703473 0.0140772c0.0398198,0.0346304 0.0870634,0.0563048 0.161783,0.0563048l0 -0.0140772 -0.00703473 -0.00703858 -0.00703473 -0.00703858 0 -0.0140733 0.00703473 -0.0211157 0.00703473 -0.0140772 0.00703473 -0.0140772 0 -0.0140772 0.133648 0 0 -0.0211157 -0.00703473 -0.0281505 -0.00703473 -0.0563086 0.0140695 0 0 -0.0211157 -0.00703473 -0.00703858 -0.00703473 -0.0351891 -0.00703473 -0.0774205 -0.032396 -0.0443735c-0.00277382,0.118516 -0.0725086,0.0808724 -0.0871829,0.135871 -0.0121008,-0.0139308 -0.0233464,-0.0351929 -0.0492392,-0.0351929 -0.0268907,0 -0.0422045,0.0208384 -0.0422045,0.0492701 0,0.0225913 0.0195632,0.0333052 0.0422045,0.0351891l0 0.105575 -0.084409 0 -0.00703473 0.0140772z"/>
   <path id="_117576728" class="fil12" d="M2.98949 2.90683c-0.0289017,-0.00240783 -0.0157106,-0.00703858 -0.0422045,-0.00703858 -0.0115114,0 -0.0211003,0.00421467 -0.0211003,0.0140772 0,0.0242633 0.00520092,0.0272528 0.00714645,0.0495166l-0.0352854 0.0138267 0 0.0281543c0,0.0212814 0.0082791,0.019463 0.0281389,0.0211157 0.00451517,0.0188736 0.00703473,0.0132681 0.00703473,0.0281543 0,0.00420312 -0.00970839,0.0146011 -0.0140695,0.0211119 0.00531265,0.00794007 0.0165197,0.0281543 0.0281351,0.0281543 0.0157723,0 0.015441,-0.00557077 0.0281389,-0.0140772 0.0429134,0.0227222 0.0200794,0.0422315 0.0492392,0.0422315l0.00703473 0c0.0233926,0 0.0205957,-0.0126363 0.021605,-0.0338792l0.0208037 -0.00873755 0.029495 0.0160265 0.0269562 -0.0299226 -0.0140695 -0.0277999 0.00701161 -0.0198251 0.0348077 -0.00847558 0 -0.0211157c0,-0.0282506 -0.0224834,-0.0119775 -0.0422045,-0.0492701 0.00393729,-0.00566323 0.0140695,-0.0173749 0.0140695,-0.0211119 0,-0.0188235 -0.0101553,-0.0208191 -0.0212159,-0.0287707l-0.0491237 0.00765499c-0.00884157,-0.0184344 -0.00809032,-0.0422276 -0.0351698,-0.0422276 -0.0270833,0 -0.0263321,0.0237933 -0.0351736,0.0422276z"/>
   <path id="_117599024" class="fil8" d="M2.70813 3.11094l-0.00703473 0.00703858 -0.00703473 0.00703858 -0.00703473 0.0140772 -0.00703088 0.00703858 -0.00703473 0.00703858 -0.00703473 0.0140772 -0.00703473 0.0140733 -0.00703473 0.00703858 -0.00703473 0.00703858 -0.00703088 0.0140772 -0.00703473 0.0140772 -0.00703473 0.00703858 -0.00703473 0.0140772 -0.00703473 0.00703858 -0.0140656 0 -0.00703473 -0.00703858 -0.0140695 -0.00703858 -0.00703473 -0.00703858 -0.00703473 -0.00703858 -0.0140656 -0.00703858 -0.00703473 -0.00703858 -0.0140695 -0.00703858 -0.00703473 -0.00703858 -0.00703473 -0.00703858 -0.00703088 -0.00703858 -0.00703473 -0.00703473 -0.00703473 0 -0.0197866 0.049089 0.00571716 0.0564859c-0.00783991,-0.00525486 -0.0236584,-0.0211157 -0.0281351,-0.0211157 -0.0126902,0 -0.0914438,0.0750435 -0.0914438,0.0985363 0,0.0034249 0.0800326,0.0961785 0.0914438,0.112613l0.0140656 0.00703858 0.00703473 0.00703858 0.00703473 0.00703473 0.0140695 0.00703858 0.00703473 0.00703858 0.0140656 0.00703858 0.0351736 0 0.0211003 -0.00703858 0.00703473 -0.00703858 0.0140695 -0.00703858 0.00703473 -0.0140733 0.0140656 -0.00703858 0 -0.0140772 0.0140695 0 0 -0.0140772 0.0140695 0 0.00703088 -0.0140772 0.00703473 -0.00703858 0.00703473 -0.00703858 0.00703473 -0.00703858 0.00703473 -0.00703858 0.00703473 -0.0140772 0.00703088 -0.00703473 0.00703473 -0.00703858 0.00703473 -0.0140772 0.00703473 -0.00703858 0.00703473 -0.00703858 0.00703088 -0.00703858 0.00703473 -0.0140772 0.00703473 -0.00703858 0.00703473 -0.0140772 0 -0.00703858c0.0208384,-0.0394037 0.036079,-0.0629389 0.0685713,-0.0932699 0.0230882,-0.0215549 0.0786187,-0.0543516 0.0858191,-0.0841201l-0.034118 0.0088955 0.0194206 -0.0445045 -0.0351659 0.015491 0.0179258 -0.040521 -0.00690759 -0.00542822 -0.0520516 0.0464731 0.0209154 -0.0493548c-0.0325154,0.00355589 -0.0370652,0.0332898 -0.0492508,0.0563202l-0.0351582 -0.0211312 0 0.084463c0,0.0213854 -0.012201,0.0238934 -0.0274647,0.0281351l-0.00770507 -0.0844437z"/>
   <path id="_117420976" class="fil13" d="M2.22278 3.06167l-0.00703473 0.00703858 -0.00703088 0.0140733 -0.00703473 0.00703858 -0.00703473 0.0211157 -0.00703473 0.00703858 -0.00703473 0.0140772 -0.00703473 0.0281543 -0.00703473 0.0211119 -0.00703088 0.0563086 0 0.0985363 0.00703088 0.0633434 0.00703473 0.0211157 0.00703473 0.0422315 0.00703473 0.0211157 0.00703473 0.0140733 0.00703473 0.0140772 0.224541 0.0563164 0.00758179 0.119644 0.00703473 -0.140768 0.00703473 -0.0351929 0 -0.0422276c-0.0114112,-0.0164349 -0.0914438,-0.109189 -0.0914438,-0.112613 0,-0.0234928 0.0787535,-0.0985363 0.0914438,-0.0985363 0.00447665,0 0.0202952,0.0158609 0.0281351,0.0211157l-0.00571716 -0.0564859 0.0197866 -0.049089 -0.00703473 -0.00703858 -0.00703473 -0.00703858 -0.00703473 -0.00703858 -0.00703473 -0.00703858 -0.0140656 0 0 -0.0140772 -0.0140695 -0.00703858 -0.00703473 -0.00703858 -0.00703473 -0.00703858 -0.0211003 0c-0.0747199,0 -0.121964,-0.0216744 -0.161783,-0.0563048l-0.00703473 0 -0.00703473 0.00703858z"/>
   <path id="_117576848" class="fil0" d="M2.98949 2.90683c0.00884157,-0.0184344 0.00809032,-0.0422276 0.0351736,-0.0422276 0.0270795,0 0.0263282,0.0237933 0.0351698,0.0422276l0.0491237 -0.00765499c0.0110606,0.00795163 0.0212159,0.00994724 0.0212159,0.0287707 0,0.00373696 -0.0101322,0.0154487 -0.0140695,0.0211119 0.0197211,0.0372925 0.0422045,0.0210194 0.0422045,0.0492701l0 0.0211157 -0.0348077 0.00847558 -0.00701161 0.0198251 0.0140695 0.0277999 -0.0269562 0.0299226 -0.029495 -0.0160265 -0.0208037 0.00873755c-0.00100936,0.0212429 0.00178758,0.0338792 -0.021605,0.0338792l-0.00703473 0c-0.0291598,0 -0.00632586,-0.0195092 -0.0492392,-0.0422315 -0.012698,0.0085064 -0.0123666,0.0140772 -0.0281389,0.0140772 -0.0116154,0 -0.0228224,-0.0202142 -0.0281351,-0.0281543 0.00436107,-0.00651078 0.0140695,-0.0169088 0.0140695,-0.0211119 0,-0.0148862 -0.00251956,-0.00928076 -0.00703473,-0.0281543 -0.0198598,-0.00165274 -0.0281389,0.000165659 -0.0281389,-0.0211157l0 -0.0281543 0.0352854 -0.0138267c-0.00194553,-0.0222638 -0.00714645,-0.0252534 -0.00714645,-0.0495166 0,-0.00986249 0.00958896,-0.0140772 0.0211003,-0.0140772 0.0264939,0 0.0133028,0.00463075 0.0422045,0.00703858zm-0.225092 -0.21115l-0.0140656 0.00703858 -0.00703473 0.00703858 -0.00703473 0.00703858 -0.00703473 0.00703858 -0.00703473 0.0140772 -0.00703088 0.00703473 -0.00703473 0.0351929 0 0.330802 0.00770507 0.0844437c0.0152637,-0.00424164 0.0274647,-0.00674964 0.0274647,-0.0281351l0 -0.084463 0.0351582 0.0211312c0.0121856,-0.0230305 0.0167354,-0.0527643 0.0492508,-0.0563202l-0.0209154 0.0493548 0.0520516 -0.0464731 0.00690759 0.00542822 -0.0179258 0.040521 0.0351659 -0.015491 -0.0194206 0.0445045 0.034118 -0.0088955c-0.00720039,0.0297685 -0.0627308,0.0625652 -0.0858191,0.0841201 -0.0324923,0.030331 -0.0477329,0.0538661 -0.0685713,0.0932699l0.0211003 0.00703858 0.00703473 0.00703858 0.0281389 0.00703858 0.330601 0c0.0343608,-0.0218131 0.203988,0.0213893 0.203988,-0.0914977l0 -0.443415c0,-0.0266056 -0.0171592,-0.046947 -0.0281351,-0.0633434l-0.0281351 -0.0211157 -0.436115 -0.00703858 -0.0492392 0 -0.0281389 0.00703858z"/>
   <path id="_117576896" class="fil2" d="M3.27086 1.89331c0,-0.111935 0.0905076,-0.197073 0.203988,-0.197073 0.082086,0 0.175853,0.0947338 0.175853,0.182995l0 0.316725 -0.168818 0c-0.103818,0 -0.211023,-0.079054 -0.211023,-0.168922l0 -0.133725zm0.731546 -0.0281543c0,-0.0815235 0.103009,-0.168918 0.189922,-0.168918 0.101418,0 0.189918,0.0930079 0.189918,0.197073l0 0.105575c0,0.11303 -0.0910932,0.197073 -0.203988,0.197073l-0.175853 0 0 -0.330802zm-0.351706 0.964251l0 0.626411 0.0422045 0 0 -0.612333 0 -0.605299 0.267297 0 0 0.605299 0 0.612333 0.0422045 0 0 -0.619372 0 -0.59826 0.175853 0c0.146955,0 0.246192,-0.0992952 0.246192,-0.246339l0 -0.0844591c0,-0.138414 -0.0916017,-0.253381 -0.225088,-0.253381l-0.0281389 0c-0.107601,0 -0.211023,0.113291 -0.211023,0.232265l0 0.309686 -0.267297 0 0 -0.295609c0,-0.129923 -0.0953117,-0.246343 -0.211023,-0.246343l-0.0492392 0c-0.0395578,0 -0.12424,0.0534655 -0.145934,0.0792043 -0.0352276,0.0417961 -0.0580538,0.0931235 -0.0580538,0.167138l0 0.0914977c0,0.147044 0.0992374,0.246339 0.246192,0.246339l0.175853 0 0 0.591222z"/>
   <polygon id="_117428368" class="fil14" points="3.6929,3.45582 3.9602,3.45582 3.9602,2.84348 3.86893,2.85214 3.82655,2.85052 3.6929,2.84348 "/>
   <path id="_117577064" class="fil14" d="M3.13018 3.31505l0 0.0140772 0.00703473 0.0281543 0.00703473 0.0140772 0.00703473 0.0140733 0.00703088 0.00703858 0.00703473 0.0140772 0.0140695 0.00703858 0.00703473 0.0140772 0.0140656 0.00703858 0.00703473 0.00703858 0.0211042 0.00703858 0.0140656 0.00703858 0.0351736 0 0.372806 0 0 -0.626411c-0.0824096,-0.00183766 -0.335537,-0.117934 -0.344671,-0.112613 0.0109759,0.0163964 0.0281351,0.0367378 0.0281351,0.0633434l0 0.443415c0,0.112887 -0.169627,0.0696846 -0.203988,0.0914977z"/>
   <path id="_117577136" class="fil14" d="M3.6507 0.239304l-0.0422045 0.00703858 -0.0633049 0.00703858 -0.0281389 0.00703858 -0.0281351 0.00703858 -0.0422045 0.00703473 -0.0211042 0.00703858 -0.0281351 0.00703858 -0.0211003 0.00703858 -0.0281389 0.00703858 -0.0211003 0.00703858 -0.0140695 0.00703858 -0.0281351 0.00703858 -0.0140695 0.00703858 -0.0281389 0.00703858 -0.0140656 0.00703858 -0.0211042 0.00703858 -0.0140656 0.00703858 -0.0140695 0.00703858 -0.0140695 0.00703858 -0.0140656 0.00703473 -0.0211042 0.00703858 -0.00703473 0.00703858 -0.0211003 0.00703858 -0.00703473 0.00703858 -0.0211003 0.00703858 -0.00703473 0.00703858 -0.0140695 0.00703858 -0.0140695 0.00703858 -0.0140656 0.00703858 -0.0140695 0.00703858 -0.00703473 0.00703858 -0.0140695 0.00703858 -0.00703088 0.00703858 -0.0140695 0.00703858 -0.00703473 0.00703473 -0.0140695 0.00703858 -0.0140656 0.00703858 -0.00703473 0.00703858 -0.0140695 0.00703858 0 0.0140772 -0.0140695 0 -0.00703088 0.00703858 -0.0140695 0.00703858 -0.00703473 0.00703858 -0.00703473 0.00703858 -0.0140656 0.00703858 -0.00703473 0.00703858 -0.00703473 0.00703858 -0.00703473 0.00703473 -0.0140695 0.00703858 -0.00703473 0.00703858 -0.00703088 0.00703858 -0.00703473 0.00703858 -0.00703473 0.00703858 -0.0140695 0.00703858 -0.00703473 0.00703858 -0.00703088 0.00703858 -0.00703473 0.00703858 0 0.0140772 -0.0140695 0 -0.00703473 0.00703858 -0.00703473 0.00703858 -0.00703088 0.00703858 -0.00703473 0.00703473 -0.00703473 0.00703858 0 0.0140772 -0.0140695 0 0 0.0140772 -0.0140656 0 -0.00703473 0.00703858 -0.00703473 0.0140772 -0.00703473 0.00703858 -0.00703473 0.00703858 -0.00703088 0.00703858 -0.00703473 0.0140772 -0.00703473 0.00703473 -0.00703473 0.00703858 -0.00703473 0.00703858 -0.00703473 0.00703858 -0.00703088 0.0140772 -0.00703473 0.00703858 -0.00703473 0.00703858 -0.00703473 0.0140772 -0.00703473 0.00703858 0 0.0140772 -0.0140695 0 -0.00703088 0.0140772 -0.00703473 0.0140733 -0.00703473 0.0140772 -0.00703473 0.00703858 -0.00703473 0.0140772 -0.00703473 0.00703858 -0.00703088 0.00703858 -0.00703473 0.0140772 -0.00703473 0.0140772 -0.00703473 0.0140772 -0.00703473 0.00703473 -0.00703473 0.0211157 -0.00703473 0.00703858 -0.00703088 0.0140772 -0.00703473 0.0211157 -0.00703473 0.00703858 -0.00703473 0.0211157 -0.00703473 0.0140733 -0.00703473 0.0211157 -0.00703088 0.0140772 -0.00703473 0.0140772 -0.00703473 0.0211157 -0.00703473 0.0140772 -0.00703473 0.0281505 -0.00703473 0.0140772 -0.00703473 0.0281543 -0.00703088 0.0211157 -0.00703473 0.0351891 -0.00703473 0.0211157 -0.00703473 0.0281543 -0.00703473 0.0492662 -0.00703473 0.0281543 -0.00703088 0.0844591 0 0.204111 0.00703088 0.084463 0.00703473 0.0351891 0.00703473 0.0492701 0.00703473 0.0211119 0.00703473 0.0211196 0.00703473 0.0351891 0.00703088 0.0211157 0.00703473 0.0281505 0.00703473 0.0211157 0.00703473 0.0211157 0.00703473 0.0140772 0.00703473 0.0211157 0.00703473 0.0211119 0.00703088 0.0140772 0.00703473 0.0211157 0.00703473 0.0140772 0.00703473 0.0140772 0.00703473 0.0140772 0.00703473 0.0140772 0.00703088 0.0140733 0.00703473 0.014081 0.00703473 0.0140733 0.00703473 0.00703858 0.00703473 0.0211157 0.00703473 0.00703858 0.00703473 0.0140772 0.00703088 0.00703858 0.00703473 0.0140772 0.00703473 0.0140733 0.00703473 0.00704243 0.00703473 0.0140733 0.00703473 0.00703858 0.00703088 0.0140772 0.00703473 0.00703858 0.00703473 0.00703858 0.00703473 0.0140772 0.00703473 0.00703858 0.00703473 0.0140733 0.00703473 0.00703858 0.00703088 0.014081 0.0140695 0 0 0.0140733 0.00703473 0.00703858 0.00703473 0.00703858 0.00703473 0.00703858 0.00703088 0.00703858 0.00703473 0.0140772 0.00703473 0.00703858 0.00703473 0.00703858 0.00703473 0.00703858 0.00703473 0.00703473 0.00703088 0.00704243 0.00703473 0.00703858 0.00703473 0.00703473 0.00703473 0.00703858 0.00703473 0.00703858 0.00703088 0.00703858 0.00703473 0.00703858 0.00703473 0.00703858 0.00703473 0.00703858 0.00703473 0.00703858 0.00703473 0.00703858 0.00703088 0.00703858 0.00703473 0.00703858 0.00703473 0.00703473 0.00703473 0.00703858 0.0140695 0.00704243 0.00703088 0.00703858 0.00703473 0.00703473 0.00703473 0.00703858 0.00703473 0.00703858 0.0140695 0.00703858 0.436115 0.00703858c0.00159495,-0.00451517 -0.136491,-0.10737 -0.159923,-0.128555 -0.0542206,-0.0490312 -0.103914,-0.0951268 -0.145468,-0.157091 -0.0560891,-0.0836385 -0.184251,-0.294819 -0.186998,-0.418185l-0.0140695 0.00703858c-0.0187272,0.0279848 -0.0378473,0.0492662 -0.084409,0.0492662 -0.097184,0 -0.105509,-0.173079 -0.105509,-0.274493l0 -0.070382c0,-0.0395116 0.0465001,-0.0774244 0.084409,-0.0774244 0.0608508,0 0.073071,0.0391109 0.0914438,0.0774244 0.0107601,-0.0169743 0.0182071,-0.147117 0.0289903,-0.182144 0.0179181,-0.0582157 0.0274146,-0.103387 0.0505337,-0.160585 0.0250184,-0.0618987 0.0411451,-0.0904305 0.0681899,-0.142917 0.0107178,-0.020796 0.0254267,-0.0460802 0.0402474,-0.0653043 0.017086,-0.0221636 0.044177,-0.0473399 0.0230613,-0.0543477 -0.0840238,0 -0.161787,-0.0288555 -0.161787,-0.105571l0 -0.0281543c0,-0.109628 0.374262,-0.415261 0.464254,-0.415261l0.0351698 0c0.0678624,0 0.119579,0.0594908 0.119579,0.126691 0,0.0439844 -0.0195786,0.0700198 -0.0422045,0.0914977 0.01301,0.00757408 0.149001,-0.0483801 0.187202,-0.0590285 0.05387,-0.0150172 0.157646,-0.0324692 0.220777,-0.0324692l0.126614 0c0.282603,0 0.557269,0.173992 0.701662,0.318474 0.0901378,0.0901878 0.150102,0.175606 0.210398,0.296233 0.0336673,0.0673423 0.0447318,0.107054 0.0682823,0.185057 0.0111646,0.0369805 0.0335171,0.19161 0.0466349,0.206715 0.0103633,-0.0154833 0.0324576,-0.0492701 0.056274,-0.0492701l0.0422045 0c0.0353663,0 0.0703434,0.0349964 0.0703434,0.0703858l0 0.105575c0,0.103691 -0.0280503,0.316721 -0.126617,0.316721 -0.0460416,0 -0.0681436,-0.0255462 -0.084409,-0.0563048 -0.0168279,0.00679587 -0.0547561,0.122418 -0.0642564,0.146855 -0.0146165,0.0376046 -0.0517588,0.101349 -0.0750166,0.136087 -0.0538507,0.0804525 -0.11778,0.163814 -0.192642,0.222503 -0.124953,0.0979623 -0.353069,0.261734 -0.568449,0.261734l0 0.619372 0.37281 0 0.0422007 0 0.0140695 -0.00703858 0.0211042 -0.00703858 0.00703088 -0.00703858 0.0140695 -0.00703858 0.00703473 -0.00703858 0.00703473 -0.00703858 0.00703473 -0.00703858 0.00703473 -0.00703858 0.00703088 -0.00703858 0.00703473 -0.0140733 0.00703473 -0.0140772 0.00703473 -0.0140772 0.00703473 -0.253381 0.00703473 -0.0351891 0.00703088 -0.0351929 0.00703473 -0.0351929 0.00703473 -0.0140772 0.00703473 -0.0211119 0.00703473 -0.0140772 0.00703473 -0.0211157 0.00703473 -0.0140772 0.00703088 -0.00703858 0.00703473 -0.0140772 0.00703473 -0.00703858 0 -0.0211119 0.0140695 0 0.00703473 -0.0140772 0.00703088 -0.00703858 0.00703473 -0.00703858 0.00703473 -0.0140772 0.00703473 -0.00703858 0.00703473 -0.00703858 0.0140695 -0.00703858 0.00703088 -0.00703858 0.00703473 -0.00703858 0.00703473 -0.00703858 0.0140695 -0.00703473 0.00703473 -0.00703858 0.00703088 -0.00703858 0.0140695 -0.00704243 0.00703473 -0.00703473 0.0140695 -0.00703858 0.00703088 -0.00703858 0.0140695 -0.00703858 0.00703473 -0.00703858 0.00703473 -0.00703858 0.0140656 -0.00703858 0.00703473 -0.00703858 0.00703473 -0.00703858 0.00703473 -0.00703858 0.0140656 -0.00703858 0 -0.0140733 0.0140695 0 0.00703473 -0.00704243 0.00703473 -0.00703858 0.00703473 -0.00703473 0.00703088 -0.00703858 0.00703473 -0.00703858 0.00703473 -0.00703858 0.00703473 -0.00703858 0.00703473 -0.00703858 0.00703473 -0.00703858 0.00703473 -0.00703858 0.00703088 -0.00703858 0.00703473 -0.00703858 0.00703473 -0.00703858 0.00703473 -0.00703473 0.00703473 -0.00703858 0.00703473 -0.00704243 0.00703088 -0.00703473 0.00703473 -0.00703858 0.00703473 -0.00703858 0.00703473 -0.00703858 0.00703473 -0.00703858 0 -0.0140772 0.0140695 0 0.00703088 -0.0140772 0.00703473 -0.00703858 0.00703473 -0.00703858 0.00703473 -0.0140733 0.00703473 -0.00704243 0.00703473 -0.00703858 0.00703088 -0.0140733 0.00703473 -0.00703858 0.00703473 -0.00703858 0.00703473 -0.00703858 0.00703473 -0.0140772 0.00703473 -0.00703858 0.00703473 -0.0140772 0.00703088 -0.00703858 0.00703473 -0.0140772 0.00703473 -0.0140733 0.00703473 -0.00703858 0.00703473 -0.0140772 0.00703473 -0.00703858 0.00703088 -0.0140772 0.00703473 -0.0140772 0.00703473 -0.0140772 0.00703473 -0.0140733 0.00703473 -0.00704243 0.00703473 -0.0211119 0.00703088 -0.00703858 0.00703473 -0.0211157 0.00703473 -0.00703858 0.00703473 -0.0211157 0.00703473 -0.0140733 0.00703088 -0.0211196 0.00703473 -0.0140733 0.00703473 -0.0140772 0.00703473 -0.0281543 0.00703473 -0.0140772 0.00703088 -0.0281543 0.00703473 -0.0140733 0.00703473 -0.0351929 0.00703473 -0.0140772 0.00703473 -0.0281543 0.00703473 -0.0351891 0.00703473 -0.0281543 0.00703088 -0.0563048 0.00703473 -0.0492701 0 -0.274493 -0.00703473 -0.0422315 -0.00703088 -0.0563048 -0.00703473 -0.0281543 -0.00703473 -0.0422315 -0.00703473 -0.0211119 -0.00703473 -0.0211157 -0.00703473 -0.0281543 -0.00703473 -0.0211157 -0.00703088 -0.0281543 -0.00703473 -0.0140733 -0.00703473 -0.0211157 -0.00703473 -0.0140772 -0.00703473 -0.0140772 -0.00703088 -0.0281543 -0.00703473 -0.00703858 -0.00703473 -0.0211119 -0.00703473 -0.0140772 -0.00703473 -0.0211157 -0.00703088 -0.00703858 -0.00703473 -0.0140772 -0.00703473 -0.0140772 -0.00703473 -0.00703858 -0.00703473 -0.0211119 -0.00703473 -0.00703858 -0.00703088 -0.0140772 -0.00703473 -0.0140772 -0.00703473 -0.0140772 -0.00703473 -0.00703858 -0.00703473 -0.00703858 -0.00703473 -0.0140772 -0.00703088 -0.00703858 -0.00703473 -0.0140733 -0.00703473 -0.00703858 -0.00703473 -0.0140772 -0.00703473 -0.0140772 -0.0140695 0 0 -0.0140772 -0.00703088 -0.00703858 -0.00703473 -0.0140772 -0.00703473 -0.00703858 -0.00703473 -0.00703858 -0.00703473 -0.0140772 -0.00703473 -0.00703473 -0.00703088 -0.00703858 -0.00703473 -0.00703858 -0.00703473 -0.00703858 -0.00703473 -0.00703858 -0.00703473 -0.0140772 -0.00703473 -0.00703858 -0.00703473 -0.00703858 -0.00703088 -0.00703858 -0.00703473 -0.00703858 -0.00703473 -0.00703858 -0.00703473 -0.00703858 -0.00703473 -0.00703858 -0.00703473 -0.00703473 -0.00703088 -0.00703858 -0.00703473 -0.00703858 -0.00703473 -0.00703858 -0.00703473 -0.00703858 -0.00703473 -0.00703858 -0.00703473 -0.00703858 -0.00703473 -0.00703858 -0.00703088 -0.00703858 -0.0140695 0 0 -0.0140772 -0.0140695 -0.00703858 -0.00703473 -0.00703858 -0.00703088 -0.00703858 -0.00703473 -0.00703858 -0.00703473 -0.00703473 -0.0140695 -0.00703858 -0.00703473 -0.00703858 -0.00703088 -0.00703858 -0.0140695 -0.00703858 -0.00703473 -0.00703858 -0.00703473 -0.00703858 -0.00703088 -0.00703858 -0.0140695 -0.00703858 -0.00703473 -0.00703858 -0.0140695 -0.00703858 -0.00703088 -0.00703858 -0.0140695 -0.00703858 -0.00703473 -0.00703858 -0.0140695 -0.00703473 -0.0140656 -0.00703858 -0.00703473 -0.00703858 -0.0140695 -0.00703858 -0.00703473 -0.00703858 -0.0140656 -0.00703858 -0.0140695 -0.00703858 -0.0140695 -0.00703858 -0.00703473 -0.00703858 -0.0140656 -0.00703858 -0.0140695 -0.00703858 -0.0140695 -0.00703858 -0.0140656 -0.00703858 -0.0140695 -0.00703858 -0.0211042 -0.00703858 -0.00703088 -0.00703473 -0.0211042 -0.00703858 -0.0140695 -0.00703858 -0.0140656 -0.00703858 -0.0211042 -0.00703858 -0.0140695 -0.00703858 -0.0281351 -0.00703858 -0.0140656 -0.00703858 -0.0211042 -0.00703858 -0.0211003 -0.00703858 -0.0140695 -0.00703858 -0.0351698 -0.00703858 -0.0140695 -0.00703858 -0.0351698 -0.00703858 -0.0211042 -0.00703858 -0.0422045 -0.00703473 -0.0281351 -0.00703858 -0.0281389 -0.00703858 -0.0562701 -0.00703858 -0.0492392 -0.00703858 -0.126614 -0.00703858 -0.105513 0 -0.126614 0.00703858z"/>
   <path id="_117420544" class="fil13" d="M6.19705 3.56843l0.00703088 -0.119652 0.00703473 0 0.00703473 0.0140772 0.00703473 0.0281505 0.00703473 0.0140772 0.00703473 0.0211157 0.00703088 0.0140772 0.00703473 0.0281543 0.00703473 0.0140772 0.00703473 0.0211119 -0.0782989 -8.86083e-005 0.00795934 -0.0351004zm0.239158 -1.21059l0.0211042 0c-0.0106677,0.0294834 -0.0792158,0.0657666 -0.105606,0.0843667 -0.0490081,0.0345418 -0.116347,0.0256887 -0.119486,0.0634397l0.0281351 0 0 0.0140772 -0.196953 -0.0140772 -0.00703473 0.0211157 -0.00703473 0.0281543 -0.00703473 0.0281505 -0.00703473 0.0633434 0 0.0703858 -0.0211003 0.457492 0 0.133725 -0.00703473 0.0703858 -0.00703473 0.0563048 0 0.168918 0 0.0633472 -0.0465887 0.00154872 0.0395578 0.104026 0.0281351 -0.0140772c0.0101206,0.00678046 0.0367339,0.0281543 0.0492392,0.0281543l0.0492354 0c0.0360328,0 0.0109142,-0.0291444 0.0281389,-0.0563086l0 -0.0422276 0.0351698 0 0 -0.0211157 0.0914438 0 0 0.0211157 0.0281351 0 0 0.0140733 0.00703473 0.0140772 0.00703473 0.0211157 0.00703473 0.0211157c0.0340487,0.00909583 0.023512,0.0281543 0.0492392,0.0281543l0.0633049 0 0 -0.0492701 0 -0.0492662 0.0422045 0 0.00703473 -0.126691 0 -0.950174 -0.00703473 -0.0351929 -0.00703473 -0.0140772 -0.00802868 -0.0209231 -0.104461 -0.00780909c0.0249182,-0.0211389 0.118677,-0.0562701 0.158917,-0.0726164 0.0784338,-0.0318682 0.0842241,-0.041931 0.143495,-0.0816468l0 -0.0422315 -0.00703473 -0.0140733 -0.00703473 -0.0211157 -0.00703473 -0.0140772 -0.00703088 -0.0140772 -0.00703473 -0.0140772 -0.00703473 -0.0140733 -0.00703473 -0.014081 -0.00703473 -0.0140733 -0.00703473 -0.0140772 -0.00703473 -0.0140772 -0.00703088 -0.00703858 -0.146716 0.051963 -0.00100166 0.123994z"/>
   <path id="_117577256" class="fil15" d="M5.4655 2.4986l-0.00703473 0.0281543 -0.00703473 0.00703858 -0.00703473 0.0211157 -0.00703473 0.0211119 -0.00703473 0.0140772 -0.00703473 0.0281543 -0.00703088 0.0140772 -0.00703473 0.0281543 -0.00703473 0.0140733 -0.00703473 0.0211157 -0.00703473 0.0140772 -0.00703473 0.0211157 -0.00703088 0.0211157 -0.00703473 0.0140772 -0.00703473 0.0281505 -0.00703473 0.0140772 -0.00703473 0.0281543 -0.00703473 0.0140772 -0.00703473 0.0140772 -0.00703088 0.0211119 -0.00703473 0.0211157 -0.00703473 0.0211157 -0.00703473 0.0140772 -0.00703473 0.0281543 -0.00703473 0.0140733 -0.00703473 0.0140772 -0.00703088 0.0211157 -0.00703473 0.0211157 -0.00703473 0.0211157 -0.00703473 0.0140733 -0.00703473 0.0281543 -0.00703088 0.0140772 -0.00703473 0.0281543 -0.00703473 0.0140772 -0.00703473 0.0140772 -0.00703473 0.0211119 -0.00703088 0.0140772 -0.00703473 0.0281543 -0.00703473 0.0140772 -0.00703473 0.0281543 -0.00703473 0.0140733 -0.00703473 0.0140772 -0.00703088 0.0211157 -0.00703473 0.0140772 -0.00703473 0.0281543 -0.00703473 0.0140733 -0.00703473 0.0281543 -0.00703473 0.0140772 -0.00703088 0.0211157 -0.00703473 0.0211157 -0.00703473 0.0140772 -0.00703473 0.0211119 -0.00703473 0.0140772 -0.00703473 0.0281543 -0.00703473 0.0140772 -0.00703088 0.0281505 -0.00703473 0.00703858 -0.00703473 0.0211157 -0.00703473 0.0211157 -0.00703473 0.0140772 -0.00703473 0.0281543 -0.00703088 0.0140733 -0.00703473 0.0281543 -0.00703473 0.0140772 -0.00703473 0.0140772 -0.00703473 0.0211157 -0.00703473 0.0211157 -0.00703473 0.0211119 -0.00703088 0.0140772 -0.00703473 0.0281543 -0.00703473 0.0140772 -0.00703473 0.0211157 -0.00703473 0.0211119 -0.00703473 0.0140772 -0.00703088 0.0211157 -0.00703473 0.0140772 -0.00703473 0.0281543 -0.00703473 0.0140733 -0.00703473 0.0281543 -0.00703473 0.0140772 -0.00703473 0.0140772 -0.00703088 0.0211157 -0.00703473 0.0140772 -0.00703473 0.0281505 -0.00703473 0.0140772 -0.00703473 0.0281543 -0.00703473 0.0140772 -0.00703088 0.0140772 -0.00703473 0.0281505 -0.00703473 0.0140772 -0.00703473 0.0211157 -0.00703473 0.0140772 -0.00703473 0.0281543 -0.00703088 0.0140733 -0.00703473 0.0211157 0 0.0211157 -0.084409 0.253381 0.0351698 0c0.0318181,0 0.0796088,-0.215465 0.112544,-0.253381l0.00703473 0 0.00703473 -0.0140772 0.00703473 -0.0281543 0.00703473 -0.0140733 0 -0.0281543 0.0351698 -0.0844591 0.00703473 -0.00703858 0.00703473 -0.0140772 0.00703088 -0.0281543 0.00703473 -0.0140772 0.00703473 -0.0281505 0.00703473 -0.00703858 0.00703473 -0.0351929 0.00703473 -0.0140772 0.00703088 -0.00703858 0.00703473 -0.0281543 0.00703473 -0.0140733 0 -0.0281543 0.0281389 -0.070382 0.00703088 0 0.00703473 -0.0211157 0.00703473 -0.0140772 0.00703473 -0.0281543 0.00703473 -0.0140772 0.00703473 -0.0281505 0.00703088 -0.00703858 0.00703473 -0.0211157 0.00703473 -0.0281543 0.00703473 -0.00703858 0 -0.0281543 0.0422045 -0.11261 0.00703473 0 0.00703473 -0.0211157 0.00703473 -0.0140772 0.00703088 -0.0281543 0.00703473 -0.0140772 0.00703473 -0.0281505 0.00703473 -0.0140772 0.00703473 -0.0140772 0.00703473 -0.0211157 0.00703088 -0.0211157 0 -0.0211157 0.0351698 -0.0914977 0.00703473 0 0.00703473 -0.0140733 0.00703473 -0.0351929 0.00703473 -0.00703858 0.00703088 -0.0281543 0.00703473 -0.0140772 0.00703473 -0.0281505 0.00703473 -0.0140772 0.00703473 -0.0140772 0.00703473 -0.0211157 0.00703473 -0.0140772 0 -0.0281543 0.0281351 -0.070382 0.00703473 0 0.00703473 -0.0211157 0.00703473 -0.0140733 0.00703088 -0.0281543 0.00703473 -0.0140772 0.00703473 -0.0281543 0.00703473 -0.0140772 0.00703473 -0.0281505 0.00703473 -0.0140772 0.00703088 -0.0140772 0.00703473 -0.0211157 0.00703473 -0.0140772 0.00703473 -0.0281505 0.00703473 -0.0140772 0.00703473 -0.0281543 0.00703473 -0.0140772 0.00703088 -0.0140772 0.00703473 -0.0281543 0.00703473 -0.0140733 0.00703473 -0.0211157 0 -0.0140772 0.0140695 0 0 0.0140772 0.00703088 0.0211157 0.00703473 0.0140733 0.00703473 0.0281543 0.00703473 0.0140772 0.00703473 0.0281543 0.00703473 0.0140772 0.00703473 0.0211119 0.00703088 0.0211157 0.00703473 0.0140772 0.00703473 0.0211157 0.00703473 0.0140772 0.00703473 0.0281505 0.00703473 0.0140772 0.00703088 0.0211157 0.00703473 0.0211157 0.00703473 0.0140772 0.00703473 0.0281543 0.00703473 0.00703473 0.00703088 0.0281543 0.00703473 0 0.056274 0.161884 0 0.0140733 0.00703473 0.0140772 0.00703088 0.0211157 0.00703473 0.0140772 0.00703473 0.0140772 0.00703473 0.0351929 0.00703473 0.00703473 0.00703473 0.0281543 0.00703473 0.0140772 0.00703088 0.0281543 0.00703473 0.0140772 0.00703473 0.0140733 0.00703473 0.0211157 0.00703473 0.0211157 0.00703473 0.0211157 0.00703088 0.0140772 0.00703473 0.0281505 0.00703473 0.0140772 0.00703473 0.0140772 0.00703473 0.0281543 0.00703473 0.00703858 0.00703473 0.0281543 0.00703088 0.0140733 0.00703473 0.0281543 0.00703473 0.0140772 0.00703473 0.0211157 0.00703473 0.0211157 0.00703473 0.0140733 0.00703088 0.0211157 0.00703473 0.0140772 0.00703473 0.0281543 0.00703473 0.0140772 0.00703473 0.0351891 -0.0211042 0 -0.00703473 0.00703858 -0.0140656 0.00703858 -0.0140695 0.00703858 -0.0211003 0.00703858 -0.00703473 0.00703858 -0.00703473 0.00703858 -0.0211042 0.00703858 -0.00703473 0.00703858 0 0.0422276 0.168822 0 0 0.0281543 0.00703473 0.0140772 0.00703473 0.0140772 0.00703088 0.0281543 0.00703473 0.0140733 0.00703473 0.0211157 0.00703473 0.0140772 0.00703473 0.0281543 0.00703088 0.0140772 0.00703473 0.0281505 0.00703473 0.0140772 0.00703473 0.0140772 0.00703473 0.0281543 0.00703473 0.0140772 0.00703088 0.0211157 0.00703473 0.0140733 0.00703473 0.0281543 0.00703473 0.0140772 0.00703473 0.0140772 0.00703088 0.0211157 0.00703473 0.0211119 0.00703473 0.0281543 0.00703473 0.00703858 0.00703473 0.0281543 0.00703473 0.0140772 0.00703088 0.0211119 0.00703473 0c0.0236276,0.0340256 0.0632586,0.197076 0.0914438,0.197076l0.0372733 -0.000716571 -0.0583736 -0.182283 0 -0.0211119 -0.00703473 -0.0211157 -0.00703473 -0.0140772 -0.00703473 -0.0211157 -0.00703473 -0.0140772 -0.00703088 -0.0281505 -0.00703473 -0.0140772 -0.00703473 -0.0211157 -0.00703473 0 -0.0281351 -0.0774205 0 -0.0211157 -0.00703473 -0.0140772 -0.00703473 -0.0281543 -0.00703473 -0.0140772 -0.00703473 -0.0211119 -0.00703473 -0.0140772 -0.00703088 -0.0140772 -0.00703473 -0.0281543 -0.00703473 -0.0140772 -0.00703473 -0.0281505 -0.00703473 -0.0140772 -0.00703088 -0.00703858 -0.0773743 -0.204111 -0.0395578 -0.104026 0.0465887 -0.00154872 0 -0.0633472 -0.0633049 -0.00703858 -0.00703473 -0.0140733 -0.00703473 -0.0281543 -0.00703473 -0.0140772 -0.00703473 -0.0211157 -0.00703473 -0.0211157 -0.00703088 -0.0140733 -0.00703473 -0.0211157 -0.00703473 -0.0140772 -0.00703473 -0.0281543 -0.00703473 -0.0140772 -0.00703473 -0.0281505 0.147718 0 0.00703473 -0.0703858 -0.189922 0 0 -0.0211157 -0.00703473 -0.0140733 -0.00703473 -0.0281543 -0.00703088 -0.0140772 -0.00703473 -0.0211157 -0.00703473 -0.0140772 -0.00703473 -0.0211119 -0.00703473 -0.0211157 -0.00703473 -0.0140772 -0.00703088 -0.0281543 -0.00703473 -0.0140772 -0.00703473 -0.00703858 -0.0492392 -0.126687 0 -0.0281543 -0.00703473 -0.0140772 -0.00703473 -0.0211157 -0.00703088 -0.0140772 -0.00703473 -0.0140772 -0.00703473 -0.0281505 -0.00703473 -0.0140772 -0.00703473 -0.0281543 -0.00703473 -0.0140772 -0.00703088 0 -0.0281389 -0.0774205 0 -0.0140772 -0.00703088 -0.0281543 -0.00703473 -0.0140733 -0.00703473 -0.0211157 -0.00703473 -0.0211157 -0.00703473 -0.0140772 -0.00703473 -0.0211157 -0.00703088 -0.0140772 -0.00703473 -0.0140733 -0.0296414 -0.0627308 -0.040702 -0.000616406 -0.00703473 0 -0.00703088 0.0140772z"/>
   <path id="_117577352" class="fil16" d="M3.36934 3.70215l0 0.0140772c0,0.0667529 0.0528645,0.119652 0.119579,0.119652l0.239158 0c0.06035,0 0.119583,-0.0540703 0.119583,-0.112613 0,-0.0731827 -0.0438418,-0.140764 -0.112548,-0.140764l-0.246192 0c-0.0642872,0 -0.119579,0.0553224 -0.119579,0.119648z"/>
   <path id="_117420448" class="fil17" d="M3.47485 4.10334l0 -0.0140772c0,-0.0737337 0.0582773,-0.119652 0.133648,-0.119652l0.00703473 0c0.070459,0 0.126614,0.0561854 0.126614,0.126691l0 0.00703858c0,0.0624534 -0.0556075,0.119648 -0.119579,0.119648l-0.0422045 0c-0.0538816,0 -0.105513,-0.0628695 -0.105513,-0.119648zm-0.105509 -0.401188c0,-0.0643258 0.0552916,-0.119648 0.119579,-0.119648l0.246192 0c0.0687061,0 0.112548,0.0675812 0.112548,0.140764 0,0.0585431 -0.0592327,0.112613 -0.119583,0.112613l-0.239158 0c-0.0667143,0 -0.119579,-0.0528992 -0.119579,-0.119652l0 -0.0140772zm-0.119583 -0.119648l-0.0140656 0.00703473 -0.0140695 0.00703858 -0.00703473 0.00703858 -0.0140695 0.00703858 -0.00703088 0.00703858 -0.00703473 0.00703858 -0.00703473 0.0140772 -0.00703473 0.00703858 -0.00703473 0.0211157 -0.00703473 0.0211157 0 0.0422276 0.00703473 0.0211157 0.00703473 0.0211157 0.00703473 0.0140772 0.00703473 0.00703858 0.00703473 0.00703473 0.00703088 0.00703858 0.00703473 0.00703858 0.0140695 0.00703858 0.0140695 0.00703858 0.0140656 0.00703858 0.0211042 0.00703858 0.0281351 0 0 0.126691 -0.0492392 0 -0.0140656 0.00703858 -0.0140695 0.00703858 -0.00703473 0.00703858 -0.00703473 0.00703858 -0.0140656 0.00703473 -0.00703473 0.00703858 -0.00703473 0.0140772 -0.00703473 0.00703858 -0.00703473 0.0211157 -0.00703473 0.0211157 0 0.0422276 0.00703473 0.0211157 0.00703473 0.0211157 0.00703473 0.0140772 0.00703473 0.00703858 0.00703473 0.00703858 0.00703088 0.00703858 0.00703473 0.00703858 0.0140695 0.00703473 0.00703473 0.00703858 0.0211003 0.00703858 0.0211042 0.00703858 0.0422045 0 0 0.0140772 0.00703473 0.0140772 0.00703473 0.00703858 0.00703088 0.0140772 0.00703473 0.00703858 0.00703473 0.0140772 0.00703473 0.00703858 0.00703473 0.00703473 0.0140695 0.00703858 0.00703088 0.00703858 0.00703473 0.00703858 0.00703473 0.00703858 0.0211042 0.00703858 0.0140656 0.00703858 0.154749 0.00703858 0.429084 0 0 0.260416 0.00703088 -0.260416 0.0915979 0.00163733 0.105359 -0.00867591 0.0140695 -0.00703858 0.0211003 -0.00703858 0.00703473 -0.00703858 0.0140695 -0.00703858 0 -0.0140772 0.0140695 0 0.00703088 -0.00703473 0.00703473 -0.00703858 0.00703473 -0.00703858 0 -0.0140772 0.0140695 0 0.00703473 -0.0140772 0.00703088 -0.0140772 0.00703473 -0.0140772 0 -0.0140772 0.0422045 0 0.0281351 -0.00703858 0.00703473 -0.00703858 0.0140695 -0.00703473 0.00703473 -0.00703858 0.00703473 -0.00703858 0.00703088 -0.00703858 0.00703473 -0.00703858 0.00703473 -0.00703858 0.00703473 -0.0140772 0.00703473 -0.0140772 0 -0.0844591 -0.00703473 -0.0140772 -0.00703473 -0.00703858 -0.00703473 -0.0140772 -0.00703473 -0.00703858 -0.00703088 -0.0140733 -0.0140695 -0.00703858 -0.00703473 -0.00703858 -0.0211003 -0.00703858 -0.0140695 -0.00703858 -0.0351698 0 0 -0.133729 0.0281351 0 0.0281351 -0.00703858 0.0140695 -0.00703858 0.00703473 -0.00703858 0.0140695 -0.00703858 0.00703088 -0.0140733 0.00703473 -0.00703858 0.00703473 -0.00703858 0.00703473 -0.0140772 0.00703473 -0.00703858 0 -0.0914977 -0.00703473 -0.0140772 -0.00703473 -0.00703858 -0.00703473 -0.0140772 -0.00703473 -0.00703858 -0.00703088 -0.0140772 -0.0140695 -0.00703858 -0.00703473 -0.00703858 -0.0211003 -0.00703858 -0.0140695 -0.00703473 -0.0351698 0 0 -0.119652 0.0140695 0 0 -0.00703858 -0.37281 0 -0.0422045 0 -0.267297 0 -0.0422045 0 -0.372806 0 0 0.00703858 0.0211003 0 0 0.119652 -0.0492392 0z"/>
   <path id="_117577472" class="fil16" d="M3.47485 4.10334c0,0.0567787 0.0516317,0.119648 0.105513,0.119648l0.0422045 0c0.0639713,0 0.119579,-0.0571947 0.119579,-0.119648l0 -0.00703858c0,-0.0705052 -0.0561545,-0.126691 -0.126614,-0.126691l-0.00703473 0c-0.075371,0 -0.133648,0.0459184 -0.133648,0.119652l0 0.0140772z"/>
   <polygon id="_117577592" class="fil3" points="0.886299,3.29393 0.879264,3.31505 0.872229,3.42062 0.865195,3.62473 0.85816,3.73735 0.851129,3.94146 0.844094,4.04 0.837059,4.24411 0.837059,4.35672 0.893333,4.35672 1.00588,4.35672 1.05512,4.35672 1.06215,4.34968 1.06918,4.29338 1.07622,4.23003 1.08325,4.11742 1.09029,4.05407 1.09732,3.94146 1.10436,3.88515 1.11139,3.7655 1.11842,3.70919 1.12546,3.64585 1.12546,3.55435 1.13249,3.55435 1.13249,3.58954 1.13953,3.61066 1.14656,3.64585 1.1536,3.66697 1.16063,3.68104 1.16766,3.71623 1.1747,3.73735 1.18173,3.77958 1.18877,3.79366 1.1958,3.82885 1.20283,3.84996 1.20283,3.96961 1.1958,4.05407 1.18877,4.19484 1.18173,4.2793 1.18173,4.3708 1.22393,4.3708 1.33648,4.3708 1.37869,4.3708 1.38572,4.29338 1.39275,4.25114 1.39979,4.19484 1.40682,4.12445 1.41386,4.07519 1.42089,3.99777 1.42792,3.95554 1.43496,3.87108 1.44199,3.82885 1.44199,3.81477 1.43496,3.79366 1.42792,3.75846 1.42089,3.73735 1.41386,3.69512 1.40682,3.674 1.39979,3.63881 1.39275,3.6177 1.38572,3.59658 1.37869,3.55435 1.37165,3.53324 1.36462,3.49804 1.35758,3.47693 1.35055,3.4347 1.34351,3.41358 1.33648,3.3784 1.32945,3.35728 1.32241,3.33616 1.31538,3.31505 1.30735,3.29413 1.11842,3.27986 "/>
   <path id="_117420352" class="fil18" d="M5.99306 3.77254l0.0773743 0.204111c0.0113342,-0.0281004 0.123401,-0.0140772 0.161783,-0.0140772 0.0390917,0 0.157318,-0.0144277 0.168818,0.0140772l0.00703473 0.0140772 0.00703473 0.0211119 0.00703473 0.0140772 0.00703088 0.0140772 0.00703473 0.0281543 0.00703473 0.0140772 0.00703473 0.0281505 0.00703473 0.00703858 0.00703473 0.0351929 0.00703088 0.0140772 0.00703473 0.0211157 -0.330601 0.00703858 0.0281351 0.0774205 0 -0.0140772 0.337636 0 0 0.0211157 0.00703473 0.0140772 0.00703473 0.0281505 0.00703473 0.0140772 0.00703473 0.0140772 0.00703088 0.0281543 0.00703473 0.0140772 0.00703473 0.0281505 0.00703473 0.0140772 0.00703473 0.0211157 0 0.00703858 0.0180337 0.00817508 0.0523059 0.139631 0.0496129 -0.000127134 -0.0425782 -0.133602 0.0211042 0 0 -0.00703858 -0.0211042 -0.00703858 -0.00703473 -0.0281543 -0.00703473 -0.0140772 -0.00703088 -0.0281505 -0.00703473 -0.0140772 -0.00703473 -0.0211157 -0.00703473 -0.0140772 -0.00703473 -0.0211157 -0.00703473 -0.0211119 -0.00703473 -0.0140772 -0.00703088 -0.0281543 -0.00703473 -0.0140772 -0.00703473 -0.0211157 -0.00703473 -0.0211119 -0.00703473 -0.0211157 -0.00703473 -0.0140772 -0.00703088 -0.0140772 -0.00703473 -0.0281543 -0.00703473 -0.0140772 -0.00703473 -0.0281505 -0.00703473 -0.0140772 -0.00703473 -0.0211157 -0.00703088 -0.0140772 -0.00703473 -0.0140772 -0.00703473 -0.0281505 -0.00703473 -0.0140772 -0.00703473 -0.0281543 -0.00703088 -0.0140772 -0.00703473 -0.0211157 0 -0.00703858 0.0281351 -0.00703858 0 -0.0492662 -0.00703473 -0.0140772 -0.00703473 -0.0281543 -0.00703088 -0.0211119 -0.00703473 -0.0140772 -0.0140695 0 0 -0.0351929 -0.00703473 0 0 0.0492701 -0.0633049 0c-0.0257272,0 -0.0151905,-0.0190585 -0.0492392,-0.0281543l-0.0211042 0 -0.00703473 0.00703858 -0.0140656 0.00703858 -0.00703473 0.00703858 -0.0211042 0.00703858 -0.0140656 0.00703858 -0.00703473 0.00703473 -0.0211042 0.00703858 -0.00703473 0.00703858 -0.0140656 0.00703858 -0.0140695 0.00703858 -0.00703473 -0.0140772 -0.00703473 -0.0281505 -0.00703473 -0.0140772 -0.00703088 -0.0422315c-0.0172247,0.0271642 0.00789384,0.0563086 -0.0281389,0.0563086l-0.0492354 0c-0.0125053,0 -0.0391186,-0.0213739 -0.0492392,-0.0281543l-0.0281351 0.0140772z"/>
   <path id="_117577712" class="fil10" d="M5.32482 3.07574l0.338692 0.000354433 -0.00809032 0.0137227 -0.00703473 0.0211157 -0.00703473 0.0211157 -0.00703088 0.0211157 -0.00703473 0.0140772 -0.00703473 0.0281505 -0.00703473 0.0140772 -0.00703473 0.0140772 -0.00703088 0.0211157 -0.00703473 0.0140772 -0.00703473 0.0281505 -0.00703473 0.0140772 -0.330605 0.00703858 0 -0.0140772 -0.0351698 0.0914977 0.00703473 0 0.330605 0 -0.00703473 0.0140772 -0.00703473 0.0211157 -0.00703473 0.0140772 -0.00703473 0.0281543 -0.00703473 0.0140772 -0.00703088 0.0281505 -0.00703473 0.0140772 -0.00703473 0.0140772 -0.00703473 0.0211157 -0.00703473 0.0140772 -0.00703473 0.0281505 -0.330601 0.00703858 0 -0.0211119 -0.0422045 0.11261 0.00703473 0 0.00703473 -0.0140733 0 -0.0140772 0.331565 0.000123281 -0.00799786 0.0280272 -0.00703473 0.0140772 -0.00703473 0.0211157 -0.00703088 0.0140772 -0.00703473 0.0281543 -0.00703473 0.0140772 -0.00703473 0.0211119 -0.00703473 0.0140772 -0.00703473 0.0211157 -0.00703088 0.0281543 -0.00703473 0.0140772 -3.85253e-006 0.0143276 -0.337632 -0.007289 -0.0281389 0.070382 0.338692 0.000350581 -0.00809032 0.0137266 -0.00703088 0.0211157 -0.00703473 0.0211119 -0.00703473 0.0211157 -0.00703473 0.0140772 -0.00703473 0.0281543 -0.00703473 0.0140772 -0.00703473 0.0140733 -0.00703088 0.0281543 -0.00703473 0.00703858 -0.00703473 0.0351929 0 0.0143276 -0.337636 -0.007289 -0.0351698 0.0844591 0.00703088 0 0 -0.0140772 0.338696 0.000350581 -0.00809032 0.0137266 -0.00703473 0.0140772 -0.00703473 0.0211157 -0.00703088 0.0140733 -0.00703473 0.0281543 -0.00703473 0.0140772 0 0.0140772 -0.0140695 0 0.019463 0.00644914 -0.0757331 0.225816 0.0351698 0c0.0225373,0 0.0836385,-0.191725 0.0914399,-0.225227l0.056274 0 0 -0.00703858 -0.0351698 -0.00703858 0.00703473 -0.0140772 0.00703088 -0.0281543 0.00703473 -0.0140772 0.00703473 -0.0281505 0.00703473 -0.0140772 0.00703473 -0.0140772 0.00703473 -0.0281543 0.00703473 -0.0140772 0.00703088 -0.0211119 0.00703473 -0.0140772 0.00703473 -0.0281543 0.00703473 -0.0140772 0.00703473 -0.0140772 0.00703473 -0.0211119 0.00703473 -0.0211157 0.00703088 -0.0281543 0.00703473 -0.00703858 0.00703473 -0.0281543 0.00703473 -0.0140772 0.00703473 -0.0281505 0.00703473 -0.0140772 0.00703088 -0.0140772 0.00703473 -0.0211157 0.00703473 -0.0211157 0.00703473 -0.0211119 0.00703473 -0.0140772 0.00703473 -0.0281543 0.00703473 -0.0140772 0.00703088 -0.0140772 0.00703473 -0.0211119 0.00703473 -0.0140772 0.00703473 -0.0281543 0.00703473 -0.0140772 0.00703473 -0.0281543 0.00703088 -0.0140772 0.00703473 -0.0140733 0.00703473 -0.0281543 0.00703473 -0.0140772 0.00703473 -0.0211157 0.00703473 -0.0140772 0.00703473 -0.0281505 0.00703088 -0.0140772 0.00703473 -0.0281543 0.00703473 -0.0140772 0.00703473 -0.0140772 0.00703473 -0.0281505 0.00703473 -0.0140772 0.00703088 -0.0211157 0.00703473 -0.0140772 0.00703473 -0.0281543 0.00703473 -0.0140772 0.00703473 -0.0140733 0.00703088 -0.0281543 0.00703473 -0.0140772 0.00703473 -0.0211157 0.00703473 -0.0140772 0.00703473 -0.0281505 0.00703473 -0.0140772 0.00703088 -0.0140772 0.00703473 -0.0281543 0.00703473 -0.0140772 0.00703473 -0.0281505 -0.056274 -0.161884 -0.295432 0 -0.0281351 0.070382z"/>
   <polygon id="_117577808" class="fil8" points="0.893333,4.45526 0.998843,4.44822 1.00588,4.44822 1.00588,4.35672 0.893333,4.35672 "/>
   <path id="_117420256" class="fil19" d="M0.893333 4.45526l-0.0140695 0 0 0.0140772 -0.0140695 0 0 0.00703858 0.0222946 0.000111724 -0.00822516 0.105463 0.661207 0c-0.00342876,-0.0412221 -0.175182,-0.119652 -0.225092,-0.119652l-0.0892594 0.000392959 -0.0146512 0.0946992 -0.198506 -0.0942446 0.0491892 -0.00788614 -0.0633087 -0.00703858 -0.105509 0.00703858z"/>
   <path id="_117577928" class="fil3" d="M2.18057 3.51916l-0.00703473 0.0140772 -0.00703473 0.00703858 -0.00703088 0.00703858 -0.00703473 0.0140772 -0.00703473 0.0140772 -0.00703473 0.0140733 -0.00703473 0.0211157 0 0.112613 0.00703473 0.0211157 0.00703473 0.0140772 0.00703473 0.0211157 0.00703473 0.00703858 0 0.0422276 -0.00703473 0.0211157 -0.00703473 0.0422315 -0.00703473 0.0211119 -0.00703473 0.0281543 -0.00703473 0.0351929 -0.00703473 0.0211157 -0.00703088 0.0351891 -0.00703473 0.0281543 -0.00703473 0.0351929 -0.00703473 0.0281505 -0.00703473 0.0351929 -0.00703473 0.0211157 -0.00703088 0.0211157 -0.00703473 0.0281505 -0.00703473 0.00703858 -0.00703473 0.0140772 -0.00703473 0.00703858 -0.00703473 0.0211157 -0.00703473 0.00703858 -0.00703088 0.00703858 -0.00703473 0.0140772 -0.00703473 0.0140733 -0.00703473 0.0140772 -0.00703473 0.00703858 -0.00703473 0.0140772 -0.00703088 0.0140772 -0.00703473 0.00703858 0 0.0140772 -0.107416 0.160516 -0.00181069 0.00739687 0.206322 0.119741 0.0506185 -0.0765036c0,-0.0432986 0.0943255,-0.208303 0.119583,-0.225227l0.00703473 -0.00703858 0.00703088 -0.00703858 0.00703473 -0.0211157 0.00703473 -0.00703858 0.00703473 -0.00703858 0.00703473 -0.0140772 0.00703088 -0.0140733 0.00703473 -0.0211157 0.00703473 -0.00703858 0.00703473 -0.0140772 0.00703473 -0.00703858 0.00703473 -0.0211157 0.00703088 -0.0351891 0.00703473 -0.0211157 0.00703473 -0.0422315 0.00703473 -0.0140772 0.00703473 -0.0422276 0 -0.0211157 0.0140656 0 0 0.0140772 0.00703473 0.00703858 0.00703473 0.00703858 0.00703473 0.0140772 0.00703473 0.00703858 0.00703473 0.00703473 0.00703473 0.00703858 0.00703088 0.00703858 0.00703473 0.0140772 0.00703473 0.00703858 0.00703473 0.0140772 0.00703473 0.00703858 0.00703473 0.00703858 0.00703088 0.00703858 0.00703473 0.00703858 0.00703473 0.0140772 0.00703473 0.00703473 0.00703473 0.0140772 0.00703473 0.00703858 0.00703473 0.00703858 0.00703088 0.0140772 0.0140695 0 0 0.0140772 0.00703473 0.00703858 0.00703473 0.0211157 0.00703473 0.00703858 0.00703088 0.0211119 0.00703473 0.0140772 0.00703473 0.0211157 0.00703473 0.0140772c0.0330316,0.0133413 0.0954157,0.221763 0.1206,0.268302l-0.0104365 0.0184729 0.0385331 0.102601 0.21046 -0.0868438 -0.028555 -0.105459c-0.0385099,-0.00421467 -0.0424164,-0.0599724 -0.0541743,-0.0935973 -0.0104519,-0.0298841 -0.0349001,-0.0820551 -0.0372694,-0.110514l0 -0.0140772 -0.00703473 -0.0281543 -0.00703088 -0.0140733 -0.00703473 -0.0140772 -0.00703473 -0.0211157 -0.00703473 -0.0140772 -0.00703473 -0.0281543 -0.00703473 -0.0140772 -0.00703088 -0.0281505 -0.00703473 -0.00703858 -0.00703473 -0.0211157 -0.00703473 -0.0140772 -0.00703473 -0.0140772 -0.00703473 -0.0140772 -0.00703088 -0.00703858 -0.00703473 -0.0140733 -0.00703473 -0.00703858 -0.00703473 -0.00703858 -0.00703473 -0.0140772 -0.00703088 -0.00703858 -0.00703473 -0.0140772 -0.00703473 -0.0140772 -0.00703473 -0.0140772 -0.0140695 0 0 -0.0211119 -0.00703088 -0.00703858 -0.00703473 -0.00703858 -0.00703473 -0.0140772 -0.00703473 -0.00703858 -0.00703473 -0.0140772 -0.00703473 -0.0140772 -0.00703088 -0.0140772 -0.0140695 0 0 -0.0140772 -0.00703473 -0.0140733 -0.00703473 -0.00703858 -0.00703473 -0.0140772 -0.00703473 -0.00703858 -0.00703088 -0.0140772 -0.00703473 -0.0140772 -0.00703473 -0.00703858 -0.00703473 -0.0140772 -0.00703473 -0.00703858 -0.00703473 -0.0140733 -0.00703088 -0.00703858 -0.00703473 -0.0140772 -0.00703473 -0.00703858 -0.00703473 -0.0140772 -0.00703473 -0.00703858 -0.00703473 -0.0140772 -0.00703473 -0.0140772 -0.00703088 -0.00703858 -0.00703473 -0.0140772 -0.00703473 -0.00703473 -0.00703473 0 -0.00758179 -0.119644 -0.224541 -0.0563164 -0.0140695 0 -0.00703473 0.00703858z"/>
   <polygon id="_117578024" class="fil19" points="4.01648,4.62417 4.01648,4.36376 3.58739,4.36376 3.58739,4.62417 "/>
   <path id="_117420160" class="fil19" d="M2.79254 4.81421l0.00188389 0.103807 0.348889 -0.127473 -0.217125 -0.0467197c-0.0419117,0.0280811 -0.0369651,0.0703858 -0.133648,0.0703858z"/>
   <path id="_117578144" class="fil19" d="M1.78218 4.71687l0.297708 0.213007 0.00559388 -0.00443812 -0.0807645 -0.202732 -0.0351698 0c-0.0463498,0 -0.0791734,-0.0415342 -0.100262,-0.0727089l-0.0871058 0.0668723z"/>
   <path id="_117589592" class="fil16" d="M2.79254 4.81421c0.0966832,0 0.0917366,-0.0423047 0.133648,-0.0703858l0.217125 0.0467197 -0.348889 0.127473 -0.00188389 -0.103807zm-0.923252 -0.16421c0.0210888,0.0311747 0.0539124,0.0727089 0.100262,0.0727089l0.0351698 0 0.0807645 0.202732 -0.00559388 0.00443812 -0.297708 -0.213007 0.0871058 -0.0668723zm0.944353 -0.286243c0.00236931,0.0284587 0.0268175,0.0806297 0.0372694,0.110514 0.0117579,0.0336249 0.0156644,0.0893827 0.0541743,0.0935973l0.028555 0.105459 -0.21046 0.0868438 -0.0385331 -0.102601 0.0104365 -0.0184729c-0.025184,-0.0465386 -0.0875681,-0.254961 -0.1206,-0.268302l-0.218057 0 -0.119579 0.00703858c-0.0252572,0.0169242 -0.119583,0.181928 -0.119583,0.225227l-0.0506185 0.0765036 -0.206322 -0.119741 0.00181069 -0.00739687 0.107416 -0.160516 -0.0633087 0 -0.0914438 0.00703858 -0.175853 0.00703858 -0.0773743 0.00703473 -0.140683 0.00703858 -0.0703396 0.00703858 -0.0140656 0.00703858 0 -0.0633434 -0.112548 0 0 0.070382 -0.056274 0 -0.0984785 0.00703858 -0.00703088 0.00703858 -0.0491892 0.00788614 0.198506 0.0942446 0.0146512 -0.0946992 0.0892594 -0.000392959c0.0499096,0 0.221663,0.0784299 0.225092,0.119652l-0.661207 0 0.00822516 -0.105463 -0.0222946 -0.000111724 -0.0492392 0 -0.084409 0.00703858 -0.0351698 0.00703858 -0.0703396 0.00703858 -0.0422045 0.00703858 -0.0351698 0.00703858 -0.0633087 0.00703473 -0.0281351 0.00703858 -0.056274 0.00703858 -0.0281351 0.00703858 -0.0492392 0.00703858 -0.0281389 0.00703858 -0.0211003 0.00703858 -0.0422045 0.00703858 -0.0211042 0.00703858 -0.0351698 0.00703858 -0.0211003 0.00703858 -0.0281389 0.00703858 -0.0140656 0.00703858 -0.0211042 0.00703858 -0.0140695 0.00703858 -0.0140656 0.00703473 -0.0211042 0.00703858 -0.00703473 0.00703858 -0.0140656 0.00703858 -0.00703473 0.00703858 -0.00703473 0.00703858 -0.00703473 0.00703858 0 0.0563048 0.00703473 0.00703858 0.00703473 0.00703858 0.00703473 0.00703858 0.00703473 0.00703858 0.0140656 0.00703858 0.00703473 0.00703858 0.0211042 0.00703858 0.0140656 0.00703858 0.0281389 0.00703858 0.0140656 0.00703858 0.0211042 0.00703858 0.0281351 0.00703858 0.0211003 0.00703858 0.0351736 0.00703858 0.0211003 0.00703473 0.0422045 0.00703858 0.0281389 0.00703858 0.0492392 0.00703858 0.0281351 0.00703858 0.0281351 0.00703858 0.056274 0.00703858 0.0351698 0.00703858 0.0633087 0.00703858 0.0351698 0.00703858 0.0773743 0.00703858 0.0351698 0.00703858 0.0492392 0.00703858 0.0773743 0.00703858 0.0492392 0.00703473 0.0984785 0.00703858 0.0492392 0.00703858 0.112544 0.00703858 0.056274 0.00703858 0.0773743 0.00703858 0.120137 0.00425705 -0.0286937 0.00278153 0 0.00703858 0.246192 0.00703858 0.0844129 0.00703858 0.182884 0.00703858 0.0984785 0.00703858 0.225092 0.00703858 0.126614 0.00703858 0.147718 0.00703858 0.358736 0.00703473 0.267297 0.00703858 1.27317 0 0.267297 -0.00703858 0.35874 -0.00703473 0.147714 -0.00703858 0.133648 -0.00703858 0.218057 -0.00703858 0.105513 -0.00703858 0.175849 -0.00703858 0.0844129 -0.00703858 0.147714 -0.00703858 0.0703396 -0.00703858 0.126617 -0.00703858 0.0703396 -0.00703858 0.0633087 -0.00703858 0.105509 -0.00703858 0.056274 -0.00703858 0.0914438 -0.00703858 0.0492392 -0.00703473 0.084409 -0.00703858 0.0422045 -0.00703858 0.0422045 -0.00703858 0.0703396 -0.00703858 0.0422045 -0.00703858 0.0633087 -0.00703858 0.0281351 -0.00703858 0.0633087 -0.00703858 0.0281351 -0.00703858 0.0281351 -0.00703858 0.0492392 -0.00703858 0.0211042 -0.00703858 0.0422045 -0.00703858 0.0281351 -0.00703473 0.0351698 -0.00703858 0.0140695 -0.00703858 0.0351698 -0.00703858 0.0140695 -0.00703858 0.0211003 -0.00703858 0.0211042 -0.00703858 0.0140656 -0.00703858 0.0211042 -0.00703858 0.00703473 -0.00703858 0.0140695 -0.00703858 0.00703088 -0.00703858 0.00703473 -0.00703858 0.00703473 -0.00703858 0.00703473 -0.00703858 0.00703473 -0.00703473 0 -0.0422315 -0.00703473 -0.00703858 -0.00703473 -0.00703858 -0.00703473 -0.00703858 -0.00703473 -0.00703858 -0.0140656 -0.00703858 -0.00703473 -0.00703858 -0.0211042 -0.00703858 -0.00703473 -0.00703473 -0.0140656 -0.00703858 -0.0281389 -0.00703858 -0.0140656 -0.00703858 -0.0281389 -0.00703858 -0.0211003 -0.00703858 -0.0351698 -0.00703858 -0.0211042 -0.00703858 -0.0351698 -0.00703858 -0.0281351 -0.00703858 -0.0281389 -0.00703858 -0.0422045 -0.00703858 -0.0281351 -0.00703858 -0.056274 -0.00703858 -0.0351698 -0.00703858 -0.0633087 -0.00703473 -0.0351698 -0.00703858 -0.0351698 -0.00703858 -0.0703396 -0.00703858 -0.0422045 -0.00703858 -0.084409 -0.00703858 -0.0422045 0 -0.0211042 0 0.0425782 0.133602 -0.0496129 0.000127134 -0.0523059 -0.139631 -0.0180337 -0.00817508 -0.0492392 -0.00703858 -0.0633049 -0.00703858 -0.0984785 -0.00703858 -0.056274 -0.00703858 -0.0703396 -0.00703858 -0.00703473 0 0.0583736 0.182283 -0.0372733 0.000716571c-0.0281851,0 -0.0678162,-0.163051 -0.0914438,-0.197076l-5.0083e-005 0.0149247 -0.0491892 -0.00788614 -0.140679 -0.00703858 -0.0773743 -0.00703473 -0.168822 -0.00703858 -0.0984746 -0.00703858 -0.0984785 -0.00703858 -0.225092 0 -0.056274 0c-0.00780138,0.0335016 -0.0689026,0.225227 -0.0914399,0.225227l-0.0351698 0 0.0757331 -0.225816 -0.019463 -0.00644914 0 -0.00703858 -0.309501 -0.00703858 -0.00703473 -0.00703858c-0.0329353,0.0379166 -0.080726,0.253381 -0.112544,0.253381l-0.0351698 0 0.084409 -0.253381 -0.00703473 0 -0.119579 0 -0.450184 0 -0.105359 0.00867591 -0.0915979 -0.00163733 -0.00703088 0.260416 -0.429084 0 0 -0.260416 -0.154749 -0.00703858 -0.569763 0 -0.0492392 0.00703858z"/>
  </g>
 </g>
</svg>
