<?xml version="1.0" encoding="UTF-8"?>
<!DOCTYPE svg PUBLIC "-//W3C//DTD SVG 1.1//EN" "http://www.w3.org/Graphics/SVG/1.1/DTD/svg11.dtd">
<!-- Creator: CorelDRAW -->
<svg xmlns="http://www.w3.org/2000/svg" xml:space="preserve" width="10.9502in" height="7.42966in" style="shape-rendering:geometricPrecision; text-rendering:geometricPrecision; image-rendering:optimizeQuality; fill-rule:evenodd; clip-rule:evenodd"
viewBox="0 0 10.9819 7.45114"
 xmlns:xlink="http://www.w3.org/1999/xlink">
 <defs>
  <style type="text/css">
   <![CDATA[
    .fil0 {fill:#FEFEFE}
   ]]>
  </style>
 </defs>
 <g id="Layer_x0020_1">
  <metadata id="CorelCorpID_0Corel-Layer"/>
  <g id="_246067008">
   <polygon id="_243904616" class="fil0" points="10.1106,0.0229244 10.0648,0.0458527 10.0189,0.068781 9.99601,0.0917053 9.97308,0.114634 9.92723,0.137558 9.9043,0.160486 9.88138,0.183411 9.85845,0.229267 9.83553,0.252192 9.8126,0.27512 9.78967,0.320973 9.76675,0.366825 9.74382,0.412678 9.72089,0.504383 9.72089,0.73365 9.74382,0.825356 9.76675,0.894137 9.78967,0.939989 9.8126,0.962918 9.83553,1.00877 9.85845,1.03169 9.88138,1.05462 9.9043,1.07755 9.92723,1.10048 9.95016,1.1234 9.97308,1.14633 10.0189,1.16926 10.0419,1.19218 10.0877,1.21511 10.1565,1.23804 10.2482,1.26096 10.4775,1.26096 10.5692,1.23804 10.615,1.21511 10.6609,1.19218 10.7067,1.16926 10.7297,1.14633 10.7526,1.1234 10.7984,1.10048 10.8214,1.07755 10.8443,1.05462 10.8672,1.00877 10.8901,0.985842 10.9131,0.962918 10.936,0.917065 10.9589,0.871208 10.9819,0.802431 10.9819,0.458531 10.9589,0.389753 10.936,0.343897 10.9131,0.298044 10.8901,0.252192 10.8672,0.229267 10.8443,0.206339 10.8214,0.183411 10.7984,0.160486 10.7755,0.137558 10.7526,0.114634 10.7297,0.0917053 10.6838,0.068781 10.638,0.0458527 10.5921,0.0229244 10.5233,0 10.1794,0 "/>
   <polygon id="_82737488" class="fil0" points="0.298044,1.26096 0.252192,1.28389 0.206339,1.30681 0.183415,1.32974 0.160486,1.35267 0.137558,1.3756 0.114634,1.39852 0.0917053,1.42145 0.068781,1.44438 0.0458527,1.4673 0.0229283,1.51315 0,1.58193 0,5.29604 0.0229283,5.3419 0.0458527,5.38775 0.068781,5.4336 0.0917053,5.45653 0.114634,5.47945 0.137558,5.50238 0.160486,5.52531 0.183415,5.54823 0.229267,5.57116 0.27512,5.59409 0.320973,5.61702 0.458531,5.63994 0.504383,5.63994 0.641945,5.61702 0.687798,5.59409 0.73365,5.57116 0.779503,5.54823 0.802431,5.52531 0.825356,5.50238 0.848284,5.47945 0.871212,5.45653 0.894137,5.41068 0.917065,5.38775 0.939989,5.3419 0.962918,5.29604 0.985842,5.18141 0.985842,1.69657 0.962918,1.58193 0.939989,1.51315 0.917065,1.4673 0.894137,1.44438 0.871212,1.42145 0.848284,1.39852 0.825356,1.3756 0.802431,1.35267 0.779503,1.32974 0.756579,1.30681 0.710726,1.28389 0.664869,1.26096 0.596092,1.23804 0.366825,1.23804 "/>
   <path id="_246058320" class="fil0" d="M8.80383 4.44776l-0.0229244 0.0229244 -0.0229283 0.0458566 -0.0229283 0.0229244 -0.0458527 0.0229283 -0.0229244 0.0229244 -0.068781 0.0229283 -5.66288 0.0229244 0 -0.710904 5.61702 0.023106 0.068781 0.0229283 0.0458527 0.0229283 0.0458527 0.0229244 0.0229244 0.0229283 0.0229283 0.0229244 0.0229283 0.0229283 0.0229244 0.0458527 0.0229283 0.0458527 0 0.206339 -0.0229283 0.068781zm0 -1.69657l-0.0229244 0.0458527 -0.0229283 0.0229283 -0.0229283 0.0229244 -0.0229244 0.0229283 -0.0458527 0.0229244 -0.068781 0.0229283 -5.66288 0.0229244 0 -0.710904 5.63995 0.023106 0.068781 0.0229283 0.0458527 0.0229283 0.0229283 0.0229244 0.0229244 0.0229283 0.0229283 0.0229244 0.0229283 0.0229283 0.0229244 0.0458527 0.0229283 0.068781 0 0.206339 -0.0229283 0.0458527zm-6.55702 -1.49023l-0.0458566 0.0229283 -0.0229244 0.0229244 -0.0458527 0.0229283 -0.0229283 0.0229244 -0.0229244 0.0229283 -0.0229283 0.0229244 -0.0229283 0.0229283 -0.0229244 0.0458527 -0.0229283 0.0229283 -0.0229244 0.068777 -0.0229283 0.068781 0 3.59947 0.0229283 0.0917053 0.0229244 0.0458566 0.0229283 0.0458527 0.0229244 0.0229244 0.0229283 0.0229283 0.0229283 0.0229244 0.0229244 0.0229283 0.0229283 0.0229244 0.0229244 0.0229283 0.0458527 0.0229283 0.0229283 0.0229244 0.068781 0.0229283 0.114634 0.0229244 6.07556 0 0.229267 -0.0229244 0.0917053 -0.0229283 0.068781 -0.0229244 0.068781 -0.0229283 0.0458527 -0.0229283 0.0458527 -0.0229244 0.0458527 -0.0229283 0.0458527 -0.0229244 0.0458527 -0.0229283 0.0229283 -0.0229244 0.0458527 -0.0229283 0.0229244 -0.0229244 0.0458566 -0.0229283 0.0229244 -0.0229283 0.0229283 -0.0229244 0.0229244 -0.0229283 0.0229283 -0.0229244 0.0229244 -0.0229283 0.0229283 -0.0229244 0.0229283 -0.0229283 0.0229244 -0.0229283 0.0229283 -0.0229244 0.0229244 -0.0229283 0.0229283 -0.0458527 0.0229244 -0.0229244 0.0229283 -0.0458566 0.0229283 -0.0229244 0.0229244 -0.0458527 0.0229283 -0.0458527 0.0229244 -0.0458566 0.0229283 -0.0458527 0.0229244 -0.0458527 0.0229283 -0.068777 0.0229283 -0.0917093 0.0229244 -0.137558 0 -0.320973 -0.0229244 -0.137558 -0.0229283 -0.068781 -0.0229283 -0.068781 -0.0229244 -0.068781 -0.0229283 -0.0458527 -0.0229244 -0.0458527 -0.0229283 -0.0458527 -0.0229244 -0.0458527 -0.0229283 -0.0229283 -0.0229283 -0.0458527 -0.0229244 -0.0229244 -0.0229283 -0.0229283 0 -0.068781 0.0229283 -0.0458527 0.0229244 -0.0229244 0.0229283 -0.0458527 0.0229283 -0.0229283 0.0229244 -0.0458527 0.0229283 -0.0458527 0.0229244 -0.0458527 0.0229283 -0.0458566 0.0229244 -0.068777 0.0229283 -0.068781 0.0229283 -0.068781 0.0229244 -0.137558 0 -0.320973 -0.0229244 -0.137558 -0.0229283 -0.0917093 -0.0229283 -0.068777 -0.0229244 -0.0458566 -0.0229283 -0.068777 -0.0229244 -0.0458527 -0.0229283 -0.0458527 -0.0229244 -0.0229283 -0.0229283 -0.0458527 -0.0229283 -0.0229283 -0.0229244 -0.0458527 -0.0229283 -0.0229244 -0.0229244 -0.0229283 -0.0229283 -0.0458527 -0.0229244 -0.0229283 -0.0229283 -0.0229244 -0.0229283 -0.0229283 -0.0229244 -0.0229244 -0.0229283 -0.0229283 -0.0229244 -0.0229283 -0.0458527 -0.0229244 -0.0229283 -0.0229283 -0.0229283 -0.0229244 -0.0458527 -0.0229283 -0.0229244 -0.0229244 -0.0458527 -0.0229283 -0.0229283 -0.0229283 -0.0458527 -0.0229244 -0.0458527 -0.0229283 -0.068781 -0.0229244 -0.0458527 -0.0229283 -0.068781 -0.0229244 -0.0917053 -0.0229283 -0.0917053 -0.0229244 -6.35069 0 -0.068777 0.0229244z"/>
   <polygon id="_123383728" class="fil0" points="2.61363,6.41945 2.5907,6.44237 2.56778,6.4653 2.56778,7.40529 2.5907,7.42822 2.61363,7.45114 2.77413,7.45114 2.79705,7.42822 2.81998,7.38236 2.81998,6.4653 2.79705,6.44237 2.77413,6.41945 2.72826,6.39652 2.65949,6.39652 "/>
   <polygon id="_82737680" class="fil0" points="0.068781,6.41945 0.0458527,6.44237 0.0229283,6.4653 0.0229283,7.40529 0.0458527,7.42822 0.068781,7.45114 0.206339,7.45114 0.229267,7.42822 0.252192,7.40529 0.27512,7.35944 0.27512,6.48822 0.252192,6.44237 0.229267,6.41945 0.183415,6.39652 0.0917053,6.39652 "/>
   <polygon id="_246067272" class="fil0" points="0.596092,6.41945 0.573164,6.44237 0.55024,6.4653 0.527311,6.48822 0.504383,6.51115 0.481459,6.557 0.481459,7.38236 0.504383,7.42822 0.527311,7.45114 0.687798,7.45114 0.710726,7.42822 0.73365,7.38236 0.756579,6.71749 0.779503,6.71749 0.848284,6.74042 0.871212,6.76334 0.917065,6.78627 0.962918,6.8092 0.985842,6.83212 1.0317,6.85505 1.05462,6.87798 1.10048,6.9009 1.14633,6.92383 1.16926,6.94676 1.21511,6.96968 1.26096,6.99261 1.28389,7.01554 1.32974,7.03846 1.35267,7.06139 1.39852,7.08432 1.44438,7.10724 1.4673,7.13017 1.51315,7.1531 1.55901,7.17602 1.58193,7.19895 1.62779,7.22187 1.67364,7.2448 1.69657,7.26773 1.74242,7.29066 1.76535,7.31358 1.8112,7.33651 1.85705,7.35944 1.87998,7.38236 1.92584,7.40529 1.97169,7.42822 2.01754,7.45114 2.22388,7.45114 2.26973,7.42822 2.29266,7.40529 2.31558,7.38236 2.33851,7.33651 2.36144,7.26773 2.36144,6.48822 2.33851,6.44237 2.31558,6.41945 2.26973,6.39652 2.17803,6.39652 2.1551,6.41945 2.13217,6.44237 2.10925,6.4653 2.08632,6.51115 2.08591,7.15623 1.99461,7.13017 1.97169,7.10724 1.92584,7.08432 1.90291,7.06139 1.85705,7.03846 1.8112,7.01554 1.78827,6.99261 1.74242,6.96968 1.69657,6.94676 1.67364,6.92383 1.62779,6.9009 1.60486,6.87798 1.55901,6.85505 1.51315,6.83212 1.49023,6.8092 1.44438,6.78627 1.39852,6.76334 1.3756,6.74042 1.32974,6.71749 1.28389,6.69456 1.26096,6.67164 1.21511,6.64871 1.19218,6.62579 1.14633,6.60286 1.10048,6.57993 1.07755,6.557 1.0317,6.53408 0.985842,6.51115 0.962918,6.48822 0.917065,6.4653 0.894137,6.44237 0.848284,6.41945 0.779503,6.39652 0.664869,6.39652 "/>
   <polygon id="_123383848" class="fil0" points="3.07217,6.41945 3.04925,6.44237 3.02632,6.48822 3.02632,6.557 3.04925,6.60286 3.07217,6.62579 3.0951,6.64871 3.85167,6.64871 3.85167,7.40529 3.8746,7.42822 3.89753,7.45114 4.05802,7.45114 4.08094,7.42822 4.10387,7.38236 4.10387,6.64871 4.86044,6.64871 4.88337,6.62579 4.9063,6.60286 4.92923,6.557 4.92923,6.48822 4.9063,6.44237 4.88337,6.41945 4.83752,6.39652 3.11802,6.39652 "/>
   <path id="_82737776" class="fil0" d="M6.74043 7.08432l0 0.0917053 -1.35267 0.0229283 0 -0.138245 1.35267 0.0236114zm-1.55901 -0.664869l-0.0229244 0.0229244 -0.0229283 0.0229283 0 0.114634 0.0229283 0.0229244 0.0229244 0.0229283 0.0229283 0.0229244 1.51315 0.0229283 0.0458527 0 0 0.0458527 0 0.0229283 -0.0229244 0.0458527 -1.55901 0.0229244 -0.0229244 0.0229283 -0.0229283 0.0229244 0 0.366825 0.0229283 0.068781 0.0229244 0.0458527 0.0229283 0.0229283 0.0229244 0.0229244 0.0229283 0.0229283 0.0458527 0.0229283 0.0458527 0.0229244 1.4673 0 0.0458527 -0.0229244 0.0229244 -0.0229283 0.0229283 -0.0229283 0.0229244 -0.0229244 0.0229283 -0.0229283 0.0229283 -0.0229244 0.0229244 -0.0458527 0.0229283 -0.0458566 0 -0.183411 -0.0229283 -0.0458527 -0.0229244 -0.0458527 0 -0.0229283 0.0229244 -0.0458527 0.0229283 -0.0458527 0 -0.206339 -0.0229283 -0.0458527 -0.0229244 -0.0229283 -0.0229283 -0.0458527 -0.0229283 -0.0229283 -0.0229244 -0.0229244 -0.0458527 -0.0229283 -0.0229283 -0.0229244 -0.0917053 -0.0229283 -1.51316 0 -0.0458527 0.0229283z"/>
   <polygon id="_246067152" class="fil0" points="7.26774,6.41945 7.24481,6.44237 7.24481,7.40529 7.26774,7.42822 7.29066,7.45114 7.42822,7.45114 7.45115,7.42822 7.47408,7.40529 7.47408,6.4653 7.45115,6.44237 7.42822,6.41945 7.4053,6.39652 7.31359,6.39652 "/>
   <polygon id="_123384304" class="fil0" points="7.7492,6.41945 7.72627,6.44237 7.70334,6.4653 7.70334,6.57993 7.72627,6.62579 7.7492,6.64871 8.52871,6.64871 8.52871,7.40529 8.55164,7.42822 8.57456,7.45114 8.71212,7.45114 8.73505,7.42822 8.75798,7.40529 8.75798,6.64871 9.51455,6.64871 9.56041,6.62579 9.58333,6.57993 9.58333,6.4653 9.56041,6.44237 9.53748,6.41945 9.49163,6.39652 7.77212,6.39652 "/>
  </g>
 </g>
</svg>
